<svg width="40" height="40" viewBox="0 0 40 40" fill="none" xmlns="http://www.w3.org/2000/svg">
<rect width="40" height="40" fill="#B7E1E3"/>
<path fill-rule="evenodd" clip-rule="evenodd" d="M26.996 7.5H13.004C9.96874 7.5 7.5 9.98025 7.5 13.0013V26.9864C7.5 30.0201 9.96874 32.5 13.004 32.5H26.9964C30.0189 32.5 32.5 30.0201 32.5 26.9864V13.0013C32.5 9.98025 30.0185 7.5 26.996 7.5ZM23.4193 18.9929L23.3185 20.1762H21.0891V27.6915H18.0793V20.1762H16.568V17.168H18.0665V15.8087C18.0665 14.5751 18.6458 12.6615 21.228 12.6615H23.5577V15.242H21.8701C21.5928 15.242 21.2025 15.3805 21.2025 15.9595V17.168H23.5952L23.4193 18.9929Z" fill="#232629"/>
</svg>
