<svg width="40" height="40" viewBox="0 0 40 40" fill="none" xmlns="http://www.w3.org/2000/svg">
<rect width="40" height="40" fill="#B7E1E3"/>
<g clip-path="url(#clip0_206_19246)">
<path fill-rule="evenodd" clip-rule="evenodd" d="M25.5034 7.79883H14.4966C10.9143 7.79883 8 10.7131 8 14.2954V25.3024C8 28.8845 10.9143 31.7988 14.4966 31.7988H25.5036C29.0857 31.7988 32 28.8845 32 25.3024V14.2954C32 10.7131 29.0857 7.79883 25.5034 7.79883ZM19.9998 26.361C16.3813 26.361 13.4375 23.4172 13.4375 19.7986C13.4375 16.1801 16.3813 13.2363 19.9998 13.2363C23.6183 13.2363 26.5621 16.1801 26.5621 19.7986C26.5621 23.4172 23.6183 26.361 19.9998 26.361ZM24.7812 12.8459C24.7812 13.9153 25.651 14.785 26.7203 14.785C27.7897 14.785 28.6596 13.9153 28.6596 12.8459C28.6596 11.7766 27.7897 10.9066 26.7203 10.9066C25.651 10.9066 24.7812 11.7766 24.7812 12.8459Z" fill="#232629"/>
<path d="M19.9991 14.6426C17.1566 14.6426 14.8438 16.9552 14.8438 19.7979C14.8438 22.6404 17.1566 24.9532 19.9991 24.9532C22.8418 24.9532 25.1544 22.6404 25.1544 19.7979C25.1544 16.9552 22.8418 14.6426 19.9991 14.6426Z" fill="#232629"/>
</g>
<defs>
<clipPath id="clip0_206_19246">
<rect width="24" height="25" fill="white" transform="translate(8 7.5)"/>
</clipPath>
</defs>
</svg>
