<svg width="206" height="57" viewBox="0 0 206 57" fill="none" xmlns="http://www.w3.org/2000/svg">
<path d="M202.38 51.3696L204.614 54.2852L204.685 53.034L203.444 51.3814L204.85 49.6581L204.649 48.6194L202.38 51.3696Z" fill="#F4F6F7"/>
<path d="M167.272 51.3578L165.038 54.2733L164.967 53.0222L166.208 51.3696L164.802 49.6463L165.003 48.6076L167.272 51.3578Z" fill="#F4F6F7"/>
<path d="M181.878 43.473V44.6179H166.598V24.2684L167.744 25.2363V43.473H181.878Z" fill="#F4F6F7"/>
<path d="M181.878 2.14827V3.29323H167.744V15.5927L166.598 14.6366V2.14827H181.878Z" fill="#F4F6F7"/>
<path d="M169.091 49.2922L167 46.5773L167.992 46.5301L169.139 48.0174L170.498 46.5065L171.384 46.7426L169.091 49.2922Z" fill="#F4F6F7"/>
<path d="M170.273 56.5278L169.044 55.076L167.898 56.4688L167.26 55.9495L169.032 53.8012L170.899 55.9967L170.273 56.5278Z" fill="#F4F6F7"/>
<path d="M177.092 49.2922L174.894 46.4357L175.993 46.5301L177.139 48.0174L178.498 46.5065L179.502 46.6009L177.092 49.2922Z" fill="#F4F6F7"/>
<path d="M178.273 56.5278L177.044 55.076L175.898 56.4688L175.26 55.9495L177.033 53.8012L178.9 55.9967L178.273 56.5278Z" fill="#F4F6F7"/>
<path d="M184.915 49.2922L182.847 46.6128L183.816 46.5301L184.962 48.0174L186.321 46.5065L187.219 46.7308L184.915 49.2922Z" fill="#F4F6F7"/>
<path d="M186.096 56.5278L184.867 55.076L183.721 56.4688L183.083 55.9495L184.855 53.8012L186.723 55.9967L186.096 56.5278Z" fill="#F4F6F7"/>
<path d="M192.667 49.2922L190.705 46.7426L191.568 46.5301L192.714 48.0174L194.073 46.5065L195.018 46.6836L192.667 49.2922Z" fill="#F4F6F7"/>
<path d="M193.86 56.5278L192.619 55.076L191.473 56.4688L190.835 55.9495L192.608 53.8012L194.475 55.9967L193.86 56.5278Z" fill="#F4F6F7"/>
<path d="M200.667 49.2922L198.646 46.66L199.568 46.5301L200.714 48.0174L202.073 46.5065L202.9 46.8134L200.667 49.2922Z" fill="#F4F6F7"/>
<path d="M201.86 56.5278L200.62 55.076L199.473 56.4688L198.835 55.9495L200.608 53.8012L202.475 55.9967L201.86 56.5278Z" fill="#F4F6F7"/>
<path d="M173.05 54.0963L175.154 51.3578L173.05 48.7964L170.899 51.3578L173.05 54.0963ZM174.315 51.3696L173.05 53.0222L171.75 51.3696L173.05 49.8234L174.315 51.3696Z" fill="#F4F6F7"/>
<path d="M181.05 54.0963L183.154 51.3578L181.05 48.7964L178.9 51.3578L181.05 54.0963ZM182.303 51.3696L181.039 53.0222L179.739 51.3696L181.039 49.8234L182.303 51.3696Z" fill="#F4F6F7"/>
<path d="M188.873 54.0963L190.977 51.3578L188.873 48.7964L186.723 51.3578L188.873 54.0963ZM190.138 51.3696L188.861 53.0222L187.562 51.3696L188.861 49.8234L190.138 51.3696Z" fill="#F4F6F7"/>
<path d="M196.755 54.0963L198.859 51.3578L196.755 48.7964L194.605 51.3578L196.755 54.0963ZM198.02 51.3696L196.744 53.0222L195.444 51.3696L196.744 49.8234L198.02 51.3696Z" fill="#F4F6F7"/>
<path d="M164.175 0V57H205.5V0H164.175ZM165.322 19.1102L183.615 34.514L176.371 40.6637L177.115 41.5372L183.957 35.7416V45.8337H165.322V19.1102ZM188.058 46.9669L184.926 50.6968L182.031 46.9669H188.058ZM180.223 46.9669L177.115 50.6968L174.208 46.9669H180.235H180.223ZM172.223 46.9669L169.115 50.6968L166.22 46.9669H172.223ZM165.322 47.1439L168.583 51.3224L165.322 55.2176V47.1439ZM165.854 55.855L169.091 51.9834L172.093 55.855H165.854ZM169.635 51.346L173.239 47.0377L176.572 51.3342L172.967 55.6426L169.635 51.346ZM173.842 55.855L177.08 51.9834L180.105 55.855H173.842ZM177.623 51.346L181.133 47.1439L184.395 51.3224L180.885 55.5245L177.623 51.346ZM181.665 55.855L184.903 51.9834L187.928 55.855H181.665ZM185.458 51.346L188.932 47.2029L192.158 51.3342L188.684 55.5009L185.458 51.3578V51.346ZM189.783 46.9669H195.81L192.678 50.6968L189.783 46.9669ZM189.417 55.855L192.655 51.9834L195.68 55.855H189.417ZM193.21 51.346L196.814 47.0377L200.147 51.3342L196.543 55.6426L193.21 51.346ZM197.795 46.9669H203.798L200.69 50.6968L197.795 46.9669ZM197.429 55.855L200.667 51.9834L203.668 55.855H197.429ZM204.33 55.3829L201.199 51.346L204.33 47.6043V55.3829ZM204.33 45.8219H185.104V35.7652L191.969 41.5254L192.714 40.6519L185.399 34.5022L201.766 20.6328V43.473H187.644V44.6179H202.912V2.14827H187.644V3.29323H201.766V19.1338L185.104 33.2392V13.8693L190.256 18.52L191.036 17.6819L186.014 13.1493H192.336V12.0043H186.014L191.036 7.45993L190.256 6.62187L185.104 11.2725V5.65397H183.957V11.2725L178.805 6.62187L178.037 7.45993L183.047 12.0043H176.725V13.1493H183.047L178.037 17.6819L178.805 18.52L183.957 13.8693V33.2864L165.322 17.6111V1.14496H204.33V45.8219Z" fill="#F4F6F7"/>
<path d="M2.03255 52.9041C2.72976 52.9041 3.15518 52.5736 3.15518 52.0306C3.15518 51.4641 2.88338 51.2752 2.10345 51.1808L1.6544 51.1218C0.768114 51.0155 0.24816 50.4962 0.24816 49.5991C0.24816 48.5368 1.13445 48.0056 2.18617 48.0056C2.8243 48.0056 3.36788 48.1472 3.76967 48.4069V49.2568C3.3088 48.9263 2.77703 48.7374 2.22162 48.7374C1.50078 48.7374 1.11081 49.0089 1.11081 49.5873C1.11081 50.1657 1.34715 50.2955 2.05618 50.3899L2.4816 50.4371C3.42697 50.5552 4.01783 51.0037 4.01783 51.9716C4.01783 53.0812 3.09609 53.6241 1.96164 53.6241C1.33534 53.6241 0.815382 53.5061 0.283611 53.211V52.3611C0.791748 52.6917 1.37079 52.8923 2.02073 52.8923" fill="#F4F6F7"/>
<path d="M5.11682 49.6581V48.4895H5.94402V49.6581H6.92484V50.3191H5.94402V52.2077C5.94402 52.7389 6.08583 52.9395 6.53488 52.9395C6.67668 52.9395 6.88939 52.9277 7.00756 52.8923V53.5887C6.86576 53.6241 6.6176 53.6596 6.39307 53.6596C5.5186 53.6596 5.11682 53.1402 5.11682 52.3021V50.3191H4.45506V49.6581H5.11682Z" fill="#F4F6F7"/>
<path d="M8.57924 49.6581V50.2601C8.83922 49.847 9.241 49.5637 9.78459 49.5637V50.3663C9.78459 50.3663 9.66642 50.3545 9.60733 50.3545C9.05193 50.3545 8.60288 50.8503 8.57924 51.5349V53.5533H7.75204V49.6581H8.57924Z" fill="#F4F6F7"/>
<path d="M12.6325 53.1284C12.3844 53.4943 12.0062 53.6596 11.4863 53.6596C10.6236 53.6596 10.1864 53.2346 10.1864 52.5264C10.1864 51.6647 10.73 51.2988 11.829 51.2988H12.6325V51.2516C12.6325 50.626 12.4907 50.2837 11.6753 50.2837C11.1672 50.2837 10.8127 50.4017 10.3991 50.744V49.9768C10.7418 49.7171 11.1081 49.5637 11.829 49.5637C13.0343 49.5637 13.4597 50.0358 13.4597 51.1336V53.5533H12.6325V53.1284ZM12.6325 51.9244H11.8762C11.2145 51.9244 11.0018 52.0543 11.0018 52.5028C11.0018 52.8451 11.2145 53.0104 11.6635 53.0104C12.1126 53.0104 12.6089 52.8097 12.6443 52.1369V51.9126L12.6325 51.9244Z" fill="#F4F6F7"/>
<path d="M15.3268 49.6581V50.2601C15.5868 49.847 15.9886 49.5637 16.5322 49.5637V50.3663C16.5322 50.3663 16.414 50.3545 16.3549 50.3545C15.7995 50.3545 15.3505 50.8503 15.3268 51.5349V53.5533H14.4996V49.6581H15.3268Z" fill="#F4F6F7"/>
<path d="M19.0138 52.9631C19.5101 52.9631 19.8882 52.9277 20.3964 52.6326V53.3172C19.9355 53.5651 19.5337 53.6596 18.9074 53.6596C17.7966 53.6596 17.0639 53.0222 17.0639 51.8418V51.3696C17.0639 50.2365 17.773 49.5519 18.7656 49.5519C19.7583 49.5519 20.4791 50.1184 20.4791 51.3106V51.9244H17.8793C17.903 52.609 18.352 52.9631 19.002 52.9631M19.6519 51.3106V51.287C19.6519 50.5788 19.3447 50.2365 18.7656 50.2365C18.1866 50.2365 17.8911 50.6142 17.8793 51.3106H19.6519Z" fill="#F4F6F7"/>
<path d="M22.7834 55.2531C22.2517 55.2531 21.8263 55.1468 21.4481 55.0052V54.2733C21.8853 54.474 22.4053 54.5566 22.7953 54.5566C23.6815 54.5566 23.9652 54.0845 23.9652 53.3645V52.9985C23.7052 53.3763 23.3388 53.6359 22.7953 53.6359C21.7554 53.6359 21.2118 52.9749 21.2118 51.8418V51.3696C21.2118 50.2955 21.7435 49.5755 22.7953 49.5755C23.327 49.5755 23.7052 49.8116 23.9652 50.1539V49.6699H24.7924V53.3881C24.7924 54.4976 24.107 55.2531 22.7834 55.2531ZM22.0508 51.8654C22.0508 52.55 22.3935 52.9395 22.9725 52.9395C23.5516 52.9395 23.9415 52.4556 23.9652 51.9008V51.169C23.8943 50.6142 23.457 50.2247 22.9843 50.2247C22.4171 50.2247 22.0508 50.6142 22.0508 51.3106V51.8654Z" fill="#F4F6F7"/>
<path d="M26.7067 48.9263H25.8441V48.0646H26.7067V48.9263ZM26.6949 53.5651H25.8677V49.6699H26.6949V53.5651Z" fill="#F4F6F7"/>
<path d="M30.6064 50.6024C30.2164 50.3427 29.8265 50.2601 29.4719 50.2601C28.8338 50.2601 28.4438 50.626 28.4438 51.3578V51.9008C28.4438 52.5972 28.822 52.9867 29.4601 52.9867C29.8265 52.9867 30.181 52.9041 30.5946 52.6444V53.3645C30.2991 53.5651 29.8974 53.6832 29.401 53.6832C28.2902 53.6832 27.6048 52.9985 27.6048 51.8654V51.3932C27.6048 50.3427 28.1957 49.5755 29.4483 49.5755C29.8619 49.5755 30.2637 49.6463 30.6064 49.8352V50.6142V50.6024Z" fill="#F4F6F7"/>
<path d="M35.0024 48.0056C36.3377 48.0056 37.224 48.8791 37.224 50.508V51.2044C37.224 52.8451 36.3377 53.6714 35.0024 53.6714C33.667 53.6714 32.7926 52.8451 32.7926 51.2044V50.508C32.7926 48.8673 33.667 48.0056 35.0024 48.0056ZM35.0024 52.9277C35.9123 52.9277 36.3495 52.373 36.3495 51.2634V50.4726C36.3495 49.3512 35.865 48.761 35.0024 48.761C34.1397 48.761 33.667 49.3512 33.667 50.4726V51.2634C33.667 52.373 34.1043 52.9277 35.0024 52.9277Z" fill="#F4F6F7"/>
<path d="M38.3348 49.6581V49.3512C38.3348 48.5013 38.8429 47.9938 39.7647 47.9938C39.9537 47.9938 40.1074 48.0174 40.2255 48.0528V48.7374C40.1428 48.702 40.0128 48.6784 39.8592 48.6784C39.422 48.6784 39.1502 48.8791 39.1502 49.4102V49.6581H40.1192V50.3191H39.1502V53.5533H38.323V50.3191H37.9094V49.6581H38.3348Z" fill="#F4F6F7"/>
<path d="M40.9818 49.6699V49.363C40.9818 48.5131 41.49 48.0056 42.4117 48.0056C42.6008 48.0056 42.7544 48.0292 42.8726 48.0646V48.7492C42.7899 48.7138 42.6599 48.6902 42.5062 48.6902C42.069 48.6902 41.7972 48.8909 41.7972 49.422V49.6699H42.7662V50.3309H41.7972V53.5651H40.97V50.3309H40.5564V49.6699H40.9818ZM44.2906 48.9263H43.428V48.0646H44.2906V48.9263ZM44.2788 53.5651H43.4516V49.6699H44.2788V53.5651Z" fill="#F4F6F7"/>
<path d="M48.1903 50.6024C47.8003 50.3427 47.4104 50.2601 47.0558 50.2601C46.4059 50.2601 46.0277 50.626 46.0277 51.3578V51.9008C46.0277 52.5972 46.4059 52.9867 47.044 52.9867C47.4104 52.9867 47.7649 52.9041 48.1785 52.6444V53.3645C47.883 53.5651 47.4813 53.6832 46.9849 53.6832C45.8741 53.6832 45.1887 52.9985 45.1887 51.8654V51.3932C45.1887 50.3427 45.7796 49.5755 47.0322 49.5755C47.4458 49.5755 47.8476 49.6463 48.1903 49.8352V50.6142V50.6024Z" fill="#F4F6F7"/>
<path d="M50.8255 52.9631C51.3218 52.9631 51.7 52.9277 52.2081 52.6326V53.3172C51.7472 53.5651 51.3455 53.6596 50.7191 53.6596C49.6083 53.6596 48.8757 53.0222 48.8757 51.8418V51.3696C48.8757 50.2365 49.5847 49.5519 50.5773 49.5519C51.57 49.5519 52.2908 50.1184 52.2908 51.3106V51.9244H49.6911C49.7147 52.609 50.1637 52.9631 50.8137 52.9631M51.4636 51.3106V51.287C51.4636 50.5788 51.1564 50.2365 50.5773 50.2365C49.9983 50.2365 49.7029 50.6142 49.6911 51.3106H51.4636Z" fill="#F4F6F7"/>
<path d="M54.8079 49.6581V49.3512C54.8079 48.5013 55.316 47.9938 56.2378 47.9938C56.4268 47.9938 56.5805 48.0174 56.6986 48.0528V48.7374C56.6159 48.702 56.4859 48.6784 56.3323 48.6784C55.8951 48.6784 55.6351 48.8791 55.6351 49.4102V49.6581H56.6041V50.3191H55.6351V53.5533H54.8079V50.3191H54.3943V49.6581H54.8079Z" fill="#F4F6F7"/>
<path d="M58.8257 49.5637C59.8183 49.5637 60.6219 50.1775 60.6219 51.3814V51.8536C60.6219 53.0576 59.8302 53.6714 58.8257 53.6714C57.8212 53.6714 57.0295 53.0576 57.0295 51.8536V51.3814C57.0295 50.1775 57.8212 49.5637 58.8257 49.5637ZM58.8257 52.9867C59.3929 52.9867 59.7829 52.609 59.7829 51.8772V51.3578C59.7829 50.6378 59.3929 50.2483 58.8257 50.2483C58.2585 50.2483 57.8685 50.6378 57.8685 51.3578V51.8772C57.8685 52.5972 58.2467 52.9867 58.8257 52.9867Z" fill="#F4F6F7"/>
<path d="M62.3472 49.6581V50.2601C62.6072 49.847 63.009 49.5637 63.5526 49.5637V50.3663C63.5526 50.3663 63.4344 50.3545 63.3753 50.3545C62.8199 50.3545 62.3708 50.8503 62.3472 51.5349V53.5533H61.52V49.6581H62.3472Z" fill="#F4F6F7"/>
<path d="M69.6738 51.1926C69.6738 52.8333 68.7521 53.5651 67.405 53.5651H65.6206V48.1118H67.405C68.7403 48.1118 69.6738 48.8909 69.6738 50.5316V51.1926ZM66.4832 52.7979H67.405C68.2794 52.7979 68.7994 52.3966 68.7994 51.2398V50.4726C68.7994 49.3512 68.2322 48.8555 67.405 48.8555H66.4832V52.7979Z" fill="#F4F6F7"/>
<path d="M72.4036 52.9631C72.8999 52.9631 73.2781 52.9277 73.7862 52.6326V53.3172C73.3253 53.5651 72.9236 53.6596 72.2972 53.6596C71.1864 53.6596 70.4538 53.0222 70.4538 51.8418V51.3696C70.4538 50.2365 71.1628 49.5519 72.1554 49.5519C73.1481 49.5519 73.8689 50.1184 73.8689 51.3106V51.9244H71.2692C71.2928 52.609 71.7418 52.9631 72.3918 52.9631M73.0417 51.3106V51.287C73.0417 50.5788 72.7345 50.2365 72.1554 50.2365C71.5764 50.2365 71.281 50.6142 71.2692 51.3106H73.0417Z" fill="#F4F6F7"/>
<path d="M75.7006 53.5533L74.2116 49.6581H75.0979L76.1614 52.7153L77.2368 49.6581H78.0876L76.6105 53.5533H75.7006Z" fill="#F4F6F7"/>
<path d="M80.5102 52.9631C81.0065 52.9631 81.3846 52.9277 81.8928 52.6326V53.3172C81.4319 53.5651 81.0301 53.6596 80.4038 53.6596C79.293 53.6596 78.5603 53.0222 78.5603 51.8418V51.3696C78.5603 50.2365 79.2694 49.5519 80.262 49.5519C81.2546 49.5519 81.9755 50.1184 81.9755 51.3106V51.9244H79.3757C79.3993 52.609 79.8484 52.9631 80.4983 52.9631M81.1483 51.3106V51.287C81.1483 50.5788 80.841 50.2365 80.262 50.2365C79.683 50.2365 79.3875 50.6142 79.3757 51.3106H81.1483Z" fill="#F4F6F7"/>
<path d="M83.6771 48.1V52.3611C83.6771 52.7979 83.7481 52.9631 84.0435 52.9631C84.1971 52.9631 84.3271 52.9395 84.4098 52.9041V53.5887C84.2916 53.6359 84.0789 53.6714 83.9017 53.6714C83.1336 53.6714 82.8618 53.2936 82.8618 52.5146V48.1H83.689H83.6771Z" fill="#F4F6F7"/>
<path d="M86.6787 49.5637C87.6713 49.5637 88.4749 50.1775 88.4749 51.3814V51.8536C88.4749 53.0576 87.6832 53.6714 86.6787 53.6714C85.6742 53.6714 84.8825 53.0576 84.8825 51.8536V51.3814C84.8825 50.1775 85.6742 49.5637 86.6787 49.5637ZM86.6787 52.9867C87.2459 52.9867 87.6359 52.609 87.6359 51.8772V51.3578C87.6359 50.6378 87.2577 50.2483 86.6787 50.2483C86.0997 50.2483 85.7215 50.6378 85.7215 51.3578V51.8772C85.7215 52.5972 86.0997 52.9867 86.6787 52.9867Z" fill="#F4F6F7"/>
<path d="M90.2002 49.6699V50.1539C90.4484 49.8116 90.8265 49.5637 91.3701 49.5637C92.4218 49.5637 92.9536 50.2955 92.9536 51.3578V51.8654C92.9536 53.0103 92.3864 53.6714 91.3583 53.6714C90.8265 53.6714 90.4602 53.4235 90.212 53.0576V55.1704H89.3848V49.6699H90.212H90.2002ZM90.2002 51.9008C90.2002 52.4674 90.6138 52.9749 91.1928 52.9749C91.7719 52.9749 92.1146 52.5972 92.1146 51.9008V51.3224C92.1146 50.626 91.7483 50.2365 91.181 50.2365C90.6965 50.2365 90.2593 50.626 90.2002 51.169V51.9008Z" fill="#F4F6F7"/>
<path d="M94.6907 48.9263H93.8281V48.0646H94.6907V48.9263ZM94.6789 53.5651H93.8517V49.6699H94.6789V53.5651Z" fill="#F4F6F7"/>
<path d="M96.5933 50.1539C96.8533 49.7879 97.255 49.5519 97.8104 49.5519C98.7558 49.5519 99.2167 50.1421 99.2167 51.1454V53.5415H98.3895V51.2988C98.3895 50.5906 98.0113 50.2955 97.5386 50.2955C97.0305 50.2955 96.6169 50.6496 96.5933 51.287V53.5297H95.7661V49.6345H96.5933V50.1539Z" fill="#F4F6F7"/>
<path d="M101.651 55.2531C101.119 55.2531 100.694 55.1468 100.316 55.0052V54.2733C100.753 54.474 101.273 54.5566 101.663 54.5566C102.549 54.5566 102.833 54.0845 102.833 53.3645V52.9985C102.573 53.3763 102.206 53.6359 101.663 53.6359C100.623 53.6359 100.079 52.9749 100.079 51.8418V51.3696C100.079 50.2955 100.611 49.5755 101.663 49.5755C102.195 49.5755 102.573 49.8116 102.833 50.1539V49.6699H103.66V53.3881C103.66 54.4976 102.975 55.2531 101.651 55.2531ZM100.918 51.8654C100.918 52.55 101.261 52.9395 101.84 52.9395C102.419 52.9395 102.809 52.4556 102.833 51.9008V51.169C102.774 50.6142 102.325 50.2247 101.852 50.2247C101.285 50.2247 100.918 50.6142 100.918 51.3106V51.8654Z" fill="#F4F6F7"/>
<path d="M108.422 48.1L110.372 53.5533H109.379L108.966 52.2903H106.791L106.354 53.5533H105.456L107.5 48.1H108.422ZM108.718 51.5585L107.902 49.0915L107.04 51.5585H108.718Z" fill="#F4F6F7"/>
<path d="M111.743 48.1V52.3611C111.743 52.7979 111.814 52.9631 112.109 52.9631C112.263 52.9631 112.393 52.9395 112.476 52.9041V53.5887C112.357 53.6359 112.145 53.6714 111.967 53.6714C111.199 53.6714 110.927 53.2936 110.927 52.5146V48.1H111.755H111.743Z" fill="#F4F6F7"/>
<path d="M114.685 48.1H116.659C117.9 48.1 118.479 48.643 118.479 49.5401C118.479 50.1421 118.195 50.4844 117.711 50.7086C118.266 50.8739 118.62 51.2988 118.62 51.9952C118.62 52.8333 118.124 53.5533 116.741 53.5533H114.697V48.1H114.685ZM115.536 50.4253H116.6C117.368 50.4253 117.569 50.1303 117.569 49.6463C117.569 49.0089 117.12 48.8555 116.529 48.8555H115.536V50.4371V50.4253ZM115.536 52.8097H116.623C117.285 52.8097 117.711 52.5972 117.711 52.007C117.711 51.4169 117.439 51.1336 116.647 51.1336H115.536V52.8097Z" fill="#F4F6F7"/>
<path d="M121.705 53.1284C121.457 53.4943 121.078 53.6596 120.558 53.6596C119.696 53.6596 119.259 53.2346 119.259 52.5264C119.259 51.6647 119.802 51.2988 120.901 51.2988H121.705V51.2516C121.705 50.626 121.563 50.2837 120.748 50.2837C120.239 50.2837 119.885 50.4017 119.471 50.744V49.9768C119.814 49.7171 120.18 49.5637 120.901 49.5637C122.106 49.5637 122.532 50.0358 122.532 51.1336V53.5533H121.705V53.1284ZM121.705 51.9244H120.948C120.287 51.9244 120.074 52.0543 120.074 52.5028C120.074 52.8451 120.287 53.0104 120.736 53.0104C121.185 53.0104 121.681 52.8097 121.717 52.1369V51.9126L121.705 51.9244Z" fill="#F4F6F7"/>
<path d="M124.399 50.1539C124.659 49.7879 125.061 49.5519 125.616 49.5519C126.562 49.5519 127.022 50.1303 127.022 51.1454V53.5415H126.195V51.2988C126.195 50.5906 125.817 50.2955 125.344 50.2955C124.836 50.2955 124.423 50.6496 124.399 51.2988V53.5415H123.572V48.0882H124.399V50.1539Z" fill="#F4F6F7"/>
<path d="M130.272 53.1284C130.024 53.4943 129.646 53.6596 129.126 53.6596C128.263 53.6596 127.826 53.2346 127.826 52.5264C127.826 51.6647 128.37 51.2988 129.469 51.2988H130.272V51.2516C130.272 50.626 130.13 50.2837 129.315 50.2837C128.807 50.2837 128.452 50.4017 128.039 50.744V49.9768C128.381 49.7171 128.748 49.5637 129.469 49.5637C130.674 49.5637 131.099 50.0358 131.099 51.1336V53.5533H130.272V53.1284ZM130.272 51.9244H129.516C128.854 51.9244 128.641 52.0543 128.641 52.5028C128.641 52.8451 128.854 53.0104 129.303 53.0104C129.752 53.0104 130.248 52.8097 130.284 52.1369V51.9126L130.272 51.9244Z" fill="#F4F6F7"/>
<path d="M137.693 53.5533H136.701L135.732 51.346H134.55V53.5533H133.687V48.1H135.661C136.902 48.1 137.492 48.7728 137.492 49.6699C137.492 50.3899 137.185 50.9329 136.571 51.1926L137.693 53.5533ZM134.55 50.6142H135.554C136.358 50.6142 136.606 50.2719 136.606 49.7289C136.606 49.0325 136.24 48.8437 135.483 48.8437H134.562V50.6142H134.55Z" fill="#F4F6F7"/>
<path d="M140.258 52.9631C140.754 52.9631 141.132 52.9277 141.64 52.6326V53.3172C141.179 53.5651 140.778 53.6596 140.151 53.6596C139.04 53.6596 138.308 53.0222 138.308 51.8418V51.3696C138.308 50.2365 139.017 49.5519 140.009 49.5519C141.002 49.5519 141.723 50.1184 141.723 51.3106V51.9244H139.123C139.147 52.609 139.596 52.9631 140.246 52.9631M140.896 51.3106V51.287C140.896 50.5788 140.588 50.2365 140.009 50.2365C139.43 50.2365 139.135 50.6142 139.123 51.3106H140.896Z" fill="#F4F6F7"/>
<path d="M144.027 55.2531C143.495 55.2531 143.058 55.1468 142.692 55.0052V54.2733C143.129 54.474 143.649 54.5566 144.039 54.5566C144.925 54.5566 145.209 54.0845 145.209 53.3645V52.9985C144.961 53.3763 144.583 53.6359 144.039 53.6359C142.999 53.6359 142.456 52.9749 142.456 51.8418V51.3696C142.456 50.2955 142.987 49.5755 144.039 49.5755C144.571 49.5755 144.949 49.8116 145.209 50.1539V49.6699H146.036V53.3881C146.036 54.4976 145.351 55.2531 144.027 55.2531ZM143.295 51.8654C143.295 52.55 143.637 52.9395 144.216 52.9395C144.795 52.9395 145.185 52.4556 145.209 51.9008V51.169C145.15 50.6142 144.701 50.2247 144.228 50.2247C143.661 50.2247 143.295 50.6142 143.295 51.3106V51.8654Z" fill="#F4F6F7"/>
<path d="M147.951 48.9263H147.088V48.0646H147.951V48.9263ZM147.939 53.5651H147.112V49.6699H147.939V53.5651Z" fill="#F4F6F7"/>
<path d="M150.633 49.5637C151.626 49.5637 152.429 50.1775 152.429 51.3814V51.8536C152.429 53.0576 151.638 53.6714 150.633 53.6714C149.629 53.6714 148.837 53.0576 148.837 51.8536V51.3814C148.837 50.1775 149.629 49.5637 150.633 49.5637ZM150.633 52.9867C151.2 52.9867 151.59 52.609 151.59 51.8772V51.3578C151.59 50.6378 151.212 50.2483 150.633 50.2483C150.054 50.2483 149.676 50.6378 149.676 51.3578V51.8772C149.676 52.5972 150.054 52.9867 150.633 52.9867Z" fill="#F4F6F7"/>
<path d="M154.155 50.1539C154.415 49.7879 154.816 49.5519 155.372 49.5519C156.317 49.5519 156.778 50.1421 156.778 51.1454V53.5415H155.951V51.2988C155.951 50.5906 155.573 50.2955 155.1 50.2955C154.592 50.2955 154.178 50.6496 154.155 51.287V53.5297H153.327V49.6345H154.155V50.1539Z" fill="#F4F6F7"/>
<path d="M53.6262 22.0611C52.1372 22.0611 51.0382 21.7542 50.3292 21.1286C49.6202 20.503 49.2656 19.5823 49.2775 18.3429C49.2775 17.8944 49.3602 17.2334 49.5138 16.3481H50.9555C50.8137 17.0445 50.731 17.5993 50.731 18.0242C50.731 18.7797 50.9673 19.3462 51.4636 19.7358C51.9481 20.1135 52.6808 20.3141 53.6616 20.3141C54.5006 20.3141 55.1269 20.2197 55.5642 20.019C56.0014 19.8184 56.2141 19.5351 56.2141 19.1692C56.2141 18.9921 56.155 18.7443 56.0487 18.4256L57.4313 18.1777C57.5495 18.6144 57.5967 19.0157 57.5967 19.3817C57.5967 20.2315 57.254 20.9043 56.5568 21.3765C55.8714 21.8486 54.8906 22.0847 53.6262 22.0847M52.3263 24.6461C52.0545 24.6461 51.8418 24.5635 51.6763 24.3982C51.5109 24.233 51.4282 24.0323 51.4164 23.7844C51.4164 23.5247 51.4991 23.3123 51.6645 23.147C51.83 22.9818 52.0545 22.8991 52.3263 22.8991C52.5981 22.8991 52.799 22.9818 52.9762 23.147C53.1535 23.3123 53.2362 23.5247 53.2362 23.7844C53.2362 24.0441 53.1535 24.233 52.9762 24.3982C52.799 24.5635 52.5863 24.6461 52.3263 24.6461ZM54.7606 24.6461C54.4888 24.6461 54.2761 24.5635 54.1107 24.3982C53.9452 24.233 53.8625 24.0323 53.8507 23.7844C53.8507 23.5247 53.9216 23.3123 54.0989 23.147C54.2761 22.9818 54.5006 22.8991 54.7724 22.8991C55.0442 22.8991 55.2451 22.9818 55.4224 23.147C55.5996 23.3123 55.6823 23.5247 55.6823 23.7844C55.6823 24.0441 55.5996 24.233 55.4224 24.3982C55.2451 24.5635 55.0324 24.6461 54.7724 24.6461M56.7223 18.9567L54.7724 18.4964V16.8557L56.8168 17.2452H57.9394C58.034 17.2452 58.093 17.2924 58.093 17.375V18.7915C58.093 18.8977 58.0458 18.9449 57.9394 18.9449H56.7223V18.9567ZM62.7017 17.198L61.7918 16.5252C60.8583 15.8405 60.1374 15.3684 59.6411 15.1323C59.1448 14.8844 58.6485 14.7664 58.1639 14.7664C57.7622 14.7664 57.3013 14.849 56.805 15.0143V13.6451C57.1122 13.4798 57.4195 13.35 57.7503 13.2555C58.0812 13.1611 58.3767 13.1257 58.6366 13.1257C59.003 13.1257 59.3811 13.1965 59.7593 13.35C60.1374 13.5034 60.5746 13.7513 61.0828 14.0818C61.5909 14.4241 62.2645 14.9081 63.0917 15.5573L62.6899 17.198H62.7017ZM57.9394 18.9567C57.8331 18.9567 57.7858 18.9095 57.7858 18.8033V17.3868C57.7858 17.2924 57.8331 17.257 57.9394 17.257C58.5894 17.257 59.2275 17.1508 59.8538 16.9501C60.4801 16.7494 61.1301 16.4307 61.8391 15.9822L62.7017 17.198C61.9454 17.6347 61.3309 17.977 60.8583 18.2249C60.3856 18.461 59.9129 18.6498 59.4402 18.7679C58.9675 18.8977 58.4712 18.9567 57.9394 18.9567ZM60.7401 21.9667C60.4801 21.9667 60.2674 21.884 60.0901 21.7188C59.9247 21.5535 59.8302 21.3529 59.8184 21.105C59.8184 20.8453 59.9011 20.6328 60.0783 20.4676C60.2556 20.3023 60.4683 20.2197 60.7283 20.2197C60.9882 20.2197 61.201 20.3023 61.3782 20.4676C61.5555 20.6328 61.6382 20.8453 61.6382 21.105C61.6382 21.3647 61.5555 21.5653 61.3782 21.7188C61.201 21.884 60.9882 21.9667 60.7283 21.9667M63.978 18.9567C63.3871 18.9567 62.8435 18.8741 62.3236 18.7088C61.8155 18.5436 61.3073 18.2839 60.7874 17.918L61.2128 17.0209C61.6027 17.1035 62.04 17.1508 62.5127 17.1862C62.9853 17.2216 63.4698 17.2334 63.9662 17.2334C64.0607 17.2334 64.1198 17.2806 64.1198 17.3632V18.7797C64.1198 18.8859 64.0725 18.9331 63.9662 18.9331" fill="#F4F6F7"/>
<path d="M63.978 18.9567C63.8716 18.9567 63.8244 18.9095 63.8244 18.8033V17.3868C63.8244 17.2924 63.8716 17.257 63.978 17.257H65.6678C65.7742 17.257 65.8215 17.3042 65.8215 17.3868V18.8033C65.8215 18.9095 65.7742 18.9567 65.6678 18.9567H63.978Z" fill="#F4F6F7"/>
<path d="M65.6678 18.9567C65.5615 18.9567 65.5142 18.9095 65.5142 18.8033V17.3868C65.5142 17.2924 65.5615 17.257 65.6678 17.257H67.3577C67.464 17.257 67.5113 17.3042 67.5113 17.3868V18.8033C67.5113 18.9095 67.464 18.9567 67.3577 18.9567H65.6678Z" fill="#F4F6F7"/>
<path d="M67.3695 18.9567C67.2631 18.9567 67.2159 18.9095 67.2159 18.8033V17.3868C67.2159 17.2924 67.2631 17.257 67.3695 17.257H67.8776C68.374 17.257 68.7285 17.1626 68.9294 16.9855C69.1303 16.8084 69.2366 16.4779 69.2366 15.994V13.8457L70.7965 13.5742V15.994C70.7965 16.9147 70.5483 17.6465 70.0638 18.1777C69.5675 18.7088 68.8466 18.9685 67.8895 18.9685H67.3813L67.3695 18.9567ZM68.7994 21.9667C68.5276 21.9667 68.3149 21.884 68.1494 21.7188C67.984 21.5535 67.9013 21.3529 67.8895 21.105C67.8895 20.8453 67.9722 20.6328 68.1376 20.4676C68.3031 20.3023 68.5276 20.2197 68.7994 20.2197C69.0712 20.2197 69.2721 20.3023 69.4493 20.4676C69.6266 20.6328 69.7093 20.8453 69.7093 21.105C69.7093 21.3647 69.6266 21.5535 69.4493 21.7188C69.2721 21.884 69.0594 21.9667 68.7994 21.9667ZM72.2027 18.9567C71.3401 18.9567 70.7137 18.7206 70.3238 18.2485C69.9338 17.7764 69.7329 17.0209 69.7329 15.9822H70.7847C70.7847 16.3245 70.8319 16.5842 70.9146 16.7612C71.0092 16.9383 71.151 17.0681 71.3519 17.139C71.5528 17.2098 71.8364 17.2452 72.1909 17.2452H72.439C72.5454 17.2452 72.5927 17.2924 72.5927 17.375V18.7915C72.5927 18.8859 72.5454 18.9449 72.439 18.9449H72.1909L72.2027 18.9567ZM71.2337 21.9667C70.9619 21.9667 70.7492 21.884 70.5838 21.7188C70.4183 21.5535 70.3356 21.3529 70.3238 21.105C70.3238 20.8453 70.3947 20.6328 70.5719 20.4676C70.7492 20.3023 70.9737 20.2197 71.2455 20.2197C71.5173 20.2197 71.7182 20.3023 71.8955 20.4676C72.0727 20.6328 72.1554 20.8453 72.1554 21.105C72.1554 21.3647 72.0727 21.5535 71.8955 21.7188C71.7182 21.884 71.5055 21.9667 71.2455 21.9667" fill="#F4F6F7"/>
<path d="M72.4627 18.9567C72.3563 18.9567 72.3091 18.9095 72.3091 18.8033V17.3868C72.3091 17.2924 72.3563 17.2452 72.4627 17.2452H72.699C73.1599 17.2452 73.4908 17.1508 73.668 16.9619C73.8571 16.773 73.9516 16.4425 73.9516 15.9704V13.2437L75.5115 12.9959V15.9704C75.5115 16.9737 75.2988 17.7173 74.8616 18.2131C74.4243 18.7088 73.7508 18.9449 72.8172 18.9449H72.4627V18.9567ZM73.5026 11.8273C73.2308 11.8273 73.0181 11.7447 72.8527 11.5912C72.6872 11.4378 72.6045 11.2253 72.5927 10.9656C72.5927 10.7177 72.6754 10.5053 72.8527 10.34C73.0181 10.1748 73.2426 10.0922 73.5144 10.0922C73.7862 10.0922 73.9871 10.1748 74.1643 10.34C74.3416 10.5053 74.4243 10.7177 74.4243 10.9656C74.4243 11.2253 74.3416 11.4378 74.1643 11.5912C73.9871 11.7447 73.7744 11.8273 73.5144 11.8273M75.9487 11.8273C75.6769 11.8273 75.4642 11.7447 75.2988 11.5912C75.1334 11.4378 75.0506 11.2253 75.0388 10.9656C75.0388 10.7177 75.1097 10.5053 75.287 10.34C75.4642 10.1748 75.6888 10.0922 75.9606 10.0922C76.2323 10.0922 76.4332 10.1748 76.6105 10.34C76.7878 10.5053 76.8705 10.7177 76.8705 10.9656C76.8705 11.2253 76.7878 11.4378 76.6105 11.5912C76.4332 11.7447 76.2205 11.8273 75.9606 11.8273" fill="#F4F6F7"/>
<path d="M78.3122 18.9567V8.89998L79.8484 8.6521V18.9567H78.3122Z" fill="#F4F6F7"/>
<path d="M80.3447 22.0611L80.0966 20.3496H80.6756C81.3374 20.3496 81.8337 20.1961 82.1646 19.8774C82.4954 19.5587 82.6491 19.0866 82.6491 18.4374V14.6484L83.4644 14.011L84.2089 14.6248V18.4374C84.2089 19.6649 83.9135 20.5738 83.3226 21.164C82.7318 21.7542 81.8219 22.0493 80.6047 22.0493H80.3565L80.3447 22.0611ZM83.4526 14.0228H87.8013V15.7107H83.4526V14.0228ZM86.5842 11.6856C86.3124 11.6856 86.0997 11.603 85.9342 11.4496C85.7688 11.2961 85.6861 11.0837 85.6742 10.824C85.6742 10.5761 85.757 10.3636 85.9224 10.1984C86.0878 10.0331 86.3124 9.95051 86.5842 9.95051C86.856 9.95051 87.0568 10.0331 87.2341 10.1984C87.4114 10.3636 87.4941 10.5761 87.4941 10.824C87.4941 11.0719 87.4114 11.2961 87.2341 11.4496C87.0568 11.603 86.8441 11.6856 86.5842 11.6856ZM89.7275 18.9567C88.8058 18.9567 88.1204 18.7088 87.6832 18.2249C87.2459 17.7291 87.0332 16.9855 87.0332 15.9822V13.0431L88.5931 12.7952V15.994C88.5931 16.4661 88.6876 16.7966 88.8767 16.9855C89.0658 17.1744 89.3848 17.2688 89.8457 17.2688H89.9993C90.1057 17.2688 90.1529 17.316 90.1529 17.3986V18.8151C90.1529 18.9213 90.1057 18.9685 89.9993 18.9685H89.7275V18.9567ZM89.0185 11.6856C88.7467 11.6856 88.534 11.603 88.3685 11.4496C88.2031 11.2961 88.1204 11.0837 88.1086 10.824C88.1086 10.5761 88.1795 10.3636 88.3567 10.1984C88.534 10.0331 88.7585 9.95051 89.0303 9.95051C89.3021 9.95051 89.503 10.0331 89.6803 10.1984C89.8575 10.3636 89.9402 10.5761 89.9402 10.824C89.9402 11.0719 89.8575 11.2961 89.6803 11.4496C89.503 11.603 89.2903 11.6856 89.0303 11.6856" fill="#F4F6F7"/>
<path d="M89.9993 18.9567C89.893 18.9567 89.8457 18.9095 89.8457 18.8033V17.3868C89.8457 17.2924 89.893 17.257 89.9993 17.257H91.6892C91.7955 17.257 91.8428 17.3042 91.8428 17.3868V18.8033C91.8428 18.9095 91.7955 18.9567 91.6892 18.9567H89.9993Z" fill="#F4F6F7"/>
<path d="M91.6892 18.9567C91.5828 18.9567 91.5355 18.9095 91.5355 18.8033V17.3868C91.5355 17.2924 91.5828 17.257 91.6892 17.257C92.0673 17.257 92.3509 17.2216 92.5636 17.1508C92.7763 17.0799 92.9181 16.9501 93.0127 16.7612C93.1072 16.5724 93.1427 16.3245 93.1427 15.994V14.2825L94.7025 14.0346V15.994C94.7025 16.9147 94.4544 17.6465 93.9462 18.1777C93.4381 18.7088 92.6936 18.9685 91.6892 18.9685M96.3451 18.9567C95.4706 18.9567 94.7971 18.7088 94.348 18.2013C93.899 17.6937 93.6744 16.9619 93.6744 15.994H94.7025C94.7025 16.3953 94.8207 16.714 95.0452 16.9265C95.2698 17.1508 95.6125 17.257 96.0615 17.257C96.5106 17.257 96.8651 17.1508 97.0896 16.9383C97.3141 16.7258 97.4205 16.4071 97.4205 15.9822V13.8339L98.9567 13.5624V15.9822C98.9567 16.596 98.8385 17.139 98.614 17.5875C98.3895 18.036 98.0704 18.3783 97.6805 18.6144C97.2787 18.8505 96.8296 18.9567 96.3333 18.9567M100.528 18.9567C99.713 18.9567 99.0867 18.697 98.6258 18.1659C98.1768 17.6347 97.9404 16.9147 97.9404 15.9822H98.9685C98.9685 16.3717 99.0985 16.6904 99.3467 16.9147C99.5948 17.139 99.9257 17.257 100.339 17.257C101.131 17.257 101.521 16.8321 101.521 15.994V13.3854L103.081 13.1375V15.994C103.081 16.9619 102.868 17.7055 102.431 18.2013C101.994 18.7088 101.367 18.9567 100.528 18.9567Z" fill="#F4F6F7"/>
<path d="M104.109 18.9567L104.345 17.2452H108.883C108.989 17.2452 109.037 17.2924 109.037 17.375V18.7915C109.037 18.8977 108.989 18.9449 108.883 18.9449H104.109V18.9567ZM107.276 18.0596L106.094 10.7886L107.571 10.2102L108.233 14.5657C108.304 14.9907 108.363 15.4982 108.422 16.0766C108.481 16.655 108.54 17.1862 108.588 17.6583L107.288 18.0478L107.276 18.0596ZM108.812 18.9567C108.706 18.9567 108.659 18.9095 108.659 18.8033V17.3868C108.659 17.2924 108.706 17.257 108.812 17.257H109.013C109.474 17.257 109.805 17.1626 109.994 16.9737C110.183 16.7848 110.278 16.4543 110.278 15.9822V8.91178L111.814 8.6403V15.9704C111.814 16.9737 111.589 17.7173 111.14 18.2131C110.691 18.7088 110.006 18.9449 109.06 18.9449H108.789L108.812 18.9567Z" fill="#F4F6F7"/>
<path d="M113.823 18.9567V8.89998L115.359 8.6521V18.9567H113.823Z" fill="#F4F6F7"/>
<path d="M123.04 18.9567C121.941 18.9567 121.126 18.7088 120.594 18.2131C120.062 17.7173 119.79 17.0563 119.79 16.2183C119.79 15.8996 119.814 15.5573 119.873 15.1913C119.92 14.8136 119.991 14.4359 120.086 14.0228H121.527C121.397 14.6602 121.327 15.215 121.327 15.6635C121.327 16.2065 121.504 16.6078 121.847 16.8675C122.189 17.1271 122.733 17.257 123.465 17.257H125.947C126.053 17.257 126.101 17.3042 126.101 17.3868V18.8033C126.101 18.9095 126.053 18.9567 125.947 18.9567H123.04ZM125.108 21.9667C124.848 21.9667 124.635 21.884 124.47 21.7188C124.304 21.5535 124.21 21.3529 124.198 21.105C124.198 20.8453 124.281 20.6328 124.458 20.4676C124.635 20.3023 124.848 20.2197 125.108 20.2197C125.368 20.2197 125.581 20.3023 125.758 20.4676C125.935 20.6328 126.018 20.8453 126.018 21.105C126.018 21.3647 125.935 21.5653 125.758 21.7188C125.581 21.884 125.368 21.9667 125.108 21.9667ZM125.935 18.9567C125.829 18.9567 125.782 18.9095 125.782 18.8033V17.3868C125.782 17.2924 125.829 17.257 125.935 17.257H126.443C126.94 17.257 127.282 17.1626 127.495 16.9855C127.696 16.8084 127.802 16.4779 127.802 15.994V13.8457L129.362 13.5742V15.994C129.362 16.9147 129.114 17.6465 128.63 18.1777C128.133 18.7088 127.412 18.9685 126.455 18.9685H125.947L125.935 18.9567ZM130.768 18.9567C129.906 18.9567 129.279 18.7206 128.89 18.2485C128.5 17.7764 128.299 17.0209 128.299 15.9822H129.35C129.35 16.3245 129.398 16.5842 129.48 16.7612C129.575 16.9383 129.717 17.0681 129.918 17.139C130.118 17.2098 130.402 17.2452 130.768 17.2452H131.017C131.123 17.2452 131.17 17.2924 131.17 17.375V18.7915C131.17 18.8977 131.123 18.9449 131.017 18.9449H130.768V18.9567Z" fill="#F4F6F7"/>
<path d="M131.028 18.9567C130.922 18.9567 130.875 18.9095 130.875 18.8033V17.3868C130.875 17.2924 130.922 17.2452 131.028 17.2452H131.537C132.033 17.2452 132.387 17.1508 132.588 16.9737C132.789 16.7966 132.896 16.4661 132.896 15.9704V13.8221L134.455 13.5506V15.9704C134.455 16.8911 134.207 17.6229 133.723 18.1541C133.238 18.6852 132.506 18.9449 131.548 18.9449H131.04L131.028 18.9567ZM132.399 12.3939C132.127 12.3939 131.915 12.3112 131.749 12.1578C131.584 12.0043 131.501 11.7919 131.489 11.5322C131.489 11.2843 131.572 11.0719 131.737 10.9066C131.903 10.7414 132.127 10.6587 132.399 10.6587C132.671 10.6587 132.872 10.7414 133.049 10.9066C133.226 11.0719 133.309 11.2843 133.309 11.5322C133.309 11.7801 133.226 12.0043 133.049 12.1578C132.872 12.3112 132.659 12.3939 132.399 12.3939ZM135.862 18.9567C134.999 18.9567 134.373 18.7206 133.983 18.2485C133.593 17.7764 133.392 17.0209 133.392 15.9822H134.444C134.444 16.3245 134.491 16.5842 134.574 16.7612C134.668 16.9383 134.81 17.0681 135.011 17.139C135.212 17.2098 135.495 17.2452 135.862 17.2452H136.11C136.216 17.2452 136.263 17.2924 136.263 17.3868V18.8033C136.263 18.8977 136.216 18.9567 136.11 18.9567H135.862ZM134.834 12.3939C134.562 12.3939 134.349 12.3112 134.184 12.1578C134.018 12.0043 133.935 11.7919 133.924 11.5322C133.924 11.2843 133.995 11.0719 134.172 10.9066C134.349 10.7414 134.574 10.6587 134.845 10.6587C135.117 10.6587 135.318 10.7414 135.495 10.9066C135.673 11.0719 135.755 11.2843 135.755 11.5322C135.755 11.7801 135.673 12.0043 135.495 12.1578C135.318 12.3112 135.105 12.3939 134.845 12.3939" fill="#F4F6F7"/>
<path d="M136.122 18.9567C136.015 18.9567 135.968 18.9095 135.968 18.8033V17.3868C135.968 17.2924 136.015 17.257 136.122 17.257H137.811C137.918 17.257 137.965 17.3042 137.965 17.3868V18.8033C137.965 18.9095 137.918 18.9567 137.811 18.9567H136.122ZM137.776 18.9567C137.67 18.9567 137.622 18.9095 137.622 18.8033V17.3986C137.622 17.3042 137.67 17.2688 137.776 17.2688H138.201C138.934 17.2688 139.501 17.1508 139.903 16.9029C140.305 16.655 140.506 16.3009 140.506 15.8523C140.506 15.3566 140.199 14.9199 139.596 14.5303C138.993 14.1526 138.036 13.7985 136.748 13.5034V11.4142L142.267 7.88486V10.0095L137.41 12.4883L137.256 12.205C138.261 12.3821 139.111 12.6536 139.832 13.0077C140.541 13.3618 141.085 13.7867 141.451 14.2707C141.829 14.7664 142.007 15.2976 142.007 15.8642C142.007 16.8321 141.664 17.5875 140.978 18.1423C140.293 18.6852 139.371 18.9567 138.201 18.9567H137.776ZM143.448 18.9567C142.94 18.9567 142.467 18.8977 142.03 18.7679C141.593 18.6498 141.156 18.4492 140.707 18.1777L141.061 16.7376C141.534 16.9265 141.947 17.0563 142.278 17.139C142.621 17.2098 143.011 17.2452 143.448 17.2452C143.543 17.2452 143.602 17.2924 143.602 17.375V18.7915C143.602 18.8977 143.555 18.9449 143.448 18.9449" fill="#F4F6F7"/>
<path d="M143.448 18.9567C143.342 18.9567 143.295 18.9095 143.295 18.8033V17.3868C143.295 17.2924 143.342 17.257 143.448 17.257C144.004 17.257 144.5 17.1508 144.937 16.9383L145.563 18.2013C145.327 18.4256 145.02 18.6026 144.642 18.7443C144.264 18.8741 143.862 18.9567 143.448 18.9685M147.135 18.9567C146.273 18.9567 145.587 18.7088 145.055 18.2131C144.524 17.7173 144.264 17.0681 144.264 16.2537C144.264 15.6635 144.382 15.1323 144.63 14.6602C144.866 14.188 145.197 13.8103 145.587 13.5388C145.989 13.2673 146.414 13.1257 146.863 13.1257C147.502 13.1257 147.998 13.3028 148.388 13.6687C148.766 14.0228 149.085 14.6012 149.333 15.3802L149.605 16.2891C149.723 16.655 149.853 16.9029 150.007 17.0445C150.16 17.1862 150.361 17.257 150.621 17.257C150.716 17.257 150.775 17.3042 150.775 17.3868V18.8033C150.775 18.9095 150.728 18.9567 150.621 18.9567C150.172 18.9567 149.759 18.8269 149.38 18.5672C149.002 18.3075 148.73 17.918 148.577 17.3986L148.14 15.9586C148.021 15.5691 147.856 15.2622 147.631 15.0497C147.407 14.8372 147.147 14.731 146.84 14.731C146.497 14.731 146.213 14.8726 145.965 15.1559C145.717 15.4392 145.599 15.7815 145.599 16.171C145.599 16.5606 145.717 16.8557 145.965 17.0563C146.202 17.2688 146.556 17.375 147.005 17.375C147.301 17.375 147.608 17.3396 147.951 17.2688C148.281 17.198 148.577 17.1153 148.837 16.9973L149.321 18.3665C149.014 18.5436 148.671 18.6852 148.293 18.7915C147.903 18.8977 147.525 18.9567 147.147 18.9567" fill="#F4F6F7"/>
<path d="M150.621 18.9567C150.515 18.9567 150.468 18.9095 150.468 18.8033V17.3868C150.468 17.2924 150.515 17.257 150.621 17.257H150.822C151.295 17.257 151.626 17.1626 151.815 16.9737C152.004 16.7848 152.098 16.4543 152.098 15.9822V8.91178L153.635 8.6403V15.9704C153.635 16.9737 153.41 17.7173 152.961 18.2131C152.512 18.7088 151.827 18.9449 150.893 18.9449H150.621V18.9567Z" fill="#F4F6F7"/>
<path d="M155.62 18.9567V8.89998L157.168 8.6521V18.9567H155.62Z" fill="#F4F6F7"/>
<path d="M2.58795 38.8105C2.07982 38.8105 1.63076 38.7161 1.2408 38.5272C0.850834 38.3384 0.543588 38.0669 0.33088 37.7128C0.106354 37.3587 0 36.9573 0 36.4852C0 35.7534 0.307246 35.0924 0.945371 34.4904C1.57168 33.8884 2.46978 33.3454 3.62786 32.8733L3.93511 34.2307C2.2098 34.8799 1.34715 35.5881 1.34715 36.3435C1.34715 36.6268 1.46532 36.8393 1.68985 36.9928C1.91438 37.1462 2.22162 37.217 2.59977 37.217C2.85975 37.217 3.10791 37.1934 3.33243 37.158C3.55696 37.1226 3.80512 37.0518 4.07691 36.9691L4.53778 38.1141C4.25417 38.3384 3.94692 38.5154 3.61604 38.6335C3.28516 38.7633 2.94247 38.8223 2.61159 38.8223M1.96164 30.7014C1.68985 30.7014 1.47714 30.6188 1.3117 30.4653C1.14626 30.3119 1.06354 30.0994 1.05173 29.8397C1.05173 29.5918 1.13445 29.3794 1.29989 29.2141C1.46533 29.0489 1.68985 28.9662 1.96164 28.9662C2.23344 28.9662 2.43433 29.0489 2.61159 29.2141C2.78884 29.3794 2.87156 29.5918 2.87156 29.8397C2.87156 30.0876 2.78884 30.3119 2.61159 30.4653C2.43433 30.6306 2.22162 30.7014 1.96164 30.7014ZM4.39597 30.7014C4.12418 30.7014 3.91147 30.6188 3.74603 30.4653C3.58059 30.3119 3.49787 30.0994 3.48606 29.8397C3.47424 29.5918 3.55696 29.3794 3.73422 29.2141C3.91147 29.0489 4.136 28.9662 4.39597 28.9662C4.65595 28.9662 4.86866 29.0489 5.04592 29.2141C5.22317 29.3794 5.30589 29.5918 5.30589 29.8397C5.30589 30.0876 5.22317 30.3119 5.04592 30.4653C4.86866 30.6306 4.65595 30.7014 4.39597 30.7014ZM6.18036 39.2355C5.25863 39.2355 4.57323 38.9876 4.136 38.5036C3.69876 38.0197 3.48606 37.2642 3.48606 36.2609V32.1414L5.04592 31.8936V36.2727C5.04592 36.7449 5.14045 37.0754 5.32953 37.2642C5.5186 37.4531 5.83767 37.5475 6.29853 37.5475H6.46397C6.57033 37.5475 6.6176 37.5947 6.6176 37.6892V39.1056C6.6176 39.2118 6.57033 39.2591 6.46397 39.2591H6.18036V39.2355Z" fill="#F4F6F7"/>
<path d="M6.46397 39.2355C6.35762 39.2355 6.31035 39.1882 6.31035 39.082V37.6656C6.31035 37.5711 6.35762 37.5239 6.46397 37.5239H8.15382C8.24836 37.5239 8.30745 37.5711 8.30745 37.6656V39.082C8.30745 39.1882 8.26018 39.2355 8.15382 39.2355H6.46397Z" fill="#F4F6F7"/>
<path d="M8.15382 39.2355C8.04747 39.2355 8.0002 39.1882 8.0002 39.082V37.6656C8.0002 37.5711 8.04747 37.5239 8.15382 37.5239H9.84368C9.93821 37.5239 9.9973 37.5711 9.9973 37.6656V39.082C9.9973 39.1882 9.95003 39.2355 9.84368 39.2355H8.15382Z" fill="#F4F6F7"/>
<path d="M9.84368 39.2355C9.73732 39.2355 9.69005 39.1882 9.69005 39.082V37.6656C9.69005 37.5711 9.73732 37.5239 9.84368 37.5239H11.5335C11.6281 37.5239 11.6871 37.5711 11.6871 37.6656V39.082C11.6871 39.1882 11.6399 39.2355 11.5335 39.2355H9.84368Z" fill="#F4F6F7"/>
<path d="M11.5335 37.5239H13.2234C13.3061 37.5239 13.377 37.5947 13.377 37.6774V39.082C13.377 39.1646 13.3061 39.2355 13.2234 39.2355H11.5335C11.4508 39.2355 11.3799 39.1646 11.3799 39.082V37.6774C11.3799 37.5947 11.4508 37.5239 11.5335 37.5239Z" fill="#F4F6F7"/>
<path d="M13.2234 39.2355C13.117 39.2355 13.0698 39.1882 13.0698 39.082V37.6656C13.0698 37.5711 13.117 37.5239 13.2234 37.5239H14.9132C15.0078 37.5239 15.0668 37.5711 15.0668 37.6656V39.082C15.0668 39.1882 15.0196 39.2355 14.9132 39.2355H13.2234Z" fill="#F4F6F7"/>
<path d="M14.925 39.2355C14.8187 39.2355 14.7714 39.1882 14.7714 39.082V37.6656C14.7714 37.5711 14.8187 37.5239 14.925 37.5239H16.6149C16.7094 37.5239 16.7685 37.5711 16.7685 37.6656V39.082C16.7685 39.1882 16.7212 39.2355 16.6149 39.2355H14.925Z" fill="#F4F6F7"/>
<path d="M16.6149 39.2355C16.5085 39.2355 16.4613 39.1882 16.4613 39.082V37.6656C16.4613 37.5711 16.5085 37.5239 16.6149 37.5239H18.3047C18.3993 37.5239 18.4584 37.5711 18.4584 37.6656V39.082C18.4584 39.1882 18.4111 39.2355 18.3047 39.2355H16.6149Z" fill="#F4F6F7"/>
<path d="M18.3047 39.2355C18.1984 39.2355 18.1511 39.1882 18.1511 39.082V37.6656C18.1511 37.5711 18.1984 37.5239 18.3047 37.5239H19.9946C20.0891 37.5239 20.1482 37.5711 20.1482 37.6656V39.082C20.1482 39.1882 20.101 39.2355 19.9946 39.2355H18.3047Z" fill="#F4F6F7"/>
<path d="M19.9946 39.2355C19.8882 39.2355 19.841 39.1882 19.841 39.082V37.6656C19.841 37.5711 19.8882 37.5239 19.9946 37.5239H21.6844C21.779 37.5239 21.8381 37.5711 21.8381 37.6656V39.082C21.8381 39.1882 21.7908 39.2355 21.6844 39.2355H19.9946Z" fill="#F4F6F7"/>
<path d="M21.6844 39.2355C21.5781 39.2355 21.5308 39.1882 21.5308 39.082V37.6656C21.5308 37.5711 21.5781 37.5239 21.6844 37.5239H23.3743C23.4688 37.5239 23.5279 37.5711 23.5279 37.6656V39.082C23.5279 39.1882 23.4807 39.2355 23.3743 39.2355H21.6844Z" fill="#F4F6F7"/>
<path d="M23.3743 39.2355C23.2679 39.2355 23.2207 39.1882 23.2207 39.082V37.6656C23.2207 37.5711 23.2679 37.5239 23.3743 37.5239H25.0641C25.1587 37.5239 25.2178 37.5711 25.2178 37.6656V39.082C25.2178 39.1882 25.1705 39.2355 25.0641 39.2355H23.3743Z" fill="#F4F6F7"/>
<path d="M25.076 37.5239H26.7658C26.8485 37.5239 26.9194 37.5947 26.9194 37.6774V39.082C26.9194 39.1646 26.8485 39.2355 26.7658 39.2355H25.076C24.9932 39.2355 24.9223 39.1646 24.9223 39.082V37.6774C24.9223 37.5947 24.9932 37.5239 25.076 37.5239Z" fill="#F4F6F7"/>
<path d="M26.7658 39.2355C26.6713 39.2355 26.6122 39.1882 26.6122 39.082V37.6656C26.6122 37.5711 26.6595 37.5239 26.7658 37.5239H28.4557C28.5502 37.5239 28.6093 37.5711 28.6093 37.6656V39.082C28.6093 39.1882 28.562 39.2355 28.4557 39.2355H26.7658ZM33.2062 37.4767L32.3081 36.8039C31.3627 36.1193 30.6418 35.6589 30.1455 35.4111C29.6492 35.1632 29.1529 35.0451 28.6684 35.0451C28.2666 35.0451 27.8057 35.1278 27.3094 35.293V33.9238C27.6166 33.7585 27.9239 33.6287 28.2548 33.5343C28.5857 33.4516 28.8811 33.4044 29.1411 33.4044C29.5074 33.4044 29.8855 33.4753 30.2637 33.6287C30.6418 33.7821 31.0791 34.03 31.5872 34.3605C32.0953 34.7028 32.7689 35.1868 33.5961 35.836L33.1943 37.4767H33.2062ZM28.4557 39.2355C28.3493 39.2355 28.302 39.1882 28.302 39.082V37.6656C28.302 37.5711 28.3493 37.5239 28.4557 37.5239C29.1056 37.5239 29.7437 37.4177 30.37 37.217C30.9845 37.0164 31.6463 36.6977 32.3435 36.2491L33.2062 37.4649C32.4499 37.9016 31.8354 38.2439 31.3627 38.4918C30.89 38.7279 30.4173 38.9168 29.9564 39.0348C29.4838 39.1646 28.9874 39.2236 28.4557 39.2236" fill="#F4F6F7"/>
<path d="M37.8267 39.2355C36.9049 39.2355 36.2195 38.9876 35.7823 38.5036C35.3451 38.0197 35.1323 37.2642 35.1323 36.2609V29.1905L36.6686 28.919V36.2491C36.6686 36.7213 36.7631 37.0518 36.9522 37.2406C37.1413 37.4295 37.4721 37.5239 37.933 37.5239H38.0985C38.2048 37.5239 38.2521 37.5711 38.2521 37.6656V39.082C38.2521 39.1882 38.2048 39.2355 38.0985 39.2355H37.8148H37.8267Z" fill="#F4F6F7"/>
<path d="M38.1103 39.2355C38.0039 39.2355 37.9566 39.1882 37.9566 39.082V37.6656C37.9566 37.5711 38.0039 37.5239 38.1103 37.5239H39.8001C39.8947 37.5239 39.9537 37.5711 39.9537 37.6656V39.082C39.9537 39.1882 39.9065 39.2355 39.8001 39.2355H38.1103Z" fill="#F4F6F7"/>
<path d="M39.8119 39.2355C39.7056 39.2355 39.6583 39.1882 39.6583 39.082V37.6656C39.6583 37.5711 39.7056 37.5239 39.8119 37.5239H41.5018C41.5963 37.5239 41.6554 37.5711 41.6554 37.6656V39.082C41.6554 39.1882 41.6081 39.2355 41.5018 39.2355H39.8119Z" fill="#F4F6F7"/>
<path d="M41.5018 39.2355C41.3954 39.2355 41.3482 39.1882 41.3482 39.082V37.6656C41.3482 37.5711 41.3954 37.5239 41.5018 37.5239H41.7381C42.199 37.5239 42.5299 37.4295 42.7071 37.2406C42.8962 37.0518 42.9907 36.7213 42.9907 36.2491V34.1008L44.5506 33.8294V36.2491C44.5506 36.8865 44.4324 37.4413 44.1961 37.8898C43.9598 38.3384 43.6289 38.6807 43.2271 38.8931C42.8135 39.1174 42.3408 39.2236 41.8208 39.2236H41.5136L41.5018 39.2355ZM43.747 42.2454C43.4871 42.2454 43.2744 42.1628 43.1089 41.9975C42.9435 41.8323 42.8489 41.6316 42.8371 41.3837C42.8371 41.124 42.9198 40.9116 43.0971 40.7463C43.2744 40.5811 43.4871 40.4984 43.747 40.4984C44.007 40.4984 44.2197 40.5811 44.397 40.7463C44.5742 40.9116 44.657 41.124 44.657 41.3837C44.657 41.6434 44.5742 41.8441 44.397 41.9975C44.2197 42.1628 44.007 42.2454 43.747 42.2454ZM45.9805 39.2355C45.0706 39.2355 44.4206 38.9994 44.007 38.5272C43.5934 38.0551 43.3925 37.2996 43.3925 36.2609H44.5388C44.5388 36.6032 44.5861 36.8629 44.6688 37.04C44.7633 37.217 44.9051 37.3469 45.106 37.4177C45.3069 37.4885 45.6023 37.5239 45.9687 37.5239C46.0632 37.5239 46.1223 37.5711 46.1223 37.6656V39.082C46.1223 39.1882 46.075 39.2355 45.9687 39.2355" fill="#F4F6F7"/>
<path d="M45.9805 39.2355C45.8741 39.2355 45.8269 39.1882 45.8269 39.082V37.6656C45.8269 37.5711 45.8741 37.5239 45.9805 37.5239H47.6703C47.7649 37.5239 47.824 37.5711 47.824 37.6656V39.082C47.824 39.1882 47.7767 39.2355 47.6703 39.2355H45.9805Z" fill="#F4F6F7"/>
<path d="M47.6703 39.2355C47.564 39.2355 47.5167 39.1882 47.5167 39.082V37.6656C47.5167 37.5711 47.564 37.5239 47.6703 37.5239H47.8712C48.3439 37.5239 48.6748 37.4295 48.8639 37.2406C49.0529 37.0518 49.1475 36.7213 49.1475 36.2491V29.1787L50.6837 28.9072V36.2373C50.6837 37.2406 50.4592 37.9843 50.0101 38.48C49.5611 38.9758 48.8757 39.2118 47.9421 39.2118H47.6703V39.2355Z" fill="#F4F6F7"/>
<path d="M52.6808 39.2355V29.1787L54.217 28.9308V39.2355H52.6808Z" fill="#F4F6F7"/>
<path d="M61.3309 38.8105C60.8228 38.8105 60.3738 38.7161 59.9838 38.5272C59.5938 38.3384 59.2866 38.0669 59.0739 37.7128C58.8493 37.3587 58.743 36.9573 58.743 36.4852C58.743 35.7534 59.0502 35.0924 59.6884 34.4904C60.3147 33.8884 61.2128 33.3454 62.3708 32.8733L62.6781 34.2307C60.9528 34.8799 60.0901 35.5881 60.0901 36.3435C60.0901 36.6268 60.2083 36.8393 60.4328 36.9928C60.6574 37.1462 60.9646 37.217 61.3428 37.217C61.6027 37.217 61.8509 37.1934 62.0754 37.158C62.2999 37.1226 62.5481 37.0518 62.8199 36.9691L63.2808 38.1141C62.9972 38.3384 62.6899 38.5154 62.359 38.6335C62.0282 38.7633 61.6855 38.8223 61.3546 38.8223M60.7046 30.7014C60.4328 30.7014 60.2201 30.6188 60.0547 30.4653C59.8892 30.3119 59.8065 30.0994 59.7947 29.8397C59.7947 29.5918 59.8774 29.3794 60.0429 29.2141C60.2083 29.0489 60.4328 28.9662 60.7046 28.9662C60.9764 28.9662 61.1773 29.0489 61.3546 29.2141C61.5318 29.3794 61.6146 29.5918 61.6146 29.8397C61.6146 30.0876 61.5318 30.3119 61.3546 30.4653C61.1773 30.6306 60.9646 30.7014 60.7046 30.7014ZM63.139 30.7014C62.8672 30.7014 62.6545 30.6188 62.489 30.4653C62.3236 30.3119 62.2409 30.0994 62.229 29.8397C62.2172 29.5918 62.2999 29.3794 62.4772 29.2141C62.6545 29.0489 62.879 28.9662 63.1508 28.9662C63.4226 28.9662 63.6235 29.0489 63.8007 29.2141C63.978 29.3794 64.0607 29.5918 64.0607 29.8397C64.0607 30.0876 63.978 30.3119 63.8007 30.4653C63.6235 30.6306 63.4108 30.7014 63.1508 30.7014M64.9115 39.2355C63.9898 39.2355 63.3044 38.9876 62.8672 38.5036C62.4299 38.0197 62.2172 37.2642 62.2172 36.2609V32.1414L63.7771 31.8936V36.2727C63.7771 36.7449 63.8716 37.0754 64.0607 37.2642C64.2498 37.4531 64.5688 37.5475 65.0297 37.5475H65.1951C65.3015 37.5475 65.3488 37.5947 65.3488 37.6892V39.1056C65.3488 39.2118 65.3015 39.2591 65.1951 39.2591H64.9115V39.2355Z" fill="#F4F6F7"/>
<path d="M65.1951 39.2355C65.0888 39.2355 65.0415 39.1882 65.0415 39.082V37.6656C65.0415 37.5711 65.0888 37.5239 65.1951 37.5239H66.885C66.9913 37.5239 67.0386 37.5711 67.0386 37.6656V39.082C67.0386 39.1882 66.9913 39.2355 66.885 39.2355H65.1951Z" fill="#F4F6F7"/>
<path d="M66.8968 39.2355C66.7905 39.2355 66.7432 39.1882 66.7432 39.082V37.6656C66.7432 37.5711 66.7905 37.5239 66.8968 37.5239H68.5867C68.693 37.5239 68.7403 37.5711 68.7403 37.6656V39.082C68.7403 39.1882 68.693 39.2355 68.5867 39.2355H66.8968Z" fill="#F4F6F7"/>
<path d="M68.5867 39.2355C68.4803 39.2355 68.433 39.1882 68.433 39.082V37.6656C68.433 37.5711 68.4803 37.5239 68.5867 37.5239H70.2765C70.3829 37.5239 70.4301 37.5711 70.4301 37.6656V39.082C70.4301 39.1882 70.3829 39.2355 70.2765 39.2355H68.5867Z" fill="#F4F6F7"/>
<path d="M70.2765 39.2355C70.1702 39.2355 70.1229 39.1882 70.1229 39.082V37.6656C70.1229 37.5711 70.1702 37.5239 70.2765 37.5239H71.9664C72.0727 37.5239 72.12 37.5711 72.12 37.6656V39.082C72.12 39.1882 72.0727 39.2355 71.9664 39.2355H70.2765Z" fill="#F4F6F7"/>
<path d="M71.9664 39.2355C71.86 39.2355 71.8127 39.1882 71.8127 39.082V37.6656C71.8127 37.5711 71.86 37.5239 71.9664 37.5239H73.6562C73.7626 37.5239 73.8098 37.5711 73.8098 37.6656V39.082C73.8098 39.1882 73.7626 39.2355 73.6562 39.2355H71.9664Z" fill="#F4F6F7"/>
<path d="M73.6444 39.2355C73.5499 39.2355 73.5144 39.1882 73.5144 39.082V37.6774C73.5144 37.5829 73.5617 37.5475 73.6444 37.5475C74.1289 37.5475 74.6489 37.5357 75.1924 37.5121C75.736 37.4885 76.126 37.4531 76.3623 37.4059L76.5869 37.5947C77.1305 37.4531 77.544 37.2288 77.8513 36.9455C78.1467 36.6622 78.3004 36.3317 78.3004 35.9776C78.3004 35.5881 78.1822 35.2694 77.9222 35.0333C77.674 34.7973 77.3786 34.6792 77.0241 34.6792C76.6696 34.6792 76.386 34.7973 76.1614 35.0215C75.9369 35.2458 75.8188 35.5527 75.8188 35.9422C75.8188 36.2845 75.9606 36.5914 76.256 36.8747C76.5514 37.158 76.9296 37.3469 77.3904 37.4295C77.9577 37.4767 78.4894 37.5121 78.9857 37.5239C79.4821 37.5357 79.9902 37.5475 80.4865 37.5475C80.5811 37.5475 80.6165 37.5947 80.6165 37.6774V39.082C80.6165 39.1882 80.5692 39.2355 80.4865 39.2355C79.6593 39.2355 78.9148 39.1646 78.2413 39.023C77.5677 38.8813 76.965 38.6807 76.4451 38.4092C75.7597 38.0197 75.2515 37.5947 74.9207 37.1344C74.5898 36.674 74.4243 36.1901 74.4243 35.6589C74.4243 35.1986 74.5543 34.7737 74.8025 34.3723C75.0506 33.9828 75.3815 33.6641 75.7951 33.428C76.2087 33.192 76.6578 33.0739 77.1423 33.0739C77.6268 33.0739 78.064 33.192 78.4658 33.428C78.8558 33.6641 79.163 33.9828 79.3757 34.3841C79.5884 34.7855 79.6948 35.2104 79.6948 35.6707C79.6948 36.1901 79.553 36.6504 79.2812 37.0636C78.9976 37.4767 78.584 37.878 78.0049 38.2912H77.6977C77.2132 38.5862 76.6578 38.8105 76.0315 38.9758C75.4051 39.141 74.6016 39.2355 73.6326 39.2355M75.9369 31.9998C75.6651 31.9998 75.4524 31.9172 75.287 31.7637C75.1215 31.6103 75.0388 31.3978 75.027 31.1381C75.027 30.8902 75.1097 30.6778 75.2752 30.5125C75.4406 30.3473 75.6651 30.2646 75.9369 30.2646C76.2087 30.2646 76.4096 30.3473 76.5869 30.5125C76.7641 30.6778 76.8468 30.8902 76.8468 31.1381C76.8468 31.3978 76.7641 31.6103 76.5869 31.7637C76.4096 31.9172 76.1969 31.9998 75.9369 31.9998ZM78.3831 31.9998C78.1113 31.9998 77.8986 31.9172 77.7331 31.7637C77.5677 31.6103 77.485 31.3978 77.4731 31.1381C77.4731 30.8902 77.544 30.6778 77.7213 30.5125C77.8986 30.3473 78.1231 30.2646 78.3949 30.2646C78.6667 30.2646 78.8676 30.3473 79.0448 30.5125C79.2221 30.6778 79.3048 30.8902 79.3048 31.1381C79.3048 31.3978 79.2221 31.6103 79.0448 31.7637C78.8676 31.9172 78.6549 31.9998 78.3949 31.9998" fill="#F4F6F7"/>
<path d="M80.5102 39.2355C80.4038 39.2355 80.3565 39.1882 80.3565 39.082V37.6774C80.3565 37.5829 80.4038 37.5357 80.5102 37.5357H81.9518V29.1669L83.4881 28.919V39.2236H80.5102V39.2355ZM82.4245 39.2355L82.6727 37.5475H87.0568C87.6713 37.5475 88.1558 37.4177 88.4867 37.1698C88.8176 36.9219 88.983 36.556 88.983 36.0957C88.983 35.6353 88.8412 35.3048 88.5458 35.0569C88.2504 34.8091 87.8841 34.6792 87.4232 34.6792C87.1041 34.6792 86.7969 34.7146 86.4896 34.7855C86.1824 34.8563 85.757 34.9861 85.2134 35.1868C84.6698 35.3874 83.8662 35.7061 82.8027 36.1429L82.4836 34.9625C83.429 34.4668 84.1971 34.089 84.788 33.8176C85.3788 33.5579 85.887 33.3572 86.3242 33.2392C86.7614 33.1211 87.175 33.0621 87.5768 33.0621C88.0849 33.0621 88.5576 33.1802 88.9949 33.4044C89.4321 33.6287 89.7866 33.9828 90.0584 34.4432C90.3302 34.9153 90.4602 35.4701 90.4602 36.1075C90.4602 36.7449 90.3184 37.276 90.0348 37.76C89.7512 38.2439 89.3494 38.6099 88.8176 38.8695C88.2858 39.1292 87.6713 39.2591 86.9623 39.2591H82.4127L82.4245 39.2355ZM91.8901 39.2355C91.3819 39.2355 90.9092 39.1764 90.472 39.0466C90.0348 38.9286 89.5975 38.7279 89.1603 38.4564L89.5148 37.0164C89.9875 37.2052 90.3893 37.3351 90.732 37.4177C91.0747 37.4885 91.4646 37.5239 91.9019 37.5239C91.9964 37.5239 92.0555 37.5711 92.0555 37.6656V39.082C92.0555 39.1882 92.0082 39.2355 91.9019 39.2355" fill="#F4F6F7"/>
<path d="M91.9019 39.2355C91.7955 39.2355 91.7483 39.1882 91.7483 39.082V37.6656C91.7483 37.5711 91.7955 37.5239 91.9019 37.5239H92.1382C92.5991 37.5239 92.93 37.4295 93.1072 37.2406C93.2845 37.0518 93.3908 36.7213 93.3908 36.2491V34.1008L94.9507 33.8294V36.2491C94.9507 36.8865 94.8325 37.4413 94.5962 37.8898C94.3598 38.3384 94.029 38.6807 93.6272 38.8931C93.2136 39.1174 92.7409 39.2236 92.2209 39.2236H91.9137L91.9019 39.2355ZM94.1471 32.6726C93.8872 32.6726 93.6744 32.59 93.509 32.4247C93.3436 32.2595 93.249 32.0588 93.2372 31.8109C93.2372 31.5513 93.3199 31.3388 93.4972 31.1735C93.6744 31.0083 93.8872 30.9257 94.1471 30.9257C94.4071 30.9257 94.6198 31.0083 94.7971 31.1735C94.9743 31.3388 95.0571 31.5513 95.0571 31.8109C95.0571 32.0706 94.9743 32.2595 94.7971 32.4247C94.6198 32.59 94.4071 32.6726 94.1471 32.6726ZM96.3806 39.2355C95.4706 39.2355 94.8207 38.9994 94.4071 38.5272C93.9935 38.0551 93.7926 37.2996 93.7926 36.2609H94.9389C94.9389 36.6032 94.9861 36.8629 95.0689 37.04C95.1634 37.217 95.3052 37.3469 95.5061 37.4177C95.707 37.4885 95.9906 37.5239 96.3688 37.5239C96.4633 37.5239 96.5224 37.5711 96.5224 37.6656V39.082C96.5224 39.1882 96.4751 39.2355 96.3688 39.2355" fill="#F4F6F7"/>
<path d="M96.3806 37.5239H98.0704C98.1531 37.5239 98.224 37.5947 98.224 37.6774V39.082C98.224 39.1646 98.1531 39.2355 98.0704 39.2355H96.3806C96.2978 39.2355 96.2269 39.1646 96.2269 39.082V37.6774C96.2269 37.5947 96.2978 37.5239 96.3806 37.5239Z" fill="#F4F6F7"/>
<path d="M103.376 39.2355C101.958 39.2355 100.599 39.0112 99.2994 38.5744L99.6894 37.0872C100.836 37.4295 101.935 37.6065 102.986 37.6065C103.057 37.2052 103.093 36.8629 103.093 36.5796C103.093 36.0957 102.986 35.718 102.774 35.4347C102.561 35.1514 102.266 35.0097 101.911 35.0097C101.592 35.0097 101.344 35.116 101.155 35.3284C100.966 35.5409 100.812 35.8714 100.717 36.3199L100.469 37.4649C100.339 38.0433 100.056 38.48 99.6539 38.7751C99.2403 39.0702 98.7204 39.2236 98.0941 39.2236C97.9995 39.2236 97.9404 39.1764 97.9404 39.0702V37.6538C97.9404 37.5593 97.9877 37.5121 98.0941 37.5121C98.4486 37.5121 98.7204 37.4413 98.9213 37.3115C99.1221 37.1816 99.2403 36.9691 99.2994 36.6859L99.5357 35.7416C99.7248 34.9625 100.032 34.3841 100.457 33.9828C100.883 33.5933 101.391 33.3926 102.006 33.3926C102.738 33.3926 103.317 33.6759 103.743 34.2307C104.168 34.7973 104.404 35.5763 104.452 36.5678C104.452 36.9573 104.416 37.4059 104.334 37.9016L103.4 39.2236L103.376 39.2355Z" fill="#F4F6F7"/>
<path d="M106.933 42.3398L106.685 40.6283H107.264C108.02 40.6283 108.576 40.463 108.919 40.1325C109.273 39.802 109.439 39.2591 109.439 38.5154V33.6523L110.998 33.4044V38.5272C110.998 39.8256 110.691 40.7817 110.077 41.4073C109.462 42.0329 108.517 42.3398 107.229 42.3398H106.933ZM110.526 39.2355C110.419 39.2355 110.372 39.1882 110.372 39.082V37.6656C110.372 37.5711 110.419 37.5239 110.526 37.5239H112.416C112.523 37.5239 112.57 37.5711 112.57 37.6656V39.082C112.57 39.1882 112.523 39.2355 112.416 39.2355H110.526Z" fill="#F4F6F7"/>
<path d="M112.416 39.2355C112.31 39.2355 112.263 39.1882 112.263 39.082V37.6656C112.263 37.5711 112.31 37.5239 112.416 37.5239H114.106C114.213 37.5239 114.26 37.5711 114.26 37.6656V39.082C114.26 39.1882 114.213 39.2355 114.106 39.2355H112.416Z" fill="#F4F6F7"/>
<path d="M114.106 39.2355C114 39.2355 113.953 39.1882 113.953 39.082V37.6656C113.953 37.5711 114 37.5239 114.106 37.5239H115.796C115.902 37.5239 115.95 37.5711 115.95 37.6656V39.082C115.95 39.1882 115.902 39.2355 115.796 39.2355H114.106Z" fill="#F4F6F7"/>
<path d="M115.796 39.2355C115.69 39.2355 115.643 39.1882 115.643 39.082V37.6656C115.643 37.5711 115.69 37.5239 115.796 37.5239H117.486C117.592 37.5239 117.64 37.5711 117.64 37.6656V39.082C117.64 39.1882 117.592 39.2355 117.486 39.2355H115.796Z" fill="#F4F6F7"/>
<path d="M117.486 39.2355C117.38 39.2355 117.332 39.1882 117.332 39.082V37.6656C117.332 37.5711 117.38 37.5239 117.486 37.5239H119.176C119.282 37.5239 119.329 37.5711 119.329 37.6656V39.082C119.329 39.1882 119.282 39.2355 119.176 39.2355H117.486Z" fill="#F4F6F7"/>
<path d="M119.188 39.2355C119.081 39.2355 119.034 39.1882 119.034 39.082V37.6656C119.034 37.5711 119.081 37.5239 119.188 37.5239H120.877C120.984 37.5239 121.031 37.5711 121.031 37.6656V39.082C121.031 39.1882 120.984 39.2355 120.877 39.2355H119.188Z" fill="#F4F6F7"/>
<path d="M120.877 37.5239H122.567C122.65 37.5239 122.721 37.5947 122.721 37.6774V39.082C122.721 39.1646 122.65 39.2355 122.567 39.2355H120.877C120.795 39.2355 120.724 39.1646 120.724 39.082V37.6774C120.724 37.5947 120.795 37.5239 120.877 37.5239Z" fill="#F4F6F7"/>
<path d="M122.567 39.2355C122.461 39.2355 122.414 39.1882 122.414 39.082V37.6656C122.414 37.5711 122.461 37.5239 122.567 37.5239H124.257C124.364 37.5239 124.411 37.5711 124.411 37.6656V39.082C124.411 39.1882 124.364 39.2355 124.257 39.2355H122.567Z" fill="#F4F6F7"/>
<path d="M124.257 39.2355C124.151 39.2355 124.104 39.1882 124.104 39.082V37.6656C124.104 37.5711 124.151 37.5239 124.257 37.5239H125.947C126.053 37.5239 126.101 37.5711 126.101 37.6656V39.082C126.101 39.1882 126.053 39.2355 125.947 39.2355H124.257Z" fill="#F4F6F7"/>
<path d="M125.947 39.2355C125.841 39.2355 125.793 39.1882 125.793 39.082V37.6656C125.793 37.5711 125.841 37.5357 125.947 37.5357H127.341C127.802 37.5357 128.121 37.4413 128.31 37.2524C128.5 37.0636 128.594 36.7331 128.594 36.2609V33.5461L130.154 33.2982V36.2727C130.154 37.276 129.941 38.0197 129.504 38.5154C129.067 38.9994 128.393 39.2473 127.471 39.2473H125.971L125.947 39.2355ZM127.046 42.2454C126.774 42.2454 126.562 42.1628 126.396 41.9975C126.231 41.8323 126.148 41.6316 126.136 41.3837C126.136 41.124 126.219 40.9116 126.384 40.7463C126.55 40.5811 126.774 40.4984 127.046 40.4984C127.318 40.4984 127.519 40.5811 127.696 40.7463C127.873 40.9116 127.956 41.124 127.956 41.3837C127.956 41.6434 127.873 41.8323 127.696 41.9975C127.519 42.1628 127.306 42.2454 127.046 42.2454ZM129.48 42.2454C129.209 42.2454 128.996 42.1628 128.83 41.9975C128.665 41.8323 128.582 41.6316 128.57 41.3837C128.57 41.124 128.641 40.9116 128.819 40.7463C128.996 40.5811 129.22 40.4984 129.492 40.4984C129.764 40.4984 129.965 40.5811 130.142 40.7463C130.319 40.9116 130.402 41.124 130.402 41.3837C130.402 41.6434 130.319 41.8323 130.142 41.9975C129.965 42.1628 129.752 42.2454 129.492 42.2454" fill="#F4F6F7"/>
<path d="M134.444 39.2355C133.51 39.2355 132.766 38.9876 132.234 38.48C131.702 37.9725 131.43 37.2878 131.43 36.4144C131.43 35.8596 131.548 35.352 131.797 34.8917C132.045 34.4313 132.364 34.0654 132.789 33.8058C133.203 33.5461 133.664 33.4044 134.148 33.4044C135.011 33.4044 135.684 33.6995 136.181 34.3015C136.677 34.9035 136.925 35.7061 136.925 36.7213V38.3148H135.436V36.7213C135.436 36.2019 135.318 35.7888 135.082 35.4819C134.845 35.175 134.514 35.0215 134.101 35.0215C133.77 35.0215 133.486 35.1396 133.25 35.3874C133.014 35.6353 132.884 35.9422 132.884 36.3199C132.884 36.7449 133.026 37.0754 133.297 37.2996C133.569 37.5239 133.983 37.642 134.526 37.642H136.653V39.2473H134.455L134.444 39.2355ZM132.411 42.3634L132.151 40.7581H132.943C133.829 40.7581 134.467 40.6283 134.857 40.3568C135.247 40.0853 135.436 39.684 135.436 39.1528V38.303H136.925V38.8459C136.925 39.566 136.772 40.1916 136.476 40.7109C136.181 41.2303 135.755 41.6434 135.2 41.9267C134.644 42.21 133.995 42.3634 133.238 42.3634H132.411ZM136.157 39.2355C136.051 39.2355 136.003 39.1882 136.003 39.082V37.6774C136.003 37.5829 136.051 37.5357 136.157 37.5357H138.036C138.131 37.5357 138.19 37.5829 138.19 37.6774V39.082C138.19 39.1882 138.142 39.2355 138.036 39.2355H136.157Z" fill="#F4F6F7"/>
<path d="M138.001 39.2355C137.894 39.2355 137.847 39.1882 137.847 39.082V37.6774C137.847 37.5829 137.894 37.5357 138.001 37.5357H139.442V29.1669L140.978 28.919V39.2236H138.001V39.2355ZM139.903 39.2355L140.151 37.5475H144.535C145.15 37.5475 145.634 37.4177 145.965 37.1698C146.296 36.9219 146.462 36.556 146.462 36.0957C146.462 35.6353 146.32 35.3048 146.024 35.0569C145.729 34.8091 145.363 34.6792 144.902 34.6792C144.583 34.6792 144.275 34.7146 143.968 34.7855C143.661 34.8563 143.236 34.9861 142.692 35.1868C142.148 35.3874 141.345 35.7061 140.281 36.1429L139.962 34.9625C140.908 34.4668 141.676 34.089 142.267 33.8176C142.857 33.5579 143.366 33.3572 143.803 33.2392C144.24 33.1211 144.654 33.0621 145.055 33.0621C145.563 33.0621 146.036 33.1802 146.473 33.4044C146.911 33.6287 147.265 33.9828 147.537 34.4432C147.809 34.9153 147.939 35.4701 147.939 36.1075C147.939 36.7449 147.797 37.276 147.513 37.76C147.23 38.2439 146.828 38.6099 146.296 38.8695C145.764 39.1292 145.15 39.2591 144.441 39.2591H139.891L139.903 39.2355ZM149.38 39.2355C148.872 39.2355 148.4 39.1764 147.962 39.0466C147.525 38.9286 147.088 38.7279 146.651 38.4564L147.005 37.0164C147.478 37.2052 147.88 37.3351 148.222 37.4177C148.565 37.4885 148.955 37.5239 149.392 37.5239C149.487 37.5239 149.546 37.5711 149.546 37.6656V39.082C149.546 39.1882 149.499 39.2355 149.392 39.2355" fill="#F4F6F7"/>
<path d="M149.38 39.2355C149.274 39.2355 149.227 39.1882 149.227 39.082V37.6656C149.227 37.5711 149.274 37.5239 149.38 37.5239H149.889C150.385 37.5239 150.739 37.4295 150.94 37.2524C151.141 37.0754 151.248 36.7449 151.248 36.2491V34.1008L152.807 33.8294V36.2491C152.807 37.1698 152.559 37.9016 152.075 38.4328C151.59 38.964 150.858 39.2236 149.9 39.2236H149.392L149.38 39.2355ZM150.751 32.6726C150.479 32.6726 150.267 32.59 150.101 32.4365C149.936 32.2831 149.853 32.0706 149.841 31.8109C149.841 31.5631 149.924 31.3506 150.089 31.1853C150.255 31.0201 150.479 30.9375 150.751 30.9375C151.023 30.9375 151.224 31.0201 151.401 31.1853C151.578 31.3506 151.661 31.5631 151.661 31.8109C151.661 32.0706 151.578 32.2831 151.401 32.4365C151.224 32.59 151.011 32.6726 150.751 32.6726ZM154.225 39.2355C153.363 39.2355 152.736 38.9994 152.347 38.5272C151.957 38.0551 151.756 37.2996 151.756 36.2609H152.807C152.807 36.6032 152.855 36.8629 152.937 37.04C153.032 37.217 153.174 37.3469 153.375 37.4177C153.576 37.4885 153.859 37.5239 154.225 37.5239H154.474C154.58 37.5239 154.627 37.5711 154.627 37.6656V39.082C154.627 39.1764 154.58 39.2355 154.474 39.2355H154.225ZM153.186 32.6726C152.914 32.6726 152.701 32.59 152.536 32.4365C152.37 32.2831 152.287 32.0706 152.276 31.8109C152.276 31.5631 152.347 31.3506 152.524 31.1853C152.701 31.0201 152.926 30.9375 153.197 30.9375C153.469 30.9375 153.67 31.0201 153.847 31.1853C154.025 31.3506 154.107 31.5631 154.107 31.8109C154.107 32.0706 154.025 32.2831 153.847 32.4365C153.67 32.59 153.457 32.6726 153.197 32.6726" fill="#F4F6F7"/>
<path d="M154.474 39.2355C154.367 39.2355 154.32 39.1882 154.32 39.082V37.6656C154.32 37.5711 154.367 37.5239 154.474 37.5239H154.675C155.147 37.5239 155.478 37.4295 155.667 37.2406C155.856 37.0518 155.951 36.7213 155.951 36.2491V29.1787L157.487 28.9072V36.2373C157.487 37.2406 157.262 37.9843 156.813 38.48C156.364 38.9758 155.679 39.2118 154.745 39.2118H154.474V39.2355Z" fill="#F4F6F7"/>
</svg>
