<svg width="40" height="40" viewBox="0 0 40 40" fill="none" xmlns="http://www.w3.org/2000/svg">
<rect width="40" height="40" fill="#B7E1E3"/>
<mask id="mask0_206_19255" style="mask-type:luminance" maskUnits="userSpaceOnUse" x="8" y="9" width="24" height="23">
<path d="M32 9H8V31.5738H32V9Z" fill="white"/>
</mask>
<g mask="url(#mask0_206_19255)">
<path d="M8.06895 9.05484C8.05911 9.06959 8.85583 10.1565 9.83452 11.4647C10.8132 12.7729 12.8935 15.5565 14.4575 17.6466L17.3001 21.4483L17.1181 21.6549C17.0148 21.768 14.9247 24.0253 12.4755 26.6713C10.0263 29.3221 8.01485 31.5057 8.00993 31.5303C8.0001 31.5549 8.42796 31.5745 9.04272 31.5696L10.0903 31.5647L10.4345 31.186C10.6263 30.9794 12.4066 29.0565 14.3935 26.9073C16.3804 24.7581 18.0624 22.9385 18.1312 22.8598L18.2542 22.7172L19.2378 24.0352C19.7788 24.7581 21.2689 26.7549 22.5476 28.4663L24.8788 31.5745H28.4444C31.4099 31.5745 32.005 31.5647 31.9853 31.5106C31.9706 31.4713 31.0657 30.2516 29.9739 28.7909C28.8821 27.3352 27.6329 25.6631 27.2001 25.0827C26.7624 24.5024 25.4788 22.7762 24.3378 21.2565C23.1968 19.7319 22.2624 18.4631 22.2624 18.4434C22.2624 18.409 28.2919 11.863 30.3427 9.67451L30.928 9.04992H29.8509L28.7788 9.05484L27.5247 10.4122C26.8362 11.1598 25.1493 12.9893 23.7722 14.4696L21.2788 17.1647L18.2542 13.1221L15.2247 9.07451L11.6591 9.04992C9.69682 9.03517 8.07878 9.04008 8.06895 9.05484ZM16.5181 13.4122C17.6837 14.9762 19.4837 17.3811 20.5165 18.7631C21.5493 20.1401 23.8411 23.209 25.6116 25.5745C27.3821 27.945 28.8476 29.9073 28.8722 29.9417C28.9017 29.986 28.5526 30.0008 27.2788 30.0008H25.6509L22.4247 25.6827C14.9788 15.7335 11.2214 10.7073 11.1771 10.6335C11.1476 10.5893 11.4821 10.5745 12.7657 10.5745H14.3935L16.5181 13.4122Z" fill="#232629"/>
</g>
</svg>
