<svg width="64" height="64" viewBox="0 0 64 64" fill="none" xmlns="http://www.w3.org/2000/svg">
<path d="M46.6501 13.5465L50.4383 17.3347L46.6671 21.106L42.8789 17.3178L46.6501 13.5465Z" fill="url(#paint0_linear_215_19275)"/>
<path fill-rule="evenodd" clip-rule="evenodd" d="M45.8609 5.05306C49.9793 3.8784 54.5303 3.301 58.6797 3.33438C59.778 3.34321 60.6636 4.23602 60.6636 5.33431C60.6636 14.8405 58.4311 23.5953 53.4294 28.6218L46.1673 36.4778L48.5529 43.3447C48.8044 44.0688 48.6199 44.8731 48.0778 45.4152L42.7445 50.7485C42.3694 51.1236 41.8607 51.3343 41.3303 51.3343C40.7998 51.3343 40.2911 51.1236 39.916 50.7485L13.2511 24.0818C12.4701 23.3008 12.4701 22.0345 13.2512 21.2534L18.5845 15.9201C19.1266 15.378 19.931 15.1935 20.6552 15.4451L27.5203 17.8308L35.3766 10.5687C37.949 8.01161 41.7966 6.21232 45.8609 5.05306ZM46.9581 8.89965C43.186 9.97554 40.0644 11.5377 38.1761 13.4259C38.1576 13.4444 38.1387 13.4626 38.1195 13.4804L29.3545 21.5824C28.8123 22.0837 28.038 22.2453 27.3405 22.0029L20.5264 19.635L17.4937 22.6677L41.3303 46.5058L44.363 43.4732L41.9952 36.6573C41.7529 35.9598 41.9146 35.1856 42.4158 34.6434L50.5179 25.8787C50.5356 25.8595 50.5538 25.8406 50.5723 25.8221C54.1781 22.2163 56.3239 15.5778 56.6265 7.36979C53.4134 7.50623 50.0374 8.02135 46.9581 8.89965Z" fill="url(#paint1_linear_215_19275)"/>
<path d="M6.7464 44.0807L16.0797 34.7474L13.2513 31.9189L3.91797 41.2523L6.7464 44.0807Z" fill="url(#paint2_linear_215_19275)"/>
<path d="M6.7464 60.0807L24.0797 42.7474L21.2513 39.9189L3.91797 57.2523L6.7464 60.0807Z" fill="url(#paint3_linear_215_19275)"/>
<path d="M22.7464 60.0807L32.0797 50.7474L29.2513 47.9189L19.918 57.2523L22.7464 60.0807Z" fill="url(#paint4_linear_215_19275)"/>
<defs>
<linearGradient id="paint0_linear_215_19275" x1="32.2908" y1="3.33301" x2="32.2908" y2="60.0807" gradientUnits="userSpaceOnUse">
<stop stop-color="#DED3B3"/>
<stop offset="1" stop-color="#C9B888"/>
</linearGradient>
<linearGradient id="paint1_linear_215_19275" x1="32.2908" y1="3.33301" x2="32.2908" y2="60.0807" gradientUnits="userSpaceOnUse">
<stop stop-color="#DED3B3"/>
<stop offset="1" stop-color="#C9B888"/>
</linearGradient>
<linearGradient id="paint2_linear_215_19275" x1="32.2908" y1="3.33301" x2="32.2908" y2="60.0807" gradientUnits="userSpaceOnUse">
<stop stop-color="#DED3B3"/>
<stop offset="1" stop-color="#C9B888"/>
</linearGradient>
<linearGradient id="paint3_linear_215_19275" x1="32.2908" y1="3.33301" x2="32.2908" y2="60.0807" gradientUnits="userSpaceOnUse">
<stop stop-color="#DED3B3"/>
<stop offset="1" stop-color="#C9B888"/>
</linearGradient>
<linearGradient id="paint4_linear_215_19275" x1="32.2908" y1="3.33301" x2="32.2908" y2="60.0807" gradientUnits="userSpaceOnUse">
<stop stop-color="#DED3B3"/>
<stop offset="1" stop-color="#C9B888"/>
</linearGradient>
</defs>
</svg>
