<svg width="64" height="64" viewBox="0 0 64 64" fill="none" xmlns="http://www.w3.org/2000/svg">
<path fill-rule="evenodd" clip-rule="evenodd" d="M4.67164 6.66679C4.67175 5.56228 5.56719 4.66695 6.67171 4.66699L21.8349 4.6675L21.8348 8.6675L8.67144 8.66706L8.67014 21.8324L4.67014 21.832L4.67164 6.66679ZM55.3368 8.6681L42.172 8.6675L42.1722 4.6675L57.3369 4.66819C58.4414 4.66824 59.3368 5.56365 59.3368 6.66819L59.3368 21.8322L55.3368 21.8322L55.3368 8.6681ZM4.66797 57.3339L4.67014 42.1692L8.67014 42.1697L8.66825 55.3342H21.8348V59.3342H6.66797C6.13749 59.3342 5.62874 59.1234 5.25365 58.7483C4.87857 58.3731 4.66789 57.8644 4.66797 57.3339ZM55.3368 55.3342V42.1694H59.3368V57.3342C59.3368 58.4387 58.4414 59.3342 57.3368 59.3342H42.1721V55.3342H55.3368ZM32.0013 35.3337C30.1604 35.3337 28.668 33.8413 28.668 32.0003C28.668 30.1594 30.1604 28.667 32.0013 28.667C33.8423 28.667 35.3346 30.1594 35.3346 32.0003C35.3346 33.8413 33.8423 35.3337 32.0013 35.3337ZM24.668 32.0003C24.668 36.0504 27.9512 39.3337 32.0013 39.3337C36.0514 39.3337 39.3346 36.0504 39.3346 32.0003C39.3346 27.9502 36.0514 24.667 32.0013 24.667C27.9512 24.667 24.668 27.9502 24.668 32.0003ZM13.8587 31.2242C13.6137 31.5078 13.3954 31.7684 13.2051 32.0003C13.3954 32.2323 13.6137 32.4928 13.8587 32.7764C14.892 33.9729 16.3853 35.5657 18.224 37.1532C21.9633 40.3819 26.8351 43.3337 32.0019 43.3337C37.1686 43.3337 42.0404 40.3819 45.7798 37.1532C47.6184 35.5657 49.1118 33.9729 50.1451 32.7764C50.39 32.4928 50.6084 32.2323 50.7987 32.0003C50.6084 31.7684 50.39 31.5078 50.1451 31.2242C49.1118 30.0277 47.6184 28.435 45.7798 26.8475C42.0404 23.6188 37.1686 20.667 32.0019 20.667C26.8351 20.667 21.9633 23.6188 18.224 26.8475C16.3853 28.435 14.892 30.0277 13.8587 31.2242ZM54.9603 33.1661L55.7954 32.0003L54.9593 30.8332L54.9566 30.8295L54.9487 30.8185L54.9223 30.7822C54.9001 30.7518 54.8687 30.7091 54.8283 30.6549C54.7474 30.5465 54.6305 30.3919 54.4792 30.1979C54.1768 29.8099 53.7364 29.2629 53.1724 28.6098C52.0466 27.3063 50.4158 25.5657 48.3939 23.8199C44.4121 20.3819 38.6172 16.667 32.0019 16.667C25.3865 16.667 19.5917 20.3819 15.6099 23.8199C13.5879 25.5657 11.9571 27.3063 10.8314 28.6098C10.2673 29.2629 9.82693 29.8099 9.52454 30.1979C9.37327 30.3919 9.25631 30.5465 9.17545 30.6549C9.13501 30.7091 9.10358 30.7518 9.08138 30.7822L9.05502 30.8185L9.04708 30.8295L9.04265 30.8356L8.20894 32.0003L9.04442 33.1675L9.04708 33.1712L9.05502 33.1822L9.08138 33.2184C9.10358 33.2488 9.13501 33.2915 9.17545 33.3458C9.25631 33.4542 9.37327 33.6087 9.52454 33.8028C9.82693 34.1907 10.2673 34.7377 10.8314 35.3909C11.9571 36.6944 13.5879 38.435 15.6099 40.1808C19.5917 43.6188 25.3865 47.3337 32.0019 47.3337C38.6172 47.3337 44.4121 43.6188 48.3939 40.1808C50.4158 38.435 52.0466 36.6944 53.1724 35.3909C53.7364 34.7377 54.1768 34.1907 54.4792 33.8028C54.6305 33.6087 54.7474 33.4542 54.8283 33.3458C54.8687 33.2915 54.9001 33.2488 54.9223 33.2184L54.9487 33.1822L54.9566 33.1712L54.9603 33.1661Z" fill="url(#paint0_linear_215_19272)"/>
<defs>
<linearGradient id="paint0_linear_215_19272" x1="32.0024" y1="4.66699" x2="32.0024" y2="59.3342" gradientUnits="userSpaceOnUse">
<stop stop-color="#DED3B3"/>
<stop offset="1" stop-color="#C9B888"/>
</linearGradient>
</defs>
</svg>
