<svg width="64" height="64" viewBox="0 0 64 64" fill="none" xmlns="http://www.w3.org/2000/svg">
<path fill-rule="evenodd" clip-rule="evenodd" d="M4.66969 6.66631C4.6698 5.56179 5.56524 4.66647 6.66976 4.6665L21.833 4.66702L21.8328 8.66702L8.66949 8.66657L8.66818 21.8319L4.66818 21.8315L4.66969 6.66631ZM55.3348 8.66761L42.17 8.66702L42.1702 4.66702L57.3349 4.6677C58.4395 4.66775 59.3348 5.56316 59.3348 6.6677L59.3348 21.8317L55.3348 21.8317L55.3348 8.66761ZM4.66602 57.3334L4.66818 42.1687L8.66818 42.1692L8.6663 55.3337H21.8329V59.3337H6.66602C6.13553 59.3337 5.62678 59.1229 5.2517 58.7478C4.87662 58.3727 4.66594 57.8639 4.66602 57.3334ZM55.3348 55.3337V42.169H59.3348V57.3337C59.3348 58.4382 58.4394 59.3337 57.3348 59.3337H42.1701V55.3337H55.3348ZM31.9993 35.3332C30.1584 35.3332 28.666 33.8408 28.666 31.9998C28.666 30.1589 30.1584 28.6665 31.9993 28.6665C33.8403 28.6665 35.3327 30.1589 35.3327 31.9998C35.3327 33.8408 33.8403 35.3332 31.9993 35.3332ZM24.666 31.9998C24.666 36.0499 27.9493 39.3332 31.9993 39.3332C36.0494 39.3332 39.3327 36.0499 39.3327 31.9998C39.3327 27.9497 36.0494 24.6665 31.9993 24.6665C27.9493 24.6665 24.666 27.9497 24.666 31.9998ZM13.8567 31.2237C13.6118 31.5073 13.3934 31.7679 13.2031 31.9998C13.3934 32.2318 13.6118 32.4923 13.8567 32.7759C14.89 33.9724 16.3834 35.5652 18.222 37.1527C21.9614 40.3814 26.8332 43.3332 31.9999 43.3332C37.1667 43.3332 42.0385 40.3814 45.7778 37.1527C47.6164 35.5652 49.1098 33.9724 50.1431 32.7759C50.388 32.4923 50.6064 32.2318 50.7967 31.9998C50.6064 31.7679 50.388 31.5073 50.1431 31.2237C49.1098 30.0272 47.6164 28.4345 45.7778 26.847C42.0385 23.6183 37.1667 20.6665 31.9999 20.6665C26.8332 20.6665 21.9614 23.6183 18.222 26.847C16.3834 28.4345 14.89 30.0272 13.8567 31.2237ZM54.9583 33.1656L55.7934 31.9998L54.9573 30.8327L54.9547 30.829L54.9467 30.818L54.9204 30.7817C54.8982 30.7513 54.8668 30.7086 54.8263 30.6544C54.7455 30.546 54.6285 30.3914 54.4772 30.1974C54.1748 29.8094 53.7345 29.2624 53.1704 28.6093C52.0447 27.3058 50.4139 25.5652 48.3919 23.8194C44.4101 20.3814 38.6152 16.6665 31.9999 16.6665C25.3846 16.6665 19.5897 20.3814 15.6079 23.8194C13.586 25.5652 11.9551 27.3058 10.8294 28.6093C10.2653 29.2624 9.82497 29.8094 9.52258 30.1974C9.37132 30.3914 9.25436 30.546 9.1735 30.6544C9.13306 30.7086 9.10163 30.7513 9.07943 30.7817L9.05307 30.818L9.04512 30.829L9.0407 30.8351L8.20699 31.9998L9.04247 33.167L9.04512 33.1707L9.05307 33.1817L9.07943 33.2179C9.10163 33.2483 9.13306 33.291 9.1735 33.3453C9.25436 33.4537 9.37132 33.6082 9.52258 33.8023C9.82497 34.1902 10.2653 34.7373 10.8294 35.3904C11.9551 36.6939 13.586 38.4345 15.6079 40.1803C19.5897 43.6183 25.3846 47.3332 31.9999 47.3332C38.6152 47.3332 44.4101 43.6183 48.3919 40.1803C50.4139 38.4345 52.0447 36.6939 53.1704 35.3904C53.7345 34.7373 54.1748 34.1902 54.4772 33.8023C54.6285 33.6082 54.7455 33.4537 54.8263 33.3453C54.8668 33.291 54.8982 33.2483 54.9204 33.2179L54.9467 33.1817L54.9547 33.1707L54.9583 33.1656Z" fill="url(#paint0_linear_205_18954)"/>
<defs>
<linearGradient id="paint0_linear_205_18954" x1="32.0004" y1="4.6665" x2="32.0004" y2="59.3337" gradientUnits="userSpaceOnUse">
<stop stop-color="#B7E1E3"/>
<stop offset="1" stop-color="#90CED1"/>
</linearGradient>
</defs>
</svg>
