<svg width="33" height="33" viewBox="0 0 33 33" fill="none" xmlns="http://www.w3.org/2000/svg">
<path fill-rule="evenodd" clip-rule="evenodd" d="M4.82192 4.62473C7.73065 1.76559 11.7228 0 16.125 0C17.1579 0 18.1691 0.0972594 19.1497 0.28343C26.6095 1.69973 32.25 8.25245 32.25 16.125C32.25 17.0542 32.1713 17.9659 32.0199 18.8536C30.7229 26.4599 24.1012 32.25 16.125 32.25C7.21941 32.25 0 25.0306 0 16.125C0 11.6223 1.84703 7.5489 4.82192 4.62473ZM7.76852 5.04758C8.42083 5.48385 8.98396 6.072 9.59954 6.72245C11.5996 8.83572 13.3163 8.77944 14.2547 8.28369C14.628 8.08645 14.7525 7.90781 14.8184 7.7748C14.9081 7.59381 14.943 7.40206 15.0157 7.00263C15.0192 6.98352 15.0227 6.96394 15.0264 6.94386C15.0968 6.55755 15.2076 5.97745 15.5751 5.42237C15.9599 4.84133 16.5446 4.39851 17.3647 4.07358C17.8556 3.87908 18.0803 3.57018 18.1679 3.24766C18.2327 3.00885 18.2333 2.71412 18.1441 2.3957C17.4855 2.29975 16.8114 2.25 16.125 2.25C12.9868 2.25 10.0932 3.29083 7.76852 5.04758ZM20.4641 2.94164C20.4596 3.24247 20.4192 3.54293 20.3392 3.83731C20.0595 4.86731 19.3209 5.71865 18.1935 6.16536C17.6936 6.36342 17.5247 6.55342 17.4511 6.66458C17.3603 6.80169 17.3081 6.97316 17.2399 7.3473C17.234 7.37961 17.2279 7.41442 17.2214 7.45146C17.1634 7.78206 17.0742 8.29003 16.8344 8.77393C16.5397 9.36869 16.057 9.87623 15.3057 10.2731C13.2452 11.3617 10.4637 10.9088 7.96536 8.26904C7.02321 7.27354 6.54046 6.83511 5.98927 6.64955C3.66876 9.13053 2.25 12.4612 2.25 16.125C2.25 23.0602 7.33818 28.807 13.9851 29.836C13.9641 29.7161 13.9502 29.594 13.9435 29.4699C13.8936 28.5422 14.2615 27.6874 14.6632 26.9965C15.249 25.9893 15.427 25.6636 15.519 25.2943C15.6168 24.9021 15.6249 24.4309 15.6249 23.0916C15.6249 22.3532 15.7327 21.6089 16.0634 20.9437C16.4072 20.2518 16.9573 19.7164 17.7066 19.3702C19.1083 18.7224 21.1444 18.7673 23.8456 19.3076C24.1559 19.3696 24.4821 19.3227 24.9116 19.1461C25.2684 18.9994 25.6094 18.804 26.0293 18.5635C26.1603 18.4884 26.2991 18.409 26.4484 18.3252C27.3557 17.8161 28.5202 17.2326 29.9489 17.3251C29.9827 16.9297 30 16.5295 30 16.125C30 9.97813 26.0019 4.76308 20.4641 2.94164ZM29.5699 19.5672C28.91 19.5879 28.2881 19.873 27.5493 20.2874C27.4475 20.3446 27.3398 20.4064 27.2276 20.4709C26.7862 20.7244 26.274 21.0186 25.7674 21.227C25.0934 21.5042 24.2977 21.6925 23.4044 21.5139C20.7485 20.9827 19.347 21.0908 18.6505 21.4126C18.3506 21.5512 18.1864 21.7273 18.0783 21.945C17.9568 22.1893 17.8749 22.5527 17.8749 23.0916C17.8749 23.1424 17.8749 23.1926 17.8749 23.242C17.8753 24.3741 17.8755 25.1433 17.7023 25.8384C17.5237 26.5549 17.1685 27.1651 16.6747 28.0134C16.6529 28.051 16.6307 28.0891 16.6083 28.1276C16.2853 28.683 16.1755 29.0744 16.1903 29.349C16.1988 29.507 16.2519 29.7233 16.5266 29.9943C22.8231 29.8153 28.0711 25.4405 29.5699 19.5672Z" fill="#DED3B3"/>
</svg>
