<svg width="1728" height="133" viewBox="0 0 1728 133" fill="none" xmlns="http://www.w3.org/2000/svg">
<path d="M576.622 4.40071L573.481 8.31118L477.771 128.638L379.304 10.4267L283.016 130.433L184.549 12.1575L88.326 132.164L-12 11.7088L-8.34595 8.63171L88.2619 124.536L184.485 4.52892L282.952 122.805L379.24 2.79806L477.706 121.01L570.404 4.40071L573.545 0.490234L576.622 4.40071Z" fill="url(#paint0_linear_9_132829)"/>
<path d="M1157.1 3.88786L1153.96 7.73422L1059.98 121.138L962.606 2.79806L866.319 122.805L767.852 4.52892L671.693 124.536L576.624 4.40071L573.547 0.490234L570.405 4.40071L573.482 8.31118L671.629 132.228L767.916 12.1575L866.383 130.433L962.67 10.4267L1059.98 128.767L1158.51 8.63171L1158.45 5.55462L1157.1 3.88786Z" fill="url(#paint1_linear_9_132829)"/>
<path d="M1738.99 7.46525L1640.59 128.369L1543.27 10.0295L1446.99 130.036L1348.52 11.7604L1252.23 131.831L1156.2 10.5423L1154.09 7.91399L1153.96 7.72168L1157.1 3.87531L1157.23 4.00352L1252.3 124.138L1348.46 4.13174L1446.92 122.407L1543.21 2.40087L1640.59 120.741L1735.27 4.45226L1738.99 7.46525Z" fill="url(#paint2_linear_9_132829)"/>
<defs>
<linearGradient id="paint0_linear_9_132829" x1="-41" y1="113" x2="1722.5" y2="113" gradientUnits="userSpaceOnUse">
<stop stop-color="#DED3B3"/>
<stop offset="1" stop-color="#82817F"/>
</linearGradient>
<linearGradient id="paint1_linear_9_132829" x1="-41" y1="113" x2="1722.5" y2="113" gradientUnits="userSpaceOnUse">
<stop stop-color="#DED3B3"/>
<stop offset="1" stop-color="#82817F"/>
</linearGradient>
<linearGradient id="paint2_linear_9_132829" x1="-41" y1="113" x2="1722.5" y2="113" gradientUnits="userSpaceOnUse">
<stop stop-color="#DED3B3"/>
<stop offset="1" stop-color="#82817F"/>
</linearGradient>
</defs>
</svg>
