<svg width="229" height="84" viewBox="0 0 229 84" fill="none" xmlns="http://www.w3.org/2000/svg">
<path d="M41.7902 9.58496C40.8653 9.58496 39.7722 9.66904 38.9314 9.75313C38.7632 9.75313 38.511 9.75313 38.3428 9.83721C38.1746 9.83721 37.9224 9.9213 37.7542 9.9213C36.8293 10.0054 35.9884 10.1735 35.1476 10.3417C34.559 10.4258 33.8863 10.6781 33.2977 10.8462C32.7932 11.0144 32.2047 11.1826 31.6161 11.3507C31.4479 11.4348 31.2797 11.4348 31.1116 11.5189C30.8593 11.603 30.6071 11.6871 30.3548 11.7711C30.0185 11.8552 29.7662 12.0234 29.4299 12.1075C29.2617 12.1916 29.0935 12.2757 28.9254 12.2757C28.0845 12.612 26.9914 13.1165 26.2347 13.621C25.9824 13.7892 24.8053 14.3778 23.3758 15.3868L23.1236 15.5549C22.7872 15.8072 22.4509 16.0594 22.1146 16.3117C21.4419 16.8162 20.6011 17.4889 19.9284 18.1615L19.8443 18.3297L19.6761 18.4979C19.3398 18.7501 19.0035 19.1705 18.6671 19.5069C18.4149 19.7591 18.1626 20.0114 17.9104 20.2636C17.3218 20.8522 16.7332 21.609 16.2287 22.2817L16.1446 22.3657C16.0605 22.4498 15.9764 22.618 15.8923 22.7021C15.7242 22.9543 15.556 23.2066 15.3878 23.4588V23.5429C15.1356 23.8793 14.9674 24.2156 14.7152 24.4678C14.3788 24.9723 14.0425 25.5609 13.7062 26.1495L13.6221 26.3177C13.538 26.4018 13.4539 26.5699 13.4539 26.654C13.2857 26.9904 13.1176 27.3267 12.9494 27.663C12.4449 28.672 11.9404 29.8492 11.6041 30.8582C11.52 31.1946 11.3518 31.5309 11.2677 31.7832C11.1836 31.9513 11.1836 32.2036 11.0996 32.4558L10.9314 32.7081C10.595 33.8853 10.2587 35.3147 10.0065 36.4078C10.0065 36.4078 9.58604 38.594 9.50195 41.4528C9.50195 42.2096 9.50195 43.0504 9.50195 43.7231C9.50195 43.9754 9.50195 44.3117 9.58604 44.5639V44.648C9.67012 45.4048 9.75421 46.3297 9.83829 47.0024C9.92237 47.6751 10.0905 48.5159 10.2587 49.2727L10.3428 49.8612C10.511 50.7862 10.9314 51.9633 11.2677 52.8042L11.3518 53.0564C11.52 53.5609 11.6881 53.9814 11.8563 54.4018C12.0245 54.7381 12.1926 55.1585 12.3608 55.4949C12.529 55.9153 12.6971 56.3357 12.9494 56.6721C13.2017 57.2606 13.6221 57.9333 13.9584 58.5219C14.0425 58.6901 14.1266 58.8582 14.2947 59.0264C14.4629 59.2787 14.7993 59.7832 15.2197 60.4558C15.3878 60.624 15.4719 60.8763 15.6401 61.0444C15.7242 61.1285 15.8083 61.2126 15.8923 61.3808L16.0605 61.633L16.1446 61.8012L16.3128 62.0534C16.8173 62.642 17.4059 63.3988 17.9104 63.9033C18.0785 64.1555 18.3308 64.3237 18.499 64.576L18.583 64.66C19.0035 65.1645 19.3398 65.4168 19.7602 65.7531C20.0125 66.0054 20.2647 66.2576 20.517 66.5099C20.7692 66.7621 21.3578 67.1826 22.0305 67.7712L22.1987 67.8552L22.4509 68.0234C22.7032 68.1916 23.0395 68.4438 23.2917 68.612L23.4599 68.6961L23.7122 68.8642C24.1326 69.1165 24.553 69.4528 24.9734 69.7051L25.2257 69.8733C25.4779 70.0414 25.7302 70.2096 25.9824 70.2937C26.1506 70.3778 26.3188 70.4618 26.4029 70.5459C26.7392 70.7141 27.0755 70.8823 27.4119 71.0504C27.58 71.1345 27.7482 71.2186 27.9164 71.3027C28.0845 71.3868 28.2527 71.4709 28.505 71.5549L28.589 71.639L28.6731 71.7231C28.8413 71.8072 29.0095 71.8913 29.2617 71.9754C29.514 72.0594 29.8503 72.2276 30.1026 72.3117C30.2707 72.3958 30.3548 72.3958 30.523 72.4799C30.8593 72.648 31.2797 72.7321 31.6161 72.9003C31.7842 72.9003 31.8683 72.9844 32.0365 72.9844C32.3728 73.0685 32.6251 73.1525 32.9614 73.2366H33.0455L33.2137 73.3207L33.3818 73.4048H33.55C33.8863 73.4889 34.2227 73.573 34.4749 73.657C34.559 73.657 34.6431 73.7411 34.8113 73.7411C35.2317 73.8252 35.6521 73.9093 36.0725 73.9934H36.1566C36.3248 73.9934 36.4929 74.0775 36.6611 74.0775H36.8293C37.3338 74.1616 37.8383 74.2456 38.3428 74.2456H38.511C39.6041 74.3297 40.4449 74.4138 41.1176 74.4138C41.2017 74.4138 41.2857 74.4138 41.4539 74.4138H41.9584C42.2948 74.4138 42.547 74.4138 42.8833 74.4138C43.3038 74.4138 43.7242 74.4138 44.1446 74.3297C44.4809 74.3297 44.9014 74.2456 45.1536 74.2456C45.2377 74.2456 45.4059 74.2456 45.574 74.1615C46.2467 74.0775 46.7512 73.9934 47.0875 73.9934L47.4239 73.9093L47.6761 73.8252C47.8443 73.8252 48.0125 73.7411 48.1806 73.7411C48.8533 73.573 49.7782 73.4048 50.3668 73.2366C51.1236 72.9844 51.8803 72.8162 52.4689 72.5639C53.1416 72.3958 53.8143 72.0594 54.4869 71.8072C54.7392 71.7231 54.9914 71.5549 55.2437 71.4709C55.7482 71.2186 56.505 70.8823 57.2617 70.4618C57.9344 70.1255 58.7752 69.621 59.4479 69.1165L59.7842 68.9483C59.9524 68.7802 60.2047 68.612 60.4569 68.4438C60.541 68.3597 60.7092 68.2757 60.7933 68.1916C61.0455 68.0234 61.3818 67.7712 61.6341 67.603L61.8023 67.4348C62.6431 66.7621 63.3158 66.2576 63.7362 65.8372L63.8203 65.7531L63.9044 65.6691C64.577 65.0805 65.1656 64.4919 65.8383 63.7351C66.0905 63.4829 66.3428 63.1465 66.6791 62.8102L66.9314 62.5579C67.0996 62.3057 67.2677 62.1375 67.4359 61.9694L67.6041 61.8012C68.1926 61.1285 68.8653 60.1195 69.4539 59.1946C69.7902 58.6901 70.0425 58.1856 70.3788 57.597L70.4629 57.4288C70.9674 56.5039 71.556 55.4108 71.8083 54.57L71.8923 54.3177C72.0605 53.9814 72.1446 53.5609 72.3128 53.2246C72.4809 52.8042 72.6491 52.3838 72.7332 52.0474C72.9854 51.2907 73.3218 50.1976 73.4899 49.2727C73.7422 48.4318 73.9104 47.3387 73.9944 46.4979C73.9944 46.2456 74.0785 45.9934 74.0785 45.7411C74.1626 45.2366 74.2467 44.648 74.2467 44.1435V43.8913C74.2467 43.639 74.2467 43.4709 74.2467 43.2186C74.2467 42.2937 74.3308 41.621 74.2467 41.0324V40.9483C74.2467 40.1916 74.1626 39.5189 74.1626 39.0144V38.7621C74.1626 38.3417 73.9944 37.2486 73.7422 35.7351V35.651C73.6581 35.3147 73.574 34.9784 73.4899 34.5579C73.4059 34.1375 73.3218 33.7171 73.1536 33.2967V33.1285C72.9854 32.3717 72.6491 31.5309 72.4809 30.9423C72.3968 30.7742 72.3968 30.6901 72.3128 30.5219V30.4378C72.1446 29.8492 71.8083 29.0925 71.4719 28.4198C71.1356 27.7471 70.7152 26.9063 70.3788 26.2336V26.1495C70.2947 25.9814 70.2107 25.7291 70.0425 25.5609L70.1266 25.8973C69.9584 25.5609 69.7062 25.2246 69.4539 24.8042L69.3698 24.636C68.9494 23.9633 68.3608 23.2066 68.0245 22.618C67.9404 22.4498 67.8563 22.3657 67.6881 22.1976L67.6041 22.1135L67.4359 21.8612C67.3518 21.7772 67.2677 21.6931 67.1836 21.5249L67.0155 21.3567C66.8473 21.1886 66.7632 21.0204 66.595 20.8522L66.3428 20.6C66.1746 20.3477 65.9224 20.1796 65.7542 20.0114L65.586 19.8432C65.4179 19.6751 65.3338 19.5069 65.1656 19.4228L65.0815 19.3387C64.4089 18.666 63.9884 18.2456 63.3999 17.7411C62.7272 17.1525 62.3068 16.8162 62.1386 16.648L61.9704 16.5639L61.8023 16.4799C61.3818 16.1435 60.9614 15.8072 60.6251 15.5549C60.541 15.4708 60.3728 15.3868 60.2887 15.3027C59.9524 15.0504 59.2797 14.63 58.6071 14.2096C58.4389 14.1255 58.1866 13.9573 57.9344 13.7892C57.5981 13.621 57.0936 13.2847 56.589 13.0324H56.505C56.0845 12.8642 55.6641 12.612 55.1596 12.3597L54.9914 12.2757C54.9074 12.1916 54.7392 12.1916 54.6551 12.1075C54.3188 11.9393 54.0665 11.8552 53.7302 11.7711L53.562 11.6871C52.4689 11.2666 51.6281 11.0144 51.1236 10.8462C50.9554 10.8462 50.7872 10.7621 50.6191 10.6781L50.4509 10.7621L50.2827 10.6781H50.1987C49.3578 10.4258 48.2647 10.1735 47.0875 10.0054C46.8353 10.0054 46.583 9.9213 46.3308 9.9213C46.2467 9.9213 46.0785 9.9213 45.9944 9.83721C45.574 9.75313 45.0695 9.75313 44.6491 9.66905H44.565C43.8923 9.58496 43.2197 9.58496 42.4629 9.58496C42.3788 9.58496 42.2947 9.58496 42.1266 9.58496C42.1266 9.58496 41.9584 9.58496 41.7902 9.58496ZM38.595 10.5099C38.6791 10.4258 38.8473 10.4258 39.0155 10.4258C39.6881 10.3417 40.3608 10.2576 41.0335 10.2576C42.2947 10.2576 43.8923 10.4258 45.9104 10.9303C44.2287 10.6781 42.4629 10.5099 40.6972 10.5099C39.9404 10.4258 39.2677 10.4258 38.595 10.5099ZM38.2587 13.2847C37.7542 12.612 37.3338 11.6871 37.6701 11.0985C38.6791 11.0144 39.6881 10.9303 40.6131 10.9303C42.2107 10.9303 43.8083 11.0144 45.3218 11.2666C44.7332 11.5189 44.0605 11.9393 43.3878 12.3597C43.0515 12.3597 42.7152 12.4438 42.4629 12.4438C42.2947 12.4438 42.2107 12.4438 42.0425 12.5279C41.7902 12.5279 41.538 12.612 41.3698 12.612C41.2017 12.612 41.0335 12.6961 40.8653 12.6961C40.6131 12.6961 40.4449 12.7802 40.2767 12.7802C40.0245 12.8642 39.7722 12.8642 39.6041 12.9483C39.3518 13.0324 39.0996 13.0324 38.8473 13.1165C38.6791 13.2006 38.511 13.2847 38.2587 13.2847ZM33.3818 14.8823C31.8683 14.63 30.4389 14.4618 29.1776 14.4618C30.7752 13.2847 32.541 12.2757 34.3908 11.603C35.3158 11.4348 36.2407 11.2666 37.1656 11.1826C36.9975 11.6871 37.0815 12.4438 37.7542 13.4528C37.586 13.5369 37.4179 13.5369 37.2497 13.621C36.9974 13.7051 36.8293 13.7892 36.577 13.7892C36.3248 13.8732 36.0725 13.9573 35.8203 14.0414C35.568 14.1255 35.3999 14.2096 35.1476 14.2937C34.9794 14.3778 34.8113 14.3778 34.6431 14.4618C34.3908 14.5459 34.1386 14.63 33.9704 14.7141C33.8863 14.7982 33.7182 14.7982 33.6341 14.8823H33.3818ZM52.3008 12.2757C51.544 11.8552 50.7872 11.5189 49.9464 11.1826H50.0305L50.2827 11.2666H50.3668C50.4509 11.2666 50.6191 11.3507 50.7872 11.3507L51.0395 11.4348C51.1236 11.5189 51.2917 11.5189 51.3758 11.603L51.6281 11.7711C51.7122 11.8552 51.8803 11.9393 51.9644 12.0234L52.2167 12.1916L52.3008 12.2757ZM44.6491 12.3597C45.2377 12.0234 45.8263 11.6871 46.4149 11.5189C47.9284 11.7711 49.4419 12.1916 50.8713 12.6961C50.7032 12.6961 50.6191 12.612 50.4509 12.612C50.2827 12.612 50.1987 12.612 50.0305 12.5279C49.8623 12.5279 49.6941 12.4438 49.526 12.4438C49.3578 12.4438 49.2737 12.4438 49.1056 12.4438C48.9374 12.4438 48.6851 12.4438 48.517 12.3597C48.4329 12.3597 48.2647 12.3597 48.1806 12.3597C48.0125 12.3597 47.7602 12.3597 47.592 12.3597C47.508 12.3597 47.4239 12.3597 47.2557 12.3597C46.9194 12.3597 46.6671 12.3597 46.3308 12.3597C45.9944 12.3597 45.574 12.3597 45.2377 12.3597C45.1536 12.3597 45.0695 12.3597 44.9014 12.3597H44.6491ZM54.0665 13.0324C53.9824 12.9483 53.8143 12.9483 53.7302 12.8642L53.562 12.6961L53.3938 12.5279L53.2257 12.3597L53.0575 12.1916L52.9734 12.1075C53.1416 12.1916 53.3098 12.1916 53.4779 12.2757L53.6461 12.3597C53.8984 12.4438 54.1506 12.612 54.4029 12.6961C54.3188 12.7802 54.2347 12.8642 54.0665 13.0324ZM26.1506 14.63C27.1596 14.1255 28.2527 13.621 29.3458 13.1165C30.1026 12.8642 30.8593 12.612 31.532 12.3597C30.4389 12.9483 29.3458 13.7051 28.3368 14.4618C27.4959 14.4618 26.8233 14.5459 26.1506 14.63ZM42.6311 17.1525C41.8743 16.648 41.2017 16.1435 40.6131 15.639L40.8653 15.3868L41.0335 15.2186C41.2017 15.0504 41.2857 14.9663 41.4539 14.7982C41.6221 14.63 41.8743 14.3778 42.1266 14.2096L42.2107 14.1255C42.7152 13.7051 43.2197 13.2847 43.6401 12.9483C44.0605 12.9483 44.3969 12.8642 44.8173 12.8642H44.9854C45.4059 12.8642 45.8263 12.8642 46.2467 12.8642C46.6671 12.8642 47.0875 12.8642 47.508 12.8642H47.7602C48.0966 12.8642 48.4329 12.8642 48.7692 12.9483H49.0215C49.7782 13.0324 50.6191 13.1165 51.3758 13.2847L51.6281 13.3687C51.7962 13.3687 51.9644 13.4528 52.2167 13.4528C49.1056 13.7892 45.9104 15.1345 42.6311 17.1525ZM54.9914 13.3687H54.8233L54.6551 13.2006C54.8233 13.0324 54.9074 12.9483 54.9914 12.8642C54.9914 13.0324 54.9914 13.1165 54.9914 13.3687ZM40.1926 15.3027C39.6041 14.7982 39.0155 14.2937 38.595 13.7892C38.7632 13.7892 38.9314 13.7051 39.0155 13.7051C39.1836 13.7051 39.3518 13.621 39.52 13.621C39.7722 13.5369 40.1086 13.5369 40.3608 13.4528C40.529 13.4528 40.7812 13.3687 40.9494 13.3687C41.1176 13.3687 41.2857 13.2847 41.4539 13.2847C41.7062 13.2847 41.8743 13.2006 42.1266 13.2006C42.2947 13.2006 42.3788 13.2006 42.547 13.1165C41.7902 13.7051 41.0335 14.4618 40.1926 15.3027ZM56.2527 13.5369C56.0005 13.4528 55.7482 13.4528 55.4959 13.3687V13.1165C55.7482 13.2847 56.0005 13.3687 56.2527 13.5369ZM50.2827 20.0114C50.1146 20.0114 49.9464 20.0114 49.7782 19.9273C49.3578 19.8432 48.8533 19.5069 48.4329 19.1705C46.7512 18.4979 44.9854 17.9093 43.2197 17.3207C46.7512 15.2186 50.1987 13.9573 53.3938 13.7892C52.7212 14.7141 51.9644 16.0594 50.9554 17.7411C51.0395 17.9093 51.2077 18.1615 51.2077 18.3297C52.3008 16.3958 53.1416 14.9663 53.8983 13.9573L53.9824 14.0414C54.0665 14.1255 54.1506 14.2937 54.2347 14.3778C54.3188 14.4618 54.4029 14.63 54.4869 14.7982L54.571 14.9663C54.2347 16.3117 53.6461 18.2456 52.6371 20.9363C51.8803 20.6 51.1236 20.2636 50.3668 20.0114C50.4509 20.0114 50.3668 20.0114 50.2827 20.0114ZM39.3518 16.2276C37.586 15.7231 35.9044 15.3868 34.3908 15.1345C34.559 15.0504 34.8113 14.9663 34.9794 14.8823C35.1476 14.7982 35.3158 14.7982 35.4839 14.7141C35.6521 14.63 35.8203 14.63 35.9884 14.5459C36.1566 14.4618 36.4089 14.4618 36.577 14.3778C36.7452 14.2937 36.9134 14.2937 37.0815 14.2096C37.4179 14.1255 37.7542 14.0414 38.0905 13.9573C38.511 14.5459 39.1836 15.1345 39.8563 15.7231C39.6881 15.8913 39.52 16.0594 39.3518 16.2276ZM59.7842 15.5549H59.7002C59.532 15.4708 59.3638 15.3868 59.2797 15.3027C59.1116 15.2186 58.8593 15.1345 58.6911 15.0504C58.6071 14.9663 58.4389 14.9663 58.3548 14.8823C58.2707 14.7982 58.1026 14.7982 58.0185 14.7141C57.8503 14.63 57.5981 14.5459 57.4299 14.4618L57.3458 14.3778C57.2617 14.2937 57.0936 14.2937 57.0095 14.2096L56.8413 14.1255H56.7572C57.8503 14.3778 58.7752 14.7982 59.7002 15.3868L59.7842 15.4708V15.5549ZM63.3999 24.7201C62.2227 24.636 60.7092 24.4678 59.1116 24.1315C58.6071 23.8793 58.1026 23.5429 57.514 23.2907C57.514 23.1225 57.514 22.9543 57.4299 22.7862C57.4299 22.618 57.3458 22.3657 57.3458 22.1976C57.3458 22.0294 57.2617 21.8612 57.2617 21.609C57.2617 21.4408 57.1776 21.1886 57.1776 21.0204C57.1776 20.8522 57.0935 20.6841 57.0935 20.5159C57.0935 20.3477 57.0095 20.0955 57.0095 19.9273C57.0095 19.7591 56.9254 19.591 56.9254 19.4228C56.8413 19.2546 56.8413 19.0865 56.7572 18.8342C56.6731 18.666 56.6731 18.4979 56.589 18.3297C56.505 18.1615 56.505 17.9934 56.4209 17.8252C56.3368 17.657 56.3368 17.4889 56.2527 17.4048C56.1686 17.2366 56.1686 17.0684 56.0845 16.9003C56.0005 16.7321 56.0005 16.648 55.9164 16.4799C55.8323 16.3117 55.7482 16.1435 55.7482 15.9754C55.6641 15.8072 55.6641 15.7231 55.58 15.5549C55.4959 15.3868 55.4119 15.2186 55.3278 15.1345L55.2437 14.9663L55.3278 14.7982C58.6071 17.3207 61.3818 20.7681 63.3999 24.7201ZM23.7962 20.6841C23.7122 20.5159 23.544 20.3477 23.4599 20.1796C24.9734 18.1615 26.6551 16.4799 28.505 14.9663C29.6821 14.9663 31.0275 15.0504 32.4569 15.3027L32.3728 15.3868C32.0365 15.5549 31.7842 15.639 31.4479 15.8072L31.2797 15.8913C28.589 17.1525 26.1506 18.8342 23.7962 20.6841ZM23.1236 19.6751C22.535 18.666 22.2827 17.4889 22.8713 16.648L22.9554 16.5639C23.4599 16.1435 24.0485 15.8072 24.6371 15.4708C25.4779 15.2186 26.4869 15.0504 27.6641 14.9663C25.9824 16.3117 24.4689 17.9093 23.1236 19.6751ZM63.9884 24.7201C62.1386 21.0204 59.6161 17.7411 56.589 15.1345C59.0275 16.4799 61.2137 18.1615 63.2317 20.0114C63.8203 21.4408 64.1566 22.9543 64.3248 24.7201C64.2407 24.7201 64.0725 24.7201 63.9884 24.7201ZM31.3638 27.2426C28.2527 25.1405 25.6461 23.0384 24.1326 21.1045C26.0665 19.5069 28.1686 18.0775 30.4389 16.9003L30.6071 16.8162C30.9434 16.648 31.1956 16.4799 31.532 16.3117L31.7002 16.2276C32.0365 16.0594 32.3728 15.8913 32.7092 15.8072C32.7932 15.7231 32.9614 15.7231 33.1296 15.639C33.2978 15.5549 33.3818 15.5549 33.55 15.4708C35.2317 15.7231 37.0815 16.1435 39.0155 16.648C37.7542 18.2456 36.4929 20.0114 35.2317 22.1135L35.1476 22.2817C34.9794 22.7021 34.8113 23.0384 34.559 23.2907C34.3908 23.627 34.2227 23.9633 34.0545 24.2997C33.1296 25.2246 32.2047 26.2336 31.3638 27.2426ZM62.559 18.7501C61.2978 17.657 59.9524 16.648 58.4389 15.7231C59.7002 16.3958 60.7932 17.0684 61.8863 17.7411C61.9704 17.8252 62.0545 17.9934 62.1386 18.0775C62.3068 18.2456 62.3908 18.4979 62.559 18.7501ZM57.0095 23.0384C55.7482 22.4498 54.4869 21.8612 53.2257 21.2726C53.4779 20.5159 53.7302 19.8432 53.9824 19.1705C54.4869 17.7411 54.8233 16.648 55.0755 15.8072L55.2437 16.0594C55.3278 16.2276 55.4119 16.3958 55.4119 16.4799C55.496 16.648 55.4959 16.7321 55.58 16.9003C55.6641 17.0684 55.6641 17.2366 55.7482 17.4048C55.8323 17.573 55.8323 17.657 55.9164 17.8252C56.0005 17.9934 56.0005 18.1615 56.0845 18.3297C56.1686 18.4979 56.1686 18.666 56.2527 18.8342C56.3368 19.0024 56.3368 19.1705 56.4209 19.3387C56.505 19.5069 56.505 19.6751 56.505 19.8432C56.589 20.0114 56.589 20.2636 56.6731 20.4318C56.6731 20.6 56.7572 20.7681 56.7572 20.9363C56.7572 21.1045 56.8413 21.3567 56.8413 21.5249C56.8413 21.6931 56.9254 21.8612 56.9254 22.0294C56.9254 22.1976 57.0095 22.4498 57.0095 22.7021V23.0384ZM41.2017 16.7321C40.7812 16.648 40.3608 16.4799 39.9404 16.3958C40.0245 16.3117 40.1086 16.1435 40.2767 16.0594C40.529 16.2276 40.8653 16.4799 41.2017 16.7321ZM35.3999 22.8702C36.7452 20.5159 38.0905 18.4979 39.52 16.8162C40.3608 17.0684 41.1176 17.2366 41.9584 17.4889C39.7722 19.0024 37.586 20.7681 35.3999 22.8702ZM13.4539 27.9153C14.0425 26.654 14.7152 25.3928 15.556 24.2156C15.7242 23.9633 15.8923 23.7111 16.0605 23.4588C16.2287 23.2066 16.3968 22.9543 16.6491 22.7021L16.7332 22.5339C16.9854 22.1976 17.2377 21.8612 17.4899 21.5249L17.574 21.4408C18.9194 19.8432 20.4329 18.4138 22.1146 17.1525C21.9464 17.8252 22.1146 18.8342 22.8713 20.0955C22.0305 21.2726 21.1896 22.5339 20.517 23.7952C19.6761 24.7201 18.8353 25.7291 18.0785 26.7381H17.7422C17.6581 26.7381 17.4899 26.7381 17.4059 26.7381H16.3128C16.2287 26.7381 16.0605 26.7381 15.9764 26.8222H15.8083C15.7242 26.8222 15.556 26.9063 15.4719 26.9063H15.3878C14.547 27.4108 13.9584 27.663 13.4539 27.9153ZM35.9884 30.606C35.9884 30.4378 35.9884 30.1856 36.0725 30.0174H35.9884L35.8203 29.9333C34.8113 29.3447 33.8023 28.7561 32.7932 28.1675L32.8773 27.9153C32.9614 27.8312 32.9614 27.663 33.0455 27.579C33.2137 27.3267 33.2978 26.9904 33.4659 26.7381C33.55 26.5699 33.6341 26.3177 33.7182 26.1495C33.8023 25.9814 33.8863 25.8973 33.8863 25.7291C34.0545 25.3087 34.3068 24.8883 34.4749 24.5519C37.0815 21.8612 39.8563 19.5069 42.6311 17.7411C44.4809 19.0024 46.7512 20.1796 49.1056 21.2726C47.8443 23.627 46.499 26.4018 45.0695 29.3447C45.0695 29.5129 45.1536 29.597 45.1536 29.7651C45.1536 29.9333 45.2377 30.1015 45.2377 30.2696C46.8353 26.9904 48.2647 24.0474 49.6101 21.5249C50.4509 21.8612 51.2917 22.2817 52.1326 22.5339C50.9554 25.645 49.4419 29.5129 47.4239 34.3898L47.1716 34.3057C47.0035 34.2216 46.8353 34.1375 46.6671 34.0534C46.2467 33.8853 45.8263 33.7171 45.4899 33.5489L45.3218 33.4648C45.0695 33.3808 44.9014 33.2967 44.6491 33.2126C44.565 33.3808 44.4809 33.5489 44.3969 33.7171H44.4809C44.7332 33.8012 44.9014 33.8853 45.1536 33.9693C45.4059 34.0534 45.6581 34.2216 45.9104 34.3057C46.1626 34.3898 46.3308 34.4739 46.583 34.5579C46.8353 34.642 47.0035 34.7261 47.2557 34.8943C47.1716 34.9784 47.0875 35.1465 47.0875 35.3147C46.0785 34.8943 45.0695 34.4739 44.1446 34.0534C44.0605 34.2216 43.8923 34.3057 43.7242 34.4739C44.7332 34.8943 45.8263 35.3988 46.8353 35.8192C44.8173 40.612 42.7152 45.3207 40.6131 49.7772C39.4359 49.2727 38.2587 48.7682 37.0815 48.2636C39.0155 43.8072 41.0335 39.2666 42.9674 35.0624C42.7152 35.2306 42.4629 35.3147 42.2107 35.4829C40.3608 39.5189 38.4269 43.8072 36.577 48.0955C34.1386 47.1706 31.6161 46.2456 29.1776 45.573L29.0935 45.4889C28.7572 45.3207 28.3368 45.0684 28.0005 44.9003L27.7482 44.648C27.7482 44.5639 27.7482 44.3958 27.8323 44.3117C27.9164 44.0594 27.9164 43.8072 28.0005 43.5549C28.0845 43.3027 28.0845 43.0504 28.1686 42.8823C28.2527 42.63 28.2527 42.3778 28.3368 42.0414C28.4209 41.7892 28.4209 41.5369 28.505 41.3688C28.589 41.1165 28.589 40.8642 28.6731 40.612C28.7572 40.3597 28.7572 40.1075 28.8413 39.9393C28.9254 39.6871 29.0095 39.4348 29.0095 39.1826C29.0935 38.9303 29.0935 38.6781 29.1776 38.4258C29.2617 38.1736 29.3458 37.9213 29.4299 37.6691C29.514 37.4168 29.5981 37.1645 29.5981 36.9123C29.6821 36.66 29.7662 36.4078 29.8503 36.1555C29.9344 35.9033 30.0185 35.651 30.1026 35.3988C30.1866 35.1465 30.2707 34.8943 30.3548 34.642C30.4389 34.3898 30.523 34.1375 30.6071 33.8853C30.6911 33.633 30.7752 33.3808 30.8593 33.1285C30.9434 32.8763 31.0275 32.624 31.1116 32.3717C31.1956 32.1195 31.2797 31.8672 31.3638 31.615C31.4479 31.3627 31.532 31.1105 31.6161 30.8582C31.7002 30.606 31.7842 30.3537 31.8683 30.1015C31.9524 29.9333 32.0365 29.6811 32.1206 29.5129C32.3728 29.597 32.541 29.597 32.7932 29.6811C33.0455 29.7651 33.2137 29.8492 33.4659 29.8492C33.7182 29.9333 33.9704 30.0174 34.2227 30.1015C34.4749 30.1856 34.6431 30.2696 34.8953 30.2696C35.0635 30.3537 35.3158 30.3537 35.4839 30.4378C35.7362 30.5219 35.8203 30.606 35.9884 30.606ZM67.0996 23.5429C66.0905 22.1976 64.9134 20.8522 63.6521 19.6751C63.4839 19.2546 63.2317 18.8342 63.0635 18.4138C63.7362 18.9183 64.3248 19.3387 64.8293 19.8432L64.9975 20.0114L65.0815 20.0955C65.2497 20.2636 65.3338 20.3477 65.502 20.5159C65.6701 20.6841 65.7542 20.7681 65.9224 20.9363L66.1746 21.1886L66.3428 21.4408L66.511 21.609C66.8473 22.1976 67.2677 22.9543 67.0996 23.5429ZM49.4419 20.7681C47.8443 20.0114 46.2467 19.2546 44.9014 18.4138C46.499 19.0024 48.0965 19.591 49.6941 20.2636C49.6101 20.4318 49.526 20.6 49.4419 20.7681ZM52.3848 22.0294C51.544 21.6931 50.7032 21.3567 49.9464 21.0204C50.0305 20.8522 50.1146 20.6841 50.1987 20.5159C51.0395 20.8522 51.7962 21.1886 52.553 21.5249C52.4689 21.6931 52.4689 21.8612 52.3848 22.0294ZM21.9464 22.3657C22.2827 21.7772 22.7032 21.1886 23.1236 20.6841C23.2077 20.8522 23.2917 20.9363 23.3758 21.1045C22.8713 21.4408 22.4509 21.9453 21.9464 22.3657ZM64.8293 24.7201C64.6611 23.3748 64.4089 22.1135 64.0725 20.9363C65.0815 21.9453 65.9224 22.9543 66.7632 24.0474C66.4269 24.3838 65.7542 24.636 64.8293 24.7201ZM30.4389 28.4198L30.1866 28.3357C30.0185 28.3357 29.9344 28.2516 29.7662 28.2516C29.5981 28.2516 29.4299 28.1675 29.2617 28.1675C29.0935 28.1675 29.0095 28.0835 28.8413 28.0835C28.6731 28.0835 28.505 27.9994 28.4209 27.9994C28.2527 27.9994 28.1686 27.9153 28.0005 27.9153C27.8323 27.9153 27.6641 27.8312 27.58 27.8312C27.4119 27.8312 27.3278 27.7471 27.1596 27.7471C26.9914 27.7471 26.9074 27.663 26.7392 27.663C26.571 27.663 26.4869 27.579 26.3188 27.579C26.1506 27.579 26.0665 27.4949 25.8983 27.4949C25.7302 27.4949 25.6461 27.4108 25.4779 27.4108C25.3098 27.4108 25.2257 27.3267 25.0575 27.3267C24.8893 27.3267 24.8053 27.2426 24.6371 27.2426C24.4689 27.2426 24.3848 27.2426 24.2167 27.1585C24.0485 27.1585 23.9644 27.1585 23.7962 27.0745C23.7122 27.0745 23.544 27.0745 23.4599 26.9904C23.2917 26.9904 23.2077 26.9904 23.0395 26.9063C22.9554 26.9063 22.7872 26.9063 22.7032 26.8222C22.535 26.8222 22.4509 26.8222 22.2827 26.8222C22.1987 26.8222 22.0305 26.8222 21.9464 26.8222C21.7782 26.8222 21.6941 26.8222 21.526 26.8222C21.4419 26.8222 21.2737 26.8222 21.1896 26.8222C21.0215 26.8222 20.9374 26.8222 20.7692 26.8222H20.517C20.3488 26.8222 20.2647 26.8222 20.0965 26.8222H19.6761C20.0125 25.9814 20.4329 25.1405 20.9374 24.2997C21.8623 23.2907 22.7872 22.4498 23.7962 21.5249C25.3938 23.4588 27.9164 25.645 31.1116 27.7471C30.8593 27.9153 30.6071 28.1675 30.4389 28.4198ZM56.8413 23.5429C55.4959 23.2066 54.1506 22.7021 52.8053 22.1976C52.8893 22.0294 52.8893 21.8612 52.9734 21.6931C54.3188 22.2817 55.58 22.8702 56.8413 23.5429ZM56.4209 38.4258C55.9164 38.2576 55.4119 38.1736 54.9914 38.0054L54.9074 37.9213C54.6551 37.8372 54.4869 37.6691 54.2347 37.585C54.0665 37.5009 53.8143 37.3327 53.6461 37.2486C53.3938 37.1645 53.1416 36.9964 52.9734 36.9123C52.8053 36.8282 52.553 36.66 52.3848 36.576C52.1326 36.4919 51.8803 36.3237 51.6281 36.2396C51.4599 36.1555 51.2077 36.0715 51.0395 35.9033C50.7872 35.8192 50.535 35.651 50.2827 35.5669C50.1146 35.4829 49.8623 35.3988 49.6941 35.3147C49.4419 35.2306 49.1896 35.0624 48.8533 34.9784C48.6851 34.8943 48.4329 34.8102 48.2647 34.7261L47.9284 34.5579C49.7782 30.1015 51.3758 26.0654 52.6371 22.7021C54.1506 23.2907 55.58 23.7111 57.0935 24.1315V24.3838C57.0935 24.636 57.0935 24.8042 57.1776 25.0564C57.1776 25.2246 57.1776 25.4769 57.1776 25.645C57.1776 25.8132 57.1776 26.0654 57.1776 26.2336C57.1776 27.1585 57.2617 28.0835 57.1776 29.0084C57.1776 29.1766 57.1776 29.3447 57.1776 29.5129C57.1776 29.7651 57.1776 30.0174 57.1776 30.2696C57.1776 30.4378 57.1776 30.6901 57.1776 30.8582C57.1776 31.1105 57.1776 31.3627 57.0935 31.615C57.0935 31.7832 57.0935 32.0354 57.0935 32.2036C57.0935 32.4558 57.0936 32.7081 57.0095 33.0444C57.0095 33.2126 57.0095 33.4648 56.9254 33.633C56.9254 33.8853 56.8413 34.1375 56.8413 34.4739C56.8413 34.7261 56.7572 34.8943 56.7572 35.1465C56.7572 35.3988 56.6731 35.651 56.6731 35.9874C56.6731 36.2396 56.589 36.4078 56.589 36.66C56.589 36.9123 56.505 37.1645 56.505 37.5009C56.505 37.7531 56.4209 37.9213 56.4209 38.1736V38.4258ZM71.3878 30.9423C70.3788 28.5039 69.0335 26.1495 67.4359 24.0474C67.6041 23.7952 67.6881 23.5429 67.6881 23.1225C67.8563 23.2907 67.9404 23.5429 68.1086 23.7111L68.1926 23.8793L68.2767 24.0474C68.3608 24.1315 68.4449 24.2997 68.529 24.3838C68.6971 24.636 68.7812 24.8042 68.9494 25.0564C69.0335 25.1405 69.1176 25.3087 69.1176 25.3928C69.2857 25.7291 69.4539 26.0654 69.6221 26.4018L69.7902 26.7381C69.9584 27.1585 70.1266 27.4949 70.2948 27.9153V27.9994C70.3788 28.1675 70.3788 28.3357 70.4629 28.4198C70.547 28.6721 70.6311 28.9243 70.7992 29.1766C70.7992 29.2606 70.8833 29.4288 70.8833 29.5129C70.8833 29.597 70.9674 29.7651 70.9674 29.8492C71.0515 30.0174 71.0515 30.1856 71.1356 30.3537C71.2197 30.5219 71.2197 30.6901 71.3038 30.8582L71.3878 30.9423ZM61.8863 39.6871C60.3728 39.4348 58.6911 39.0144 56.9254 38.594V38.4258C56.9254 38.1736 57.0095 38.0054 57.0095 37.7531C57.0936 37.5009 57.0935 37.1645 57.0935 36.9123C57.0935 36.66 57.1776 36.4919 57.1776 36.2396C57.1776 35.9874 57.2617 35.7351 57.2617 35.3988C57.2617 35.1465 57.3458 34.9784 57.3458 34.7261C57.3458 34.4739 57.4299 34.2216 57.4299 33.9693C57.4299 33.7171 57.4299 33.5489 57.514 33.2967C57.514 33.0444 57.5981 32.7922 57.5981 32.5399C57.5981 32.2877 57.598 32.1195 57.6821 31.8672C57.6821 31.615 57.6821 31.3627 57.7662 31.1105C57.7662 30.8582 57.7662 30.6901 57.7662 30.4378C57.7662 30.1856 57.7662 29.9333 57.7662 29.6811C57.7662 29.4288 57.7662 29.2606 57.7662 29.0084C57.7662 28.7561 57.7662 28.5039 57.7662 28.2516C57.7662 28.0835 57.7662 27.8312 57.7662 27.663C57.7662 27.4108 57.7662 27.1585 57.7662 26.9904C57.7662 26.8222 57.7662 26.5699 57.7662 26.4018C57.7662 26.1495 57.7662 25.9814 57.7662 25.7291C57.7662 25.5609 57.7662 25.3087 57.7662 25.1405C57.7662 24.8883 57.7662 24.7201 57.6821 24.4678V24.1315C58.1026 24.2156 58.523 24.3838 58.9434 24.4678C60.8773 25.4769 62.7272 26.5699 64.4089 27.663C64.3248 31.4468 63.4839 35.4829 61.8863 39.6871ZM71.556 32.8763C70.0425 31.2787 67.9404 29.5129 65.3338 27.8312C65.1656 27.4949 65.0815 27.1585 64.9134 26.8222C64.9134 26.2336 64.9134 25.7291 64.8293 25.2246C65.8383 25.1405 66.511 24.8883 67.0155 24.4678C69.0335 27.0745 70.4629 29.9333 71.556 32.8763ZM64.4089 27.2426C63.2317 26.4859 61.9704 25.7291 60.6251 24.9724C61.7182 25.1405 62.7272 25.2246 63.6521 25.3087C63.9044 25.8132 64.1566 26.4018 64.4089 26.9904V27.2426ZM64.4089 25.5609L64.2407 25.3087H64.3248L64.4089 25.5609ZM18.6671 26.8222C18.9194 26.4859 19.1716 26.1495 19.508 25.8132C19.3398 26.1495 19.1716 26.4859 19.0875 26.8222C18.9194 26.8222 18.8353 26.8222 18.6671 26.8222ZM32.2887 27.8312C32.1206 27.7471 31.9524 27.663 31.7842 27.4949C32.2047 26.9904 32.7092 26.4018 33.1296 25.8973C33.0455 26.1495 32.8773 26.4018 32.7932 26.5699C32.7092 26.7381 32.6251 26.9063 32.541 27.0745C32.4569 27.2426 32.3728 27.4108 32.2887 27.579V27.8312ZM22.6191 41.5369C22.4509 41.4528 22.3668 41.3687 22.1987 41.2847C22.0305 41.2006 21.8623 41.1165 21.7782 40.9483C21.6101 40.7802 21.3578 40.6961 21.1896 40.5279C21.0215 40.4438 20.8533 40.3597 20.7692 40.1916C20.6011 40.0234 20.4329 39.9393 20.1806 39.7712C20.0125 39.6871 19.9284 39.5189 19.7602 39.4348C19.592 39.2666 19.4239 39.1826 19.2557 39.0144C19.0875 38.9303 19.0035 38.7621 18.8353 38.6781C18.6671 38.594 18.499 38.4258 18.3308 38.2576C18.1626 38.1736 18.0785 38.0054 17.9104 37.9213C17.7422 37.7531 17.574 37.6691 17.4899 37.585C17.3218 37.5009 17.2377 37.3327 17.1536 37.2486L16.8173 37.1645C17.2377 33.8012 18.0785 30.5219 19.4239 27.3267H19.6761C19.8443 27.3267 20.0965 27.3267 20.2647 27.3267H20.3488C21.6101 27.4108 22.8713 27.4949 24.3848 27.7471C24.6371 27.7471 24.9734 27.8312 25.2257 27.9153H25.3098C25.562 27.9994 25.8983 27.9994 26.1506 28.0835H26.2347C26.4869 28.1675 26.8233 28.1675 27.0755 28.2516H27.1596C27.4959 28.3357 27.7482 28.3357 28.0845 28.4198C28.7572 28.588 29.3458 28.6721 30.0185 28.8402H30.1866C27.1596 32.7081 24.553 36.9964 22.6191 41.5369ZM17.4059 31.5309C16.7332 31.5309 16.1446 31.4468 15.6401 31.4468C16.3968 30.0174 17.3218 28.6721 18.3308 27.3267H18.499C18.583 27.3267 18.7512 27.3267 18.8353 27.3267H18.9194C18.2467 28.6721 17.7422 30.1015 17.4059 31.5309ZM12.529 31.4468C12.529 31.2787 12.4449 31.1105 12.4449 30.9423V30.8582C12.4449 30.6901 12.4449 30.5219 12.4449 30.4378V30.3537C12.6131 29.9333 12.7812 29.5129 12.9494 29.1766L13.0335 29.0925L13.1176 29.0084C13.8743 28.1675 15.3878 27.579 17.4059 27.4108H17.6581C16.9014 28.5039 16.1446 29.597 15.4719 30.7742C15.3878 31.0264 15.2197 31.1946 15.1356 31.4468C14.3788 31.4468 13.7902 31.4468 13.2017 31.4468C12.8653 31.4468 12.6971 31.4468 12.529 31.4468ZM31.8683 28.8402L31.532 28.7561C31.3638 28.6721 31.1957 28.6721 31.0275 28.588H30.9434C31.1116 28.4198 31.2797 28.1675 31.4479 27.9994C31.6161 28.1675 31.8683 28.2516 32.0365 28.4198L31.9524 28.588L31.8683 28.8402ZM67.4359 40.2757C66.0065 40.2757 64.3248 40.1075 62.4749 39.7712C63.9884 35.651 64.8293 31.6991 64.9975 28.1675C66.4269 31.9513 67.2677 36.0715 67.4359 40.2757ZM33.55 29.2606C33.3818 29.1766 33.2137 29.1766 32.9614 29.0925C32.7932 29.0084 32.541 29.0084 32.3728 28.9243L32.541 28.588C32.8773 28.8402 33.2137 29.0925 33.55 29.2606ZM67.9404 40.2757C67.7722 36.2396 67.0155 32.2877 65.6701 28.672C68.4449 30.606 70.6311 32.4558 71.9764 34.2216C71.9764 34.3057 72.0605 34.4739 72.0605 34.5579C72.2287 35.651 72.2287 36.7441 72.2287 37.8372C72.2287 38.4258 72.2287 38.9303 72.1446 39.5189C71.3038 40.0234 69.7902 40.2757 67.9404 40.2757ZM27.2437 44.3958C27.0755 44.3117 26.9074 44.2276 26.8233 44.1435C26.6551 44.0594 26.571 43.9754 26.4029 43.8913C26.1506 43.7231 25.8143 43.5549 25.562 43.3868C25.3938 43.3027 25.3098 43.2186 25.1416 43.1345C24.8893 42.9663 24.6371 42.7982 24.3848 42.7141C24.2167 42.63 24.0485 42.5459 23.9644 42.4618C23.7122 42.2937 23.544 42.2096 23.2917 42.0414L23.0395 41.8733C24.9734 37.2486 27.6641 32.8763 30.6071 29.0084L30.8593 29.0925C30.9434 29.0925 31.0275 29.1766 31.1956 29.1766C31.3638 29.2606 31.532 29.2606 31.7002 29.3447C31.6161 29.597 31.532 29.7651 31.4479 30.0174C31.3638 30.2696 31.2797 30.4378 31.1956 30.6901C31.1116 30.9423 30.9434 31.2787 30.8593 31.5309C30.7752 31.6991 30.6911 31.9513 30.6071 32.1195C30.523 32.4558 30.3548 32.7081 30.2707 33.0444C30.1866 33.2126 30.1026 33.4648 30.1026 33.633C30.0185 33.9693 29.8503 34.3057 29.7662 34.642C29.6821 34.8102 29.6821 34.9784 29.5981 35.1465C29.4299 35.5669 29.3458 35.9874 29.2617 36.3237L29.1776 36.576C29.0095 37.0805 28.8413 37.585 28.7572 38.0895L28.589 38.2576C28.505 38.6781 28.3368 39.1826 28.2527 39.603C28.2527 39.7711 28.1686 39.9393 28.1686 40.0234C28.0845 40.3597 28.0005 40.6961 27.9164 41.1165C27.9164 41.2847 27.8323 41.4528 27.8323 41.7051C27.7482 42.0414 27.6641 42.2937 27.6641 42.63C27.58 42.7982 27.58 43.0504 27.58 43.2186C27.4959 43.5549 27.4959 43.8072 27.4119 44.1435L27.2437 44.3958ZM73.0695 34.7261C72.9014 34.5579 72.8173 34.3057 72.6491 34.1375V33.8853C72.6491 33.7171 72.565 33.4648 72.565 33.2967C72.4809 33.0444 72.4809 32.7081 72.3969 32.4558C72.3969 32.2877 72.3128 32.1195 72.3128 31.8672L72.2287 31.615C72.3969 32.2036 72.6491 32.9603 72.8173 33.5489C72.9014 33.7171 72.9014 33.8853 72.9854 34.0534C72.9014 34.3057 72.9854 34.5579 73.0695 34.7261ZM13.7902 33.8853C13.6221 33.7171 13.538 33.4648 13.3698 33.2967V33.2126C13.2857 33.0444 13.2017 32.9603 13.1176 32.7922C13.4539 32.7922 13.8743 32.7922 14.2947 32.7922L14.1266 33.0444L14.0425 33.1285C14.0425 33.4648 13.8743 33.633 13.7902 33.8853ZM10.8473 44.4799C10.3428 40.612 10.595 36.66 11.6881 32.7922C11.8563 32.7922 12.1926 32.7922 12.529 32.7922L12.6131 32.9603L12.6971 33.1285L12.7812 33.2967L12.8653 33.4648L13.0335 33.633L13.1176 33.8012L13.2857 33.9693L13.4539 34.3057L13.538 34.4739C13.4539 34.7261 13.3698 34.9784 13.2857 35.1465C13.2017 35.3988 13.1176 35.651 13.0335 35.8192C12.9494 36.0714 12.8653 36.3237 12.7812 36.576C12.6971 36.8282 12.6131 37.0805 12.529 37.3327C12.4449 37.585 12.3608 37.8372 12.2767 38.0895C12.1926 38.3417 12.1086 38.594 12.1086 38.7621C12.0245 39.0144 11.9404 39.2666 11.9404 39.5189C11.8563 39.7711 11.8563 40.0234 11.7722 40.1916C11.6881 40.4438 11.6881 40.6961 11.6041 40.9483C11.6041 41.2006 11.52 41.4528 11.52 41.621C11.52 41.8733 11.4359 42.1255 11.4359 42.4618C11.4359 42.7141 11.3518 42.9663 11.3518 43.1345C11.3518 43.3868 11.3518 43.639 11.2677 43.9754C11.0996 44.3117 10.9314 44.3958 10.8473 44.4799ZM16.3128 36.7441C16.1446 36.66 16.0605 36.4919 15.9764 36.4078C15.8923 36.3237 15.7242 36.1555 15.6401 36.0714C15.556 35.9874 15.3878 35.8192 15.3038 35.7351C15.2197 35.651 15.1356 35.4829 14.9674 35.3988C14.8833 35.3147 14.7152 35.1465 14.6311 35.0624C14.547 34.9784 14.4629 34.8102 14.3788 34.7261L14.1266 34.4739L14.2107 34.2216C14.2947 33.9693 14.4629 33.633 14.547 33.3808C14.6311 33.2967 14.6311 33.1285 14.7152 33.0444L14.7993 32.8763C15.3878 32.8763 16.1446 32.8763 16.9014 32.9603C16.7332 34.1375 16.4809 35.3988 16.3128 36.7441ZM11.7722 43.8913C11.7722 43.7231 11.7722 43.639 11.7722 43.4709C11.7722 43.2186 11.8563 42.9663 11.8563 42.7982C11.8563 42.5459 11.9404 42.2937 11.9404 42.0414C11.9404 41.7892 12.0245 41.5369 12.0245 41.3688C12.1086 41.1165 12.1086 40.8642 12.1926 40.612C12.2767 40.3597 12.2767 40.1075 12.3608 39.9393C12.4449 39.6871 12.4449 39.4348 12.529 39.1826C12.6131 38.9303 12.6971 38.6781 12.6971 38.5099C12.7812 38.2576 12.8653 38.0054 12.9494 37.7531C13.0335 37.5009 13.1176 37.2486 13.2017 37.0805C13.2857 36.8282 13.3698 36.576 13.4539 36.3237C13.538 36.0715 13.6221 35.8192 13.7062 35.651C13.7902 35.4829 13.8743 35.3147 13.8743 35.1465L14.0425 35.3147C14.1266 35.3988 14.2107 35.5669 14.2947 35.651C14.3788 35.7351 14.4629 35.9033 14.6311 35.9874C14.7152 36.0714 14.7993 36.2396 14.9674 36.3237C15.0515 36.4078 15.2197 36.576 15.3038 36.66C15.3878 36.7441 15.556 36.9123 15.6401 36.9964C15.7242 37.0805 15.8923 37.2486 15.9764 37.3327L16.1446 37.5009C15.8923 39.4348 15.8083 41.3687 15.8923 43.3027C14.2107 43.2186 12.7812 43.4709 11.7722 43.8913ZM52.0485 37.0805C50.535 36.576 49.0215 36.0715 47.592 35.4829C47.6761 35.3147 47.6761 35.2306 47.7602 35.0624L47.9284 35.1465C48.1806 35.2306 48.4329 35.3988 48.7692 35.4829C48.9374 35.5669 49.1896 35.651 49.3578 35.7351C49.6101 35.9033 49.9464 35.9874 50.1987 36.1555C50.3668 36.2396 50.535 36.3237 50.7872 36.4078C51.1236 36.576 51.4599 36.7441 51.7962 36.9123C51.7962 36.9964 51.8803 37.0805 52.0485 37.0805ZM73.4899 38.0895C73.3218 37.2486 73.1536 36.4078 72.9854 35.651C73.2377 36.1555 73.4059 36.576 73.4899 37.0805V37.1645C73.574 37.5009 73.574 37.7531 73.4899 38.0895ZM51.7962 54.57C51.544 54.4859 51.2917 54.4859 51.1236 54.4018C50.8713 54.3177 50.7032 54.2336 50.4509 54.2336C50.1987 54.1495 49.9464 54.0654 49.6941 53.9814C49.4419 53.8973 49.2737 53.8132 49.0215 53.8132C48.8533 53.7291 48.6011 53.7291 48.4329 53.645C46.1626 52.3838 43.7242 51.1225 41.2017 50.0294C43.3038 45.573 45.4059 40.8642 47.4239 36.0714C49.8623 36.9964 52.3848 37.9213 54.8233 38.594C54.9074 38.6781 55.0755 38.6781 55.1596 38.7621C55.4119 38.9303 55.7482 39.0985 56.0005 39.1826C56.0845 39.2666 56.1686 39.2666 56.3368 39.3507C56.3368 39.4348 56.2527 39.603 56.2527 39.6871C56.1686 39.9393 56.1686 40.1916 56.0845 40.5279C56.0845 40.7802 56.0005 40.9483 55.9164 41.2006C55.8323 41.4528 55.8323 41.7051 55.7482 42.0414C55.6641 42.2937 55.6641 42.4618 55.58 42.7141C55.4959 42.9663 55.4119 43.2186 55.4119 43.5549C55.3278 43.8072 55.3278 44.0594 55.2437 44.2276C55.1596 44.4799 55.0755 44.7321 55.0755 44.9844C54.9914 45.2366 54.9914 45.4889 54.9074 45.657C54.8233 45.9093 54.7392 46.1615 54.6551 46.4138C54.571 46.666 54.4869 46.9183 54.4869 47.1706C54.4029 47.4228 54.3188 47.6751 54.2347 47.9273C54.1506 48.1796 54.0665 48.4318 53.9824 48.6841C53.8983 48.9363 53.8143 49.1886 53.7302 49.4408C53.6461 49.6931 53.562 49.9453 53.4779 50.1976C53.3938 50.4498 53.3098 50.7021 53.2257 50.9543C53.1416 51.2066 53.0575 51.4588 52.9734 51.7111C52.8893 51.9633 52.8053 52.2156 52.7212 52.4678C52.6371 52.7201 52.553 52.9724 52.4689 53.2246C52.3848 53.4769 52.3008 53.7291 52.2167 53.9814C51.9644 54.1495 51.8803 54.4018 51.7962 54.57ZM72.8173 39.0985C72.8173 38.8462 72.8173 38.594 72.8173 38.3417C72.8173 38.1735 72.8173 37.9213 72.8173 37.7531C72.9014 38.1736 72.9854 38.5099 72.9854 38.9303L72.8173 39.0985ZM21.7782 43.7231C19.8443 43.3868 18.0785 43.2186 16.565 43.2186C16.4809 41.4528 16.565 39.603 16.7332 37.8372L16.8173 37.9213C16.9854 38.0054 17.0695 38.1736 17.2377 38.2576C17.4059 38.3417 17.4899 38.5099 17.6581 38.594C17.8263 38.6781 17.9104 38.8462 18.0785 38.9303C18.2467 39.0144 18.4149 39.1826 18.499 39.2666C18.6671 39.3507 18.8353 39.5189 18.9194 39.603C19.0875 39.6871 19.2557 39.8552 19.4239 39.9393C19.592 40.0234 19.7602 40.1916 19.9284 40.2757C20.0965 40.3597 20.2647 40.5279 20.4329 40.612C20.6011 40.6961 20.7692 40.8642 20.9374 40.9483C21.1056 41.0324 21.2737 41.2006 21.4419 41.2847C21.6101 41.3687 21.7782 41.5369 21.9464 41.621C22.1146 41.7051 22.1986 41.7892 22.3668 41.8733C22.1986 42.63 21.9464 43.1345 21.7782 43.7231ZM73.9104 42.1255C73.8263 41.1165 73.7422 40.0234 73.6581 39.0144L73.7422 38.9303L73.8263 38.8462C73.8263 39.0144 73.8263 39.1826 73.8263 39.2666V39.3507C73.8263 39.8552 73.9104 40.3597 73.9104 40.8642V41.2006C73.9104 41.5369 73.9104 41.7892 73.9104 42.1255ZM61.1296 41.7051L60.8773 41.5369C60.7092 41.4528 60.541 41.2847 60.2887 41.2006C60.1206 41.1165 59.9524 40.9483 59.7002 40.8642C59.532 40.7802 59.2797 40.612 59.1116 40.5279C58.9434 40.4438 58.6911 40.2757 58.523 40.1916C58.3548 40.1075 58.1026 39.9393 57.9344 39.8552C57.7662 39.7712 57.514 39.603 57.3458 39.5189C57.1776 39.4348 57.0935 39.3507 56.9254 39.2666C58.6071 39.6871 60.2047 40.0234 61.6341 40.3597C61.55 40.6961 61.2977 41.2006 61.1296 41.7051ZM71.9764 52.4678L71.8923 52.2156L71.8083 52.0474L71.7242 51.8793L71.6401 51.7111L71.556 51.5429L71.4719 51.3748L71.3038 51.0384L71.2197 50.8703L71.1356 50.7021L71.0515 50.5339L70.8833 50.2817L70.7992 50.1135L70.6311 49.8612L70.4629 49.6931L70.3788 49.5249C70.4629 49.2727 70.547 49.1045 70.6311 48.8522C70.7152 48.6 70.7993 48.3477 70.8833 48.1796V48.0955C70.9674 47.8432 71.0515 47.591 71.1356 47.2546C71.2197 47.0865 71.3038 46.8342 71.3038 46.666V46.582C71.3878 46.3297 71.4719 46.0775 71.556 45.7411C71.6401 45.4889 71.7242 45.3207 71.7242 45.0685C71.8083 44.8162 71.8923 44.5639 71.8923 44.2276C71.9764 43.9754 71.9764 43.8072 72.0605 43.5549C72.1446 43.3027 72.1446 42.9663 72.2287 42.7141C72.2287 42.4618 72.3128 42.2937 72.3128 42.0414C72.3968 41.7892 72.3969 41.4528 72.3969 41.2006C72.3969 40.9483 72.4809 40.7802 72.4809 40.5279C72.4809 40.2757 72.565 39.9393 72.565 39.6871C72.7332 39.603 72.8173 39.5189 72.9014 39.4348C73.6581 43.8072 73.3218 48.1796 71.9764 52.4678ZM53.3098 54.9904L53.0575 54.9063C52.9734 54.9063 52.8053 54.8222 52.7212 54.8222C52.553 54.7381 52.3848 54.7381 52.2167 54.654C52.3008 54.4018 52.3848 54.2336 52.4689 53.9814C52.553 53.8132 52.6371 53.5609 52.7212 53.3087C52.8053 53.0564 52.9734 52.7201 53.0575 52.4678C53.1416 52.2997 53.2257 52.0474 53.3098 51.8793C53.3938 51.5429 53.562 51.2907 53.6461 50.9543C53.7302 50.7862 53.8143 50.5339 53.8143 50.3657C53.8984 50.0294 54.0665 49.6931 54.1506 49.3567C54.2347 49.1886 54.2347 49.0204 54.3188 48.8522C54.4869 48.4318 54.571 48.0114 54.6551 47.6751L54.7392 47.4228C54.9074 46.9183 54.9914 46.4138 55.1596 45.9093V45.7411C55.2437 45.3207 55.4119 44.8162 55.4959 44.3958C55.4959 44.2276 55.58 44.0594 55.58 43.8913C55.6641 43.5549 55.7482 43.2186 55.8323 42.8823C55.9164 42.7141 55.9164 42.5459 56.0005 42.2937C56.0845 41.9573 56.1686 41.7051 56.1686 41.3688C56.1686 41.2006 56.2527 40.9483 56.2527 40.7802C56.3368 40.4438 56.3368 40.1916 56.4209 39.8552L56.505 39.603C56.6731 39.6871 56.7572 39.7712 56.9254 39.8552C57.0935 39.9393 57.2617 40.0234 57.4299 40.1075C57.6821 40.2757 57.9344 40.3597 58.1026 40.5279C58.2707 40.612 58.4389 40.6961 58.6071 40.8642C58.8593 41.0324 59.0275 41.1165 59.2797 41.2847C59.4479 41.3687 59.6161 41.4528 59.7842 41.621C60.0365 41.7892 60.2047 41.8733 60.4569 42.0414L60.7092 42.2096C58.9434 46.7501 56.3368 51.1225 53.3098 54.9904ZM70.0425 49.1045L69.8743 48.9363C69.7902 48.8522 69.7062 48.6841 69.6221 48.6C69.538 48.5159 69.4539 48.3477 69.2857 48.2636C69.2017 48.1796 69.1176 48.0114 68.9494 47.9273C68.8653 47.8432 68.6972 47.6751 68.6131 47.591C68.529 47.5069 68.3608 47.3387 68.2767 47.2546C68.1926 47.1706 68.0245 47.0024 67.9404 46.9183L67.7722 46.7501C68.0245 44.8162 68.1086 42.8823 68.0245 40.9483C69.7902 40.9483 71.2197 40.6961 72.2287 40.1916C72.1446 41.3687 71.9764 42.5459 71.7242 43.7231L71.6401 43.9754C71.556 44.3958 71.4719 44.7321 71.3878 45.1525C71.3038 45.3207 71.3038 45.4889 71.2197 45.657C71.1356 45.9934 71.0515 46.2456 70.9674 46.582C70.8833 46.8342 70.7992 47.0024 70.7992 47.2546C70.7152 47.5069 70.6311 47.7591 70.547 48.0114C70.4629 48.2636 70.3788 48.4318 70.2948 48.6841C70.1266 48.6841 70.1266 48.8522 70.0425 49.1045ZM67.2677 46.2456C67.0155 46.0775 66.9314 45.9093 66.7632 45.8252C66.5951 45.7411 66.511 45.573 66.3428 45.4889C66.1746 45.4048 66.0905 45.2366 65.9224 45.1525C65.7542 45.0685 65.586 44.9003 65.502 44.8162C65.3338 44.7321 65.1656 44.5639 65.0815 44.4799C64.9134 44.3958 64.7452 44.2276 64.577 44.1435C64.4089 44.0594 64.2407 43.8913 64.0725 43.8072C63.9044 43.7231 63.7362 43.5549 63.568 43.4709C63.3999 43.3868 63.2317 43.2186 63.0635 43.1345C62.8953 43.0504 62.7272 42.8823 62.559 42.7982C62.3908 42.7141 62.2227 42.5459 62.0545 42.4618C61.8863 42.3778 61.8023 42.2937 61.6341 42.2096C61.8863 41.621 62.0545 41.1165 62.3068 40.5279C64.2407 40.8642 66.0065 41.0324 67.52 41.0324C67.52 42.63 67.4359 44.3958 67.2677 46.2456ZM10.2587 45.1525C10.2587 44.9003 10.2587 44.7321 10.1746 44.5639C10.1746 44.3958 10.1746 44.3117 10.1746 44.1435C10.1746 43.9754 10.1746 43.8072 10.1746 43.639C10.1746 43.0504 10.0905 42.3778 10.0905 41.8733C10.1746 42.9663 10.2587 43.9754 10.3428 44.9844L10.2587 45.0685V45.1525ZM26.9914 44.9003C25.3098 44.4799 23.7122 44.1435 22.2827 43.8072C22.4509 43.3027 22.6191 42.8823 22.8713 42.3778L23.1236 42.5459C23.2917 42.63 23.4599 42.7982 23.7122 42.8823C23.8803 42.9663 24.1326 43.1345 24.3008 43.2186C24.4689 43.3027 24.7212 43.4709 24.8893 43.5549C25.0575 43.639 25.3098 43.8072 25.4779 43.8913C25.6461 43.9754 25.8984 44.1435 26.0665 44.2276C26.2347 44.3117 26.4869 44.4799 26.6551 44.5639C26.7392 44.7321 26.8233 44.8162 26.9914 44.9003ZM59.1957 56.7561C59.3638 56.588 59.6161 56.4198 59.7842 56.3357C58.0185 56.0835 56.0005 55.663 53.9824 55.1585H53.8983C56.8413 51.3748 59.4479 47.0024 61.3818 42.4618C61.55 42.5459 61.6341 42.63 61.8023 42.7141C61.9704 42.7982 62.1386 42.9664 62.3068 43.0504C62.4749 43.2186 62.7272 43.3027 62.8954 43.4709C63.0635 43.5549 63.2317 43.7231 63.3158 43.8072C63.4839 43.9754 63.6521 44.0594 63.8203 44.2276C63.9884 44.3117 64.0725 44.4799 64.2407 44.5639C64.4089 44.7321 64.577 44.8162 64.7452 44.9844C64.9134 45.0684 64.9974 45.2366 65.1656 45.3207C65.3338 45.4889 65.502 45.573 65.6701 45.7411C65.8383 45.8252 65.9224 45.9934 66.0905 46.0775C66.2587 46.1615 66.4269 46.3297 66.511 46.4138C66.6791 46.4979 66.7632 46.666 66.8473 46.7501L67.0996 47.0024C66.6791 50.3657 65.8383 53.645 64.4929 56.8402H64.2407C63.3999 56.8402 62.4749 56.7561 61.4659 56.6721C61.55 56.7561 61.6341 56.9243 61.6341 57.0925V57.2606H62.0545C62.2227 57.2606 62.3908 57.2606 62.6431 57.3447H62.8113C62.9794 57.3447 63.1476 57.3447 63.3158 57.3447H63.568C63.7362 57.3447 63.8203 57.3447 63.9884 57.3447H64.2407C63.9044 58.1856 63.4839 59.0264 62.9794 59.8673C62.8954 60.0354 62.7272 60.1195 62.6431 60.2877L62.559 60.3718C61.8023 61.2126 60.9614 61.9693 60.1206 62.642C58.523 60.7081 56.0005 58.5219 52.8053 56.5039C52.9734 56.2516 53.2257 55.9994 53.3938 55.7471L53.6461 55.8312C53.8143 55.9153 53.9824 55.9153 54.2347 55.9994C54.3188 55.9994 54.4869 56.0835 54.571 56.0835C54.7392 56.1676 54.9914 56.1675 55.1596 56.2516L55.4119 56.3357C55.6641 56.4198 55.8323 56.4198 56.0845 56.5039H56.2527C56.505 56.588 56.7572 56.588 57.0095 56.6721H57.0935C57.3458 56.7561 57.5981 56.7561 57.8503 56.8402H57.9344C58.1866 56.9243 58.4389 56.9243 58.6911 57.0084H58.7752L59.1957 56.7561ZM18.2467 55.3267C15.4719 53.3928 13.2857 51.5429 11.9404 49.7772C11.8563 49.609 11.8563 49.5249 11.8563 49.3567V49.2727C11.8563 49.0204 11.8563 48.8522 11.7722 48.6C11.7722 48.3477 11.6881 48.0955 11.6881 47.8432C11.6881 47.591 11.6881 47.4228 11.6881 47.1706C11.6881 46.9183 11.6881 46.666 11.6881 46.4138C11.6881 46.1615 11.6881 45.9934 11.6881 45.7411C11.6881 45.4889 11.6881 45.2366 11.6881 44.9844C11.6881 44.8162 11.6881 44.7321 11.6881 44.5639C12.6131 44.0594 14.1266 43.7231 15.9764 43.7231C16.2287 47.7591 16.9854 51.627 18.2467 55.3267ZM19.0035 55.8312C17.574 52.0474 16.7332 47.9273 16.4809 43.7231C17.9104 43.7231 19.592 43.8913 21.4419 44.2276C20.0125 48.3477 19.1716 52.2997 19.0035 55.8312ZM26.3188 59.6991C25.8983 59.615 25.4779 59.4468 25.0575 59.3627C23.1236 58.2697 21.2737 57.2606 19.592 56.1675C19.6761 52.5519 20.517 48.5159 22.1146 44.3117C23.6281 44.5639 25.3098 44.9844 27.0755 45.4048V45.573C27.0755 45.7411 26.9914 45.9934 26.9914 46.2456C26.9914 46.4979 26.9074 46.8342 26.8233 47.0865C26.8233 47.3387 26.7392 47.5069 26.7392 47.7591C26.7392 48.0114 26.6551 48.3477 26.6551 48.6C26.6551 48.8522 26.571 49.0204 26.571 49.2727C26.571 49.5249 26.4869 49.7772 26.4869 50.0294C26.4869 50.2817 26.4029 50.4498 26.4029 50.7021C26.4029 50.9543 26.3188 51.2066 26.3188 51.4588C26.3188 51.7111 26.3188 51.8793 26.2347 52.1315C26.2347 52.3838 26.2347 52.636 26.1506 52.8883C26.1506 53.1405 26.1506 53.3087 26.1506 53.5609C26.1506 53.8132 26.1506 54.0654 26.1506 54.3177C26.1506 54.4859 26.1506 54.7381 26.1506 54.9063C26.1506 55.1585 26.1506 55.4108 26.1506 55.663C26.1506 55.8312 26.1506 56.0835 26.1506 56.2516C26.1506 56.5039 26.1506 56.7561 26.1506 56.9243C26.1506 57.0925 26.1506 57.3447 26.1506 57.5129C26.1506 57.7651 26.1506 58.0174 26.1506 58.1856C26.1506 58.3537 26.1506 58.606 26.1506 58.7742C26.1506 59.0264 26.1506 59.1946 26.2347 59.4468L26.3188 59.6991ZM11.0996 46.3297C11.0155 45.9093 10.9314 45.573 10.9314 45.1525L11.1836 44.9003C11.1836 45.1525 11.1836 45.4048 11.1836 45.657C11.0996 45.9093 11.0996 46.0775 11.0996 46.3297ZM31.2797 61.2967C29.7662 60.7081 28.3368 60.2877 26.8233 59.8673V59.5309C26.8233 59.2787 26.8233 59.1105 26.7392 58.8582C26.7392 58.6901 26.7392 58.4378 26.6551 58.2697C26.6551 58.1015 26.6551 57.8492 26.6551 57.6811C26.6551 56.7561 26.571 55.8312 26.6551 54.9063C26.6551 54.7381 26.6551 54.57 26.6551 54.4018C26.6551 54.1495 26.6551 53.8973 26.6551 53.645C26.6551 53.4769 26.6551 53.2246 26.6551 53.0564C26.6551 52.8042 26.6551 52.5519 26.7392 52.2997C26.7392 52.1315 26.7392 51.8793 26.7392 51.7111C26.7392 51.4588 26.8233 51.2066 26.8233 50.8703C26.8233 50.7021 26.8233 50.4498 26.9074 50.2817C26.9074 50.0294 26.9914 49.7772 26.9914 49.4408C26.9914 49.1886 27.0755 49.0204 27.0755 48.7681C27.0755 48.5159 27.1596 48.2636 27.1596 47.9273C27.1596 47.6751 27.2437 47.5069 27.2437 47.2546C27.2437 47.0024 27.3278 46.7501 27.3278 46.4138C27.3278 46.1615 27.4119 45.9934 27.4119 45.7411V45.4889C27.9164 45.657 28.4209 45.7411 28.8413 45.9093L28.9254 45.9934C29.1776 46.0775 29.3458 46.2456 29.5981 46.3297C29.8503 46.4138 30.0185 46.582 30.2707 46.666C30.523 46.7501 30.6911 46.9183 30.9434 47.0024C31.1956 47.0865 31.3638 47.2546 31.6161 47.3387C31.8683 47.4228 32.1206 47.591 32.2887 47.6751C32.541 47.7591 32.7092 47.8432 32.9614 48.0114C33.2137 48.0955 33.4659 48.2636 33.7182 48.3477C33.9704 48.4318 34.1386 48.5159 34.3908 48.6841C34.6431 48.7682 34.8953 48.9363 35.1476 49.0204C35.3158 49.1045 35.568 49.1886 35.8203 49.2727L35.9884 49.3567C34.1386 53.8973 32.541 57.9333 31.2797 61.2967ZM11.0155 48.4318C10.595 47.591 10.2587 46.7501 10.511 45.9934C10.6791 46.7501 10.8473 47.591 11.0155 48.4318ZM36.2407 48.9363L35.9884 48.8522C35.6521 48.6841 35.3158 48.5159 34.9794 48.4318C34.8113 48.3477 34.7272 48.3477 34.559 48.2636C34.1386 48.0955 33.8023 47.9273 33.3818 47.7591L33.1296 47.6751C32.7932 47.3387 32.3728 47.1706 31.9524 46.9183C33.4659 47.4228 34.9794 47.9273 36.4089 48.5159C36.3248 48.6841 36.3248 48.8522 36.2407 48.9363ZM65.1656 56.6721C66.4269 53.645 67.1836 50.4498 67.6041 47.3387C67.7722 47.4228 67.8563 47.591 67.9404 47.6751C68.0245 47.7591 68.1926 47.9273 68.2767 48.0114C68.3608 48.0955 68.529 48.2636 68.6131 48.3477C68.6972 48.4318 68.7812 48.6 68.9494 48.6841C69.0335 48.7682 69.2017 48.9363 69.2857 49.0204C69.3698 49.1045 69.4539 49.2727 69.538 49.3567L69.7902 49.609V49.6931C69.7062 49.8612 69.6221 49.9453 69.6221 50.1135C69.538 50.2817 69.4539 50.4498 69.3698 50.618L69.2017 50.8703C69.1176 50.9543 69.1176 51.1225 69.0335 51.2066C68.9494 51.3748 68.8653 51.5429 68.7812 51.7111L68.6971 51.9633C68.6131 52.1315 68.529 52.2156 68.4449 52.3838C68.3608 52.5519 68.1926 52.8042 68.1086 52.9724C68.0245 53.1405 67.9404 53.3087 67.7722 53.4769C67.6881 53.645 67.52 53.8973 67.4359 54.0654C67.3518 54.2336 67.1836 54.4018 67.0996 54.57C67.0155 54.7381 66.8473 54.9063 66.7632 55.0745C66.5951 55.2426 66.511 55.4949 66.3428 55.663C66.2587 55.8312 66.0905 55.9994 66.0065 56.1675C65.9224 56.2516 65.8383 56.4198 65.7542 56.5039H65.586C65.4179 56.6721 65.3338 56.6721 65.1656 56.6721ZM40.1926 50.618C39.9404 50.5339 39.6881 50.3657 39.4359 50.2817C39.2677 50.1976 39.0155 50.1135 38.8473 50.0294C38.511 49.9453 38.2587 49.7772 38.0065 49.6931C37.8383 49.609 37.6701 49.5249 37.502 49.4408C37.2497 49.3567 37.0815 49.2727 36.8293 49.1045C36.9134 48.9363 36.9134 48.8522 36.9974 48.6841C38.1746 49.1886 39.3518 49.609 40.529 50.1135C40.3608 50.3657 40.2767 50.5339 40.1926 50.618ZM11.8563 52.4678C11.7722 52.1315 11.6881 51.8793 11.6041 51.627C11.4359 51.0384 11.1836 50.2817 11.0155 49.3567C11.0996 49.5249 11.2677 49.6931 11.4359 49.9453V50.1135C11.4359 50.2817 11.52 50.5339 11.52 50.7021C11.6041 50.9543 11.6041 51.2907 11.6881 51.5429C11.7722 51.7111 11.7722 51.9633 11.7722 52.1315L11.8563 52.4678ZM34.3068 62.5579C33.4659 62.2216 32.6251 61.8012 31.7842 61.5489C32.9614 58.4378 34.4749 54.57 36.4929 49.6931L36.6611 49.7772C36.8293 49.8612 37.0815 49.9453 37.2497 50.0294C37.586 50.1976 38.0065 50.3657 38.3428 50.5339C38.4269 50.618 38.595 50.618 38.6791 50.7021C39.0996 50.8703 39.52 51.0384 40.0245 51.2066C39.52 52.2997 39.0155 53.3928 38.511 54.4018C38.6791 54.4859 38.8473 54.4859 39.0155 54.57C39.52 53.5609 40.0245 52.4679 40.529 51.3748L40.6972 51.4588C41.0335 51.5429 41.2857 51.7111 41.6221 51.7952C41.7902 51.8793 42.0425 51.9633 42.2107 52.0474C42.4629 52.1315 42.7993 52.2997 43.0515 52.3838C43.3038 52.4678 43.4719 52.5519 43.7242 52.636C43.9764 52.7201 44.2287 52.8042 44.565 52.8883C44.8173 52.9724 44.9854 53.0564 45.2377 53.1405C45.4899 53.2246 45.7422 53.3087 45.9944 53.3928C46.2467 53.4769 46.4149 53.5609 46.6671 53.645C46.9194 53.7291 47.1716 53.8132 47.4239 53.8973C47.6761 53.9814 47.9284 54.0654 48.0965 54.1495L48.2647 54.2336C49.2737 54.8222 50.2827 55.4108 51.2917 55.9994L51.1236 56.1675C51.0395 56.2516 51.0395 56.4198 50.9554 56.5039C50.8713 56.7561 50.7032 57.0084 50.6191 57.2606C50.535 57.4288 50.4509 57.6811 50.3668 57.8492C50.2827 58.0174 50.1987 58.1015 50.1987 58.2697C50.0305 58.6901 49.7782 59.1105 49.6101 59.4468C47.0035 62.1375 44.2287 64.4919 41.4539 66.2576C39.6041 64.9964 37.3338 63.8192 34.9794 62.7261C35.3999 61.8853 35.8203 61.0444 36.3248 60.1195C36.1566 60.0354 35.9884 59.9513 35.9044 59.7832C35.2317 60.7922 34.8113 61.7171 34.3068 62.5579ZM66.4269 56.6721C67.1836 55.579 67.9404 54.4859 68.6131 53.3087C68.7812 53.0564 68.8653 52.8042 69.0335 52.5519L69.1176 52.3838V52.2997L69.2017 52.1315C69.2857 51.8793 69.4539 51.7111 69.538 51.4588L69.6221 51.2066L69.7062 51.0384L69.7902 50.9543C69.8743 50.7021 69.9584 50.5339 70.1266 50.2817C70.2948 50.4498 70.3788 50.7021 70.547 50.8703V50.9543C70.6311 51.1225 70.7993 51.2907 70.8833 51.5429V51.627C70.9674 51.7952 71.0515 51.9633 71.1356 52.1315V52.2156C71.2197 52.3838 71.2197 52.5519 71.3038 52.7201V52.8042C71.3038 52.9724 71.3878 53.1405 71.3878 53.2246V53.3087C71.3878 53.4769 71.3878 53.645 71.3878 53.7291V53.8973C71.2197 54.3177 71.0515 54.7381 70.8833 55.0745L70.7992 55.1585C70.2107 55.9153 68.6131 56.5039 66.4269 56.6721ZM45.4899 52.636L45.3218 52.5519C45.0695 52.4678 44.9014 52.3838 44.6491 52.2997C44.3969 52.2156 44.1446 52.1315 43.8083 51.9633C43.556 51.8793 43.3878 51.7952 43.1356 51.7111C42.8833 51.627 42.547 51.5429 42.2948 51.3748C42.0425 51.2907 41.8743 51.2066 41.7062 51.1225C41.4539 51.0384 41.1176 50.8703 40.8653 50.7862L40.6972 50.7021C40.7812 50.5339 40.8653 50.4498 40.8653 50.2817C42.4629 51.1225 43.9764 51.8793 45.4899 52.636ZM16.9014 59.5309C14.9674 57.0084 13.4539 54.1495 12.4449 51.1225C13.9584 52.7201 16.0605 54.4859 18.6671 56.1675C18.8353 56.5039 18.9194 56.8402 19.0875 57.1766C19.0875 57.7651 19.0875 58.2696 19.1716 58.7742C18.0785 58.9423 17.3218 59.1946 16.9014 59.5309ZM16.3128 60.8763L16.1446 60.7081C15.9764 60.4558 15.8923 60.2877 15.7242 60.0354C15.6401 59.8672 15.556 59.7832 15.4719 59.615C15.3038 59.3627 15.2197 59.1105 15.0515 58.8582C14.9674 58.7742 14.8833 58.606 14.7993 58.5219C14.6311 58.1856 14.3788 57.7651 14.2107 57.3447C14.0425 56.9243 13.7902 56.5039 13.6221 56.0835C13.538 55.9153 13.538 55.7471 13.4539 55.663C13.3698 55.4108 13.2017 55.0745 13.1176 54.8222C13.0335 54.654 13.0335 54.4859 12.9494 54.2336C12.8653 53.9814 12.7812 53.7291 12.6971 53.4769C12.6971 53.3928 12.6131 53.2246 12.6131 53.1405C13.6221 55.579 14.9674 57.9333 16.565 60.0354C16.3968 60.2036 16.3128 60.5399 16.3128 60.8763ZM51.4599 55.4108C51.1236 55.2426 50.7872 54.9904 50.4509 54.8222C50.6191 54.9063 50.7872 54.9063 51.0395 54.9904C51.2077 55.0745 51.4599 55.0745 51.6281 55.1585L51.4599 55.4108ZM52.4689 56.0835C52.3008 55.9153 52.0485 55.8312 51.8803 55.663L51.9644 55.4949L52.0485 55.2426C52.1326 55.2426 52.3008 55.3267 52.3848 55.3267C52.553 55.3267 52.7212 55.4108 52.8893 55.4949H52.9734C52.8053 55.663 52.6371 55.8312 52.4689 56.0835ZM61.8863 66.8462C62.0545 66.1736 61.8863 65.1645 61.1296 63.9033C61.9704 62.7261 62.8113 61.4649 63.4839 60.2036C64.3248 59.2787 65.1656 58.2697 65.9224 57.2606H66.2587C66.4269 57.2606 66.511 57.2606 66.595 57.2606H66.8473C66.9314 57.2606 67.0155 57.2606 67.1836 57.2606H67.6881L67.9404 57.1766H68.1086L68.4449 57.0925H68.6131C68.6972 57.0925 68.8653 57.0084 68.9494 57.0084H69.0335C69.538 56.8402 69.9584 56.6721 70.3788 56.4198H70.4629C69.7902 57.8492 69.0335 59.1946 68.1926 60.4558C67.9404 60.7922 67.7722 61.1285 67.52 61.4649C67.4359 61.5489 67.3518 61.633 67.2677 61.8012L67.0996 61.9694C66.6791 62.5579 66.2587 62.9784 65.9224 63.3988C64.7452 64.4078 63.3999 65.669 61.8863 66.8462ZM50.7872 58.1015C50.8713 57.8492 51.0395 57.597 51.1236 57.3447C51.2077 57.1766 51.2917 57.0084 51.3758 56.8402C51.4599 56.6721 51.544 56.5039 51.6281 56.2516L51.7122 56.0835C51.8803 56.1676 52.0485 56.2516 52.2167 56.4198C51.7122 57.0084 51.2077 57.5129 50.7872 58.1015ZM50.4509 68.5279C48.7692 68.2757 46.9194 67.8552 44.9854 67.3507C46.7512 65.2486 48.3488 62.7261 49.9464 59.7832C50.8713 58.8582 51.7122 57.8492 52.6371 56.7561C55.7482 58.8582 58.2707 60.9603 59.8683 62.8943C57.9344 64.4919 55.7482 65.9213 53.562 67.0985C53.2257 67.2667 52.8053 67.5189 52.4689 67.6871C52.1326 67.8552 51.7122 68.0234 51.3758 68.1916L51.1236 68.2757C50.8713 68.3597 50.7032 68.4438 50.4509 68.5279ZM23.2917 59.0264C22.1987 58.8582 21.1896 58.7742 20.2647 58.6901C20.0125 58.1856 19.7602 57.597 19.508 57.0084V56.6721C20.6851 57.597 21.9464 58.3537 23.2917 59.0264ZM64.4929 58.2697C64.6611 57.9333 64.8293 57.597 64.9134 57.2606H65.2497L65.1656 57.3447C64.9974 57.597 64.7452 57.8492 64.577 58.0174L64.4929 58.2697ZM19.592 58.7742V58.5219L19.7602 58.7742H19.592ZM27.4119 68.8642C24.9734 67.5189 22.7872 65.8372 20.7692 63.9874C20.1806 62.5579 19.8443 61.0444 19.6761 59.2787C19.7602 59.2787 19.9284 59.2787 20.0125 59.2787C21.8623 62.9784 24.3848 66.2576 27.4119 68.8642ZM28.7572 69.2006C25.3938 66.594 22.6191 63.2306 20.6011 59.2787C21.6941 59.2787 23.1236 59.5309 24.8893 59.8673C25.3938 60.1195 25.8984 60.3718 26.4869 60.7081C26.4869 60.8763 26.4869 61.0444 26.571 61.2126C26.571 61.4648 26.6551 61.633 26.6551 61.8012C26.6551 61.9693 26.7392 62.1375 26.7392 62.3057C26.7392 62.4739 26.8233 62.7261 26.8233 62.8943C26.8233 63.0624 26.9074 63.2306 26.9074 63.3988C26.9914 63.5669 26.9914 63.8192 27.0755 63.9874C27.0755 64.1555 27.1596 64.3237 27.1596 64.4919C27.2437 64.66 27.2437 64.8282 27.3278 65.0805C27.3278 65.2486 27.4119 65.4168 27.4959 65.585C27.58 65.7531 27.58 65.9213 27.6641 66.0895C27.7482 66.2576 27.7482 66.4258 27.8323 66.5099C27.9164 66.6781 27.9164 66.8462 28.0005 67.0144C28.0845 67.1826 28.0845 67.2667 28.1686 67.4348C28.2527 67.603 28.3368 67.7712 28.4209 67.9393C28.505 68.1075 28.505 68.1916 28.589 68.3597C28.6731 68.5279 28.7572 68.6961 28.8413 68.7802L28.9254 69.0324L28.7572 69.2006ZM19.9284 63.1465C19.0035 62.1375 18.0785 61.1285 17.2377 60.0354C17.574 59.6991 18.2467 59.4468 19.1716 59.3627C19.2557 60.7081 19.508 61.9694 19.9284 63.1465ZM20.9374 65.585C20.2647 65.0805 19.6761 64.66 19.1716 64.1555L19.0035 63.9874C18.8353 63.8192 18.7512 63.7351 18.583 63.567C18.4149 63.3988 18.2467 63.2306 18.0785 63.0624C17.9104 62.8943 17.8263 62.8102 17.6581 62.642L17.4899 62.4739C16.9854 61.8853 16.565 61.0444 16.7332 60.3718C17.7422 61.7171 18.9194 63.0624 20.1806 64.2396C20.517 64.7441 20.7692 65.1645 20.9374 65.585ZM30.9434 62.3057C29.6821 61.7171 28.3368 61.1285 27.1596 60.4558C28.505 60.8763 29.8503 61.2967 31.1956 61.8012C31.0275 61.9693 31.0275 62.1375 30.9434 62.3057ZM28.9254 68.2757L28.7572 68.0234C28.6731 67.8552 28.589 67.6871 28.589 67.603C28.505 67.4348 28.505 67.3507 28.4209 67.1826C28.3368 67.0144 28.3368 66.8462 28.2527 66.6781C28.1686 66.5099 28.1686 66.4258 28.0845 66.2576C28.0005 66.0895 28.0005 65.9213 27.9164 65.7531C27.8323 65.585 27.8323 65.4168 27.7482 65.3327C27.6641 65.1646 27.6641 64.9964 27.58 64.7441C27.58 64.576 27.4959 64.4078 27.4959 64.2396C27.4119 64.0715 27.4119 63.8192 27.4119 63.651C27.4119 63.4829 27.3278 63.3147 27.3278 63.1465C27.3278 62.9784 27.2437 62.7261 27.2437 62.5579C27.2437 62.3898 27.1596 62.2216 27.1596 62.0534C27.1596 61.8853 27.0755 61.633 27.0755 61.4649V61.1285C28.3368 61.7171 29.5981 62.3057 30.8593 62.8943C30.6071 63.651 30.3548 64.3237 30.1026 64.9964C29.514 66.3417 29.1776 67.4348 28.9254 68.2757ZM44.3969 67.1826C43.556 66.9303 42.7993 66.7621 41.9584 66.5099C44.2287 65.0805 46.4149 63.2306 48.517 61.2126C47.2557 63.4829 45.8263 65.5009 44.3969 67.1826ZM60.8773 63.3988C60.7932 63.2306 60.7092 63.1465 60.6251 62.9784C61.1296 62.5579 61.6341 62.1375 62.0545 61.633C61.6341 62.2216 61.2137 62.8102 60.8773 63.3988ZM33.8023 63.567C32.9614 63.2306 32.2047 62.8943 31.4479 62.5579C31.532 62.3898 31.532 62.2216 31.6161 62.0534C32.4569 62.3898 33.2978 62.7261 34.0545 63.0624C33.9704 63.2306 33.8863 63.3988 33.8023 63.567ZM30.0185 70.0414L29.9344 69.9573C29.8503 69.8733 29.7662 69.7051 29.6821 69.621C29.598 69.5369 29.514 69.3688 29.4299 69.2006L29.3458 69.0324C29.6821 67.6871 30.2707 65.7531 31.2797 63.0624C32.0365 63.3988 32.7932 63.7351 33.55 64.0715C32.1206 66.6781 30.8593 68.7802 30.0185 70.0414ZM39.0996 65.585C37.502 64.9964 35.8203 64.4078 34.2227 63.7351C34.3068 63.567 34.3908 63.3988 34.4749 63.2306C36.1566 63.9874 37.7542 64.7441 39.0996 65.585ZM55.4959 69.0324C54.3188 69.0324 52.9734 68.9483 51.544 68.6961L51.7122 68.612C51.9644 68.5279 52.2167 68.3597 52.4689 68.2757L52.553 68.1916L52.7212 68.1075C55.3278 66.8462 57.8503 65.1645 60.2047 63.3147C60.2887 63.4829 60.4569 63.651 60.541 63.8192C59.0275 65.8372 57.3458 67.603 55.4959 69.0324ZM30.523 70.2096C31.4479 68.9483 32.6251 66.8462 34.0545 64.2396C36.2407 65.1645 38.511 65.9213 40.7812 66.6781C37.2497 68.7802 33.7182 70.0414 30.523 70.2096ZM56.3368 69.0324C57.9344 67.6871 59.4479 66.0895 60.7933 64.3237C61.3818 65.3327 61.6341 66.5099 61.0455 67.3507L60.9614 67.4348C60.4569 67.8552 59.8683 68.1916 59.2797 68.5279C58.6071 68.7802 57.514 68.9483 56.3368 69.0324ZM25.4779 68.3597C24.2167 67.6871 23.1236 67.0144 22.0305 66.3417C21.9464 66.2576 21.8623 66.0895 21.7782 66.0054C21.6101 65.7531 21.526 65.585 21.3578 65.3327C22.7032 66.4258 24.0485 67.4348 25.4779 68.3597ZM37.6701 71.2186C37.2497 71.2186 36.8293 71.2186 36.4089 71.2186H36.1566C35.8203 71.2186 35.4839 71.2186 35.1476 71.1345H34.9794C34.2227 71.0504 33.3818 70.9664 32.6251 70.7982L32.3728 70.7141C32.2047 70.7141 32.0365 70.63 31.7842 70.63C34.8113 70.2096 38.0905 68.9483 41.2857 66.9303C42.0425 67.4348 42.7152 67.9393 43.3038 68.4438L43.0515 68.6961L42.9674 68.7802C42.7993 68.9483 42.6311 69.1165 42.4629 69.2847C42.2947 69.4528 42.1266 69.621 41.8743 69.7892L41.7062 69.9573C41.2017 70.3778 40.6972 70.7982 40.2767 71.1345C39.9404 71.1345 39.52 71.2186 39.1836 71.2186H38.9314C38.511 71.2186 38.0905 71.2186 37.6701 71.2186ZM43.7242 68.0234C43.4719 67.7712 43.1356 67.603 42.7993 67.3507C43.2197 67.4348 43.6401 67.603 43.9764 67.6871C43.8923 67.7712 43.8083 67.8552 43.7242 68.0234ZM45.9104 70.1255C45.4899 69.5369 44.8173 68.9483 44.1446 68.3597C44.3128 68.1916 44.4809 68.0234 44.6491 67.8552C46.4149 68.3597 48.0965 68.6961 49.6101 68.9483C49.4419 69.0324 49.1896 69.1165 49.0215 69.2006C48.8533 69.2847 48.7692 69.2847 48.6011 69.3688C48.4329 69.4528 48.1806 69.5369 47.9284 69.621C47.7602 69.7051 47.592 69.7051 47.4239 69.7892C47.1716 69.8733 47.0035 69.9573 46.7512 69.9573C46.499 70.0414 46.2467 70.1255 46.0785 70.1255H45.9104ZM27.2437 69.8733C26.0665 69.621 25.0575 69.1165 24.1326 68.4438C24.3008 68.5279 24.4689 68.612 24.7212 68.7802C24.8893 68.8642 25.1416 68.9483 25.3098 69.0324C25.4779 69.1165 25.7302 69.2006 25.9824 69.3688C26.1506 69.4528 26.4029 69.5369 26.571 69.621C26.7392 69.7051 26.9914 69.7892 27.2437 69.8733ZM41.3698 70.9664C42.2107 70.2937 42.9674 69.5369 43.8083 68.6961C44.3969 69.2006 44.9854 69.7051 45.4059 70.2096C45.2377 70.2096 45.1536 70.2937 44.9854 70.2937C44.8173 70.3778 44.565 70.3778 44.3969 70.4618C44.1446 70.5459 43.9764 70.5459 43.7242 70.63C43.4719 70.7141 43.2197 70.7141 42.9674 70.7982C42.7993 70.7982 42.6311 70.8823 42.4629 70.8823C42.2107 70.8823 41.9584 70.9664 41.7062 70.9664C41.6221 70.9664 41.4539 70.9664 41.3698 70.9664ZM46.8353 72.9003C47.0035 72.3958 46.9194 71.639 46.2467 70.63L46.499 70.5459L46.7512 70.4618C46.9194 70.3778 47.0875 70.3778 47.2557 70.2937L47.4239 70.2096C47.508 70.2096 47.6761 70.1255 47.7602 70.1255C47.9284 70.0414 48.0965 70.0414 48.2647 69.9573C48.4329 69.8733 48.6011 69.8733 48.7692 69.7892L48.9374 69.7051C49.0215 69.621 49.1896 69.621 49.2737 69.5369C49.4419 69.4528 49.6941 69.3688 49.8623 69.2847L50.1146 69.2006L50.2827 69.1165L50.4509 69.0324C51.9644 69.2847 53.3938 69.4528 54.6551 69.4528C53.0575 70.63 51.2917 71.639 49.4419 72.3117C48.6851 72.5639 47.7602 72.7321 46.8353 72.9003ZM52.4689 71.639C53.562 71.0504 54.6551 70.2937 55.6641 69.5369C56.4209 69.5369 57.1776 69.4528 57.8503 69.3688C56.8413 69.8733 55.7482 70.3778 54.6551 70.7982C53.8984 71.2186 53.2257 71.4709 52.4689 71.639ZM28.4209 70.8823C28.1686 70.7982 28.0005 70.7141 27.9164 70.63L27.6641 70.5459C27.9164 70.63 28.1686 70.63 28.4209 70.63V70.8823ZM29.0095 71.1345C29.0095 71.0504 29.0095 70.8823 29.0095 70.7141H29.1776L29.4299 70.7982C29.1776 70.9664 29.0935 71.0504 29.0095 71.1345ZM43.3038 73.0685C41.7062 73.0685 40.1086 72.9844 38.595 72.7321C39.2677 72.4799 39.8563 72.0594 40.529 71.639C40.8653 71.639 41.1176 71.5549 41.4539 71.5549H41.538C41.6221 71.5549 41.7902 71.5549 41.8743 71.4709C42.0425 71.4709 42.2947 71.3868 42.4629 71.3868H42.7152L43.0515 71.3027C43.2197 71.3027 43.3878 71.2186 43.556 71.2186C43.7242 71.2186 43.8083 71.1345 43.9764 71.1345C44.1446 71.1345 44.3128 71.0504 44.565 71.0504C44.7332 71.0504 44.9014 70.9664 45.0695 70.9664L45.2377 70.8823C45.4059 70.8823 45.4899 70.7982 45.6581 70.7982C46.1626 71.4709 46.583 72.3958 46.2467 72.9844C45.2377 72.9844 44.3128 73.0685 43.3038 73.0685ZM31.0275 71.9754C30.8593 71.8913 30.7752 71.8913 30.6071 71.8072C30.3548 71.7231 30.0185 71.5549 29.7662 71.4709L29.5981 71.3868C29.6821 71.3027 29.8503 71.2186 29.9344 71.0504C30.0185 71.1345 30.1866 71.1345 30.2707 71.2186L30.4389 71.3868L30.6071 71.5549L30.7752 71.7231L30.9434 71.8913L31.0275 71.9754ZM37.502 72.5639C35.9884 72.3117 34.4749 71.8913 33.0455 71.3868H33.2977C33.3818 71.3868 33.55 71.3868 33.7182 71.4709H33.8023C33.8863 71.4709 33.9704 71.4709 34.1386 71.4709H34.3908C34.4749 71.4709 34.6431 71.4709 34.7272 71.4709H34.8953C34.9794 71.4709 35.1476 71.4709 35.2317 71.4709H35.9044C36.0725 71.4709 36.1566 71.4709 36.3248 71.4709H36.9134C37.0815 71.4709 37.1656 71.4709 37.3338 71.4709H37.9224C38.1746 71.4709 38.3428 71.4709 38.595 71.4709C38.6791 71.4709 38.8473 71.4709 38.9314 71.4709H39.2677C38.7632 72.0594 38.0905 72.3117 37.502 72.5639ZM33.9704 72.9003H33.8023L33.6341 72.8162C33.4659 72.8162 33.3818 72.7321 33.2137 72.7321L32.9614 72.648C32.8773 72.5639 32.7092 72.5639 32.6251 72.4799L32.3728 72.3958C32.2887 72.3117 32.1206 72.2276 32.0365 72.1435L31.7842 71.9754L31.6161 71.8913C32.3728 72.1435 33.2137 72.5639 33.9704 72.9003ZM42.9674 73.8252C41.7902 73.8252 40.1926 73.657 38.2587 73.1525C39.9404 73.4048 41.6221 73.573 43.3038 73.573C43.9764 73.573 44.7332 73.573 45.4059 73.4889C45.3218 73.573 45.1536 73.573 44.9854 73.573C44.3128 73.7411 43.6401 73.8252 42.9674 73.8252Z" fill="#EDEFF1"/>
<path d="M70.8831 45.6572C70.8831 45.405 70.9672 42.8824 69.4537 43.2188C63.3996 32.7083 61.802 29.8494 52.2164 20.0957C52.9732 17.1527 47.9281 14.3779 47.0873 14.7143C46.2465 15.0506 46.1624 16.2278 46.835 17.9095C44.5648 18.7503 41.6218 19.7593 36.0723 20.9365C35.7359 18.1617 33.4657 19.423 32.2885 20.8524C31.3636 22.0296 31.3636 22.9545 31.3636 23.2909C23.8801 29.1767 23.8801 29.1767 23.7119 29.3449C22.5347 28.0836 21.0212 29.5131 20.3486 30.9425C14.7149 31.6152 12.5287 31.5311 11.772 31.447L11.3516 32.7924V32.8764C12.1924 32.9605 14.5468 33.0446 20.0963 32.3719C20.0963 32.6242 20.2645 32.9605 20.1804 33.1287C18.4146 38.7623 15.0513 43.8074 14.5468 49.8614C14.0423 55.8314 15.5558 60.5401 19.1714 64.2398L19.3396 64.408L20.3486 65.417C13.4537 58.2698 13.6218 47.6752 21.0212 34.1377C21.6098 34.2218 22.6188 34.3059 23.6278 32.3719C27.4116 31.9515 31.1954 31.9515 34.9792 31.6152C35.4837 36.2398 39.5197 38.5101 43.7239 36.408C48.5167 43.2188 53.814 49.6933 58.4387 56.6722C58.1864 57.0086 58.1023 57.0927 57.9341 57.5131C54.6549 57.8494 50.787 58.1017 42.7149 57.5131C42.0423 52.7203 36.4086 52.0476 34.2224 54.6542C31.784 57.5972 34.5588 62.0536 38.6789 61.8855C39.6879 61.8014 41.6218 61.3809 42.5468 59.1948C47.5918 59.1107 52.5528 59.3629 57.5978 59.0266C57.9341 61.7173 60.5408 60.7924 61.802 59.3629C63.3996 57.429 62.8951 55.0746 60.8771 55.3269C60.4567 55.411 60.1203 55.5791 59.784 55.7473C54.9912 48.6002 49.6098 42.2098 44.817 35.483C45.2375 35.0626 45.3215 34.8945 45.6579 34.39C52.9732 38.5101 60.8771 41.6212 68.1083 45.9936C67.9402 48.9365 69.2014 49.3569 69.9582 48.5161C70.4627 47.9275 70.8831 46.8344 70.8831 45.6572ZM23.0393 31.8674C22.9552 32.1197 22.787 32.2879 22.7029 32.5401C21.778 33.6332 20.8531 33.3809 20.6849 32.3719C20.5167 30.9425 22.0302 29.2608 22.8711 29.9335C23.2915 30.2698 23.2915 31.0266 23.0393 31.8674ZM36.2405 26.9065C35.2314 28.3359 34.9792 29.6812 34.8951 30.2698C32.1203 30.5221 28.6729 30.7743 23.8801 30.7743C23.8801 30.6062 23.8801 30.6062 23.8801 30.438C26.4026 28.3359 29.0092 26.3179 31.5317 24.2158C31.784 24.5521 32.6248 25.3089 34.3065 24.2158C34.8951 25.1407 35.6519 26.1497 36.2405 26.9065ZM35.1474 22.2818C34.9792 22.6182 34.8951 22.8704 34.7269 23.0386C33.4657 24.6362 31.9522 24.1317 31.8681 22.9545C31.6999 21.2728 33.8861 19.3389 34.8951 20.1797C35.3996 20.5161 35.4837 21.441 35.1474 22.2818ZM44.0603 25.477C40.781 22.7864 38.0903 25.0566 37.2495 25.8134C36.6609 25.0566 35.9041 24.0476 35.3155 23.2909C35.5678 22.8704 35.7359 22.5341 35.9041 22.1137C39.2675 21.3569 43.2194 20.5161 47.4236 18.9185C47.5918 19.1707 47.76 19.3389 47.9281 19.5912C46.6669 21.9455 46.2465 22.6182 44.0603 25.477ZM45.2375 30.7743C45.2375 31.6993 45.0693 32.2038 44.817 32.7924C42.7149 37.0806 37.5017 36.408 36.2405 32.7083C34.8951 28.9245 38.5107 23.8794 42.2945 25.6452C44.0603 26.4861 45.3215 28.5882 45.2375 30.7743ZM68.5287 44.396C61.2975 40.1918 53.5618 37.0806 46.2465 32.9605C46.835 30.438 46.4987 28.5882 44.9011 26.402C47.0032 23.6272 47.5077 22.8704 48.769 20.3479C49.8621 21.0206 50.787 21.1047 51.6278 20.6842C60.8771 30.6903 65.6699 37.3329 68.5287 44.396ZM50.9552 17.5731C51.2074 17.9936 51.2915 18.2458 51.3756 18.4981C51.7119 20.1797 50.1143 20.3479 48.8531 19.5071C47.0873 18.3299 46.4987 15.6392 47.5918 15.3869C48.4326 15.2188 50.1143 16.3119 50.9552 17.5731ZM41.3696 58.0176C41.2855 58.6062 41.1173 58.8584 40.9492 59.1948C39.0993 61.9695 34.811 60.6242 34.3065 57.7653C33.802 54.9906 37.1654 53.2248 39.6879 54.9065C40.781 55.5791 41.4537 56.8404 41.3696 58.0176ZM61.7179 57.7653C61.6338 58.1017 61.5498 58.2698 61.3816 58.5221C60.2044 60.2038 58.5227 60.2038 58.3546 58.8584C58.1023 57.2608 60.3726 55.411 61.4657 56.3359C61.7179 56.5882 61.8861 57.1767 61.7179 57.7653ZM70.4627 45.8254C70.4627 46.1617 70.3786 46.3299 70.3786 46.5821C70.0423 47.9275 69.2855 48.2638 68.9492 47.6752C68.2765 46.6662 68.9492 44.0596 69.8741 44.2278C70.2104 44.2278 70.5468 44.9005 70.4627 45.8254Z" fill="#EDEFF1"/>
<path d="M41.958 77.1051C22.6186 77.1051 6.8949 61.3814 6.8949 42.042C6.8949 22.7027 22.6186 6.97898 41.958 6.97898C61.2973 6.97898 77.021 22.7027 77.021 42.042C77.021 61.3814 61.3814 77.1051 41.958 77.1051ZM41.958 0C18.8348 0 0 18.8348 0 42.042C0 65.2492 18.8348 84 41.958 84C65.1652 84 83.9159 65.1652 83.9159 42.042C84 18.8348 65.1652 0 41.958 0Z" fill="#EDEFF1"/>
<path d="M125.538 18.4141H131.76L136.973 46.5822H137.057L141.261 18.4141H148.408L140.589 62.6423H134.282L128.733 33.381H128.565L123.435 62.6423H117.045L108.721 18.4141H115.784L120.492 46.5822H120.577L125.538 18.4141Z" fill="#EDEFF1"/>
<path d="M165.477 33.1286V29.6812C165.477 25.9815 163.795 24.3839 161.777 24.3839C158.75 24.3839 157.741 25.9815 157.741 29.2607V51.7112C157.741 54.9905 158.75 56.5881 161.777 56.5881C164.552 56.5881 165.477 54.9905 165.477 52.1316V46.8343H173.045V51.9634C173.045 58.1857 169.345 63.3148 161.777 63.3148C153.789 63.3148 150.174 58.2697 150.174 51.9634V29.0926C150.174 22.8703 153.874 17.7412 161.777 17.7412C169.345 17.7412 173.045 23.2908 173.045 29.8493V33.1286H165.477Z" fill="#EDEFF1"/>
<path d="M193.057 33.1286V29.6812C193.057 25.9815 191.376 24.3839 189.358 24.3839C186.33 24.3839 185.321 25.9815 185.321 29.2607V51.7112C185.321 54.9905 186.33 56.5881 189.358 56.5881C192.132 56.5881 193.057 54.9905 193.057 52.1316V46.8343H200.625V51.9634C200.625 58.1857 196.925 63.3148 189.358 63.3148C181.37 63.3148 177.754 58.2697 177.754 51.9634V29.0926C177.754 22.8703 181.454 17.7412 189.358 17.7412C196.925 17.7412 200.625 23.2908 200.625 29.8493V33.1286H193.057Z" fill="#EDEFF1"/>
<path d="M212.902 56.4201H215.508C219.544 56.4201 220.974 54.9066 220.974 50.1978V30.8585C220.974 26.2339 219.544 24.6363 215.508 24.6363H212.902V56.4201ZM205.334 18.4141H216.601C224.421 18.4141 228.625 22.7024 228.625 31.7834V49.2729C228.625 58.354 224.421 62.6423 216.601 62.6423H205.334V18.4141Z" fill="#EDEFF1"/>
</svg>
