<svg width="196" height="64" viewBox="0 0 196 64" fill="none" xmlns="http://www.w3.org/2000/svg">
<path d="M78.4765 12.1508L88.3188 1.48633H94.9194L83.4094 13.842L95.4597 26.4326H88.7416L78.4765 15.6977V26.4326H73.2617V1.48633H78.4765V12.1508Z" fill="#EDEFF1"/>
<path d="M102.014 26.4329H96.3057L111.151 0.5L125.997 26.4329H120.218L117.541 21.6409H104.715L102.014 26.4329ZM107.017 17.5537H115.192L111.081 10.2718L106.994 17.5537H107.017Z" fill="#EDEFF1"/>
<path d="M135.299 6.91289C134.078 7.66457 133.114 8.65114 132.41 9.89611C131.705 11.1411 131.329 12.5035 131.329 13.9364C131.329 15.3693 131.682 16.7317 132.41 17.9766C133.114 19.2216 134.078 20.2317 135.299 20.9599C136.52 21.7115 137.836 22.0639 139.292 22.0639C141.806 22.0639 144.178 21.1948 146.386 19.4565V25.0941C144.554 26.3156 142.182 26.9498 139.292 26.9498C136.403 26.9498 134.665 26.3626 132.645 25.1881C130.601 24.0136 129.004 22.4397 127.829 20.4431C126.655 18.4699 126.044 16.2854 126.044 13.9129C126.044 11.5404 126.631 9.37933 127.829 7.38269C129.004 5.40953 130.624 3.81222 132.645 2.63772C134.688 1.46322 136.896 0.875977 139.292 0.875977C141.688 0.875977 144.484 1.55718 146.504 2.89611L146.41 8.34578C144.155 6.60752 141.782 5.73839 139.292 5.73839C136.802 5.73839 136.52 6.11423 135.299 6.84242V6.91289Z" fill="#EDEFF1"/>
<path d="M157.144 6.32554C156.439 6.8658 156.11 7.5705 156.11 8.41614C156.11 9.26178 156.345 9.52017 156.791 9.87251C157.261 10.2484 157.825 10.5302 158.53 10.7416C159.234 10.9531 160.221 11.1645 161.489 11.3994C163.416 11.7752 165.013 12.1745 166.281 12.5973C167.526 13.0202 168.607 13.7718 169.523 14.8054C170.439 15.8624 170.885 17.2953 170.885 19.1276C170.885 20.9598 169.922 23.6376 168.02 24.9531C166.117 26.292 163.557 26.9497 160.385 26.9497C157.214 26.9497 156.04 26.5974 154.231 25.8927C152.422 25.188 151.013 24.3658 150.026 23.4027L152.305 19.245C153.362 20.1376 154.607 20.8893 156.016 21.4531C157.426 22.0403 158.906 22.3222 160.432 22.3222C161.959 22.3222 163.416 22.0403 164.214 21.4765C165.013 20.9128 165.412 20.1611 165.412 19.2215C165.412 18.2819 165.177 18.1175 164.731 17.7651C164.261 17.3893 163.698 17.1074 163.016 16.896C162.335 16.6846 161.349 16.4497 160.057 16.2148C158.13 15.839 156.557 15.4396 155.335 14.9933C154.114 14.547 153.033 13.8188 152.14 12.7853C151.248 11.7517 150.802 10.3423 150.802 8.55708C150.802 6.77185 151.201 5.64433 152 4.46983C152.798 3.31882 153.926 2.42621 155.382 1.83896C156.838 1.22822 158.506 0.922852 160.409 0.922852C162.312 0.922852 164.308 1.29869 165.929 2.02688C167.55 2.77856 168.912 3.64768 169.969 4.63426L167.761 8.60406C165.271 6.53694 162.805 5.50339 160.362 5.50339C157.919 5.50339 157.825 5.76178 157.12 6.30204L157.144 6.32554Z" fill="#EDEFF1"/>
<path d="M187.117 26.4326H181.903V6.16083H173.869V1.48633H195.151V6.16083H187.117V26.4326Z" fill="#EDEFF1"/>
<path d="M74.6711 47.1509C75.0234 47.0334 75.3053 46.869 75.5637 46.6576C75.7986 46.4697 76.01 46.2113 76.1509 45.9294C76.2919 45.6475 76.4093 45.3187 76.4798 44.9193H87.2382V39.9395H85.6409V43.5804H76.5737V39.9395H74.9764V44.1207C74.9764 44.4025 74.9764 44.6609 74.906 44.8723C74.859 45.0837 74.7885 45.2717 74.6711 45.4361C74.5536 45.6005 74.3892 45.718 74.1543 45.8354C73.9194 45.9529 73.6375 46.0233 73.2852 46.0938L73.4966 47.4327C73.9429 47.3623 74.3422 47.2683 74.6946 47.1509H74.6711Z" fill="#EDEFF1"/>
<path d="M75.1646 38.2012C75.2351 38.2716 75.329 38.3186 75.423 38.3656C75.5169 38.4126 75.6109 38.4361 75.7283 38.4361C75.8458 38.4361 75.9398 38.4361 76.0337 38.3656C76.1277 38.3186 76.2216 38.2716 76.2921 38.2012C76.3626 38.1307 76.4096 38.0368 76.4565 37.9663C76.5035 37.8958 76.527 37.7784 76.527 37.6609C76.527 37.5435 76.527 37.4495 76.4565 37.3555C76.4096 37.2616 76.3626 37.1911 76.2921 37.1206C76.2216 37.0502 76.1277 37.0032 76.0337 36.9562C75.9398 36.9092 75.8458 36.8857 75.7283 36.8857C75.6109 36.8857 75.5169 36.8857 75.423 36.9562C75.329 37.0267 75.2351 37.0502 75.1646 37.1206C75.0941 37.1911 75.0471 37.2851 75.0002 37.3555C74.9532 37.4495 74.9297 37.5435 74.9297 37.6609C74.9297 37.7784 74.9297 37.8723 75.0002 37.9663C75.0471 38.0602 75.0941 38.1307 75.1646 38.2012Z" fill="#EDEFF1"/>
<path d="M85.5708 45.9523C85.4769 45.9053 85.3829 45.8818 85.2655 45.8818C85.148 45.8818 85.054 45.8818 84.9601 45.9523C84.8661 45.9993 84.7722 46.0463 84.7017 46.1167C84.6312 46.1872 84.5843 46.2812 84.5373 46.3516C84.4903 46.4456 84.4668 46.5396 84.4668 46.657C84.4668 46.7745 84.4668 46.8684 84.5373 46.9624C84.5843 47.0563 84.6312 47.1268 84.7017 47.1973C84.7722 47.2677 84.8661 47.3147 84.9601 47.3617C85.054 47.4087 85.148 47.4322 85.2655 47.4322C85.3829 47.4322 85.4769 47.4322 85.5708 47.3617C85.6648 47.2912 85.7587 47.2677 85.8292 47.1973C85.8997 47.1268 85.9467 47.0328 85.9936 46.9624C86.0406 46.8684 86.0641 46.7745 86.0641 46.657C86.0641 46.5396 86.0641 46.4456 85.9936 46.3516C85.9467 46.2577 85.8997 46.1872 85.8292 46.1167C85.7587 46.0463 85.6648 45.9993 85.5708 45.9523Z" fill="#EDEFF1"/>
<path d="M86.7921 45.9523C86.6982 45.9993 86.6042 46.0463 86.5337 46.1167C86.4633 46.1872 86.4163 46.2812 86.3693 46.3516C86.3223 46.4456 86.2988 46.5396 86.2988 46.657C86.2988 46.7745 86.2988 46.8684 86.3693 46.9624C86.4163 47.0563 86.4633 47.1268 86.5337 47.1973C86.6042 47.2677 86.6982 47.3147 86.7921 47.3617C86.8861 47.4087 86.98 47.4322 87.0975 47.4322C87.2149 47.4322 87.3089 47.4322 87.4029 47.3617C87.4968 47.3147 87.5908 47.2677 87.6612 47.1973C87.7317 47.1268 87.7787 47.0328 87.8257 46.9624C87.8727 46.8684 87.8961 46.7745 87.8961 46.657C87.8961 46.5396 87.8961 46.4456 87.8257 46.3516C87.7787 46.2577 87.7317 46.1872 87.6612 46.1167C87.5908 46.0463 87.4968 45.9993 87.4029 45.9523C87.3089 45.9053 87.2149 45.8818 87.0975 45.8818C86.98 45.8818 86.8861 45.8818 86.7921 45.9523Z" fill="#EDEFF1"/>
<path d="M89.3995 47.1504C89.7518 47.033 90.0337 46.8685 90.2921 46.6571C90.527 46.4692 90.7384 46.2108 90.8793 45.9289C91.0203 45.6471 91.1377 45.3182 91.2082 44.9189H93.2988C93.5807 44.9189 93.8391 44.9189 94.0975 44.8719C94.3558 44.8249 94.5907 44.7779 94.8256 44.7309C95.0605 44.6605 95.272 44.59 95.4834 44.5195C95.6948 44.4491 95.8827 44.3551 96.0471 44.2846C96.1646 44.3551 96.329 44.4256 96.5169 44.496C96.7048 44.5665 96.9162 44.637 97.1511 44.7075C97.386 44.7779 97.6444 44.8249 97.9263 44.8719C98.2082 44.9189 98.4901 44.9424 98.7954 44.9424H102.765V36.2041H101.168V43.6034H99.1243C98.9599 43.6034 98.8189 43.6034 98.6545 43.6034C98.4901 43.6034 98.3256 43.5799 98.1847 43.5564C98.0438 43.5564 97.9028 43.5095 97.7619 43.486C97.6209 43.4625 97.527 43.439 97.4095 43.392C97.6914 43.1101 97.9263 42.8283 98.1142 42.5934C98.3022 42.335 98.4431 42.1236 98.5371 41.9122C98.631 41.7007 98.7015 41.5128 98.7485 41.3484C98.7954 41.184 98.7954 41.043 98.7954 40.9256C98.7954 40.6907 98.725 40.5028 98.584 40.3383C98.4431 40.1739 98.2787 40.033 98.0673 39.939C97.8559 39.845 97.621 39.7511 97.3626 39.7041C97.1042 39.6571 96.8458 39.6336 96.6109 39.6336C96.376 39.6336 96.0001 39.6336 95.7183 39.7041C95.4364 39.7511 95.178 39.7981 94.9431 39.8685C94.7082 39.939 94.4968 40.0095 94.2854 40.0799C94.0975 40.1504 93.933 40.2444 93.7921 40.2913C93.7216 40.3383 93.6746 40.3853 93.6042 40.4793C93.5337 40.5732 93.4867 40.6672 93.4397 40.7846C93.3928 40.9021 93.3458 41.0195 93.2988 41.137C93.2518 41.2544 93.2283 41.3484 93.2048 41.4424C93.2283 41.4893 93.2988 41.5363 93.3693 41.6303C93.4397 41.7242 93.5337 41.8417 93.6511 41.9826C93.7216 42.0766 93.8156 42.194 93.9095 42.3115C94.0035 42.4289 94.1209 42.5699 94.2149 42.6873C94.3324 42.8283 94.4498 42.9457 94.5673 43.0632C94.6847 43.1806 94.8022 43.2981 94.9196 43.4155C94.7787 43.4625 94.5673 43.5095 94.3089 43.5564C94.0505 43.6034 93.7451 43.6269 93.4162 43.6269H91.3491V39.986H89.7518V44.1672C89.7518 44.4491 89.7518 44.7075 89.6814 44.9189C89.6344 45.1303 89.5639 45.3182 89.4465 45.4826C89.329 45.6471 89.1646 45.7645 88.9297 45.882C88.6948 45.9994 88.4129 46.0699 88.0605 46.1403L88.272 47.4793C88.7183 47.4088 89.1176 47.3148 89.4699 47.1974L89.3995 47.1504ZM94.8726 41.5363C94.7552 41.3719 94.6612 41.2544 94.6142 41.137C94.7317 41.09 94.8491 41.043 94.9901 40.996C95.131 40.9491 95.2485 40.9021 95.3894 40.8786C95.5303 40.8551 95.6478 40.8316 95.7887 40.8081C95.9062 40.8081 96.0236 40.7846 96.1176 40.7846C96.282 40.7846 96.423 40.7846 96.5639 40.8316C96.7048 40.8551 96.8223 40.9021 96.9162 40.9726C97.0102 41.043 97.0807 41.09 97.1511 41.184C97.1981 41.2544 97.2216 41.3484 97.2216 41.4424C97.2216 41.5363 97.2216 41.6068 97.1746 41.7242C97.1277 41.8417 97.0807 41.9591 96.9867 42.0766C96.8928 42.194 96.7988 42.335 96.6579 42.4759C96.5169 42.6169 96.3525 42.7578 96.1411 42.8987C96.0001 42.8048 95.8592 42.6638 95.7183 42.5229C95.5773 42.3585 95.4129 42.2175 95.2954 42.0531C95.1545 41.8887 95.0371 41.7242 94.9196 41.5833L94.8726 41.5363Z" fill="#EDEFF1"/>
<path d="M89.9165 38.2012C89.987 38.2716 90.081 38.3186 90.1749 38.3656C90.2689 38.4126 90.3628 38.4361 90.4803 38.4361C90.5977 38.4361 90.6917 38.4361 90.7857 38.3656C90.8796 38.3186 90.9736 38.2716 91.0441 38.2012C91.1145 38.1307 91.1615 38.0368 91.2085 37.9663C91.2555 37.8958 91.279 37.7784 91.279 37.6609C91.279 37.5435 91.279 37.4495 91.2085 37.3555C91.1615 37.2616 91.1145 37.1911 91.0441 37.1206C90.9736 37.0502 90.8796 37.0032 90.7857 36.9562C90.6917 36.9092 90.5977 36.8857 90.4803 36.8857C90.3628 36.8857 90.2689 36.8857 90.1749 36.9562C90.081 37.0267 89.987 37.0502 89.9165 37.1206C89.8461 37.1911 89.7991 37.2851 89.7521 37.3555C89.7051 37.4495 89.6816 37.5435 89.6816 37.6609C89.6816 37.7784 89.6816 37.8723 89.7521 37.9663C89.7991 38.0602 89.8461 38.1307 89.9165 38.2012Z" fill="#EDEFF1"/>
<path d="M105.913 36.2041H104.315V44.9424H105.913V36.2041Z" fill="#EDEFF1"/>
<path d="M110.564 44.7541C110.916 44.6366 111.198 44.4957 111.409 44.2843C111.644 44.4722 111.903 44.6366 112.232 44.7541C112.513 44.8715 112.889 44.9185 113.289 44.9185C113.336 44.9185 113.359 44.9185 113.406 44.9185H114.675C114.98 44.9185 115.238 44.8715 115.45 44.7775C115.661 44.6836 115.849 44.5661 115.99 44.4017C116.201 44.5426 116.46 44.6836 116.765 44.7541C117.07 44.8245 117.399 44.895 117.822 44.895H123.624V43.5561H121.886C121.675 43.5561 121.487 43.5091 121.322 43.4386C121.158 43.3681 120.993 43.2742 120.876 43.1333C120.758 43.0158 120.664 42.8514 120.594 42.6869C120.524 42.5225 120.5 42.3346 120.5 42.1232C120.5 41.9118 120.547 41.7004 120.617 41.5594C120.688 41.4185 120.782 41.301 120.899 41.2071C121.017 41.1131 121.134 41.0661 121.275 41.0192C121.416 40.9722 121.557 40.9722 121.675 40.9722C121.792 40.9722 121.909 40.9722 122.05 40.9957C122.168 40.9957 122.309 41.0427 122.426 41.0661C122.544 41.0896 122.661 41.1131 122.755 41.1366C122.849 41.1601 122.943 41.1836 123.013 41.2071L123.178 39.8212C123.107 39.7977 122.99 39.7507 122.873 39.7272C122.755 39.7037 122.614 39.6802 122.473 39.6567C122.332 39.6567 122.191 39.6333 122.074 39.6098C121.933 39.6098 121.839 39.6098 121.745 39.6098C121.346 39.6098 120.97 39.6802 120.641 39.8212C120.312 39.9621 120.03 40.15 119.772 40.4084C119.537 40.6433 119.349 40.9252 119.208 41.2541C119.067 41.5829 118.997 41.9118 118.997 42.2876C118.997 42.6635 118.997 42.4755 118.997 42.5695C118.997 42.6635 119.02 42.7809 119.044 42.8984C119.067 43.0158 119.091 43.1333 119.138 43.2272C119.161 43.3447 119.208 43.4386 119.232 43.5326H117.869C117.611 43.5326 117.376 43.5326 117.141 43.4621C116.906 43.4151 116.695 43.3682 116.483 43.2742C116.483 43.2037 116.483 43.1333 116.483 43.0628C116.483 42.9923 116.483 42.9218 116.483 42.8514V39.8682H114.886V42.64C114.886 42.8044 114.886 42.9453 114.839 43.0628C114.815 43.1802 114.768 43.2742 114.698 43.3447C114.628 43.4151 114.557 43.4621 114.463 43.4856C114.369 43.5091 114.252 43.5326 114.111 43.5326H113.406C113.148 43.5326 112.889 43.5326 112.631 43.4621C112.396 43.4151 112.161 43.3447 111.95 43.2507C111.997 43.0628 112.02 42.8749 112.02 42.6635C112.02 42.0997 111.809 41.5124 111.386 40.9017C110.963 40.291 110.352 39.6567 109.554 38.999L108.403 40.1265C108.661 40.3145 108.896 40.5494 109.154 40.7608C109.389 40.9957 109.624 41.2306 109.812 41.442C110 41.6534 110.164 41.9118 110.282 42.1232C110.399 42.3581 110.47 42.5695 110.47 42.7574C110.47 42.9453 110.47 42.9688 110.423 43.0628C110.399 43.1567 110.329 43.2272 110.258 43.2977C110.188 43.3682 110.047 43.4151 109.906 43.4621C109.742 43.5091 109.554 43.5091 109.295 43.5091H106.923V44.848H109.248C109.742 44.848 110.164 44.801 110.517 44.6836L110.564 44.7541Z" fill="#EDEFF1"/>
<path d="M115.684 47.4322C115.802 47.4322 115.896 47.4322 115.99 47.3617C116.084 47.3147 116.178 47.2677 116.248 47.1973C116.319 47.1268 116.366 47.0328 116.413 46.9624C116.46 46.8919 116.483 46.7745 116.483 46.657C116.483 46.5396 116.483 46.4456 116.413 46.3516C116.342 46.2577 116.319 46.1872 116.248 46.1167C116.178 46.0463 116.084 45.9993 115.99 45.9523C115.896 45.9053 115.802 45.8818 115.684 45.8818C115.567 45.8818 115.473 45.8818 115.379 45.9523C115.285 46.0228 115.191 46.0463 115.121 46.1167C115.05 46.1872 115.003 46.2812 114.956 46.3516C114.909 46.4221 114.886 46.5396 114.886 46.657C114.886 46.7745 114.886 46.8684 114.956 46.9624C115.027 47.0563 115.05 47.1268 115.121 47.1973C115.191 47.2677 115.285 47.3147 115.379 47.3617C115.473 47.4087 115.567 47.4322 115.684 47.4322Z" fill="#EDEFF1"/>
<path d="M133.02 40.8552H132.597C132.48 40.8552 132.386 40.8552 132.292 40.8083C132.198 40.7848 132.127 40.7378 132.08 40.6908C132.033 40.6438 131.986 40.5734 131.963 40.5264C131.939 40.4794 131.916 40.4089 131.916 40.3385C131.916 40.221 131.963 40.127 132.033 40.0566C132.104 40.0096 132.221 39.9626 132.362 39.9626C132.503 39.9626 132.527 39.9626 132.621 39.9626C132.715 39.9626 132.809 39.9861 132.902 40.0096L133.02 39.2579C132.832 39.2344 132.691 39.2109 132.574 39.2109C132.456 39.2109 132.362 39.2109 132.268 39.2109C132.033 39.2109 131.845 39.2344 131.681 39.2814C131.517 39.3284 131.376 39.3989 131.282 39.4928C131.164 39.5868 131.094 39.6807 131.047 39.7982C131 39.9156 130.976 40.0331 130.976 40.174C130.976 40.315 130.976 40.4089 131.047 40.5264C131.094 40.6438 131.141 40.7613 131.211 40.8317H130.647V41.5599H133.067V40.8317L133.02 40.8552Z" fill="#EDEFF1"/>
<path d="M149.745 44.2142C149.863 44.3082 149.98 44.4256 150.121 44.4961C150.262 44.5901 150.403 44.6605 150.591 44.731C150.755 44.8015 150.943 44.8484 151.155 44.8719C151.319 44.8954 151.507 44.9189 151.718 44.9189H154.936V36.1807H153.339V43.58H151.883C151.577 43.58 151.295 43.5565 151.037 43.5095C150.779 43.4625 150.52 43.3686 150.309 43.2511C150.332 43.1337 150.356 43.0162 150.379 42.8988C150.379 42.7813 150.403 42.6639 150.403 42.5464C150.403 42.3585 150.379 42.1471 150.332 41.9357C150.285 41.7243 150.215 41.5129 150.121 41.325C150.027 41.1135 149.91 40.9256 149.769 40.7612C149.628 40.5733 149.44 40.4323 149.252 40.2914C149.064 40.1505 148.829 40.0565 148.571 39.9625C148.312 39.8686 148.054 39.8451 147.748 39.8451C147.443 39.8451 147.302 39.8921 147.02 39.9625C146.738 40.033 146.48 40.174 146.222 40.4089C145.94 40.6203 145.681 40.9491 145.423 41.3484C145.165 41.7478 144.93 42.2881 144.742 42.9458C144.671 43.1572 144.554 43.3216 144.413 43.4391C144.272 43.533 144.084 43.6035 143.873 43.6035H142.651C142.393 43.6035 142.158 43.6035 141.923 43.533C141.688 43.486 141.477 43.4391 141.265 43.3451C141.265 43.2746 141.265 43.2042 141.265 43.1337C141.265 43.0632 141.265 42.9927 141.265 42.9223V36.1807H139.668V42.7109C139.668 42.8753 139.668 43.0162 139.621 43.1337C139.597 43.2511 139.55 43.3451 139.48 43.4156C139.41 43.486 139.339 43.533 139.245 43.5565C139.151 43.58 139.034 43.6035 138.893 43.6035H138.188C137.93 43.6035 137.695 43.6035 137.46 43.533C137.225 43.486 137.014 43.4391 136.802 43.3451C136.802 43.2746 136.802 43.2042 136.802 43.1337C136.802 43.0632 136.802 42.9927 136.802 42.9223V36.1807H135.205V42.7109C135.205 42.8753 135.205 43.0162 135.158 43.1337C135.134 43.2511 135.087 43.3451 135.017 43.4156C134.946 43.486 134.876 43.533 134.782 43.5565C134.688 43.58 134.571 43.6035 134.43 43.6035H130.507C129.99 43.6035 129.567 43.6035 129.238 43.533C128.91 43.486 128.675 43.4156 128.487 43.2981C128.299 43.1807 128.181 43.0632 128.111 42.8988C128.04 42.7344 128.017 42.5229 128.017 42.288C128.017 42.0531 128.017 41.9827 128.04 41.8182C128.04 41.6538 128.087 41.5129 128.111 41.3484L126.678 41.231C126.678 41.325 126.631 41.4424 126.631 41.5599C126.631 41.6773 126.608 41.7948 126.584 41.9122C126.584 42.0297 126.561 42.1471 126.561 42.2646C126.561 42.382 126.561 42.476 126.561 42.5464C126.561 42.7578 126.561 42.9693 126.608 43.1572C126.655 43.3451 126.725 43.533 126.819 43.7209C126.913 43.8854 127.054 44.0498 127.218 44.1907C127.383 44.3317 127.594 44.4491 127.852 44.5666C128.111 44.6605 128.416 44.7545 128.792 44.8015C129.144 44.8485 129.591 44.8954 130.061 44.8954H134.946C135.252 44.8954 135.51 44.8484 135.722 44.7545C135.933 44.6605 136.121 44.5431 136.262 44.3786C136.473 44.5196 136.732 44.6605 137.037 44.731C137.342 44.8015 137.671 44.8719 138.094 44.8719H139.363C139.668 44.8719 139.926 44.825 140.138 44.731C140.349 44.637 140.537 44.5196 140.678 44.3552C140.889 44.4961 141.148 44.637 141.453 44.7075C141.759 44.778 142.087 44.8484 142.51 44.8484H143.943C144.648 44.8484 145.165 44.5901 145.54 44.0968C145.658 44.1907 145.775 44.2847 145.916 44.4021C146.057 44.4961 146.222 44.5901 146.386 44.6605C146.55 44.731 146.785 44.8015 146.997 44.8484C147.232 44.8954 147.49 44.9189 147.772 44.9189C148.195 44.9189 148.547 44.8485 148.876 44.7075C149.181 44.5666 149.463 44.3786 149.675 44.1437L149.745 44.2142ZM148.782 43.0632C148.712 43.2042 148.641 43.3216 148.524 43.4156C148.406 43.5095 148.265 43.58 148.101 43.627C147.936 43.674 147.748 43.6974 147.561 43.6974C147.373 43.6974 147.279 43.6974 147.138 43.6505C146.997 43.627 146.832 43.58 146.715 43.533C146.574 43.486 146.457 43.4391 146.339 43.3686C146.222 43.2981 146.151 43.2511 146.104 43.2042C146.151 42.9458 146.222 42.6874 146.339 42.429C146.457 42.1706 146.55 41.9592 146.668 41.7713C146.809 41.5834 146.95 41.4189 147.114 41.3015C147.279 41.184 147.467 41.1135 147.655 41.1135C147.842 41.1135 148.03 41.1605 148.195 41.2545C148.359 41.3485 148.477 41.4659 148.594 41.6068C148.712 41.7478 148.782 41.9122 148.829 42.0766C148.876 42.2411 148.899 42.382 148.899 42.5464C148.899 42.7578 148.876 42.9458 148.806 43.0867L148.782 43.0632Z" fill="#EDEFF1"/>
<path d="M158.108 36.2041H156.511V44.9424H158.108V36.2041Z" fill="#EDEFF1"/>
<path d="M162.219 44.0496C162.453 44.214 162.712 44.3314 162.994 44.4019C163.276 44.4724 163.557 44.5194 163.839 44.5194C164.121 44.5194 164.38 44.4959 164.638 44.4254C164.896 44.3784 165.155 44.261 165.413 44.1435C165.46 44.261 165.531 44.3549 165.625 44.4489C165.719 44.5429 165.836 44.6368 165.977 44.7073C166.118 44.7778 166.282 44.8247 166.494 44.8717C166.705 44.9187 166.94 44.9422 167.222 44.9422H174.269C174.574 44.9422 174.833 44.8952 175.044 44.8012C175.255 44.7073 175.443 44.5898 175.584 44.4254C175.796 44.5663 176.054 44.7073 176.359 44.7778C176.665 44.8482 176.994 44.9187 177.417 44.9187H180.611V39.9388H179.014V43.5798H177.44C177.182 43.5798 176.947 43.5798 176.712 43.5093C176.477 43.4623 176.266 43.4153 176.054 43.3214C176.054 43.2509 176.054 43.1804 176.054 43.11C176.054 43.0395 176.054 42.969 176.054 42.8986V39.9153H174.457V42.6872C174.457 42.8516 174.457 42.9925 174.41 43.11C174.386 43.2274 174.339 43.3214 174.269 43.3919C174.198 43.4623 174.128 43.5093 174.034 43.5328C173.94 43.5563 173.823 43.5798 173.682 43.5798H167.457C167.339 43.5798 167.222 43.5798 167.151 43.5328C167.081 43.5093 167.01 43.4623 166.963 43.4153C166.917 43.3684 166.893 43.2744 166.87 43.1804C166.846 43.0865 166.87 42.969 166.87 42.8281V38.9053H165.272V39.5865C165.037 39.6335 164.779 39.7039 164.497 39.7979C164.215 39.8684 163.933 39.9858 163.651 40.1033C163.37 40.2207 163.088 40.3616 162.829 40.5026C162.571 40.667 162.336 40.8314 162.125 41.0429C161.913 41.2308 161.749 41.4657 161.631 41.7241C161.514 41.9825 161.443 42.2408 161.443 42.5697C161.443 42.8986 161.514 43.2274 161.655 43.4623C161.796 43.7207 161.984 43.9086 162.219 44.0731V44.0496ZM163.135 41.865C163.252 41.7006 163.393 41.5596 163.604 41.4422C163.816 41.3247 164.051 41.2073 164.333 41.1133C164.614 41.0194 164.943 40.9254 165.296 40.8549V42.9221C165.131 43.016 164.943 43.11 164.732 43.1804C164.521 43.2509 164.286 43.2744 164.051 43.2744C163.816 43.2744 163.792 43.2744 163.675 43.2274C163.557 43.2039 163.44 43.1569 163.323 43.0865C163.229 43.016 163.135 42.9221 163.088 42.8281C163.017 42.7106 162.994 42.5932 162.994 42.4288C162.994 42.2643 163.041 42.0529 163.158 41.8885L163.135 41.865Z" fill="#EDEFF1"/>
<path d="M163.581 37.8955C163.651 37.966 163.745 38.013 163.839 38.0599C163.933 38.1069 164.027 38.1304 164.144 38.1304C164.262 38.1304 164.356 38.1304 164.45 38.0599C164.544 37.9895 164.638 37.966 164.708 37.8955C164.779 37.825 164.826 37.7311 164.873 37.6606C164.92 37.5667 164.943 37.4727 164.943 37.3552C164.943 37.2378 164.943 37.1438 164.873 37.0499C164.826 36.9559 164.779 36.8854 164.708 36.815C164.638 36.7445 164.544 36.6975 164.45 36.6505C164.356 36.6036 164.262 36.5801 164.144 36.5801C164.027 36.5801 163.933 36.5801 163.839 36.6505C163.745 36.6975 163.651 36.7445 163.581 36.815C163.51 36.8854 163.463 36.9794 163.416 37.0499C163.369 37.1438 163.346 37.2378 163.346 37.3552C163.346 37.4727 163.346 37.5667 163.416 37.6606C163.463 37.7546 163.51 37.825 163.581 37.8955Z" fill="#EDEFF1"/>
<path d="M165.436 37.8955C165.507 37.966 165.6 38.013 165.694 38.0599C165.788 38.1069 165.882 38.1304 166 38.1304C166.117 38.1304 166.211 38.1304 166.305 38.0599C166.399 37.9895 166.493 37.966 166.564 37.8955C166.634 37.825 166.681 37.7311 166.728 37.6606C166.775 37.5667 166.798 37.4727 166.798 37.3552C166.798 37.2378 166.798 37.1438 166.728 37.0499C166.681 36.9559 166.634 36.8854 166.564 36.815C166.493 36.7445 166.399 36.6975 166.305 36.6505C166.211 36.6036 166.117 36.5801 166 36.5801C165.882 36.5801 165.788 36.5801 165.694 36.6505C165.6 36.6975 165.507 36.7445 165.436 36.815C165.366 36.8854 165.319 36.9794 165.272 37.0499C165.225 37.1438 165.201 37.2378 165.201 37.3552C165.201 37.4727 165.201 37.5667 165.272 37.6606C165.319 37.7546 165.366 37.825 165.436 37.8955Z" fill="#EDEFF1"/>
<path d="M174.645 38.2012C174.716 38.2716 174.809 38.3186 174.903 38.3656C174.997 38.4126 175.091 38.4361 175.209 38.4361C175.326 38.4361 175.42 38.4361 175.514 38.3656C175.608 38.2951 175.702 38.2716 175.773 38.2012C175.843 38.1307 175.89 38.0368 175.937 37.9663C175.984 37.8723 176.007 37.7784 176.007 37.6609C176.007 37.5435 176.007 37.4495 175.937 37.3555C175.89 37.2616 175.843 37.1911 175.773 37.1206C175.702 37.0502 175.608 37.0032 175.514 36.9562C175.42 36.9092 175.326 36.8857 175.209 36.8857C175.091 36.8857 174.997 36.8857 174.903 36.9562C174.809 37.0267 174.716 37.0502 174.645 37.1206C174.575 37.1911 174.528 37.2851 174.481 37.3555C174.434 37.4495 174.41 37.5435 174.41 37.6609C174.41 37.7784 174.41 37.8723 174.481 37.9663C174.528 38.0602 174.575 38.1307 174.645 38.2012Z" fill="#EDEFF1"/>
<path d="M180.141 45.9523C180.047 45.9993 179.953 46.0463 179.882 46.1167C179.812 46.1872 179.765 46.2812 179.718 46.3516C179.671 46.4456 179.647 46.5396 179.647 46.657C179.647 46.7745 179.647 46.8684 179.718 46.9624C179.765 47.0563 179.812 47.1268 179.882 47.1973C179.953 47.2677 180.047 47.3147 180.141 47.3617C180.235 47.4087 180.329 47.4322 180.446 47.4322C180.564 47.4322 180.658 47.4322 180.751 47.3617C180.845 47.2912 180.939 47.2677 181.01 47.1973C181.08 47.1268 181.127 47.0328 181.174 46.9624C181.221 46.8684 181.245 46.7745 181.245 46.657C181.245 46.5396 181.245 46.4456 181.174 46.3516C181.127 46.2577 181.08 46.1872 181.01 46.1167C180.939 46.0463 180.845 45.9993 180.751 45.9523C180.658 45.9053 180.564 45.8818 180.446 45.8818C180.329 45.8818 180.235 45.8818 180.141 45.9523Z" fill="#EDEFF1"/>
<path d="M178.919 45.9523C178.825 45.9053 178.732 45.8818 178.614 45.8818C178.497 45.8818 178.403 45.8818 178.309 45.9523C178.215 45.9993 178.121 46.0463 178.05 46.1167C177.98 46.1872 177.933 46.2812 177.886 46.3516C177.839 46.4456 177.815 46.5396 177.815 46.657C177.815 46.7745 177.815 46.8684 177.886 46.9624C177.933 47.0563 177.98 47.1268 178.05 47.1973C178.121 47.2677 178.215 47.3147 178.309 47.3617C178.403 47.4087 178.497 47.4322 178.614 47.4322C178.732 47.4322 178.825 47.4322 178.919 47.3617C179.013 47.3147 179.107 47.2677 179.178 47.1973C179.248 47.1268 179.295 47.0328 179.342 46.9624C179.389 46.8684 179.413 46.7745 179.413 46.657C179.413 46.5396 179.413 46.4456 179.342 46.3516C179.295 46.2577 179.248 46.1872 179.178 46.1167C179.107 46.0463 179.013 45.9993 178.919 45.9523Z" fill="#EDEFF1"/>
<path d="M194.869 41.9361C194.822 41.7247 194.752 41.5133 194.658 41.3253C194.564 41.1139 194.447 40.926 194.306 40.7616C194.165 40.5737 193.977 40.4327 193.789 40.2918C193.601 40.1508 193.366 40.0569 193.108 39.9629C192.849 39.869 192.591 39.8455 192.286 39.8455C191.98 39.8455 191.839 39.8925 191.557 39.9629C191.275 40.0334 191.017 40.1743 190.759 40.4092C190.477 40.6206 190.218 40.9495 189.96 41.3488C189.702 41.7482 189.467 42.2884 189.279 42.9462C189.208 43.1576 189.091 43.322 188.95 43.4394C188.809 43.5334 188.621 43.6039 188.41 43.6039H188.104C187.846 43.6039 187.588 43.6039 187.329 43.5334C187.094 43.4864 186.859 43.4159 186.648 43.322C186.695 43.1341 186.718 42.9461 186.718 42.7347C186.718 42.171 186.507 41.5837 186.084 40.973C185.661 40.3623 185.051 39.728 184.252 39.0703L183.101 40.1978C183.359 40.3857 183.594 40.6207 183.853 40.8321C184.088 41.067 184.322 41.3019 184.51 41.5133C184.698 41.7247 184.863 41.9831 184.98 42.1945C185.098 42.4294 185.168 42.6408 185.168 42.8287C185.168 43.0166 185.168 43.0401 185.121 43.1341C185.098 43.228 185.027 43.2985 184.957 43.369C184.886 43.4394 184.745 43.4864 184.604 43.5334C184.44 43.5804 184.252 43.5804 183.994 43.5804H181.621V44.9193H183.947C184.44 44.9193 184.863 44.8723 185.215 44.7549C185.567 44.6374 185.849 44.4965 186.061 44.2851C186.296 44.473 186.554 44.6374 186.883 44.7549C187.165 44.8723 187.541 44.9193 187.94 44.9193C187.987 44.9193 188.01 44.9193 188.057 44.9193H188.574C189.279 44.9193 189.796 44.6609 190.171 44.1676C190.289 44.2616 190.406 44.3556 190.547 44.473C190.688 44.567 190.853 44.6609 191.017 44.7314C191.181 44.8019 191.416 44.8723 191.628 44.9193C191.863 44.9663 192.121 44.9898 192.403 44.9898C192.685 44.9898 193.178 44.9193 193.484 44.7784C193.789 44.6374 194.071 44.473 194.282 44.2381C194.494 44.0032 194.658 43.7448 194.775 43.4629C194.893 43.181 194.94 42.8757 194.94 42.5468C194.94 42.218 194.916 42.1475 194.869 41.9361ZM193.366 43.0636C193.296 43.2045 193.225 43.322 193.108 43.416C192.99 43.5099 192.849 43.5804 192.685 43.6274C192.52 43.6743 192.332 43.6978 192.145 43.6978C191.957 43.6978 191.863 43.6978 191.722 43.6509C191.581 43.6274 191.416 43.5804 191.299 43.5334C191.158 43.4864 191.041 43.4394 190.923 43.369C190.806 43.2985 190.735 43.2515 190.688 43.2045C190.735 42.9461 190.806 42.6878 190.923 42.4294C191.041 42.171 191.135 41.9596 191.252 41.7717C191.369 41.5837 191.534 41.4193 191.698 41.3019C191.863 41.1844 192.051 41.1139 192.239 41.1139C192.426 41.1139 192.614 41.1609 192.779 41.2549C192.943 41.3488 193.061 41.4663 193.178 41.6072C193.296 41.7482 193.366 41.9126 193.413 42.077C193.46 42.2415 193.484 42.3824 193.484 42.5468C193.484 42.7582 193.46 42.9461 193.39 43.0871L193.366 43.0636Z" fill="#EDEFF1"/>
<path d="M76.48 51.5431C76.386 51.4961 76.2921 51.4727 76.1746 51.4727C76.0572 51.4727 75.9632 51.4727 75.8693 51.5431C75.7753 51.5901 75.6813 51.6371 75.6109 51.7076C75.5404 51.778 75.4934 51.872 75.4464 51.9425C75.3995 52.0364 75.376 52.1304 75.376 52.2478C75.376 52.3653 75.376 52.4592 75.4464 52.5532C75.4934 52.6472 75.5404 52.7176 75.6109 52.7881C75.6813 52.8586 75.7753 52.9055 75.8693 52.9525C75.9632 52.9995 76.0572 53.023 76.1746 53.023C76.2921 53.023 76.386 53.023 76.48 52.9525C76.574 52.882 76.6679 52.8586 76.7384 52.7881C76.8089 52.7176 76.8558 52.6237 76.9028 52.5532C76.9498 52.4592 76.9733 52.3653 76.9733 52.2478C76.9733 52.1304 76.9733 52.0364 76.9028 51.9425C76.8558 51.8485 76.8089 51.778 76.7384 51.7076C76.6679 51.6371 76.574 51.5901 76.48 51.5431Z" fill="#EDEFF1"/>
<path d="M78.312 51.5431C78.2181 51.4961 78.1241 51.4727 78.0067 51.4727C77.8892 51.4727 77.7953 51.4727 77.7013 51.5431C77.6073 51.5901 77.5134 51.6371 77.4429 51.7076C77.3724 51.778 77.3255 51.872 77.2785 51.9425C77.2315 52.0364 77.208 52.1304 77.208 52.2478C77.208 52.3653 77.208 52.4592 77.2785 52.5532C77.3255 52.6472 77.3724 52.7176 77.4429 52.7881C77.5134 52.8586 77.6073 52.9055 77.7013 52.9525C77.7953 52.9995 77.8892 53.023 78.0067 53.023C78.1241 53.023 78.2181 53.023 78.312 52.9525C78.406 52.882 78.5 52.8586 78.5704 52.7881C78.6409 52.7176 78.6879 52.6237 78.7349 52.5532C78.7818 52.4592 78.8053 52.3653 78.8053 52.2478C78.8053 52.1304 78.8053 52.0364 78.7349 51.9425C78.6879 51.8485 78.6409 51.778 78.5704 51.7076C78.5 51.6371 78.406 51.5901 78.312 51.5431Z" fill="#EDEFF1"/>
<path d="M102.694 61.0562C102.624 60.9857 102.53 60.9387 102.436 60.8918C102.342 60.8448 102.248 60.8213 102.131 60.8213C102.013 60.8213 101.919 60.8213 101.825 60.8918C101.731 60.9387 101.637 60.9857 101.567 61.0562C101.496 61.1267 101.449 61.2206 101.403 61.2911C101.356 61.3616 101.332 61.479 101.332 61.5965C101.332 61.7139 101.332 61.8079 101.403 61.9018C101.473 61.9958 101.496 62.0663 101.567 62.1367C101.637 62.2072 101.731 62.2542 101.825 62.3012C101.919 62.3481 102.013 62.3716 102.131 62.3716C102.248 62.3716 102.342 62.3716 102.436 62.3012C102.53 62.2307 102.624 62.2072 102.694 62.1367C102.765 62.0663 102.812 61.9723 102.859 61.9018C102.906 61.8079 102.929 61.7139 102.929 61.5965C102.929 61.479 102.929 61.385 102.859 61.2911C102.812 61.1971 102.765 61.1267 102.694 61.0562Z" fill="#EDEFF1"/>
<path d="M104.527 61.0562C104.457 60.9857 104.363 60.9387 104.269 60.8918C104.175 60.8448 104.081 60.8213 103.964 60.8213C103.846 60.8213 103.752 60.8213 103.658 60.8918C103.564 60.9387 103.47 60.9857 103.4 61.0562C103.329 61.1267 103.282 61.2206 103.236 61.2911C103.189 61.3616 103.165 61.479 103.165 61.5965C103.165 61.7139 103.165 61.8079 103.236 61.9018C103.306 61.9958 103.329 62.0663 103.4 62.1367C103.47 62.2072 103.564 62.2542 103.658 62.3012C103.752 62.3481 103.846 62.3716 103.964 62.3716C104.081 62.3716 104.175 62.3716 104.269 62.3012C104.363 62.2542 104.457 62.2072 104.527 62.1367C104.598 62.0663 104.645 61.9723 104.692 61.9018C104.739 61.8079 104.762 61.7139 104.762 61.5965C104.762 61.479 104.762 61.385 104.692 61.2911C104.645 61.1971 104.598 61.1267 104.527 61.0562Z" fill="#EDEFF1"/>
<path d="M106.97 53.1406C107.041 53.2111 107.135 53.2581 107.229 53.3051C107.323 53.352 107.417 53.3755 107.534 53.3755C107.651 53.3755 107.745 53.3755 107.839 53.3051C107.933 53.2346 108.027 53.2111 108.098 53.1406C108.168 53.0702 108.215 52.9762 108.262 52.9057C108.309 52.8118 108.333 52.7178 108.333 52.6004C108.333 52.4829 108.333 52.389 108.262 52.295C108.215 52.201 108.168 52.1306 108.098 52.0601C108.027 51.9896 107.933 51.9426 107.839 51.8957C107.745 51.8487 107.651 51.8252 107.534 51.8252C107.417 51.8252 107.323 51.8252 107.229 51.8957C107.135 51.9661 107.041 51.9896 106.97 52.0601C106.9 52.1306 106.853 52.2245 106.806 52.295C106.759 52.389 106.735 52.4829 106.735 52.6004C106.735 52.7178 106.735 52.8118 106.806 52.9057C106.853 52.9997 106.9 53.0702 106.97 53.1406Z" fill="#EDEFF1"/>
<path d="M112.819 51.8722C112.725 51.8253 112.631 51.8018 112.514 51.8018C112.396 51.8018 112.302 51.8018 112.208 51.8722C112.114 51.9192 112.02 51.9662 111.95 52.0367C111.879 52.1071 111.832 52.2011 111.785 52.2716C111.738 52.3655 111.715 52.4595 111.715 52.5769C111.715 52.6944 111.715 52.7883 111.785 52.8823C111.856 52.9763 111.879 53.0467 111.95 53.1172C112.02 53.1877 112.114 53.2346 112.208 53.2816C112.302 53.3286 112.396 53.3521 112.514 53.3521C112.631 53.3521 112.725 53.3521 112.819 53.2816C112.913 53.2112 113.007 53.1877 113.077 53.1172C113.148 53.0467 113.195 52.9528 113.242 52.8823C113.289 52.7883 113.312 52.6944 113.312 52.5769C113.312 52.4595 113.312 52.3655 113.242 52.2716C113.195 52.1776 113.148 52.1071 113.077 52.0367C113.007 51.9662 112.913 51.9192 112.819 51.8722Z" fill="#EDEFF1"/>
<path d="M114.909 52.0367C114.839 51.9662 114.745 51.9192 114.651 51.8722C114.557 51.8253 114.463 51.8018 114.346 51.8018C114.228 51.8018 114.134 51.8018 114.04 51.8722C113.946 51.9192 113.852 51.9662 113.782 52.0367C113.711 52.1071 113.664 52.2011 113.617 52.2716C113.57 52.3655 113.547 52.4595 113.547 52.5769C113.547 52.6944 113.547 52.7883 113.617 52.8823C113.688 52.9763 113.711 53.0467 113.782 53.1172C113.852 53.1877 113.946 53.2346 114.04 53.2816C114.134 53.3286 114.228 53.3521 114.346 53.3521C114.463 53.3521 114.557 53.3521 114.651 53.2816C114.745 53.2346 114.839 53.1877 114.909 53.1172C114.98 53.0467 115.027 52.9528 115.074 52.8823C115.121 52.7883 115.144 52.6944 115.144 52.5769C115.144 52.4595 115.144 52.3655 115.074 52.2716C115.027 52.1776 114.98 52.1071 114.909 52.0367Z" fill="#EDEFF1"/>
<path d="M121.275 51.8722C121.181 51.8253 121.087 51.8018 120.97 51.8018C120.852 51.8018 120.758 51.8018 120.664 51.8722C120.57 51.9427 120.476 51.9662 120.406 52.0367C120.335 52.1071 120.288 52.2011 120.241 52.2716C120.194 52.3655 120.171 52.4595 120.171 52.5769C120.171 52.6944 120.171 52.7883 120.241 52.8823C120.288 52.9763 120.335 53.0467 120.406 53.1172C120.476 53.1877 120.57 53.2346 120.664 53.2816C120.758 53.3286 120.852 53.3521 120.97 53.3521C121.087 53.3521 121.181 53.3521 121.275 53.2816C121.369 53.2346 121.463 53.1877 121.533 53.1172C121.604 53.0467 121.651 52.9528 121.698 52.8823C121.745 52.7883 121.768 52.6944 121.768 52.5769C121.768 52.4595 121.768 52.3655 121.698 52.2716C121.651 52.1776 121.604 52.1071 121.533 52.0367C121.463 51.9662 121.369 51.9192 121.275 51.8722Z" fill="#EDEFF1"/>
<path d="M119.443 51.8722C119.349 51.8253 119.255 51.8018 119.138 51.8018C119.02 51.8018 118.926 51.8018 118.832 51.8722C118.738 51.9427 118.644 51.9662 118.574 52.0367C118.503 52.1071 118.456 52.2011 118.409 52.2716C118.362 52.3655 118.339 52.4595 118.339 52.5769C118.339 52.6944 118.339 52.7883 118.409 52.8823C118.456 52.9763 118.503 53.0467 118.574 53.1172C118.644 53.1877 118.738 53.2346 118.832 53.2816C118.926 53.3286 119.02 53.3521 119.138 53.3521C119.255 53.3521 119.349 53.3521 119.443 53.2816C119.537 53.2346 119.631 53.1877 119.701 53.1172C119.772 53.0467 119.819 52.9528 119.866 52.8823C119.913 52.8118 119.936 52.6944 119.936 52.5769C119.936 52.4595 119.936 52.3655 119.866 52.2716C119.819 52.1776 119.772 52.1071 119.701 52.0367C119.631 51.9662 119.537 51.9192 119.443 51.8722Z" fill="#EDEFF1"/>
<path d="M124.329 58.5194H122.238C121.98 58.5194 121.745 58.5194 121.51 58.4489C121.275 58.3785 121.064 58.355 120.853 58.261C120.853 58.1905 120.853 58.1201 120.853 58.0496C120.853 57.9791 120.853 57.9087 120.853 57.8382V54.855H119.255V57.6268C119.255 57.7912 119.255 57.9321 119.208 58.0496C119.185 58.167 119.138 58.261 119.067 58.3315C118.997 58.4019 118.926 58.4489 118.832 58.4724C118.738 58.4959 118.621 58.5194 118.48 58.5194H115.685C115.732 58.4254 115.779 58.308 115.826 58.1905C115.873 58.0731 115.92 57.9321 115.943 57.7912C115.99 57.6503 116.014 57.5093 116.037 57.3684C116.061 57.2274 116.084 57.0865 116.084 56.9456C116.084 56.6402 116.037 56.3348 115.92 56.0529C115.802 55.7711 115.661 55.5362 115.45 55.3248C115.238 55.1134 114.98 54.9489 114.675 54.8315C114.369 54.714 114.017 54.6436 113.618 54.6436C113.218 54.6436 112.749 54.714 112.396 54.855C112.044 54.9959 111.738 55.1838 111.48 55.4187C111.222 55.6536 111.034 55.912 110.893 56.2174C110.752 56.5228 110.681 56.8516 110.681 57.1805C110.681 57.5093 110.681 57.3684 110.705 57.4858C110.705 57.6033 110.752 57.7207 110.799 57.8382C110.846 57.9556 110.893 58.0731 110.963 58.214C111.034 58.3315 111.104 58.4489 111.175 58.5664H109.601C109.342 58.5664 109.108 58.5664 108.873 58.4959C108.638 58.4254 108.426 58.4019 108.215 58.308C108.215 58.2375 108.215 58.167 108.215 58.0966C108.215 58.0261 108.215 57.9556 108.215 57.8852V54.9019H106.618V57.6738C106.618 57.8382 106.618 57.9791 106.571 58.0966C106.547 58.214 106.5 58.308 106.43 58.3785C106.359 58.4489 106.289 58.4959 106.195 58.5194C106.101 58.5429 105.983 58.5664 105.842 58.5664H105.138C104.879 58.5664 104.644 58.5664 104.41 58.4959C104.175 58.4489 103.963 58.4019 103.752 58.308C103.752 58.2375 103.752 58.167 103.752 58.0966C103.752 58.0261 103.752 57.9556 103.752 57.8852V54.9019H102.155V57.6738C102.155 57.8382 102.155 57.9791 102.108 58.0966C102.084 58.214 102.037 58.308 101.967 58.3785C101.896 58.4489 101.826 58.4959 101.732 58.5194C101.638 58.5429 101.52 58.5664 101.379 58.5664H79.1814C79.0639 58.5664 78.9465 58.5664 78.876 58.5194C78.8055 58.4959 78.7351 58.4489 78.6881 58.4019C78.6411 58.355 78.6176 58.261 78.5941 58.167C78.5706 58.0731 78.5941 57.9556 78.5941 57.8147V53.8919H76.9968V54.5731C76.7619 54.6201 76.5035 54.6905 76.2217 54.7845C75.9398 54.8785 75.6579 54.9724 75.376 55.0899C75.0941 55.2073 74.8123 55.3483 74.5539 55.4892C74.2955 55.6536 74.0606 55.818 73.8492 56.0295C73.6378 56.2174 73.4733 56.4523 73.3559 56.7107C73.2384 56.9691 73.168 57.2274 73.168 57.5563C73.168 57.8852 73.2384 58.214 73.3794 58.4489C73.5203 58.7073 73.7082 58.8952 73.9431 59.0597C74.178 59.2241 74.4364 59.3415 74.7183 59.412C75.0002 59.4825 75.2821 59.5295 75.5639 59.5295C75.8458 59.5295 76.1042 59.506 76.3626 59.4355C76.621 59.3885 76.8794 59.2711 77.1378 59.1536C77.1847 59.2711 77.2552 59.365 77.3492 59.459C77.4431 59.5529 77.5606 59.6469 77.7015 59.7174C77.8425 59.7879 78.0069 59.8348 78.2183 59.8818C78.4297 59.9288 78.6646 59.9523 78.9465 59.9523H101.967C102.272 59.9523 102.53 59.9053 102.742 59.8113C102.953 59.7174 103.141 59.5999 103.282 59.4355C103.493 59.5764 103.752 59.7174 104.057 59.7878C104.339 59.8818 104.691 59.9288 105.114 59.9288H106.383C106.688 59.9288 106.946 59.8818 107.158 59.7878C107.369 59.6939 107.557 59.5764 107.698 59.412C107.91 59.5529 108.168 59.6939 108.473 59.7644C108.755 59.8583 109.108 59.9053 109.53 59.9053H110.423C110.705 59.9053 111.01 59.9053 111.292 59.9053C111.597 59.9053 111.903 59.9053 112.185 59.8583C112.49 59.8583 112.772 59.8348 113.054 59.8113C113.336 59.7878 113.594 59.7644 113.829 59.7174C114.158 59.7644 114.534 59.8113 114.957 59.8583C115.379 59.9053 115.826 59.9053 116.295 59.9053H118.997C119.302 59.9053 119.561 59.8583 119.772 59.7644C119.983 59.6704 120.171 59.553 120.312 59.3885C120.524 59.5295 120.782 59.6704 121.087 59.7409C121.369 59.8348 121.722 59.8818 122.144 59.8818H125.856V51.1436H124.259V58.5429L124.329 58.5194ZM77.1143 57.8147C76.9498 57.9087 76.7619 58.0026 76.5505 58.0731C76.3391 58.1436 76.1042 58.167 75.8693 58.167C75.6344 58.167 75.6109 58.167 75.4935 58.1201C75.376 58.0966 75.2586 58.0496 75.1411 57.9791C75.0472 57.9087 74.9532 57.8147 74.8827 57.7207C74.8123 57.6033 74.7888 57.4858 74.7888 57.3214C74.7888 57.157 74.8357 56.9456 74.9532 56.7811C75.0706 56.6167 75.2116 56.4758 75.423 56.3583C75.6344 56.2409 75.8693 56.1234 76.1512 56.0295C76.4331 55.9355 76.7619 55.8415 77.1143 55.7711V57.8382V57.8147ZM114.463 57.5328C114.44 57.6738 114.393 57.7912 114.369 57.9087C114.322 58.0261 114.275 58.1436 114.228 58.2375C114.181 58.3315 114.134 58.4254 114.087 58.5194H113.853C113.641 58.5194 113.43 58.4724 113.218 58.4019C113.03 58.3315 112.866 58.2375 112.702 58.0966C112.561 57.9556 112.443 57.8147 112.349 57.6268C112.255 57.4389 112.232 57.2509 112.232 57.016C112.232 56.7811 112.255 56.6402 112.326 56.4993C112.396 56.3583 112.49 56.2174 112.584 56.1234C112.702 56.0295 112.819 55.959 112.96 55.912C113.101 55.865 113.242 55.8415 113.383 55.8415C113.524 55.8415 113.641 55.865 113.782 55.912C113.923 55.959 114.017 56.0529 114.134 56.1469C114.228 56.2644 114.322 56.3818 114.369 56.5462C114.44 56.7107 114.463 56.8986 114.463 57.0865C114.463 57.2744 114.463 57.3449 114.416 57.4858L114.463 57.5328Z" fill="#EDEFF1"/>
<path d="M129.144 51.1201H127.547V59.8584H129.144V51.1201Z" fill="#EDEFF1"/>
<path d="M135.721 55.771C135.58 55.5596 135.439 55.3716 135.275 55.2307C135.11 55.0898 134.923 54.9723 134.735 54.9018C134.547 54.8314 134.359 54.7609 134.147 54.7374C133.959 54.7139 133.772 54.6904 133.584 54.6904C133.184 54.6904 132.808 54.7609 132.456 54.9018C132.104 55.0428 131.798 55.2307 131.54 55.4891C131.282 55.724 131.07 56.0294 130.929 56.3582C130.788 56.6871 130.694 57.0629 130.694 57.4622C130.694 57.8616 130.741 58.026 130.859 58.3079C130.953 58.5898 131.117 58.8716 131.352 59.1065C131.587 59.3414 131.869 59.5294 132.221 59.6938C132.574 59.8347 133.02 59.9287 133.537 59.9287C134.053 59.9287 133.795 59.9287 133.983 59.9052C134.147 59.9052 134.312 59.8582 134.476 59.8347C134.382 60.0226 134.265 60.1871 134.077 60.328C133.889 60.4924 133.678 60.6334 133.443 60.7508C133.208 60.8683 132.926 60.9857 132.597 61.0562C132.292 61.1502 131.963 61.1971 131.587 61.2441H131.446L131.587 62.5361C132.245 62.4656 132.879 62.3716 133.419 62.2072C133.983 62.0428 134.453 61.8314 134.852 61.526C135.251 61.2206 135.58 60.8448 135.792 60.375C136.027 59.9052 136.121 59.3414 136.121 58.6367V57.6032C136.121 57.2039 136.074 56.8515 136.003 56.5696C135.933 56.2877 135.815 56.0059 135.698 55.7945L135.721 55.771ZM134.547 58.4488C134.5 58.4488 134.453 58.4958 134.382 58.4958C134.312 58.4958 134.241 58.5193 134.171 58.5428C134.1 58.5428 134.006 58.5428 133.936 58.5663C133.865 58.5663 133.772 58.5663 133.701 58.5663C133.443 58.5663 133.208 58.5428 133.02 58.4723C132.832 58.4018 132.667 58.3079 132.55 58.1904C132.433 58.073 132.339 57.932 132.268 57.7676C132.198 57.6032 132.174 57.4153 132.174 57.2273C132.174 57.0394 132.198 56.8515 132.268 56.6871C132.339 56.5226 132.433 56.3817 132.527 56.2643C132.621 56.1468 132.761 56.0528 132.902 55.9824C133.043 55.9119 133.184 55.8884 133.349 55.8884C133.513 55.8884 133.631 55.9119 133.772 55.9589C133.912 56.0059 134.03 56.1233 134.147 56.2643C134.265 56.4052 134.335 56.6166 134.406 56.875C134.476 57.1334 134.5 57.4857 134.5 57.8851V58.4018L134.547 58.4488Z" fill="#EDEFF1"/>
<path d="M146.762 56.8757C146.715 56.6643 146.645 56.4764 146.551 56.2885C146.457 56.1005 146.339 55.9126 146.199 55.7247C146.058 55.5368 145.893 55.3724 145.682 55.2549C145.494 55.114 145.259 54.9965 145.001 54.926C144.742 54.8321 144.46 54.8086 144.155 54.8086C143.85 54.8086 143.85 54.8086 143.685 54.8556C143.521 54.8791 143.333 54.9495 143.168 55.02C142.98 55.114 142.792 55.2314 142.628 55.3724C142.44 55.5133 142.252 55.7012 142.088 55.9361C141.923 56.171 141.735 56.4294 141.594 56.7583C141.43 57.0871 141.289 57.463 141.172 57.8858C141.031 57.9327 140.89 58.0032 140.725 58.0972C140.561 58.1677 140.42 58.2616 140.256 58.3791C140.091 58.4965 139.95 58.614 139.809 58.7784C139.668 58.9193 139.527 59.1072 139.433 59.3187C139.316 59.5301 139.222 59.765 139.175 60.0234C139.105 60.2817 139.081 60.5871 139.081 60.916C139.081 61.2448 139.105 61.3858 139.152 61.6677C139.199 61.973 139.269 62.2784 139.339 62.6307C139.41 62.9126 139.48 63.218 139.551 63.4999L140.984 62.9596C140.913 62.7482 140.866 62.5368 140.819 62.3489C140.749 62.067 140.702 61.7851 140.678 61.5502C140.655 61.2918 140.631 61.0804 140.631 60.869C140.631 60.5636 140.678 60.3287 140.749 60.1173C140.819 59.9059 140.937 59.7415 141.054 59.624C141.172 59.5066 141.313 59.3891 141.477 59.3421C141.641 59.2717 141.782 59.2247 141.947 59.2012C142.064 59.2952 142.205 59.3891 142.346 59.4831C142.511 59.577 142.675 59.671 142.863 59.7415C143.051 59.8119 143.262 59.8824 143.497 59.9294C143.732 59.9764 143.943 59.9999 144.202 59.9999C144.672 59.9999 145.048 59.9294 145.4 59.7885C145.729 59.6475 146.011 59.4596 146.222 59.2247C146.433 58.9898 146.598 58.7314 146.692 58.426C146.786 58.1207 146.856 57.8153 146.856 57.5099C146.856 57.2046 146.856 57.1576 146.786 56.9462L146.762 56.8757ZM145.259 58.0267C145.188 58.1676 145.118 58.2851 145.001 58.3791C144.883 58.4495 144.742 58.52 144.578 58.5435C144.413 58.567 144.225 58.5905 144.037 58.5905C143.85 58.5905 143.756 58.5905 143.591 58.5435C143.427 58.52 143.286 58.473 143.145 58.426C143.004 58.3791 142.863 58.3321 142.769 58.2616C142.652 58.2146 142.558 58.1442 142.511 58.0972C142.558 57.8388 142.652 57.5804 142.745 57.322C142.839 57.0636 142.957 56.8522 143.098 56.6643C143.239 56.4764 143.38 56.3119 143.568 56.1945C143.732 56.077 143.92 56.0301 144.131 56.0301C144.343 56.0301 144.507 56.077 144.672 56.171C144.836 56.265 144.954 56.3824 145.048 56.5234C145.141 56.6643 145.235 56.8287 145.282 56.9932C145.329 57.1576 145.353 57.2985 145.353 57.4395C145.353 57.6744 145.329 57.8623 145.259 58.0032V58.0267Z" fill="#EDEFF1"/>
<path d="M193.319 58.5195H191.839C191.581 58.5195 191.346 58.5195 191.111 58.449C190.876 58.3786 190.665 58.3551 190.453 58.2611C190.453 58.1906 190.453 58.1202 190.453 58.0497C190.453 57.9792 190.453 57.9088 190.453 57.8383V51.0967H188.832V57.6269C188.832 57.7913 188.832 57.9323 188.785 58.0497C188.762 58.1672 188.715 58.2611 188.644 58.3316C188.574 58.4021 188.503 58.449 188.41 58.4725C188.316 58.496 188.198 58.5195 188.057 58.5195H186.789C186.624 58.5195 186.483 58.5195 186.319 58.5195C186.154 58.5195 185.99 58.496 185.849 58.4725C185.708 58.4725 185.567 58.4255 185.426 58.4021C185.285 58.3786 185.168 58.3551 185.074 58.3081C185.356 58.0262 185.591 57.7443 185.779 57.5094C185.967 57.2745 186.108 57.0396 186.201 56.8282C186.295 56.6168 186.366 56.4289 186.413 56.2645C186.46 56.1 186.46 55.9591 186.46 55.8416C186.46 55.6068 186.389 55.4188 186.248 55.2544C186.108 55.09 185.943 54.949 185.732 54.8551C185.52 54.7611 185.285 54.6671 185.027 54.6202C184.769 54.5732 184.51 54.5497 184.252 54.5497C183.993 54.5497 183.641 54.5497 183.359 54.6202C183.077 54.6671 182.819 54.7141 182.584 54.7846C182.349 54.8551 182.114 54.9255 181.926 54.996C181.738 55.0665 181.574 55.1604 181.433 55.2074C181.363 55.2544 181.316 55.3014 181.245 55.3953C181.175 55.4893 181.128 55.5833 181.081 55.7007C181.034 55.8182 180.987 55.9356 180.94 56.0531C180.893 56.1705 180.869 56.2645 180.846 56.3584C180.869 56.4054 180.94 56.4524 181.01 56.5463C181.081 56.6403 181.175 56.7578 181.292 56.8987C181.363 56.9927 181.456 57.1101 181.55 57.2276C181.644 57.345 181.762 57.4859 181.856 57.6034C181.973 57.7443 182.091 57.8618 182.208 57.9792C182.326 58.0967 182.443 58.2141 182.561 58.3316C182.42 58.3786 182.208 58.4255 181.95 58.4725C181.668 58.5195 181.386 58.543 181.034 58.543H180.141C179.883 58.543 179.648 58.543 179.413 58.4725C179.178 58.402 178.967 58.3786 178.755 58.2846C178.755 58.2141 178.755 58.1437 178.755 58.0732C178.755 58.0027 178.755 57.9323 178.755 57.8618V51.1202H177.134V57.6504C177.134 57.8148 177.134 57.9557 177.087 58.0732C177.064 58.1906 177.017 58.2846 176.946 58.3551C176.876 58.4255 176.805 58.4725 176.712 58.496C176.618 58.5195 176.5 58.543 176.359 58.543H153.48V57.6034C153.48 57.2041 153.433 56.8517 153.363 56.5698C153.292 56.2645 153.175 56.0061 153.057 55.7947C152.916 55.5833 152.775 55.3953 152.611 55.2544C152.446 55.1135 152.259 54.996 152.071 54.9255C151.883 54.8316 151.695 54.7846 151.483 54.7611C151.295 54.7376 151.084 54.7141 150.92 54.7141C150.473 54.7141 150.074 54.7846 149.722 54.949C149.369 55.09 149.064 55.3014 148.805 55.5598C148.547 55.8182 148.359 56.1 148.218 56.4524C148.077 56.7812 148.007 57.1336 148.007 57.5094C148.007 57.8853 148.054 58.0732 148.171 58.3551C148.289 58.6369 148.453 58.8953 148.688 59.1302C148.923 59.3651 149.228 59.5531 149.628 59.694C150.003 59.8349 150.473 59.9054 151.037 59.9054H151.789C151.695 60.0698 151.53 60.2343 151.366 60.3987C151.178 60.5396 150.967 60.6806 150.708 60.798C150.45 60.9155 150.168 61.0094 149.839 61.1034C149.51 61.1739 149.158 61.2443 148.782 61.2678L148.923 62.5598C149.44 62.5128 149.956 62.4188 150.426 62.2779C150.896 62.137 151.342 61.949 151.718 61.7376C152.118 61.5262 152.446 61.2443 152.728 60.939C153.01 60.6336 153.222 60.2812 153.386 59.9054H176.923C177.228 59.9054 177.487 59.8584 177.722 59.7645C177.933 59.6705 178.121 59.5531 178.262 59.3886C178.473 59.5296 178.732 59.6705 179.037 59.741C179.319 59.8349 179.671 59.8819 180.094 59.8819H180.94C181.222 59.8819 181.48 59.8819 181.738 59.8349C181.997 59.788 182.232 59.741 182.467 59.694C182.701 59.6235 182.913 59.5531 183.124 59.4826C183.336 59.4121 183.524 59.3182 183.688 59.2477C183.805 59.3182 183.97 59.3886 184.158 59.4591C184.346 59.5296 184.557 59.6 184.792 59.6705C185.027 59.741 185.285 59.788 185.567 59.8349C185.849 59.8819 186.131 59.9054 186.46 59.9054H188.621C188.926 59.9054 189.185 59.8584 189.42 59.7645C189.631 59.6705 189.819 59.5531 189.96 59.3886C190.171 59.5296 190.43 59.6705 190.735 59.741C191.017 59.8349 191.369 59.8819 191.792 59.8819H194.893V51.1437H193.272V58.543L193.319 58.5195ZM152.024 58.5195H151.154C150.638 58.5195 150.262 58.4021 150.003 58.1906C149.769 57.9557 149.651 57.6504 149.651 57.2745C149.651 56.8987 149.675 56.8987 149.745 56.7343C149.816 56.5698 149.91 56.4289 150.003 56.3114C150.097 56.194 150.238 56.1 150.379 56.0296C150.52 55.9591 150.685 55.9356 150.826 55.9356C150.967 55.9356 151.108 55.9591 151.248 56.0061C151.389 56.0531 151.507 56.1705 151.624 56.3114C151.742 56.4524 151.812 56.6638 151.883 56.9222C151.953 57.1806 151.977 57.5329 151.977 57.9323V58.5195H152.024ZM184.933 56.6403C184.886 56.7578 184.839 56.8752 184.745 56.9927C184.651 57.1101 184.557 57.251 184.416 57.392C184.275 57.5329 184.111 57.6739 183.899 57.8148C183.759 57.7208 183.618 57.5799 183.477 57.439C183.336 57.2745 183.171 57.1336 183.03 56.9692C182.889 56.8047 182.772 56.6403 182.654 56.4994C182.537 56.3349 182.443 56.2175 182.396 56.1C182.514 56.0531 182.631 56.0061 182.772 55.9591C182.913 55.9121 183.03 55.8651 183.171 55.8416C183.312 55.8182 183.43 55.7947 183.571 55.7712C183.688 55.7712 183.805 55.7477 183.899 55.7477C184.064 55.7477 184.205 55.7477 184.346 55.7947C184.487 55.8182 184.604 55.8651 184.698 55.9356C184.792 56.0061 184.863 56.0531 184.933 56.147C184.98 56.2175 185.003 56.3114 185.003 56.4054C185.003 56.4994 185.003 56.5698 184.933 56.6873V56.6403Z" fill="#EDEFF1"/>
<path d="M49.7023 10.4126L40.8466 19.2683C40.4942 19.6206 40.0949 19.879 39.6486 20.0434C39.2258 20.2079 38.7795 20.3018 38.3097 20.3018H23.8868C22.9472 20.3018 22.0311 19.926 21.3499 19.2448L12.4942 10.3891C12.0244 9.91927 11.86 9.26155 12.0009 8.6743C12.0949 8.27497 12.3298 7.89913 12.6821 7.64074C17.8029 3.7649 24.1687 1.46289 31.0748 1.46289C37.9808 1.46289 44.3701 3.7649 49.4674 7.64074C50.36 8.32195 50.4305 9.6139 49.6553 10.3891L49.7023 10.4126Z" fill="#EDEFF1"/>
<path d="M37.558 14.0537C37.5345 14.0067 37.0412 13.0671 36.6889 12.5739C34.9271 10.0839 32.0379 8.65104 29.0782 8.65104C26.1184 8.65104 27.7392 8.72151 27.058 8.86245C26.4003 9.00339 25.7191 9.23829 25.0849 9.54366C24.85 9.07386 24.5916 8.62755 24.3097 8.22822C23.9104 7.66446 23.4406 7.14769 22.9238 6.67789C21.5614 5.45641 19.8466 4.68124 18.0614 4.42285C17.709 4.58728 17.3567 4.75171 17.0278 4.93963C17.3097 4.93963 17.5681 4.96312 17.8265 5.0101L14.209 7.40607C14.0916 7.26513 13.9741 7.1007 13.8567 6.93628C13.8567 6.93628 13.8332 6.88929 13.8097 6.8658C13.6453 6.98325 13.4808 7.1007 13.3164 7.21815C13.3164 7.21815 13.3399 7.26513 13.3634 7.28862C13.7627 7.85238 14.209 8.34567 14.7023 8.79198C16.4171 10.3423 18.6721 11.188 20.9741 11.188C23.2761 11.188 24.803 10.3658 24.803 10.3658C25.0379 10.8826 25.3433 11.3759 25.6721 11.8457C25.7426 11.9396 25.7896 12.0101 25.86 12.1041L26.2124 12.5504C27.6922 14.2416 29.7124 15.3457 31.8969 15.651C32.3433 15.7215 32.8131 15.745 33.2828 15.745C34.6218 15.745 35.9842 15.4631 37.2526 14.8524C37.3231 14.9933 37.3936 15.1343 37.4641 15.2517C37.6285 15.5806 37.8399 15.8624 38.0278 16.1678C38.4271 16.7316 38.8969 17.2484 39.4137 17.7182C39.954 18.188 40.5177 18.5873 41.1285 18.9396L41.5748 18.4933C41.3164 18.3759 41.0815 18.2349 40.8466 18.0705L43.36 16.6846L44.7694 15.2752L40.3298 17.6947C39.86 17.3423 39.4372 16.943 39.0379 16.4967L43.501 14.0772C44.1117 14.2416 44.7224 14.4531 45.2862 14.7584L45.7325 14.3121C44.3936 13.5839 42.8667 13.2081 41.3164 13.2081C39.7661 13.2081 38.7325 13.4665 37.4875 14.0302L37.558 14.0537ZM14.6084 7.82889L18.6486 5.15104C19.2594 5.29198 19.8701 5.50339 20.4339 5.76178L15.7828 8.86245C15.36 8.55708 14.9842 8.20473 14.6318 7.82889H14.6084ZM16.2526 9.2148L20.9976 6.06715C21.5144 6.34903 21.9842 6.70138 22.4305 7.07721L18.0614 10.1074C17.4271 9.87252 16.8164 9.59064 16.2526 9.23829V9.2148ZM20.9741 10.6007C20.199 10.6007 19.4473 10.5067 18.7191 10.2953L22.8533 7.45305C23.2057 7.8054 23.5345 8.18124 23.8164 8.58057C24.0983 8.95641 24.3332 9.37923 24.5446 9.82554C23.3936 10.3423 22.1721 10.6007 20.9741 10.6007ZM26.1654 11.4933C25.86 11.0705 25.6016 10.6007 25.3667 10.1074C26.5647 9.54366 27.8332 9.26178 29.0782 9.26178C30.3231 9.26178 30.3701 9.33225 30.9808 9.47319L26.4003 11.8222C26.3063 11.7047 26.2359 11.6108 26.1654 11.4933ZM26.7996 12.2685L31.803 9.70809C32.4372 9.9195 33.0714 10.2014 33.6352 10.5537L28.1855 13.5369C27.6688 13.1611 27.199 12.7618 26.7761 12.2685H26.7996ZM28.7258 13.8893L34.1755 10.9296C34.7157 11.3054 35.209 11.7517 35.6553 12.2685L30.7929 14.8054C30.0647 14.594 29.3835 14.2886 28.7258 13.9128V13.8893ZM33.2828 15.1578C32.7191 15.1578 32.1553 15.1108 31.5916 14.9933L36.0077 12.6913C36.0782 12.7853 36.1251 12.8557 36.1956 12.9497C36.501 13.3725 36.7594 13.8423 36.9943 14.3356C35.7963 14.8994 34.5278 15.1812 33.2594 15.1812L33.2828 15.1578ZM38.7325 16.0973C38.662 16.0269 38.6151 15.9329 38.5681 15.8624C38.2862 15.4866 38.0513 15.0638 37.8399 14.6175C38.9909 14.1007 40.2124 13.8423 41.4104 13.8423C42.6084 13.8423 42.2795 13.8658 42.7258 13.9363L38.756 16.0739L38.7325 16.0973Z" fill="#D6DEE1"/>
<path d="M50.2189 8.79164L45.4739 11.3755C45.0041 11.0232 44.5578 10.6239 44.182 10.1775L48.6921 7.7346C49.1619 7.85205 49.6082 8.01648 50.031 8.2044C49.9135 7.99299 49.7491 7.80507 49.5377 7.64064C49.3028 7.47621 49.0679 7.28829 48.833 7.12386C48.0578 6.91245 47.2592 6.81849 46.437 6.81849C45.1451 6.81849 43.8531 7.07688 42.6082 7.64064C42.5847 7.59366 42.0914 6.65406 41.739 6.16077C39.9538 3.67084 37.088 2.23795 34.1283 2.23795C31.1686 2.23795 32.7894 2.30842 32.1317 2.44936C31.4739 2.5903 30.7927 2.8252 30.1585 3.13057C29.9236 2.66077 29.6652 2.21446 29.3599 1.81513C29.2894 1.72117 29.2189 1.60373 29.125 1.50977C28.8666 1.50977 28.6317 1.55674 28.3733 1.55674C28.4437 1.6507 28.5142 1.72117 28.5847 1.81513L24.5914 4.04668C23.9102 3.92923 23.229 3.74131 22.5948 3.45943L25.3666 1.95607C24.6854 2.09701 24.0042 2.23795 23.3229 2.42587L21.9605 3.15406C21.8196 3.08359 21.7021 3.01312 21.5847 2.94265C21.3263 3.03661 21.0914 3.10708 20.833 3.20104C22.2659 4.14064 23.9102 4.68091 25.625 4.75138C25.7424 4.75138 25.8833 4.75138 26.0008 4.75138C27.3867 4.75138 29.8062 3.92923 29.8297 3.92923C30.0646 4.44601 30.3699 4.9393 30.6988 5.40909C30.8632 5.64399 31.0511 5.87889 31.2625 6.11379L31.333 6.18426C33.1182 8.1809 35.6786 9.30842 38.3095 9.30842C40.9404 9.30842 39.5545 9.23795 40.1652 9.1205C40.776 9.00305 41.3867 8.81513 41.9974 8.55675C42.0914 8.50977 42.1854 8.46278 42.3028 8.4158C42.5377 8.8856 42.7961 9.33191 43.078 9.73124C44.1115 11.1876 45.5209 12.2682 47.0948 12.9259L47.5646 12.4561C47.0008 12.2447 46.4605 11.9863 45.9437 11.6574L50.1954 9.33191C50.2189 9.1205 50.2189 8.90909 50.1954 8.69768L50.2189 8.79164ZM26.0243 4.21111C25.8833 4.21111 25.7424 4.21111 25.578 4.21111L28.937 2.33191C29.1719 2.68426 29.4068 3.0601 29.5948 3.45943C28.4437 3.97621 27.2223 4.2346 26.0243 4.2346V4.21111ZM31.5209 5.52654C31.4035 5.3856 31.3095 5.24466 31.2156 5.12721C30.9102 4.7044 30.6518 4.2346 30.4169 3.74131C31.6149 3.17755 32.8833 2.89567 34.1283 2.89567C34.8095 2.89567 35.4672 2.96614 36.1015 3.13057L31.4974 5.52654H31.5209ZM31.8968 5.97285L36.9001 3.36547C37.0411 3.41245 37.2055 3.45943 37.3464 3.5299C37.8397 3.71782 38.333 3.97621 38.7793 4.25809L33.3297 7.24131C32.8129 6.88896 32.3196 6.46614 31.8968 5.99634V5.97285ZM33.8934 7.57017L39.3196 4.61044C39.8364 4.98627 40.3062 5.40909 40.729 5.90238L35.8901 8.4393C35.1854 8.22789 34.5276 7.94601 33.8934 7.57017ZM38.333 8.76815C37.7927 8.76815 37.2525 8.72117 36.7122 8.62721L41.1048 6.34869C41.1518 6.41916 41.2223 6.48963 41.2692 6.5601C41.5746 6.98292 41.8565 7.45272 42.0679 7.94601C40.8699 8.50976 39.6015 8.79164 38.333 8.79164V8.76815ZM43.5948 9.47285C43.3129 9.09701 43.078 8.67419 42.8666 8.22789C44.0176 7.71111 45.239 7.45272 46.437 7.45272C47.635 7.45272 47.3531 7.4997 47.8229 7.57017L43.8062 9.73124C43.7357 9.63728 43.6652 9.54332 43.5948 9.44936V9.47285Z" fill="#D6DEE1"/>
<path d="M39.672 20.0674C39.2492 20.2318 38.8029 20.3258 38.3331 20.3258H23.9103C22.9707 20.3258 22.0546 19.95 21.3734 19.2688L12.5177 10.413C12.0479 9.94325 11.8834 9.28553 12.0244 8.69828C14.115 8.11103 16.2995 7.80566 18.5781 7.80566C23.1586 7.80566 27.4573 9.07412 31.0982 11.3057C34.6217 13.4432 37.6049 16.4735 39.6485 20.0674H39.672Z" fill="#D6DEE1"/>
<path d="M12.541 53.5162L21.3967 44.6605C21.749 44.3082 22.1483 44.0498 22.5947 43.8853C23.0175 43.7209 23.4638 43.627 23.9336 43.627H38.3564C39.296 43.627 40.2121 44.0028 40.8933 44.684L49.749 53.5397C50.2188 54.0095 50.3832 54.6672 50.2423 55.2545C50.1483 55.6538 49.9135 56.0296 49.5611 56.288C44.4403 60.1639 38.0745 62.4659 31.1685 62.4659C24.2624 62.4659 17.8732 60.1639 12.7759 56.288C11.8832 55.6068 11.8128 54.3149 12.5879 53.5397L12.541 53.5162Z" fill="#EDEFF1"/>
<path d="M21.6316 44.4493C21.5612 44.5197 21.4672 44.5902 21.3967 44.6607L20.9035 45.154L21.6082 48.3251L18.484 47.5734L17.7793 48.2781L22.7592 49.4526L21.6316 44.4258V44.4493Z" fill="#D6DEE1"/>
<path d="M15.8764 50.1807L15.1482 50.9089L15.8529 54.0095L12.7757 53.2813L12.5408 53.5162C12.3764 53.6807 12.2589 53.8451 12.1885 54.033L16.9804 55.184L15.8529 50.2042L15.8764 50.1807Z" fill="#D6DEE1"/>
<path d="M28.4435 55.231L26.7758 47.7847L34.1986 49.5464L32.8597 43.627H31.9905L33.0711 48.3954L25.6482 46.6337L27.316 54.08L19.8932 52.3182L21.561 59.7645L16.1113 58.4726C17.2623 59.1303 18.4368 59.6941 19.6583 60.1874L22.6885 60.9155L21.0207 53.4692L28.4435 55.231Z" fill="#D6DEE1"/>
<path d="M32.4597 53.5397L39.8825 55.3014L38.2147 47.8551L45.6376 49.6169L45.5906 49.382L44.4631 48.2544L44.51 48.4658L37.0872 46.7041L38.755 54.1504L31.3322 52.3887L33 59.835L25.5771 58.0732L26.4698 62.0665C26.7751 62.1135 27.0805 62.1605 27.3859 62.184L26.7282 59.2007L34.151 60.9625L32.4832 53.5162L32.4597 53.5397Z" fill="#D6DEE1"/>
<path d="M50.1483 54.2207L42.7725 52.459L44.3463 59.4355C44.6047 59.318 44.8866 59.1771 45.1449 59.0362L43.9235 53.61L50.2423 55.1133C50.2892 54.808 50.2658 54.5026 50.1718 54.2207H50.1483Z" fill="#D6DEE1"/>
<path d="M37.7927 61.714C38.0746 61.6435 38.3565 61.5965 38.6384 61.526L38.1451 59.318L42.3733 60.3281C42.8196 60.1401 43.2659 59.9522 43.7122 59.7643L37.0176 58.167L37.8162 61.714H37.7927Z" fill="#D6DEE1"/>
<path d="M22.5947 43.8853C23.0175 43.7209 23.4639 43.627 23.9337 43.627H38.3565C39.2961 43.627 40.2122 44.0028 40.8934 44.684L49.7491 53.5397C50.2189 54.0095 50.3833 54.6672 50.2424 55.2545C48.1518 55.8417 45.9672 56.1471 43.6887 56.1471C39.1082 56.1471 34.8095 54.8786 31.1686 52.6471C27.6451 50.5095 24.6618 47.4793 22.6182 43.8853H22.5947Z" fill="#D6DEE1"/>
<path d="M52.6852 50.5568L43.8295 41.7011C43.4771 41.3487 43.2187 40.9494 43.0543 40.5031C42.8899 40.0803 42.7959 39.634 42.7959 39.1642V24.7413C42.7959 23.8017 43.1717 22.8856 43.8529 22.2044L52.7087 13.3487C53.1785 12.8789 53.8362 12.7145 54.4234 12.8554C54.8227 12.9494 55.1986 13.1843 55.457 13.5366C59.3328 18.6574 61.6348 25.0232 61.6348 31.9293C61.6348 38.8353 59.3328 45.2246 55.457 50.3219C54.7758 51.2145 53.4838 51.285 52.7087 50.5098L52.6852 50.5568Z" fill="#EDEFF1"/>
<path d="M57.9704 46.3987C58.1818 46.0228 58.3697 45.6235 58.5576 45.2477C56.9603 46.0698 55.316 46.6101 53.8831 46.9389C52.7321 47.2208 51.6986 47.3617 50.9939 47.4322C50.8764 47.4322 50.7825 47.4322 50.6885 47.4557C51.6986 46.4221 52.6147 45.3181 53.4133 44.1436C53.7187 44.0497 55.0341 43.6738 56.6549 42.9456C57.8059 42.4289 59.1214 41.7242 60.2959 40.8315C60.4368 40.3852 60.5543 39.9389 60.6717 39.4926C59.3798 40.6906 57.7355 41.6067 56.3261 42.2409C55.4569 42.6403 54.6818 42.9221 54.0945 43.1101C54.9637 41.7242 55.6918 40.2208 56.3261 38.694C56.7019 38.4826 57.5945 37.9423 58.6751 37.1436C59.5677 36.4859 60.5778 35.6638 61.4939 34.7007C61.5408 34.2779 61.5643 33.855 61.5878 33.4087C60.5778 34.6302 59.3093 35.6873 58.2053 36.5094C57.665 36.9087 57.1717 37.2376 56.7724 37.496C57.3831 35.7577 57.8529 33.9725 58.1818 32.1403C58.5106 31.9054 59.2623 31.3886 60.0845 30.7074C60.5543 30.2846 61.071 29.8148 61.4939 29.3215C61.4704 28.9456 61.4234 28.5698 61.3764 28.2175C61.2825 28.3584 61.165 28.4993 61.071 28.6168C60.4133 29.4154 59.5207 30.1906 58.816 30.7309C58.6516 30.8483 58.5106 30.9658 58.3697 31.0832C58.6046 29.5094 58.722 27.9121 58.769 26.2913C59.0039 26.0799 59.4737 25.657 59.967 25.0228C60.1784 24.7644 60.3898 24.4591 60.6012 24.1302C60.5073 23.7779 60.4133 23.4255 60.2959 23.0732C60.014 23.6369 59.6616 24.1302 59.3563 24.5295C59.1449 24.7879 58.9569 24.9993 58.769 25.1873C58.769 22.6034 58.4637 20.0195 57.9704 17.506C57.712 17.0128 57.4301 16.543 57.1482 16.0732C57.4536 17.5295 57.712 19.0094 57.8764 20.4893C57.9469 21.194 57.9939 21.8987 58.0408 22.5799C57.712 22.1805 57.2657 21.6168 56.8194 20.9356C55.9033 19.5732 54.8932 17.7175 54.3529 15.6738L53.5778 15.8617C54.1415 18.1168 55.269 20.0899 56.2321 21.4993C57.1952 22.9087 58.0408 23.7779 58.0408 23.7779H58.0643C58.0643 24.2477 58.0643 24.7175 58.0643 25.2107C58.0643 26.3148 57.9939 27.4188 57.8999 28.4993C57.5476 28.1705 57.0308 27.6772 56.514 27.0664C55.5979 26.0094 54.6818 24.6 54.4469 23.2141L53.6717 23.355C53.9536 25.0463 55.0106 26.5732 55.9972 27.7007C56.7959 28.6168 57.5241 29.251 57.7825 29.4859C57.5945 31.0832 57.3361 32.657 56.9603 34.1839C56.5375 33.855 55.8798 33.3617 55.1751 32.704C54.0006 31.6 52.6851 30.0732 51.9804 28.3349L51.2522 28.6403C52.0509 30.5899 53.5073 32.2342 54.7522 33.3852C55.5979 34.1604 56.3496 34.7242 56.7489 35.006C56.2556 36.7913 55.6449 38.5295 54.8697 40.1738C54.3999 39.845 53.4368 39.1403 52.4267 38.2242C51.769 37.6134 51.0878 36.8852 50.5241 36.1336C49.9603 35.3584 49.5375 34.5597 49.3261 33.7376L48.5509 33.9255C48.7858 34.9121 49.3026 35.8282 49.9368 36.6738C50.8764 37.9423 52.0744 39.0228 53.0375 39.798C53.6952 40.3148 54.2355 40.6906 54.5173 40.902C53.8126 42.2879 53.014 43.6268 52.0979 44.8718C51.1583 44.2846 49.6784 43.157 48.363 41.8651C47.6348 41.1604 46.9301 40.3852 46.3898 39.6336C45.8496 38.8819 45.4737 38.1302 45.3328 37.4725L44.5576 37.6369C44.722 38.4591 45.1684 39.2812 45.7556 40.0799C46.6247 41.3013 47.8227 42.4758 48.9737 43.4859C49.9603 44.3315 50.8999 45.0362 51.6281 45.506C51.0878 46.2107 50.5006 46.892 49.8663 47.5262C49.8429 47.5732 49.7959 47.5966 49.7724 47.6201L50.4066 48.2544C51.1113 48.2074 52.4502 48.0664 54.071 47.6671C55.269 47.3852 56.608 46.9624 57.9704 46.3752V46.3987Z" fill="#D6DEE1"/>
<path d="M43.0309 40.5031C42.8664 40.0803 42.7725 39.634 42.7725 39.1642V24.7413C42.7725 23.8017 43.1483 22.8856 43.8295 22.2044L52.6852 13.3487C53.155 12.8789 53.8127 12.7145 54.4 12.8554C54.9872 14.946 55.2926 17.1306 55.2926 19.4091C55.2926 23.9897 54.0241 28.2883 51.7926 31.9293C49.655 35.4527 46.6248 38.436 43.0309 40.4796V40.5031Z" fill="#D6DEE1"/>
<path d="M9.5815 13.3955L18.4372 22.2512C18.7896 22.6035 19.0479 23.0028 19.2124 23.4491C19.3768 23.872 19.4708 24.3183 19.4708 24.7881V39.2109C19.4708 40.1505 19.0949 41.0666 18.4137 41.7478L9.55801 50.6035C9.08821 51.0733 8.43049 51.2377 7.84324 51.0968C7.44392 51.0028 7.06808 50.7679 6.80969 50.4156C2.93385 45.2948 0.631836 38.929 0.631836 32.023C0.631836 25.1169 2.93385 18.7277 6.80969 13.6304C7.49089 12.7377 8.78284 12.6673 9.55801 13.4424L9.5815 13.3955Z" fill="#EDEFF1"/>
<path d="M8.68848 17.4353C9.01734 17.4353 9.3462 17.3179 9.60459 17.0595C9.86298 16.8011 9.98043 16.4722 9.98043 16.1434C9.98043 15.8145 9.93345 15.7441 9.83949 15.5561L10.7791 14.6165L10.1918 14.0293L9.25224 14.9689C9.06432 14.8749 8.8764 14.828 8.66499 14.828C8.33613 14.828 8.00727 14.9454 7.74889 15.2038C7.4905 15.4622 7.37305 15.791 7.37305 16.1199C7.37305 16.4488 7.4905 16.7776 7.74889 17.036C8.00727 17.2944 8.33613 17.4118 8.66499 17.4118L8.68848 17.4353Z" fill="#D6DEE1"/>
<path d="M8.40707 25.3516C8.66546 25.61 8.99432 25.7274 9.32318 25.7274C9.65204 25.7274 9.9809 25.61 10.2393 25.3516C10.4977 25.0932 10.6151 24.7644 10.6151 24.4355C10.6151 24.1066 10.4977 23.7778 10.2393 23.5194C9.9809 23.261 9.65204 23.1436 9.32318 23.1436C8.99432 23.1436 8.66546 23.261 8.40707 23.5194C8.26613 23.6603 8.14868 23.8483 8.1017 24.0362H1.68895C1.61848 24.3181 1.54801 24.5764 1.47754 24.8583H8.1017C8.17217 25.0462 8.26613 25.2107 8.40707 25.3751V25.3516Z" fill="#D6DEE1"/>
<path d="M4.95407 47.5965L19.4708 33.0798V31.9053L4.53125 46.8449C4.67219 47.1033 4.81313 47.3382 4.95407 47.5731V47.5965Z" fill="#D6DEE1"/>
<path d="M19.4234 24.083L15.3831 28.1233H0.913296C0.889806 28.4052 0.842826 28.6635 0.819336 28.9454H15.1482L2.2992 41.7944C2.39316 42.0763 2.51061 42.3817 2.60457 42.6635L19.4938 25.7743V24.7642C19.4938 24.5293 19.4938 24.3179 19.4234 24.1065V24.083Z" fill="#D6DEE1"/>
<path d="M5.39942 21.1236C5.72828 21.1236 6.05714 21.0061 6.31553 20.7477C6.47996 20.5833 6.57392 20.3954 6.64439 20.2075H13.4565L14.9128 18.7511L14.4196 18.2578L13.1511 19.5263H6.64439C6.59741 19.2914 6.47996 19.1034 6.29204 18.9155C6.03365 18.6571 5.70479 18.5397 5.37593 18.5397C5.04707 18.5397 4.71821 18.6571 4.45982 18.9155C4.20143 19.1739 4.08398 19.5028 4.08398 19.8316C4.08398 20.1605 4.20143 20.4894 4.45982 20.7477C4.71821 21.0061 5.04707 21.1236 5.37593 21.1236H5.39942ZM5.02358 19.4323C5.11754 19.3383 5.25848 19.2679 5.39942 19.2679C5.54036 19.2679 5.6813 19.3149 5.77526 19.4323C5.86922 19.5263 5.93969 19.6672 5.93969 19.8081C5.93969 19.9491 5.89271 20.09 5.77526 20.184C5.6813 20.2779 5.54036 20.3484 5.39942 20.3484C5.25848 20.3484 5.11754 20.3014 5.02358 20.184C4.92962 20.09 4.85915 19.9491 4.85915 19.8081C4.85915 19.6672 4.90613 19.5263 5.02358 19.4323Z" fill="#D6DEE1"/>
<path d="M5.4231 33.3847C5.75196 33.3847 6.08082 33.2672 6.33921 33.0088C6.5976 32.7504 6.71505 32.4216 6.71505 32.0927C6.71505 31.7639 6.5976 31.435 6.33921 31.1766C6.08082 30.9182 5.75196 30.8008 5.4231 30.8008C5.09424 30.8008 4.76538 30.9182 4.50699 31.1766C4.24861 31.435 4.13116 31.7639 4.13116 32.0927C4.13116 32.4216 4.17813 32.539 4.29558 32.727L0.936523 36.086C0.983503 36.3679 1.00699 36.6498 1.05397 36.9317L4.78887 33.1968C4.97679 33.3142 5.21169 33.3612 5.4231 33.3612V33.3847Z" fill="#D6DEE1"/>
<path d="M19.2119 23.4258C19.3764 23.8486 19.4703 24.2949 19.4703 24.7647V39.1875C19.4703 40.1271 19.0945 41.0432 18.4133 41.7244L9.55758 50.5801C9.08778 51.0499 8.43006 51.2144 7.84281 51.0734C7.25556 48.9828 6.9502 46.7983 6.9502 44.5197C6.9502 39.9392 8.21865 35.6405 10.4502 31.9996C12.5878 28.4761 15.618 25.4929 19.2119 23.4493V23.4258Z" fill="#D6DEE1"/>
<path d="M38.0748 36.7208C35.7962 35.3584 33.0479 36.7208 31.1218 38.0832C29.1956 36.7443 26.4473 35.3349 24.1687 36.7208C23.9808 36.8147 24.0513 36.8147 24.1687 36.8147C24.3332 36.8147 24.615 36.8147 24.6855 36.8147C25.8835 36.7913 28.209 37.7308 29.9473 38.9288C28.9372 39.657 27.9506 40.4087 26.8701 40.9959H28.7728C29.0781 40.9959 29.3835 40.902 29.6419 40.7376C30.1117 40.4322 30.5815 40.1033 31.0983 39.751C31.0983 39.751 31.0983 39.751 31.1218 39.751C31.1218 39.751 31.1218 39.751 31.1452 39.751C31.662 40.1033 32.1318 40.4557 32.6016 40.7376C32.86 40.902 33.1654 40.9959 33.4707 40.9959H35.3734C34.2929 40.4087 33.3063 39.6335 32.2962 38.9288C34.0345 37.7543 36.3365 36.7913 37.558 36.8147C37.6285 36.8147 37.9103 36.8147 38.0748 36.8147C38.2157 36.8147 38.2862 36.8147 38.0748 36.7208Z" fill="#EDEFF1"/>
<path d="M28.1859 29.5801C27.2464 30.4962 26.6356 31.5768 26.3537 32.7043L28.7967 30.7546C28.4913 31.9056 28.5383 33.0566 28.8906 34.1372L30.2296 30.8955C30.2766 33.6204 30.5819 34.9828 31.1222 36.815C31.6859 35.0063 31.9678 33.6204 32.0148 30.8955L33.3537 34.1372C33.6826 33.0566 33.7531 31.9056 33.4477 30.7546L35.8906 32.7043C35.6088 31.5768 34.9745 30.4962 34.0584 29.5801L37.3 30.3553C36.4779 29.5331 35.4208 28.8519 34.1994 28.4056L37.2531 27.8419C36.1021 27.4425 34.8571 27.2546 33.5651 27.3251L36.1255 25.5164C34.9276 25.6103 33.7766 25.9157 32.696 26.4559L34.2933 24.013C33.3772 24.3888 32.5316 24.9526 31.8034 25.6808C31.6625 24.7647 31.451 23.919 31.1222 23.0029C30.7933 23.919 30.5819 24.7882 30.441 25.6808C29.7363 24.9526 28.8906 24.3888 27.951 24.013L29.5484 26.4559C28.4678 25.9157 27.3168 25.6103 26.1188 25.5164L28.6792 27.3251C27.3873 27.2546 26.1423 27.4425 24.9913 27.8419L28.0215 28.4056C26.8 28.8519 25.7665 29.5331 24.9443 30.3553L28.1859 29.5801Z" fill="#EDEFF1"/>
</svg>
