<svg width="154" height="84" viewBox="0 0 154 84" fill="none" xmlns="http://www.w3.org/2000/svg">
<g clip-path="url(#clip0_9_122088)">
<path d="M21.609 60.0369C20.8367 60.6475 20.4452 61.573 20.4452 62.7857C20.4452 63.5665 20.692 64.3729 21.1686 64.9814H17.5858V60.0518H16.5688V64.9814H6.57143V59.4965L6.17996 59.4029C6.07571 59.3795 3.58435 58.8115 2.03975 60.0369C1.26745 60.6475 0.875977 61.573 0.875977 62.7857C0.875977 64.3431 1.85891 65.9983 3.68222 65.9983H6.06508H6.57356H23.2536H25.6364H26.1449V59.4944L25.7534 59.4008C25.6449 59.3795 23.1536 58.8115 21.609 60.0369ZM5.55446 64.9814H3.68009C2.36952 64.9814 1.89295 63.6687 1.89295 62.7857C1.89295 61.8879 2.14613 61.2496 2.66738 60.8348C3.23543 60.3816 4.03326 60.2667 4.69919 60.2667C5.03109 60.2667 5.3332 60.2965 5.55446 60.3263V64.9814ZM23.2493 64.9814C21.9387 64.9814 21.4622 63.6687 21.4622 62.7857C21.4622 61.8879 21.7153 61.2496 22.2366 60.8348C22.8047 60.3816 23.6025 60.2667 24.2684 60.2667C24.6003 60.2667 24.9003 60.2965 25.1237 60.3263V64.9814H23.2493Z" fill="#EDEFF1"/>
<path d="M45.9839 64.9819H42.4884V54.8867H41.4714V64.9819H37.978V60.0524H36.961V64.9819H30.3592V60.0524H29.3422V67.335C29.3422 67.8371 29.2082 68.1882 28.9295 68.4094C28.3891 68.8349 27.3806 68.7158 27.0402 68.635L26.7998 69.6221C26.8338 69.6306 27.253 69.7306 27.7934 69.7306C28.3487 69.7306 29.0316 69.6264 29.5592 69.2115C30.0933 68.7924 30.3635 68.1626 30.3635 67.3371V66.0032H47.0052V54.891H45.9882L45.9839 64.9819Z" fill="#EDEFF1"/>
<path d="M75.0467 59.2526C73.1447 59.2526 72.1788 60.3887 72.1788 62.6268C72.1788 63.6396 72.3787 64.4246 72.7723 64.982H58.9582V59.4972L58.5667 59.4036C58.4624 59.3802 55.9711 58.8121 54.4265 60.0376C53.6542 60.6482 53.2627 61.5737 53.2627 62.7864C53.2627 64.3438 54.2456 65.999 56.0689 65.999H58.4518H58.9582H75.0488C76.9487 65.999 77.9104 64.8629 77.9104 62.6247C77.9104 60.3865 76.9466 59.2526 75.0467 59.2526ZM57.9412 64.982H56.0668C54.7562 64.982 54.2797 63.6693 54.2797 62.7864C54.2797 61.8886 54.5328 61.2503 55.0541 60.8355C55.6221 60.3823 56.42 60.2674 57.0859 60.2674C57.4178 60.2674 57.7178 60.2972 57.9412 60.327V64.982ZM75.0467 64.982C74.151 64.982 73.1979 64.7991 73.1979 62.6268C73.1979 60.4546 74.1531 60.2717 75.0467 60.2717C75.9381 60.2717 76.8913 60.4546 76.8913 62.6268C76.8913 64.7991 75.9403 64.982 75.0467 64.982Z" fill="#EDEFF1"/>
<path d="M97.0478 64.9818H92.5736C93.3735 64.3414 94.1309 63.3563 94.1309 61.9032C94.1309 60.7331 93.4778 59.8033 92.3395 59.3544C90.7247 58.7183 88.4483 59.1565 87.3696 60.3139L87.1377 60.5629L89.1674 64.9839H81.7465V54.8887H80.7295V66.0009H98.0669V54.8887H97.0499V64.9818H97.0478ZM88.3568 60.782C89.2418 60.099 90.8566 59.8629 91.9651 60.2969C92.7268 60.5969 93.114 61.1373 93.114 61.9011C93.114 63.9861 90.9226 64.8371 90.5098 64.9797H90.2865L88.3568 60.782Z" fill="#EDEFF1"/>
<path d="M102.107 54.8887H101.09V66.1562H102.107V54.8887Z" fill="#EDEFF1"/>
<path d="M153.206 54.8887H152.189V66.1562H153.206V54.8887Z" fill="#EDEFF1"/>
<path d="M148.269 64.9818H144.839V62.7861C144.839 61.5734 144.448 60.648 143.675 60.0373C142.129 58.8119 139.639 59.3799 139.535 59.4033L139.144 59.4969V64.9818H132.64V60.0522H131.623V64.9818H125.134V60.0522H124.117V64.9818H114.145V59.4969L113.753 59.4033C113.649 59.3799 111.158 58.8119 109.611 60.0373C108.839 60.648 108.447 61.5734 108.447 62.7861C108.447 64.3435 109.43 65.9987 111.254 65.9987H113.638H114.147H139.148V66.7817C139.148 69.3688 140.778 69.9113 142.143 69.9113C143.039 69.9113 143.722 69.6815 144.175 69.2262C144.85 68.5497 144.845 67.5902 144.845 66.8881V65.9987H149.294V54.8887H148.277L148.269 64.9818ZM113.124 64.9818H111.249C109.939 64.9818 109.462 63.6691 109.462 62.7861C109.462 61.8883 109.715 61.2501 110.237 60.8352C110.805 60.382 111.602 60.2671 112.268 60.2671C112.6 60.2671 112.9 60.2969 113.124 60.3267V64.9818ZM140.158 60.3288C140.826 60.2373 142.192 60.1586 143.046 60.8373C143.567 61.2522 143.82 61.8904 143.82 62.7883V64.9839H140.156L140.158 60.3288ZM143.82 66.8923C143.822 67.4731 143.824 68.1327 143.448 68.5093C143.192 68.7667 142.752 68.8943 142.137 68.8943C140.397 68.8943 140.158 67.8795 140.158 66.7817V65.9987H143.822V66.8923H143.82Z" fill="#EDEFF1"/>
<path d="M15.8203 67.5947C15.4118 67.5947 15.082 67.9245 15.082 68.333C15.082 68.7415 15.4118 69.0712 15.8203 69.0712C16.2288 69.0712 16.5586 68.7415 16.5586 68.333C16.5586 67.9266 16.2267 67.5947 15.8203 67.5947Z" fill="#EDEFF1"/>
<path d="M18.3369 67.5947C17.9284 67.5947 17.5986 67.9245 17.5986 68.333C17.5986 68.7415 17.9284 69.0712 18.3369 69.0712C18.7454 69.0712 19.0752 68.7415 19.0752 68.333C19.0752 67.9266 18.7454 67.5947 18.3369 67.5947Z" fill="#EDEFF1"/>
<path d="M130.869 67.5947C130.461 67.5947 130.131 67.9245 130.131 68.333C130.131 68.7415 130.461 69.0712 130.869 69.0712C131.278 69.0712 131.607 68.7415 131.607 68.333C131.607 67.9266 131.278 67.5947 130.869 67.5947Z" fill="#EDEFF1"/>
<path d="M133.387 67.5947C132.978 67.5947 132.648 67.9245 132.648 68.333C132.648 68.7415 132.978 69.0712 133.387 69.0712C133.795 69.0712 134.125 68.7415 134.125 68.333C134.127 67.9266 133.795 67.5947 133.387 67.5947Z" fill="#EDEFF1"/>
<path d="M36.2099 58.0058C36.6184 58.0058 36.9482 57.676 36.9482 57.2676C36.9482 56.8591 36.6184 56.5293 36.2099 56.5293C35.8015 56.5293 35.4717 56.8591 35.4717 57.2676C35.4717 57.6739 35.8036 58.0058 36.2099 58.0058Z" fill="#EDEFF1"/>
<path d="M38.7295 58.0058C39.138 58.0058 39.4677 57.676 39.4677 57.2676C39.4677 56.8591 39.138 56.5293 38.7295 56.5293C38.321 56.5293 37.9912 56.8591 37.9912 57.2676C37.9891 57.6739 38.321 58.0058 38.7295 58.0058Z" fill="#EDEFF1"/>
<path d="M55.0459 57.4824C55.4544 57.4824 55.7841 57.1526 55.7841 56.7441C55.7841 56.3356 55.4544 56.0059 55.0459 56.0059C54.6374 56.0059 54.3076 56.3356 54.3076 56.7441C54.3076 57.1505 54.6374 57.4824 55.0459 57.4824Z" fill="#EDEFF1"/>
<path d="M23.4131 57.4824C23.8216 57.4824 24.1513 57.1526 24.1513 56.7441C24.1513 56.3356 23.8216 56.0059 23.4131 56.0059C23.0046 56.0059 22.6748 56.3356 22.6748 56.7441C22.6748 57.1505 23.0067 57.4824 23.4131 57.4824Z" fill="#EDEFF1"/>
<path d="M57.5625 57.4824C57.971 57.4824 58.3007 57.1526 58.3007 56.7441C58.3007 56.3356 57.971 56.0059 57.5625 56.0059C57.154 56.0059 56.8242 56.3356 56.8242 56.7441C56.8242 57.1505 57.154 57.4824 57.5625 57.4824Z" fill="#EDEFF1"/>
<path d="M110.187 57.4824C110.596 57.4824 110.926 57.1526 110.926 56.7441C110.926 56.3356 110.596 56.0059 110.187 56.0059C109.779 56.0059 109.449 56.3356 109.449 56.7441C109.447 57.1505 109.781 57.4824 110.187 57.4824Z" fill="#EDEFF1"/>
<path d="M112.704 57.4824C113.113 57.4824 113.442 57.1526 113.442 56.7441C113.442 56.3356 113.113 56.0059 112.704 56.0059C112.296 56.0059 111.966 56.3356 111.966 56.7441C111.966 57.1505 112.296 57.4824 112.704 57.4824Z" fill="#EDEFF1"/>
<path d="M125.469 58.146C125.552 58.146 125.606 58.1438 125.614 58.1417L125.595 57.8396V57.546H125.357C125.006 57.5332 124.448 57.4545 124.142 57.1652C123.984 57.0162 123.906 56.8248 123.906 56.5801C123.906 56.4418 123.948 56.3397 124.042 56.2588C124.363 55.978 125.155 56.012 125.408 56.0461L125.489 55.4546C125.361 55.4376 124.233 55.2993 123.65 55.8078C123.427 56.0035 123.31 56.2695 123.31 56.5801C123.31 56.9652 123.44 57.2886 123.686 57.546H123.067V58.1438H125.331C125.384 58.1438 125.431 58.146 125.469 58.146Z" fill="#EDEFF1"/>
<path d="M4.05886 79.0874H5.93111V81.0511C5.52049 81.3574 4.95669 81.5383 4.41204 81.5383C2.91637 81.5383 1.95046 80.3575 1.95046 78.5299V78.4767C1.95046 76.7534 2.95466 75.5024 4.33757 75.5024C5.02903 75.5024 5.55028 75.7024 6.08216 76.1726L6.16088 76.2407L6.76085 75.4407L6.68852 75.3812C5.98217 74.8025 5.28433 74.5557 4.35885 74.5557C2.36959 74.5557 0.922852 76.2024 0.922852 78.4725V78.547C0.922852 80.883 2.31214 82.4531 4.38012 82.4531C5.57794 82.4531 6.44598 81.8893 6.85872 81.5553L6.89489 81.5255V78.1725H4.05886V79.0874Z" fill="#EDEFF1"/>
<path d="M10.4505 76.4746C9.06119 76.4746 8.05273 77.732 8.05273 79.4617V79.5149C8.05273 81.2276 9.13353 82.4679 10.6228 82.4679C11.41 82.4679 12.0227 82.202 12.6078 81.6041L12.6716 81.5403L12.1036 80.9042L12.0313 80.9765C11.6121 81.3956 11.1739 81.5914 10.6547 81.5914C9.78669 81.5914 9.1463 80.9042 9.03566 79.8681H12.7631L12.7738 79.7829C12.7844 79.6808 12.7844 79.5298 12.7844 79.4511C12.7844 77.6426 11.8674 76.4746 10.4505 76.4746ZM10.4505 77.3426C11.3568 77.3426 11.7462 78.2532 11.8121 79.0766H9.03354C9.13353 78.0341 9.69308 77.3426 10.4505 77.3426Z" fill="#EDEFF1"/>
<path d="M16.4562 76.4746C15.8094 76.4746 15.2903 76.7384 14.9052 77.2597V76.5831H13.9414V82.353H14.9052V78.8638C14.9052 77.983 15.4456 77.3661 16.2221 77.3661C16.9881 77.3661 17.4093 77.883 17.4093 78.8213V82.353H18.3731V78.6064C18.3731 77.2916 17.6391 76.4746 16.4562 76.4746Z" fill="#EDEFF1"/>
<path d="M21.8938 76.4746C20.5046 76.4746 19.4961 77.732 19.4961 79.4617V79.5149C19.4961 81.2276 20.5769 82.47 22.0662 82.47C22.8534 82.47 23.4661 82.202 24.0512 81.6063L24.115 81.5424L23.547 80.9063L23.4746 80.9786C23.0555 81.3978 22.6172 81.5914 22.0981 81.5914C21.23 81.5914 20.5897 80.9042 20.479 79.8681H24.2065L24.2171 79.7829C24.2278 79.6808 24.2278 79.5319 24.2278 79.4511C24.2256 77.6426 23.3108 76.4746 21.8938 76.4746ZM20.479 79.0745C20.5769 78.032 21.1386 77.3405 21.8938 77.3405C22.8002 77.3405 23.1895 78.2511 23.2576 79.0745H20.479Z" fill="#EDEFF1"/>
<path d="M26.3476 77.511V76.5813H25.3838V82.3512H26.3476V79.6003C26.3476 78.3259 27.0284 77.5344 28.1241 77.5344H28.2624V76.5111L28.1709 76.5068C27.4199 76.4749 26.7603 76.8408 26.3476 77.511Z" fill="#EDEFF1"/>
<path d="M30.8961 76.5068C30.1387 76.5068 29.5621 76.7387 29.0983 76.9664L29.0175 77.0068L29.3366 77.8217L29.4324 77.7706C29.8877 77.5302 30.3515 77.4068 30.811 77.4068C31.6663 77.4068 32.1386 77.8621 32.1386 78.6897V78.8918C31.779 78.7876 31.3642 78.7003 30.8004 78.7003C29.4728 78.7003 28.6494 79.4258 28.6494 80.596V80.6385C28.6494 81.8406 29.5983 82.4682 30.5323 82.4682C31.3216 82.4682 31.8259 82.1108 32.1386 81.7364V82.3491H33.0917V78.6663C33.0917 78.0025 32.896 77.4578 32.5279 77.0898C32.1407 76.7026 31.5897 76.5068 30.8961 76.5068ZM32.1492 79.6897V80.3173C32.1492 80.6619 32.0152 80.9832 31.7705 81.2236C31.5025 81.4896 31.1323 81.6342 30.7259 81.6342C30.077 81.6491 29.6111 81.2151 29.6111 80.596V80.5641C29.6111 79.8939 30.0919 79.4939 30.894 79.4939C31.345 79.4939 31.7663 79.5599 32.1492 79.6897Z" fill="#EDEFF1"/>
<path d="M35.5321 74.4307H34.5684V82.3515H35.5321V74.4307Z" fill="#EDEFF1"/>
<path d="M44.8977 82.3507V81.4189H41.0766V78.936H44.4594V78.0169H41.0766V75.5979H44.8466V74.666H40.083V82.3507H44.8977Z" fill="#EDEFF1"/>
<path d="M48.6564 76.4746C48.0096 76.4746 47.4883 76.7384 47.1054 77.2597V76.5831H46.1416V82.353H47.1054V78.8638C47.1054 77.983 47.6479 77.3661 48.4223 77.3661C49.1883 77.3661 49.6095 77.883 49.6095 78.8213V82.353H50.5733V78.6064C50.5712 77.2916 49.8372 76.4746 48.6564 76.4746Z" fill="#EDEFF1"/>
<path d="M53.1841 74.9561H52.2203V76.5836H51.5459V77.4623H52.2203V80.9621C52.2203 81.9153 52.748 82.4387 53.7075 82.4387C54.0181 82.4387 54.2968 82.3748 54.584 82.2365L54.6394 82.211V81.3408L54.5053 81.3983C54.2798 81.494 54.0798 81.5408 53.8905 81.5408C53.4075 81.5408 53.1841 81.3153 53.1841 80.8345V77.4644H54.6394V76.5858H53.1841V74.9561Z" fill="#EDEFF1"/>
<path d="M57.7562 76.4746C56.3669 76.4746 55.3584 77.732 55.3584 79.4617V79.5149C55.3584 81.2276 56.4392 82.47 57.9285 82.47C58.7157 82.47 59.3284 82.202 59.9135 81.6063L59.9773 81.5424L59.4093 80.9063L59.3369 80.9786C58.9178 81.3978 58.4795 81.5914 57.9604 81.5914C57.0924 81.5914 56.452 80.9042 56.3413 79.8681H60.0688L60.0794 79.7829C60.0901 79.6808 60.0901 79.5298 60.0901 79.4511C60.0901 77.6426 59.1731 76.4746 57.7562 76.4746ZM56.3392 79.0745C56.4371 78.032 56.9987 77.3405 57.754 77.3405C58.6604 77.3405 59.0497 78.2511 59.1157 79.0745H56.3392Z" fill="#EDEFF1"/>
<path d="M62.2089 77.5108V76.581H61.2451V82.351H62.2089V79.6C62.2089 78.3256 62.8897 77.5342 63.9854 77.5342H64.1237V76.5108L64.0322 76.5066C63.2748 76.4768 62.6216 76.8406 62.2089 77.5108Z" fill="#EDEFF1"/>
<path d="M66.3199 74.9561H65.3561V76.5836H64.6816V77.4623H65.3561V80.9621C65.3561 81.9153 65.8837 82.4387 66.8432 82.4387C67.1539 82.4387 67.4326 82.3748 67.7198 82.2365L67.7751 82.211V81.3408L67.6411 81.3983C67.4155 81.494 67.2156 81.5408 67.0262 81.5408C66.5433 81.5408 66.3199 81.3153 66.3199 80.8345V77.4644H67.7751V76.5858H66.3199V74.9561Z" fill="#EDEFF1"/>
<path d="M70.8151 76.5068C70.0576 76.5068 69.4811 76.7387 69.0173 76.9664L68.9364 77.0068L69.2556 77.8217L69.3513 77.7706C69.8066 77.5302 70.2704 77.4068 70.7299 77.4068C71.5852 77.4068 72.0575 77.8621 72.0575 78.6897V78.8918C71.698 78.7876 71.2831 78.7003 70.7193 78.7003C69.3917 78.7003 68.5684 79.4258 68.5684 80.596V80.6385C68.5684 81.8406 69.5172 82.4682 70.4512 82.4682C71.2406 82.4682 71.7448 82.1108 72.0575 81.7364V82.3491H73.0107V78.6663C73.0107 78.0025 72.8149 77.4578 72.4469 77.0898C72.0575 76.7026 71.5086 76.5068 70.8151 76.5068ZM72.066 79.6897V80.3173C72.066 80.6619 71.932 80.9832 71.6873 81.2236C71.415 81.4917 71.0321 81.6257 70.6214 81.6342C69.9789 81.6342 69.53 81.2066 69.53 80.596V80.5641C69.53 79.8939 70.0108 79.4939 70.8129 79.4939C71.264 79.4939 71.6852 79.5599 72.066 79.6897Z" fill="#EDEFF1"/>
<path d="M75.453 76.5811H74.4893V82.351H75.453V76.5811Z" fill="#EDEFF1"/>
<path d="M75.4932 74.5283H74.4443V75.6304H75.4932V74.5283Z" fill="#EDEFF1"/>
<path d="M79.5275 76.4746C78.8807 76.4746 78.3616 76.7384 77.9765 77.2597V76.5831H77.0127V82.353H77.9765V78.8638C77.9765 77.983 78.5169 77.3661 79.2934 77.3661C80.0593 77.3661 80.4806 77.883 80.4806 78.8213V82.353H81.4444V78.6064C81.4465 77.2916 80.7104 76.4746 79.5275 76.4746Z" fill="#EDEFF1"/>
<path d="M88.552 76.4746C87.8457 76.4746 87.2882 76.7746 86.8521 77.3937C86.533 76.798 85.9862 76.4746 85.2968 76.4746C84.5543 76.4746 84.1139 76.8597 83.831 77.2448V76.5831H82.8672V82.353H83.831V78.8638C83.831 77.9958 84.3437 77.3661 85.0501 77.3661C85.767 77.3661 86.1628 77.8788 86.1628 78.8107V82.353H87.1265V78.8532C87.1265 77.9639 87.6159 77.3661 88.3456 77.3661C89.0626 77.3661 89.4583 77.883 89.4583 78.8213V82.353H90.4221V78.617C90.4264 77.2937 89.7094 76.4746 88.552 76.4746Z" fill="#EDEFF1"/>
<path d="M93.969 76.4746C92.5797 76.4746 91.5713 77.732 91.5713 79.4617V79.5149C91.5713 81.2276 92.6521 82.47 94.1414 82.47C94.9286 82.47 95.5413 82.202 96.1264 81.6063L96.1902 81.5424L95.6243 80.9063L95.5519 80.9786C95.1328 81.3978 94.6945 81.5914 94.1754 81.5914C93.3074 81.5914 92.667 80.9042 92.5585 79.8681H96.2859L96.2966 79.7829C96.3072 79.6808 96.3072 79.5319 96.3072 79.4511C96.303 77.6426 95.3881 76.4746 93.969 76.4746ZM92.5542 79.0745C92.6521 78.032 93.2138 77.3405 93.969 77.3405C94.8732 77.3405 95.2647 78.2511 95.3328 79.0745H92.5542Z" fill="#EDEFF1"/>
<path d="M99.9747 76.4746C99.328 76.4746 98.8067 76.7384 98.4237 77.2597V76.5831H97.46V82.353H98.4237V78.8638C98.4237 77.983 98.9641 77.3661 99.7407 77.3661C100.507 77.3661 100.928 77.883 100.928 78.8213V82.353H101.892V78.6064C101.892 77.2916 101.156 76.4746 99.9747 76.4746Z" fill="#EDEFF1"/>
<path d="M104.504 74.9561H103.541V76.5836H102.866V77.4623H103.541V80.9621C103.541 81.9153 104.068 82.4387 105.028 82.4387C105.338 82.4387 105.615 82.3748 105.904 82.2365L105.96 82.211V81.3408L105.826 81.3983C105.6 81.494 105.4 81.5408 105.211 81.5408C104.728 81.5408 104.504 81.3153 104.504 80.8345V77.4644H105.96V76.5858H104.504V74.9561Z" fill="#EDEFF1"/>
<path d="M112.444 74.624L109.564 82.2215L109.513 82.3534H110.545L111.272 80.3833H114.508L115.236 82.3534H116.3L113.368 74.624H112.444ZM114.17 79.4621H111.613L112.896 76.0346L114.17 79.4621Z" fill="#EDEFF1"/>
<path d="M120.612 80.083C120.612 80.9596 120.072 81.5702 119.295 81.5702C118.53 81.5702 118.108 81.0532 118.108 80.1149V76.5832H117.145V80.3404C117.145 81.6489 117.879 82.4595 119.061 82.4595C119.71 82.4595 120.229 82.1957 120.612 81.6744V82.351H121.576V76.5811H120.612V80.083Z" fill="#EDEFF1"/>
<path d="M124.287 74.9561H123.323V76.5836H122.648V77.4623H123.323V80.9621C123.323 81.9153 123.851 82.4387 124.81 82.4387C125.116 82.4387 125.404 82.3727 125.687 82.2365L125.742 82.211V81.3408L125.608 81.3983C125.382 81.494 125.182 81.5408 124.993 81.5408C124.51 81.5408 124.287 81.3153 124.287 80.8345V77.4644H125.742V76.5858H124.287V74.9561Z" fill="#EDEFF1"/>
<path d="M129.414 76.4751C128.767 76.4751 128.248 76.7389 127.863 77.2601V74.4326H126.899V82.3535H127.863V78.8643C127.863 77.9835 128.404 77.3665 129.18 77.3665C129.946 77.3665 130.367 77.8835 130.367 78.8218V82.3535H131.331V78.6069C131.329 77.292 130.595 76.4751 129.414 76.4751Z" fill="#EDEFF1"/>
<path d="M135.033 76.4746C133.563 76.4746 132.452 77.749 132.452 79.4404V79.5149C132.452 81.1999 133.556 82.47 135.02 82.47C136.49 82.47 137.601 81.1893 137.601 79.4936V79.4298C137.603 77.7448 136.499 76.4746 135.033 76.4746ZM136.629 79.4511V79.5042C136.629 80.6872 135.943 81.5807 135.035 81.5807C134.127 81.5807 133.439 80.6829 133.439 79.4936V79.4404C133.439 78.2384 134.105 77.3661 135.022 77.3661C135.939 77.3639 136.629 78.2596 136.629 79.4511Z" fill="#EDEFF1"/>
<path d="M139.767 77.511V76.5813H138.803V82.3512H139.767V79.6003C139.767 78.3259 140.447 77.5344 141.543 77.5344H141.681V76.5111L141.59 76.5068C140.839 76.4749 140.179 76.8408 139.767 77.511Z" fill="#EDEFF1"/>
<path d="M143.736 74.5283H142.688V75.6304H143.736V74.5283Z" fill="#EDEFF1"/>
<path d="M143.694 76.5811H142.73V82.351H143.694V76.5811Z" fill="#EDEFF1"/>
<path d="M146.466 74.9561H145.503V76.5836H144.828V77.4623H145.503V80.9621C145.503 81.9153 146.03 82.4387 146.99 82.4387C147.296 82.4387 147.583 82.3727 147.866 82.2365L147.922 82.211V81.3408L147.788 81.3983C147.562 81.494 147.362 81.5408 147.173 81.5408C146.69 81.5408 146.466 81.3153 146.466 80.8345V77.4644H147.922V76.5858H146.466V74.9561Z" fill="#EDEFF1"/>
<path d="M152.605 76.5811L151.171 80.9723L149.573 76.5811H148.53L150.709 82.2531C150.426 82.968 150.179 83.1105 149.849 83.1105C149.622 83.1105 149.405 83.0488 149.169 82.919L149.071 82.8658L148.766 83.6913L148.841 83.7318C149.179 83.9126 149.524 83.9998 149.892 83.9998C150.72 83.9998 151.217 83.5318 151.609 82.3829L153.632 76.5811H152.605Z" fill="#EDEFF1"/>
<path d="M104.56 11.1758H112.737L125.764 41.9976H116.67L114.441 36.5319H102.637L100.45 41.9976H91.5312L104.56 11.1758ZM111.992 29.9323L108.581 21.2306L105.126 29.9323H111.992Z" fill="#EDEFF1"/>
<path d="M28.7471 26.7835V26.6963C28.7471 17.7776 35.7425 10.7822 45.2292 10.7822C50.6077 10.7822 54.4096 12.4438 57.6456 15.2416L52.6608 21.2306C50.4736 19.3946 48.2886 18.3457 45.2718 18.3457C40.855 18.3457 37.4466 22.0625 37.4466 26.7389V26.8261C37.4466 31.7663 40.8996 35.3086 45.7547 35.3086C47.8099 35.3086 49.3843 34.8725 50.6502 34.0406V30.3238H44.6165V24.1156H58.6945V37.8872C55.4585 40.5531 50.9566 42.6083 45.4037 42.6083C35.8744 42.6104 28.7471 36.0512 28.7471 26.7835Z" fill="#EDEFF1"/>
<path d="M89.6072 34.707H64.7744V41.9981H89.6072V34.707Z" fill="#EDEFF1"/>
<path d="M87.4272 16.7055C86.4825 19.182 82.8061 24.1435 77.8617 24.1435C74.4193 24.1435 72.2237 22.2116 72.2237 22.2116L92.0525 11.2037C92.0525 11.2037 88.0995 0 76.249 0C68.4281 0 61.7051 7.18687 61.7051 15.7354C61.7051 25.2157 69.9217 31.4622 77.8596 31.4622C87.157 31.4622 93.5056 22.9393 94.0162 19.0586L87.4272 16.7055ZM77.0575 7.18687C80.5297 7.18687 82.1509 9.36123 82.1509 9.36123L69.1302 16.6204C68.5111 13.7908 70.3876 7.18687 77.0575 7.18687Z" fill="#EDEFF1"/>
</g>
<defs>
<clipPath id="clip0_9_122088">
<rect width="152.756" height="84" fill="white" transform="translate(0.875977)"/>
</clipPath>
</defs>
</svg>
