<svg width="87" height="84" viewBox="0 0 87 84" fill="none" xmlns="http://www.w3.org/2000/svg">
<path d="M9.08911 73.2979V80.2564C9.08911 81.4162 8.72462 82.3274 8.01219 82.9902C7.2832 83.6695 6.30568 84.0008 5.04651 84.0008C3.78734 84.0008 2.84296 83.6694 2.11397 83.0233C1.38497 82.3771 1.02047 81.4825 1.00391 80.3393V73.3144H3.17432V80.273C3.17432 80.9689 3.34 81.4659 3.67136 81.7807C4.00272 82.0955 4.46663 82.2612 5.04651 82.2612C6.27255 82.2612 6.88556 81.615 6.90213 80.3393V73.3144H9.08911V73.2979Z" fill="white"/>
<path d="M19.4446 83.8517H17.2741L13.0327 76.9097V83.8517H10.8623V73.2979H13.0327L17.2741 80.2564V73.2979H19.4446V83.8517Z" fill="white"/>
<path d="M25.2769 80.1733H21.2012V78.4834H25.2769V80.1733Z" fill="white"/>
<path d="M35.6975 83.8517H33.5105V79.3286H29.269V83.8517H27.0986V73.2979H29.269V77.5724H33.5105V73.2979H35.6975V83.8517Z" fill="white"/>
<path d="M43.6834 81.6813H39.8727L39.1437 83.8517H36.8242L40.7508 73.2979H42.7721L46.7153 83.8517H44.3958L43.6668 81.6813H43.6834ZM40.4526 79.9251H43.0869L41.7615 75.9819L40.4526 79.9251Z" fill="white"/>
<path d="M47.7109 83.8517V73.2979H51.4056C52.6813 73.2979 53.6588 73.5464 54.3216 74.0268C54.9843 74.5239 55.3156 75.2363 55.3156 76.1807C55.3156 76.6943 55.1831 77.1582 54.918 77.5393C54.6529 77.9369 54.2884 78.2186 53.808 78.4008C54.3547 78.5334 54.7689 78.815 55.0837 79.2126C55.3985 79.6103 55.5476 80.1239 55.5476 80.7203C55.5476 81.731 55.2162 82.5097 54.5701 83.0233C53.9239 83.5535 52.9961 83.8186 51.8032 83.8186H47.6943L47.7109 83.8517ZM49.8813 77.7215H51.4884C52.5819 77.705 53.1287 77.2576 53.1287 76.4126C53.1287 75.9322 52.9961 75.5842 52.7145 75.3854C52.4328 75.17 52.002 75.0706 51.4056 75.0706H49.8813V77.7381V77.7215ZM49.8813 79.2624V82.1121H51.7369C52.2506 82.1121 52.6482 81.9961 52.9298 81.7476C53.2115 81.499 53.3606 81.1677 53.3606 80.7369C53.3606 79.776 52.8636 79.2789 51.8529 79.2624H49.8648H49.8813Z" fill="white"/>
<path d="M59.5063 83.8517H57.3193V73.2979H59.5063V83.8517Z" fill="white"/>
<path d="M69.2482 75.0541H66.0175V83.8517H63.847V75.0541H60.6494V73.2979H69.2482V75.0541Z" fill="white"/>
<path d="M75.5769 81.6813H71.7663L71.0373 83.8517H68.7178L72.6444 73.2979H74.6657L78.6089 83.8517H76.2894L75.5604 81.6813H75.5769ZM72.3462 79.9251H74.9805L73.6551 75.9819L72.3462 79.9251Z" fill="white"/>
<path d="M86.6779 75.0541H83.4472V83.8517H81.2767V75.0541H78.0791V73.2979H86.6779V75.0541Z" fill="white"/>
<path d="M32.7656 66.7201C35.5325 62.9592 43.5514 58.7012 51.3218 58.7012C59.0922 58.7012 67.8733 63.2077 71.1372 60.7059C71.1372 60.7059 67.6248 63.7213 60.5999 63.7213C53.5751 63.7213 50.8248 60.2089 46.0532 60.2089C41.2816 60.2089 36.0295 63.9698 34.0082 67.2337L32.749 66.7367L32.7656 66.7201Z" fill="white"/>
<path d="M57.6006 58.1865C57.6006 58.1865 59.8538 56.9274 61.113 54.4256C62.3722 51.9238 65.6195 47.8978 68.6349 45.6445C68.6349 45.6445 65.1225 56.6789 61.3615 57.1759C61.3615 57.1759 60.8645 57.4244 61.8586 57.4244C62.8692 57.1759 67.6243 55.6682 69.3805 55.4197C71.1367 55.1712 75.1461 54.1605 76.1568 53.1664C77.1674 52.1558 77.6645 52.4209 77.6645 52.4209C77.6645 52.4209 73.158 59.9428 64.874 59.9428C65.1225 59.4457 61.113 59.1972 57.6006 58.1865Z" fill="white"/>
<path d="M67.377 54.426C67.377 54.426 68.1225 53.1668 68.3876 50.9136C68.6361 48.6603 69.8953 43.6402 73.9048 38.123C73.9048 38.123 74.4018 46.9041 70.1438 52.1728C70.1438 52.1728 69.8953 52.9183 70.3923 52.4213C70.8894 51.9242 73.9048 48.6603 79.919 44.6509C79.919 44.6509 83.1829 42.1491 83.1829 41.387C83.1829 41.1384 80.6811 53.4319 67.377 54.426Z" fill="white"/>
<path d="M75.147 46.1579C75.147 46.1579 75.3955 44.6502 75.3955 43.6561C75.3955 42.397 74.8984 38.3875 74.8984 36.6313C74.8984 34.8751 75.147 31.3626 76.4061 29.1094C76.4061 29.1094 76.4061 31.1141 76.9032 32.1248C77.4002 33.1354 77.9138 36.6313 77.9138 37.1449C77.9138 37.6585 77.9138 40.6573 76.9032 42.165C76.9032 42.165 77.4002 41.9165 78.1623 40.6573C78.9079 39.3981 80.4156 37.3934 82.6688 34.8916C84.9221 32.6384 85.6842 30.3851 85.6842 30.3851C85.6842 30.3851 86.1813 34.3946 83.1825 38.6526C80.1671 42.9106 78.9245 42.165 77.1683 43.9212C77.1683 43.9212 75.412 46.1745 75.1635 46.1745" fill="white"/>
<path d="M79.9191 36.3663C79.9191 36.3663 79.9191 33.8645 79.422 33.1024C78.925 32.3568 76.1581 27.3367 76.6552 21.3225C76.6552 21.3225 77.1522 20.8255 77.9144 23.3272C78.6599 25.829 79.9191 26.5911 80.4161 28.8444C80.9132 31.3462 80.9132 32.3568 80.9132 32.3568C80.9132 32.3568 81.1617 32.6053 81.1617 32.3568C81.1617 32.1083 81.4102 28.8444 82.9179 25.829C84.4256 22.8136 86.1818 20.0633 85.9333 18.0586C85.9333 18.0586 86.6789 18.0586 86.6789 21.3225C86.4303 24.5864 85.6682 30.1036 79.9025 36.3663" fill="white"/>
<path d="M81.4101 26.5923C81.4101 26.5923 80.3994 24.339 79.6539 23.5769C78.9083 22.8313 74.1367 16.055 73.6396 13.0396C73.6396 13.0396 74.1367 12.7911 74.3852 13.5367C74.8823 14.2822 77.1521 16.552 77.6491 16.8006C78.1462 17.0491 80.3994 19.5674 80.6645 22.3177C80.6645 22.3177 80.913 22.5662 80.416 18.0597C79.9189 13.5532 81.9237 10.5378 80.416 7.52246C80.416 7.52246 82.6692 7.77098 83.9284 17.0491C83.9284 17.0491 83.9284 20.313 82.1722 24.3225C82.1722 24.571 81.6752 26.5757 81.4266 26.5757" fill="white"/>
<path d="M79.6525 16.5516C79.6525 16.5516 77.8963 14.7954 76.3886 13.7847C74.8809 13.0391 70.3744 8.51606 69.6123 5.25216C69.6123 5.25216 69.8608 5.00364 71.3685 6.75985C72.3792 8.26754 73.6218 7.50541 76.8857 11.5314C76.8857 11.5314 77.3827 12.5421 77.6312 12.277C77.8798 12.277 77.6312 11.2664 77.6312 11.2664C77.6312 11.2664 76.8857 8.76458 76.8857 7.75393C76.8857 6.74328 75.378 1.98825 75.1295 1.49121C75.1295 1.49121 79.636 3.99299 80.1496 11.0178C80.1496 11.0178 79.9011 16.2865 79.6525 16.535" fill="white"/>
<path d="M75.892 9.02959C75.892 9.02959 76.1405 3.01538 67.873 0C67.873 0 70.6399 5.76568 72.8932 7.02485C75.1464 8.28402 75.9086 9.02959 75.9086 9.02959" fill="white"/>
<path d="M54.8335 66.7201C52.0667 62.9592 44.0477 58.7012 36.2773 58.7012C28.5069 58.7012 19.7258 63.2077 16.4619 60.7059C16.4619 60.7059 19.9743 63.7213 26.9992 63.7213C34.024 63.7213 36.7743 60.2089 41.5459 60.2089C46.3175 60.2089 51.5696 63.9698 53.5909 67.2337L54.8501 66.7367L54.8335 66.7201Z" fill="white"/>
<path d="M29.7504 58.1865C29.7504 58.1865 27.4972 56.9274 26.238 54.4256C24.9788 51.9238 21.98 47.8978 18.7161 45.6445C18.7161 45.6445 22.2285 56.6789 25.9895 57.1759C25.9895 57.1759 26.4865 57.4244 25.4924 57.4244C24.4818 57.1759 19.7268 55.6682 17.9705 55.4197C16.2143 55.1712 12.2049 54.1605 11.1942 53.1664C10.1836 52.1558 9.68652 52.4209 9.68652 52.4209C9.68652 52.4209 14.193 59.9428 22.4771 59.9428C22.4771 59.4457 26.4865 59.1972 29.7504 58.1865Z" fill="white"/>
<path d="M20.2239 54.426C20.2239 54.426 19.4783 53.1668 19.2132 50.9136C18.9647 48.6603 17.7055 43.6402 13.6961 38.123C13.6961 38.123 13.199 46.9041 17.457 52.1728C17.457 52.1728 17.7055 52.9183 17.2085 52.4213C16.7115 51.9242 13.6961 48.6603 7.68187 44.6509C7.68187 44.6509 4.41797 42.1491 4.41797 41.387C4.41797 41.1384 6.67122 53.4319 20.2239 54.426Z" fill="white"/>
<path d="M12.4538 46.1579C12.4538 46.1579 12.2053 44.6502 12.2053 43.6561C12.2053 42.397 12.7023 38.3875 12.7023 36.6313C12.7023 34.8751 12.4538 31.3626 11.1947 29.1094C11.1947 29.1094 11.1947 31.1141 10.6976 32.1248C10.2006 33.1354 9.68696 36.6313 9.68696 37.1449C9.68696 37.6585 9.68697 40.6573 10.6976 42.165C10.6976 42.165 10.2006 41.9165 9.43844 40.6573C8.69288 39.3981 7.18519 37.3934 4.93193 34.8916C2.67868 32.6384 1.91655 30.3851 1.91655 30.3851C1.91655 30.3851 1.41951 34.3946 4.41832 38.6526C7.43371 42.9106 8.67631 42.165 10.4325 43.9212C10.184 43.9212 12.1887 46.1745 12.4373 46.1745" fill="white"/>
<path d="M7.68161 36.3663C7.68161 36.3663 7.68161 33.8645 8.17865 33.1024C8.67569 32.3568 11.4426 27.3367 10.9289 21.3225C10.9289 21.3225 10.4319 20.8255 9.66977 23.3272C8.92421 25.829 7.66504 26.5911 7.168 28.8444C6.67096 31.3462 6.67096 32.3568 6.67096 32.3568C6.67096 32.3568 6.42243 32.6053 6.42243 32.3568C6.42243 32.1083 6.17391 28.8444 4.66622 25.829C3.15853 22.8136 1.40232 20.0633 1.65084 18.0586C1.65084 18.0586 0.905273 18.0586 0.905273 21.3225C0.905273 24.5864 1.91592 30.1036 7.68161 36.3663Z" fill="white"/>
<path d="M6.18972 26.5918C6.18972 26.5918 7.20037 24.3386 7.94593 23.5764C8.69149 22.8309 13.4631 16.0545 13.9601 13.0391C13.9601 13.0391 13.4631 12.7906 13.2146 13.5362C12.7175 14.2818 10.4643 16.5516 9.95066 16.8001C9.2051 17.2971 6.68676 19.8155 6.68676 22.5658C6.68676 22.5658 6.43824 22.8143 6.93528 18.3078C7.43232 13.8013 5.42759 10.7859 6.93528 7.77051C6.93528 7.77051 4.68202 8.01903 3.42285 17.2971C3.42285 17.2971 3.42285 20.561 5.17906 24.5705C5.17906 24.5705 5.92463 26.5752 6.18972 26.5752" fill="white"/>
<path d="M7.94716 16.5516C7.94716 16.5516 9.70338 14.7954 11.2111 13.7847C12.7188 13.0391 17.2253 8.51606 17.9874 5.25216C17.9874 5.25216 17.7389 5.00364 16.2312 6.75985C15.2205 8.26754 13.9779 7.50541 10.714 11.5314C10.714 11.5314 10.217 12.5421 9.96847 12.277C9.71995 12.277 10.217 11.2664 10.217 11.2664C10.217 11.2664 10.9626 8.76458 10.9626 7.75393C10.9626 6.74328 12.4702 1.98825 12.7188 1.49121C12.7188 1.49121 8.21225 3.99299 7.69864 11.0178C7.45012 11.0178 7.69864 16.2865 7.94716 16.535" fill="white"/>
<path d="M11.707 9.02959C11.707 9.02959 11.4585 3.01538 19.7259 0C19.7259 0 16.9756 5.76568 14.7058 7.02485C12.4526 8.28402 11.6904 9.02959 11.6904 9.02959" fill="white"/>
<path d="M43.8004 0.546875C27.6962 0.546875 14.6406 12.1114 14.6406 26.3765C14.6406 40.6416 27.6962 52.2061 43.8004 52.2061C59.9045 52.2061 72.9602 40.6416 72.9602 26.3765C72.9602 12.1114 59.9045 0.546875 43.8004 0.546875ZM46.7495 16.9989C46.882 17.1481 47.3791 17.7776 48.0915 18.7055C47.3957 18.0924 46.4844 17.7114 45.4738 17.7114C43.2868 17.7114 41.5306 19.4842 41.5306 21.6546C41.5306 23.825 43.3034 25.5978 45.4738 25.5978C46.0702 25.5978 46.6335 25.4652 47.1471 25.2167C46.7495 25.4984 46.5176 25.6475 46.5176 25.6475C46.5176 25.6475 45.0927 26.741 42.7566 25.5646C41.8288 25.1007 40.1223 24.1563 38.3826 23.1954C40.0891 20.0475 41.5306 17.3469 41.6465 17.0652C43.1874 13.9504 44.4465 14.0333 46.7495 16.9824V16.9989ZM36.8252 26.1114C38.9625 27.2711 40.8347 28.2652 40.8347 28.2652C40.8347 28.2652 41.4146 28.4309 41.4146 29.4416L41.3152 33.6664C37.5377 33.7161 34.5554 33.7492 34.2903 33.7492C32.7164 33.7492 33.2465 32.6723 33.6607 31.9433C34.456 30.4853 35.6323 28.3315 36.8252 26.1114ZM47.6608 31.612C47.6608 31.612 47.5282 29.3587 49.5329 28.1824L53.3602 25.6143C56.127 29.2593 58.4797 32.3741 58.7116 32.6889C58.9436 33.0203 58.9105 33.4345 58.0489 33.4345C57.4028 33.4345 53.0785 33.5007 47.6939 33.567L47.6608 31.5954V31.612ZM48.2738 24.4711C49.0028 23.7587 49.4501 22.7646 49.4501 21.6711C49.4501 21.0416 49.301 20.4285 49.0359 19.8984C49.6489 20.6936 50.3282 21.5883 51.0572 22.5492C50.03 23.2617 49.069 23.9244 48.2903 24.4711H48.2738ZM19.7104 26.9563C19.7104 15.806 30.1815 6.75989 43.1874 6.51137C41.6465 9.32794 38.2335 15.5741 35.0856 21.3563C33.8596 20.6605 33.0146 20.18 33.0146 20.18C33.0146 20.18 31.159 19.4179 30.3803 20.5942C30.3803 20.5942 29.4193 21.9362 30.7613 22.7646C31.159 23.0131 32.2028 23.593 33.4785 24.2889C30.7282 29.3256 28.4915 33.4345 28.4087 33.6001C26.9838 36.483 29.0383 38.0238 32.3684 38.0735C32.7164 38.0735 36.4276 38.0404 41.2323 37.9907L41.0004 47.3019C29.0217 46.1421 19.6939 37.4936 19.6939 26.9729L19.7104 26.9563ZM47.9755 47.0865L47.7933 37.9244C54.5696 37.8581 61.5613 37.7919 64.1294 37.7753C60.6004 42.5966 54.785 46.0593 47.9755 47.0865ZM58.314 22.3007L61.1471 20.412C61.1471 20.412 62.8205 19.2356 61.9755 17.9102C61.1471 16.5682 59.8051 16.651 57.9661 17.8274C57.6016 18.0593 56.9223 18.5066 56.0773 19.0865L47.5945 6.75989C59.0264 8.33386 67.7578 16.7836 67.7578 26.9563C67.7578 29.4084 67.2442 31.7611 66.3164 33.9315L58.314 22.3007Z" fill="white"/>
</svg>
