<svg width="206" height="62" viewBox="0 0 206 62" fill="none" xmlns="http://www.w3.org/2000/svg">
<path d="M10.7475 37.9675H8.86018C7.50756 37.9675 6.4066 37.0238 6.02913 35.6398C5.49437 36.4262 4.80234 36.8351 4.04739 36.8351C2.06565 36.8351 0.838867 35.3252 0.838867 33.1233C0.838867 30.7641 2.06565 29.2856 4.04739 29.2856H7.88504V34.2871C7.88504 35.5139 8.45125 36.1745 9.61512 36.1745H10.7161V37.9675H10.7475ZM6.09204 32.9345V30.6382H4.51923C3.29244 30.6382 2.56895 31.6134 2.56895 33.0918C2.56895 34.3186 3.22953 35.3566 4.26758 35.3566C5.4 35.3252 6.09204 34.2557 6.09204 32.9345ZM4.83379 27.9959H3.13516V26.2344H4.83379V27.9959ZM7.75921 27.9959H6.06058V26.2344H7.75921V27.9959Z" fill="#EDEFF1"/>
<path d="M11.9117 41.3964H10.1816V39.6349H11.8803V41.3964H11.9117ZM17.448 37.9677H10.276V36.1747H11.9432C12.4465 36.1747 12.824 35.9859 13.0127 35.6399C13.1385 35.4197 13.2014 34.9794 13.2014 34.4446V30.8271H14.9315V34.3502C14.9315 35.2939 14.8057 35.8916 14.554 36.1747H17.4795V37.9677H17.448ZM14.8371 41.3964H13.1385V39.6349H14.8371V41.3964Z" fill="#EDEFF1"/>
<path d="M25.7518 37.9675H17.1328V36.1745H19.3977C19.1775 35.6398 19.0516 35.105 19.0516 34.5074C19.0516 33.4379 19.3662 32.5571 20.0582 31.8021C20.7188 31.0472 21.5996 30.7012 22.6376 30.7012C24.0217 30.7012 25.1856 31.4561 25.6889 32.7458L24.179 33.4693C23.9273 32.6515 23.3611 32.2425 22.5433 32.2425C21.9771 32.2425 21.5367 32.4942 21.2221 32.9346C20.939 33.3435 20.8132 33.8468 20.8132 34.4759C20.8132 35.1994 21.0019 35.7342 21.3794 36.1745H25.7832V37.9675H25.7518Z" fill="#EDEFF1"/>
<path d="M31.949 37.967H29.9044C29.0551 37.967 28.426 37.6839 27.9856 37.1491C27.5766 36.6458 27.3564 35.9538 27.3564 35.1045V27.8066H29.0865V34.4124C29.0865 35.1988 29.2438 35.7021 29.5898 35.9223C29.81 36.1111 30.2819 36.174 30.9424 36.174H31.9805V37.967H31.949Z" fill="#EDEFF1"/>
<path d="M41.574 37.9679H39.3406C38.6801 38.8801 37.7364 39.3519 36.5096 39.3519C35.3143 39.3519 34.402 38.8801 33.71 37.9679H31.3193V36.1749H33.018C33.018 35.9861 33.018 35.8289 33.018 35.6401C33.018 34.5706 33.3325 33.7213 33.9931 33.0293C34.6537 32.3372 35.503 31.9912 36.5411 31.9912C37.5791 31.9912 38.4284 32.3372 39.0575 33.0607C39.6867 33.7842 40.0327 34.6335 40.0327 35.703V36.1749H41.6055V37.9679H41.574ZM38.2397 35.6716C38.2397 35.1054 38.1139 34.6335 37.8308 34.2246C37.5162 33.7842 37.0443 33.564 36.5096 33.564C35.9748 33.564 35.5659 33.7528 35.2514 34.1931C34.9997 34.5706 34.8424 35.0425 34.8424 35.5772C34.8424 36.7096 35.5345 37.6533 36.604 37.6533C37.1387 37.6533 37.5476 37.4331 37.8622 37.0556C38.0824 36.7411 38.2397 36.2378 38.2397 35.6716Z" fill="#EDEFF1"/>
<path d="M42.6752 29.3172H40.9766V27.5557H42.6752V29.3172ZM48.2744 37.9676H41.0709V36.1746H42.6752C43.1785 36.1746 43.5245 35.9859 43.7132 35.6399C43.8391 35.4197 43.902 34.9793 43.902 34.4446V30.8271H45.6321V34.3502C45.6321 35.2939 45.5062 35.8915 45.2546 36.1746H48.2429V37.9676H48.2744ZM45.6635 29.3172H43.9649V27.5557H45.6635V29.3172Z" fill="#EDEFF1"/>
<path d="M58.6862 36.8355V37.9364H47.708V36.1434H56.7988C56.7988 35.1683 56.5472 34.319 55.981 33.6269C55.3518 32.8091 54.4396 32.4316 53.3072 32.4316C52.9297 32.4316 52.4893 32.526 51.986 32.7462C51.4198 32.9664 50.948 33.3124 50.5705 33.7528C50.4132 33.4068 50.1301 32.9664 49.7212 32.3687C50.193 31.8969 50.7592 31.5194 51.3884 31.2363C52.0804 30.9217 52.7724 30.7959 53.433 30.7959C54.5969 30.7959 55.572 31.079 56.4214 31.6767C57.9312 32.6518 58.6862 34.3819 58.6862 36.8355ZM54.2823 41.4281H52.5837V39.6665H54.2823V41.4281Z" fill="#EDEFF1"/>
<path d="M67.6832 27.7754V35.4821C67.6832 36.992 66.6137 37.9672 64.9465 37.9672H60.291V36.1742H62.6817L60.7314 28.9078H62.5559L64.5061 36.1742C64.978 36.1742 65.324 36.0484 65.5756 35.8282C65.8588 35.5136 66.016 35.0103 66.016 34.3183V27.8068H67.6832V27.7754Z" fill="#EDEFF1"/>
<path d="M71.0484 27.7754H69.3184V37.9672H71.0484V27.7754Z" fill="#EDEFF1"/>
<path d="M85.7075 37.9675H83.8201C82.4675 37.9675 81.3666 37.0238 80.9891 35.6398C80.4543 36.4262 79.7623 36.8351 79.0073 36.8351C77.0256 36.8351 75.7988 35.3252 75.7988 33.1233C75.7988 30.7641 77.0256 29.2856 79.0073 29.2856H82.845V34.2871C82.845 35.5139 83.4112 36.1745 84.5751 36.1745H85.676V37.9675H85.7075ZM81.052 32.9345V30.6382H79.4792C78.2524 30.6382 77.5289 31.6134 77.5289 33.0918C77.5289 34.3186 78.1895 35.3566 79.259 35.3566C80.36 35.3252 81.052 34.2557 81.052 32.9345ZM79.7623 27.9959H78.0637V26.2344H79.7623V27.9959ZM82.7192 27.9959H81.0205V26.2344H82.7192V27.9959Z" fill="#EDEFF1"/>
<path d="M86.8402 41.3964H85.1416V39.6349H86.8402V41.3964ZM92.408 37.9677H85.236V36.1747H86.9031C87.4064 36.1747 87.7839 35.9859 87.9727 35.6399C88.0985 35.4197 88.1614 34.9794 88.1614 34.4446V30.8271H89.8915V34.3502C89.8915 35.2939 89.7657 35.8916 89.514 36.1747H92.4394V37.9677H92.408ZM89.7971 41.3964H88.0985V39.6349H89.7971V41.3964Z" fill="#EDEFF1"/>
<path d="M102.159 37.9679H99.9256C99.265 38.8801 98.3213 39.3519 97.0946 39.3519C95.8992 39.3519 94.987 38.8801 94.295 37.9679H91.9043V36.1749H93.6029C93.6029 35.9861 93.6029 35.8289 93.6029 35.6401C93.6029 34.5706 93.9175 33.7213 94.5781 33.0293C95.2386 32.3372 96.088 31.9912 97.126 31.9912C98.1641 31.9912 99.0134 32.3372 99.6425 33.0607C100.272 33.7842 100.618 34.6335 100.618 35.703V36.1749H102.19V37.9679H102.159ZM98.8246 35.6716C98.8246 35.1054 98.6988 34.6335 98.4157 34.2246C98.1012 33.7842 97.6293 33.564 97.0946 33.564C96.5598 33.564 96.1509 33.7528 95.8363 34.1931C95.5847 34.5706 95.4274 35.0425 95.4274 35.5772C95.4274 36.7096 96.1194 37.6533 97.1889 37.6533C97.7237 37.6533 98.1326 37.4331 98.4472 37.0556C98.6674 36.7411 98.8246 36.2378 98.8246 35.6716Z" fill="#EDEFF1"/>
<path d="M108.859 37.9674H101.655V36.1744H103.291C103.794 36.1744 104.14 35.9857 104.329 35.6397C104.455 35.4195 104.518 34.9791 104.518 34.4444V30.8269H106.248V34.35C106.248 35.2937 106.122 35.8913 105.87 36.1744H108.859V37.9674ZM106.216 29.3485H104.518V27.5869H106.216V29.3485Z" fill="#EDEFF1"/>
<path d="M109.992 29.3172H108.293V27.5557H109.992V29.3172ZM115.559 37.9676H108.356V36.1746H109.96C110.463 36.1746 110.809 35.9859 110.998 35.6399C111.124 35.4197 111.187 34.9793 111.187 34.4446V30.8271H112.917V34.3502C112.917 35.2939 112.791 35.8915 112.54 36.1746H115.528V37.9676H115.559ZM112.948 29.3172H111.25V27.5557H112.948V29.3172Z" fill="#EDEFF1"/>
<path d="M119.491 35.1047C119.491 37.0235 118.61 37.9672 116.88 37.9672H115.056V36.1742H116.534C117.1 36.1742 117.478 35.9854 117.635 35.6394C117.698 35.4507 117.761 35.0732 117.761 34.507V27.7754H119.491V35.1047Z" fill="#EDEFF1"/>
<path d="M122.826 27.7754H121.096V37.9672H122.826V27.7754Z" fill="#EDEFF1"/>
<path d="M143.303 37.967H132.514C129.211 37.967 127.544 36.4885 127.544 33.5002V30.795H129.274V33.5002C129.274 34.5383 129.557 35.2617 130.155 35.6707C130.627 36.0167 131.35 36.174 132.294 36.174H137.578C138.082 36.174 138.459 35.9852 138.616 35.6392C138.742 35.419 138.805 34.9786 138.805 34.4439V27.8066H140.535V34.3495C140.535 35.2932 140.409 35.8909 140.158 36.174H143.272V37.967H143.303ZM136.1 31.833H132.231V30.7635H133.08C132.986 30.5433 132.923 30.2602 132.923 29.9771C132.923 28.9705 133.615 28.1841 134.59 28.1841C135.282 28.1841 135.754 28.4987 136.037 29.1278L135.314 29.6311C135.219 29.2851 134.999 29.1278 134.653 29.1278C134.181 29.1278 133.961 29.4424 133.961 30.04C133.961 30.3231 134.024 30.5748 134.181 30.7635H136.131V31.833H136.1Z" fill="#EDEFF1"/>
<path d="M149.91 37.9674H142.706V36.1744H144.31C144.814 36.1744 145.16 35.9857 145.348 35.6397C145.474 35.4195 145.537 34.9791 145.537 34.4444V30.8269H147.267V34.35C147.267 35.2937 147.141 35.8913 146.89 36.1744H149.878V37.9674H149.91ZM147.299 29.3485H145.6V27.5869H147.299V29.3485Z" fill="#EDEFF1"/>
<path d="M153.842 35.1054C153.842 37.0242 152.961 37.9679 151.231 37.9679H149.563V36.1749H150.885C151.451 36.1749 151.828 35.9862 151.986 35.6401C152.049 35.4514 152.111 35.0739 152.111 34.5077V30.7959H153.842V35.1054ZM153.81 41.3966H152.111V39.6351H153.81V41.3966Z" fill="#EDEFF1"/>
<path d="M5.11658 49.1026C5.11658 48.9453 5.08513 48.7881 4.99076 48.6937C4.89639 48.5993 4.77057 48.505 4.61329 48.442C4.45601 48.3791 4.26727 48.3162 4.07853 48.2848C3.8898 48.2533 3.6696 48.1904 3.44941 48.1589C3.1663 48.096 2.8832 48.0331 2.6001 47.9702C2.34845 47.9073 2.0968 47.7815 1.90806 47.6556C1.71932 47.5298 1.53059 47.3411 1.43622 47.1523C1.31039 46.9321 1.24748 46.6805 1.24748 46.3659C1.24748 46.0199 1.3104 45.7054 1.46768 45.4537C1.5935 45.2021 1.78224 44.9819 2.03388 44.8246C2.28553 44.6673 2.53718 44.5415 2.8832 44.4471C3.19776 44.3527 3.57523 44.3213 3.95271 44.3213C4.36164 44.3213 4.77057 44.3527 5.14804 44.4157C5.55697 44.4786 5.90299 44.5729 6.18609 44.6673V45.7054C5.80862 45.5795 5.43114 45.4852 5.05367 45.4223C4.70765 45.3593 4.36164 45.3279 4.04708 45.3279C3.60669 45.3279 3.26067 45.3908 3.00902 45.5481C2.75737 45.7054 2.63155 45.8941 2.63155 46.2087C2.63155 46.3659 2.66301 46.5232 2.75738 46.6176C2.85174 46.712 2.94611 46.8063 3.07194 46.8692C3.19776 46.9321 3.35504 46.9951 3.54378 47.0265C3.73252 47.058 3.92125 47.1209 4.10999 47.1523C4.42455 47.2153 4.73911 47.2782 5.02222 47.3411C5.30532 47.404 5.55697 47.5298 5.77716 47.6556C5.99736 47.7815 6.18609 47.9702 6.31192 48.1904C6.43774 48.4106 6.50065 48.6937 6.50065 49.0397C6.50065 49.3857 6.43774 49.7003 6.28046 49.9519C6.12318 50.2036 5.90299 50.4238 5.65134 50.5811C5.36823 50.7383 5.05367 50.8642 4.64474 50.9585C4.23581 51.0529 3.82688 51.0844 3.35504 51.0844C2.94611 51.0844 2.53718 51.0529 2.15971 50.99C1.75078 50.9271 1.43622 50.8327 1.18457 50.7069V49.7003C1.56204 49.8261 1.90806 49.9519 2.25408 50.0148C2.6001 50.0778 2.97757 50.1092 3.35504 50.1092C3.57524 50.1092 3.79543 50.1092 3.98417 50.0778C4.20436 50.0463 4.39309 49.9834 4.55037 49.9205C4.70765 49.8576 4.86494 49.7317 4.9593 49.6059C5.05367 49.4486 5.11658 49.2913 5.11658 49.1026Z" fill="#EDEFF1"/>
<path d="M15.0258 47.7185C15.0258 48.2218 14.9314 48.6622 14.7741 49.1026C14.6168 49.5115 14.3652 49.889 14.0506 50.1721C13.7361 50.4867 13.3586 50.7069 12.8868 50.8642C12.4464 51.0214 11.9116 51.1158 11.3454 51.1158C10.7792 51.1158 10.2444 51.0214 9.80406 50.8642C9.36367 50.7069 8.95474 50.4552 8.64018 50.1721C8.32562 49.8576 8.10543 49.5115 7.91669 49.1026C7.75941 48.6937 7.66504 48.2218 7.66504 47.7185C7.66504 47.2152 7.75941 46.7749 7.91669 46.3345C8.07397 45.9255 8.32562 45.5481 8.64018 45.265C8.95474 44.9504 9.33221 44.7302 9.80406 44.5729C10.2444 44.4157 10.7792 44.3213 11.3454 44.3213C11.9116 44.3213 12.4464 44.4157 12.8868 44.5729C13.3271 44.7302 13.7361 44.9819 14.0506 45.265C14.3652 45.5795 14.5854 45.9255 14.7741 46.3345C14.9314 46.7749 15.0258 47.2152 15.0258 47.7185ZM13.6102 47.7185C13.6102 47.3096 13.5473 46.9636 13.453 46.6805C13.3271 46.3659 13.1699 46.1457 12.9811 45.9256C12.7924 45.7368 12.5407 45.5795 12.2891 45.4852C12.006 45.3908 11.7229 45.3279 11.4083 45.3279C11.0938 45.3279 10.7792 45.3908 10.4961 45.4852C10.213 45.5795 9.99279 45.7368 9.80406 45.9256C9.61532 46.1143 9.45804 46.3659 9.33221 46.6805C9.20639 46.9636 9.17493 47.3411 9.17493 47.7185C9.17493 48.1275 9.23785 48.4735 9.33221 48.7566C9.45804 49.0712 9.58386 49.2914 9.80406 49.5115C9.99279 49.7003 10.2444 49.8576 10.4961 49.9519C10.7792 50.0463 11.0623 50.1092 11.4083 50.1092C11.7543 50.1092 12.0374 50.0463 12.2891 49.9519C12.5722 49.8576 12.7924 49.7003 12.9811 49.5115C13.1699 49.3228 13.3271 49.0712 13.453 48.7566C13.5473 48.4735 13.6102 48.1275 13.6102 47.7185Z" fill="#EDEFF1"/>
<path d="M20.1217 45.3279C19.7442 45.3279 19.3982 45.3908 19.0836 45.4852C18.7691 45.5795 18.486 45.7368 18.2658 45.957C18.0456 46.1457 17.8568 46.4289 17.731 46.712C17.6052 47.0265 17.5423 47.3725 17.5423 47.75C17.5423 48.1275 17.6052 48.4735 17.731 48.7566C17.8568 49.0397 18.0141 49.2914 18.2343 49.4801C18.4545 49.6688 18.7062 49.8261 19.0207 49.9205C19.3353 50.0148 19.6813 50.0778 20.0902 50.0778C20.3733 50.0778 20.6564 50.0463 20.971 50.0148C21.2541 49.9834 21.5372 49.9205 21.7888 49.8576V50.8956C21.5372 50.9585 21.2541 51.0214 20.9395 51.0529C20.625 51.0844 20.3104 51.1158 19.9958 51.1158C19.3667 51.1158 18.8005 51.0214 18.3287 50.8642C17.8568 50.7069 17.4479 50.4867 17.1333 50.2036C16.8188 49.9205 16.5671 49.5745 16.4099 49.1655C16.2526 48.7566 16.1582 48.3162 16.1582 47.8444C16.1582 47.3411 16.2526 46.8692 16.4099 46.4603C16.5986 46.0199 16.8188 45.6739 17.1648 45.3593C17.4794 45.0448 17.8883 44.7931 18.3916 44.6044C18.8949 44.4157 19.4296 44.3213 20.0588 44.3213C20.3733 44.3213 20.6879 44.3527 20.971 44.3842C21.2541 44.4157 21.5057 44.4786 21.7259 44.5415V45.5481C21.4428 45.4537 21.1597 45.4223 20.9081 45.3908C20.625 45.3593 20.3733 45.3279 20.1217 45.3279Z" fill="#EDEFF1"/>
<path d="M24.5569 44.4473H23.1729V50.9901H24.5569V44.4473Z" fill="#EDEFF1"/>
<path d="M30.6277 49.323H27.7967L27.0732 50.9901H25.5947L28.5831 44.4473H29.8413L32.8296 50.9901H31.3826L30.6277 49.323ZM29.2122 46.0201C28.9605 46.7121 28.7089 47.2783 28.5201 47.7502L28.2685 48.3478H30.2188L29.9671 47.7502C29.7469 47.2783 29.4953 46.7121 29.2122 46.0201Z" fill="#EDEFF1"/>
<path d="M35.252 44.4473V49.9835H38.7751V50.9901H33.8994V44.4473H35.252Z" fill="#EDEFF1"/>
<path d="M42.4238 50.9901V44.4473H44.4056C44.5943 44.4473 44.7516 44.4473 44.9403 44.4473C45.1291 44.4473 45.2863 44.4787 45.4751 44.4787C45.6324 44.5102 45.8211 44.5102 45.9784 44.5416C46.1357 44.5731 46.2929 44.6045 46.4188 44.636C46.8277 44.7618 47.1737 44.8877 47.4883 45.0764C47.8028 45.2651 48.0545 45.4853 48.2747 45.737C48.4949 45.9886 48.6521 46.2717 48.7465 46.5863C48.8409 46.9008 48.9038 47.2469 48.9038 47.6243C48.9038 47.9704 48.8723 48.3164 48.778 48.6309C48.6836 48.9455 48.5578 49.2286 48.369 49.4802C48.1803 49.7319 47.9601 49.9521 47.677 50.1408C47.3939 50.3296 47.0793 50.4868 46.7019 50.6127C46.3873 50.707 46.0098 50.8014 45.6324 50.8329C45.2234 50.8958 44.783 50.9272 44.2797 50.9272H42.4238V50.9901ZM44.3741 49.9835C45.1605 49.9835 45.7896 49.8892 46.2615 49.7004C46.6704 49.5117 46.9535 49.2915 47.1737 48.9455C47.3939 48.6309 47.4883 48.1905 47.4883 47.6872C47.4883 47.4356 47.4568 47.1839 47.3939 46.9638C47.331 46.7436 47.2366 46.5548 47.1108 46.3975C46.985 46.2403 46.8277 46.083 46.6389 45.9572C46.4502 45.8313 46.2615 45.737 46.0413 45.6426C45.8211 45.5797 45.6009 45.5168 45.3178 45.4853C45.0347 45.4539 44.7516 45.4224 44.437 45.4224H43.8394V49.9835H44.3741Z" fill="#EDEFF1"/>
<path d="M51.7034 49.9835H55.3838V50.9901H50.3193V44.4473H55.195V45.4539H51.7034V47.1525H54.6917V48.1276H51.7034V49.9835Z" fill="#EDEFF1"/>
<path d="M59.6307 49.3859C59.7565 49.0399 59.8824 48.7882 59.9453 48.6309C60.0082 48.4736 60.134 48.1591 60.3227 47.6872L61.7068 44.4473H63.1538L60.2284 50.9901H59.0016L56.0762 44.4473H57.5232L58.9072 47.6872C59.096 48.1591 59.2218 48.4736 59.2847 48.6309C59.3476 48.7882 59.4734 49.0399 59.6307 49.3859Z" fill="#EDEFF1"/>
<path d="M65.5442 49.9835H69.2246V50.9901H64.1602V44.4473H69.0044V45.4539H65.5442V47.1525H68.5326V48.1276H65.5442V49.9835Z" fill="#EDEFF1"/>
<path d="M72.055 44.4473V49.9835H75.5466V50.9901H70.6709V44.4473H72.055Z" fill="#EDEFF1"/>
<path d="M83.3793 47.7185C83.3793 48.2218 83.2849 48.6622 83.1276 49.1026C82.9704 49.5115 82.7187 49.889 82.4042 50.1721C82.0896 50.4867 81.7121 50.7069 81.2403 50.8642C80.7999 51.0214 80.2651 51.1158 79.6989 51.1158C79.1327 51.1158 78.598 51.0214 78.1576 50.8642C77.7172 50.7069 77.3083 50.4552 76.9937 50.1721C76.6791 49.8576 76.4589 49.5115 76.2702 49.1026C76.1129 48.6937 76.0186 48.2218 76.0186 47.7185C76.0186 47.2152 76.1129 46.7749 76.2702 46.3345C76.4275 45.9255 76.6791 45.5481 76.9937 45.265C77.3083 44.9504 77.6857 44.7302 78.1576 44.5729C78.598 44.4157 79.1327 44.3213 79.6989 44.3213C80.2651 44.3213 80.7999 44.4157 81.2403 44.5729C81.6807 44.7302 82.0896 44.9819 82.4042 45.265C82.7187 45.5795 82.9389 45.9255 83.1276 46.3345C83.2849 46.7749 83.3793 47.2152 83.3793 47.7185ZM81.9638 47.7185C81.9638 47.3096 81.9009 46.9636 81.8065 46.6805C81.6807 46.3659 81.5234 46.1457 81.3346 45.9256C81.1459 45.7368 80.8943 45.5795 80.6426 45.4852C80.3595 45.3908 80.0764 45.3279 79.7618 45.3279C79.4473 45.3279 79.1327 45.3908 78.8496 45.4852C78.5665 45.5795 78.3463 45.7368 78.1576 45.9256C77.9688 46.1143 77.8116 46.3659 77.6857 46.6805C77.5599 46.9636 77.5285 47.3411 77.5285 47.7185C77.5285 48.1275 77.5914 48.4735 77.6857 48.7566C77.8116 49.0712 77.9374 49.2914 78.1576 49.5115C78.3463 49.7003 78.598 49.8576 78.8496 49.9519C79.1327 50.0463 79.4158 50.1092 79.7618 50.1092C80.0764 50.1092 80.391 50.0463 80.6426 49.9519C80.9257 49.8576 81.1459 49.7003 81.3346 49.5115C81.5234 49.3228 81.6807 49.0712 81.8065 48.7566C81.9009 48.4735 81.9638 48.1275 81.9638 47.7185Z" fill="#EDEFF1"/>
<path d="M86.9025 48.4424C86.7767 48.4424 86.6508 48.4424 86.525 48.4424C86.3992 48.4424 86.3048 48.4424 86.179 48.4109V50.9589H84.7949V44.416H86.9654C87.3429 44.416 87.6574 44.416 87.9091 44.4475C88.1922 44.4789 88.4124 44.5104 88.6326 44.5733C89.1359 44.6991 89.5448 44.9193 89.8279 45.2339C90.111 45.5484 90.2368 45.9259 90.2368 46.3663C90.2368 46.6809 90.1739 46.964 90.0166 47.2156C89.8593 47.4673 89.6392 47.6874 89.3561 47.8447C89.073 48.0335 88.7269 48.1593 88.318 48.2537C87.9091 48.4109 87.4372 48.4424 86.9025 48.4424ZM86.2104 47.4358C86.2734 47.4358 86.3992 47.4673 86.525 47.4673C86.6508 47.4673 86.7767 47.4673 86.9025 47.4673C87.2799 47.4673 87.5945 47.4358 87.8462 47.4043C88.0978 47.3414 88.2865 47.2785 88.4438 47.1842C88.6011 47.0898 88.6955 46.964 88.7898 46.8381C88.8528 46.7123 88.8842 46.555 88.8842 46.3978C88.8842 46.209 88.8213 46.0517 88.7269 45.8945C88.6326 45.7686 88.4438 45.6428 88.1922 45.5799C88.0664 45.5484 87.9091 45.517 87.7203 45.4855C87.5316 45.4541 87.28 45.4541 86.9969 45.4541H86.2104V47.4358Z" fill="#EDEFF1"/>
<path d="M95.5841 49.2288C95.7414 48.7255 95.9616 48.1593 96.1818 47.5616L97.4715 44.416H99.3903V50.9589H98.0063V47.6245C98.0063 47.1527 98.0377 46.5865 98.0692 45.9259H98.0063C97.9434 46.1147 97.8804 46.3348 97.7861 46.555C97.6917 46.7752 97.5973 47.0269 97.503 47.2471L95.9616 50.9589H95.1123L93.571 47.2471C93.4766 47.0269 93.3822 46.8067 93.2879 46.555C93.1935 46.3348 93.1306 46.1147 93.0677 45.9259H93.0047C93.0362 46.5236 93.0677 47.0898 93.0677 47.6245V50.9589H91.6836V44.416H93.6024L94.8921 47.5302C95.1123 48.0335 95.301 48.5997 95.4898 49.1973H95.5841V49.2288Z" fill="#EDEFF1"/>
<path d="M102.568 49.9835H106.248V50.9901H101.184V44.4473H106.059V45.4539H102.568V47.1525H105.556V48.1276H102.568V49.9835Z" fill="#EDEFF1"/>
<path d="M111.627 47.4985C112.162 48.1591 112.602 48.7568 112.948 49.2915H112.98C112.948 48.4422 112.917 47.8131 112.917 47.4356V44.4787H114.301V51.0216H112.854L110.4 48.0018C109.96 47.467 109.52 46.8694 109.079 46.1774H109.048C109.079 46.9952 109.111 47.5929 109.111 48.0333V50.9901H107.727V44.4473H109.174L111.627 47.4985Z" fill="#EDEFF1"/>
<path d="M119.114 50.9901H117.761V45.4539H115.339V44.4473H121.536V45.4539H119.114V50.9901Z" fill="#EDEFF1"/>
<path d="M130.407 46.1771C130.407 46.4602 130.344 46.7119 130.187 46.9635C130.029 47.2152 129.809 47.4039 129.463 47.5612V47.5927C129.652 47.6556 129.809 47.7185 129.967 47.8129C130.124 47.9072 130.25 48.0016 130.376 48.1274C130.47 48.2533 130.564 48.3791 130.627 48.5364C130.69 48.6936 130.722 48.8509 130.722 49.0397C130.722 49.1969 130.69 49.3857 130.627 49.543C130.564 49.7317 130.47 49.889 130.313 50.0777C130.155 50.235 129.967 50.3923 129.715 50.5495C129.463 50.7068 129.18 50.8012 128.803 50.8956C128.708 50.927 128.614 50.927 128.488 50.9585C128.362 50.9585 128.268 50.9899 128.111 50.9899C127.985 50.9899 127.828 51.0214 127.67 51.0214C127.513 51.0214 127.324 51.0214 127.104 51.0214H124.934V44.4785H127.544C128.111 44.4785 128.551 44.5414 128.897 44.6358C129.149 44.6987 129.369 44.7931 129.558 44.9189C129.746 45.0447 129.904 45.1706 130.029 45.2964C130.155 45.4537 130.25 45.5795 130.313 45.7368C130.376 45.8626 130.407 46.0199 130.407 46.1771ZM127.576 47.1523C127.953 47.1523 128.236 47.1208 128.425 47.0579C128.614 46.995 128.771 46.8692 128.866 46.7434C128.96 46.6175 128.991 46.4602 128.991 46.303C128.991 46.1142 128.929 45.9884 128.834 45.8311C128.74 45.7053 128.551 45.6109 128.331 45.5166C128.236 45.4851 128.111 45.4851 127.985 45.4537C127.859 45.4537 127.67 45.4222 127.482 45.4222H126.349V47.1208H127.576V47.1523ZM126.349 48.1589V50.0148H127.23C127.482 50.0148 127.67 50.0148 127.859 49.9833C128.016 49.9833 128.174 49.9519 128.299 49.9204C128.488 49.889 128.645 49.8261 128.771 49.7631C128.897 49.7002 128.991 49.6373 129.086 49.5744C129.18 49.5115 129.212 49.4171 129.243 49.3228C129.275 49.2284 129.306 49.134 129.306 49.0397C129.306 48.8509 129.243 48.6936 129.117 48.5678C128.991 48.442 128.834 48.3162 128.583 48.2532C128.488 48.2218 128.362 48.1903 128.205 48.1903C128.048 48.1903 127.859 48.1589 127.639 48.1589H126.349Z" fill="#EDEFF1"/>
<path d="M136.415 49.323H133.584L132.86 50.9901H131.413L134.401 44.4473H135.66L138.648 50.9901H137.201L136.415 49.323ZM134.999 46.0201C134.747 46.7121 134.496 47.2783 134.307 47.7502L134.055 48.3478H136.006L135.754 47.7502C135.502 47.2783 135.282 46.7121 134.999 46.0201Z" fill="#EDEFF1"/>
<path d="M143.555 47.4985C144.09 48.1591 144.53 48.7568 144.876 49.2915H144.907C144.876 48.4422 144.845 47.8131 144.845 47.4356V44.4787H146.229V51.0216H144.782L142.328 48.0018C141.888 47.467 141.447 46.8694 141.007 46.1774H140.975C141.007 46.9952 141.038 47.5929 141.038 48.0333V50.9901H139.654V44.4473H141.101L143.555 47.4985Z" fill="#EDEFF1"/>
<path d="M148.021 50.9901V44.4473H149.374V47.4356H149.406L152.237 44.4473H153.935L150.821 47.6872L154.187 50.9901H152.425L149.406 48.0333H149.374V50.9901H148.021Z" fill="#EDEFF1"/>
<mask id="mask0_9_122551" style="mask-type:luminance" maskUnits="userSpaceOnUse" x="164" y="0" width="42" height="62">
<path d="M192.061 7.5183V13.0546H185.266C185.266 13.0546 178.031 12.2367 178.031 20.2895V26.7065H171.426C171.426 26.7065 164.442 25.7314 164.442 33.7842V41.8055C164.442 44.5107 166.927 62.0003 185.549 62.0003C204.171 62.0003 205.902 43.5041 205.902 41.4594V27.084H198.509C198.509 27.084 192.344 27.2727 192.344 34.3189V41.3651C192.344 41.3651 192.784 48.6 185.738 48.6C178.692 48.6 178.252 42.3402 178.252 42.3402V27.084H185.298C185.298 27.084 192.092 26.738 192.092 20.0378V13.5893H199.579C199.579 13.5893 205.933 12.8029 205.933 5.75676V0.0317469H198.1C198.1 0.0317469 198.006 0.0317469 197.88 0.0317469C196.748 0.000290746 192.061 0.409221 192.061 7.5183Z" fill="white"/>
</mask>
<g mask="url(#mask0_9_122551)">
<path d="M232.891 15.7597L195.395 80.0245L137.484 46.2406L174.98 -18.0557L232.891 15.7597Z" fill="#EDEFF1"/>
</g>
</svg>
