<svg width="144" height="84" viewBox="0 0 144 84" fill="none" xmlns="http://www.w3.org/2000/svg">
<path d="M64.5232 28.6707V40.2782C64.5232 41.6324 63.4398 42.7158 62.0856 42.7158H49.6655C49.3173 42.7158 49.0078 42.6384 48.6982 42.5223L0.681641 21.3579V0H22.0395L63.4011 26.62C64.0976 27.0843 64.5232 27.8581 64.5232 28.6707Z" fill="white"/>
<path d="M2.88707 81.6396V75.3716H0.681641V74.0947H6.40804V75.3716H4.2026V81.6396H2.88707Z" fill="#EDEFF1"/>
<path d="M6.33008 81.6395V75.9518H7.45214L7.52952 76.803C7.68429 76.4935 7.91644 76.3 8.22598 76.1452C8.53551 75.9905 8.88374 75.9131 9.27066 75.9131C9.42542 75.9131 9.61888 75.9131 9.73496 75.9518L9.50281 77.1125C9.42542 77.1125 9.38673 77.1125 9.30935 77.1125C8.80636 77.1125 8.38074 77.2673 8.03252 77.5768C7.68429 77.8864 7.52952 78.3894 7.52952 79.1245V81.6395H6.33008Z" fill="#EDEFF1"/>
<path d="M12.5987 81.7171C12.0957 81.7171 11.6314 81.601 11.2445 81.3302C10.8189 81.0593 10.5093 80.7111 10.2385 80.2468C10.0063 79.7825 9.85156 79.3182 9.85156 78.7765C9.85156 78.2348 9.96764 77.7705 10.2385 77.3062C10.4706 76.8419 10.8189 76.4937 11.2445 76.2229C11.6701 75.952 12.0957 75.8359 12.5987 75.8359C13.0243 75.8359 13.4112 75.952 13.7594 76.1455C14.1077 76.3776 14.3785 76.6485 14.572 76.9967L14.6494 75.9133H15.7714V81.601H14.6494L14.572 80.5177C14.4172 80.8659 14.1464 81.1367 13.7594 81.3302C13.4112 81.601 13.0243 81.7171 12.5987 81.7171ZM12.8308 80.5177C13.1404 80.5177 13.4112 80.4403 13.6821 80.2855C13.9529 80.1307 14.1464 79.9373 14.3011 79.6664C14.4559 79.3956 14.5333 79.1247 14.5333 78.8152C14.5333 78.5057 14.4559 78.2348 14.3011 77.964C14.1464 77.6931 13.9529 77.4997 13.6821 77.3449C13.4112 77.1901 13.1404 77.1128 12.8308 77.1128C12.5213 77.1128 12.2505 77.1901 11.9796 77.3449C11.7088 77.4997 11.5153 77.6931 11.3605 77.964C11.2058 78.2348 11.1284 78.5057 11.1284 78.8152C11.1284 79.1247 11.2058 79.3956 11.3605 79.6664C11.5153 79.9373 11.7088 80.1307 11.9796 80.2855C12.2118 80.4403 12.5213 80.5177 12.8308 80.5177Z" fill="#EDEFF1"/>
<path d="M17.0479 81.6401V75.9524H18.1699L18.2473 76.881C18.4021 76.5715 18.6342 76.3393 18.9437 76.1458C19.2146 75.9524 19.5628 75.875 19.9497 75.875C20.414 75.875 20.801 75.9911 21.1492 76.1845C21.4974 76.378 21.7683 76.7262 21.9617 77.1518C22.1552 77.5774 22.2326 78.1191 22.2326 78.7769V81.6788H20.9944V78.7769C20.9944 78.39 20.917 78.0804 20.801 77.8483C20.6849 77.6161 20.5301 77.4227 20.298 77.3066C20.1045 77.1905 19.8724 77.1131 19.6015 77.1131C19.3694 77.1131 19.1372 77.1905 18.9051 77.3066C18.7116 77.4227 18.5568 77.6161 18.4021 77.8483C18.286 78.0804 18.2086 78.4287 18.2086 78.7769V81.6788H17.0479V81.6401Z" fill="#EDEFF1"/>
<path d="M25.6376 81.7556C25.1733 81.7556 24.709 81.6782 24.2447 81.5234C23.7804 81.3686 23.3935 81.0978 23.084 80.7883L23.9352 79.9757C24.1287 80.1692 24.3608 80.3239 24.709 80.44C25.0186 80.5561 25.3668 80.6335 25.6763 80.6335C25.9859 80.6335 26.2567 80.5948 26.4502 80.4787C26.6436 80.3626 26.721 80.2079 26.721 80.0144C26.721 79.8983 26.6823 79.7823 26.5663 79.7049C26.4502 79.6275 26.3341 79.5501 26.1406 79.5114C25.9859 79.4727 25.7537 79.3953 25.5216 79.3567C25.0573 79.2793 24.709 79.1632 24.3995 79.0471C24.09 78.9311 23.8578 78.7376 23.6257 78.5054C23.3935 78.2733 23.2774 77.9251 23.2774 77.5381C23.2774 77.2286 23.3548 76.9191 23.5483 76.6869C23.7418 76.4548 23.9739 76.2613 24.3221 76.1065C24.6704 75.9518 25.0186 75.9131 25.4829 75.9131C25.9085 75.9131 26.3341 75.9905 26.7597 76.1452C27.1853 76.3 27.5336 76.5322 27.8044 76.8804L27.0692 77.6155C26.9145 77.4221 26.6823 77.2673 26.3728 77.1899C26.0633 77.1125 25.7924 77.0351 25.5216 77.0351C25.212 77.0351 24.9799 77.0738 24.7864 77.1899C24.593 77.2673 24.5156 77.4221 24.5156 77.5768C24.5156 77.6929 24.5543 77.7703 24.6704 77.8477C24.7477 77.9251 24.9025 77.9638 25.0573 78.0411C25.212 78.0798 25.4055 78.1185 25.6763 78.1959C26.1406 78.312 26.5276 78.3894 26.8371 78.5054C27.1466 78.6215 27.4175 78.815 27.6496 79.0471C27.8818 79.318 27.9979 79.6275 27.9979 80.0531C27.9979 80.44 27.8818 80.7883 27.6883 81.0591C27.4949 81.3299 27.1853 81.5234 26.8371 81.6782C26.4502 81.7169 26.0633 81.7556 25.6376 81.7556Z" fill="#EDEFF1"/>
<path d="M28.8877 83.9223V75.9518H30.0098L30.0871 77.0351C30.2419 76.6869 30.5128 76.4161 30.8997 76.2226C31.2479 75.9905 31.6348 75.9131 32.0604 75.9131C32.5634 75.9131 32.989 76.0292 33.4146 76.3C33.8403 76.5708 34.1498 76.9191 34.4206 77.3834C34.6528 77.8477 34.7689 78.312 34.7689 78.8537C34.7689 79.3954 34.6528 79.8597 34.4206 80.324C34.1885 80.7883 33.8403 81.1365 33.4146 81.4073C32.989 81.6782 32.5247 81.7942 32.0604 81.7942C31.6348 81.7942 31.2479 81.6782 30.8997 81.4847C30.5514 81.2913 30.2806 81.0204 30.1258 80.6722V83.961H28.8877V83.9223ZM31.867 80.5174C32.1765 80.5174 32.4473 80.44 32.7182 80.2853C32.989 80.1305 33.1825 79.937 33.3373 79.6662C33.492 79.3953 33.5694 79.1245 33.5694 78.815C33.5694 78.5054 33.492 78.2346 33.3373 77.9637C33.1825 77.6929 32.989 77.4994 32.7182 77.3447C32.4473 77.1899 32.1765 77.1125 31.867 77.1125C31.5574 77.1125 31.2866 77.1899 31.0157 77.3447C30.7449 77.4994 30.5514 77.6929 30.3967 77.9637C30.2419 78.2346 30.1645 78.5054 30.1645 78.815C30.1645 79.1245 30.2419 79.3953 30.3967 79.6662C30.5514 79.937 30.7449 80.1305 31.0157 80.2853C31.2479 80.44 31.5574 80.5174 31.867 80.5174Z" fill="#EDEFF1"/>
<path d="M38.4445 81.7171C37.9028 81.7171 37.4385 81.601 36.9742 81.3302C36.5099 81.0593 36.1617 80.7111 35.8908 80.2468C35.62 79.7825 35.5039 79.3182 35.5039 78.7765C35.5039 78.2348 35.62 77.7705 35.8908 77.3062C36.1617 76.8419 36.5099 76.4937 36.9742 76.2229C37.4385 75.952 37.9028 75.8359 38.4445 75.8359C38.9862 75.8359 39.4505 75.952 39.9148 76.2229C40.3791 76.4937 40.7273 76.8419 40.9982 77.3062C41.269 77.7705 41.3851 78.2348 41.3851 78.7765C41.3851 79.3182 41.269 79.7825 40.9982 80.2468C40.7273 80.7111 40.3791 81.0593 39.9148 81.3302C39.4505 81.601 38.9475 81.7171 38.4445 81.7171ZM38.4445 80.479C38.754 80.479 39.0249 80.4016 39.2957 80.2468C39.5665 80.092 39.76 79.8986 39.9148 79.6277C40.0695 79.3569 40.1469 79.0861 40.1469 78.7765C40.1469 78.467 40.0695 78.1961 39.9148 77.9253C39.76 77.6545 39.5665 77.461 39.2957 77.3062C39.0249 77.1515 38.754 77.0741 38.4445 77.0741C38.135 77.0741 37.8641 77.1515 37.5933 77.3062C37.3224 77.461 37.129 77.6545 36.9742 77.9253C36.8194 78.1961 36.7421 78.467 36.7421 78.7765C36.7421 79.0861 36.8194 79.3569 36.9742 79.6277C37.129 79.8986 37.3224 80.092 37.5933 80.2468C37.8641 80.4016 38.135 80.479 38.4445 80.479Z" fill="#EDEFF1"/>
<path d="M42.3525 81.6395V75.9518H43.4746L43.552 76.803C43.7067 76.4935 43.9389 76.3 44.2484 76.1452C44.558 75.9905 44.9062 75.9131 45.2931 75.9131C45.4479 75.9131 45.6413 75.9131 45.7574 75.9518L45.5253 77.1125C45.4479 77.1125 45.4092 77.1125 45.3318 77.1125C44.8288 77.1125 44.4032 77.2673 44.055 77.5768C43.7068 77.8864 43.552 78.3894 43.552 79.1245V81.6395H42.3525Z" fill="#EDEFF1"/>
<path d="M49.2399 81.7557C48.6595 81.7557 48.1566 81.5623 47.7696 81.1753C47.3827 80.7884 47.1893 80.208 47.1893 79.3955V77.0353H46.4541V75.9519H47.2666L47.4214 74.0947H48.4274V75.9519H49.7429V77.0353H48.4274V79.3568C48.4274 79.7437 48.5048 80.0533 48.6982 80.2467C48.853 80.4402 49.1238 80.5563 49.4334 80.5563C49.5881 80.5563 49.7042 80.5176 49.859 80.4789L50.1685 81.5623C49.8977 81.6783 49.5881 81.7557 49.2399 81.7557Z" fill="#EDEFF1"/>
<path d="M57.597 81.7946C56.9005 81.7946 56.2427 81.6012 55.6237 81.2529C55.0433 80.9047 54.5403 80.4404 54.1921 79.8214C53.8438 79.241 53.6504 78.5832 53.6504 77.8868C53.6504 77.1903 53.8438 76.5325 54.1921 75.9522C54.5403 75.3718 55.0046 74.8688 55.6237 74.5206C56.2041 74.1723 56.8618 74.0176 57.597 74.0176C58.216 74.0176 58.7964 74.1337 59.3381 74.4045C59.8798 74.6753 60.3441 75.0623 60.6923 75.5266L59.5316 76.223C59.2994 75.9522 59.0286 75.72 58.6803 75.5653C58.3321 75.4105 57.9839 75.3331 57.597 75.3331C57.1327 75.3331 56.707 75.4492 56.3201 75.6813C55.9332 75.9135 55.6237 76.223 55.3915 76.6099C55.1594 76.9968 55.0433 77.4225 55.0433 77.8868C55.0433 78.3511 55.1594 78.7767 55.3915 79.1636C55.6237 79.5505 55.9332 79.86 56.3201 80.0922C56.707 80.3243 57.1327 80.4404 57.597 80.4404C58.0226 80.4404 58.4095 80.363 58.719 80.2083C59.0286 80.0535 59.2994 79.8213 59.5316 79.5118C59.725 79.2023 59.8798 78.8541 59.9185 78.4671H57.3261V77.2677H61.3114C61.3501 77.4612 61.3888 77.6546 61.3888 77.8481C61.3888 78.6219 61.234 79.2797 60.9245 79.8987C60.6149 80.4791 60.1506 80.9434 59.5703 81.2916C58.9899 81.6012 58.3321 81.7946 57.597 81.7946Z" fill="#EDEFF1"/>
<path d="M65.2191 81.7171C64.6388 81.7171 64.1358 81.601 63.6715 81.3302C63.2072 81.0593 62.8589 80.7111 62.5881 80.2468C62.3172 79.7825 62.2012 79.3182 62.2012 78.7765C62.2012 78.2348 62.3172 77.7705 62.5881 77.3062C62.8589 76.8419 63.2072 76.4937 63.6328 76.2229C64.0584 75.952 64.5614 75.8359 65.0644 75.8359C65.6061 75.8359 66.1091 75.952 66.5347 76.2229C66.9603 76.4937 67.3085 76.8419 67.5793 77.2675C67.8502 77.6932 67.9663 78.1961 67.9663 78.7378C67.9663 78.8926 67.9663 79.0474 67.9276 79.2795H63.478C63.5167 79.5117 63.6328 79.7438 63.7875 79.9373C63.9423 80.1307 64.1358 80.2855 64.3679 80.4016C64.6001 80.5177 64.8709 80.5563 65.1418 80.5563C65.4513 80.5563 65.7608 80.5177 65.993 80.4016C66.2251 80.2855 66.4573 80.1307 66.612 79.9373L67.5793 80.5563C67.3085 80.9046 66.9603 81.1754 66.496 81.4076C66.1864 81.6397 65.7221 81.7171 65.2191 81.7171ZM66.7281 78.3509C66.6894 78.1188 66.612 77.8866 66.496 77.6932C66.3412 77.4997 66.1477 77.3449 65.9156 77.2288C65.6834 77.1128 65.4126 77.0354 65.1031 77.0354C64.8322 77.0354 64.5614 77.1128 64.3292 77.2288C64.0971 77.3449 63.9036 77.4997 63.7488 77.6932C63.5941 77.8866 63.5167 78.1188 63.5167 78.3509H66.7281Z" fill="#EDEFF1"/>
<path d="M68.9727 81.6401V75.9524H70.0947L70.1721 76.881C70.3269 76.5715 70.559 76.3393 70.8686 76.1458C71.1394 75.9524 71.4876 75.875 71.8745 75.875C72.3388 75.875 72.7258 75.9911 73.074 76.1845C73.4222 76.378 73.6931 76.7262 73.8865 77.1518C74.08 77.5774 74.1574 78.1191 74.1574 78.7769V81.6788H72.9192V78.7769C72.9192 78.39 72.8418 78.0804 72.7258 77.8483C72.6097 77.6161 72.4549 77.4227 72.2228 77.3066C72.0293 77.1905 71.7972 77.1131 71.5263 77.1131C71.2942 77.1131 71.062 77.1905 70.8299 77.3066C70.6364 77.4227 70.4816 77.6161 70.3269 77.8483C70.2108 78.0804 70.1334 78.4287 70.1334 78.7769V81.6788H68.9727V81.6401Z" fill="#EDEFF1"/>
<path d="M78.1039 81.7171C77.5235 81.7171 77.0205 81.601 76.5562 81.3302C76.0919 81.0593 75.7437 80.7111 75.4729 80.2468C75.202 79.7825 75.0859 79.3182 75.0859 78.7765C75.0859 78.2348 75.202 77.7705 75.4729 77.3062C75.7437 76.8419 76.0919 76.4937 76.5175 76.2229C76.9432 75.952 77.4461 75.8359 77.9491 75.8359C78.4908 75.8359 78.9938 75.952 79.4194 76.2229C79.845 76.4937 80.1933 76.8419 80.4641 77.2675C80.735 77.6932 80.851 78.1961 80.851 78.7378C80.851 78.8926 80.851 79.0474 80.8123 79.2795H76.3628C76.4015 79.5117 76.5175 79.7438 76.6723 79.9373C76.8271 80.1307 77.0205 80.2855 77.2527 80.4016C77.4848 80.5177 77.7557 80.5563 78.0265 80.5563C78.3361 80.5563 78.6456 80.5177 78.8777 80.4016C79.1099 80.2855 79.3421 80.1307 79.4968 79.9373L80.4641 80.5563C80.1933 80.9046 79.845 81.1754 79.3807 81.4076C79.0325 81.6397 78.5682 81.7171 78.1039 81.7171ZM79.5742 78.3509C79.5355 78.1188 79.4581 77.8866 79.342 77.6932C79.1873 77.4997 78.9938 77.3449 78.7617 77.2288C78.5295 77.1128 78.2587 77.0354 77.9491 77.0354C77.6783 77.0354 77.4075 77.1128 77.1753 77.2288C76.9432 77.3449 76.7497 77.4997 76.5949 77.6932C76.4402 77.8866 76.3628 78.1188 76.3628 78.3509H79.5742Z" fill="#EDEFF1"/>
<path d="M81.8574 81.6395V75.9518H82.9795L83.0569 76.803C83.2116 76.4935 83.4438 76.3 83.7533 76.1452C84.0629 75.9905 84.4111 75.9131 84.798 75.9131C84.9528 75.9131 85.1462 75.9131 85.2623 75.9518L85.0302 77.1125C84.9528 77.1125 84.9141 77.1125 84.8367 77.1125C84.3337 77.1125 83.9081 77.2673 83.5599 77.5768C83.2116 77.8864 83.0569 78.3894 83.0569 79.1245V81.6395H81.8574Z" fill="#EDEFF1"/>
<path d="M88.1251 81.7171C87.6221 81.7171 87.1578 81.601 86.7708 81.3302C86.3452 81.0593 86.0357 80.7111 85.7648 80.2468C85.5327 79.7825 85.3779 79.3182 85.3779 78.7765C85.3779 78.2348 85.494 77.7705 85.7648 77.3062C85.997 76.8419 86.3452 76.4937 86.7708 76.2229C87.1964 75.952 87.6221 75.8359 88.1251 75.8359C88.5507 75.8359 88.9376 75.952 89.2858 76.1455C89.634 76.3776 89.9049 76.6485 90.0983 76.9967L90.1757 75.9133H91.2978V81.601H90.1757L90.0983 80.5177C89.9436 80.8659 89.6727 81.1367 89.2858 81.3302C88.9376 81.601 88.5507 81.7171 88.1251 81.7171ZM88.3185 80.5177C88.628 80.5177 88.8989 80.4403 89.1697 80.2855C89.4406 80.1307 89.634 79.9373 89.7888 79.6664C89.9436 79.3956 90.021 79.1247 90.021 78.8152C90.021 78.5057 89.9436 78.2348 89.7888 77.964C89.634 77.6931 89.4406 77.4997 89.1697 77.3449C88.8989 77.1901 88.628 77.1128 88.3185 77.1128C88.009 77.1128 87.7381 77.1901 87.4673 77.3449C87.1964 77.4997 87.003 77.6931 86.8482 77.964C86.6935 78.2348 86.6161 78.5057 86.6161 78.8152C86.6161 79.1247 86.6935 79.3956 86.8482 79.6664C87.003 79.9373 87.1964 80.1307 87.4673 80.2855C87.7381 80.4403 88.009 80.5177 88.3185 80.5177Z" fill="#EDEFF1"/>
<path d="M93.7743 73.5918H92.5361V81.6397H93.7743V73.5918Z" fill="#EDEFF1"/>
<path d="M97.334 81.6396L100.004 74.0947H101.435L104.105 81.6396H102.673L102.054 79.8985H99.3847L98.7656 81.6396H97.334ZM99.7716 78.6604H101.706L100.739 75.8746L99.7716 78.6604Z" fill="#EDEFF1"/>
<path d="M106.89 81.7169C106.426 81.7169 106.039 81.6008 105.691 81.4073C105.343 81.2139 105.072 80.8656 104.878 80.44C104.685 80.0144 104.607 79.4727 104.607 78.815V75.9131H105.846V78.815C105.846 79.2019 105.923 79.5114 106.039 79.7436C106.155 79.9757 106.31 80.1692 106.542 80.2853C106.735 80.4013 106.968 80.4787 107.238 80.4787C107.509 80.4787 107.741 80.4013 107.935 80.2853C108.128 80.1692 108.283 79.9757 108.438 79.7436C108.554 79.5114 108.631 79.2019 108.631 78.815V75.9131H109.87V81.6008H108.747L108.67 80.6722C108.515 80.9817 108.283 81.2139 107.974 81.4073C107.587 81.6395 107.277 81.7169 106.89 81.7169Z" fill="#EDEFF1"/>
<path d="M113.352 81.7557C112.772 81.7557 112.269 81.5623 111.882 81.1753C111.495 80.7884 111.302 80.208 111.302 79.3955V77.0353H110.566V75.9519H111.379L111.534 74.0947H112.54V75.9519H113.855V77.0353H112.54V79.3568C112.54 79.7437 112.617 80.0533 112.811 80.2467C112.965 80.4402 113.236 80.5563 113.546 80.5563C113.7 80.5563 113.817 80.5176 113.971 80.4789L114.281 81.5623C114.01 81.6783 113.7 81.7557 113.352 81.7557Z" fill="#EDEFF1"/>
<path d="M115.093 81.6397V73.5918H116.331V76.8419C116.486 76.5711 116.718 76.3002 117.027 76.1455C117.298 75.952 117.646 75.8746 118.033 75.8746C118.498 75.8746 118.885 75.9907 119.233 76.1841C119.581 76.3776 119.852 76.7258 120.045 77.1514C120.239 77.577 120.316 78.1187 120.316 78.7765V81.6784H119.078V78.7765C119.078 78.3896 119.001 78.0801 118.885 77.8479C118.768 77.6157 118.614 77.4223 118.382 77.3062C118.188 77.1901 117.956 77.1128 117.685 77.1128C117.453 77.1128 117.221 77.1901 116.989 77.3062C116.795 77.4223 116.64 77.6157 116.486 77.8479C116.37 78.0801 116.292 78.4283 116.292 78.7765V81.6784H115.093V81.6397Z" fill="#EDEFF1"/>
<path d="M124.109 81.7171C123.567 81.7171 123.103 81.601 122.638 81.3302C122.174 81.0593 121.826 80.7111 121.555 80.2468C121.284 79.7825 121.168 79.3182 121.168 78.7765C121.168 78.2348 121.284 77.7705 121.555 77.3062C121.826 76.8419 122.174 76.4937 122.638 76.2229C123.103 75.952 123.567 75.8359 124.109 75.8359C124.65 75.8359 125.115 75.952 125.579 76.2229C126.043 76.4937 126.391 76.8419 126.662 77.3062C126.933 77.7705 127.049 78.2348 127.049 78.7765C127.049 79.3182 126.933 79.7825 126.662 80.2468C126.391 80.7111 126.043 81.0593 125.579 81.3302C125.115 81.601 124.612 81.7171 124.109 81.7171ZM124.109 80.479C124.418 80.479 124.689 80.4016 124.96 80.2468C125.231 80.092 125.424 79.8986 125.579 79.6277C125.734 79.3569 125.811 79.0861 125.811 78.7765C125.811 78.467 125.734 78.1961 125.579 77.9253C125.424 77.6545 125.231 77.461 124.96 77.3062C124.689 77.1515 124.418 77.0741 124.109 77.0741C123.799 77.0741 123.528 77.1515 123.257 77.3062C122.986 77.461 122.793 77.6545 122.638 77.9253C122.483 78.1961 122.406 78.467 122.406 78.7765C122.406 79.0861 122.483 79.3569 122.638 79.6277C122.793 79.8986 122.986 80.092 123.257 80.2468C123.528 80.4016 123.799 80.479 124.109 80.479Z" fill="#EDEFF1"/>
<path d="M128.017 81.6395V75.9518H129.139L129.216 76.803C129.371 76.4935 129.603 76.3 129.912 76.1452C130.222 75.9905 130.57 75.9131 130.957 75.9131C131.112 75.9131 131.305 75.9131 131.421 75.9518L131.189 77.1125C131.112 77.1125 131.073 77.1125 130.996 77.1125C130.493 77.1125 130.067 77.2673 129.719 77.5768C129.371 77.8864 129.216 78.3894 129.216 79.1245V81.6395H128.017Z" fill="#EDEFF1"/>
<path d="M133.51 74.0947H132.233V75.3716H133.51V74.0947Z" fill="#EDEFF1"/>
<path d="M133.472 75.9521H132.233V81.6398H133.472V75.9521Z" fill="#EDEFF1"/>
<path d="M137.07 81.7557C136.49 81.7557 135.987 81.5623 135.6 81.1753C135.213 80.7884 135.019 80.208 135.019 79.3955V77.0353H134.284V75.9519H135.097L135.251 74.0947H136.257V75.9519H137.573V77.0353H136.257V79.3568C136.257 79.7437 136.335 80.0533 136.528 80.2467C136.683 80.4402 136.954 80.5563 137.263 80.5563C137.418 80.5563 137.534 80.5176 137.689 80.4789L137.999 81.5623C137.689 81.6783 137.418 81.7557 137.07 81.7557Z" fill="#EDEFF1"/>
<path d="M139.392 84.0004C139.199 84.0004 139.005 84.0004 138.812 83.9617C138.657 83.923 138.463 83.8844 138.309 83.807L138.657 82.7236C138.734 82.7623 138.85 82.801 138.966 82.8397C139.082 82.8784 139.198 82.8784 139.315 82.8784C139.508 82.8784 139.663 82.8397 139.818 82.7236C139.972 82.6075 140.127 82.4914 140.243 82.298C140.359 82.1045 140.475 81.8724 140.591 81.6015V81.5628C140.591 81.5628 140.591 81.5628 140.591 81.5242L138.347 75.9912H139.663L141.133 79.8604L142.565 75.9912H143.88L141.791 81.6789C141.559 82.2593 141.365 82.7236 141.133 83.0718C140.901 83.4201 140.63 83.6522 140.359 83.807C140.127 83.923 139.779 84.0004 139.392 84.0004Z" fill="#EDEFF1"/>
<path d="M77.4069 42.9864H83.3268V16.6373H90.2526V10.6787H70.4424V16.6373H77.4069V42.9864Z" fill="#EDEFF1"/>
<path d="M105.033 28.6324L110.218 31.9986V32.2307C110.218 35.3648 107.664 37.9571 104.53 37.9571C101.396 37.9571 98.8036 35.4034 98.8036 32.2307V21.5131C98.8036 18.379 101.357 15.7867 104.53 15.7867C107.509 15.7867 109.947 18.0695 110.218 20.9714H116.138C115.867 14.7807 110.759 9.82812 104.53 9.82812C98.1072 9.82812 92.8838 15.0515 92.8838 21.4744V32.192C92.8838 38.6149 98.1072 43.8383 104.53 43.8383C110.953 43.8383 116.176 38.6149 116.176 32.192V25.7692H105.033V28.6324Z" fill="#EDEFF1"/>
<path d="M135.986 35.1706L138.076 42.9864H143.957L135.329 10.6787H126.197L117.53 42.9864H123.411L125.501 35.1706H135.986ZM130.763 15.67L134.4 29.2508H127.126L130.763 15.67Z" fill="#EDEFF1"/>
<path d="M37.9415 62.9516C37.9415 64.2284 37.4385 64.8475 36.4325 64.8475H35.7361C34.7301 64.8475 34.2271 64.2284 34.2271 62.9516V51.8857H32.4086V62.9516C32.4086 64.2284 31.9056 64.8475 30.8996 64.8475H30.1645C29.1585 64.8475 28.6555 64.2284 28.6555 62.9516V57.1865H26.837V62.9516C26.837 64.2284 26.334 64.8475 25.328 64.8475H23.316V62.0617C23.316 60.6688 22.8517 59.508 21.9618 58.5794C21.0332 57.6508 19.9111 57.1865 18.5956 57.1865C17.3188 57.1865 16.2354 57.6121 15.3455 58.5021C14.4556 59.392 14.03 60.4366 14.03 61.6361C14.03 62.2939 14.1847 62.9129 14.4943 63.4546C14.8038 64.035 15.1907 64.4606 15.6937 64.8475H12.3275C11.3215 64.8475 10.8185 64.2284 10.8185 62.9516V51.8857H9.00002V65.4279C9.00002 66.55 8.69049 67.4786 8.07142 68.175C7.45235 68.8715 6.67851 69.181 5.71121 69.181C4.78261 69.181 4.00877 68.8328 3.3897 68.175C2.77063 67.4786 2.4611 66.5886 2.4611 65.4279V59.0824H0.642578V65.4279C0.642578 67.0529 1.14557 68.4072 2.11287 69.4131C3.08017 70.4578 4.27961 70.9608 5.71121 70.9608C7.06543 70.9608 8.18749 70.4965 9.15478 69.6066C10.1221 68.678 10.6638 67.4786 10.7798 66.0083C11.1281 66.4339 11.6698 66.666 12.2888 66.666H25.3667C26.4114 66.666 27.2239 66.2404 27.7656 65.3892C28.2686 66.2404 29.0811 66.666 30.1645 66.666H30.8996C31.9443 66.666 32.7568 66.2404 33.2985 65.3892C33.8015 66.2404 34.614 66.666 35.6974 66.666H36.3938C37.3998 66.666 38.2124 66.3178 38.8314 65.66C39.4118 64.9636 39.7213 64.0737 39.7213 62.9516V51.8857H37.9028V62.9516H37.9415ZM21.5749 64.8475H18.673C17.8605 64.8475 17.164 64.5767 16.6223 63.9963C16.0419 63.4159 15.7711 62.7195 15.7711 61.9456C15.7711 61.1718 16.0419 60.4366 16.6223 59.8563C17.2027 59.2759 17.8605 59.005 18.673 59.005C19.4855 59.005 20.182 59.2759 20.7236 59.8563C21.304 60.4366 21.5749 61.1331 21.5749 61.9456V64.8475ZM61.9692 57.1865C60.6536 57.1865 59.5703 57.6508 58.603 58.5794C57.6744 59.508 57.2101 60.6301 57.2101 61.9456C57.2101 62.5647 57.3648 63.1064 57.6357 63.6094C57.9065 64.1124 58.2934 64.538 58.7577 64.8475H55.7398C54.7725 64.8475 54.2695 64.2284 54.2695 62.9516V57.1865H49.7425C48.427 57.1865 47.3436 57.6508 46.415 58.5794C45.4864 59.508 45.0221 60.6301 45.0221 61.9456C45.0221 63.2611 45.4864 64.3832 46.415 65.3118C47.3436 66.2404 48.4657 66.7047 49.7812 66.7047C51.2902 66.7047 52.4123 66.1243 53.1861 64.9249C53.6117 66.1243 54.4629 66.7047 55.7785 66.7047H62.0078C63.3234 66.7047 64.4454 66.2404 65.374 65.3118C66.3027 64.3832 66.7669 63.2611 66.7669 61.9456C66.7669 60.6301 66.3027 59.508 65.374 58.5794C64.3681 57.6508 63.246 57.1865 61.9692 57.1865ZM52.451 61.9456C52.451 62.8355 52.1801 63.532 51.6771 64.0737C51.1741 64.6154 50.5164 64.8862 49.7425 64.8862C48.93 64.8862 48.2336 64.6154 47.6919 64.035C47.1115 63.4546 46.8406 62.7582 46.8406 61.9843C46.8406 61.2105 47.1115 60.4753 47.6919 59.895C48.2722 59.3146 48.93 59.0437 49.7425 59.0437H52.451V61.9456ZM64.0198 63.9963C63.4394 64.5767 62.743 64.8475 61.9692 64.8475C61.1566 64.8475 60.4602 64.5767 59.9185 63.9963C59.3381 63.4159 59.0673 62.7195 59.0673 61.9456C59.0673 61.1718 59.3381 60.4366 59.9185 59.8563C60.4989 59.2759 61.1953 59.005 61.9692 59.005C62.7817 59.005 63.4781 59.2759 64.0198 59.8563C64.6002 60.4366 64.871 61.1331 64.871 61.9456C64.871 62.7582 64.6002 63.4546 64.0198 63.9963ZM88.0088 62.9516C88.0088 64.2284 87.5058 64.8475 86.4998 64.8475H81.8181C82.3598 64.2671 82.7467 63.8415 82.9788 63.5707C83.211 63.2998 83.5205 62.9129 83.9074 62.4486C84.2943 61.9456 84.5265 61.52 84.72 61.0944C84.8747 60.6688 84.9521 60.2819 84.9521 59.895C84.9521 58.1151 83.6753 57.1865 81.1603 57.1865H74.0023V60.3593L77.0203 64.8475H72.4933C71.4874 64.8475 70.9844 64.2284 70.9844 62.9516V51.8857H69.1658V62.9516C69.1658 64.0737 69.4754 64.9636 70.0557 65.66C70.6361 66.3565 71.4487 66.666 72.4546 66.666H86.4611C87.4671 66.666 88.2796 66.3178 88.8987 65.66C89.4791 64.9636 89.7886 64.0737 89.7886 62.9516V51.8857H87.9701V62.9516H88.0088ZM81.0442 63.4546C80.8895 63.6094 80.696 63.8415 80.3865 64.1897C80.0769 64.4993 79.8835 64.7314 79.7287 64.8862H79.1483L76.1304 60.2819V59.005H80.5025C81.3151 59.005 81.9342 59.1211 82.3211 59.3146C82.708 59.508 82.9014 59.895 82.9014 60.4753C82.9014 60.6301 82.8627 60.8236 82.8241 60.9783C82.7854 61.1718 82.6693 61.3652 82.5532 61.5587C82.4371 61.7909 82.2824 61.9843 82.1663 62.1391C82.0502 62.3325 81.8568 62.526 81.6246 62.7968C81.3925 63.0677 81.199 63.2611 81.0442 63.4546ZM93 51.8857H94.8185V66.666H93V51.8857ZM137.186 62.9516C137.186 64.2284 136.683 64.8475 135.677 64.8475H133.743V61.8682C133.743 60.5527 133.278 59.4307 132.35 58.5021C131.421 57.5734 130.299 57.1091 128.983 57.1091H125.076V64.8475H123.528H122.29C121.284 64.8475 120.781 64.2284 120.781 62.9516V57.1865H118.962V62.9516C118.962 64.2284 118.459 64.8475 117.492 64.8475H116.176C115.209 64.8475 114.706 64.2284 114.706 62.9516V57.1865H112.888V62.9516C112.888 64.2284 112.385 64.8475 111.379 64.8475H110.682C109.715 64.8475 109.212 64.2284 109.212 62.9516V57.1865H104.685C103.369 57.1865 102.286 57.6508 101.357 58.5794C100.429 59.508 99.9646 60.6301 99.9646 61.9456C99.9646 63.2611 100.429 64.3832 101.357 65.3118C102.286 66.2404 103.408 66.7047 104.724 66.7047C106.233 66.7047 107.355 66.1243 108.129 64.9249C108.554 66.1243 109.405 66.7047 110.721 66.7047H111.417C112.501 66.7047 113.313 66.2791 113.816 65.4279C114.319 66.2791 115.132 66.7047 116.215 66.7047H117.531C118.614 66.7047 119.388 66.2791 119.93 65.4279C120.433 66.2791 121.245 66.7047 122.328 66.7047H123.567H125.076C125.153 68.175 125.617 69.3358 126.391 70.1483C127.165 70.9608 128.171 71.3864 129.409 71.3864C130.608 71.3864 131.653 70.9608 132.427 70.1096C133.24 69.2584 133.665 68.1363 133.743 66.7047H135.716C136.722 66.7047 137.534 66.3565 138.153 65.6987C138.734 65.0023 139.043 64.1124 139.043 62.9903V51.9244H137.225V62.9516H137.186ZM107.393 61.9456C107.393 62.8355 107.123 63.532 106.62 64.0737C106.117 64.6154 105.459 64.8862 104.685 64.8862C103.872 64.8862 103.176 64.6154 102.634 64.035C102.054 63.4546 101.783 62.7582 101.783 61.9843C101.783 61.2105 102.054 60.4753 102.634 59.895C103.215 59.3146 103.911 59.0437 104.685 59.0437H107.393V61.9456ZM131.885 66.55C131.885 67.4786 131.653 68.2137 131.15 68.7941C130.647 69.3358 130.067 69.6066 129.332 69.6066C128.597 69.6066 128.016 69.3745 127.552 68.8715C127.126 68.3685 126.855 67.6333 126.778 66.666H128.364C129.138 66.666 129.835 66.5113 130.454 66.2017C131.073 65.8922 131.537 65.5053 131.885 65.0023V66.55ZM130.995 64.035C130.415 64.5767 129.641 64.8475 128.713 64.8475H126.817V58.9277H128.945C129.757 58.9277 130.454 59.1985 131.034 59.7789C131.614 60.3593 131.885 61.0557 131.885 61.8682C131.885 62.7581 131.614 63.4933 130.995 64.035ZM143.957 66.666H142.139V51.8857H143.957V66.666ZM104.53 55.9097H102.596V53.9751H104.53V55.9097ZM107.393 55.9097H105.459V53.9751H107.393V55.9097ZM117.453 68.5232H119.388V70.4578H117.453V68.5232ZM120.355 68.5232H122.29V70.4578H120.355V68.5232ZM49.5878 55.9097H47.6532V53.9751H49.5878V55.9097ZM52.451 55.9097H50.5164V53.9751H52.451V55.9097ZM18.4795 55.9097H16.5449V53.9751H18.4795V55.9097ZM21.3427 55.9097H19.4081V53.9751H21.3427V55.9097ZM28.8102 55.9097H26.8757V53.9751H28.8102V55.9097Z" fill="#EDEFF1"/>
<path d="M115.442 55.9093H111.998V55.0968H112.811C112.578 54.8259 112.462 54.5164 112.462 54.1295C112.462 53.7039 112.617 53.3556 112.927 53.0848C113.236 52.8139 113.584 52.6592 114.049 52.6592C114.552 52.6592 114.977 52.8526 115.326 53.2396L114.784 53.7812C114.629 53.5491 114.397 53.4717 114.087 53.4717C113.855 53.4717 113.662 53.5491 113.507 53.7039C113.352 53.8586 113.275 54.0521 113.275 54.2842C113.275 54.5164 113.352 54.7099 113.507 54.8646C113.662 55.0194 113.855 55.1355 114.087 55.1355H115.519V55.9093H115.442Z" fill="#EDEFF1"/>
<mask id="mask0_9_121889" style="mask-type:luminance" maskUnits="userSpaceOnUse" x="0" y="0" width="65" height="43">
<path d="M7.68548 24.4533L48.6988 42.5223C49.0084 42.6771 49.3566 42.7158 49.6661 42.7158H56.708L12.638 22.1317L7.68548 24.4533ZM0.682249 21.3579L6.02172 23.7181L11.013 21.3966L0.643555 16.5601V21.3579H0.682249ZM14.2244 21.3966L59.8808 42.7158H62.0862C63.4404 42.7158 64.5238 41.6324 64.5238 40.2782V28.6707C64.5238 27.8581 64.0982 27.0843 63.4017 26.62L37.9812 10.292L14.2244 21.3966ZM7.99501 13.813L11.5933 9.67296C11.7094 9.5182 11.9029 9.44081 12.0963 9.44081H13.141C13.3345 9.44081 13.5279 9.5182 13.644 9.67296L17.2424 13.813L16.2364 14.7029L13.2958 11.3367V17.6822H11.9416V11.3367L9.001 14.7029L7.99501 13.813ZM14.1083 6.96453L20.1442 5.91986L20.3764 7.23538L15.8108 8.00922L20.1442 11.3754L19.3317 12.4588L13.9536 8.31875H11.3225L5.94434 12.4588L5.13181 11.3754L9.4653 8.00922L4.89966 7.23538L5.13181 5.91986L11.1677 6.96453H14.1083ZM13.9149 4.52695L16.3524 2.12805L17.281 3.09535L14.65 5.68771C14.5339 5.80378 14.3405 5.88117 14.1857 5.88117H11.129C10.9356 5.88117 10.7808 5.80378 10.6647 5.68771L8.0337 3.09535L8.9623 2.12805L11.3999 4.52695H13.9149ZM13.2958 0V2.97928H11.9416V0H0.682249V15.0511L12.638 20.6228L36.6657 9.40213L22.0401 0H13.2958Z" fill="white"/>
</mask>
<g mask="url(#mask0_9_121889)">
<path d="M46.0283 71.6961L-18.7031 30.3345L19.2149 -28.9414L83.9077 12.4202L46.0283 71.6961Z" fill="#EDEFF1"/>
</g>
</svg>
