<svg width="131" height="84" viewBox="0 0 131 84" fill="none" xmlns="http://www.w3.org/2000/svg">
<path d="M26.7335 53.8977C26.2273 52.9016 25.4924 52.3953 24.5126 52.3953C24.1043 52.3953 23.7287 52.4933 23.3857 52.6729C23.0265 52.8526 22.7325 53.0975 22.4712 53.4241C22.2099 53.7507 22.0139 54.1264 21.867 54.551C21.72 54.9919 21.6383 55.4492 21.6383 55.9391C21.6383 56.8046 21.867 57.4742 22.3406 57.9641C22.8141 58.454 23.4511 58.6827 24.2839 58.6827C24.6595 58.6827 25.0188 58.6337 25.3454 58.5193C25.672 58.405 25.966 58.2417 26.2273 58.0458V59.3686C26.2273 59.6135 25.819 59.8095 24.9861 59.9401C24.1533 60.0708 10.0271 60.1361 8.39404 60.1361H7.95311C7.33254 60.1361 6.8916 60.0218 6.61398 59.7932C6.33636 59.5645 6.20571 59.1726 6.22204 58.6337L6.30369 52.2646L4.81759 52.5259V53.6691C3.29883 53.9794 2.12301 54.4856 1.2738 55.1552C0.424602 55.8248 0 56.6576 0 57.6212C0 58.0294 0.0816541 58.3887 0.244962 58.699C0.40827 59.0256 0.620571 59.2869 0.898195 59.4992C1.17582 59.7115 1.50244 59.8748 1.86171 59.9891C2.23732 60.1034 2.62926 60.1524 3.05386 60.1524C3.77242 60.1524 4.39299 60.0055 4.91558 59.6952C5.12788 61.116 6.14039 61.8182 7.93678 61.8182H8.37771C9.04727 61.8182 22.5202 61.8018 23.0264 61.7855C23.5327 61.7692 23.9736 61.7365 24.3656 61.6875C24.7575 61.6385 25.0841 61.5732 25.3781 61.5079C25.6557 61.4426 25.917 61.3446 26.162 61.2303C26.6519 61.0016 26.9948 60.675 27.1908 60.2504C27.3868 59.8258 27.4848 59.1889 27.4848 58.356C27.4848 56.38 27.2398 54.8939 26.7335 53.8977ZM25.3944 57.1149C25.0841 57.1965 24.7738 57.2455 24.4472 57.2455C23.9246 57.2455 23.5164 57.1312 23.2387 56.8863C22.9611 56.6576 22.8141 56.2984 22.8141 55.8411C22.8141 55.3185 22.9775 54.8776 23.2877 54.5183C23.598 54.159 23.99 53.9794 24.4472 53.9794C24.9535 53.9794 25.3291 54.1917 25.6067 54.6326C25.8843 55.0735 26.0476 55.7758 26.1456 56.7556C25.9497 56.9026 25.7047 57.0169 25.3944 57.1149ZM3.28249 58.4867C3.0212 58.4867 2.75991 58.4704 2.51495 58.4214C2.26998 58.3724 2.05768 58.307 1.86171 58.2091C1.66574 58.1111 1.51877 57.9968 1.42078 57.8335C1.30647 57.6865 1.25747 57.4905 1.25747 57.2619C1.25747 56.9843 1.35546 56.7393 1.55143 56.4943C1.7474 56.2657 2.00869 56.0534 2.33531 55.8738C2.66192 55.6941 3.05386 55.5471 3.47846 55.4165C3.90307 55.3022 4.344 55.2042 4.81759 55.1552L4.85025 58.1764C4.40932 58.3887 3.88673 58.4867 3.28249 58.4867Z" fill="#EDEFF1"/>
<path d="M49.6781 51.6924L48.5186 50.5166L47.3428 51.6924L48.5186 52.8846L49.6781 51.6924Z" fill="#EDEFF1"/>
<path d="M52.4212 51.6924L51.2618 50.5166L50.0859 51.6924L51.2618 52.8846L52.4212 51.6924Z" fill="#EDEFF1"/>
<path d="M71.6263 51.3992L70.4505 50.207L69.291 51.3992L70.4505 52.575L71.6263 51.3992Z" fill="#EDEFF1"/>
<path d="M71.8236 55.0086L72.9994 53.8164L71.8236 52.6406L70.6641 53.8164L71.8236 55.0086Z" fill="#EDEFF1"/>
<path d="M70.2562 53.8164L69.0804 52.6406L67.9209 53.8164L69.0804 55.0086L70.2562 53.8164Z" fill="#EDEFF1"/>
<path d="M88.0229 49.9293L88.0719 59.1398C88.0719 59.3195 88.0066 59.4665 87.8759 59.5971C87.7453 59.7277 87.582 59.8257 87.3697 59.8911C87.1574 59.9727 86.9287 60.0217 86.6674 60.0544C86.4061 60.087 73.2598 60.1034 72.9822 60.1034C71.4961 60.1034 70.7449 59.7114 70.7449 58.9439C70.7449 58.8459 70.7776 58.5683 70.8265 58.1273C70.8755 57.6864 70.9409 57.2128 70.9899 56.6739L69.7161 56.5269C69.6834 56.6902 69.6671 56.8862 69.6344 57.0985C69.6017 57.3108 69.5854 57.5231 69.5364 57.7354C69.5038 57.9477 69.4548 58.16 69.4221 58.3723C69.3894 58.5846 69.3568 58.7479 69.3241 58.8949C69.2261 59.3358 68.9812 59.6461 68.5892 59.8421C68.1973 60.038 54.708 60.1197 53.8752 60.1197C53.4996 60.1197 53.1403 60.1197 52.7973 60.1034C52.4544 60.087 52.1441 60.0707 51.8501 60.0544C52.5034 59.4338 52.83 58.6826 52.83 57.7517C52.83 57.2945 52.7483 56.8535 52.6014 56.4453C52.4381 56.037 52.2258 55.6777 51.9645 55.3838C51.7032 55.0898 51.3766 54.8448 51.0173 54.6652C50.658 54.4856 50.2824 54.4039 49.8741 54.4039C49.4658 54.4039 49.0902 54.4856 48.731 54.6652C48.3717 54.8448 48.0614 55.0735 47.7838 55.3838C47.5062 55.6777 47.2938 56.037 47.1469 56.4453C46.9836 56.8535 46.9182 57.2945 46.9182 57.7517C46.9182 58.6826 47.2449 59.4501 47.8981 60.0544C47.5878 60.087 47.2775 60.1034 46.9346 60.1034C46.5916 60.1197 33.3473 60.1197 32.9881 60.1197C32.3675 60.1197 31.9266 60.0054 31.6653 59.7767C31.3876 59.5481 31.257 59.1562 31.257 58.6173L31.3386 49.6843L29.8525 49.9456L29.9342 59.1725C29.9669 60.9199 30.9794 61.8018 33.0044 61.8018C33.7066 61.8018 47.2938 61.7528 47.9797 61.6385C48.6493 61.5241 49.3025 61.3608 49.8904 61.1485C50.4947 61.3608 51.1316 61.5241 51.8012 61.6385C52.487 61.7528 53.1729 61.8018 53.8752 61.8018C54.659 61.8018 68.2463 61.6874 68.8179 61.4751C69.3894 61.2628 69.7977 60.9526 70.0427 60.5443C70.5326 61.3772 71.5124 61.8018 72.9822 61.8018C73.4558 61.8018 86.7654 61.7528 87.19 61.6548C87.6146 61.5568 87.9902 61.4098 88.3169 61.1812C88.6435 60.9689 88.9211 60.6749 89.1171 60.3157C89.3294 59.9564 89.4274 59.5154 89.4274 58.9929L89.509 49.668L88.0229 49.9293ZM49.8904 59.6461C48.731 59.2705 48.1594 58.6499 48.1594 57.7844C48.1594 57.5394 48.2084 57.2945 48.29 57.0822C48.3717 56.8699 48.5023 56.6739 48.6493 56.5106C48.8126 56.3473 48.9923 56.2166 49.2046 56.135C49.4169 56.0533 49.6455 56.0043 49.8904 56.0043C50.1354 56.0043 50.3477 56.0533 50.56 56.135C50.7723 56.2166 50.952 56.3473 51.1153 56.5106C51.2786 56.6739 51.3929 56.8699 51.4909 57.0822C51.5725 57.2945 51.6215 57.5231 51.6215 57.7844C51.6215 58.6499 51.0336 59.2705 49.8904 59.6461Z" fill="#EDEFF1"/>
<path d="M91.9749 61.7854L91.877 49.9293L93.3631 49.668L93.2651 61.7854H91.9749Z" fill="#EDEFF1"/>
<path d="M105.317 58.9767C105.317 59.8749 105.023 60.5934 104.452 61.1323C103.88 61.6713 103.08 61.9325 102.084 61.9325C101.022 61.9325 100.205 61.6713 99.6503 61.1487C99.095 60.6261 98.8174 59.8749 98.8174 58.895C98.8174 58.2744 98.899 57.7029 99.0787 57.164C99.2583 56.625 99.4869 56.1351 99.7809 55.7268C100.075 55.3186 100.418 54.992 100.81 54.747C101.202 54.502 101.626 54.3877 102.067 54.3877C102.524 54.3877 102.933 54.502 103.341 54.747C103.733 54.992 104.076 55.3186 104.37 55.7268C104.664 56.1351 104.892 56.625 105.056 57.1803C105.235 57.7355 105.317 58.3398 105.317 58.9767ZM100.695 52.8853L99.5359 51.6931L100.695 50.501L101.855 51.6931L100.695 52.8853ZM104.043 59.14C104.043 58.699 103.994 58.2908 103.896 57.9315C103.798 57.5559 103.668 57.2456 103.488 56.968C103.308 56.7067 103.112 56.4944 102.867 56.3311C102.622 56.1841 102.361 56.1025 102.084 56.1025C101.822 56.1025 101.561 56.1678 101.316 56.2984C101.071 56.4291 100.859 56.6087 100.679 56.8373C100.499 57.066 100.369 57.3273 100.254 57.6212C100.157 57.9152 100.091 58.2418 100.091 58.5847C100.091 59.1236 100.254 59.5319 100.597 59.8095C100.94 60.0872 101.43 60.2341 102.067 60.2341C102.329 60.2341 102.573 60.2015 102.818 60.1525C103.063 60.1035 103.259 60.0218 103.439 59.9075C103.619 59.8095 103.749 59.6789 103.864 59.5483C103.994 59.4339 104.043 59.287 104.043 59.14ZM103.439 52.8853L102.28 51.6931L103.439 50.501L104.598 51.6931L103.439 52.8853Z" fill="#EDEFF1"/>
<path d="M104.794 64.0717C105.48 63.8268 106.1 63.5328 106.672 63.2062C107.244 62.8796 107.75 62.5366 108.174 62.1774C108.599 61.8181 108.926 61.4588 109.154 61.0995C109.399 60.7402 109.514 60.3973 109.514 60.0707C109.514 59.8747 109.465 59.6134 109.383 59.3031C109.301 58.9928 109.171 58.6499 109.024 58.2743C108.86 57.8987 108.681 57.5231 108.468 57.1148C108.256 56.7065 108.027 56.3309 107.782 55.9553L109.138 55.2041C109.661 55.9063 110.085 56.6902 110.379 57.5394C110.673 58.3886 110.836 59.1888 110.836 59.9237C110.836 61.0995 110.379 62.1774 109.481 63.1735C108.583 64.1534 107.309 64.9536 105.659 65.5578L104.794 64.0717Z" fill="#EDEFF1"/>
<path d="M113.433 61.7854L113.335 49.9293L114.821 49.668L114.723 61.7854H113.433Z" fill="#EDEFF1"/>
<path d="M115.754 64.0715C116.423 63.8265 117.06 63.5326 117.632 63.2059C118.204 62.8793 118.71 62.5364 119.134 62.1771C119.559 61.8178 119.886 61.4585 120.114 61.0993C120.359 60.74 120.474 60.397 120.474 60.0704C120.474 59.8745 120.425 59.6132 120.343 59.3029C120.261 58.9926 120.131 58.6497 119.984 58.274C119.82 57.8984 119.641 57.5228 119.428 57.1145C119.216 56.7063 118.987 56.3307 118.742 55.9551L120.098 55.2039C120.62 55.9061 121.045 56.69 121.339 57.5392C121.633 58.3884 121.796 59.1886 121.796 59.9235C121.796 61.0993 121.339 62.1771 120.441 63.1733C119.543 64.1531 118.269 64.9533 116.619 65.5576L115.754 64.0715ZM119.2 53.6851L118.04 52.4929L119.2 51.3008L120.359 52.4929L119.2 53.6851Z" fill="#EDEFF1"/>
<path d="M124.262 64.0063C126.973 63.6307 128.524 62.6509 128.949 61.0504C128.704 61.2464 128.41 61.3771 128.067 61.4914C127.74 61.5894 127.381 61.6383 127.005 61.6383C126.172 61.6383 125.519 61.3444 125.013 60.7728C124.507 60.2012 124.262 59.4337 124.262 58.5028C124.262 57.9802 124.343 57.4903 124.49 57.0494C124.637 56.6085 124.85 56.2165 125.111 55.8899C125.372 55.5633 125.682 55.302 126.058 55.1224C126.417 54.9427 126.809 54.8447 127.234 54.8447C128.214 54.8447 128.981 55.2857 129.52 56.1675C130.059 57.0494 130.337 58.2905 130.337 59.9073C130.337 60.6585 130.206 61.3607 129.945 61.9976C129.684 62.6345 129.324 63.2061 128.851 63.696C128.377 64.186 127.806 64.5942 127.152 64.9045C126.483 65.2311 125.748 65.4434 124.931 65.5577L124.262 64.0063ZM127.25 60.1196C127.593 60.1196 127.936 60.0706 128.279 59.9726C128.606 59.8746 128.867 59.744 129.063 59.597C129.014 58.6008 128.834 57.8333 128.508 57.2943C128.181 56.7554 127.74 56.4778 127.185 56.4778C126.695 56.4778 126.303 56.6574 125.993 57.0167C125.682 57.376 125.536 57.8496 125.536 58.4375C125.536 58.9601 125.682 59.3684 125.993 59.6623C126.287 59.9726 126.711 60.1196 127.25 60.1196Z" fill="#EDEFF1"/>
<path d="M0.506255 68.4805H2.04135L5.4055 74.2289L8.76965 68.4805H10.2558L10.7783 79.5364H9.21058L8.8513 71.0444L5.73212 76.2703H4.93191L1.86171 71.1097L1.4861 79.5364H0L0.506255 68.4805Z" fill="#EDEFF1"/>
<path d="M13.489 68.4316L14.6648 69.6075L13.489 70.7996L12.2969 69.6075L13.489 68.4316ZM12.7541 71.8284H14.2402V79.5366H12.7541V71.8284Z" fill="#EDEFF1"/>
<path d="M16.364 79.5362V72.6283V72.318C16.364 72.22 16.364 72.0567 16.3477 71.8281H17.7684L17.8174 72.9876C17.9154 72.8569 18.0461 72.7099 18.1767 72.5466C18.3237 72.3833 18.5033 72.2364 18.6993 72.1057C18.9116 71.9751 19.1566 71.8607 19.4342 71.7791C19.7118 71.6974 20.0384 71.6484 20.3814 71.6484C21.3939 71.6484 22.1288 71.9424 22.6187 72.5303C23.1086 73.1182 23.3536 73.9184 23.3536 74.9146V79.5362H21.8675V75.0289C21.8675 74.3104 21.7205 73.7878 21.4102 73.4448C21.0999 73.1019 20.659 72.9386 20.1037 72.9386C19.6791 72.9386 19.3199 73.0202 19.0259 73.1999C18.732 73.3795 18.5033 73.6081 18.34 73.8858C18.1604 74.1634 18.0461 74.49 17.9644 74.8493C17.8828 75.2086 17.8501 75.5842 17.8501 75.9598V79.5362H16.364Z" fill="#EDEFF1"/>
<path d="M25.9324 68.4316L27.1082 69.6075L25.9324 70.7996L24.7402 69.6075L25.9324 68.4316ZM25.1812 71.8284H26.6673V79.5366H25.1812V71.8284Z" fill="#EDEFF1"/>
<path d="M29.1675 77.5935C29.4451 77.8711 29.7717 78.0834 30.1636 78.263C30.5556 78.4263 30.9965 78.508 31.5028 78.508C31.9927 78.508 32.4173 78.4263 32.7439 78.263C33.0705 78.0997 33.2338 77.8548 33.2338 77.5118C33.2338 77.3322 33.2012 77.1852 33.1195 77.0545C33.0379 76.9239 32.9235 76.8096 32.7602 76.7116C32.5969 76.6136 32.3683 76.5156 32.0743 76.434C31.7967 76.3523 31.4374 76.2543 31.0292 76.1563C30.7352 76.091 30.4413 76.0094 30.1473 75.895C29.8534 75.7807 29.5921 75.6338 29.3634 75.4541C29.1348 75.2745 28.9388 75.0458 28.7918 74.7846C28.6449 74.5233 28.5795 74.213 28.5795 73.8537C28.5795 73.4781 28.6612 73.1515 28.8408 72.8738C29.0041 72.5962 29.2328 72.3513 29.5267 72.1553C29.8207 71.9593 30.131 71.8123 30.4902 71.7144C30.8495 71.6164 31.2251 71.5674 31.6007 71.5674C32.254 71.5674 32.8092 71.649 33.2828 71.8287C33.7564 72.0083 34.1647 72.2369 34.524 72.5472L33.7074 73.5761C33.4788 73.3638 33.1848 73.1841 32.8419 73.0372C32.4989 72.8902 32.0907 72.8249 31.6171 72.8249C31.1435 72.8249 30.7515 72.9065 30.4739 73.0535C30.18 73.2005 30.0493 73.4618 30.0493 73.821C30.0493 74.1477 30.2453 74.3926 30.6209 74.5559C30.9965 74.7192 31.5028 74.8662 32.1233 75.0132C32.4826 75.0948 32.8256 75.2092 33.1358 75.3235C33.4461 75.4378 33.7238 75.5848 33.9687 75.7644C34.2137 75.944 34.3933 76.1727 34.5403 76.434C34.6709 76.6953 34.7526 77.0219 34.7526 77.3975C34.7526 77.7894 34.6709 78.116 34.4913 78.41C34.3117 78.704 34.083 78.9489 33.7727 79.1449C33.4788 79.3409 33.1358 79.4878 32.7439 79.5858C32.352 79.6838 31.9437 79.7328 31.5354 79.7328C30.082 79.7328 28.9878 79.3409 28.2529 78.557L29.1675 77.5935Z" fill="#EDEFF1"/>
<path d="M37.1684 73.0696H35.7803V71.8284H37.1684V69.3135H38.6545V71.8284H40.9081V73.0696H38.6545V76.8746C38.6545 77.4952 38.7525 77.9198 38.9485 78.1485C39.1444 78.3771 39.422 78.4914 39.765 78.4914C40.0589 78.4914 40.2876 78.4424 40.4835 78.3608C40.6632 78.2791 40.8592 78.1321 41.0551 77.9688L41.741 78.8833C41.4144 79.1936 41.0878 79.4223 40.7448 79.5529C40.4019 79.6835 40.01 79.7652 39.5364 79.7652C38.7198 79.7652 38.1156 79.5366 37.74 79.0956C37.348 78.6547 37.1684 77.9688 37.1684 77.0216V73.0696Z" fill="#EDEFF1"/>
<path d="M42.9997 79.5373V72.5804V72.3191C42.9997 72.2211 42.9997 72.0578 42.9834 71.8455H44.4042L44.4532 73.0866C44.5348 72.956 44.6655 72.809 44.7961 72.6457C44.9431 72.4824 45.1227 72.3354 45.3187 72.2048C45.531 72.0741 45.7596 71.9598 46.0373 71.8618C46.3149 71.7638 46.6252 71.7148 46.9681 71.7148C47.1314 71.7148 47.2947 71.7312 47.4254 71.7475C47.556 71.7638 47.6867 71.7965 47.8173 71.8455L47.4907 73.2336C47.2947 73.152 47.0334 73.1193 46.7232 73.1193C46.3965 73.1193 46.1026 73.1846 45.8413 73.2989C45.5637 73.4296 45.335 73.5929 45.1391 73.8052C44.9431 74.0175 44.7798 74.2788 44.6655 74.5564C44.5512 74.8504 44.4858 75.1443 44.4858 75.4709V79.5373H42.9997Z" fill="#EDEFF1"/>
<path d="M49.3344 81.4319C49.4488 81.5299 49.5794 81.6115 49.7101 81.6932C49.857 81.7748 50.0367 81.8075 50.249 81.8075C50.4286 81.8075 50.5756 81.7748 50.7062 81.6932C50.8369 81.6115 50.9512 81.4972 51.0492 81.3339C51.1472 81.1706 51.2615 80.9746 51.3431 80.7623C51.4411 80.5337 51.5391 80.2724 51.6698 79.9784L51.8657 79.4885L48.4199 71.8457H50.1347L52.6169 77.6595L54.8053 71.8457H56.422L53.3355 79.3579C53.1885 79.7172 53.0415 80.1091 52.8946 80.5337C52.7476 80.9583 52.5516 81.3666 52.3393 81.7422C52.1107 82.1178 51.8494 82.4444 51.5228 82.6894C51.1962 82.9507 50.8042 83.065 50.3143 83.065C49.9224 83.065 49.5957 83.016 49.3344 82.9017C49.0732 82.8037 48.8445 82.6567 48.6322 82.4771L49.3344 81.4319Z" fill="#EDEFF1"/>
<path d="M63.7719 79.7655C63.184 79.7655 62.6287 79.6511 62.1225 79.4388C61.6325 79.2265 61.1916 78.9326 60.8323 78.557C60.4731 78.1814 60.1954 77.7404 59.9831 77.2505C59.7708 76.7606 59.6729 76.238 59.6729 75.6664C59.6729 75.0948 59.7708 74.5723 59.9831 74.0823C60.1791 73.5924 60.4731 73.1515 60.8323 72.7759C61.1916 72.4003 61.6162 72.1063 62.1225 71.894C62.6124 71.6817 63.1676 71.5674 63.7719 71.5674C64.3598 71.5674 64.8987 71.6817 65.405 71.894C65.8949 72.1063 66.3358 72.4003 66.6951 72.7759C67.0544 73.1515 67.3483 73.5924 67.5443 74.0823C67.7566 74.5723 67.8546 75.0948 67.8546 75.6664C67.8546 76.238 67.7566 76.7606 67.5443 77.2505C67.332 77.7404 67.0544 78.1814 66.6951 78.557C66.3358 78.9326 65.8949 79.2265 65.405 79.4388C64.915 79.6675 64.3598 79.7655 63.7719 79.7655ZM63.7719 78.4753C64.1638 78.4753 64.5231 78.3937 64.8497 78.2304C65.1763 78.0671 65.4376 77.8548 65.6663 77.5935C65.8949 77.3322 66.0582 77.0382 66.1725 76.6953C66.2868 76.3523 66.3522 76.0094 66.3522 75.6664C66.3522 75.3235 66.2868 74.9805 66.1725 74.6376C66.0582 74.2946 65.8786 74.0007 65.6663 73.7394C65.4376 73.4781 65.1763 73.2658 64.8497 73.1025C64.5394 72.9392 64.1802 72.8575 63.7719 72.8575C63.3799 72.8575 63.0207 72.9392 62.6941 73.1025C62.3674 73.2658 62.1061 73.4781 61.8775 73.7394C61.6489 74.0007 61.4856 74.2946 61.3713 74.6376C61.2569 74.9805 61.1916 75.3235 61.1916 75.6828C61.1916 76.042 61.2569 76.385 61.3713 76.7116C61.4856 77.0382 61.6652 77.3485 61.8775 77.6098C62.1061 77.8711 62.3674 78.0834 62.6941 78.2467C63.0207 78.3937 63.3799 78.4753 63.7719 78.4753Z" fill="#EDEFF1"/>
<path d="M70.1254 73.0694H68.7373V71.8283H70.1254V71.1914C70.1254 70.6688 70.2071 70.2279 70.3541 69.8359C70.501 69.4603 70.697 69.15 70.942 68.9051C71.1869 68.6601 71.4809 68.4805 71.7912 68.3662C72.1178 68.2518 72.4444 68.1865 72.8037 68.1865C73.212 68.1865 73.6202 68.2518 74.0122 68.3825C74.4041 68.5131 74.7634 68.7254 75.09 69.0357L74.3388 69.9992C73.9305 69.6563 73.4896 69.493 73.0323 69.493C72.6077 69.493 72.2484 69.64 72.0035 69.9013C71.7422 70.1789 71.6115 70.6525 71.6115 71.322V71.812H73.8162V73.0531H71.6115V79.5201H70.1254V73.0694Z" fill="#EDEFF1"/>
<path d="M88.1861 77.5931C88.0718 77.789 87.8758 78.0177 87.6145 78.279C87.3532 78.5403 87.0429 78.7689 86.6836 78.9975C86.3244 79.2261 85.8998 79.4221 85.4262 79.5691C84.9526 79.7161 84.43 79.7977 83.8584 79.7977C83.0419 79.7977 82.2907 79.6508 81.6211 79.3731C80.9515 79.0792 80.3636 78.6872 79.8737 78.1646C79.3838 77.6584 79.0082 77.0378 78.7305 76.3356C78.4529 75.6334 78.3223 74.8658 78.3223 74.033C78.3223 73.2327 78.4529 72.4652 78.7305 71.763C79.0082 71.0607 79.3838 70.4402 79.8737 69.9013C80.3636 69.3623 80.9515 68.9541 81.6211 68.6438C82.307 68.3335 83.0582 68.1865 83.8911 68.1865C84.479 68.1865 85.0016 68.2518 85.4752 68.3988C85.9324 68.5458 86.3407 68.7254 86.7 68.9377C87.0429 69.15 87.3532 69.395 87.5982 69.64C87.8431 69.9013 88.0554 70.1299 88.2024 70.3748L87.0756 71.3384C86.9449 71.1587 86.7816 70.9628 86.602 70.7505C86.4224 70.5382 86.1937 70.3585 85.9488 70.1952C85.6875 70.0319 85.3935 69.8849 85.0669 69.7869C84.7403 69.6726 84.3483 69.6236 83.9237 69.6236C83.3195 69.6236 82.7642 69.7379 82.2907 69.9666C81.8171 70.1952 81.4088 70.5055 81.0658 70.9138C80.7229 71.3057 80.4779 71.7793 80.2983 72.3019C80.1187 72.8408 80.037 73.396 80.037 74.0003C80.037 74.6045 80.135 75.1598 80.3146 75.6824C80.4943 76.2049 80.7556 76.6622 81.0822 77.0542C81.4088 77.4461 81.8171 77.74 82.2907 77.9687C82.7642 78.181 83.3032 78.2953 83.8911 78.2953C84.381 78.2953 84.8219 78.23 85.1812 78.0993C85.5405 77.9687 85.8508 77.8217 86.0957 77.6421C86.3407 77.4624 86.553 77.2828 86.7163 77.1031C86.8796 76.9235 87.0103 76.7765 87.1246 76.6459L88.1861 77.5931Z" fill="#EDEFF1"/>
<path d="M89.737 71.8291H91.2231V76.3527C91.2231 77.0876 91.3701 77.6102 91.6641 77.9368C91.958 78.2634 92.399 78.4267 92.9542 78.4267C93.3788 78.4267 93.7381 78.3451 94.032 78.1655C94.3097 77.9858 94.5383 77.7572 94.7179 77.4796C94.8976 77.2019 95.0119 76.8753 95.0935 76.516C95.1589 76.1568 95.2079 75.7812 95.2079 75.4055V71.8291H96.694V78.7534V79.0637C96.694 79.227 96.694 79.3903 96.7103 79.5372H95.2895L95.2405 78.3941C95.1425 78.5247 95.0119 78.6717 94.8812 78.8187C94.7343 78.9657 94.5546 79.1126 94.3423 79.2433C94.13 79.3739 93.8851 79.4719 93.6074 79.5699C93.3298 79.6516 93.0195 79.7006 92.6602 79.7006C91.6477 79.7006 90.9129 79.4066 90.4393 78.835C89.9657 78.2634 89.7207 77.4632 89.7207 76.4507V71.8291H89.737Z" fill="#EDEFF1"/>
<path d="M100.255 68.4805H98.7686V79.5364H100.255V68.4805Z" fill="#EDEFF1"/>
<path d="M102.965 73.0696H101.577V71.8284H102.965V69.3135H104.451V71.8284H106.705V73.0696H104.451V76.8746C104.451 77.4952 104.549 77.9198 104.745 78.1485C104.941 78.3771 105.219 78.4914 105.562 78.4914C105.856 78.4914 106.084 78.4424 106.28 78.3608C106.46 78.2791 106.656 78.1321 106.852 77.9688L107.538 78.8833C107.211 79.1936 106.885 79.4223 106.558 79.5529C106.215 79.6835 105.823 79.7652 105.35 79.7652C104.533 79.7652 103.929 79.5366 103.553 79.0956C103.161 78.6547 102.982 77.9688 102.982 77.0216V73.0696H102.965Z" fill="#EDEFF1"/>
<path d="M108.452 71.8291H109.938V76.3527C109.938 77.0876 110.085 77.6102 110.379 77.9368C110.673 78.2634 111.114 78.4267 111.669 78.4267C112.094 78.4267 112.453 78.3451 112.747 78.1655C113.025 77.9858 113.253 77.7572 113.433 77.4796C113.612 77.2019 113.727 76.8753 113.808 76.516C113.874 76.1568 113.923 75.7812 113.923 75.4055V71.8291H115.409V78.7534V79.0637C115.409 79.227 115.409 79.3903 115.425 79.5372H114.004L113.955 78.3941C113.857 78.5247 113.727 78.6717 113.596 78.8187C113.449 78.9657 113.269 79.1126 113.057 79.2433C112.845 79.3739 112.6 79.4719 112.322 79.5699C112.045 79.6516 111.734 79.7006 111.375 79.7006C110.363 79.7006 109.628 79.4066 109.154 78.835C108.681 78.2634 108.436 77.4632 108.436 76.4507V71.8291H108.452Z" fill="#EDEFF1"/>
<path d="M117.483 79.5373V72.5804V72.3191C117.483 72.2211 117.483 72.0578 117.467 71.8455H118.888L118.937 73.0866C119.018 72.956 119.149 72.809 119.28 72.6457C119.426 72.4824 119.606 72.3354 119.802 72.2048C120.014 72.0741 120.243 71.9598 120.521 71.8618C120.798 71.7638 121.109 71.7148 121.452 71.7148C121.615 71.7148 121.778 71.7312 121.909 71.7475C122.039 71.7638 122.17 71.7965 122.301 71.8455L121.974 73.2336C121.778 73.152 121.517 73.1193 121.207 73.1193C120.88 73.1193 120.586 73.1846 120.325 73.2989C120.047 73.4296 119.818 73.5929 119.622 73.8052C119.426 74.0175 119.263 74.2788 119.149 74.5564C119.035 74.8504 118.969 75.1443 118.969 75.4709V79.5373H117.483Z" fill="#EDEFF1"/>
<path d="M130.14 78.4105C130.058 78.5085 129.911 78.6392 129.748 78.7861C129.568 78.9331 129.34 79.0964 129.062 79.2271C128.784 79.3741 128.441 79.4884 128.066 79.6027C127.69 79.7007 127.249 79.766 126.759 79.766C126.155 79.766 125.616 79.668 125.11 79.472C124.604 79.2761 124.179 78.9984 123.836 78.6228C123.477 78.2636 123.216 77.8226 123.02 77.3164C122.824 76.8101 122.726 76.2385 122.726 75.618C122.726 75.0464 122.824 74.5238 123.003 74.0339C123.183 73.544 123.46 73.1194 123.803 72.7601C124.146 72.4008 124.555 72.1232 125.028 71.9109C125.502 71.6986 126.008 71.6006 126.58 71.6006C127.249 71.6006 127.804 71.7312 128.294 71.9762C128.768 72.2375 129.16 72.5641 129.47 72.9887C129.781 73.4133 129.993 73.8869 130.14 74.4258C130.287 74.9647 130.352 75.5363 130.352 76.1242H124.261C124.277 76.4672 124.342 76.7775 124.489 77.0714C124.636 77.3654 124.816 77.6103 125.045 77.8226C125.273 78.0349 125.534 78.1982 125.845 78.3126C126.139 78.4269 126.465 78.4922 126.792 78.4922C127.445 78.4922 127.984 78.3779 128.392 78.1656C128.817 77.9369 129.111 77.7246 129.307 77.5123L130.14 78.4105ZM128.801 75.0137C128.752 74.4095 128.539 73.9032 128.164 73.495C127.788 73.0704 127.266 72.8581 126.58 72.8581C126.22 72.8581 125.91 72.9234 125.632 73.0377C125.355 73.152 125.11 73.3153 124.914 73.5113C124.718 73.7073 124.555 73.9359 124.457 74.1972C124.342 74.4585 124.277 74.7198 124.277 74.9974H128.801V75.0137Z" fill="#EDEFF1"/>
<path d="M103.244 6.01493C102.428 17.0546 103.424 28.0452 103.163 39.1828C103.114 41.2242 103.375 43.4125 103.212 45.4702C103.195 45.7151 103.13 45.8948 102.754 45.9111C102.248 45.8621 101.742 45.8131 101.236 45.9111C101.072 44.4413 101.138 43.2982 101.007 42.0244C100.713 39.2481 100.876 36.9945 100.86 33.9733C100.827 28.7964 100.386 23.5379 100.762 18.3774C100.893 16.532 100.909 13.5271 100.811 11.6817C100.713 9.80367 100.615 8.41555 100.729 6.03125C101.628 5.91694 102.46 5.91694 103.244 6.01493Z" fill="#EDEFF1"/>
<path d="M11.6109 2.89647C12.5091 2.97813 12.9173 3.25575 12.9827 4.26826C13.0807 5.78703 12.8684 6.60357 13.0317 8.08967C13.5706 13.0216 12.4111 18.0351 12.9337 22.9834C13.2113 25.5963 12.95 27.9479 13.0317 30.5609C13.1623 34.4639 12.999 38.8896 12.901 43.4622H0.734558C0.309957 42.858 0.391612 39.8204 0.522258 39.0202C0.636574 38.3343 0.636574 37.6158 0.620243 36.9136C0.587581 34.0393 0.76722 31.4754 0.750889 28.6012C0.734558 26.9191 0.718228 25.2207 0.440604 23.555C0.195642 22.0852 0.571251 19.5049 0.35895 18.0188C0.0813263 16.1571 -0.065651 5.0848 0.0323339 2.96179C0.0323339 2.96179 10.1738 2.76583 11.6109 2.89647Z" fill="#EDEFF1"/>
<path d="M33.902 5.49309C33.1998 5.2318 33.3141 6.06467 33.3141 6.48927C33.3141 6.89755 33.3141 7.14251 33.2977 7.68142C33.2814 8.74293 33.3794 11.6661 33.3794 12.7113C33.3957 14.475 33.51 16.0265 33.4774 17.4146C33.4121 20.0275 33.412 22.6568 33.51 25.286C33.7713 31.802 33.461 38.3507 33.657 44.834C33.6733 45.3893 34.0326 45.5526 34.5389 45.6832L35.2901 45.8139C35.2574 40.2614 35.6984 34.4313 35.3554 28.8951C35.2084 26.5762 35.2901 24.2735 35.2901 21.9546C35.2901 19.7336 35.2738 17.5126 35.3064 15.2916C35.3391 13.9361 35.3228 12.597 35.2738 11.2415C35.2248 9.5758 35.3064 6.35863 34.8655 5.9177C34.6369 5.64007 34.3592 5.6564 33.902 5.49309Z" fill="#EDEFF1"/>
<path d="M21.9003 41.2412C22.6352 41.2249 22.4882 40.6697 22.4882 40.2287C22.4882 39.8205 22.5862 39.5755 22.5862 39.0366C22.6025 37.9588 22.5372 35.0192 22.5208 33.9577C22.5045 32.1776 22.4065 30.6262 22.4392 29.2218C22.5045 26.5762 22.5372 23.9306 22.4392 21.285C22.2106 14.7037 22.5535 8.10602 22.3902 1.5737C22.3739 1.00212 21.9983 0.985787 21.3614 0.953125L20.4795 0.985786C20.4795 6.58726 20.5448 12.548 20.6101 18.5088C20.6428 20.8441 20.6101 22.6568 20.6101 24.9921C20.6101 27.2294 20.6591 29.0258 20.6428 31.2631C20.6428 32.4553 20.5938 33.7617 20.5775 35.4111C20.5611 37.0932 20.4795 40.2777 20.8714 40.784C21.1654 41.1433 21.443 41.2412 21.9003 41.2412Z" fill="#EDEFF1"/>
<path d="M37.8877 44.6703C37.2181 44.5887 37.1202 44.2784 37.1365 43.5109C37.2018 41.2245 37.0548 36.3253 36.8099 33.3368C36.5976 30.6258 36.6466 27.8496 36.9895 25.1714C37.2181 23.3096 36.8915 21.9379 36.8915 19.6352C36.8752 16.614 37.0548 14.246 37.0548 12.2047C37.0385 10.9472 37.0058 9.68974 36.9405 8.43227C36.8915 7.25645 36.9079 4.65985 36.9079 4.38223C37.1038 4.31691 37.8061 4.33324 37.9857 4.34957C38.6389 4.41489 38.9492 4.49654 39.4065 4.72517C39.6841 5.91732 39.6024 8.4486 39.6024 9.86938C39.6024 10.7023 39.5535 14.1317 39.6024 14.9483C39.7004 16.3201 39.6514 17.7082 39.6514 19.08C39.6678 20.8274 39.7658 22.5911 39.7658 24.3385C39.7658 26.5595 39.5861 28.7805 39.5208 31.0015C39.4228 35.1005 39.9454 40.3917 39.8964 43.8211C39.8801 44.507 39.9617 44.8663 39.2432 44.8663C39.2595 44.8337 38.5736 44.752 37.8877 44.6703Z" fill="#EDEFF1"/>
<path d="M99.4876 42.7922C99.6182 41.0938 99.2589 38.4645 99.2589 37.0927C99.2589 36.2925 99.1609 32.9774 99.2099 32.1772C99.2916 30.8544 99.2263 29.5152 99.2263 28.1761C99.2263 26.4777 99.3243 24.7793 99.3079 23.0809C99.2916 20.9252 99.0793 18.7859 98.9976 16.6302C98.8343 12.1556 99.5039 6.19483 99.2263 3.02665C98.0994 2.78169 96.7113 2.71637 95.1926 2.74903C94.817 5.24765 94.9149 7.74626 94.9639 10.7838C94.9966 12.7598 94.817 15.0461 94.8659 17.9857C94.8986 20.2067 95.4702 22.8686 95.2416 24.6813C94.9149 27.2779 94.8659 29.9562 95.1109 32.5854C95.4702 36.3415 95.3395 42.4982 95.3885 42.5799L99.4876 42.7922Z" fill="#EDEFF1"/>
<path d="M111.328 42.8909C111.508 38.253 111.475 35.4604 111.557 31.4593C111.606 28.6341 111.165 25.0577 111.214 22.0854C111.312 16.631 111.377 14.7692 110.936 9.69036C110.838 8.5472 111.002 6.40787 110.953 5.26471C110.92 4.49716 110.887 3.51731 110.871 2.74977C110.871 2.74977 114.611 3.54997 117.518 2.94573C122.139 1.96588 129.782 2.9784 129.782 2.9784C130.239 3.76228 130.305 5.55867 130.288 5.9996C130.207 9.34741 130.141 8.17159 130.256 11.5031C130.37 14.6549 129.782 17.4475 129.782 21.8895C129.782 24.8127 130.223 26.7397 130.321 28.6831C130.419 30.6918 130.076 32.3739 130.207 35.542C130.288 37.5017 130.239 42.6459 130.272 43.1195C130.272 43.1195 116.505 43.2012 113.566 42.8419C112.014 42.6459 111.328 42.8909 111.328 42.8909Z" fill="#EDEFF1"/>
<path d="M86.144 1.05084C86.2257 7.9751 86.2747 15.6506 86.6176 21.889C86.7319 23.9793 86.6666 26.5922 86.7483 28.9602C86.7809 30.0217 86.6013 32.1284 86.5196 33.5328C86.4543 34.676 86.487 35.8191 86.5033 36.946C86.536 38.1544 86.5523 40.6857 86.4543 40.7347C85.7521 40.6204 85.0009 40.6204 84.217 40.7347C83.9557 39.8039 84.1353 38.9383 84.1517 37.9748C84.2986 29.6624 83.7107 23.6037 83.8577 15.9609C83.9067 13.4786 83.825 10.0818 83.6291 7.61583C83.4658 5.47649 83.5311 3.05953 83.7924 0.936523C84.6089 0.936523 85.3928 0.969185 86.144 1.05084Z" fill="#EDEFF1"/>
<path d="M109.254 1.42651C109.466 5.00296 109.303 7.3546 109.368 10.4248C109.433 13.1194 109.727 15.422 109.564 18.5085C109.417 21.1705 109.694 23.8487 109.76 26.527C109.809 29.1236 109.858 31.7365 109.89 34.3331C109.939 36.3418 109.988 38.1708 109.988 40.1959C109.988 40.5388 109.956 41.2574 109.956 41.6003C109.956 41.6003 109.254 41.4697 108.551 41.535C106.804 41.6983 105.448 41.486 104.942 41.388C104.518 41.29 104.877 34.2515 104.893 33.5982C104.942 30.9526 104.942 28.307 104.942 25.6614C104.926 22.9832 104.681 20.1416 104.632 17.4797C104.583 14.7688 104.73 12.2375 104.665 9.54293C104.599 6.81568 104.518 4.49671 104.436 1.76946C104.42 1.21421 104.942 0.920257 105.824 1.16522C106.967 1.45917 108.192 1.08357 109.254 1.42651Z" fill="#EDEFF1"/>
<path d="M17.5886 4.77439C18.4052 4.88871 19.0094 5.65626 19.0258 6.57078C19.0421 7.87725 19.0258 9.03674 18.9931 10.1799C18.9604 11.4537 18.9114 12.6948 18.9441 14.083C19.0094 19.7334 19.2544 25.1226 19.0094 30.969C18.7971 35.9173 19.2544 40.7512 19.2054 45.2911C17.703 45.2095 15.9066 45.0625 14.4531 44.9972C14.8614 36.6195 14.6001 28.6827 14.5021 19.9621C14.4531 15.0628 15.2533 11.2251 14.5674 4.69274C15.6126 4.57842 16.6251 4.64375 17.5886 4.77439Z" fill="#EDEFF1"/>
<path d="M82.3563 23.3916C82.2583 20.4031 82.2746 14.769 82.5032 11.7641C82.7482 8.43261 81.9317 3.38639 80.0863 3.48438C78.4859 3.40272 76.7221 3.58236 75.1054 3.66401C73.8153 3.72933 72.1658 3.72934 70.8757 3.84365C68.671 4.03962 68.4261 3.74566 66.2051 3.74566C63.4289 3.74566 61.0446 3.9743 58.2683 3.9743C55.5901 3.9743 52.6015 3.90898 49.9233 3.69667C47.294 3.5007 44.5014 3.1251 41.8885 3.20675C41.5129 3.22308 41.3006 4.90516 41.2189 6.9955C41.1536 9.00419 41.023 13.3319 41.1863 15.4059C42.4111 13.9034 43.9462 13.3319 45.4486 13.1849C46.6571 13.0706 48.0616 13.0052 49.368 13.2012C49.4987 13.2175 48.5188 12.2867 47.7023 11.6498C47.245 11.2905 46.7388 10.9149 46.1672 10.8332C45.465 10.7353 44.7301 10.8006 44.0115 10.7516C44.5341 10.2943 45.4486 9.15117 47.6859 9.44512C48.8944 9.60843 50.9194 11.7151 51.6543 11.1435C52.4709 10.5066 52.1443 8.00801 53.2221 7.73039C54.104 7.50176 54.6755 10.8496 55.1001 11.5845C56.08 10.327 57.5498 9.42879 59.1339 9.24915C59.9667 9.15117 62.5143 9.46145 62.8573 10.6699C62.8573 10.6536 59.6074 10.082 57.5987 12.9889C60.4566 11.8621 63.3472 12.2377 65.7805 14.0994C66.4501 14.622 66.891 15.1609 67.3482 15.7815C68.0015 16.6633 67.9198 17.0553 67.9035 17.5615C66.842 17.3492 65.8621 15.5202 64.0331 14.9649C62.498 14.4913 60.8486 14.5893 59.3135 15.0466C62.7919 15.6182 67.6095 20.2398 65.9438 24.0449C65.4049 25.2697 65.2579 24.4531 65.0619 23.4243C64.8333 22.1995 64.4904 21.4973 63.9024 20.6971C63.3962 19.9948 62.8573 19.3906 62.2204 18.7863C61.6651 18.2474 59.9504 17.4962 59.1502 17.5452C61.3875 18.1821 62.8409 22.6404 63.0206 23.114C63.4942 24.2735 63.4778 25.5963 63.5105 26.8211C63.5268 27.5233 63.5922 29.9893 62.694 30.2179C62.7103 30.2179 62.8409 24.2572 58.6276 20.844C59.7218 22.7711 59.8197 25.139 59.6891 27.2947C59.6238 28.5032 59.4278 29.483 58.8889 30.5772C58.7746 30.8222 58.3336 31.9163 58.154 31.949C57.5988 32.0796 57.8927 28.6175 57.8111 27.9969C57.7131 27.2457 56.3413 22.1178 54.9042 23.3753C54.1693 24.0122 54.5449 26.8864 54.6429 28.1766C54.7572 29.7443 54.9368 32.047 54.9695 33.6147C55.0348 36.8809 55.1165 39.1835 55.5411 42.466C59.2972 40.441 75.7913 31.998 78.1429 38.9712C78.1592 39.1999 78.0123 39.0366 78.0123 39.0366C76.3955 36.6196 72.0025 37.8607 69.7979 38.5466C65.8785 39.7551 62.1224 41.6658 58.5786 43.6908C64.4087 43.7072 73.407 43.6908 80.07 43.6908C81.6051 43.6908 82.8299 42.417 82.7809 40.8819C82.7482 39.7551 82.7155 38.3997 82.7155 36.9462C82.7155 35.2968 82.7972 33.5167 82.8462 31.8673C82.9115 28.6175 82.4706 26.6741 82.3563 23.3916ZM49.613 26.8211C49.3844 27.6703 49.0904 29.1074 49.0577 29.483C49.0087 29.8586 48.7148 31.8837 48.7148 31.8837C48.5841 31.802 48.5025 31.655 48.4372 31.508C47.6043 29.63 47.7676 26.6578 47.7676 26.6415C48.0616 21.9709 49.7273 20.7134 49.7273 20.7297C48.9761 20.3051 47.4736 22.0688 46.6734 23.1793C45.6119 24.6654 45.7916 25.6779 45.6609 27.9969C45.0893 27.8826 44.5341 26.9354 44.5014 26.2332C44.3055 22.5914 45.9222 19.2599 47.6696 17.8882C47.8656 17.7085 45.6609 18.1494 45.269 18.2964C43.8319 18.8843 42.803 19.9132 42.1008 21.285C40.6147 24.1592 41.5619 27.5887 41.3659 30.7405C41.2516 32.5532 41.5129 34.3496 41.4966 36.1623C41.4802 37.5341 41.1373 37.7954 42.5091 37.9097C43.048 37.9587 43.5869 38.0404 44.1258 38.1547C47.3593 38.8569 49.9396 40.343 52.2096 42.6947C52.5689 38.4976 52.6179 34.6272 52.6179 30.4139C52.6179 28.7481 52.8955 25.1717 51.785 23.7509C50.6582 22.3301 49.8743 25.8739 49.613 26.8211ZM41.7089 39.0856C41.6272 40.7186 41.7415 42.0251 41.7579 43.9358C43.3583 43.8215 44.3218 43.9685 45.9222 44.0664C47.4573 44.1644 49.0904 44.0011 50.6255 44.1971C48.2739 41.6495 45.269 39.3958 41.7089 39.0856ZM44.3381 16.5817C44.9097 16.1897 47.2777 14.9976 47.5553 15.0139C45.8569 14.3607 43.8155 14.524 42.3294 15.4712C40.876 16.3857 41.3659 18.9333 41.17 20.5664C41.8885 19.113 42.9663 17.4962 44.3381 16.5817Z" fill="#EDEFF1"/>
<path d="M92.498 4.23566C92.7103 4.26832 92.8736 4.44796 92.89 4.66026C93.0043 9.20023 93.1023 13.2829 93.3962 17.9862C93.5105 19.8479 93.6085 22.5915 93.3309 24.7798C92.9716 27.6541 93.7065 29.9894 93.5105 32.8799C93.2492 36.7013 93.8045 39.8205 93.5922 43.6419L88.8563 43.7399C88.4643 43.7562 88.105 43.3806 88.1704 42.4661C88.2193 41.5516 88.154 37.6322 88.154 34.6763C88.154 31.7204 88.546 28.9932 88.2193 25.6944C88.056 24.0776 88.448 22.3465 88.35 20.7298C88.1867 17.7902 88.0887 15.21 88.0234 12.2704C87.9907 10.523 88.0234 7.8611 87.9744 6.14637C87.9417 4.95422 88.203 4.07235 88.8563 3.7784C89.5748 3.45178 91.6488 4.12134 92.498 4.23566Z" fill="#EDEFF1"/>
<path d="M24.1039 39.0365C24.055 40.1306 24.0386 40.5226 24.0386 40.9309C24.0386 41.2085 24.2836 41.2575 24.5122 41.3718C24.6592 41.4534 25.933 41.7147 26.3576 41.8127C26.7169 41.8944 27.2395 41.9434 27.5987 41.9434C28.8236 41.927 30.0484 42.3516 31.2732 42.2373C31.3058 42.2373 31.3548 42.221 31.3875 42.2047C31.4855 42.1393 31.8284 41.976 31.9264 41.2901C32.0734 40.245 31.7794 39.3304 31.9427 37.4361C32.106 35.5417 31.9591 30.3975 31.9754 29.1563C32.0571 19.7825 31.5181 19.6355 31.7631 12.4009C31.8448 9.85332 31.7794 9.00412 31.5018 6.32586C31.4365 5.62364 31.1099 3.82725 31.2732 2.58611C31.3385 2.12885 31.0609 1.75324 30.6199 1.7369C28.5949 1.63892 24.3326 1.94921 24.3326 1.94921C24.1039 2.89639 24.055 3.79459 24.1203 5.05206C24.1529 5.93392 23.9896 7.38737 23.9896 8.26923C23.9896 9.26541 23.9243 10.2616 23.9733 11.2578C24.0876 13.936 24.1693 16.6143 24.0876 19.2762C23.8753 26.0535 24.4796 29.9892 24.2183 36.6359L24.1039 39.0365Z" fill="#EDEFF1"/>
</svg>
