<svg width="275" height="84" viewBox="0 0 275 84" fill="none" xmlns="http://www.w3.org/2000/svg">
<path d="M4.51356 47.8149C5.19779 47.8149 5.80153 47.4124 5.80153 46.6477C5.80153 45.9635 5.23804 45.4805 4.51356 45.4805C3.78907 45.4805 3.22559 45.9635 3.22559 46.6477C3.22559 47.4124 3.86957 47.8149 4.51356 47.8149Z" fill="#EDEFF1"/>
<path d="M7.93446 47.8149C8.61869 47.8149 9.22243 47.4124 9.22243 46.6477C9.22243 45.9635 8.65894 45.4805 7.93446 45.4805C7.20997 45.4805 6.64648 45.9635 6.64648 46.6477C6.64648 47.4124 7.29047 47.8149 7.93446 47.8149Z" fill="#EDEFF1"/>
<path d="M10.954 60.5742C10.2295 60.5742 9.66602 61.0572 9.66602 61.7414C9.66602 62.5062 10.2698 62.9087 10.954 62.9087C11.6382 62.9087 12.242 62.5062 12.242 61.7414C12.242 61.0572 11.6785 60.5742 10.954 60.5742Z" fill="#EDEFF1"/>
<path d="M14.4159 60.5742C13.6914 60.5742 13.1279 61.0572 13.1279 61.7414C13.1279 62.5062 13.7317 62.9087 14.4159 62.9087C15.1001 62.9087 15.7039 62.5062 15.7039 61.7414C15.7039 61.0572 15.1404 60.5742 14.4159 60.5742Z" fill="#EDEFF1"/>
<path d="M22.4248 54.1746C22.4248 52.5243 23.4713 51.5584 24.9203 51.5584C25.7253 51.5584 26.49 51.7998 27.4157 52.2426L28.1 50.3509C26.8925 49.8276 25.7253 49.5459 24.7593 49.5459C22.2236 49.5459 20.4526 51.0754 20.4526 53.8525C20.4526 54.6575 20.6539 55.6638 21.0966 56.9115H16.7497V49.6666H14.697V56.9115H9.14262V49.6666H5.80194C2.62225 49.6666 0.529297 51.5986 0.529297 54.3355C0.529297 57.0725 2.54175 58.9642 5.52019 58.9642H28.4622V56.9115H23.3506C22.7468 55.9858 22.4248 55.0198 22.4248 54.1746ZM7.08991 56.8712H5.35919C3.70898 56.8712 2.46126 55.8248 2.46126 54.2953C2.46126 52.7256 3.66873 51.6791 5.35919 51.6791H7.08991V56.8712Z" fill="#EDEFF1"/>
<path d="M46.7753 48.2173C47.4595 48.2173 48.0633 47.8148 48.0633 47.05C48.0633 46.3658 47.4998 45.8828 46.7753 45.8828C46.0508 45.8828 45.4873 46.3658 45.4873 47.05C45.4873 47.8148 46.091 48.2173 46.7753 48.2173Z" fill="#EDEFF1"/>
<path d="M50.1962 48.2173C50.8804 48.2173 51.4842 47.8148 51.4842 47.05C51.4842 46.3658 50.9207 45.8828 50.1962 45.8828C49.4717 45.8828 48.9082 46.3658 48.9082 47.05C48.9082 47.8148 49.5119 48.2173 50.1962 48.2173Z" fill="#EDEFF1"/>
<path d="M59.4944 49.4253C58.3272 49.4253 57.2404 49.7875 56.1135 50.3913L56.8379 52.283C57.8039 51.7195 58.4479 51.5183 59.3736 51.5183C61.8691 51.5183 62.3521 54.4162 63.7205 56.9116H53.2558V49.6668H51.2433V56.9116H45.6889V54.4162C45.6889 51.4377 43.8777 49.4655 41.1408 49.4655C38.4038 49.4655 36.5926 51.4377 36.5926 54.4162V54.3759C36.5926 56.1469 35.7474 56.9519 34.0972 56.9519H32.6884V45.9639H30.6357V59.0448H34.0972C35.5864 59.0448 36.8744 58.6826 37.4781 57.5556C38.2831 58.6826 39.5711 59.0448 41.1408 59.0448H45.6889H66.4172V56.9921C64.4853 56.0262 64.445 49.4253 59.4944 49.4253ZM43.6362 56.8714H41.1408C39.6516 56.8714 38.6453 56.0262 38.6453 54.3357C38.6453 52.6452 39.6516 51.5183 41.1408 51.5183C42.63 51.5183 43.6362 52.6452 43.6362 54.3357V56.8714Z" fill="#EDEFF1"/>
<path d="M60.7823 60.5742C60.0578 60.5742 59.4541 61.0572 59.4541 61.7414C59.4541 62.5464 60.0981 62.9489 60.7823 62.9489C61.4666 62.9489 62.0703 62.5464 62.0703 61.7414C62.0703 61.017 61.5068 60.5742 60.7823 60.5742Z" fill="#EDEFF1"/>
<path d="M76.2382 56.8708H68.9531V58.9638H78.2909V45.8828H76.2382V56.8708Z" fill="#EDEFF1"/>
<path d="M73.1797 47.1709H71.127V55.7842H73.1797V47.1709Z" fill="#EDEFF1"/>
<path d="M83 45.8828H80.9473V58.9638H83V45.8828Z" fill="#EDEFF1"/>
<path d="M90.2852 46.6481C90.2852 47.4128 90.8889 47.8153 91.5731 47.8153C92.2574 47.8153 92.8611 47.4128 92.8611 46.6481C92.8611 45.9638 92.2976 45.4809 91.5731 45.4809C90.8486 45.4406 90.2852 45.9236 90.2852 46.6481Z" fill="#EDEFF1"/>
<path d="M93.707 46.6481C93.707 47.4128 94.3108 47.8153 94.995 47.8153C95.6792 47.8153 96.283 47.4128 96.283 46.6481C96.283 45.9638 95.7195 45.4809 94.995 45.4809C94.2705 45.4406 93.707 45.9236 93.707 46.6481Z" fill="#EDEFF1"/>
<path d="M98.0126 60.5742C97.2881 60.5742 96.7246 61.0572 96.7246 61.7414C96.7246 62.5062 97.3284 62.9087 98.0126 62.9087C98.6968 62.9087 99.3006 62.5062 99.3006 61.7414C99.3006 61.0572 98.7371 60.5742 98.0126 60.5742Z" fill="#EDEFF1"/>
<path d="M101.433 60.5742C100.709 60.5742 100.146 61.0572 100.146 61.7414C100.146 62.5062 100.749 62.9087 101.433 62.9087C102.118 62.9087 102.721 62.5062 102.721 61.7414C102.721 61.0572 102.158 60.5742 101.433 60.5742Z" fill="#EDEFF1"/>
<path d="M119.747 48.2585C120.431 48.2585 121.035 47.856 121.035 47.051C121.035 46.3265 120.472 45.8838 119.747 45.8838C119.023 45.8838 118.419 46.3668 118.419 47.051C118.459 47.856 119.063 48.2585 119.747 48.2585Z" fill="#EDEFF1"/>
<path d="M126.63 45.8838C125.905 45.8838 125.342 46.3668 125.342 47.051C125.342 47.8157 125.946 48.2182 126.63 48.2182C127.314 48.2182 127.918 47.8157 127.918 47.051C127.918 46.3668 127.354 45.8838 126.63 45.8838Z" fill="#EDEFF1"/>
<path d="M128.965 47.051C128.965 47.8157 129.569 48.2182 130.253 48.2182C130.937 48.2182 131.541 47.8157 131.541 47.051C131.541 46.3668 130.977 45.8838 130.253 45.8838C129.528 45.8838 128.965 46.3668 128.965 47.051Z" fill="#EDEFF1"/>
<path d="M137.94 56.8718H133.633V49.627H131.58V56.8718H125.382V49.627H123.329V56.8718H117.453V54.3764C117.453 51.3979 115.642 49.4257 112.905 49.4257C110.168 49.4257 108.357 51.3979 108.357 54.3764V54.3361C108.357 56.1071 107.511 56.9121 105.861 56.9121H103.768V49.6672H101.716V56.9121H96.1612V49.6672H92.8205C89.6408 49.6672 87.5479 51.5992 87.5479 54.3361C87.5479 57.0731 89.5603 58.9648 92.5387 58.9648H105.821C107.31 58.9648 108.598 58.6025 109.202 57.4755C110.007 58.6025 111.295 58.9648 112.865 58.9648H117.413H139.912V45.8838H137.859V56.8718H137.94ZM94.1487 56.8718H92.418C90.7678 56.8718 89.5201 55.8253 89.5201 54.2959C89.5201 52.7261 90.7275 51.6797 92.418 51.6797H94.1487V56.8718ZM115.4 56.8718H112.905C111.416 56.8718 110.409 56.0266 110.409 54.3361C110.409 52.6456 111.416 51.5187 112.905 51.5187C114.394 51.5187 115.4 52.6456 115.4 54.3361V56.8718Z" fill="#EDEFF1"/>
<path d="M144.661 45.8838H142.608V58.9648H144.661V45.8838Z" fill="#EDEFF1"/>
<path d="M151.664 49.626C148.485 49.626 146.392 51.5579 146.392 54.2949C146.392 57.0318 148.404 58.9235 151.382 58.9235H152.952C152.912 60.0505 152.107 60.4128 150.98 60.4128C150.095 60.4128 149.209 60.2518 148.283 59.97L148.686 62.1435C149.491 62.385 150.215 62.4655 151.061 62.4655C153.677 62.4655 155.005 61.4995 155.005 58.4003V49.626H151.664ZM152.992 54.2546V56.8708H151.262C149.612 56.8708 148.364 55.8243 148.364 54.2949C148.364 52.7252 149.571 51.6787 151.262 51.6787H152.992V54.2546Z" fill="#EDEFF1"/>
<path d="M107.954 33.3661C107.954 30.4279 106.586 28.8984 103.567 28.8984H102.118V30.9511H103.849C105.257 30.9511 105.982 31.6756 105.982 33.1648V36.1433H100.307V38.196H107.914V33.3661H107.954Z" fill="#EDEFF1"/>
<path d="M113.146 37.8338V28.8984H111.093V38.1557C111.093 39.4437 110.49 39.8865 109.644 39.8865C109.242 39.8865 108.88 39.8462 108.357 39.806L108.155 41.5769C108.558 41.6574 109.001 41.7379 109.443 41.7379C111.617 41.7782 113.146 40.8927 113.146 37.8338Z" fill="#EDEFF1"/>
<path d="M117.573 25.1553H115.521V38.2362H117.573V25.1553Z" fill="#EDEFF1"/>
<path d="M124.335 38.1962H125.905C125.865 39.3232 125.06 39.6854 123.933 39.6854C123.047 39.6854 122.162 39.5244 121.236 39.2427L121.639 41.4161C122.444 41.6576 122.766 41.7381 123.611 41.7381C126.066 41.7381 127.797 40.8929 127.958 38.1962H132.345C133.754 38.156 134.961 37.7937 135.524 36.707C136.329 37.834 137.617 38.1962 139.187 38.1962H143.735H150.054V25.1152H148.002V36.1033H143.735V33.6078C143.735 30.6294 141.924 28.6572 139.187 28.6572C136.45 28.6572 134.639 30.6294 134.639 33.6078V33.5676C134.639 35.3385 133.794 36.1435 132.144 36.1435H127.958V28.8987H124.617C121.437 28.8987 119.344 30.8306 119.344 33.5676C119.304 36.3045 121.317 38.1962 124.335 38.1962ZM136.651 33.6078C136.651 31.9173 137.658 30.7904 139.147 30.7904C140.636 30.7904 141.642 31.9173 141.642 33.6078V36.1435H139.147C137.658 36.1435 136.651 35.2983 136.651 33.6078ZM121.276 33.5676C121.276 31.9978 122.484 30.9514 124.174 30.9514H125.905V33.5273V36.1435H124.174C122.484 36.1435 121.276 35.1373 121.276 33.5676Z" fill="#EDEFF1"/>
<path d="M154.764 25.1553H152.711V38.2362H154.764V25.1553Z" fill="#EDEFF1"/>
<path d="M42.6307 27.0874C43.315 27.0874 43.9187 26.6849 43.9187 25.9202C43.9187 25.2359 43.3552 24.7529 42.6307 24.7529C41.9063 24.7529 41.3428 25.2359 41.3428 25.9202C41.3428 26.6849 41.9465 27.0874 42.6307 27.0874Z" fill="#EDEFF1"/>
<path d="M39.2089 27.0874C39.8931 27.0874 40.4968 26.6849 40.4968 25.9202C40.4968 25.2359 39.9334 24.7529 39.2089 24.7529C38.4844 24.7529 37.9209 25.2359 37.9209 25.9202C37.9209 26.6849 38.5246 27.0874 39.2089 27.0874Z" fill="#EDEFF1"/>
<path d="M40.2147 38.196H51.404V28.8984H49.3513V36.1433H43.7969V28.8984H40.4562C37.2765 28.8984 35.1836 30.8304 35.1836 33.5673C35.2238 36.3043 37.2363 38.196 40.2147 38.196ZM37.1558 33.5673C37.1558 31.9976 38.3633 30.9511 40.0537 30.9511H41.7845V36.1433H40.0537C38.4035 36.1433 37.1558 35.1371 37.1558 33.5673Z" fill="#EDEFF1"/>
<path d="M69.6762 26.0006C70.3202 26.0006 70.8837 25.6384 70.8837 24.9139C70.8837 24.2699 70.3605 23.8271 69.6762 23.8271C68.992 23.8271 68.4688 24.2699 68.4688 24.9139C68.4688 25.6384 69.0725 26.0006 69.6762 26.0006Z" fill="#EDEFF1"/>
<path d="M68.027 28.5772C68.671 28.5772 69.2747 28.1747 69.2747 27.4502C69.2747 26.766 68.7113 26.3232 68.027 26.3232C67.3428 26.3232 66.7793 26.766 66.7793 27.4502C66.7793 28.215 67.383 28.5772 68.027 28.5772Z" fill="#EDEFF1"/>
<path d="M70.1201 27.4502C70.1201 28.215 70.6836 28.5772 71.3678 28.5772C72.0118 28.5772 72.6156 28.1747 72.6156 27.4502C72.6156 26.766 72.0923 26.3232 71.3678 26.3232C70.6434 26.3232 70.1201 26.766 70.1201 27.4502Z" fill="#EDEFF1"/>
<path d="M90.8476 25.1553H88.7949V36.1433H84.77V28.8984H82.7173V36.1433H77.1629V28.8984H75.1102V36.1433H70.8035V30.1864H68.7508V36.1433H65.0076V30.1864H62.9549V36.1433H57.6823V28.6972H55.6296V38.1557C55.6296 39.4437 55.0259 39.8865 54.1806 39.8865C53.7781 39.8865 53.4159 39.8462 52.8927 39.806L52.6914 41.5769C53.0939 41.6574 53.5366 41.7379 53.9794 41.7379C56.0723 41.7379 57.6018 40.9329 57.6823 38.196H90.8074V25.1553H90.8476Z" fill="#EDEFF1"/>
<path d="M95.5556 25.1562H93.5029V38.2372H95.5556V25.1562Z" fill="#EDEFF1"/>
<path d="M46.8152 41.0129C46.8152 40.3287 46.2517 39.8457 45.5272 39.8457C44.8027 39.8457 44.2393 40.3287 44.2393 41.0129C44.2393 41.7777 44.843 42.1801 45.5272 42.1801C46.2115 42.1801 46.8152 41.7777 46.8152 41.0129Z" fill="#EDEFF1"/>
<path d="M50.2371 41.0129C50.2371 40.3287 49.6736 39.8457 48.9491 39.8457C48.2246 39.8457 47.6611 40.3287 47.6611 41.0129C47.6611 41.7777 48.2649 42.1801 48.9491 42.1801C49.6333 42.1801 50.2371 41.7777 50.2371 41.0129Z" fill="#EDEFF1"/>
<path d="M79.9403 39.8457C79.2158 39.8457 78.6523 40.3287 78.6523 41.0129C78.6523 41.7777 79.2561 42.1801 79.9403 42.1801C80.6246 42.1801 81.2283 41.7777 81.2283 41.0129C81.2283 40.3287 80.705 39.8457 79.9403 39.8457Z" fill="#EDEFF1"/>
<path d="M209.462 21.7345C209.905 21.815 210.308 21.8955 210.75 21.9358C212.763 18.2731 215.017 14.8519 217.593 11.6723C211.354 6.80211 204.23 2.89794 195.898 0L209.462 21.7345ZM244.439 49.265L222.101 42.0201L248.343 84C249.913 71.3617 248.424 60.0115 244.439 49.265Z" fill="#EDEFF1"/>
<path d="M207.853 33.0846C217.513 17.6289 230.111 6.31891 248.344 0.0400391L222.142 42.0199L195.899 83.9998C193.565 64.8412 198.193 48.5805 207.853 33.0846Z" fill="#EDEFF1"/>
<path d="M170.019 25.0758L197.911 34.1319C200.849 32.5219 203.868 31.0327 207.008 29.7045C207.41 28.6982 207.853 27.7323 208.295 26.7663C209.06 25.1161 209.865 23.5061 210.71 21.9364C197.267 19.8032 183.905 20.5277 170.019 25.0758ZM246.331 34.1721L222.141 42.0207L274.224 58.9656C266.456 48.1788 257.118 40.1692 246.331 34.1721Z" fill="#EDEFF1"/>
<path d="M170.019 58.9653L199.803 49.3055C200.89 46.4076 202.137 43.5901 203.546 40.7727C204.391 37.0698 205.559 33.3669 207.048 29.7444C192.276 36.0233 179.92 45.2404 170.019 58.9653ZM234.82 21.7349L222.141 42.0204L274.224 25.0755C260.821 20.6884 247.82 19.8432 234.82 21.7349Z" fill="#EDEFF1"/>
</svg>
