<svg width="239" height="78" viewBox="0 0 239 78" fill="none" xmlns="http://www.w3.org/2000/svg">
<path d="M55.7883 29.3334C55.7883 29.8024 55.744 30.2824 55.6332 30.7772C55.4596 31.6855 55.3046 32.1397 55.179 32.1397C55.1089 32.1397 55.0609 31.9513 55.0387 31.5747C54.9907 30.7772 54.9612 30.323 54.9612 30.227C54.7655 28.27 54.2633 24.9727 53.4584 20.3424C53.2294 19.0575 52.9267 17.1374 52.55 14.5749C52.3617 14.4088 52.2842 14.2832 52.3137 14.1983C52.3913 13.9694 52.5242 13.6334 52.7051 13.1792C52.8454 12.8026 52.9377 12.6143 52.971 12.6143C53.0337 12.6143 53.3476 13.2161 53.9125 14.4309C54.5402 15.7786 54.8135 16.4839 54.7286 16.5467C54.651 16.5947 54.4848 16.4987 54.2412 16.2328C54.171 16.1553 53.9901 15.967 53.6947 15.6679C54.0565 17.5953 54.5882 20.6711 55.2935 24.8952C55.6184 27.0995 55.7883 28.5839 55.7883 29.3334Z" fill="#EDEFF1"/>
<path d="M26.7589 30.2019C26.7589 31.1582 26.5225 31.9004 26.0536 32.4247C25.7028 32.8013 24.3847 33.6653 22.1064 35.0094C19.5218 36.5306 17.8528 37.2987 17.1069 37.2987C16.1358 37.2987 15.6484 36.6968 15.6484 35.482C15.6484 34.4001 15.8995 33.2592 16.4165 32.0665C16.6675 31.4868 16.8374 31.1877 16.9334 31.2062C17.0663 31.2062 16.9962 31.5754 16.6971 32.3102C16.4054 33.045 16.2577 33.7023 16.2577 34.293C16.2577 35.1534 16.6343 35.5928 17.3876 35.5928C18.1076 35.5928 19.6436 34.9134 21.992 33.5398C24.8425 31.9041 26.2678 31.0031 26.2678 30.8296C26.2678 30.4456 25.7988 29.9988 24.8425 29.4819C24.1151 29.12 23.3766 28.7545 22.6345 28.3852C21.3753 27.7132 20.3562 26.8639 19.5808 25.8448C19.5365 25.8375 19.4627 25.7747 19.3778 25.6565C19.3704 25.6085 19.363 25.3279 19.363 24.811C19.3556 24.2793 19.363 24.0134 19.3962 23.9949C19.5218 23.9802 19.9132 24.1685 20.5889 24.5747C21.2535 24.9808 21.5747 25.2171 21.5452 25.2947C21.5304 25.3648 21.3089 25.4054 20.9027 25.4202C21.7261 26.1587 22.7268 26.7975 23.9083 27.3476C25.0825 27.8867 25.821 28.2855 26.1016 28.5403C26.5373 28.9465 26.7589 29.4966 26.7589 30.2019Z" fill="#EDEFF1"/>
<path d="M4.6814 26.4314C4.48201 27.1366 4.16816 27.4985 3.73245 27.4985C3.48876 27.4985 3.30783 27.4099 3.18598 27.2289C2.93121 26.8191 2.80566 26.3834 2.80566 25.9144C2.80566 25.5821 2.86105 25.1243 2.9829 24.5335C3.11582 23.8098 3.35952 22.9975 3.70661 22.0928C3.83954 21.7605 3.95031 21.598 4.02785 21.598C4.05369 21.6091 4.07215 21.646 4.07215 21.7088C4.07215 21.8159 4.03154 21.9747 3.954 22.1851C3.81 22.6208 3.59953 23.4442 3.32629 24.6553C3.20444 25.3274 3.23398 25.8443 3.41491 26.1914C3.53676 26.4351 3.70661 26.5532 3.93554 26.5532C4.06846 26.5532 4.18293 26.5052 4.27893 26.3945C4.33432 26.3169 4.41924 26.1951 4.53001 26.0289C4.5854 25.896 4.62971 25.8295 4.66294 25.8295C4.78479 25.8221 4.80325 26.0215 4.6814 26.4314ZM18.3433 22.547C18.3433 22.8055 18.2879 23.0787 18.1697 23.3704C18.059 23.6547 17.9666 23.8024 17.8891 23.8024C17.8485 23.8024 17.7156 23.6547 17.4903 23.3556C17.2725 23.0565 17.0768 22.9088 16.9032 22.9088C16.4343 22.9088 15.6958 23.3889 14.6952 24.36C13.6945 25.3237 13.1924 26.0621 13.1924 26.5606C13.1924 26.7932 13.4361 27.0369 13.9309 27.2806C14.3518 27.5022 14.7616 27.624 15.153 27.6573C16.2497 27.757 16.9919 27.9231 17.3943 28.1447C17.7562 28.3625 17.9445 28.6764 17.9445 29.101C17.9445 29.9244 17.7414 30.5964 17.3168 31.1207C16.6448 31.9848 15.3118 32.8746 13.3364 33.8014C11.1911 34.7873 9.31905 35.2895 7.72763 35.2895C5.67835 35.2895 4.26416 34.3811 3.5146 32.5645C3.10475 31.5527 3.06044 30.3379 3.38906 28.9127C3.57738 28.0967 3.85061 27.3212 4.21985 26.5791C4.47094 26.0769 4.62971 25.8443 4.70725 25.8738C4.78479 25.9034 4.74787 26.1692 4.56694 26.6899C4.14601 27.8899 3.92446 28.8351 3.92446 29.5404C3.92446 30.6555 4.25309 31.5786 4.9251 32.3134C5.69312 33.1589 6.80453 33.5836 8.26303 33.5836C9.48521 33.5836 10.8625 33.2845 12.3985 32.69C13.5432 32.2506 14.6693 31.6931 15.7844 31.0136C16.7223 30.4487 17.1949 30.1201 17.1949 30.0093C17.1949 29.7176 16.774 29.5219 15.9248 29.4296C13.6059 29.1711 12.4465 28.5213 12.4465 27.4874C12.4465 26.2652 13.0484 24.9175 14.2632 23.4295C15.43 22.0042 16.4269 21.2842 17.254 21.2842C17.5457 21.2842 17.8042 21.4097 18.022 21.6682C18.2325 21.9119 18.3433 22.211 18.3433 22.547ZM13.4435 36.3824L12.6607 37.7929L11.0619 36.855L10.4046 38.0292L8.77627 37.0729L9.55906 35.6624L11.1579 36.6039L11.8151 35.4298L13.4435 36.3824Z" fill="#EDEFF1"/>
<path d="M29.9745 29.3489C29.4723 29.3194 29.2213 29.1939 29.2213 28.9908C29.2213 28.8985 29.2914 28.8025 29.4169 28.7249C29.5499 28.64 29.6606 28.5994 29.7382 28.5994C30.1296 28.6326 30.5062 28.8837 30.8828 29.3379C30.6317 29.3674 30.3253 29.3674 29.9745 29.3489ZM50.9658 22.6029C50.5116 20.1364 50.0722 17.6773 49.6476 15.2255C49.9319 15.5098 50.1165 15.6944 50.1941 15.772C50.4599 16.0231 50.6187 16.1265 50.6815 16.0858C50.7036 16.06 50.7147 16.0378 50.7147 16.0231C50.7147 15.8975 50.4304 15.2071 49.8839 13.9738C49.3522 12.7516 49.0384 12.1387 48.946 12.1387C48.898 12.1387 48.8057 12.3344 48.6617 12.7184C48.4882 13.1725 48.3663 13.5159 48.2703 13.7522C48.226 13.8372 48.3183 13.9553 48.5362 14.0956C48.9054 16.6655 49.1934 18.593 49.3965 19.8779C50.3602 25.3316 50.8402 28.6289 50.8402 29.7625C50.8402 29.888 50.6593 30.0542 50.3011 30.2388C49.943 30.4345 49.6328 30.5268 49.378 30.5305C49.3005 30.5305 49.2267 30.5268 49.1491 30.5157C48.8131 30.4788 48.5066 30.3606 48.226 30.1686C48.0414 30.0579 47.9085 29.9323 47.8162 29.7846C47.7128 29.6185 47.6685 29.4302 47.6759 29.2123C47.6832 29.12 47.6869 29.0388 47.6906 28.9686C47.698 28.7988 47.6906 28.7065 47.6759 28.6954C47.5651 28.6474 47.3952 28.8505 47.1589 29.2751C47.0334 29.5594 46.8931 29.84 46.7528 30.1059C46.5312 30.4345 46.1878 30.5748 45.7189 30.56C45.1576 30.5416 44.8364 30.3422 44.7515 29.9656C44.7958 29.6849 44.8659 29.408 44.8807 29.1274C44.9176 28.976 44.9102 28.8985 44.8549 28.8837C44.7441 28.8578 44.589 29.0166 44.3675 29.3379C44.1607 29.6443 43.9835 29.8917 43.8321 30.08C43.7804 30.1317 43.7213 30.1797 43.6622 30.2277C43.2228 30.6007 42.6837 30.9404 42.1077 31.0068C42.0339 31.0142 41.9563 31.0142 41.8788 31.0179C41.8677 31.0179 41.8603 31.0179 41.8493 31.0179C41.7311 31.0142 41.6092 30.9957 41.4874 30.9662C41.4505 30.9588 41.4136 30.9514 41.3766 30.944C40.9926 30.8037 40.7711 30.4714 40.712 29.9545C40.712 29.7846 40.7342 29.5779 40.7748 29.3452C40.7969 29.1975 40.7748 29.1089 40.712 29.0942C40.6345 29.072 40.5163 29.1422 40.3501 29.2825C40.1212 29.5225 39.9255 29.7256 39.7631 29.888C39.6634 29.9914 39.5747 30.08 39.5009 30.1576C39.3901 30.2573 39.2793 30.357 39.1649 30.453C39.08 30.5231 38.995 30.5933 38.9064 30.656C38.7587 30.7668 38.6036 30.8739 38.4412 30.9662C38.3378 31.0253 38.2307 31.0696 38.1126 31.0991C37.8135 31.1767 37.4996 31.2247 37.1858 31.2284C37.0011 31.2321 36.8165 31.2173 36.6356 31.1877C36.2996 31.1287 36.0411 30.848 36.0116 30.5083C35.9931 30.2905 36.0263 30.0616 36.0707 29.8585C36.1445 29.5446 36.1962 29.2197 36.2848 28.9095C36.3254 28.7619 36.3771 28.6178 36.4436 28.4812C36.7537 28.3077 37.0861 28.1748 37.4184 28.0492C37.8245 27.8941 38.2344 27.7501 38.6221 27.5544C38.8806 27.4141 39.187 27.307 39.4012 27.1003C39.4677 27.0338 39.5267 26.96 39.571 26.8713C39.7557 26.539 39.9403 26.1956 39.9994 25.8153C39.1944 26.0849 38.4522 26.5021 37.6473 26.7643C37.2855 26.9046 36.9051 27.0486 36.5211 27.1335C36.5137 27.1335 36.5063 27.1372 36.499 27.1372C36.0374 27.2369 35.5611 27.2553 35.0996 27.0818C34.1432 26.8123 33.438 26.0812 32.9321 25.2541C32.873 25.1618 32.8213 25.0658 32.766 24.9698C32.6441 24.6854 32.441 24.2682 32.7733 24.0504C33.7481 23.4485 34.9334 23.3931 36.0411 23.2934C36.8128 23.1937 37.5365 23.5445 38.2972 23.5445C37.5328 22.8836 36.6097 22.3223 35.5759 22.2558C34.6269 22.1377 33.5746 22.2743 32.8472 22.9463C32.2527 23.4263 31.9426 24.1796 31.865 24.9254C31.8502 25.0436 31.8576 25.1618 31.8761 25.2799C31.9315 25.6048 32.0201 25.9298 32.1419 26.2399C32.2158 26.4246 32.3007 26.6092 32.4004 26.7827C32.574 27.0929 32.7881 27.3772 33.0466 27.6283C33.3124 27.8535 33.6004 28.0529 33.8737 28.2745C33.3087 28.5145 32.7623 28.8246 32.1678 28.9871C32.0607 28.7618 31.9278 28.5329 31.769 28.3003C31.2447 27.5323 30.7019 27.1335 30.1407 27.0929C29.609 27.0633 29.14 27.344 28.7302 27.9237C28.3609 28.448 28.1837 28.9723 28.1837 29.5077C28.1837 30.416 28.7486 30.8702 29.8748 30.8702C30.6834 30.8702 31.3185 30.7853 31.7727 30.6191C31.913 30.8222 31.9758 31.0511 31.9758 31.3096C31.9758 31.7305 31.2225 32.5022 29.7197 33.6284C28.0655 34.8654 26.6661 35.4746 25.5215 35.4746C24.7055 35.4746 24.063 35.2014 23.6014 34.6586C23.1325 34.1121 22.9036 33.4364 22.9036 32.6389C22.9036 32.1699 22.9663 31.6825 23.0771 31.1988C23.1916 30.7151 23.247 30.4788 23.247 30.4788C23.247 30.4308 23.2322 30.405 23.2137 30.4013C23.0882 30.3717 22.9183 30.7077 22.7116 31.4019C22.4752 32.1699 22.3682 32.9047 22.3682 33.6284C22.3682 34.6475 22.6119 35.4599 23.0882 36.0728C23.6125 36.7559 24.3731 37.0919 25.359 37.0919C26.415 37.0919 27.6631 36.575 29.0883 35.5411C30.3364 34.6475 31.2742 33.7392 31.9093 32.7976C32.2786 32.2622 32.4706 31.4795 32.489 30.4419C33.5192 30.1539 34.6823 29.5852 35.9747 28.7397C35.6608 29.6702 35.4208 30.6634 35.6017 31.6456C35.7273 32.0665 36.0005 32.4838 36.4399 32.6167C37.0639 32.7312 37.7433 32.7053 38.3119 32.3989C38.4633 32.3361 38.5999 32.2549 38.7255 32.1552C39.1981 31.8819 39.619 31.4647 39.992 30.9071C39.992 32.0259 40.5089 32.5835 41.528 32.5835C42.5287 32.5835 43.3779 31.989 44.0684 30.8148C44.0204 31.1582 44.1164 31.4647 44.3269 31.7305C44.4709 31.9041 44.637 32.0222 44.8253 32.0813C44.925 32.1145 45.0358 32.1293 45.1503 32.1293C46.0143 32.1293 46.6383 31.5755 47.0481 30.4677C47.0703 30.4677 47.1257 30.5748 47.1995 30.7742C47.1995 30.7742 47.2032 30.7779 47.2032 30.7816C47.3214 31.0474 47.4322 31.2358 47.5319 31.3613C47.8937 31.8228 48.3626 32.0555 48.946 32.0665C48.9497 32.0665 48.9534 32.0665 48.9571 32.0665C48.9608 32.0665 48.9645 32.0665 48.9682 32.0665C48.9719 32.0665 48.9756 32.0665 48.9756 32.0665C48.9793 32.0665 48.983 32.0665 48.983 32.0665C50.1904 32.0592 50.9658 31.4019 51.3055 30.1096C51.5159 29.2714 51.6193 28.5588 51.6193 27.9643C51.6378 27.0596 51.4089 25.2725 50.9658 22.6029Z" fill="#EDEFF1"/>
<path d="M24.7091 20.8931C24.5798 21.3547 24.3731 21.591 24.0887 21.591C23.93 21.591 23.8118 21.5319 23.7306 21.4137C23.5644 21.1479 23.4795 20.8636 23.4795 20.5571C23.4795 20.3393 23.5164 20.0402 23.594 19.6525C23.6789 19.1798 23.8377 18.6518 24.0666 18.0574C24.1515 17.8395 24.2254 17.7324 24.277 17.7324C24.2955 17.7398 24.3066 17.7657 24.3066 17.8063C24.3066 17.8727 24.2807 17.9798 24.2327 18.1164C24.1404 18.4007 24.0038 18.9398 23.8192 19.73C23.7417 20.1694 23.7601 20.5054 23.8783 20.7343C23.9595 20.8931 24.0703 20.9707 24.218 20.9707C24.3029 20.9707 24.3804 20.9374 24.4432 20.8636C24.4801 20.8119 24.5318 20.7343 24.6057 20.6273C24.6389 20.5423 24.6721 20.498 24.6906 20.498C24.7755 20.498 24.7866 20.6273 24.7091 20.8931Z" fill="#EDEFF1"/>
<path d="M22.3758 37.0879C22.4053 37.1322 22.3868 37.2393 22.3167 37.387C22.2502 37.531 22.1985 37.6122 22.1616 37.627C21.1905 37.9888 20.2157 38.3507 19.2409 38.7162C18.004 39.1889 17.1067 39.5803 16.5529 39.8978C16.5233 39.835 16.5196 39.7132 16.5529 39.5396C16.5861 39.3846 16.6267 39.2923 16.6747 39.259C18.4212 38.4762 20.3191 37.7525 22.3758 37.0879Z" fill="#EDEFF1"/>
<path d="M34.8886 16.4731C34.8886 16.5174 34.8553 16.6024 34.7889 16.7353C34.7224 16.8645 34.6818 16.931 34.667 16.931C34.4824 16.9051 34.2756 16.8424 34.043 16.7427C33.6073 17.4221 32.71 18.1421 31.3549 18.8953C31.2442 18.9507 30.9598 19.0689 30.502 19.2461C30.0441 19.4197 29.8041 19.5046 29.7709 19.4861C29.7598 19.4603 29.9924 19.3089 30.4835 19.0283C32.1673 18.131 33.3045 17.3445 33.8842 16.6725C33.3821 16.4436 33.1273 16.1704 33.1273 15.8491C33.1273 15.6719 33.2344 15.4466 33.4522 15.1808C33.6627 14.9149 33.8694 14.7783 34.0651 14.7783C34.3088 14.7783 34.4344 15.0516 34.4344 15.6017C34.4344 15.8122 34.4012 16.0264 34.3236 16.2368C34.7002 16.3624 34.8886 16.4399 34.8886 16.4731ZM34.1316 16.174C34.2535 15.6534 34.1759 15.3913 33.8879 15.3913C33.6294 15.3913 33.4965 15.4983 33.4965 15.7162C33.4928 15.8713 33.707 16.0227 34.1316 16.174Z" fill="#EDEFF1"/>
<path d="M46.369 19.0024C46.369 19.0467 46.3358 19.1317 46.2693 19.2646C46.2029 19.3938 46.1622 19.4603 46.1475 19.4603C45.9628 19.4307 45.7561 19.3717 45.5234 19.2683C45.0877 19.9477 44.1905 20.6677 42.8354 21.421C42.7246 21.4763 42.4403 21.5908 41.9824 21.7717C41.5246 21.9453 41.2846 22.0302 41.2513 22.0117C41.2403 21.9859 41.4766 21.8345 41.964 21.5576C43.6477 20.6603 44.785 19.8738 45.3647 19.2018C44.8625 18.9729 44.6077 18.6996 44.6077 18.3784C44.6077 18.2012 44.7148 17.9759 44.9327 17.7101C45.1431 17.4405 45.3499 17.3076 45.5456 17.3076C45.7893 17.3076 45.9148 17.5809 45.9148 18.1347C45.9148 18.3452 45.8816 18.5556 45.8041 18.7698C46.1807 18.8917 46.369 18.9692 46.369 19.0024ZM45.6121 18.7033C45.7339 18.1827 45.6564 17.9206 45.3647 17.9206C45.1099 17.9206 44.977 18.0276 44.977 18.2455C44.977 18.4006 45.1874 18.552 45.6121 18.7033Z" fill="#EDEFF1"/>
<path d="M45.5679 34.8574C45.5679 35.2599 45.4202 35.463 45.1248 35.463C45.0067 35.463 44.907 35.4223 44.8184 35.3411C44.7741 35.3079 44.7297 35.3153 44.6928 35.3743C44.5525 35.5885 44.3494 35.6993 44.0873 35.6993C43.9839 35.6993 43.8916 35.6771 43.8214 35.6254C43.5851 35.4851 43.2934 35.4851 42.9426 35.6439C42.7912 35.7251 42.5291 35.9356 42.1561 36.2716C41.942 36.4451 41.7352 36.6261 41.5284 36.8033C41.1887 37.0655 40.7826 37.2907 40.3136 37.4864C39.9333 37.6378 39.6749 37.7153 39.5456 37.7153C39.5124 37.7153 39.4902 37.7079 39.4902 37.6821C39.5235 37.6489 39.5973 37.6119 39.6896 37.575C39.8669 37.5159 40.1106 37.4089 40.4207 37.2501C40.993 36.9252 41.4952 36.5485 41.9235 36.1091C42.278 35.7141 42.6583 35.4187 43.0682 35.2119C43.3525 35.0605 43.5962 35.0457 43.803 35.1786C43.8953 35.2488 43.995 35.2857 44.1057 35.2857C44.4011 35.2857 44.6079 35.1454 44.715 34.8574C44.7704 34.6839 44.8405 34.5916 44.9291 34.5916C44.9513 34.5916 44.9624 34.6174 44.9476 34.6802C44.9107 34.8131 44.9033 34.8833 44.9291 34.9128C45.0067 35.0162 45.1322 35.0531 45.2873 35.0051C45.3907 34.983 45.4055 34.935 45.3205 34.8611C45.2578 34.8279 45.2467 34.7725 45.2873 34.6986C45.3575 34.5325 45.3981 34.4512 45.4276 34.4512C45.5199 34.4476 45.5679 34.5805 45.5679 34.8574Z" fill="#EDEFF1"/>
<path d="M13.1996 18.5809C13.1996 19.1347 13.074 19.5963 12.8082 19.984C12.5571 20.3532 12.2912 20.5452 12.0106 20.5452C11.8408 20.5452 11.7041 20.4788 11.5971 20.3532C11.1761 20.7779 10.7995 20.9994 10.4783 20.9994C10.0093 20.9994 9.76562 20.7225 9.76562 20.1686C9.76562 19.9655 9.84317 19.6591 10.0093 19.2455C10.1681 18.832 10.301 18.6178 10.4081 18.6178C10.493 18.6178 10.5336 18.7027 10.5078 18.8763C10.4635 19.2566 10.4376 19.4486 10.4376 19.4486C10.4376 19.5668 10.5336 19.6332 10.7293 19.6332C11.0137 19.6332 11.2684 19.4855 11.5047 19.1791C11.7411 18.8837 11.8481 18.7286 11.826 18.7286C11.9257 18.7286 11.9958 18.8024 12.0291 18.9575C12.0623 19.1052 12.1066 19.1791 12.1768 19.1791C12.4278 19.1791 12.6309 19.0314 12.7786 18.7286C12.9263 18.4332 13.0112 18.2744 13.0371 18.2744C13.1442 18.2781 13.1996 18.3815 13.1996 18.5809Z" fill="#EDEFF1"/>
<path d="M46.2914 22.9381C46.2914 23.4919 46.1658 23.9535 45.9 24.3412C45.6489 24.7104 45.383 24.9024 45.1024 24.9024C44.9289 24.9024 44.7959 24.836 44.6889 24.7104C44.2679 25.1351 43.8913 25.3566 43.5701 25.3566C43.1011 25.3566 42.8574 25.0797 42.8574 24.5258C42.8574 24.3227 42.935 24.0163 43.1011 23.6027C43.2562 23.1892 43.3928 22.975 43.4999 22.975C43.5848 22.975 43.6254 23.0599 43.5996 23.2335C43.5553 23.6101 43.5294 23.8058 43.5294 23.8058C43.5294 23.924 43.6218 23.9904 43.8211 23.9904C44.1018 23.9904 44.3602 23.8427 44.5965 23.5363C44.8329 23.2409 44.9399 23.0821 44.9178 23.0821C45.0212 23.0821 45.0913 23.1559 45.1209 23.311C45.1504 23.4587 45.1984 23.5326 45.2686 23.5326C45.5196 23.5326 45.7227 23.3849 45.8704 23.0784C46.0181 22.783 46.103 22.6279 46.1289 22.6279C46.236 22.6353 46.2914 22.735 46.2914 22.9381Z" fill="#EDEFF1"/>
<path d="M35.9559 36.7033C35.4612 37.3495 34.815 37.6707 34.0174 37.6707C33.4562 37.656 33.1719 37.4344 33.1719 37.0061C33.1719 36.803 33.2568 36.515 33.4267 36.1273C33.615 35.7101 33.7959 35.4331 33.9694 35.3002C33.663 35.0639 33.5005 34.835 33.5005 34.6134C33.5005 34.4325 33.6186 34.1925 33.8587 33.8897C34.0987 33.5869 34.3202 33.4355 34.5233 33.4355C34.6931 33.4355 34.7818 33.5611 34.7818 33.8196C34.7818 33.8934 34.7596 33.9931 34.7079 34.1297C34.6636 34.2479 34.6156 34.318 34.5713 34.318C34.5454 34.3033 34.5196 34.2626 34.5048 34.211C34.479 34.1039 34.4125 34.0448 34.3165 34.0448C34.2722 34.0448 34.1984 34.078 34.0839 34.1593C33.9768 34.2257 33.9177 34.2996 33.9177 34.3734C33.9177 34.6097 34.1356 34.7279 34.5713 34.7279C34.6636 34.7279 34.8076 34.6467 34.9922 34.4879C35.1178 34.3586 35.2138 34.2996 35.295 34.318C35.3393 34.318 35.3356 34.4657 35.2729 34.7611C35.2433 34.8276 35.1621 34.9014 35.0402 34.979C34.7781 35.086 34.4642 35.3334 34.1061 35.7248C33.7183 36.1088 33.5263 36.3895 33.5263 36.5778C33.5263 36.8473 33.7885 36.9876 34.3165 36.9876C34.7485 36.9876 35.2581 36.8473 35.8341 36.5519C35.9264 36.5187 35.9855 36.5076 36.0224 36.5261C36.0519 36.5482 36.0335 36.611 35.9559 36.7033Z" fill="#EDEFF1"/>
<path d="M111.831 28.0121C111.831 28.4811 111.787 28.9611 111.676 29.4522C111.503 30.3605 111.348 30.8147 111.222 30.8147C111.152 30.8147 111.104 30.6264 111.082 30.2497C111.034 29.4522 111.004 28.998 111.004 28.902C110.808 26.945 110.306 23.6477 109.501 19.0175C109.272 17.7325 108.97 15.8125 108.593 13.2536C108.405 13.0875 108.327 12.9619 108.357 12.877C108.434 12.6481 108.567 12.3121 108.748 11.8579C108.888 11.4813 108.981 11.293 109.014 11.293C109.077 11.293 109.391 11.8948 109.955 13.1096C110.583 14.4574 110.856 15.1626 110.772 15.2254C110.694 15.2697 110.528 15.1774 110.284 14.9115C110.214 14.834 110.033 14.6457 109.738 14.3466C110.099 16.274 110.631 19.3535 111.336 23.5739C111.658 25.7819 111.831 27.2589 111.831 28.0121Z" fill="#EDEFF1"/>
<path d="M106.91 30.382C106.478 30.382 106.065 30.1236 105.673 29.614C105.876 29.5291 106.19 29.5217 106.615 29.5808C106.762 29.6029 106.91 29.6916 107.069 29.8319C107.228 29.9796 107.305 30.1051 107.305 30.2085C107.302 30.3267 107.169 30.382 106.91 30.382ZM106.393 27.9081C106.024 27.9081 105.544 28.0263 104.975 28.2626C104.732 27.5795 104.481 26.5419 104.226 25.1351C103.668 20.7818 103.269 17.2962 103.033 14.6857C103.317 14.9847 103.487 15.1583 103.55 15.2211C103.786 15.5017 103.941 15.6198 104.037 15.5792V15.4869C104.037 15.3614 103.801 14.6894 103.351 13.4672C102.889 12.245 102.597 11.6357 102.487 11.6357C102.439 11.6357 102.346 11.8314 102.206 12.2154C102.08 12.4518 101.914 12.7804 101.719 13.205C101.693 13.2973 101.781 13.4302 101.955 13.5964C102.25 18.5811 102.66 22.5172 103.192 25.4084C103.484 27.0921 103.727 28.1851 103.919 28.6835C103.927 28.6983 103.927 28.7131 103.934 28.7278C102.594 29.3482 101.711 29.6509 101.272 29.6509C101.231 29.6509 101.194 29.6583 101.161 29.6657C100.773 29.6214 100.463 29.4848 100.212 29.2558C100.127 29.1931 100.009 29.0195 99.8687 28.7389C99.7432 28.4878 99.6509 28.3623 99.6029 28.3623C99.5586 28.3623 99.4921 28.5986 99.4146 29.0675C99.3296 29.5365 99.289 29.8208 99.289 29.8983C99.289 29.8356 99.4773 30.19 99.854 30.9396C100.231 31.7002 100.419 32.3058 100.419 32.7489C100.419 33.0553 99.5881 33.768 97.945 34.8794C96.4496 35.88 95.1314 36.3822 93.9978 36.3822C92.2181 36.3822 91.3356 35.5182 91.3356 33.8123C91.3356 33.2953 91.4464 32.6861 91.6642 31.9808C91.8378 31.3864 91.9005 31.0873 91.8821 31.0873C91.7713 31.0245 91.6458 31.1168 91.4907 31.3679C90.9737 32.339 90.7227 33.4984 90.7227 34.8461C90.7227 36.9397 91.7085 37.981 93.684 37.981C94.7105 37.981 95.9732 37.5268 97.4613 36.6333C98.9198 35.7692 99.913 34.8941 100.456 34.0006C100.626 33.7273 100.762 33.2806 100.855 32.6602C100.954 32.0362 100.973 31.5599 100.925 31.2165C101.508 31.2128 102.151 31.0577 102.863 30.7624C103.388 30.5113 103.912 30.2602 104.429 30.0091C105.141 31.2941 105.902 31.9365 106.7 31.9365C107.593 31.9365 108.033 31.1316 108.033 29.5254C108.022 28.4398 107.471 27.9081 106.393 27.9081Z" fill="#EDEFF1"/>
<path d="M70.7129 23.9427L69.0845 22.9863L68.3018 24.3968L69.9301 25.3532L70.7129 23.9427Z" fill="#EDEFF1"/>
<path d="M97.4679 25.933C97.0581 25.5416 96.5891 25.2462 96.0574 25.0394C95.1159 24.696 93.6278 24.648 91.5933 24.8843C88.5877 25.1982 86.3316 25.4567 84.8251 25.6524C82.4768 25.8628 80.7303 25.8813 79.593 25.7151C78.3155 25.5453 77.6804 25.261 77.6804 24.8548C77.6804 24.4634 78.3228 23.8209 79.593 22.9274C81.8749 21.3618 83.651 20.579 84.9212 20.579C85.1021 20.579 85.2165 20.6233 85.283 20.7045C85.4566 20.9224 85.5489 21.0332 85.5673 21.0332C85.6596 21.0332 85.7704 20.8522 85.8812 20.4978C85.9993 20.1396 86.051 19.8701 86.051 19.6854C86.051 19.2534 85.8812 19.043 85.5341 19.043C84.1864 19.043 82.3992 19.811 80.1764 21.347C77.9056 22.9126 76.7757 24.4006 76.7757 25.8111C76.7757 26.5644 77.5105 27.0259 78.969 27.1884C80.3795 27.3656 82.4251 27.2955 85.0947 27.0001C88.3218 26.6308 90.5484 26.3871 91.7669 26.2653C93.1995 26.1398 94.2592 26.1878 94.9312 26.3908C96.1793 26.7601 96.9584 27.3472 97.2796 28.1632C94.3035 28.7429 90.9878 29.2451 87.3471 29.666C83.6953 30.098 80.782 30.3085 78.6035 30.3085C78.5961 30.3085 78.5887 30.3085 78.5813 30.3122C78.5739 30.3122 78.5665 30.3085 78.5628 30.3085C74.276 30.3085 71.6137 29.4297 70.5725 27.6758C70.4248 27.4321 70.3288 27.3139 70.2919 27.3139C70.2439 27.3139 70.1663 27.5909 70.0482 28.1373C69.9226 28.6875 69.882 28.9829 69.9005 29.0235C70.8014 30.2309 71.2482 31.1873 71.2482 31.9073C71.2482 32.0882 71.1854 32.2359 71.0599 32.3614C70.591 32.8784 69.7122 33.5209 68.4272 34.2889C66.7509 35.2526 65.3884 35.7289 64.3213 35.7289C62.5674 35.7289 61.6923 34.8686 61.6923 33.159C61.6923 32.6421 61.7846 32.0328 61.9729 31.3276C62.1538 30.7331 62.224 30.4192 62.2092 30.4045C62.0911 30.3565 61.9729 30.4672 61.8474 30.7183C61.3157 31.6894 61.0498 32.8488 61.0498 34.1966C61.0498 36.2865 62.0468 37.3277 64.0259 37.3277C65.3108 37.3277 66.8542 36.7332 68.6488 35.5406C70.2623 34.4587 71.2039 33.5836 71.4698 32.9079C71.7356 32.3208 71.8611 31.671 71.8611 30.951C73.1055 31.5454 75.2212 31.8445 78.2047 31.8445C78.2047 31.8445 78.2084 31.8445 78.2121 31.8445H78.2158C80.5567 31.8445 84.2159 31.5159 89.2006 30.8586C93.3694 30.2715 95.8211 29.8875 96.5485 29.6992C96.8513 29.6365 97.143 29.5737 97.4088 29.5109C97.4716 29.5109 97.6452 29.2155 97.9258 28.6247C98.2101 28.0303 98.3504 27.6943 98.3504 27.6167C98.343 27.0001 98.0439 26.4425 97.4679 25.933Z" fill="#EDEFF1"/>
<path d="M61.1603 36.2493L60.3776 37.6598L58.7824 36.7182L58.1215 37.8924L56.4932 36.9361L57.276 35.5256L58.8748 36.4672L59.532 35.293" fill="#EDEFF1"/>
<path d="M67.6333 22.1925C67.6333 22.451 67.5779 22.7242 67.4634 23.0159C67.3527 23.2965 67.2604 23.4442 67.1791 23.4442C67.1385 23.4442 67.0093 23.2965 66.7803 22.9974C66.5625 22.702 66.3668 22.5507 66.1932 22.5507C65.7243 22.5507 64.9858 23.027 63.9852 24.0018C62.9846 24.9655 62.4824 25.7003 62.4824 26.2024C62.4824 26.4387 62.7261 26.6788 63.2172 26.9225C63.6381 27.1403 64.048 27.2658 64.4394 27.2991C65.536 27.4025 66.2819 27.5649 66.6806 27.7865C67.0425 28.0043 67.2271 28.3182 67.2271 28.7428C67.2271 29.5662 67.024 30.2382 66.5994 30.7662C65.9274 31.6266 64.5944 32.5201 62.619 33.4432C60.4737 34.4291 58.6017 34.9313 57.0103 34.9313C54.9573 34.9313 53.5468 34.0229 52.7972 32.2063C52.3911 31.1946 52.3431 29.9798 52.6717 28.5545C52.86 27.7385 53.1332 26.9631 53.5025 26.2209C53.7536 25.7187 53.9086 25.4861 53.9862 25.5156C54.0637 25.5489 54.0268 25.811 53.8459 26.3317C53.4249 27.528 53.2034 28.4769 53.2034 29.1822C53.2034 30.2973 53.532 31.2204 54.204 31.9552C54.9721 32.8008 56.0835 33.2254 57.542 33.2254C58.7641 33.2254 60.1414 32.9263 61.6774 32.3318C62.8221 31.8924 63.9483 31.3349 65.0597 30.6555C66.0012 30.0905 66.4702 29.7619 66.4702 29.6548C66.4702 29.3631 66.0492 29.1711 65.2037 29.0751C62.8849 28.8166 61.7254 28.1668 61.7254 27.1329C61.7254 25.9107 62.331 24.563 63.5421 23.075C64.7089 21.6497 65.7058 20.9297 66.5366 20.9297C66.8283 20.9297 67.0831 21.0552 67.3047 21.3137C67.5225 21.5574 67.6333 21.8565 67.6333 22.1925Z" fill="#EDEFF1"/>
<path d="M99.2112 16.8682C99.2112 16.9125 99.1668 17.0528 99.0634 17.2891C98.9638 17.518 98.8862 17.6436 98.8197 17.662C96.0061 18.6036 93.7759 19.3642 92.1254 19.9513C88.9943 21.0443 86.7567 21.8972 85.4053 22.4954C85.4053 22.344 85.4607 22.1741 85.5825 21.9821C85.697 21.7975 85.8077 21.6794 85.9001 21.6203C89.766 20.003 94.2006 18.4227 99.2112 16.8682Z" fill="#EDEFF1"/>
<path d="M75.9375 34.2959C75.9634 34.3402 75.9486 34.4473 75.8784 34.595C75.8083 34.739 75.7566 34.8202 75.7233 34.835C74.7522 35.1968 73.7774 35.5587 72.8027 35.9242C71.5657 36.3969 70.6685 36.7883 70.1183 37.1021C70.0887 37.0393 70.0851 36.9175 70.1183 36.7476C70.1515 36.5926 70.1921 36.5003 70.2364 36.467C71.9793 35.6805 73.8771 34.9568 75.9375 34.2959Z" fill="#EDEFF1"/>
<path d="M107.811 34.2147C107.811 34.6357 107.737 34.8498 107.582 34.8498C107.164 34.8498 106.795 34.7095 106.466 34.4215C106.426 34.6615 106.322 34.8904 106.153 35.1083C105.953 35.3372 105.318 35.6769 104.247 36.1274C103.365 36.5262 102.841 36.744 102.674 36.7957C101.962 36.9471 101.341 37.0579 100.821 37.128H100.706C100.68 37.1169 100.669 37.1022 100.688 37.0874C100.688 37.0616 100.721 37.0394 100.791 37.0246C100.98 36.9729 101.471 36.7846 102.272 36.4708C103.18 36.1163 103.841 35.8468 104.251 35.6585C105.252 35.2375 105.876 34.9015 106.127 34.6578C106.271 34.5101 106.367 34.3883 106.407 34.2738C106.459 34.0855 106.574 33.8824 106.747 33.6646C106.913 33.4467 107.061 33.3359 107.179 33.3359C107.33 33.3359 107.475 33.4282 107.611 33.6239C107.74 33.8159 107.811 34.0116 107.811 34.2147ZM107.445 34.3403C107.445 34.0264 107.334 33.8713 107.113 33.8713C106.924 33.8713 106.832 33.9341 106.832 34.0596C106.832 34.0855 106.906 34.1372 107.057 34.211C107.198 34.2849 107.33 34.3255 107.445 34.3403Z" fill="#EDEFF1"/>
<path d="M63.6053 16.0923C63.6053 16.1366 63.5721 16.2215 63.5056 16.3544C63.4392 16.4837 63.3986 16.5501 63.3838 16.5501C63.1992 16.5243 62.9961 16.4615 62.7598 16.3618C62.3241 17.0412 61.4268 17.7612 60.0717 18.5145C59.9609 18.5699 59.6766 18.6843 59.2188 18.8653C58.7609 19.0388 58.5209 19.1237 58.4877 19.1053C58.4766 19.0794 58.7129 18.928 59.2003 18.6474C60.884 17.7502 62.0213 16.9637 62.601 16.2954C62.0988 16.0664 61.8441 15.7932 61.8441 15.4683C61.8441 15.291 61.9511 15.0658 62.169 14.7999C62.3795 14.5304 62.5862 14.3975 62.7819 14.3975C63.0256 14.3975 63.1512 14.6707 63.1512 15.2209C63.1512 15.4313 63.1179 15.6455 63.0404 15.856C63.417 15.9815 63.6053 16.059 63.6053 16.0923ZM62.8484 15.7932C62.9702 15.2726 62.8927 15.0104 62.6047 15.0104C62.3462 15.0104 62.2133 15.1175 62.2133 15.3353C62.2133 15.4904 62.4238 15.6418 62.8484 15.7932Z" fill="#EDEFF1"/>
<path d="M63.4134 19.0064C63.4134 19.5603 63.2879 20.0219 63.022 20.4096C62.7709 20.7788 62.5051 20.9708 62.2245 20.9708C62.0546 20.9708 61.918 20.9043 61.8109 20.7751C61.39 21.1997 61.0134 21.4213 60.6921 21.4213C60.2232 21.4213 59.9795 21.1444 59.9795 20.5905C59.9795 20.3874 60.057 20.0846 60.2232 19.6674C60.382 19.2538 60.5149 19.0397 60.622 19.0397C60.7069 19.0397 60.7475 19.1209 60.7217 19.2982C60.6773 19.6748 60.6515 19.8705 60.6515 19.8705C60.6515 19.9923 60.7438 20.0551 60.9395 20.0551C61.2238 20.0551 61.4786 19.9074 61.7149 19.6046C61.9512 19.3092 62.0583 19.1504 62.0361 19.1504C62.1358 19.1504 62.206 19.2243 62.2392 19.3794C62.2725 19.5271 62.3168 19.6009 62.3869 19.6009C62.638 19.6009 62.8411 19.4532 62.9888 19.1468C63.1365 18.8514 63.2214 18.6963 63.2473 18.6963C63.358 18.7037 63.4134 18.8034 63.4134 19.0064Z" fill="#EDEFF1"/>
<path d="M78.8436 14.6974C78.8989 14.7602 78.8989 14.919 78.8436 15.1811C78.8029 15.4359 78.7512 15.5688 78.6737 15.5688C78.6737 15.5688 78.622 15.4913 78.5075 15.3141C78.4005 15.1405 78.286 15.0519 78.1494 15.0519C77.8946 15.0519 77.7137 15.6168 77.5955 16.7578C77.4884 17.8951 77.3887 18.4563 77.2927 18.4341C77.1857 18.4341 77.0712 18.1868 76.9383 17.6809C76.7906 17.0606 76.5395 16.5695 76.1887 16.2187C76.174 16.2593 76.1481 16.2963 76.1075 16.3443C76.0558 16.3664 75.9044 16.3036 75.6496 16.1375C75.4059 15.9787 75.273 15.8273 75.2509 15.7018C75.1992 15.1147 75.2841 14.8193 75.5278 14.8193C75.9635 14.8045 76.4361 15.351 76.9346 16.4772C77.001 16.7135 77.1007 16.9867 77.2374 17.2895C77.2891 16.7504 77.3629 16.2076 77.4589 15.6612C77.6066 14.6679 77.8355 14.1768 78.1457 14.199C78.3857 14.2027 78.6109 14.3614 78.8436 14.6974Z" fill="#EDEFF1"/>
<path d="M88.8309 33.6681C88.8826 33.7309 88.8826 33.8897 88.8309 34.1518C88.7902 34.4066 88.7386 34.5396 88.661 34.5396C88.661 34.5396 88.6093 34.462 88.4912 34.2848C88.3841 34.1112 88.2696 34.0226 88.1367 34.0226C87.8819 34.0226 87.701 34.5876 87.5828 35.7285C87.4758 36.8658 87.3724 37.4307 87.2801 37.4048C87.173 37.4048 87.0585 37.1612 86.9219 36.6516C86.7742 36.0313 86.5268 35.5402 86.176 35.1894C86.1613 35.23 86.1354 35.2669 86.0948 35.3149C86.0431 35.3408 85.8917 35.2743 85.6369 35.1082C85.3932 34.9494 85.2603 34.798 85.2382 34.6725C85.1865 34.0854 85.2714 33.79 85.5151 33.79C85.9508 33.7752 86.4234 34.3217 86.9219 35.4516C86.9884 35.6879 87.0917 35.9611 87.2247 36.2602C87.2764 35.7211 87.3502 35.182 87.4462 34.6319C87.5939 33.6386 87.8228 33.1475 88.133 33.1697C88.373 33.177 88.6019 33.3358 88.8309 33.6681Z" fill="#EDEFF1"/>
<path d="M101.714 22.3701C101.714 23.2415 101.326 23.6809 100.543 23.6809C100.156 23.6809 99.96 23.4445 99.96 22.9535C99.96 22.4181 100.137 21.8864 100.492 21.3694C100.58 21.0703 100.654 20.9189 100.71 20.9189C100.765 20.9189 100.776 20.9522 100.735 21.0371C100.684 21.159 100.654 21.2734 100.654 21.3694C101.359 21.7904 101.714 22.1264 101.714 22.3701ZM101.382 22.647C101.382 22.6138 101.245 22.4993 100.975 22.2999C100.71 22.1079 100.566 22.0082 100.547 22.0082C100.514 22.0082 100.458 22.0968 100.392 22.2851C100.329 22.4698 100.296 22.599 100.296 22.6728C100.296 22.8759 100.399 22.9793 100.602 22.9793C100.691 22.9793 100.839 22.9387 101.057 22.8575C101.274 22.7762 101.382 22.7024 101.382 22.647Z" fill="#EDEFF1"/>
<path d="M149.955 31.4899C149.955 31.9588 149.907 32.4388 149.796 32.9336C149.626 33.8419 149.468 34.2961 149.342 34.2961C149.272 34.2961 149.224 34.1078 149.202 33.7312C149.157 32.9336 149.124 32.4794 149.124 32.3834C148.929 30.4265 148.426 27.1292 147.621 22.4989C147.396 21.2139 147.09 19.2939 146.713 16.7351C146.525 16.5689 146.447 16.4434 146.477 16.3584C146.554 16.1295 146.687 15.7935 146.868 15.3394C147.009 14.9627 147.105 14.7744 147.134 14.7744C147.197 14.7744 147.511 15.3763 148.072 16.5911C148.7 17.9388 148.973 18.644 148.888 18.7068C148.81 18.7511 148.644 18.6588 148.404 18.393C148.334 18.3154 148.153 18.1271 147.854 17.828C148.216 19.7555 148.748 22.8349 149.453 27.0553C149.781 29.2597 149.955 30.7403 149.955 31.4899Z" fill="#EDEFF1"/>
<path d="M127.886 25.4895L126.257 24.5332L125.475 25.9437L127.103 26.9L127.886 25.4895Z" fill="#EDEFF1"/>
<path d="M138.262 34.1703L139.89 35.1266L140.673 33.7161L139.045 32.7598L138.262 34.1703Z" fill="#EDEFF1"/>
<path d="M145.192 24.2118C144.878 22.3102 144.549 20.405 144.206 18.496C144.508 18.8024 144.689 18.9981 144.752 19.0757C144.985 19.3452 145.144 19.4449 145.236 19.4043V19.3415C145.236 19.2012 144.963 18.5181 144.424 17.2886C143.888 16.0664 143.578 15.4571 143.5 15.4571C143.452 15.4571 143.327 15.7156 143.109 16.2252C142.961 16.6166 142.865 16.8824 142.828 17.0227C142.803 17.1076 142.884 17.2406 143.046 17.4141C143.39 19.8105 143.674 21.5496 143.877 22.6462C144.427 25.7958 144.748 28.0261 144.848 29.3516C144.87 29.7615 144.652 30.1123 144.206 30.4003C143.818 30.655 143.401 30.7769 142.954 30.788C142.932 30.7806 142.91 30.7732 142.884 30.7732C142.382 30.7732 141.99 30.607 141.71 30.2858C141.473 30.0126 141.403 29.5806 141.473 29.0009C141.495 28.8125 141.451 28.7165 141.348 28.7165C141.285 28.7165 141.097 28.8125 140.801 29.0009C139.956 29.5178 138.796 29.9387 137.323 30.2858C135.946 30.6144 134.683 30.7732 133.546 30.7732C131.149 30.7732 129.654 30.3892 129.048 29.6323C128.705 29.2002 128.609 28.7867 128.768 28.3916C128.823 28.2513 128.783 28.1885 128.675 28.1885C128.495 28.1885 128.207 28.5171 127.797 29.1781C127.202 30.164 126.545 30.6514 125.84 30.6514C125.814 30.6514 125.788 30.6587 125.766 30.6587C125.267 30.596 124.891 30.367 124.643 29.9756C124.307 29.4402 124.008 28.3694 123.75 26.7633C123.406 24.5552 123.137 22.9084 122.952 21.8302C122.358 17.8683 121.841 15.0842 121.416 13.4817C121.213 12.6842 121.088 12.2891 121.025 12.2891C120.999 12.2891 120.921 12.5808 120.796 13.142C120.663 13.7143 120.6 14.0503 120.6 14.15C120.6 14.0873 120.992 16.3064 121.76 20.7927C122.535 25.29 122.919 27.9042 122.919 28.6575C122.919 29.1892 122.683 29.6138 122.214 29.9092C121.213 30.5517 119.943 31.1461 118.422 31.6963C116.579 32.372 114.991 32.7006 113.644 32.7006C112.396 32.7006 111.417 32.3868 110.705 31.7702C109.985 31.1424 109.63 30.3338 109.63 29.3332C109.63 29.0267 109.708 28.5651 109.848 27.9559C109.988 27.4611 110.007 27.2027 109.911 27.1879C109.8 27.1103 109.667 27.2728 109.501 27.6568C109.095 28.5799 108.892 29.4661 108.892 30.319C108.892 31.5264 109.268 32.4902 110.018 33.2176C110.801 34.0004 111.938 34.3917 113.418 34.3917C114.633 34.3917 116.184 34.0484 118.071 33.3727C119.851 32.7006 121.228 32.0102 122.206 31.2901C122.786 30.8618 123.129 30.1787 123.255 29.2372C123.591 31.0612 124.3 32.0397 125.367 32.1911C125.393 32.2058 125.422 32.2169 125.456 32.2169C125.493 32.2169 125.526 32.2095 125.563 32.2095C125.6 32.2095 125.633 32.2169 125.67 32.2169C125.733 32.2169 125.788 32.2058 125.843 32.1874C126.538 32.0803 127.099 31.6889 127.512 30.9947C127.882 30.3855 128.077 30.0864 128.092 30.0864C128.561 31.5892 130.252 32.3425 133.165 32.3425C134.45 32.3425 135.92 32.1062 137.567 31.6372C139.095 31.2052 140.207 30.751 140.905 30.2747C141.023 31.652 141.555 32.3425 142.503 32.3425C142.555 32.3425 142.607 32.3351 142.651 32.324C143.608 32.2797 144.361 31.844 144.904 31.0132C145.42 30.1972 145.657 29.2372 145.642 28.1331C145.646 27.2063 145.491 25.9066 145.192 24.2118Z" fill="#EDEFF1"/>
<path d="M113.855 28.7802C115.106 28.7322 115.874 28.6214 116.14 28.4442C116.417 28.2559 116.727 27.9199 117.082 27.4362C117.514 26.8417 117.724 26.3395 117.724 25.9334C117.724 25.5272 117.403 25.3204 116.76 25.3204C116.118 25.3204 115.797 25.2577 115.797 25.1321C115.797 24.7001 116.125 24.4343 116.768 24.3346C116.831 24.3124 116.938 24.1167 117.089 23.7401C117.244 23.3635 117.314 23.1124 117.314 22.9868C117.314 22.9241 117.27 22.8945 117.174 22.8945C116.838 22.8945 116.365 23.3081 115.771 24.1241C115.169 24.9475 114.87 25.6195 114.87 26.1549C114.87 26.7014 115.479 26.9857 116.701 27.0005C116.561 27.2516 116.144 27.5396 115.45 27.8608C114.914 28.0713 114.368 28.3002 113.803 28.5328C113.629 28.5956 113.552 28.651 113.552 28.6916C113.555 28.7728 113.655 28.7987 113.855 28.7802Z" fill="#EDEFF1"/>
<path d="M119.26 21.1253C119.131 21.5869 118.924 21.8232 118.64 21.8232C118.481 21.8232 118.363 21.7641 118.282 21.646C118.115 21.3801 118.034 21.0921 118.034 20.7856C118.034 20.5678 118.071 20.2687 118.149 19.881C118.234 19.4084 118.392 18.8803 118.621 18.2859C118.706 18.068 118.78 17.9609 118.832 17.9609C118.85 17.9683 118.861 17.9942 118.861 18.0348C118.861 18.1013 118.835 18.2083 118.784 18.3449C118.691 18.6293 118.555 19.1684 118.374 19.9585C118.296 20.3979 118.315 20.7339 118.433 20.9629C118.511 21.1216 118.625 21.1992 118.773 21.1992C118.858 21.1992 118.935 21.1659 118.998 21.0921C119.035 21.0404 119.09 20.9629 119.16 20.8558C119.197 20.7709 119.227 20.7266 119.245 20.7266C119.33 20.7266 119.341 20.8558 119.26 21.1253Z" fill="#EDEFF1"/>
<path d="M137.239 28.8794C137.109 29.341 136.903 29.5773 136.618 29.5773C136.459 29.5773 136.341 29.5182 136.264 29.4001C136.098 29.1342 136.013 28.8462 136.013 28.5397C136.013 28.3219 136.05 28.0228 136.127 27.6388C136.212 27.1625 136.371 26.6345 136.6 26.0437C136.685 25.8258 136.759 25.7188 136.81 25.7188C136.829 25.7261 136.84 25.752 136.84 25.7926C136.84 25.8591 136.814 25.9661 136.766 26.1028C136.674 26.3871 136.533 26.9262 136.352 27.7163C136.275 28.1557 136.293 28.4917 136.411 28.7207C136.489 28.8794 136.603 28.957 136.751 28.957C136.836 28.957 136.914 28.9238 136.976 28.8499C137.013 28.7982 137.065 28.7207 137.139 28.6136C137.176 28.5287 137.205 28.4844 137.227 28.4844C137.309 28.4844 137.32 28.6136 137.239 28.8794Z" fill="#EDEFF1"/>
<path d="M143.313 22.2998C143.313 22.3441 143.268 22.4844 143.165 22.7207C143.065 22.9497 142.988 23.0789 142.921 23.0937C140.108 24.0352 137.878 24.7959 136.227 25.383C133.096 26.4759 130.858 27.3289 129.507 27.9233C129.507 27.7756 129.566 27.6021 129.684 27.4138C129.799 27.2292 129.909 27.1073 130.002 27.0519C133.868 25.4384 138.302 23.8543 143.313 22.2998Z" fill="#EDEFF1"/>
<path d="M118.673 17.0972C118.673 17.1415 118.64 17.2264 118.574 17.3593C118.507 17.4886 118.467 17.555 118.448 17.555C118.264 17.5292 118.061 17.4664 117.824 17.3667C117.389 18.0461 116.491 18.7661 115.136 19.5194C115.025 19.5748 114.741 19.6929 114.283 19.8701C113.825 20.0437 113.585 20.1286 113.552 20.1102C113.541 20.0843 113.774 19.9329 114.265 19.6523C115.948 18.755 117.086 17.9686 117.665 17.3002C117.163 17.0713 116.909 16.7981 116.909 16.4731C116.909 16.2959 117.016 16.0707 117.233 15.8048C117.444 15.539 117.651 15.4023 117.846 15.4023C118.09 15.4023 118.216 15.6756 118.216 16.2258C118.216 16.4362 118.182 16.6504 118.105 16.8608C118.485 16.9864 118.673 17.0639 118.673 17.0972ZM117.917 16.7981C118.038 16.2774 117.961 16.0153 117.673 16.0153C117.414 16.0153 117.285 16.1224 117.285 16.3402C117.281 16.4953 117.492 16.6467 117.917 16.7981Z" fill="#EDEFF1"/>
<path d="M135.319 15.7641C135.356 15.8047 135.356 15.9487 135.319 16.1998C135.297 16.2958 135.256 16.2994 135.194 16.1998C135.112 16.0484 135.002 15.9745 134.876 15.9745C134.691 15.9745 134.595 16.1001 134.595 16.3696C134.573 16.8496 134.551 17.4182 134.522 18.0755C134.581 18.0755 134.702 18.1678 134.883 18.3487C135.064 18.5297 135.16 18.6478 135.171 18.7032C135.182 18.777 135.171 18.873 135.127 18.9912C135.086 19.102 135.053 19.161 135.027 19.161C134.769 19.1869 134.499 19.2681 134.219 19.4011C133.938 19.5303 133.802 19.6595 133.816 19.7814C134.274 22.3919 134.503 23.8209 134.503 24.0572C134.503 24.2344 134.485 24.323 134.451 24.323C134.429 24.3119 134.411 24.2639 134.396 24.1827C134.315 23.603 134.171 22.7648 133.971 21.6756C133.772 20.7155 133.672 20.1137 133.672 19.8626C133.672 19.5598 133.761 19.2866 133.953 19.0503C134.108 18.8472 134.296 18.7217 134.522 18.6773C134.462 18.6257 134.37 18.5924 134.252 18.5924C134.174 18.5924 134.112 18.6515 134.06 18.7697C134.016 18.8878 133.979 18.9469 133.953 18.9469C133.942 18.9469 133.934 18.9137 133.934 18.8398C133.934 18.6921 133.971 18.5407 134.045 18.382C134.126 18.1789 134.226 18.0718 134.341 18.0718C134.333 17.9758 134.256 17.7838 134.115 17.5069C133.96 17.1782 133.824 16.9678 133.709 16.8902C133.687 17.0084 133.665 17.0712 133.635 17.0712C133.591 17.0712 133.466 17.001 133.266 16.8533C133.067 16.7093 132.971 16.6096 132.971 16.5505C132.971 16.1554 133.022 15.9524 133.141 15.9524C133.321 15.9524 133.528 16.0742 133.765 16.3253C134.023 16.6133 134.241 16.9973 134.418 17.4662V17.4441C134.418 17.2078 134.422 16.8238 134.437 16.281C134.481 15.7271 134.618 15.4502 134.843 15.4502C134.987 15.4576 135.146 15.5573 135.319 15.7641Z" fill="#EDEFF1"/>
<path d="M127.558 19.9582C127.558 20.8296 127.17 21.269 126.391 21.269C126.003 21.269 125.804 21.0326 125.804 20.5416C125.804 20.0062 125.981 19.4745 126.335 18.9575C126.424 18.6584 126.498 18.5107 126.553 18.5107C126.609 18.5107 126.62 18.544 126.579 18.6252C126.524 18.7471 126.498 18.8615 126.498 18.9575C127.203 19.3821 127.558 19.7145 127.558 19.9582ZM127.225 20.2388C127.225 20.2055 127.089 20.0874 126.815 19.8917C126.55 19.7034 126.406 19.6 126.387 19.6C126.354 19.6 126.299 19.6886 126.228 19.8769C126.169 20.0615 126.132 20.1908 126.132 20.2646C126.132 20.4677 126.236 20.5711 126.439 20.5711C126.527 20.5711 126.675 20.5305 126.893 20.4493C127.111 20.368 127.225 20.2942 127.225 20.2388Z" fill="#EDEFF1"/>
<path d="M89.3848 45.2033H151.749V44.6494H89.3848V45.2033Z" fill="#EDEFF1"/>
<path d="M1.00781 45.2033H63.3724V44.6494H1.00781V45.2033Z" fill="#EDEFF1"/>
<path d="M68.2022 43.5824C68.0619 43.0729 67.8145 42.5006 67.1277 42.5006C66.5221 42.5006 66.2341 42.9289 66.2341 43.3609C66.2341 43.9221 66.6107 44.1917 67.268 44.5092C67.9548 44.8452 68.6711 45.2219 68.6711 46.0933C68.6711 46.9425 67.9474 47.6219 66.8397 47.6219C66.5037 47.6219 66.2341 47.5628 66.0273 47.4927C65.8243 47.4262 65.7098 47.3634 65.6249 47.3265C65.5695 47.1677 65.4513 46.4477 65.4033 46.0637L65.647 45.9936C65.7836 46.4994 66.1787 47.3265 67.0095 47.3265C67.6003 47.3265 67.9474 46.9647 67.9474 46.3924C67.9474 45.82 67.5117 45.5468 66.8951 45.2218C66.3338 44.9375 65.5584 44.5425 65.5584 43.6711C65.5584 42.8809 66.1972 42.2236 67.2569 42.2236C67.6409 42.2236 68.0028 42.3159 68.3092 42.4156C68.3425 42.6963 68.3794 43.0212 68.4495 43.5418" fill="#EDEFF1"/>
<path d="M71.6761 43.3134H71.6576C71.3992 43.967 71.1444 44.6464 70.9007 45.2852H72.385L71.6761 43.3134ZM72.4737 47.4969V47.268C72.9758 47.1978 73.046 47.1277 72.9389 46.8065C72.8244 46.4926 72.6804 46.0938 72.5032 45.6396H70.7641C70.6275 46.0052 70.5204 46.3117 70.417 46.6255C70.2435 47.1092 70.3099 47.2015 70.9229 47.2643V47.4932H69.1357V47.2643C69.6601 47.1831 69.7745 47.1277 70.0625 46.4224L71.7647 42.287L72.0454 42.2168C72.566 43.6199 73.0866 45.0304 73.622 46.4224C73.8805 47.1203 73.9949 47.2089 74.5229 47.2643V47.4932" fill="#EDEFF1"/>
<path d="M79.5525 47.4962V47.2672C80.2098 47.2008 80.243 47.1491 80.2319 46.3146L80.2061 43.1318H80.1728L78.1863 47.4445H78.0239L76.1961 43.2388H76.174L76.0558 45.4654C76.0226 46.1226 76.0226 46.4586 76.041 46.7725C76.0558 47.1491 76.2478 47.2008 76.7832 47.2562V47.4925H74.8779V47.2562C75.3469 47.2118 75.502 47.0974 75.5684 46.7835C75.6127 46.5066 75.6607 46.1632 75.7272 45.314L75.8453 43.7189C75.9155 42.6887 75.8675 42.6444 75.1401 42.5742V42.3379H76.5211L78.3599 46.2334L80.2245 42.3379H81.6461V42.5742C80.9372 42.6333 80.8892 42.6591 80.915 43.4456L80.9889 46.3072C81.0147 47.1417 81.0368 47.1971 81.7421 47.2599V47.4888" fill="#EDEFF1"/>
<path d="M84.6849 43.3134H84.6701C84.4117 43.967 84.1569 44.6464 83.9132 45.2852H85.3975L84.6849 43.3134ZM85.4825 47.4969V47.268C85.9846 47.1978 86.0548 47.1277 85.9477 46.8065C85.8332 46.4926 85.6892 46.0938 85.512 45.6396H83.7729C83.6362 46.0052 83.5292 46.3117 83.4258 46.6255C83.2523 47.1092 83.3187 47.2015 83.9317 47.2643V47.4932H82.1445V47.2643C82.6689 47.1831 82.7833 47.1277 83.0713 46.4224L84.7735 42.287L85.0578 42.2168C85.5785 43.6199 86.0991 45.0304 86.6345 46.4224C86.8929 47.1203 87.0074 47.2089 87.5354 47.2643V47.4932" fill="#EDEFF1"/>
<path d="M7.65049 54.1393C7.31448 52.9171 6.71262 51.5362 5.07689 51.5362C3.61839 51.5362 2.93161 52.5626 2.93161 53.6039C2.93161 54.9442 3.82886 55.5941 5.41659 56.3584C7.06709 57.1634 8.78406 58.0606 8.78406 60.1579C8.78406 62.1998 7.04124 63.8244 4.3901 63.8244C3.58516 63.8244 2.93161 63.6805 2.44052 63.5143C1.94574 63.3592 1.6725 63.2004 1.4768 63.1118C1.34757 62.7352 1.05956 61.0071 0.941406 60.0841L1.5285 59.9142C1.85343 61.1216 2.80238 63.1118 4.79258 63.1118C6.21046 63.1118 7.04125 62.2404 7.04125 60.8779C7.04125 59.5007 5.99999 58.8471 4.51934 58.068C3.16792 57.3923 1.30696 56.4434 1.30696 54.3498C1.30696 52.4519 2.84299 50.8789 5.37597 50.8789C6.29907 50.8789 7.17048 51.1005 7.89788 51.3331C7.97542 52.0088 8.06773 52.7916 8.23758 54.0359" fill="#EDEFF1"/>
<path d="M14.8029 58.9766C14.4115 59.1723 13.6324 59.5378 13.2299 59.7188C12.4766 60.0437 12.0594 60.4203 12.0594 61.1219C12.0594 62.1225 12.8126 62.5656 13.385 62.5656C13.8391 62.5656 14.4668 62.2776 14.8029 61.9416V58.9766ZM16.3241 63.7509C15.9586 63.7509 15.545 63.581 15.3346 63.3742C15.0724 63.1269 14.9579 62.8647 14.8656 62.5693C14.0865 63.0641 13.1745 63.7509 12.628 63.7509C11.1843 63.7509 10.2354 62.6062 10.2354 61.4099C10.2354 60.4609 10.756 59.8886 11.8083 59.5489C13.0416 59.1612 14.3819 58.6664 14.7992 58.3157V57.976C14.7992 56.6098 14.1751 55.8824 13.252 55.8824C12.916 55.8824 12.628 56.0116 12.4323 56.2184C12.1849 56.4658 12.0188 56.8941 11.8452 57.507C11.7271 57.843 11.5203 57.976 11.2212 57.976C10.8446 57.976 10.3387 57.5882 10.3387 57.1304C10.3387 56.8461 10.5861 56.6098 10.9628 56.3513C11.5203 55.9488 12.8348 55.2214 13.913 55.0146C14.5259 55.0146 15.0835 55.1586 15.5266 55.4947C16.2429 56.0928 16.4497 56.8867 16.4497 57.9021V61.3213C16.4497 62.1668 16.7857 62.4548 17.1401 62.4548C17.3617 62.4548 17.6201 62.3625 17.8306 62.2444L18.0263 62.7539" fill="#EDEFF1"/>
<path d="M27.9613 63.0746C27.5182 63.1263 26.9717 63.2445 26.44 63.3737C25.9083 63.5177 25.3877 63.647 24.9852 63.7504L24.856 63.647V62.2956C24.4129 62.6205 24.0362 62.9454 23.4898 63.2703C22.9174 63.5842 22.5002 63.7504 21.9537 63.7504C20.6023 63.7504 19.5094 62.9454 19.5094 60.9035V57.2739C19.5094 56.2326 19.3543 56.144 18.8595 56.0258L18.3389 55.8966V55.4425C18.7266 55.4277 19.2472 55.3649 19.7937 55.3132C20.3401 55.2468 20.9125 55.1581 21.2522 55.1064C21.2005 55.6898 21.2005 56.6019 21.2005 57.861V60.4235C21.2005 62.0112 22.0054 62.506 22.8657 62.506C23.5415 62.506 24.2319 62.2438 24.856 61.6605V57.2776C24.856 56.2363 24.6861 56.1219 24.0621 56.0185L23.3716 55.9003V55.4461C23.9181 55.4314 24.6049 55.3686 25.192 55.2911C25.7643 55.2504 26.2332 55.1618 26.5286 55.1101V61.3761C26.5286 62.3657 26.6874 62.4949 27.4406 62.5466L27.9613 62.5725" fill="#EDEFF1"/>
<path d="M35.6133 56.7272C35.1443 56.0626 34.3911 55.7377 33.6489 55.7377C32.8292 55.7377 31.2156 56.4244 31.2156 59.1826C31.2156 61.4572 32.6593 62.4984 33.8557 62.4984C34.4945 62.4984 35.1443 62.2104 35.6096 61.9003V56.7272H35.6133ZM38.7592 63.0338C38.3456 63.1114 36.8354 63.3588 35.6133 63.7502V62.528L34.4686 63.2037C33.7006 63.6468 33.1947 63.7502 32.9843 63.7502C31.3707 63.7502 29.3066 62.3729 29.3066 59.707C29.3066 57.0669 31.6735 55.0139 34.3652 55.0139C34.6385 55.0139 35.1443 55.0656 35.6133 55.2207V52.5437C35.6133 51.3068 35.484 51.2551 34.1178 51.1665V50.6717C35.1997 50.5424 36.5253 50.2581 37.2896 50.0107V61.2836C37.2896 62.3249 37.4336 62.4172 38.2127 62.4947L38.7592 62.5464" fill="#EDEFF1"/>
<path d="M40.5125 52.3708C40.5125 51.7616 41.0073 51.3037 41.5796 51.3037C42.1519 51.3037 42.595 51.7579 42.595 52.3708C42.595 52.9173 42.1519 53.401 41.5537 53.401C41.0036 53.401 40.5125 52.9173 40.5125 52.3708ZM39.4971 63.5292V63.0197C40.7045 62.9015 40.8485 62.7871 40.8485 61.4578V57.6362C40.8485 56.4398 40.782 56.3475 39.6411 56.1518V55.6976C40.6823 55.5315 41.6571 55.31 42.5285 54.9703V61.4578C42.5285 62.7723 42.6578 62.8757 43.8947 63.0197V63.5292" fill="#EDEFF1"/>
<path d="M59.4476 60.265C59.1891 61.1733 58.6537 62.6724 58.3177 63.2817C57.7454 63.4109 56.0284 63.8281 54.5847 63.8281C49.5667 63.8281 47.3291 60.5124 47.3291 57.5105C47.3291 53.5042 50.5673 50.8789 55.0794 50.8789C56.7447 50.8789 58.1478 51.3331 58.6943 51.4254C58.8531 52.5073 58.9934 53.3233 59.1115 54.4051L58.5245 54.5344C57.9927 52.4297 56.693 51.5952 54.5699 51.5952C51.2541 51.5952 49.4855 54.2722 49.4855 57.108C49.4855 60.697 51.6824 63.0897 54.7397 63.0897C56.7558 63.0897 57.8598 62.0115 58.8863 60.0471" fill="#EDEFF1"/>
<path d="M64.6131 55.7271C63.7823 55.7271 62.9478 56.4692 62.6746 58.0533C63.7011 58.0533 64.7276 58.0533 65.8057 58.0127C66.1454 57.9979 66.2599 57.8945 66.2599 57.6508C66.2599 56.6502 65.6359 55.7271 64.6205 55.7271H64.6131ZM67.9658 61.838C66.7177 63.4109 65.3257 63.7507 64.7017 63.7507C62.3201 63.7507 60.917 61.838 60.917 59.7185C60.917 58.4594 61.3712 57.3111 62.1503 56.4692C62.981 55.5609 64.0371 55.0107 65.0636 55.0107H65.0783C66.7288 55.0107 68.0433 56.4286 68.0433 57.9388C68.0433 58.3044 67.9399 58.4742 67.5892 58.5518C67.2384 58.6035 64.8199 58.7992 62.5823 58.8767C62.6229 61.3358 64.0666 62.3734 65.4033 62.3734C66.1971 62.3734 66.9393 62.0743 67.6409 61.4244" fill="#EDEFF1"/>
<path d="M75.1224 63.5294V63.0198C76.2264 62.9017 76.3594 62.7466 76.3594 61.4062V58.312C76.3594 56.9864 75.824 56.1926 74.6424 56.1926C73.915 56.1926 73.1987 56.6467 72.6153 57.1304V61.5244C72.6153 62.8241 72.7187 62.9017 73.8375 63.0198V63.5294H69.5469V63.0198C70.8355 62.8647 70.9389 62.7724 70.9389 61.4986V57.6769C70.9389 56.44 70.8097 56.3661 69.7943 56.1815V55.7015C70.7174 55.5575 71.718 55.3138 72.6153 54.9482V56.4806C73.003 56.1963 73.4202 55.8972 73.915 55.5723C74.4615 55.2215 74.9452 55.0147 75.5175 55.0147C77.0498 55.0147 78.0246 56.0929 78.0246 57.9797V61.5244C78.0246 62.8241 78.1428 62.8758 79.2616 63.0198V63.5294" fill="#EDEFF1"/>
<path d="M84.2717 63.4881C83.921 63.6838 83.6219 63.7466 83.452 63.7466C82.1671 63.7466 81.4507 63.0192 81.4507 61.4831V56.0221H80.1363L80.0439 55.8005L80.5793 55.2282H81.4507V53.8509L82.8686 52.5254L83.1271 52.5771V55.2282H85.2871C85.4828 55.435 85.4164 55.8522 85.1579 56.0221H83.1271V60.8185C83.1271 62.3546 83.7917 62.613 84.2717 62.613C84.7259 62.613 85.1579 62.4284 85.4422 62.2881L85.6121 62.8087" fill="#EDEFF1"/>
<path d="M90.4997 57.0679C91.1385 56.0266 91.9323 55.0149 92.8259 55.0149C93.5275 55.0149 93.9964 55.5208 93.9964 55.9897C93.9964 56.4328 93.7379 56.8205 93.3207 57.0162C93.0881 57.1085 92.9182 57.0679 92.8001 56.9645C92.501 56.6913 92.2794 56.5768 91.9545 56.5768C91.4597 56.5768 90.8763 57.1343 90.4591 58.1498V61.5431C90.4591 62.7911 90.5514 62.9093 92.0579 63.0274V63.537H87.4424V63.0274C88.6129 62.9093 88.7827 62.7948 88.7827 61.5431V57.6033C88.7827 56.3922 88.6793 56.3146 87.5975 56.1595V55.7312C88.5612 55.5762 89.4695 55.3546 90.4591 54.9521V57.0716" fill="#EDEFF1"/>
<path d="M99.9154 58.9766C99.524 59.1723 98.7449 59.5378 98.3424 59.7188C97.5892 60.0437 97.1719 60.4203 97.1719 61.1219C97.1719 62.1225 97.9252 62.5656 98.4975 62.5656C98.9516 62.5656 99.5794 62.2776 99.9154 61.9416V58.9766ZM101.437 63.7509C101.071 63.7509 100.658 63.581 100.447 63.3742C100.185 63.1269 100.07 62.8647 99.9781 62.5693C99.199 63.0641 98.287 63.7509 97.7442 63.7509C96.3005 63.7509 95.3516 62.6062 95.3516 61.4099C95.3516 60.4609 95.8722 59.8886 96.9245 59.5489C98.1615 59.1612 99.4981 58.6664 99.9154 58.3157V57.976C99.9154 56.6098 99.2914 55.8824 98.3683 55.8824C98.0322 55.8824 97.7442 56.0116 97.5485 56.2184C97.3012 56.4658 97.135 56.8941 96.9614 57.507C96.8433 57.843 96.6365 57.976 96.3374 57.976C95.9608 57.976 95.4549 57.5882 95.4549 57.1304C95.4549 56.8461 95.7023 56.6098 96.079 56.3513C96.6402 55.9488 97.951 55.2214 99.0329 55.0146C99.6458 55.0146 100.203 55.1586 100.646 55.4947C101.363 56.0928 101.57 56.8867 101.57 57.9021V61.3213C101.57 62.1668 101.906 62.4548 102.26 62.4548C102.482 62.4548 102.74 62.3625 102.951 62.2444L103.146 62.7539" fill="#EDEFF1"/>
<path d="M103.324 63.5292V63.0196C104.532 62.8756 104.701 62.7722 104.701 61.4983V52.5775C104.701 51.2889 104.572 51.2519 103.376 51.1338V50.6649C104.417 50.5467 105.665 50.2218 106.367 50.0039V61.4983C106.367 62.787 106.537 62.9014 107.799 63.0196V63.5292" fill="#EDEFF1"/>
<path d="M114.948 61.0843C114.948 62.5022 115.324 62.8641 116.547 62.853C118.068 62.8271 119.449 62.0481 119.449 60.0837C119.449 58.171 118.123 57.2996 115.756 57.2996H114.951V61.0843H114.948ZM115.793 56.6387C117.902 56.6387 118.784 55.819 118.784 54.246C118.784 52.8798 118.016 51.8017 116.247 51.8017C115.779 51.8017 115.339 51.905 115.169 52.0343C114.999 52.1524 114.948 52.3703 114.948 52.9574V56.6387H115.793ZM118.031 56.8824C120.021 57.1409 121.542 57.9753 121.542 59.8843C121.542 61.1582 120.841 62.1478 119.696 62.7718C118.696 63.3072 117.37 63.525 115.819 63.525H111.348V62.9785C113.013 62.8604 113.142 62.7312 113.142 61.1323V53.5777C113.142 51.953 113.05 51.8349 111.518 51.7315V51.1592H116.668C118.153 51.1592 118.995 51.3807 119.648 51.8238C120.324 52.278 120.741 53.1088 120.741 53.9949C120.741 55.8042 119.168 56.5427 118.038 56.8159" fill="#EDEFF1"/>
<path d="M127.761 58.9766C127.369 59.1723 126.59 59.5378 126.188 59.7188C125.435 60.0437 125.017 60.4203 125.017 61.1219C125.017 62.1225 125.771 62.5656 126.343 62.5656C126.797 62.5656 127.425 62.2776 127.761 61.9416V58.9766ZM129.282 63.7509C128.917 63.7509 128.503 63.581 128.293 63.3742C128.034 63.1269 127.916 62.8647 127.824 62.5693C127.045 63.0641 126.133 63.7509 125.586 63.7509C124.142 63.7509 123.193 62.6062 123.193 61.4099C123.193 60.4609 123.714 59.8886 124.766 59.5489C126.003 59.1612 127.34 58.6664 127.757 58.3157V57.976C127.757 56.6098 127.133 55.8824 126.21 55.8824C125.874 55.8824 125.586 56.0116 125.39 56.2184C125.143 56.4658 124.977 56.8941 124.803 57.507C124.685 57.843 124.478 57.976 124.179 57.976C123.803 57.976 123.297 57.5882 123.297 57.1304C123.297 56.8461 123.544 56.6098 123.921 56.3513C124.482 55.9488 125.793 55.2214 126.875 55.0146C127.488 55.0146 128.045 55.1586 128.488 55.4947C129.201 56.0928 129.411 56.8867 129.411 57.9021V61.3213C129.411 62.1668 129.747 62.4548 130.102 62.4548C130.323 62.4548 130.582 62.3625 130.789 62.2444L130.984 62.7539" fill="#EDEFF1"/>
<path d="M137.072 63.5294V63.0198C138.176 62.9017 138.306 62.7466 138.306 61.4062V58.312C138.306 56.9864 137.77 56.1926 136.589 56.1926C135.861 56.1926 135.145 56.6467 134.562 57.1304V61.5244C134.562 62.8241 134.665 62.9017 135.784 63.0198V63.5294H131.493V63.0198C132.778 62.8647 132.885 62.7724 132.885 61.4986V57.6769C132.885 56.44 132.756 56.3661 131.741 56.1815V55.7015C132.664 55.5575 133.664 55.3138 134.562 54.9482V56.4806C134.949 56.1963 135.366 55.8972 135.861 55.5723C136.408 55.2215 136.888 55.0147 137.46 55.0147C138.996 55.0147 139.971 56.0929 139.971 57.9797V61.5244C139.971 62.8241 140.089 62.8758 141.204 63.0198V63.5294" fill="#EDEFF1"/>
<path d="M149.007 63.5692C148.124 62.6055 146.913 61.0326 145.901 59.8251C145.665 59.5408 145.51 59.4374 145.34 59.4374C145.262 59.4227 145.17 59.4374 145.056 59.4633V61.531C145.056 62.7938 145.226 62.8824 146.459 63.0264V63.536H141.987V63.0264C143.272 62.8824 143.405 62.7532 143.405 61.531V52.5843C143.405 51.3474 143.287 51.244 142.12 51.1259V50.6717C143.029 50.5794 144.203 50.2692 145.059 50.0107V58.9685C145.632 58.8503 145.942 58.5919 146.256 58.3075C146.673 57.9051 147.256 57.1371 147.581 56.6423C147.969 56.07 147.891 55.9149 147.009 55.8115V55.2909L151.067 55.121V55.6158C149.752 55.8263 149.261 56.033 148.519 56.7198C148.01 57.1998 147.688 57.5654 146.894 58.4774C147.297 59.0608 149.298 61.339 149.911 61.9889C150.576 62.6794 151.122 62.9895 151.824 63.0301V63.5397" fill="#EDEFF1"/>
<path d="M190.933 51.2885H190.247C190.269 50.4061 190.933 50.4467 190.933 50.4467V51.2885ZM192.296 46.4736C191.664 46.9536 191.033 47.4337 190.343 47.8214C190.505 48.006 190.679 48.1943 190.848 48.3789C190.848 48.5894 190.848 48.8072 190.856 49.0214C190.298 49.2282 189.63 49.3648 189.305 49.9149C188.858 50.6682 189.017 51.5765 188.973 52.4073C190.084 52.411 191.192 52.4147 192.303 52.4073C192.288 50.4282 192.263 48.4491 192.296 46.4736Z" fill="#EDEFF1"/>
<path d="M208.228 51.4286C207.885 51.4286 207.608 51.1516 207.608 50.8082C207.608 50.4648 207.885 50.1879 208.228 50.1879C208.572 50.1879 208.849 50.4648 208.849 50.8082C208.849 51.1516 208.572 51.4286 208.228 51.4286ZM210.071 50.3393C209.724 49.6858 209.192 48.9473 208.369 48.962C207.741 48.9103 207.228 49.3645 206.858 49.8187C206.382 50.5904 206.275 51.5283 206.393 52.4107C207.032 52.5621 207.737 52.3886 208.405 52.4883C208.169 53.5591 206.943 53.7142 206.031 53.596C206.046 53.692 206.072 53.884 206.083 53.98C206.581 54.1831 207.095 54.364 207.634 54.4379C209.572 54.4416 210.99 52.0415 210.071 50.3393Z" fill="#EDEFF1"/>
<path d="M201.317 47.6328H199.921L203.034 51.0298H200.257V51.0003C200.261 50.8747 200.246 50.7529 200.224 50.6347C200.228 50.668 200.231 50.7012 200.231 50.7344L200.213 50.6015C200.217 50.6126 200.22 50.6237 200.224 50.6347C200.217 50.5867 200.217 50.5424 200.209 50.4981C200.095 49.6932 199.415 49.0765 198.584 49.0618C198.577 49.0581 198.566 49.0581 198.555 49.0581H195.069C194.885 48.8882 194.696 48.7147 194.512 48.5522C194.124 49.2427 193.644 49.8778 193.164 50.5055C193.474 50.5018 193.88 50.4981 194.338 50.4944C194.578 50.4944 194.826 50.4907 195.095 50.4907H198.599V51.0298H193.164V52.4034H194.172C197.2 52.4218 201.169 52.4034 204.3 52.4034L204.725 52.8723H206.11L201.911 47.9024C201.76 47.7325 201.542 47.6328 201.317 47.6328Z" fill="#EDEFF1"/>
<path d="M208.395 32.6717H207.321V31.9665L207.616 31.5972H208.1L208.395 31.9665V32.6717ZM209.758 31.5825C209.662 31.2908 209.422 31.0877 209.274 30.8292C209.433 30.46 209.846 30.1941 209.798 29.7473C209.798 29.5184 209.795 29.2932 209.791 29.0642C209.799 28.2593 209.784 27.4544 209.791 26.6494C209.791 26.4279 209.791 26.2063 209.798 25.9885C209.858 25.9553 209.946 25.9146 210.035 25.8666C210.09 25.8371 210.146 25.8112 210.201 25.7817C210.216 25.7743 210.227 25.7669 210.238 25.7632C210.278 25.7448 210.315 25.7226 210.345 25.7116C210.153 25.5639 209.968 25.4014 209.798 25.2352C209.647 25.0912 209.499 24.9361 209.355 24.7811C209.252 24.6703 209.152 24.5595 209.049 24.4487C208.975 24.3638 208.898 24.2826 208.82 24.2014C208.672 24.0426 208.521 23.8838 208.366 23.7324C208.358 24.3454 208.355 24.9583 208.351 25.5749C208.351 25.9331 208.355 26.2913 208.355 26.6494C208.355 27.1294 208.358 27.6094 208.355 28.0895C208.344 28.4181 208.37 28.7873 208.355 29.1455C208.344 29.4298 208.31 29.7067 208.211 29.9541C208.166 29.9578 208.111 29.9578 208.052 29.9541H208.045C207.986 29.9541 207.919 29.9504 207.86 29.9504V29.9541C207.686 29.9541 207.542 29.9541 207.509 29.9541C207.409 29.703 207.376 29.4261 207.365 29.1455C207.35 28.7873 207.376 28.4218 207.365 28.0895C207.365 27.6094 207.365 27.1294 207.365 26.6494C207.365 26.2913 207.365 25.9294 207.369 25.5749C207.365 24.962 207.358 24.3454 207.354 23.7324C207.195 23.8838 207.048 24.0426 206.9 24.2014C206.822 24.2826 206.749 24.3638 206.671 24.4487C206.568 24.5595 206.468 24.6703 206.365 24.7811C206.221 24.9361 206.073 25.0875 205.921 25.2352C205.748 25.4014 205.567 25.5639 205.375 25.7116C205.405 25.7263 205.441 25.7448 205.482 25.7632C205.493 25.7706 205.508 25.778 205.519 25.7817C205.574 25.8076 205.63 25.8371 205.685 25.8666C205.774 25.9109 205.862 25.9553 205.921 25.9885C205.929 26.2063 205.929 26.4279 205.929 26.6494C205.936 27.4544 205.918 28.2593 205.929 29.0642C205.929 29.2895 205.925 29.5184 205.921 29.7473C205.873 30.1941 206.283 30.46 206.446 30.8292C206.294 31.0877 206.058 31.2945 205.962 31.5825C205.896 32.3763 205.966 33.1702 205.921 33.9641H209.798C209.754 33.1702 209.821 32.3726 209.758 31.5825Z" fill="#EDEFF1"/>
<path d="M203.554 26.8081C203.488 26.3059 203.961 26.0253 204.234 25.6856C203.724 25.4161 203.204 25.1096 202.901 24.6037C202.698 24.253 202.432 23.9465 202.103 23.7139C202.118 27.1293 202.074 30.5485 202.125 33.964H203.566C203.566 31.5787 203.547 29.1934 203.554 26.8081Z" fill="#EDEFF1"/>
<path d="M190.269 32.5759C190.273 32.5685 190.276 32.5612 190.276 32.5538C190.354 31.7968 190.952 31.8337 190.952 31.8337V32.6756H190.265C190.265 32.6424 190.269 32.6092 190.273 32.5759H190.269ZM200.781 33.9643C200.833 31.5568 200.752 28.8429 200.766 26.4687C200.7 26.0182 201.077 25.7524 201.353 25.4754C200.504 25.0582 200.098 24.1573 199.348 23.6182C199.363 26.5795 199.367 29.5408 199.341 32.5021C196.985 32.4873 194.633 32.4984 192.281 32.5353C192.314 30.9882 192.263 29.4411 192.3 27.894C191.676 28.3998 190.989 28.806 190.31 29.2269C190.498 29.4115 190.69 29.5925 190.889 29.7734C190.878 30.0134 190.863 30.2571 190.841 30.4971C190.328 30.7334 189.708 30.8626 189.361 31.35C188.881 32.0036 188.991 33.1187 188.995 33.9643" fill="#EDEFF1"/>
<path d="M205.762 44.1104H204.688V43.4052L204.983 43.0359H205.467L205.762 43.4052V44.1104ZM207.125 43.0211C207.029 42.7331 206.789 42.5264 206.641 42.2679C206.8 41.8987 207.213 41.6328 207.162 41.186C207.162 40.9571 207.158 40.7319 207.154 40.5029C207.165 39.698 207.147 38.893 207.154 38.0881C207.154 37.8666 207.158 37.645 207.162 37.4272C207.221 37.3976 207.309 37.3533 207.398 37.309C207.457 37.2795 207.512 37.2499 207.564 37.2241C207.579 37.2167 207.59 37.2093 207.605 37.2056C207.645 37.1872 207.682 37.165 207.712 37.1539C207.516 37.0062 207.335 36.8438 207.162 36.6776C207.01 36.5336 206.862 36.3785 206.718 36.2234C206.615 36.1127 206.512 36.0019 206.412 35.8911C206.334 35.8099 206.261 35.725 206.183 35.6437C206.035 35.485 205.884 35.3262 205.729 35.1748C205.722 35.7877 205.718 36.4007 205.714 37.0136C205.714 37.3718 205.718 37.7336 205.718 38.0881C205.718 38.5681 205.718 39.0518 205.718 39.5318C205.707 39.8605 205.733 40.2297 205.718 40.5842C205.707 40.8685 205.674 41.1454 205.574 41.3965C205.53 41.3965 205.474 41.3965 205.419 41.3965H205.411C205.352 41.3965 205.286 41.3928 205.227 41.3928V41.3965C205.053 41.3965 204.909 41.3965 204.876 41.3965C204.776 41.1454 204.743 40.8685 204.732 40.5842C204.717 40.2297 204.743 39.8605 204.732 39.5318C204.732 39.0518 204.732 38.5681 204.732 38.0881C204.732 37.7299 204.732 37.3718 204.736 37.0136C204.728 36.4007 204.725 35.7877 204.721 35.1748C204.562 35.3262 204.414 35.485 204.263 35.6437C204.185 35.725 204.112 35.8099 204.034 35.8911C203.934 36.0019 203.831 36.1127 203.728 36.2234C203.584 36.3785 203.436 36.5299 203.285 36.6776C203.111 36.8438 202.93 37.0062 202.734 37.1539C202.764 37.1687 202.801 37.1872 202.841 37.2056C202.856 37.213 202.867 37.2204 202.882 37.2241C202.934 37.2499 202.993 37.2795 203.048 37.309C203.141 37.3533 203.225 37.3976 203.288 37.4272C203.296 37.6487 203.296 37.8702 203.296 38.0881C203.303 38.893 203.285 39.698 203.296 40.5029C203.296 40.7319 203.292 40.9571 203.292 41.186C203.24 41.6328 203.654 41.8987 203.813 42.2679C203.665 42.5264 203.425 42.7331 203.329 43.0211C203.266 43.815 203.333 44.6126 203.288 45.4064H207.169C207.121 44.6126 207.187 43.815 207.125 43.0211Z" fill="#EDEFF1"/>
<path d="M200.889 38.2059C200.841 37.7923 201.21 37.5634 201.479 37.3345C201.513 37.2754 201.575 37.1573 201.609 37.0982C200.586 36.8249 200.29 35.6988 199.438 35.2188C199.456 38.6158 199.556 42.0091 199.482 45.4061H200.918C200.94 43.006 200.944 40.606 200.889 38.2059Z" fill="#EDEFF1"/>
<path d="M209.643 38.2476C209.576 37.7454 210.049 37.4648 210.322 37.1251C209.812 36.8555 209.292 36.549 208.989 36.0432C208.786 35.6924 208.524 35.3859 208.191 35.1533C208.206 38.5688 208.162 41.988 208.217 45.4034H209.657C209.657 43.0181 209.635 40.6328 209.643 38.2476Z" fill="#EDEFF1"/>
<path d="M190.971 44.2101H190.284C190.306 43.3276 190.971 43.3719 190.971 43.3719V44.2101ZM197.547 36.0462C197.336 35.677 197.089 35.3336 196.772 35.0566C196.738 35.3816 196.72 35.7102 196.731 36.0388C196.797 38.7084 196.69 41.3743 196.749 44.0439C196.136 44.0439 195.52 44.0624 194.911 44.0587C194.929 42.0574 194.892 40.0561 194.911 38.0512C194.844 37.6155 195.247 37.357 195.49 37.0579C194.674 36.5779 194.165 35.773 193.474 35.1453C193.533 38.1139 193.519 41.0863 193.474 44.0513C193.087 44.055 192.703 44.0624 192.319 44.0661C192.333 42.5079 192.333 40.9534 192.311 39.3952C191.687 39.8826 191.059 40.3589 190.369 40.7466C190.812 41.0494 190.96 41.5146 190.908 42.0353C190.35 42.2384 189.704 42.3897 189.357 42.9177C188.881 43.6562 189.032 44.5683 189.017 45.399H198.001C198.045 45.399 198.093 45.399 198.138 45.399C198.093 43.5085 198.027 41.6143 198.116 39.7164C198.149 39.0555 197.979 38.3835 198.167 37.7336C198.308 37.4493 198.57 37.2573 198.784 37.0284C198.341 36.7514 197.809 36.5262 197.547 36.0462Z" fill="#EDEFF1"/>
<path d="M169.393 25.2942C170.785 22.0818 172.623 19.0392 174.972 16.4287C175.393 16.5875 175.677 16.9604 175.995 17.2595C175.507 17.9611 174.809 18.4928 174.418 19.2645C173.528 20.3242 172.911 21.5722 172.158 22.7279C171.789 23.4221 171.449 24.1347 171.117 24.8511C171.553 25.0689 172.291 25.3828 172.568 24.7809C173.495 22.8092 174.669 20.963 176.043 19.2755C176.312 18.8878 176.563 18.4595 176.984 18.2084C177.15 18.9617 177.427 19.6891 177.808 20.3648C177.405 20.4202 176.899 20.2245 176.578 20.542C175.26 22.1298 174.348 23.9834 173.362 25.7852C173.137 26.3169 172.516 26.52 171.981 26.3982C171.01 26.3206 170.275 25.6265 169.393 25.2942Z" fill="#EDEFF1"/>
<path d="M187.68 7.51497C188.33 7.20481 189.024 7.00172 189.7 6.76172C190.368 7.88052 189.681 9.08054 189.253 10.1366C190.302 11.056 191.823 11.5471 192.329 12.9723C192.838 14.2499 191.701 15.2985 191.387 16.4616C189.74 15.1435 187.949 14.0284 186.247 12.784C185.871 12.4554 185.468 13.0093 185.084 13.0831C184.748 12.8837 184.475 12.5994 184.216 12.3188C184.165 12.3446 184.061 12.3963 184.01 12.4259C184.733 11.9902 185.391 11.4252 186.196 11.1298C186.975 11.3957 187.425 12.1711 188.153 12.5403C189.109 13.0757 189.899 14.1391 191.092 14.1059C191.003 13.6185 190.896 13.1016 190.542 12.7286C189.618 11.8831 188.525 11.2591 187.455 10.6277C187.676 9.99257 188.189 9.47562 188.219 8.76299C186.853 9.4387 185.391 9.94456 184.135 10.8197C182.991 11.4068 182.012 12.2412 180.927 12.9243C180.502 13.2234 180.17 13.6333 179.749 13.936C178.892 14.5231 178.264 15.3761 177.422 15.9743C177.267 15.5459 176.747 15.0844 176.935 14.6302C179.15 12.5071 181.591 10.5797 184.312 9.13962C185.35 8.44545 186.565 8.0836 187.68 7.51497Z" fill="#EDEFF1"/>
<path d="M185.897 59.3049C186.292 58.8545 186.385 58.0975 186.964 57.8428C187.234 58.7696 187.352 59.737 187.655 60.6564C187.293 60.7893 186.872 60.8225 186.566 61.0662C185.432 62.8903 184.273 64.6995 183.161 66.5347C182.762 66.6528 182.371 66.2983 182.017 66.1359C181.677 65.9882 181.939 65.6153 182.072 65.4159C182.718 64.5186 183.268 63.5623 183.804 62.6023C184.557 61.5352 185.081 60.3277 185.897 59.3049Z" fill="#EDEFF1"/>
<path d="M169.762 29.2337C170.268 29.2337 170.678 29.6435 170.678 30.1494C170.678 30.6553 170.268 31.0651 169.762 31.0651C169.256 31.0651 168.846 30.6553 168.846 30.1494C168.846 29.6435 169.256 29.2337 169.762 29.2337ZM184.295 55.5494C184.236 55.5605 184.118 55.5826 184.055 55.59C182.645 57.9236 181.068 60.1575 179.672 62.5022C179.344 62.5613 179.126 62.2917 178.908 62.1034C177.97 61.2062 176.973 60.368 176.15 59.3637C177.077 58.6436 177.904 57.8129 178.908 57.1962C178.421 56.8381 177.87 56.5759 177.379 56.2251C176.992 57.1851 175.987 57.6356 175.271 58.3113C174.507 57.3624 173.694 56.4245 173.155 55.3315C174.152 54.8331 175.009 54.1094 176.024 53.6441C176.024 53.5887 176.017 53.478 176.017 53.4226C175.622 53.046 175.197 52.7026 174.809 52.326C174.244 53.2158 173.251 53.6441 172.343 54.0946C171.73 53.2158 171.446 52.1561 170.829 51.2847C170.877 51.2256 170.973 51.1185 171.025 51.0594C172.099 50.6828 173.115 50.1659 174.156 49.6933C173.672 49.3203 173.262 48.8736 172.926 48.3677C172.321 49.2354 171.224 49.4791 170.305 49.8668C169.293 47.4483 168.702 44.8747 168.396 42.2715C169.614 42.4894 170.604 43.2611 171.73 43.7116C171.663 43.143 171.641 42.5743 171.538 42.0131C170.825 41.6734 170.024 41.4814 169.278 41.2118C169.954 40.7798 170.722 40.5324 171.453 40.2186C171.435 39.5982 171.405 38.9779 171.339 38.3576C170.751 38.6419 170.345 39.1736 169.784 39.4949C169.256 39.8013 168.728 40.1004 168.2 40.3995C168.049 39.3176 168.082 38.2247 168.104 37.1354C168.089 35.4923 168.521 33.8972 168.676 32.2725C169.548 32.2873 170.5 32.291 171.206 31.6928C171.697 31.2497 172.273 30.9137 172.768 30.4706C172.505 30.4374 172.247 30.4116 171.988 30.3894C171.675 29.71 171.435 28.9014 170.74 28.5063C170.301 28.2146 169.71 28.0263 169.186 28.1186C168.942 28.1629 168.71 28.2589 168.518 28.4472C167.949 28.8312 167.846 29.5549 167.69 30.1679C167.661 30.1531 167.628 30.1383 167.598 30.1236C167.196 29.9389 166.76 29.7543 166.561 29.3297C166.151 28.6097 166.442 27.7678 166.431 26.9961C165.674 27.7604 165.069 28.9235 165.538 29.998C165.789 30.8288 166.553 31.283 167.218 31.7593C166.782 33.8898 166.553 36.0905 166.553 38.3502C166.553 49.1837 171.819 58.784 179.927 64.7361L180.086 64.485C180.112 64.4518 180.138 64.4148 180.16 64.3742C180.252 64.2265 180.344 64.0789 180.437 63.9312C181.563 62.1293 182.733 60.3569 183.863 58.5587C184.081 58.2264 184.528 58.2264 184.864 58.075C184.698 57.2294 184.495 56.3913 184.295 55.5494Z" fill="#EDEFF1"/>
<path d="M228.792 49.8971C228.363 50.4768 228.925 51.0861 229.412 51.3851C229.755 51.2781 230.191 51.3261 230.453 51.0344C230.797 50.7722 230.741 50.2774 230.653 49.9082C230.317 49.1586 229.139 49.1549 228.792 49.8971ZM222.179 44.0964C222.762 43.4945 223.368 42.9148 223.966 42.3203C224.438 42.5234 224.826 42.9628 225.391 42.9148C227.706 42.9111 230.007 43.2176 232.325 43.2065C232.137 45.0305 231.679 46.8103 231.07 48.5346C231.461 48.9519 231.978 49.3728 231.978 50.0005C232.096 50.787 231.805 51.603 231.192 52.1089C230.723 52.5667 230.032 52.5667 229.431 52.696C229.032 53.6966 228.397 54.5828 227.891 55.5317C228.544 56.1188 229.46 56.6062 229.6 57.5588C229.659 58.3158 229.331 59.3016 228.515 59.5121C228.485 59.0395 228.507 58.5632 228.5 58.0869C227.769 57.3299 226.831 56.813 225.886 56.3736C225.443 56.1373 224.941 56.1446 224.461 56.1446C224.486 55.3656 224.468 54.5902 224.354 53.8184C225.085 54.184 225.746 54.6935 226.528 54.9631C227.2 54.1471 227.658 53.1464 228.16 52.2086C227.411 51.3409 227.049 49.9377 227.861 48.9925C228.271 48.2725 229.113 48.0841 229.859 47.9254C230.224 46.8472 230.516 45.7469 230.745 44.6281C229.342 44.3844 227.924 44.3105 226.506 44.2256C225.066 44.0594 223.619 44.0631 222.179 44.0964Z" fill="#EDEFF1"/>
<path d="M189.261 62.1149C189.811 60.9813 191.222 61.0219 192.174 60.4053C192.337 61.2102 192.444 62.0263 192.721 62.8017C193.16 64.1088 193.341 65.4823 193.769 66.7894C194.061 66.8891 194.534 66.7193 194.726 67.0442C194.873 67.4245 194.903 67.8418 194.988 68.2406C194.153 68.1482 193.341 67.9378 192.514 67.8085C192.115 65.9956 191.927 64.1051 191.129 62.4103C191.022 62.4176 190.816 62.4361 190.712 62.4435C190.144 63.47 190.516 64.622 190.804 65.6669C190.971 66.2651 191.129 66.8707 191.332 67.4615C190.779 67.5796 190.243 67.7642 189.726 68.0005C189.726 68.0744 189.726 68.2295 189.726 68.3033C191.691 69.0603 193.784 69.3704 195.856 69.6732C198.06 69.8541 200.287 70.0092 202.495 69.7508C202.395 70.2271 202.258 70.696 202.114 71.1612C199.622 71.3311 197.107 71.2683 194.645 70.8658C192.045 70.6 189.593 69.6806 187.142 68.8424C187.352 67.5722 188.637 67.0811 189.593 66.4608C189.357 65.0466 188.63 63.5364 189.261 62.1149Z" fill="#EDEFF1"/>
<path d="M222.596 41.2266C223.401 40.5841 224.006 39.7201 224.885 39.1699C225.247 39.3767 225.502 39.8013 225.937 39.8567C228.164 39.9527 230.405 39.9047 232.624 40.1299C232.606 40.5767 232.584 41.0198 232.558 41.4629C229.235 41.4186 225.911 41.2894 222.596 41.2266Z" fill="#EDEFF1"/>
<path d="M221.979 57.4552C222.625 57.0601 223.456 57.2225 224.021 57.6915C224.542 58.0644 225.066 58.4743 225.38 59.0503C224.372 60.4608 223.061 61.6202 221.842 62.8461C219.753 64.6997 217.441 66.2874 214.982 67.6056C213.535 68.2443 212.139 69.0124 210.607 69.4407C209.226 69.821 207.896 70.4007 206.464 70.5706C206.523 71.3423 206.796 72.2211 206.312 72.9115C205.884 73.3362 205.238 73.4322 204.665 73.3325C204.872 73.1035 205.109 72.882 205.238 72.594C205.385 71.741 205.075 70.9029 204.92 70.0758C204.776 69.4407 204.366 68.9201 203.931 68.4585C204.569 68.045 205.061 67.4653 205.563 66.904C205.781 67.6942 206.021 68.4807 206.176 69.2893C208.081 68.9238 209.886 68.2148 211.718 67.5945C215.713 65.8886 219.428 63.4775 222.441 60.3279C222.832 59.8663 223.268 59.438 223.748 59.0614C223.412 58.7844 223.002 58.3561 222.522 58.5814C222.116 58.8361 221.802 59.2128 221.447 59.5266C219.42 61.6534 217.02 63.4036 214.476 64.8621C213.686 65.2424 212.903 65.6338 212.124 66.0289C211.149 66.5089 210.071 66.712 209.096 67.1846C208.842 67.2917 208.568 67.3176 208.306 67.373C208.993 66.4794 209.395 65.4197 210.001 64.4744C210.429 63.7544 210.717 62.9495 211.175 62.2442C211.168 63.3593 210.621 64.36 210.315 65.4049C213.852 64.0793 217.076 61.9636 219.808 59.3678C220.594 58.7918 221.041 57.8244 221.979 57.4552Z" fill="#EDEFF1"/>
<path d="M204.766 64.7034C204.766 64.2566 204.404 63.8984 203.961 63.8984C203.514 63.8984 203.152 64.2603 203.152 64.7034C203.152 65.1465 203.514 65.5083 203.961 65.5083C204.404 65.5083 204.766 65.1502 204.766 64.7034Z" fill="#EDEFF1"/>
<path d="M209.562 6.78027C210.042 6.90951 210.518 7.07197 210.994 7.21967C210.488 9.13602 209.761 10.9748 209.259 12.8875C208.974 14.1318 208.362 15.2654 208.096 16.5134C207.612 15.6346 207.154 14.7411 206.696 13.8512C207.036 13.5706 207.475 13.3675 207.645 12.9318C207.963 12.2044 208.088 11.4069 208.358 10.6647C208.86 9.40188 209.222 8.09107 209.562 6.78027Z" fill="#EDEFF1"/>
<path d="M212.549 7.90332C213.498 8.22825 214.421 8.6418 215.281 9.16243C219.985 11.629 224.014 15.3177 227.004 19.6931C227.78 20.6273 228.227 21.772 228.906 22.7726C229.792 24.6373 230.712 26.4982 231.24 28.5069C232.189 31.3131 232.602 34.2818 232.658 37.2394C232.008 37.2542 231.361 37.2874 230.715 37.2948C230.955 36.848 231.192 36.3754 231.155 35.8511C231.166 33.8018 230.719 31.7747 230.239 29.7919C229.833 28.7469 229.552 27.6613 229.146 26.6164C228.083 23.9062 226.602 21.3843 224.878 19.047C224.819 19.0211 224.711 18.9768 224.656 18.9547C224.457 19.2353 224.243 19.5048 224.095 19.815C224.087 20.2692 224.438 20.6052 224.686 20.9486C226.247 23.26 227.603 25.7413 228.448 28.4109C229.379 30.7113 229.648 33.1925 229.969 35.6295C229.146 35.0794 228.518 34.3003 227.739 33.6984C227.145 33.2442 226.587 32.7495 225.971 32.3322C225.812 32.1808 225.657 32.0184 225.52 31.8522C226.595 32.1808 227.569 32.7753 228.474 33.4362C228.012 31.531 227.721 29.5592 226.864 27.7758C226.395 26.3358 225.642 25.0213 224.94 23.6883C224.361 22.6175 223.53 21.6981 223.02 20.5904C222.592 19.6156 223.194 18.5633 224.01 18.0131C223.445 17.1823 222.714 16.4955 221.986 15.8124C221.425 16.7023 220.148 17.234 220.299 18.4562C219.653 18.1903 218.988 17.9873 218.309 17.8543C219.169 16.8094 220.114 15.8383 220.975 14.7896C219.911 13.9588 218.944 13.0062 217.777 12.3194C217.135 13.1834 216.226 14.0327 216.341 15.2106C215.761 14.9041 215.119 14.7823 214.48 14.6715C215.111 13.5564 215.953 12.5816 216.64 11.5034C215.562 10.9459 214.591 10.1889 213.442 9.78275C213.114 11.3077 212.512 12.7514 212.139 14.2653C211.869 15.517 211.386 16.7097 211.098 17.954C211.027 17.9503 210.887 17.9466 210.817 17.9466C210.559 17.1195 209.886 16.5029 209.646 15.6721C209.883 15.6057 210.115 15.5318 210.348 15.4432C210.795 14.7047 210.806 13.8149 211.087 13.0173C211.674 11.3446 212.091 9.61659 212.549 7.90332Z" fill="#EDEFF1"/>
<path d="M220.036 9.33619C220.036 8.8931 219.675 8.53125 219.228 8.53125C218.781 8.53125 218.423 8.8931 218.423 9.33619C218.423 9.78297 218.785 10.1448 219.228 10.1448C219.671 10.1448 220.036 9.77928 220.036 9.33619Z" fill="#EDEFF1"/>
<path d="M218.693 20.0256C218.693 19.5789 218.331 19.2207 217.888 19.2207C217.441 19.2207 217.079 19.5826 217.079 20.0256C217.079 20.4687 217.441 20.8306 217.888 20.8306C218.331 20.8343 218.693 20.4724 218.693 20.0256Z" fill="#EDEFF1"/>
<mask id="mask0_9_122264" style="mask-type:luminance" maskUnits="userSpaceOnUse" x="160" y="0" width="79" height="78">
<path d="M238.53 0.137695H160.454V77.8627H238.53V0.137695Z" fill="white"/>
</mask>
<g mask="url(#mask0_9_122264)">
<path d="M199.663 76.7549C178.846 76.7549 161.909 59.8179 161.909 39.0002C161.909 19.8145 176.294 3.9224 194.848 1.55188C195.059 3.16546 196.059 4.53164 197.452 5.24428C195.882 6.04922 194.804 7.68126 194.804 9.56439C194.804 11.4475 195.879 13.0796 197.452 13.8845C195.882 14.6894 194.804 16.3215 194.804 18.2046C194.804 18.2194 194.804 18.2304 194.804 18.2415C185.374 20.4385 178.343 28.8978 178.343 38.9965C178.343 50.7678 187.888 60.3127 199.66 60.3127C211.431 60.3127 220.976 50.7678 220.976 38.9965C220.976 28.8941 213.945 20.4385 204.511 18.2415C204.511 18.2267 204.511 18.2157 204.511 18.2046C204.511 16.3178 203.437 14.6894 201.868 13.8845C203.437 13.0796 204.511 11.4512 204.511 9.56439C204.511 7.67757 203.437 6.04922 201.868 5.24428C203.26 4.53164 204.26 3.16546 204.471 1.55188C223.021 3.9224 237.411 19.8145 237.411 39.0002C237.418 59.8179 220.481 76.7549 199.663 76.7549ZM195.897 9.56808C195.897 7.48926 197.588 5.79814 199.667 5.79814C201.742 5.79814 203.433 7.48926 203.433 9.56808C203.433 11.6432 201.742 13.3343 199.667 13.3343C197.588 13.3343 195.897 11.6432 195.897 9.56808ZM199.663 17.684C198.378 17.684 197.123 17.8021 195.904 18.02C196.004 16.0298 197.647 14.4384 199.663 14.4384C201.676 14.4384 203.322 16.0298 203.422 18.02C202.204 17.8021 200.948 17.684 199.663 17.684ZM196.015 19.1277C197.2 18.9098 198.419 18.7917 199.667 18.7917C200.915 18.7917 202.13 18.9098 203.315 19.1277C203.673 19.1942 204.028 19.268 204.382 19.3529C213.259 21.4834 219.875 29.4812 219.875 39.0039C219.875 50.1475 210.811 59.2124 199.667 59.2124C188.523 59.2124 179.458 50.1475 179.458 39.0039C179.458 29.4812 186.075 21.4834 194.952 19.3529C195.299 19.268 195.657 19.1942 196.015 19.1277ZM199.663 1.24541C200.922 1.24541 202.167 1.30819 203.393 1.43003C203.142 3.26885 201.565 4.69042 199.663 4.69042C197.758 4.69042 196.181 3.26516 195.934 1.43003C197.164 1.31188 198.404 1.24541 199.663 1.24541ZM204.497 0.436779C204.127 0.39247 203.751 0.351858 203.378 0.314934C202.156 0.20047 200.915 0.137695 199.663 0.137695C198.412 0.137695 197.171 0.20047 195.949 0.314934C195.576 0.348166 195.203 0.388777 194.83 0.436779C175.648 2.81837 160.801 19.1757 160.801 39.0002C160.801 60.4604 178.199 77.8627 199.663 77.8627C221.123 77.8627 238.526 60.4641 238.526 39.0002C238.526 19.1757 223.679 2.81837 204.497 0.436779Z" fill="#EDEFF1"/>
</g>
</svg>
