<svg width="89" height="80" viewBox="0 0 89 80" fill="none" xmlns="http://www.w3.org/2000/svg">
<path d="M57.9297 12.3926H62.7309L71.7456 57.335H66.9443L57.9297 12.3926Z" fill="#EDEFF1"/>
<path d="M62.9423 53.4319L59.3495 35.566H54.5646L58.1573 53.4319H44.6028L43.5576 43.3068H38.7727L39.8178 53.4319H24.0913L32.322 12.3926H27.5371L18.5225 57.335H63.7588L62.9423 53.4319Z" fill="#EDEFF1"/>
<path d="M33.9395 19.2676L36.2094 22.9583L38.4794 19.2676H33.9395Z" fill="#EDEFF1"/>
<path d="M33.3672 12.3926L35.9311 17.0469L38.4951 12.3926H33.3672Z" fill="#EDEFF1"/>
<path d="M39.6064 12.3926L42.1704 17.0469L44.7343 12.3926H39.6064Z" fill="#EDEFF1"/>
<path d="M45.8447 12.3926L48.4087 17.0469L50.9726 12.3926H45.8447Z" fill="#EDEFF1"/>
<path d="M52.083 12.3926L54.6469 17.0469L57.2109 12.3926H52.083Z" fill="#EDEFF1"/>
<path d="M60.0518 10.1715L57.4878 5.51719H62.6157L60.0518 10.1715ZM53.7644 10.7267L56.3284 6.07244L58.8923 10.7267H53.7644ZM50.041 5.50086H55.1525L52.5886 10.1551L50.041 5.50086ZM46.3176 10.7267L48.8815 6.07244L51.4454 10.7267H46.3176ZM42.5941 5.50086H47.722L45.1581 10.1715L42.5941 5.50086ZM38.8707 10.7267L41.4347 6.07244L43.9986 10.7267H38.8707ZM35.1473 5.50086H40.2588L37.6949 10.1551L35.1473 5.50086ZM31.4239 10.7267L33.9878 6.07244L36.5517 10.7267H31.4239ZM27.7004 5.50086H32.8283L30.2644 10.1551L27.7004 5.50086ZM59.7742 0.78125V4.39036H55.4302V0.78125H51.4944V4.39036H47.1504V0.78125H43.2147V4.39036H38.8707V0.78125H34.935V4.39036H30.591V0.78125H26.6553V4.39036L27.7004 11.6249H62.8117L63.7099 4.39036V0.78125H59.7742Z" fill="#EDEFF1"/>
<path d="M38.5938 19.2676L40.8637 22.9583L43.1337 19.2676H38.5938Z" fill="#EDEFF1"/>
<path d="M57.4554 18.9906C57.3248 18.8926 57.1941 18.8109 57.0635 18.7293C56.9818 18.7783 56.8838 18.8436 56.7859 18.9252C56.6226 19.0559 56.4102 19.2029 56.2143 19.3825C55.5774 19.9541 54.8588 20.8196 54.6465 21.9138C54.6465 21.9138 54.6629 21.4892 54.6302 20.9176C54.6465 20.8196 54.6465 20.7053 54.6465 20.6073C54.6465 19.9867 54.4506 19.4152 54.1403 18.9252C54.1076 18.8762 54.0749 18.8109 54.0259 18.7619C54.0096 18.7456 54.0096 18.7293 53.9933 18.7129C53.438 17.9944 52.5562 17.5371 51.5763 17.5371C49.9922 17.5371 48.6858 18.7456 48.5225 20.297C49.0777 19.5621 49.9596 19.0885 50.9558 19.0885C52.4419 19.0885 53.683 20.15 53.9606 21.5545L54.0259 22.1751L54.0423 22.42L54.1729 23.7592H54.5159C54.5159 23.7592 55.2018 20.9992 56.1326 19.9867C56.6226 20.346 57.1451 20.8686 57.4881 21.3095L58.5659 20.1664C58.3046 19.7744 57.88 19.3172 57.4554 18.9906Z" fill="#EDEFF1"/>
<path d="M29.1048 40.008C29.3334 39.8447 29.5457 39.6977 29.7743 39.5834C29.905 39.6651 30.0683 39.7794 30.2479 39.91C30.5419 40.1223 30.8685 40.3836 31.2114 40.6939C32.2893 41.6574 33.5141 43.1109 33.8897 44.9563C33.8897 44.9563 33.5631 38.6526 38.9196 37.934C41.5978 37.5747 43.5739 39.4528 43.9332 41.5921C42.986 40.351 41.4345 40.1223 39.7525 40.1223C37.8091 40.1223 35.4738 42.425 35.0002 44.7766C34.8206 45.5768 34.7879 47.2262 34.9022 48.4347H34.3143C34.3143 48.4347 32.9262 43.4048 31.3258 41.7064C30.4929 42.327 29.5947 43.1925 29.0068 43.9437L27.1777 42.0167C27.635 41.3145 28.3536 40.5633 29.1048 40.008Z" fill="#EDEFF1"/>
<path d="M50.0904 37.6396C49.927 38.0153 49.7801 38.3745 49.6657 38.7501C49.5351 39.1094 49.4698 39.485 49.4698 39.8116C49.4698 40.1383 49.5841 40.3506 49.8127 40.5139C49.927 40.5955 50.0577 40.6772 50.2047 40.7425C50.3516 40.8078 50.515 40.8731 50.6946 40.9548C51.0375 41.0854 51.4132 41.2324 51.8051 41.4121C52.0011 41.5101 52.197 41.608 52.393 41.7387C52.589 41.8693 52.7686 42.049 52.9156 42.2939C53.0462 42.5226 53.1279 42.8002 53.1279 43.0288C53.1279 43.2738 53.0952 43.5024 53.0299 43.7147C52.9646 43.927 52.8993 44.123 52.8013 44.319C52.7196 44.5149 52.638 44.6946 52.54 44.8742C52.1644 45.5928 51.7071 46.2623 51.2825 46.9319C51.0702 47.2585 50.8579 47.5851 50.6946 47.9281C50.5313 48.2547 50.3843 48.5976 50.319 48.8916C50.2863 49.0386 50.27 49.1692 50.2863 49.2672C50.3027 49.3488 50.319 49.4305 50.368 49.4958C50.466 49.6265 50.6129 49.7408 50.8416 49.7734C51.0702 49.8061 51.3478 49.8224 51.6908 49.7571C52.0337 49.7081 52.4093 49.5938 52.8666 49.5122C52.7523 49.9694 52.491 50.3614 52.1317 50.6553C51.7561 50.9493 51.2498 51.1616 50.6946 51.0962C50.1393 51.0473 49.5351 50.7533 49.2085 50.198C49.0452 49.9204 48.9635 49.6101 48.9635 49.2999C48.9799 49.0059 49.0452 48.7446 49.1432 48.516C49.3391 48.0587 49.6168 47.7158 49.8781 47.4055C50.1557 47.0952 50.417 46.7849 50.6946 46.491C50.9722 46.197 51.2335 45.9194 51.4948 45.6091C51.7561 45.3151 52.0011 45.0212 52.197 44.6946C52.3767 44.3679 52.54 44.0087 52.5073 43.6494C52.4747 43.2901 52.3113 42.9962 52.1317 42.8982C51.9357 42.7839 51.6744 42.6369 51.3315 42.5226C50.9885 42.4083 50.6129 42.3266 50.221 42.1796C49.8127 42.0326 49.3718 41.8203 48.9799 41.3794C48.7839 41.1671 48.6206 40.8731 48.5553 40.5792C48.4899 40.2689 48.5063 39.9913 48.5716 39.73C48.6206 39.485 48.7349 39.2564 48.8329 39.0604C48.9472 38.8645 49.0615 38.6848 49.2085 38.5215C49.3391 38.3582 49.4861 38.2112 49.6494 38.0643C49.7474 37.8846 49.9107 37.754 50.0904 37.6396Z" fill="#EDEFF1"/>
<path d="M44.4234 54.9505C44.4234 56.1753 43.4272 57.1715 42.2024 57.1715C40.9776 57.1715 39.9814 56.1753 39.9814 54.9505C39.9814 53.7257 40.9776 52.7295 42.2024 52.7295C43.4272 52.7295 44.4234 53.7257 44.4234 54.9505Z" fill="#EDEFF1"/>
<path d="M44.0973 54.951C44.0973 55.9962 43.2481 56.8454 42.203 56.8454C41.1578 56.8454 40.3086 55.9962 40.3086 54.951C40.3086 53.9058 41.1578 53.0566 42.203 53.0566C43.2481 53.0566 44.0973 53.9058 44.0973 54.951Z" fill="#EDEFF1"/>
<path d="M0.21582 58.8051C3.90658 58.6908 7.59735 58.6418 11.2718 58.5601L22.3277 58.4131C29.7093 58.3152 37.0745 58.3152 44.456 58.2988C51.8375 58.3152 59.2027 58.3152 66.5843 58.4131L77.6402 58.5601C81.331 58.6418 85.0217 58.6908 88.6962 58.8051C85.0054 58.9194 81.3147 58.9684 77.6402 59.05L66.5843 59.197C59.2027 59.295 51.8375 59.295 44.456 59.3113C37.0745 59.295 29.7093 59.2787 22.3277 59.197L11.2718 59.05C7.58102 58.9684 3.90658 58.9194 0.21582 58.8051Z" fill="#EDEFF1"/>
<path d="M39.2955 32.0221H36.5356C35.6701 31.4342 35.2781 30.0461 35.2781 28.9029C35.2781 27.0902 36.5519 26.0287 38.3483 26.0287C38.6749 26.0287 38.9852 26.0777 39.2792 26.1594V32.0221H39.2955ZM58.6965 31.6792L50.5474 22.5176L50.3188 22.7135L48.5061 24.3303L45.5502 26.9759L47.2976 28.9682L50.3351 26.3717L54.9894 31.6138V31.6628H42.9699V23.3994H36.9275C33.9553 23.3994 31.5547 25.8164 31.5547 28.8049C31.5547 31.5975 33.6614 33.9165 36.3886 34.1941V34.2268H58.7128V31.6792H58.6965Z" fill="#EDEFF1"/>
<path d="M2.19221 63.4914C2.61681 63.4914 2.94342 63.1485 2.94342 62.7402C2.94342 62.3156 2.61681 61.9727 2.19221 61.9727C1.7676 61.9727 1.44099 62.3156 1.44099 62.7402C1.42466 63.1485 1.7676 63.4914 2.19221 63.4914Z" fill="#EDEFF1"/>
<path d="M52.1155 63.4914C52.5401 63.4914 52.883 63.1485 52.883 62.7402C52.883 62.3156 52.5401 61.9727 52.1155 61.9727C51.6909 61.9727 51.3643 62.3156 51.3643 62.7402C51.3643 63.1485 51.7072 63.4914 52.1155 63.4914Z" fill="#EDEFF1"/>
<path d="M50.1721 63.4914C50.5967 63.4914 50.9233 63.1485 50.9233 62.7402C50.9233 62.3156 50.5967 61.9727 50.1721 61.9727C49.7475 61.9727 49.4209 62.3156 49.4209 62.7402C49.4209 63.1485 49.7639 63.4914 50.1721 63.4914Z" fill="#EDEFF1"/>
<path d="M4.13557 63.4914C4.56017 63.4914 4.90312 63.1485 4.90312 62.7402C4.90312 62.3156 4.56017 61.9727 4.13557 61.9727C3.71097 61.9727 3.38435 62.3156 3.38435 62.7402C3.36802 63.1485 3.71097 63.4914 4.13557 63.4914Z" fill="#EDEFF1"/>
<path d="M1.76736 66.3496C1.76736 65.68 2.14296 65.3371 2.43692 65.1738C2.68188 65.0431 2.9595 64.9778 3.25346 64.9778C3.40043 64.9778 3.53108 64.9941 3.67806 65.0268V67.7704H2.81253C2.51857 67.7704 2.27361 67.6234 2.07764 67.3784C1.88167 67.1171 1.76736 66.7579 1.76736 66.3496ZM27.2271 63.6387L25.741 65.1411L26.1983 65.582L26.4759 65.3044C26.5249 65.2554 26.5902 65.2228 26.6065 65.2228C26.6392 65.2228 26.7208 65.2554 26.8678 65.4187L29.2521 67.7704H5.21316V65.0921C5.21316 64.7328 5.27848 64.7328 5.42546 64.7328H5.8174V64.0959H3.41677C1.50606 64.0959 0.28125 64.9778 0.28125 66.3496C0.28125 66.9865 0.575206 67.5581 1.11412 67.999C1.58772 68.3909 2.20829 68.6196 2.81253 68.6359H30.0687L30.1993 68.7829C30.3626 68.9625 30.5259 69.1585 30.6566 69.4034C30.8035 69.6974 30.8199 70.024 30.7382 70.3506C30.7056 70.4649 30.7056 70.5629 30.7709 70.6446L30.8689 70.7589H30.9669C30.9832 70.7589 30.9832 70.7589 30.9995 70.7589C31.0975 70.7589 31.2118 70.7099 31.3261 70.5303C31.3425 70.4813 31.4078 70.3833 31.5548 70.2037C31.6691 70.0404 31.7671 69.8444 31.8487 69.5668C32.012 68.9299 31.8487 68.3746 31.3425 67.8847L27.2271 63.6387Z" fill="#EDEFF1"/>
<path d="M36.6663 69.6484C36.258 69.6484 35.915 69.9914 35.915 70.3997C35.915 70.8243 36.258 71.1672 36.6663 71.1672C37.0909 71.1672 37.4338 70.8243 37.4338 70.3997C37.4338 69.975 37.0909 69.6484 36.6663 69.6484Z" fill="#EDEFF1"/>
<path d="M40.1119 66.6271C40.0793 67.0354 39.9649 67.3456 39.769 67.5416C39.622 67.6886 39.377 67.7866 39.1157 67.7866H37.8419V65.141C37.8419 64.7817 37.9073 64.7817 38.0542 64.7817H38.4462V64.1448H36.3232V67.8029H34.9514V63.2139C34.9514 62.92 34.9677 62.8547 35.3107 62.8547H35.5556V62.2178H33.4326V68.6521H39.6873C40.2262 68.6521 40.6998 68.4398 41.0754 68.0479C41.451 67.6723 41.647 67.1334 41.647 66.4964V63.2303C41.647 62.9527 41.647 62.871 42.0063 62.871H42.2513V62.2178H40.1119V66.6271Z" fill="#EDEFF1"/>
<path d="M43.0352 68.6192H44.5703V63.1973C44.5703 62.8871 44.5866 62.8381 44.9132 62.8381H45.1582V62.2175L43.0352 62.2012V68.6192Z" fill="#EDEFF1"/>
<path d="M49.6827 66.3494C49.6827 65.6798 50.0583 65.3368 50.3522 65.1735C50.5972 65.0429 50.8748 64.9776 51.1688 64.9776C51.3157 64.9776 51.4464 64.9939 51.5934 65.0266V67.7701H50.7278C50.4339 67.7701 50.1889 67.6232 49.9929 67.3782C49.797 67.1169 49.6827 66.7576 49.6827 66.3494ZM74.2442 66.627C74.2115 67.0352 74.0972 67.3455 73.9176 67.5415C73.7053 67.7375 73.444 67.7701 73.2644 67.7701H53.1448V65.0919C53.1448 64.7326 53.2101 64.7326 53.3571 64.7326H53.749V64.0957H51.3484C49.4377 64.0957 48.2129 64.9776 48.2129 66.3494C48.2129 66.9863 48.5068 67.5578 49.0458 67.9988C49.5194 68.3907 50.1399 68.6193 50.7442 68.6357H73.8359C74.2932 68.6193 74.7668 68.407 75.1261 68.0151C75.5343 67.6068 75.763 67.0353 75.763 66.4147V65.1409C75.763 64.7816 75.7956 64.7816 75.9753 64.7816H76.3672V64.1447H74.2279L74.2442 66.627Z" fill="#EDEFF1"/>
<path d="M74.8479 63.3117C75.2725 63.3117 75.6154 62.9688 75.6154 62.5605C75.6154 62.1359 75.2725 61.793 74.8479 61.793C74.4233 61.793 74.0967 62.1359 74.0967 62.5605C74.0967 62.9688 74.4396 63.3117 74.8479 63.3117Z" fill="#EDEFF1"/>
<path d="M81.8047 66.5288C81.8047 65.9409 81.9353 65.6306 82.1313 65.353C82.3273 65.0917 82.6049 64.9611 82.9478 64.9611C83.2908 64.9611 83.5357 65.1081 83.748 65.4347C83.9767 65.7776 84.0746 66.1696 84.0746 66.8065C84.0746 67.3944 84.0093 67.672 83.797 67.9496C83.6011 68.2272 83.3398 68.3579 82.9805 68.3579C82.6375 68.3579 82.3926 68.2109 82.1803 67.9006C81.9516 67.525 81.8047 67.1657 81.8047 66.5288ZM82.9968 64.0955C82.1966 64.0955 81.4781 64.3568 81.0371 64.7978C80.5145 65.2714 80.2696 65.8756 80.2696 66.6758V66.8228C80.2369 67.2311 80.1553 67.4923 80.0083 67.623C79.894 67.7373 79.747 67.7863 79.502 67.7863H78.6692V63.1973C78.6692 62.9034 78.6855 62.8381 79.0284 62.8381H79.2734V62.2012H77.1504V68.6355H79.8776H79.894C80.0409 68.6192 80.1879 68.5865 80.3349 68.5375C80.4982 68.4885 80.6452 68.4069 80.7595 68.2762C80.8248 68.3742 80.9065 68.4559 80.9881 68.5375C81.4454 68.9948 82.1313 69.2561 82.8662 69.2561C83.7154 69.2561 84.4013 69.0274 84.8749 68.5539C85.3648 68.1129 85.6261 67.4597 85.6261 66.6758C85.6261 65.9083 85.3811 65.2714 84.9075 64.7978C84.4503 64.3568 83.7317 64.0955 82.9968 64.0955Z" fill="#EDEFF1"/>
<path d="M86.4922 68.6192H88.0273V63.1973C88.0273 62.9034 88.0436 62.8381 88.3866 62.8381H88.6315V62.2012H86.5085V68.6192H86.4922Z" fill="#EDEFF1"/>
<path d="M87.9617 61.2211C87.782 61.2211 87.6024 61.1721 87.6024 60.8455C87.6024 60.6005 87.7004 60.5026 87.9617 60.5026C88.223 60.5026 88.2393 60.5842 88.2556 60.6332L88.2883 60.8455H88.8272V60.6005C88.8272 60.3556 88.8272 60.1923 88.6313 60.0126L88.6149 59.9963C88.4679 59.8983 88.223 59.833 87.88 59.833C87.1451 59.833 86.6389 60.2413 86.6389 60.8292C86.6389 60.9762 86.6716 61.1068 86.7205 61.2211H86.4756V61.907H88.8762V61.2211H87.9617Z" fill="#EDEFF1"/>
<path d="M2.95962 77.1283L2.04509 74.9563L1.09791 77.1283H2.95962ZM4.87032 78.8757C4.78867 78.892 4.69069 78.9084 4.57637 78.9084C4.41306 78.9084 4.1681 78.892 3.93947 78.7451C3.69451 78.6144 3.46587 78.3531 3.30257 77.9285L3.1066 77.4386H0.999922L0.39568 78.8757H0.0527344L2.15941 73.9111H2.38804L4.03745 77.9448C4.1681 78.2225 4.24975 78.4184 4.3804 78.5491C4.51105 78.6634 4.65803 78.7287 4.854 78.7451V78.8757H4.87032Z" fill="#EDEFF1"/>
<path d="M6.53612 78.5651H9.19804V78.8591H5.86656V74.7927C5.86656 74.3355 5.7849 74.0415 5.34397 74.0415H5.18066V73.8945H5.86656C6.11152 73.8945 6.30749 73.9272 6.40548 74.0578C6.50346 74.1885 6.53612 74.4334 6.53612 74.8091V78.5651Z" fill="#EDEFF1"/>
<path d="M11.1413 76.4911V78.4998C11.37 78.5651 11.6312 78.5978 11.8599 78.5978C12.7581 78.5978 13.297 78.2385 13.297 77.5363C13.297 76.8667 12.8071 76.4748 11.8599 76.4748H11.1413V76.4911ZM11.1413 76.1972H11.8599C12.1538 76.1972 12.4641 76.1155 12.6928 75.9522C12.9214 75.7726 13.0684 75.5276 13.0684 75.201C13.0684 74.8254 12.8724 74.5804 12.6111 74.4008C12.3661 74.2375 12.0069 74.1722 11.7129 74.1722C11.5169 74.1722 11.3046 74.2048 11.1577 74.2538V76.1972H11.1413ZM9.76953 74.0415V73.8945H11.7292C12.1212 73.8945 12.6274 73.9272 13.052 74.1068C13.4603 74.2865 13.7706 74.6294 13.7706 75.201C13.7706 75.6419 13.4766 76.0665 12.7907 76.2952C13.2807 76.3768 13.5746 76.5238 13.7706 76.7198C13.9502 76.9321 14.0155 77.1934 14.0155 77.5036C14.0155 78.0589 13.7216 78.4018 13.346 78.5978C12.9377 78.7938 12.4315 78.8428 11.9579 78.8428H10.4554V74.7764C10.4554 74.3191 10.3738 74.0252 9.93284 74.0252H9.76953V74.0415Z" fill="#EDEFF1"/>
<path d="M17.788 77.1283L16.8735 74.9563L15.9263 77.1283H17.788ZM19.7151 78.8757C19.6334 78.892 19.5354 78.9084 19.4211 78.9084C19.2415 78.9084 19.0128 78.892 18.7842 78.7451C18.5392 78.6144 18.2943 78.3531 18.1473 77.9285L17.9513 77.4386H15.8446L15.2404 78.8757H14.8975L17.0041 73.9111H17.2328L18.8822 77.9448C19.0128 78.2225 19.0945 78.4184 19.2251 78.5491C19.3558 78.6634 19.5028 78.7287 19.7151 78.7451V78.8757Z" fill="#EDEFF1"/>
<path d="M23.6345 73.8945H24.3041V77.9609C24.3041 78.4182 24.3857 78.7121 24.8266 78.7121H24.9736V78.8591H24.3041C24.0428 78.8591 23.8795 78.8264 23.7815 78.6795C23.6835 78.5488 23.6345 78.3365 23.6345 77.9446V76.4421H21.3808V78.8591H20.7113V74.7927C20.7113 74.3355 20.6296 74.0415 20.1887 74.0415H20.0254V73.8945H20.7113C20.9726 73.8945 21.1522 73.9272 21.2502 74.0578C21.3482 74.1885 21.3808 74.4334 21.3808 74.8091V76.1645H23.6345V73.8945Z" fill="#EDEFF1"/>
<path d="M28.5827 77.1283L27.6681 74.9563L26.721 77.1283H28.5827ZM30.4934 78.8757C30.4117 78.892 30.3137 78.9084 30.1994 78.9084C30.0198 78.9084 29.7911 78.892 29.5625 78.7451C29.3176 78.6144 29.0889 78.3531 28.9256 77.9285L28.7296 77.4386H26.623L26.0187 78.8757H25.6758L27.7825 73.9111H28.0111L29.6605 77.9448C29.7911 78.2225 29.8728 78.4184 30.0034 78.5491C30.1341 78.6634 30.2811 78.7287 30.477 78.7451V78.8757H30.4934Z" fill="#EDEFF1"/>
<path d="M41.3862 79.2184C40.831 79.2184 40.4881 79.0877 40.2758 78.8264C40.0635 78.5651 39.9818 78.1569 39.9818 77.5853V74.6947L38.1038 78.8754H37.9568L36.0134 74.6131V78.8754H35.7031V73.8945H36.4217L38.2181 77.8139L39.9818 73.8945H40.6514V77.569C40.6514 78.4835 40.88 79.0387 41.3699 79.0387V79.2184H41.3862Z" fill="#EDEFF1"/>
<path d="M42.6276 74.8091C42.6276 74.3518 42.5459 74.0578 42.105 74.0578H41.958V73.8945H42.6276C42.8889 73.8945 43.0685 73.9272 43.1665 74.0578C43.2645 74.1885 43.2971 74.4334 43.2971 74.8091V76.9484C43.2971 77.471 43.3788 77.8956 43.5911 78.1895C43.8034 78.4835 44.1137 78.6305 44.6199 78.6305C45.1915 78.6305 45.5671 78.4835 45.8121 78.1732C46.057 77.8466 46.1387 77.373 46.1387 76.7198V73.8945H46.449V76.7198C46.449 77.4546 46.351 78.0099 46.0734 78.3855C45.7794 78.7448 45.3058 78.9408 44.5219 78.9408C43.8034 78.9408 43.3135 78.7448 43.0195 78.3855C42.7256 78.0099 42.6112 77.4546 42.6112 76.7198V74.8091H42.6276Z" fill="#EDEFF1"/>
<path d="M48.2447 78.8754H47.9507V74.8091C47.9507 74.3518 47.7874 74.0578 47.2811 74.0578H47.2158V73.8945H47.6894C48.1793 73.8945 48.4733 74.0742 48.7183 74.3355L51.3475 77.618V73.8945H51.6578V78.9408H51.4945L48.261 74.907V78.8754H48.2447Z" fill="#EDEFF1"/>
<path d="M52.6543 73.8945H53.3239V77.9609C53.3239 78.4182 53.4055 78.7121 53.8464 78.7121H53.9934V78.8591H53.3239C53.0626 78.8591 52.8993 78.8264 52.8013 78.6795C52.7033 78.5488 52.6543 78.3365 52.6543 77.9446V73.8945Z" fill="#EDEFF1"/>
<path d="M58.9584 75.4788C58.7788 74.499 58.2562 74.0417 57.4233 74.0417C56.9334 74.0417 56.4761 74.1887 56.1495 74.5643C55.8229 74.9399 55.6106 75.5442 55.6106 76.4424C55.6106 76.9976 55.7412 77.5692 56.0352 77.9938C56.3291 78.4184 56.7864 78.7123 57.4233 78.7123C58.1745 78.7123 58.6971 78.3531 59.1217 77.6508L59.2687 77.7652C59.0237 78.2388 58.7134 78.5327 58.3868 78.745C58.0439 78.941 57.6519 79.0063 57.1947 79.0063C56.4761 79.0063 55.9045 78.7287 55.4963 78.2551C55.088 77.7978 54.8594 77.1609 54.8594 76.4424C54.8594 75.6911 55.1207 75.0053 55.5453 74.5317C55.9535 74.0417 56.5414 73.7314 57.1783 73.7314C58.0112 73.7314 58.6318 74.0091 58.9094 74.3357C59.1054 74.5806 59.1054 75.0053 59.1054 75.4788H58.9584Z" fill="#EDEFF1"/>
<path d="M59.9219 73.8945H60.5914V77.9609C60.5914 78.4182 60.6731 78.7121 61.114 78.7121H61.261V78.8591H60.5914C60.3301 78.8591 60.1668 78.8264 60.0688 78.6795C59.9709 78.5488 59.9219 78.3365 59.9219 77.9446V73.8945Z" fill="#EDEFF1"/>
<path d="M63.8411 76.5728C64.0534 76.5728 64.331 76.4911 64.576 76.3115C64.821 76.1319 65.0006 75.8216 65.0006 75.3643C65.0006 74.9234 64.821 74.6131 64.576 74.4171C64.331 74.2375 64.0534 74.1558 63.8411 74.1558C63.6451 74.1558 63.4328 74.1885 63.2695 74.2375V76.4911C63.4165 76.5401 63.6451 76.5728 63.8411 76.5728ZM63.2695 76.8341V78.8591H62.6V74.7927C62.6 74.3355 62.5183 74.0415 62.0774 74.0415H61.9141V73.8945H63.8738C64.2004 73.8945 64.674 73.9272 65.0496 74.1395C65.4415 74.3518 65.7518 74.7437 65.7518 75.397C65.7518 75.8379 65.6212 76.1319 65.4252 76.3442C65.2129 76.5565 64.9679 76.6871 64.723 76.7524C64.4617 76.8177 64.233 76.8504 64.1024 76.8504H63.2695V76.8341Z" fill="#EDEFF1"/>
<path d="M69.3935 77.1283L68.4953 74.9563L67.5481 77.1283H69.3935ZM71.3205 78.8757C71.2389 78.892 71.1409 78.9084 71.0266 78.9084C70.8469 78.9084 70.6183 78.892 70.3897 78.7451C70.1447 78.6144 69.9161 78.3531 69.7528 77.9285L69.5568 77.4386H67.4501L66.8459 78.8757H66.5029L68.6096 73.9111H68.8382L70.4876 77.9448C70.6183 78.2225 70.6999 78.4184 70.8306 78.5491C70.9612 78.6634 71.1082 78.7287 71.3042 78.7451V78.8757H71.3205Z" fill="#EDEFF1"/>
<path d="M72.9863 78.5651H75.6482V78.8591H72.3168V74.7927C72.3168 74.3355 72.2351 74.0415 71.7942 74.0415H71.6309V73.8945H72.3168C72.5617 73.8945 72.7577 73.9272 72.8557 74.0578C72.9537 74.1885 72.9863 74.4334 72.9863 74.8091V78.5651Z" fill="#EDEFF1"/>
<path d="M76.7744 73.8945H77.444V77.9609C77.444 78.4182 77.5256 78.7121 77.9666 78.7121H78.1135V78.8591H77.444C77.1827 78.8591 77.0194 78.8264 76.9214 78.6795C76.8234 78.5488 76.7744 78.3365 76.7744 77.9446V73.8945Z" fill="#EDEFF1"/>
<path d="M82.9478 73.8945V74.1885H81.2494V78.8591H80.5799V74.1885H79.9103C79.3061 74.1885 78.9631 74.4498 78.9631 75.054H78.7998V74.4988C78.7998 74.3355 78.8161 74.1885 78.9304 74.0742C79.0284 73.9762 79.1754 73.8945 79.453 73.8945H82.9478Z" fill="#EDEFF1"/>
<path d="M86.4589 76.4258L88.0267 73.8945H88.3696L86.6059 76.7524V78.8591H85.9363V76.8014L84.6625 74.8581C84.5155 74.6458 84.3686 74.4498 84.2053 74.2865C84.0419 74.1558 83.846 74.0578 83.5684 74.0252V73.8945H84.2379C84.5155 73.8945 84.7278 73.9925 84.9075 74.1395C85.0871 74.3028 85.2341 74.5151 85.3484 74.7111L86.4589 76.4258Z" fill="#EDEFF1"/>
</svg>
