<svg width="189" height="72" viewBox="0 0 189 72" fill="none" xmlns="http://www.w3.org/2000/svg">
<g clip-path="url(#clip0_9_122403)">
<path d="M58.5322 47.5246C58.2649 47.5157 58.0047 47.4369 57.7775 47.296C57.5502 47.1552 57.3639 46.9571 57.2372 46.7217C56.8906 46.2162 56.7178 45.6117 56.7451 44.9994C56.7118 44.4582 56.888 43.925 57.2372 43.5102C57.5598 43.1948 57.9905 43.0142 58.4415 43.0051C59.2657 43.0225 60.0878 43.0961 60.9019 43.2253V41.6843C60.0871 41.5628 59.2652 41.4935 58.4415 41.4771C57.9734 41.4815 57.5093 41.5646 57.0688 41.7231C56.6446 41.8684 56.2561 42.1024 55.9293 42.4095C55.6024 42.7203 55.3501 43.101 55.1911 43.5231C55.0031 43.9922 54.9106 44.4941 54.9192 44.9994C54.9183 45.2269 54.9488 45.4535 55.0099 45.6728C55.0641 45.8946 55.1377 46.1113 55.23 46.3203C55.3161 46.5168 55.4156 46.7072 55.5278 46.89C55.6794 47.0904 55.8437 47.2807 56.0199 47.4598V47.5246H47.6415C47.4775 47.525 47.3149 47.4942 47.1624 47.4339C47.0035 47.3781 46.858 47.2899 46.735 47.1749C46.608 47.0391 46.507 46.8811 46.4372 46.7087C46.3544 46.4941 46.3148 46.2653 46.3206 46.0354V38.0195L44.4947 38.7318V46.3332C44.4989 46.5324 44.4637 46.7304 44.3911 46.9159C44.3254 47.0536 44.233 47.1768 44.1192 47.2785C44.0181 47.3678 43.8988 47.4341 43.7696 47.4728C43.6576 47.4843 43.5448 47.4843 43.4329 47.4728H41.9825V41.4382L40.1696 42.1505V47.5246H38.4473V49.0785H43.2516C43.4413 49.09 43.6316 49.09 43.8214 49.0785C44.0496 49.058 44.2752 49.0147 44.4947 48.949C44.7318 48.881 44.9617 48.7899 45.1811 48.6771C45.4178 48.5431 45.6319 48.3727 45.8156 48.172C46.0515 48.4546 46.348 48.6804 46.6832 48.8325C47.0373 49.009 47.4272 49.102 47.8228 49.1044H61.8473V47.5246H58.5322Z" fill="#EDEFF1"/>
<path d="M71.9349 46.0354V38.0195L70.122 38.7318V46.3332C70.1288 46.5339 70.0889 46.7333 70.0054 46.9159C69.9485 47.0588 69.8546 47.1839 69.7335 47.2785C69.6323 47.3678 69.5131 47.4341 69.3838 47.4728C69.2719 47.4843 69.1591 47.4843 69.0471 47.4728H67.6097V41.4382L65.7838 42.1505V47.5246H64.0615V49.0915H68.8658H69.4356C69.664 49.0722 69.8897 49.0288 70.109 48.962C70.3522 48.8998 70.587 48.8085 70.8083 48.69C71.4169 48.2886 71.9349 47.6152 71.9349 46.0354Z" fill="#EDEFF1"/>
<path d="M75.9242 38.0195L74.1631 38.7188V49.0915H75.9242V38.0195Z" fill="#EDEFF1"/>
<path d="M86.6588 42.4484C86.3169 42.1193 85.9053 41.8715 85.4545 41.7233C84.4309 41.3969 83.3313 41.3969 82.3077 41.7233C81.8569 41.8715 81.4453 42.1193 81.1034 42.4484C80.7547 42.7792 80.4886 43.1873 80.3264 43.6398C80.1307 44.1788 80.0384 44.75 80.0545 45.3233C80.0356 45.8724 80.1146 46.4205 80.2876 46.942C80.4531 47.3928 80.7187 47.8001 81.0646 48.1333C81.4098 48.458 81.8204 48.7053 82.2689 48.8585C83.2948 49.1693 84.3897 49.1693 85.4156 48.8585C85.8641 48.7053 86.2747 48.458 86.62 48.1333C86.9658 47.8001 87.2314 47.3928 87.3969 46.942C87.6011 46.4262 87.7107 45.8779 87.7207 45.3233C87.728 44.7622 87.6314 44.2046 87.4358 43.6786C87.2791 43.2122 87.0127 42.7903 86.6588 42.4484ZM85.3638 46.9031C85.1673 47.104 84.9326 47.2636 84.6735 47.3725C84.4145 47.4815 84.1362 47.5376 83.8552 47.5376C83.5742 47.5376 83.2959 47.4815 83.0369 47.3725C82.7778 47.2636 82.5431 47.104 82.3466 46.9031C81.9881 46.4417 81.8046 45.8682 81.8286 45.2844C81.8043 44.7045 81.988 44.135 82.3466 43.6786C82.5431 43.4778 82.7778 43.3182 83.0369 43.2092C83.2959 43.1003 83.5742 43.0442 83.8552 43.0442C84.1362 43.0442 84.4145 43.1003 84.6735 43.2092C84.9326 43.3182 85.1673 43.4778 85.3638 43.6786C85.7224 44.135 85.9061 44.7045 85.8818 45.2844C85.9132 45.865 85.7389 46.4382 85.3897 46.9031H85.3638Z" fill="#EDEFF1"/>
<path d="M91.0747 52.1349C91.5241 51.3487 91.7356 50.449 91.6833 49.5449V41.4385L89.9222 42.1248V49.4802C89.9286 49.8401 89.9026 50.1998 89.8445 50.555C89.8131 50.777 89.7429 50.9918 89.6373 51.1896C89.5541 51.3223 89.432 51.4263 89.2877 51.4874C89.1424 51.5401 88.9889 51.5664 88.8344 51.5651H87.6689V53.0932H88.9639C89.3696 53.1397 89.7802 53.0751 90.152 52.9063C90.5238 52.7375 90.8427 52.4709 91.0747 52.1349Z" fill="#EDEFF1"/>
<path d="M95.6596 38.0195L93.8984 38.7318V48.9361H95.6596V38.0195Z" fill="#EDEFF1"/>
<path d="M99.0649 52.1349C99.5144 51.3487 99.7258 50.449 99.6736 49.5449V41.4385L97.9124 42.1378V49.4673C97.9188 49.8271 97.8928 50.1869 97.8347 50.5421C97.8033 50.7641 97.7332 50.9788 97.6275 51.1766C97.5443 51.3094 97.4222 51.4134 97.2779 51.4744C97.1327 51.5272 96.9791 51.5535 96.8246 51.5521H95.6592V53.0932H96.9541C97.3598 53.1397 97.7704 53.0751 98.1422 52.9063C98.514 52.7375 98.8329 52.4709 99.0649 52.1349Z" fill="#EDEFF1"/>
<path d="M99.6733 38.0195V40.1433L97.9121 39.444V38.0195H99.6733Z" fill="#EDEFF1"/>
<path d="M86.4389 38.0195V40.1433L84.6777 39.444V38.0195H86.4389Z" fill="#EDEFF1"/>
<path d="M83.0854 38.0195V40.1433L81.3242 39.444V38.0195H83.0854Z" fill="#EDEFF1"/>
<path d="M66.7942 52.4324C66.7129 52.4391 66.6311 52.4275 66.5549 52.3984C66.4787 52.3692 66.41 52.3233 66.3539 52.264C66.2453 52.1337 66.1898 51.9673 66.1985 51.7978C66.1917 51.6348 66.2421 51.4744 66.341 51.3446C66.3858 51.293 66.4417 51.2523 66.5045 51.2254C66.5673 51.1985 66.6353 51.1861 66.7036 51.1892C67.0114 51.1955 67.3185 51.2214 67.623 51.2669V50.6971C67.3185 50.6517 67.0114 50.6257 66.7036 50.6194C66.3719 50.5927 66.0426 50.6947 65.7842 50.9043C65.673 51.0077 65.5863 51.1346 65.5304 51.2757C65.4744 51.4168 65.4505 51.5686 65.4604 51.7201C65.4631 51.8394 65.485 51.9574 65.5252 52.0698C65.575 52.1792 65.6357 52.2833 65.7065 52.3806H65.1885V53.0928H67.9338V52.4712L66.7942 52.4324Z" fill="#EDEFF1"/>
<path d="M108.972 44.0935C108.877 43.5816 108.674 43.0958 108.376 42.6691C108.087 42.2737 107.692 41.9684 107.236 41.7885C106.679 41.5526 106.08 41.4336 105.475 41.4389C104.876 41.4238 104.281 41.5341 103.727 41.7626C103.294 41.9561 102.916 42.2543 102.626 42.6302C102.342 43.0142 102.148 43.4565 102.056 43.9252C101.942 44.4614 101.885 45.0085 101.888 45.5568C101.881 46.0578 101.973 46.5552 102.16 47.0202C102.337 47.4393 102.597 47.8182 102.924 48.1338C103.255 48.4577 103.653 48.7052 104.09 48.859C104.567 49.0295 105.072 49.1129 105.579 49.105H106.071C106.502 48.8913 106.902 48.6213 107.262 48.3022C107.12 50.0892 106.822 51.5784 104.297 51.5784H102.833V53.0935H104.53C105.271 53.1148 106.009 52.9962 106.705 52.7439C107.289 52.5117 107.789 52.1104 108.143 51.5914C108.54 50.8536 108.803 50.0513 108.92 49.2216C109.089 48.2293 109.167 47.2237 109.153 46.2173C109.159 45.5052 109.098 44.7942 108.972 44.0935ZM107.314 47.5381H105.579C105.325 47.561 105.069 47.5302 104.828 47.4476C104.587 47.365 104.367 47.2326 104.18 47.059C103.841 46.6305 103.679 46.0883 103.727 45.5439C103.724 45.1879 103.754 44.8324 103.818 44.482C103.863 44.2155 103.959 43.9603 104.102 43.7309C104.241 43.5141 104.433 43.3359 104.659 43.213C104.935 43.0854 105.236 43.0234 105.54 43.0317C105.823 43.0026 106.109 43.057 106.362 43.1881C106.615 43.3192 106.825 43.5214 106.964 43.7698C107.264 44.5134 107.401 45.3127 107.366 46.1137C107.366 46.6187 107.34 47.1108 107.314 47.5381Z" fill="#EDEFF1"/>
<path d="M36.6734 43.5747C36.4986 43.126 36.2241 42.7231 35.8705 42.3963C35.517 42.0821 35.1027 41.844 34.6532 41.697C34.1551 41.5355 33.6358 41.4482 33.1122 41.438C32.5882 41.4303 32.0668 41.5135 31.5712 41.684C31.1196 41.8325 30.7046 42.0753 30.354 42.3963C30.0023 42.7196 29.7279 43.118 29.5511 43.5617C29.3489 44.0588 29.2519 44.5923 29.2662 45.1286C29.2845 45.6724 29.4169 46.2062 29.6547 46.6955C30.0362 47.04 30.4743 47.3159 30.9496 47.5114C30.717 47.4908 30.483 47.4908 30.2504 47.5114H29.9266C29.6541 47.5785 29.3893 47.6739 29.1367 47.7963C28.827 47.9539 28.5535 48.1744 28.3338 48.4437C27.8989 49.0248 27.6792 49.7388 27.7122 50.4639V53.0927H29.4734V50.5934C29.475 50.4017 29.4967 50.2107 29.5381 50.0236C29.5849 49.8455 29.6737 49.6812 29.7971 49.5445C29.931 49.3876 30.1059 49.2711 30.3022 49.2078C30.561 49.1226 30.8327 49.0831 31.105 49.0912H33.1511C33.6866 49.0957 34.2195 49.017 34.7309 48.8581C35.1747 48.7133 35.5845 48.4798 35.9352 48.1718C36.2802 47.8454 36.5498 47.4477 36.7252 47.0063C36.9163 46.4125 37.0082 45.7912 36.9971 45.1675C37 44.6199 36.8898 44.0777 36.6734 43.5747ZM34.6144 46.9804C34.4259 47.1884 34.193 47.3511 33.9329 47.4565C33.6728 47.5619 33.3923 47.6072 33.1122 47.5891C32.8303 47.6064 32.5482 47.5607 32.2861 47.4554C32.024 47.3502 31.7887 47.1879 31.5971 46.9804C31.2385 46.4454 31.0573 45.8112 31.0791 45.1675C31.0577 44.5959 31.2414 44.0355 31.5971 43.5876C32.0046 43.1967 32.5475 42.9784 33.1122 42.9784C33.677 42.9784 34.2198 43.1967 34.6273 43.5876C34.9795 44.0368 35.1587 44.5974 35.1324 45.1675C35.1606 45.812 34.9788 46.4482 34.6144 46.9804Z" fill="#EDEFF1"/>
<path d="M10.541 58.8037V68.8915H8.79281V61.808C8.60937 62.2991 8.3975 62.779 8.15827 63.2454L6.02158 67.4282H4.49353L2.39568 63.2454C2.1371 62.7722 1.90789 62.2835 1.70935 61.7821V68.8915H0V58.8037H1.91655L4.20863 63.2454C4.61707 64.025 4.97606 64.8294 5.28345 65.6541C5.57733 64.824 5.93674 64.0186 6.35827 63.2454L8.65036 58.8037H10.541Z" fill="#EDEFF1"/>
<path d="M11.9785 62.015L13.662 61.8467V68.8913H11.9785V62.015Z" fill="#EDEFF1"/>
<path d="M21.3284 63.9322V68.8919H19.6449V64.4761C19.6449 63.466 19.36 63.1811 18.5442 63.1811C17.9281 63.203 17.3254 63.367 16.7831 63.6602V68.8919H15.0996V62.0156L16.7831 61.8473V62.5207C17.5081 62.059 18.3454 61.8038 19.2046 61.7825C19.4945 61.746 19.7889 61.7767 20.065 61.8722C20.3412 61.9677 20.5916 62.1255 20.7969 62.3333C21.0023 62.5412 21.157 62.7935 21.2492 63.0707C21.3413 63.348 21.3684 63.6428 21.3284 63.9322Z" fill="#EDEFF1"/>
<path d="M22.7656 62.015L24.4491 61.8467V68.8913H22.7656V62.015Z" fill="#EDEFF1"/>
<path d="M25.8994 68.1665L26.6246 67.0269C27.3 67.5382 28.1215 67.8196 28.9685 67.8298C29.7973 67.8298 30.2634 67.5449 30.2634 67.0398C30.2634 66.5348 30.0045 66.3406 28.839 66.0298L28.3728 65.9132C26.9224 65.5247 26.262 64.9291 26.262 63.8542C26.262 62.7794 27.3886 61.7823 28.9555 61.7823C29.9261 61.7777 30.8796 62.0374 31.7138 62.5334L31.0663 63.647C30.4408 63.2696 29.7249 63.0683 28.9944 63.0643C28.3339 63.0643 27.9843 63.3362 27.9843 63.7506C27.9843 64.165 28.2174 64.2945 29.0721 64.5017L29.5642 64.6312C31.2606 65.0844 31.9598 65.7708 31.9598 66.8844C31.9598 67.9981 31.0016 69.0988 29.0721 69.0988C27.9403 69.1489 26.8241 68.8208 25.8994 68.1665Z" fill="#EDEFF1"/>
<path d="M38.02 68.6331C37.4423 68.9412 36.7971 69.1014 36.1423 69.0993C35.8496 69.1225 35.5554 69.0804 35.2809 68.976C35.0065 68.8716 34.7587 68.7075 34.5554 68.4956C34.3522 68.2837 34.1986 68.0292 34.1057 67.7507C34.0129 67.4721 33.9831 67.1764 34.0186 66.8849V63.3237H32.7236V62.0288H34.0186V60.4748L35.6891 60.2158V62.0288H37.8387L37.6704 63.3237H35.6891V66.6259C35.6891 67.4029 35.9869 67.7266 36.5179 67.7266C36.876 67.7133 37.228 67.6297 37.5538 67.4806L38.02 68.6331Z" fill="#EDEFF1"/>
<path d="M44.0293 61.9249L43.7444 63.6342C43.4218 63.5117 43.0793 63.4502 42.7343 63.4529C42.3997 63.4516 42.0707 63.5397 41.7816 63.7082C41.4924 63.8767 41.2536 64.1194 41.0897 64.4112V68.8918H39.4062V62.0026L41.0897 61.8472V62.8313C41.3065 62.5084 41.5995 62.2438 41.9428 62.0608C42.286 61.8779 42.6691 61.7823 43.058 61.7824C43.3872 61.7788 43.715 61.8269 44.0293 61.9249Z" fill="#EDEFF1"/>
<path d="M51.4882 62.002V62.1574L49.1054 69.1243C48.3803 71.2221 47.5126 72.0639 45.9328 72.0639C45.4379 72.0635 44.9469 71.9758 44.4824 71.8049L44.9098 70.5876C45.1951 70.6748 45.492 70.7185 45.7903 70.7171C46.4378 70.7171 46.9688 70.5488 47.4867 69.1761L47.5644 68.956H47.1112L44.5213 62.1574V62.0667H46.2954L47.7069 66.0423C47.8752 66.5214 47.9918 66.9358 48.0954 67.3372C48.199 66.9488 48.3285 66.4955 48.445 66.0423L49.74 61.9502L51.4882 62.002Z" fill="#EDEFF1"/>
<path d="M24.4623 58.8037V60.9275L22.7012 60.2282V58.8037H24.4623Z" fill="#EDEFF1"/>
<path d="M13.7006 58.8037V60.9275L11.9395 60.2282V58.8037H13.7006Z" fill="#EDEFF1"/>
<path d="M54.6351 65.5504C54.5839 65.0715 54.6371 64.5872 54.7913 64.1309C54.9455 63.6747 55.1968 63.2573 55.528 62.9076C55.8592 62.5579 56.2624 62.2843 56.7096 62.1056C57.1569 61.927 57.6376 61.8475 58.1186 61.8727C60.3718 61.8727 61.5243 63.4137 61.5243 65.5893C61.5243 66.5028 61.1614 67.379 60.5154 68.025C59.8694 68.671 58.9933 69.0339 58.0797 69.0339C57.1662 69.0339 56.29 68.671 55.644 68.025C54.998 67.379 54.6351 66.5028 54.6351 65.5893V65.5504ZM59.9574 65.5504C59.9574 64.1519 59.3617 63.1936 58.1186 63.1936C56.8754 63.1936 56.1891 64.1389 56.1891 65.4986C56.1891 66.8583 56.7848 67.726 58.0409 67.726C59.297 67.726 59.9574 66.949 59.9574 65.5893V65.5504Z" fill="#EDEFF1"/>
<path d="M65.7842 61.5489V62.7403H67.7655L67.5972 64.0352H65.7842V68.9043H64.1008V64.0611H62.9482V62.7662H64.1008V61.6007C64.0654 61.2441 64.1068 60.884 64.2221 60.5447C64.3374 60.2054 64.524 59.8947 64.7693 59.6334C65.0146 59.3721 65.313 59.1664 65.6444 59.03C65.9758 58.8935 66.3325 58.8296 66.6907 58.8424C67.2572 58.8345 67.8199 58.9356 68.3482 59.1403L67.9209 60.4352C67.5773 60.2879 67.207 60.2129 66.8331 60.2151C66.1598 60.2151 65.7842 60.7201 65.7842 61.5489Z" fill="#EDEFF1"/>
<path d="M82.7226 58.8428V68.9305H80.9874V61.8471C80.7956 62.3325 80.5795 62.8079 80.3399 63.2716L78.2162 67.4672H76.6881L74.5773 63.2716C74.3166 62.8013 74.0915 62.3122 73.9039 61.8082V68.9305H72.1816V58.8428H74.0982L76.4032 63.2716C76.8197 64.0517 77.1789 64.861 77.478 65.6931C77.7748 64.86 78.1341 64.0505 78.5529 63.2716L80.8579 58.8428H82.7226Z" fill="#EDEFF1"/>
<path d="M90.4794 65.8094H85.8435C85.9212 67.2727 86.7758 67.8037 87.7212 67.8037C88.4487 67.7969 89.1589 67.5812 89.7672 67.1821L90.3629 68.2699C89.5525 68.8301 88.5898 69.1284 87.6046 69.1245C87.1314 69.1696 86.6542 69.1073 86.2084 68.9423C85.7626 68.7773 85.3598 68.5138 85.03 68.1715C84.7001 67.8293 84.4518 67.417 84.3034 66.9654C84.155 66.5138 84.1104 66.0346 84.173 65.5634C84.173 63.4008 85.3384 61.808 87.5528 61.808C87.9484 61.7775 88.3459 61.8323 88.7184 61.9687C89.091 62.1052 89.4299 62.32 89.7123 62.5987C89.9947 62.8773 90.2139 63.2134 90.3552 63.5841C90.4965 63.9549 90.5565 64.3516 90.5312 64.7476C90.5312 65.0325 90.5183 65.4339 90.4794 65.8094ZM85.9212 64.644H88.9125C88.9125 63.5303 88.3428 63.0771 87.6176 63.0771C86.8924 63.0771 86.0895 63.6468 85.9212 64.644Z" fill="#EDEFF1"/>
<path d="M98.4952 58.8164V68.9301H97.019L96.9154 68.4121C96.2784 68.8532 95.5273 69.1006 94.7528 69.1243C92.8621 69.1243 91.865 67.8294 91.865 65.6409C91.8046 65.1416 91.8533 64.6351 92.0079 64.1566C92.1626 63.678 92.4194 63.2388 92.7605 62.8693C93.1017 62.4998 93.5191 62.2088 93.9839 62.0166C94.4486 61.8244 94.9496 61.7354 95.4521 61.756C95.913 61.7586 96.371 61.8284 96.8118 61.9632V58.9977L98.4952 58.8164ZM95.1931 67.7905C95.7646 67.7951 96.3258 67.638 96.8118 67.3373V63.2581C96.4374 63.128 96.0426 63.0666 95.6463 63.0768C94.4938 63.0768 93.6262 63.8797 93.6262 65.6668C93.6262 67.1301 94.196 67.7905 95.1931 67.7905Z" fill="#EDEFF1"/>
<path d="M99.9326 62.0414L101.616 61.873V68.9306H99.9326V62.0414Z" fill="#EDEFF1"/>
<path d="M109.153 64.1007V68.9309H107.69L107.56 68.3482C106.867 68.8688 106.019 69.1423 105.152 69.1252C104.887 69.1564 104.619 69.131 104.365 69.0508C104.111 68.9705 103.878 68.8371 103.679 68.6596C103.481 68.482 103.322 68.2642 103.215 68.0208C103.107 67.7773 103.052 67.5137 103.054 67.2475C103.054 65.4863 105.087 64.7353 107.47 64.6576V64.3986C107.47 63.5309 107.211 63.1036 106.356 63.1036C105.527 63.1361 104.726 63.4108 104.051 63.8935L103.365 62.8187C104.303 62.128 105.437 61.7558 106.602 61.7568C108.247 61.8086 109.153 62.4691 109.153 64.1007ZM105.695 67.8173C106.324 67.8242 106.942 67.6584 107.483 67.3381V65.7971C105.864 65.8748 104.893 66.2892 104.893 67.0921C104.815 67.5583 105.126 67.8173 105.695 67.8173Z" fill="#EDEFF1"/>
<path d="M101.655 58.8428V60.9536L99.8936 60.2543V58.8428H101.655Z" fill="#EDEFF1"/>
<path d="M170.003 18.1291C169.469 16.2937 168.491 14.6179 167.157 13.2494C165.822 11.8809 164.171 10.8617 162.35 10.2816C164.302 9.65847 166.386 9.56904 168.384 10.0226C168.437 10.0361 168.492 10.0319 168.542 10.0106C168.592 9.98932 168.633 9.95218 168.66 9.90493C168.687 9.85769 168.697 9.80299 168.689 9.74934C168.681 9.69568 168.656 9.64608 168.617 9.60822C168.11 9.12741 167.559 8.69395 166.973 8.31325C165.076 7.05494 162.852 6.37967 160.576 6.37081H160.33C161.482 5.43814 162.8 4.73085 164.215 4.28591C164.263 4.26944 164.306 4.23809 164.336 4.19627C164.366 4.15446 164.382 4.10429 164.382 4.05282C164.382 4.00136 164.366 3.95118 164.336 3.90937C164.306 3.86756 164.263 3.8362 164.215 3.81973C162.028 3.35189 159.754 3.52271 157.662 4.31181C158.02 3.15945 158.725 2.14611 159.682 1.41109C159.724 1.3788 159.755 1.33384 159.769 1.2829C159.783 1.23195 159.781 1.17774 159.762 1.1283C159.743 1.07887 159.709 1.03685 159.664 1.00847C159.619 0.980101 159.567 0.966892 159.514 0.970807C158.621 1.02581 157.751 1.27998 156.969 1.71469C156.187 2.14939 155.513 2.75361 154.994 3.48304C154.934 2.2393 154.481 1.04675 153.699 0.0772815C153.676 0.0500045 153.648 0.0280872 153.615 0.0130544C153.583 -0.00197836 153.547 -0.00976563 153.512 -0.00976562C153.476 -0.00976563 153.441 -0.00197836 153.408 0.0130544C153.376 0.0280872 153.347 0.0500045 153.324 0.0772815C152.547 1.04941 152.094 2.2404 152.029 3.48304C151.507 2.75272 150.827 2.14899 150.041 1.71642C149.254 1.28384 148.38 1.03346 147.484 0.983756C147.431 0.979842 147.378 0.993051 147.334 1.02142C147.289 1.0498 147.255 1.09182 147.236 1.14125C147.217 1.19069 147.214 1.2449 147.229 1.29585C147.243 1.34679 147.273 1.39175 147.315 1.42404C148.272 2.15906 148.978 3.1724 149.335 4.32476C147.239 3.55293 144.964 3.4001 142.783 3.88448C142.734 3.90095 142.692 3.9323 142.662 3.97412C142.632 4.01593 142.616 4.0661 142.616 4.11757C142.616 4.16904 142.632 4.21921 142.662 4.26102C142.692 4.30283 142.734 4.33419 142.783 4.35066C144.171 4.80108 145.463 5.50831 146.59 6.43555H146.331C144.062 6.43925 141.843 7.10535 139.947 8.3521C139.36 8.7328 138.81 9.16625 138.302 9.64707C138.264 9.68492 138.238 9.73453 138.231 9.78819C138.223 9.84184 138.233 9.89654 138.26 9.94378C138.286 9.99103 138.328 10.0282 138.378 10.0495C138.427 10.0707 138.483 10.0749 138.535 10.0615C139.385 9.86998 140.254 9.77442 141.125 9.77656C142.308 9.7773 143.483 9.96076 144.609 10.3204C142.79 10.9024 141.142 11.9224 139.809 13.2908C138.477 14.6592 137.502 16.334 136.969 18.1679C136.95 18.2215 136.951 18.2797 136.97 18.3329C136.99 18.386 137.027 18.4308 137.076 18.4597C137.124 18.4887 137.181 18.4999 137.237 18.4915C137.293 18.4832 137.345 18.4558 137.383 18.414C139.294 16.364 141.895 15.0914 144.687 14.8399C142.988 15.9588 141.616 17.5056 140.706 19.3245C139.797 21.1433 139.383 23.1698 139.507 25.1996C139.507 25.2578 139.528 25.3141 139.566 25.3584C139.604 25.4026 139.656 25.4321 139.713 25.4414C139.771 25.4507 139.83 25.4393 139.88 25.4093C139.93 25.3792 139.967 25.3325 139.986 25.2773C140.588 23.784 141.499 22.435 142.66 21.3191C143.82 20.2031 145.204 19.3454 146.72 18.8025C144.846 20.8497 143.786 23.5123 143.741 26.2874C143.736 27.6107 143.96 28.9249 144.402 30.1722C144.414 30.2263 144.445 30.2745 144.488 30.309C144.532 30.3434 144.586 30.3622 144.641 30.3622C144.697 30.3622 144.751 30.3434 144.794 30.309C144.838 30.2745 144.868 30.2263 144.881 30.1722C145.078 28.4028 145.699 26.7069 146.691 25.2283C147.683 23.7496 149.016 22.5316 150.579 21.6773L150.98 21.4571C150.99 21.4461 151.002 21.4373 151.015 21.4312C151.029 21.4252 151.043 21.4221 151.058 21.4221C151.072 21.4221 151.087 21.4252 151.1 21.4312C151.114 21.4373 151.126 21.4461 151.135 21.4571C151.565 23.6833 151.739 25.9512 151.653 28.2169C151.653 33.9794 151.187 45.1291 151.135 45.5953L153.453 47.2917H153.531L155.836 45.5953C155.836 45.1161 155.318 33.9406 155.318 28.2169C155.233 25.9512 155.407 23.6833 155.836 21.4571C155.845 21.4464 155.855 21.4377 155.868 21.4317C155.88 21.4257 155.894 21.4226 155.907 21.4226C155.921 21.4226 155.935 21.4257 155.947 21.4317C155.959 21.4377 155.97 21.4464 155.979 21.4571L156.393 21.6773C157.955 22.5316 159.289 23.7496 160.28 25.2283C161.272 26.7069 161.893 28.4028 162.091 30.1722C162.103 30.2263 162.134 30.2745 162.178 30.309C162.221 30.3434 162.275 30.3622 162.33 30.3622C162.386 30.3622 162.44 30.3434 162.483 30.309C162.527 30.2745 162.557 30.2263 162.57 30.1722C163.012 28.9249 163.235 27.6107 163.23 26.2874C163.234 23.4637 162.186 20.7398 160.291 18.6471C161.807 19.19 163.19 20.0477 164.351 21.1637C165.511 22.2796 166.423 23.6286 167.025 25.1219C167.043 25.1771 167.081 25.2238 167.131 25.2539C167.181 25.2839 167.24 25.2953 167.297 25.286C167.355 25.2767 167.407 25.2473 167.445 25.203C167.483 25.1587 167.504 25.1024 167.504 25.0442C167.628 23.0144 167.214 20.9879 166.304 19.1691C165.395 17.3502 164.022 15.8034 162.324 14.6845C165.136 14.9637 167.744 16.2792 169.64 18.3751C169.68 18.3969 169.725 18.4074 169.77 18.4052C169.816 18.4031 169.86 18.3885 169.897 18.3631C169.935 18.3376 169.964 18.3023 169.983 18.261C170.002 18.2197 170.009 18.1741 170.003 18.1291Z" fill="#EDEFF1"/>
<path d="M161.288 63.6983C161.159 63.8255 161.021 63.9424 160.874 64.048C160.756 64.1411 160.625 64.2154 160.485 64.2681C160.37 64.2951 160.25 64.2951 160.135 64.2681C160.024 64.2548 159.917 64.2148 159.825 64.1516C159.708 64.0475 159.603 63.9302 159.514 63.8019C159.368 63.6176 159.188 63.4637 158.983 63.3487C158.751 63.2209 158.495 63.1416 158.232 63.1156C157.988 63.0708 157.738 63.0708 157.494 63.1156C157.268 63.1841 157.057 63.2939 156.872 63.4393C156.542 63.6986 156.313 64.0651 156.225 64.4753C156.135 64.8447 156.158 65.2324 156.289 65.589C156.504 66.078 156.874 66.482 157.343 66.7375C157.812 66.993 158.352 67.0855 158.879 67.0005C160.091 66.6933 161.166 65.9917 161.935 65.0062C162.107 64.7094 162.178 64.3651 162.139 64.0244C162.099 63.6838 161.951 63.365 161.715 63.1156C161.586 63.4523 161.443 63.5559 161.288 63.6983Z" fill="#EDEFF1"/>
<path d="M150.514 64.0746C150.396 63.8833 150.247 63.7127 150.074 63.5696C149.887 63.4265 149.677 63.3169 149.452 63.2458C149.213 63.2006 148.967 63.2006 148.727 63.2458C148.463 63.268 148.206 63.3476 147.976 63.4789C147.771 63.5939 147.591 63.7479 147.445 63.9322C147.355 64.0604 147.251 64.1778 147.134 64.2818C147.037 64.3452 146.926 64.3851 146.811 64.3983C146.7 64.4243 146.585 64.4243 146.474 64.3983C146.334 64.3456 146.203 64.2714 146.085 64.1782C145.938 64.0726 145.8 63.9557 145.671 63.8286C145.516 63.6861 145.373 63.5307 145.231 63.3753C145.028 63.6167 144.901 63.9129 144.866 64.2264C144.831 64.5399 144.891 64.8567 145.036 65.1365C145.806 66.1219 146.881 66.8235 148.093 67.1307C148.619 67.2135 149.159 67.12 149.627 66.8648C150.095 66.6095 150.466 66.2069 150.682 65.7192C150.778 65.451 150.815 65.1652 150.791 64.8814C150.766 64.5975 150.681 64.3224 150.54 64.0746H150.514Z" fill="#EDEFF1"/>
<path d="M188.431 43.1742C175.235 37.9943 162.532 43.8864 153.467 50.413C144.402 43.9382 131.698 37.9943 118.503 43.1742C118.44 43.2022 118.389 43.2512 118.358 43.3129C118.327 43.3745 118.318 43.445 118.334 43.5122C118.349 43.5795 118.387 43.6393 118.441 43.6815C118.496 43.7238 118.563 43.7459 118.632 43.7439C130.209 42.8245 139.352 45.3367 150.229 52.8087C146.966 55.3986 144.324 57.9885 142.46 59.659C142.188 59.2706 141.722 58.6619 141.475 58.3641C140.706 57.3786 139.631 56.6771 138.419 56.3698C137.892 56.2848 137.352 56.3773 136.883 56.6328C136.414 56.8883 136.044 57.2923 135.829 57.7813C135.701 58.1382 135.674 58.5238 135.752 58.895C135.783 59.1312 135.857 59.3596 135.972 59.5684C136.09 59.7597 136.239 59.9303 136.412 60.0734C136.598 60.2189 136.808 60.3287 137.034 60.3972C137.278 60.4419 137.528 60.4419 137.772 60.3972C138.035 60.3711 138.291 60.2918 138.523 60.1641C138.728 60.0491 138.908 59.8951 139.054 59.7108C139.143 59.5826 139.248 59.4652 139.365 59.3612C139.465 59.3019 139.579 59.2707 139.695 59.2707C139.811 59.2707 139.925 59.3019 140.025 59.3612C140.161 59.4173 140.291 59.4867 140.414 59.5684C140.943 60.0427 141.424 60.5675 141.851 61.1353L142.382 61.7957L142.615 62.1065C142.615 62.1065 140.75 61.4202 140.465 61.6792C139.17 62.9742 138.018 63.9972 137.021 64.9037C136.729 65.1676 136.422 65.4141 136.101 65.6418C135.841 65.8212 135.569 65.9813 135.286 66.1209C135.049 66.228 134.801 66.3105 134.547 66.367C134.331 66.4183 134.109 66.4444 133.887 66.4447C133.686 66.4379 133.487 66.4119 133.291 66.367C133.102 66.3246 132.916 66.2683 132.734 66.1986L132.216 65.9655C132.05 65.8664 131.877 65.7799 131.698 65.7065C131.523 65.6431 131.34 65.6039 131.155 65.59H130.792C130.442 65.6243 130.107 65.7493 129.821 65.9526C129.525 66.1625 129.292 66.449 129.147 66.7813C129.009 67.0991 128.951 67.446 128.979 67.7914C129.018 68.1462 129.147 68.4851 129.355 68.7756C129.504 68.9854 129.683 69.1729 129.886 69.3324C130.11 69.5052 130.354 69.6529 130.611 69.7727C130.892 69.911 131.187 70.0195 131.491 70.0965C131.818 70.1828 132.152 70.2435 132.488 70.2778C132.846 70.3038 133.205 70.3038 133.563 70.2778C133.723 70.2906 133.883 70.2906 134.042 70.2778C136.386 70.0576 138.678 68.0634 139.857 66.9497C144.17 62.8314 148.696 58.9412 153.415 55.295C158.134 58.9412 162.66 62.8314 166.973 66.9497C168.152 68.0634 170.444 70.0576 172.775 70.2778C172.939 70.2906 173.103 70.2906 173.267 70.2778C173.625 70.3038 173.984 70.3038 174.342 70.2778C174.678 70.2435 175.012 70.1828 175.339 70.0965C175.643 70.0195 175.938 69.911 176.219 69.7727C176.474 69.6557 176.713 69.5078 176.932 69.3324C177.141 69.1767 177.325 68.9887 177.475 68.7756C177.678 68.4823 177.806 68.1448 177.851 67.7914C177.879 67.446 177.821 67.0991 177.683 66.7813C177.538 66.449 177.305 66.1625 177.009 65.9526C176.723 65.7493 176.388 65.6243 176.038 65.59H175.688C175.503 65.6039 175.32 65.6431 175.145 65.7065C174.966 65.7799 174.793 65.8664 174.627 65.9655L174.096 66.1986C173.919 66.2683 173.737 66.3246 173.552 66.367C173.356 66.4119 173.157 66.4379 172.956 66.4447C172.734 66.4459 172.512 66.4198 172.296 66.367C172.041 66.3124 171.794 66.2298 171.557 66.1209C171.274 65.9813 171.002 65.8212 170.742 65.6418C170.421 65.4141 170.114 65.1676 169.822 64.9037C168.825 63.9972 167.737 62.9742 166.378 61.6792C166.093 61.4202 164.228 62.1065 164.228 62.1065L164.461 61.7957L164.992 61.1353C165.432 60.5618 165.931 60.0366 166.481 59.5684C166.604 59.4867 166.734 59.4173 166.87 59.3612C166.978 59.3067 167.099 59.2843 167.219 59.2965C167.331 59.3098 167.437 59.3498 167.53 59.413C167.647 59.517 167.751 59.6344 167.841 59.7626C167.987 59.9469 168.167 60.1009 168.372 60.2159C168.604 60.3436 168.859 60.4229 169.123 60.449C169.367 60.4937 169.617 60.4937 169.861 60.449C170.087 60.3805 170.297 60.2707 170.483 60.1252C170.665 59.9676 170.819 59.7791 170.936 59.5684C171.031 59.4029 171.101 59.2239 171.143 59.0375C171.253 58.6744 171.253 58.2868 171.143 57.9238C170.927 57.4361 170.556 57.0335 170.088 56.7782C169.62 56.523 169.08 56.4295 168.553 56.5123C167.341 56.8195 166.266 57.5211 165.497 58.5065C165.251 58.7914 164.785 59.4001 164.5 59.8015C162.687 58.0662 160.058 55.567 156.73 52.9511C167.608 45.4144 176.763 42.9022 188.34 43.8864C188.435 43.8984 188.53 43.8724 188.605 43.8141C188.681 43.7558 188.73 43.67 188.742 43.5756C188.754 43.4811 188.728 43.3858 188.669 43.3105C188.611 43.2352 188.525 43.1862 188.431 43.1742Z" fill="#EDEFF1"/>
</g>
<defs>
<clipPath id="clip0_9_122403">
<rect width="188.611" height="72" fill="white"/>
</clipPath>
</defs>
</svg>
