<svg width="296" height="84" viewBox="0 0 296 84" fill="none" xmlns="http://www.w3.org/2000/svg">
<g clip-path="url(#clip0_9_121992)">
<path d="M106.966 39.9923V24.4287H102.633V40.2214C102.633 43.7687 101.322 44.8194 99.1214 44.8194C98.0707 44.8194 97.2175 44.6535 96.463 44.4244L96.1035 47.8729C96.9251 48.0704 97.8455 48.2007 98.8607 48.2007C105.552 48.2007 106.966 44.1953 106.966 39.9923Z" fill="#EDEFF1"/>
<path d="M144.062 21.9314C145.279 21.9314 146.231 20.9123 146.231 19.6996C146.231 18.4514 145.279 17.4678 144.062 17.4678C142.846 17.4678 141.894 18.4869 141.894 19.6996C141.894 20.9479 142.849 21.9314 144.062 21.9314Z" fill="#EDEFF1"/>
<path d="M146.757 17.2706C147.906 17.2706 148.791 16.3502 148.791 15.2007C148.791 14.0512 147.906 13.1309 146.757 13.1309C145.639 13.1309 144.754 14.0512 144.754 15.2007C144.754 16.3502 145.639 17.2706 146.757 17.2706Z" fill="#EDEFF1"/>
<path d="M147.313 19.6996C147.313 20.9479 148.265 21.9314 149.514 21.9314C150.73 21.9314 151.682 20.9123 151.682 19.6996C151.682 18.4514 150.73 17.4678 149.514 17.4678C148.265 17.4678 147.313 18.483 147.313 19.6996Z" fill="#EDEFF1"/>
<path d="M155.719 21.9314C156.968 21.9314 157.92 20.9123 157.92 19.6996C157.92 18.4514 156.968 17.4678 155.719 17.4678C154.503 17.4678 153.551 18.4869 153.551 19.6996C153.551 20.9479 154.503 21.9314 155.719 21.9314Z" fill="#EDEFF1"/>
<path d="M161.171 21.9314C162.387 21.9314 163.339 20.9123 163.339 19.6996C163.339 18.4514 162.387 17.4678 161.171 17.4678C159.954 17.4678 159.002 18.4869 159.002 19.6996C159.002 20.9479 159.954 21.9314 161.171 21.9314Z" fill="#EDEFF1"/>
<path d="M190.39 32.2103C190.39 28.9593 189.963 25.74 189.339 23.1131L185.104 23.7056C185.661 26.2021 186.056 29.224 186.056 32.5066C186.056 33.5257 185.958 35.1334 185.827 36.4449H184.678C181.786 36.4449 181.067 35.5245 181.067 32.7989V25.0842H176.928V32.9332C176.928 35.2954 176.402 36.7095 174.498 36.7095C172.563 36.7095 172.002 35.3625 172.002 32.9016V26.3996H167.668V32.3446C167.668 35.5956 166.847 36.4488 164.714 36.4488H164.157H163.663H161.234V24.4285H156.9V36.4449H152.796H152.302H149.577V24.4285H145.243V36.4449H141.175H140.645H138.382V31.8193C138.382 27.0238 136.083 24.0058 130.798 24.0058C125.279 24.0058 122.423 27.8138 122.423 32.5105C122.423 35.4968 121.539 36.4488 119.958 36.4488H119.797H119.303H116.514V16.7139H112.185V39.8618H119.307H119.8H119.804C121.772 39.8618 123.316 39.0401 124.138 37.3337C125.121 38.9414 127.029 39.8618 130.9 39.8618H140.649H141.179H152.306H152.8H163.667H164.161H164.682C167.111 39.8618 168.458 39.0085 169.051 37.4324C169.608 39.1389 171.314 40.158 173.712 40.158C175.782 40.158 177.686 39.2732 178.472 37.4324C179.195 39.206 180.937 39.8618 183.793 39.8618H189.9C190.192 37.5312 190.39 34.6081 190.39 32.2103ZM134.151 36.4488H131.327C127.946 36.4488 126.697 35.0031 126.697 32.1155C126.697 29.3228 128.108 27.4188 130.505 27.4188C132.903 27.4188 134.151 28.8645 134.151 32.313V36.4488Z" fill="#EDEFF1"/>
<path d="M209.497 16.7139H205.164V36.4488H195.016V39.8618H209.497V16.7139Z" fill="#EDEFF1"/>
<path d="M202.766 33.9836L197.971 16.4805L193.669 17.073L198.366 33.9836H202.766Z" fill="#EDEFF1"/>
<path d="M219.376 16.7139H215.043V39.8618H219.376V16.7139Z" fill="#EDEFF1"/>
<path d="M247.414 39.8618V31.5546C247.414 26.9567 245.115 24.002 239.992 24.002C234.28 24.002 231.42 27.8099 231.42 32.2775C231.42 36.9071 233.818 39.8618 240.221 39.8618H247.414ZM235.757 31.8509C235.757 29.2912 237.203 27.4188 239.664 27.4188C241.864 27.4188 243.176 28.7974 243.176 32.08V36.4489H240.679C237.27 36.4489 235.757 34.936 235.757 31.8509Z" fill="#EDEFF1"/>
<path d="M242.425 21.9314C243.642 21.9314 244.594 20.9123 244.594 19.6996C244.594 18.4514 243.642 17.4678 242.425 17.4678C241.209 17.4678 240.257 18.4869 240.257 19.6996C240.257 20.9479 241.209 21.9314 242.425 21.9314Z" fill="#EDEFF1"/>
<path d="M236.974 21.9314C238.223 21.9314 239.175 20.9123 239.175 19.6996C239.175 18.4514 238.223 17.4678 236.974 17.4678C235.758 17.4678 234.806 18.4869 234.806 19.6996C234.806 20.9479 235.758 21.9314 236.974 21.9314Z" fill="#EDEFF1"/>
<path d="M256.575 39.9923V24.4287H252.242V40.2214C252.242 43.7687 250.93 44.8194 248.73 44.8194C247.679 44.8194 246.826 44.6535 246.071 44.4244L245.708 47.8729C246.53 48.0704 247.45 48.2007 248.465 48.2007C255.161 48.2007 256.575 44.1953 256.575 39.9923Z" fill="#EDEFF1"/>
<path d="M266.126 16.7139H261.793V39.8618H266.126V16.7139Z" fill="#EDEFF1"/>
<path d="M264.945 47.8729C265.767 48.0704 266.687 48.2007 267.703 48.2007C274.402 48.2007 275.812 44.1953 275.812 39.9923V24.4287H271.479V40.2214C271.479 43.7687 270.167 44.8194 267.967 44.8194C266.916 44.8194 266.063 44.6535 265.309 44.4244L264.945 47.8729Z" fill="#EDEFF1"/>
<path d="M273.647 21.6715C274.896 21.6715 275.915 20.6523 275.915 19.408C275.915 18.1598 274.896 17.1406 273.647 17.1406C272.399 17.1406 271.38 18.1598 271.38 19.408C271.38 20.6839 272.399 21.6715 273.647 21.6715Z" fill="#EDEFF1"/>
<path d="M288.188 24.002C282.148 24.002 279.485 27.9403 279.485 32.242C279.485 36.9032 281.883 39.8618 288.286 39.8618H290.846V40.3556C290.846 43.4407 288.579 44.7245 285.166 44.7245C282.606 44.7245 280.042 44.1675 280.042 44.1675L279.778 47.7147C279.778 47.7147 282.306 48.1413 284.771 48.1413C292.126 48.1413 295.049 44.4637 295.049 39.9329V25.1514C295.053 25.1514 292.063 24.002 288.188 24.002ZM290.85 36.4489H288.748C285.3 36.4489 283.823 34.8412 283.823 31.8509C283.823 29.2912 285.268 27.4188 287.729 27.4188C289.602 27.4188 290.85 28.0114 290.85 28.0114V36.4489Z" fill="#EDEFF1"/>
<path d="M107.669 52.3165L105.339 59.3319C104.999 60.3353 104.774 61.1016 104.576 62.1444H104.537C104.355 61.1806 104.114 60.2563 103.794 59.2924L101.519 52.3165H98.4656L96.376 65.8813H99.0305L99.7929 59.6321C99.9548 58.4471 100.093 57.3806 100.176 56.1758H100.216C100.377 57.262 100.717 58.4866 101.081 59.5926L103.15 65.8813H105.742L107.891 59.0673C108.23 58.0007 108.452 57.0369 108.633 56.1718H108.673C108.772 57.1159 108.894 58.1192 109.095 59.407L110.059 65.8773H112.813L110.703 52.3125H107.669V52.3165Z" fill="#EDEFF1"/>
<path d="M116.107 51.4951C115.223 51.4951 114.52 52.1982 114.52 53.0436C114.52 53.9087 115.223 54.6118 116.107 54.6118C116.992 54.6118 117.715 53.9087 117.715 53.0436C117.715 52.1785 116.992 51.4951 116.107 51.4951Z" fill="#EDEFF1"/>
<path d="M117.391 55.8955H114.819V65.8854H117.391V55.8955Z" fill="#EDEFF1"/>
<path d="M125.872 55.6738C124.245 55.6738 123.079 56.4994 122.475 57.6845L122.455 57.6647C122.554 57.1433 122.597 56.3572 122.597 55.895H120.164V65.885H122.736V61.0618C122.736 59.3119 123.763 57.8267 125.066 57.8267C126.01 57.8267 126.291 58.4508 126.291 59.4936V65.885H128.843V58.8695C128.846 57.1196 128.124 55.6738 125.872 55.6738Z" fill="#EDEFF1"/>
<path d="M134.21 55.8955H131.639V65.8854H134.21V55.8955Z" fill="#EDEFF1"/>
<path d="M132.923 51.4951C132.038 51.4951 131.335 52.1982 131.335 53.0436C131.335 53.9087 132.038 54.6118 132.923 54.6118C133.808 54.6118 134.531 53.9087 134.531 53.0436C134.531 52.1785 133.808 51.4951 132.923 51.4951Z" fill="#EDEFF1"/>
<path d="M139.073 58.6483C139.073 58.0242 139.555 57.6252 140.559 57.6252C141.183 57.6252 141.847 57.724 142.407 57.8859L142.486 55.8555C141.886 55.7568 141.242 55.6738 140.657 55.6738C137.845 55.6738 136.415 57.1196 136.415 58.8695C136.415 62.2666 140.456 61.2593 140.456 63.029C140.456 63.6926 139.812 64.0956 138.829 64.0956C138.066 64.0956 137.3 63.9533 136.68 63.7953L136.62 65.9047C137.264 66.0035 137.987 66.0864 138.71 66.0864C141.444 66.0864 143.17 64.7592 143.17 62.792C143.174 59.5529 139.073 60.2758 139.073 58.6483Z" fill="#EDEFF1"/>
<path d="M148.376 52.1387L145.804 52.822V55.8953H144.094V57.8861H145.824V62.9502C145.824 65.2808 146.507 66.0867 148.719 66.0867C149.423 66.0867 150.165 65.9879 150.809 65.826V63.7561C150.446 63.8548 149.983 63.918 149.565 63.918C148.68 63.918 148.38 63.5546 148.38 62.2708V57.8901H150.813V55.8992H148.38V52.1387H148.376Z" fill="#EDEFF1"/>
<path d="M155.186 57.9057H155.146C155.269 57.2026 155.328 56.3967 155.328 55.8951H152.895V65.885H155.466V61.8045C155.466 59.0315 156.39 57.8267 158.239 58.2059L158.362 55.6739C156.635 55.5356 155.668 56.6377 155.186 57.9057Z" fill="#EDEFF1"/>
<path d="M164.734 59.2926C164.41 60.2367 163.991 61.564 163.77 62.4686H163.75C163.529 61.564 163.268 60.5804 162.964 59.7153L161.617 55.8955H158.765L162.443 65.8854L162.103 66.8493C161.581 68.3345 161.017 68.7177 160.175 68.7177C159.693 68.7177 159.271 68.6387 158.808 68.4965L158.646 70.7086C159.069 70.8073 159.61 70.8705 160.053 70.8705C162.344 70.8705 163.391 69.9265 164.576 66.8098L168.672 55.8955H165.919L164.734 59.2926Z" fill="#EDEFF1"/>
<path d="M178.875 55.6934C175.841 55.6934 173.771 57.9449 173.771 61.0577C173.771 64.6168 175.6 66.0823 178.433 66.0823C181.427 66.0823 183.536 63.8307 183.536 60.6982C183.54 57.2616 181.711 55.6934 178.875 55.6934ZM178.658 63.8939C177.169 63.8939 176.426 62.8471 176.426 60.797C176.426 58.7468 177.552 57.862 178.697 57.862C180.206 57.862 180.886 58.9088 180.886 60.8365C180.886 62.8668 179.922 63.8939 178.658 63.8939Z" fill="#EDEFF1"/>
<path d="M186.132 55.0898V55.8917H184.382V57.8826H186.132V65.8817H188.684V57.8826H191.014V55.8917H188.684V55.0464C188.684 53.7191 189.185 53.1385 190.311 53.1385C190.694 53.1385 191.156 53.178 191.555 53.3202L191.737 51.2108C191.216 51.0883 190.651 51.0488 190.11 51.0488C187.376 51.0528 186.132 52.38 186.132 55.0898Z" fill="#EDEFF1"/>
<path d="M199.732 52.3164H197.121V65.8812H199.732V52.3164Z" fill="#EDEFF1"/>
<path d="M208.232 55.6738C206.605 55.6738 205.44 56.4994 204.835 57.6845L204.816 57.6647C204.914 57.1433 204.954 56.3572 204.954 55.895H202.521V65.885H205.092V61.0618C205.092 59.3119 206.115 57.8267 207.423 57.8267C208.367 57.8267 208.647 58.4508 208.647 59.4936V65.885H211.199V58.8695C211.207 57.1196 210.484 55.6738 208.232 55.6738Z" fill="#EDEFF1"/>
<path d="M218.377 60.4777C218.136 61.1611 217.934 61.9235 217.773 62.6069H217.733C217.551 61.884 217.31 61.0782 217.069 60.3948L215.481 55.8916H212.669L216.366 65.8815H218.977L222.714 55.8916H219.981L218.377 60.4777Z" fill="#EDEFF1"/>
<path d="M228.142 55.6738C225.148 55.6738 223.461 57.9254 223.461 60.9789C223.461 64.4945 225.231 66.0825 228.407 66.0825C229.651 66.0825 230.919 65.8613 231.985 65.4386L231.744 63.4477C230.879 63.8506 229.817 64.0719 228.829 64.0719C226.981 64.0719 226.056 63.1673 226.076 61.2988H232.266C232.325 60.8762 232.345 60.4733 232.345 60.1335C232.345 57.6647 231.057 55.6738 228.142 55.6738ZM226.111 59.5529C226.254 58.3481 226.996 57.562 228.063 57.562C229.149 57.562 229.833 58.3046 229.789 59.5529H226.111Z" fill="#EDEFF1"/>
<path d="M236.583 58.6483C236.583 58.0242 237.065 57.6252 238.072 57.6252C238.697 57.6252 239.36 57.724 239.921 57.8859L240 55.8555C239.396 55.7568 238.756 55.6738 238.171 55.6738C235.359 55.6738 233.929 57.1196 233.929 58.8695C233.929 62.2666 237.97 61.2593 237.97 63.029C237.97 63.6926 237.326 64.0956 236.342 64.0956C235.58 64.0956 234.814 63.9533 234.193 63.7953L234.134 65.9047C234.778 66.0035 235.501 66.0864 236.224 66.0864C238.957 66.0864 240.683 64.7592 240.683 62.792C240.68 59.5529 236.583 60.2758 236.583 58.6483Z" fill="#EDEFF1"/>
<path d="M245.885 52.1387L243.314 52.822V55.8953H241.607V57.8861H243.334V62.9502C243.334 65.2808 244.017 66.0867 246.229 66.0867C246.932 66.0867 247.675 65.9879 248.319 65.826V63.7561C247.955 63.8548 247.493 63.918 247.07 63.918C246.186 63.918 245.885 63.5546 245.885 62.2708V57.8901H248.319V55.8992H245.885V52.1387Z" fill="#EDEFF1"/>
<path d="M262.041 55.6738C260.355 55.6738 259.249 56.7009 258.787 57.6845C258.546 56.7206 257.803 55.6738 256.033 55.6738C254.548 55.6738 253.339 56.4599 252.739 57.6845H252.699C252.798 57.0998 252.838 56.3572 252.838 55.895H250.404V65.885H252.976V61.1013C252.976 59.2329 254.082 57.8267 255.267 57.8267C256.251 57.8267 256.452 58.5693 256.452 59.5529V65.885H258.984V61.1013C258.984 59.1539 260.149 57.8267 261.275 57.8267C262.219 57.8267 262.46 58.4903 262.46 59.5529V65.885H265.032V59.0117C265.036 56.7404 263.969 55.6738 262.041 55.6738Z" fill="#EDEFF1"/>
<path d="M271.783 55.6738C268.788 55.6738 267.102 57.9254 267.102 60.9789C267.102 64.4945 268.871 66.0825 272.047 66.0825C273.291 66.0825 274.559 65.8613 275.622 65.4386L275.381 63.4477C274.516 63.8506 273.453 64.0719 272.466 64.0719C270.617 64.0719 269.693 63.1673 269.713 61.2988H275.903C275.962 60.8762 275.981 60.4733 275.981 60.1335C275.985 57.6647 274.698 55.6738 271.783 55.6738ZM269.756 59.5529C269.898 58.3481 270.641 57.562 271.707 57.562C272.794 57.562 273.477 58.3046 273.434 59.5529H269.756Z" fill="#EDEFF1"/>
<path d="M283.839 55.6738C282.211 55.6738 281.046 56.4994 280.442 57.6845L280.422 57.6647C280.521 57.1433 280.56 56.3572 280.56 55.895H278.127V65.885H280.698V61.0618C280.698 59.3119 281.722 57.8267 283.029 57.8267C283.973 57.8267 284.254 58.4508 284.254 59.4936V65.885H286.805V58.8695C286.813 57.1196 286.09 55.6738 283.839 55.6738Z" fill="#EDEFF1"/>
<path d="M292.62 52.1387L290.048 52.822V55.8953H288.342V57.8861H290.068V62.9502C290.068 65.2808 290.751 66.0867 292.963 66.0867C293.667 66.0867 294.409 65.9879 295.053 65.826V63.7561C294.69 63.8548 294.228 63.918 293.805 63.918C292.92 63.918 292.62 63.5546 292.62 62.2708V57.8901H295.053V55.8992H292.62V52.1387Z" fill="#EDEFF1"/>
<path d="M30.6179 21.4377C23.9066 23.9184 24.9731 30.2307 24.9731 30.2307C25.2733 29.3025 27.3551 25.135 31.3329 24.1554C26.885 28.706 28.1451 34.3982 28.1451 34.3982C28.2952 33.6713 29.5632 27.8646 33.9755 26.644C31.2341 30.2465 32.3402 34.9077 32.6206 35.915C32.6206 34.1177 34.4377 30.9852 35.5516 29.5592C36.6774 31.8898 36.5194 36.3653 36.5194 36.3653H35.6859L36.4997 41.6585H35.84L36.4681 46.9517H35.923L36.6103 53.7223L34.2283 55.018V55.334H40.912V55.018L38.5301 53.7223L39.2174 46.9517H38.6723L39.3003 41.6585H38.6446L39.4544 36.3653H38.6209C38.6209 36.3653 38.459 31.8859 39.5887 29.5592C40.7026 30.9852 42.5197 34.1177 42.5197 35.915C42.8002 34.9077 43.9062 30.2465 41.1609 26.644C45.5771 27.8646 46.8451 33.6713 46.9913 34.3982C46.9913 34.3982 48.2514 28.706 43.7996 24.1554C47.7813 25.135 49.863 29.3025 50.1593 30.2307C50.1593 30.2307 51.2219 23.9184 44.5145 21.4377C44.6528 21.4377 44.9451 21.3547 45.4231 21.3547C46.8846 21.3547 49.0809 21.9749 50.6096 22.6938C50.6096 22.6938 49.1283 18.9135 43.3611 18.9135C43.132 18.9135 42.9463 18.9254 42.9463 18.9254C42.9463 18.9254 43.1438 17.4875 45.7667 17.4875C46.6358 17.4875 47.3547 17.6298 47.3547 17.6298C47.3547 17.6298 45.8418 16.2274 43.5862 16.2274C40.9633 16.2274 39.2687 18.325 38.9804 18.6133C37.8388 17.7838 39.2332 16.4131 39.8178 16.0339C39.8178 16.0339 39.6005 15.8956 39.2529 15.8956C38.8263 15.8956 38.4392 16.1563 38.3049 16.3104C38.3049 16.3104 38.1745 15.1965 39.1779 14.7422C38.4827 14.7422 37.5583 15.4177 37.5583 15.6428C37.5583 15.4177 36.6379 14.7422 35.9427 14.7422C36.946 15.1965 36.8157 16.3104 36.8157 16.3104C36.6814 16.1563 36.2943 15.8956 35.8677 15.8956C35.52 15.8956 35.3028 16.0339 35.3028 16.0339C35.8835 16.4131 37.2779 17.7838 36.1402 18.6133C35.8518 18.325 34.1533 16.2274 31.5304 16.2274C29.2748 16.2274 27.7619 17.6298 27.7619 17.6298C27.7619 17.6298 28.4809 17.4875 29.3499 17.4875C31.9688 17.4875 32.1703 18.9254 32.1703 18.9254C32.1703 18.9254 31.9846 18.9135 31.7555 18.9135C25.9883 18.9135 24.507 22.6938 24.507 22.6938C26.0357 21.9749 28.232 21.3547 29.6936 21.3547C30.1873 21.3547 30.4796 21.4377 30.6179 21.4377ZM57.1432 50.9769C49.4996 50.9769 37.5899 58.8298 37.5899 58.8298L37.5702 58.8417L37.5504 58.8298C37.5504 58.8298 25.6407 50.9769 17.9972 50.9769C13.8653 50.9769 11.7796 52.399 11.1357 52.9955C12.1786 52.3753 15.1096 52.4148 15.1096 52.4148C17.7562 52.4148 21.5049 53.3786 24.2265 54.6782C30.2584 57.5539 34.9868 60.406 34.9868 60.406L35.046 60.4415L29.1445 64.1823C29.1445 64.1823 27.1418 61.7885 25.376 61.7885C24.2344 61.7885 24.029 62.4561 24.029 62.7563C24.029 63.0526 24.2107 63.6727 24.9652 63.6727C25.7158 63.6727 25.7513 63.1513 25.7513 62.9775C25.8501 63.017 25.9251 63.0012 26.0239 63.1434C26.1226 63.2856 27.284 65.1185 27.284 65.1185C27.284 65.1185 23.5392 67.1923 23.2746 67.1923C23.081 67.1923 22.7136 66.7381 22.3502 66.7381C21.9868 66.7381 21.9947 67.0699 21.9947 67.1252C21.9947 67.3266 22.9111 68.8869 24.2107 68.8869C24.4122 68.8869 25.0877 68.9225 25.4432 68.7882C26.8771 68.2391 28.4769 67.4491 28.8324 67.2516C28.8324 67.2516 30.1241 68.8632 31.0287 68.8632C31.0287 68.8632 31.3566 68.8711 31.479 68.8711C31.9333 68.8711 32.4389 68.7645 32.4389 68.7645C32.4389 68.7645 33.1262 69.2503 33.6437 69.2503C34.1651 69.2503 34.7458 68.9462 34.7458 68.3418C34.7458 67.7374 34.3389 67.3424 33.7938 67.3424C33.2487 67.3424 32.9761 67.8164 32.9761 68.014C32.8379 68.014 32.7352 68.0219 32.7352 68.0219L30.9102 66.0981L37.582 61.9979L44.2578 66.0981L42.4289 68.0219C42.4289 68.0219 42.3301 68.014 42.1879 68.014C42.1879 67.8164 41.9153 67.3424 41.3702 67.3424C40.8251 67.3424 40.4222 67.7414 40.4222 68.3418C40.4222 68.9462 40.9989 69.2503 41.5203 69.2503C42.0417 69.2503 42.7291 68.7645 42.7291 68.7645C42.7291 68.7645 43.2347 68.8711 43.6889 68.8711C43.8114 68.8711 44.1393 68.8632 44.1393 68.8632C45.0439 68.8632 46.3356 67.2516 46.3356 67.2516C46.6911 67.4491 48.2909 68.2391 49.7248 68.7882C50.0803 68.9225 50.7558 68.8869 50.9572 68.8869C52.2529 68.8869 53.1733 67.3266 53.1733 67.1252C53.1733 67.0699 53.1812 66.7381 52.8178 66.7381C52.4543 66.7381 52.087 67.1923 51.8934 67.1923C51.6288 67.1923 47.884 65.1185 47.884 65.1185C47.884 65.1185 49.0414 63.2856 49.1402 63.1434C49.2389 63.0052 49.314 63.021 49.4127 62.9775C49.4127 63.1513 49.4443 63.6727 50.1988 63.6727C50.9493 63.6727 51.135 63.0526 51.135 62.7563C51.135 62.4561 50.9296 61.7885 49.788 61.7885C48.0183 61.7885 46.0195 64.1823 46.0195 64.1823L40.118 60.4415L40.1773 60.406C40.1773 60.406 44.9095 57.5579 50.9375 54.6782C53.6591 53.3786 57.4078 52.4148 60.0544 52.4148C60.0544 52.4148 62.9894 52.3753 64.0283 52.9955C63.3607 52.399 61.279 50.9769 57.1432 50.9769Z" fill="#EDEFF1"/>
<path d="M75.1398 84H0V0H75.1398V84ZM4.26222 79.7378H70.8776V4.26222H4.26222V79.7378Z" fill="#EDEFF1"/>
</g>
<defs>
<clipPath id="clip0_9_121992">
<rect width="295.053" height="84" fill="white"/>
</clipPath>
</defs>
</svg>
