<svg width="176" height="62" viewBox="0 0 176 62" fill="none" xmlns="http://www.w3.org/2000/svg">
<path d="M64.9802 6.99461C70.9928 6.99461 71.7459 13.18 71.7459 13.18L78.9066 11.5009C78.8613 11.324 77.6226 0.624023 64.9802 0.624023C57.1569 0.624023 49.8604 5.39785 49.8604 17.5999C49.8604 29.7114 57.552 34.3536 65.5111 34.3536C70.9475 34.3536 74.7501 32.5428 76.0752 31.7897C77.7996 30.7732 78.7708 29.802 78.7708 27.7237V20.2543C78.7708 18.3077 77.4868 17.1143 75.3674 17.1143H65.5522V22.6412H71.6965V26.9253C71.6965 26.9253 69.5318 28.3863 65.7292 28.3863C61.7085 28.3863 57.5067 25.9541 57.5067 17.5958C57.5067 9.42267 61.1776 6.99461 64.9802 6.99461Z" fill="#EDEFF1"/>
<path d="M96.8094 0.583008C93.801 0.583008 91.9903 1.867 91.1055 4.5173L81.3809 33.9133L89.0684 33.9175C89.6157 33.9134 90.2412 33.5841 90.6157 33.2178L99.8712 24.0735C100.065 23.8801 100.011 23.7895 99.7889 23.7895L98.5378 23.7937C98.0193 23.7937 97.5213 23.9212 97.0769 24.1846L90.8503 27.765L96.7682 7.79313C96.7682 7.79313 103.793 31.975 104.369 33.9175H112.283L102.69 4.47614C101.892 2.00281 99.863 0.583008 96.8094 0.583008Z" fill="#EDEFF1"/>
<path d="M128.593 6.90386C134.601 6.90386 135.4 13.5337 135.4 13.5337L142.56 12.0316C142.56 12.0316 141.499 0.62793 128.589 0.62793C120.765 0.62793 113.469 5.27418 113.469 17.4721C113.469 29.5795 120.72 34.4027 128.543 34.4027C141.186 34.4027 142.556 23.2624 142.556 23.2624L135.395 21.7151C135.395 21.7151 134.819 28.1227 128.675 28.1227C124.877 28.1227 121.16 25.6905 121.16 17.4721C121.169 9.29078 124.794 6.90386 128.593 6.90386Z" fill="#EDEFF1"/>
<path d="M159.807 0.583008C156.799 0.583008 154.984 1.867 154.104 4.5173L144.379 33.9133L152.066 33.9175C152.614 33.9134 153.239 33.5841 153.614 33.2178L162.869 24.0735C163.059 23.8801 163.005 23.7895 162.787 23.7895L161.536 23.7937C161.017 23.7937 160.515 23.9212 160.075 24.1846L153.848 27.765L159.762 7.79313C159.762 7.79313 166.791 31.975 167.363 33.9175H175.277L165.684 4.47614C164.886 2.00281 162.857 0.583008 159.807 0.583008Z" fill="#EDEFF1"/>
<path d="M47.4492 34.0037C47.5603 34.0037 47.6385 33.9008 47.6467 33.7691C47.655 33.6662 47.6015 33.5798 47.5315 33.5346C43.6507 32.2753 40.6383 28.983 39.9634 24.1351L38.1444 11.1922C37.3007 5.17969 32.8685 1.07666 27.6996 0.977894L1.15546 0.973781C1.04435 0.969665 0.966156 1.05198 0.957926 1.16309C0.949695 1.26597 0.999079 1.37297 1.07316 1.39355C4.95394 2.65697 7.96228 5.97806 8.64131 10.8301L10.4603 23.7729C11.3081 29.7649 15.7362 33.8885 20.901 34.0078L47.4492 34.0037Z" fill="#EDEFF1"/>
<path d="M31.411 22.7807L30.201 22.7725C30.0652 22.7725 29.8389 22.793 29.7031 22.8548L15.2211 28.3735C15.11 28.4187 15.11 28.464 15.2458 28.464L19.9743 28.4681C20.5464 28.4681 20.9209 28.4722 21.5011 28.1677L31.4398 22.8918C31.5468 22.826 31.5468 22.7807 31.411 22.7807Z" fill="white"/>
<path d="M21.5313 22.7731L24.4244 23.9089L22.9223 24.481L19.7987 22.8183C19.6876 22.7484 19.6876 22.7072 19.8193 22.7031L21.0292 22.699C21.1609 22.6908 21.3913 22.7114 21.5313 22.7731Z" fill="white"/>
<path d="M36.1275 28.4649L31.3948 28.4691C30.831 28.4691 30.4524 28.4732 29.8722 28.1686L26.6416 26.4525L28.51 25.4648L36.1522 28.3744C36.2633 28.4238 36.2633 28.4649 36.1275 28.4649Z" fill="white"/>
<path d="M25.6872 22.0326C25.1686 22.0285 24.6665 17.872 24.5513 12.5261V12.522C24.2838 12.5838 23.9957 12.6825 23.7941 12.7484C22.2591 13.2422 20.2878 14.0982 19.0902 14.8266C19.0573 14.8472 19.0161 14.8431 18.9915 14.8102C18.9832 14.7978 18.9791 14.7855 18.975 14.7731C18.9009 14.197 18.9956 13.6455 19.4277 13.2299C19.8721 12.7978 20.436 12.415 20.9545 12.0817C21.6129 11.6537 22.2961 11.2627 23.0163 10.9417C23.2056 10.8512 23.4443 10.7442 23.6295 10.666C22.4278 9.96638 20.9545 9.38612 19.901 9.04043C19.868 9.0322 19.8516 8.99927 19.8598 8.97047C19.8639 8.95812 19.868 8.94989 19.8763 8.94166C20.2137 8.61243 20.6006 8.3902 21.0821 8.43958C21.5018 8.48073 21.9257 8.59185 22.3331 8.69062C22.7899 8.80173 23.2385 8.92931 23.683 9.07335C23.9381 9.15566 24.1892 9.24619 24.4402 9.34496C24.4814 9.36142 24.5225 9.37789 24.5637 9.39435C24.72 7.94986 25.1604 6.89221 25.683 6.90044C26.2016 6.89221 26.646 7.94986 26.8024 9.39435C26.8436 9.37789 26.8888 9.36142 26.9259 9.34496C27.1769 9.24619 27.428 9.15566 27.6831 9.07335C28.1276 8.92931 28.5803 8.80173 29.033 8.69062C29.4404 8.59185 29.8643 8.48073 30.284 8.43958C30.7655 8.3902 31.1524 8.61243 31.4898 8.94166C31.4981 8.94989 31.5022 8.95812 31.5063 8.97047C31.5145 8.99927 31.4939 9.0322 31.4651 9.04043C30.4157 9.39023 28.9383 9.9705 27.7366 10.666C27.9218 10.7442 28.1605 10.8512 28.3498 10.9417C29.07 11.2586 29.749 11.6537 30.4116 12.0817C30.9301 12.4191 31.4939 12.7978 31.9384 13.2299C32.3705 13.6496 32.4652 14.2011 32.3911 14.7731C32.3911 14.7855 32.3829 14.7978 32.3746 14.8102C32.3499 14.839 32.3088 14.8472 32.2759 14.8266C31.0742 14.0982 29.1029 13.2422 27.572 12.7484C27.3703 12.6825 27.0823 12.5838 26.8148 12.522V12.5261C26.7078 17.872 26.2057 22.0285 25.6872 22.0326Z" fill="white"/>
<path d="M50.9062 56.5894C50.9062 54.7005 51.9022 53.4453 53.4125 53.4453C54.4084 53.4453 55.0175 54.0297 55.3673 54.7416L54.536 55.1244C54.3138 54.6799 53.9434 54.3425 53.4125 54.3425C52.5359 54.3425 51.9474 55.2108 51.9474 56.5936C51.9474 57.9722 52.5359 58.8488 53.4125 58.8488C53.8652 58.8488 54.2356 58.6389 54.4372 58.4125V57.2808H53.145V56.396H55.4043V58.8117C54.9146 59.3879 54.2603 59.7542 53.4125 59.7542C51.9022 59.75 50.9062 58.4702 50.9062 56.5894Z" fill="#EDEFF1"/>
<path d="M56.3633 57.42C56.3633 56.1402 57.0835 55.1113 58.2728 55.1113C59.4786 55.1113 60.1247 56.1237 60.1247 57.4612V57.7246H57.2933C57.3304 58.4448 57.7337 58.9921 58.4539 58.9921C58.8037 58.9921 59.1988 58.8193 59.458 58.5188L59.9025 59.0621C59.5239 59.4942 58.9601 59.737 58.3633 59.737C57.137 59.737 56.3633 58.7905 56.3633 57.42ZM58.2646 55.848C57.5732 55.848 57.3139 56.5435 57.2851 57.0702H59.2276C59.2193 56.527 58.9724 55.848 58.2646 55.848Z" fill="#EDEFF1"/>
<path d="M63.6018 59.63V56.6258C63.6018 56.1031 63.359 55.9138 62.9639 55.9138C62.5689 55.9138 62.2273 56.2142 62.0586 56.527V59.63H61.1367V55.2224H62.0586V55.8109C62.2972 55.457 62.7993 55.1113 63.3508 55.1113C64.1533 55.1113 64.5195 55.5476 64.5195 56.3048V59.63H63.6018Z" fill="#EDEFF1"/>
<path d="M65.5732 57.42C65.5732 56.1402 66.2934 55.1113 67.4828 55.1113C68.6886 55.1113 69.3388 56.1237 69.3388 57.4612V57.7246H66.5074C66.5486 58.4448 66.9519 58.9921 67.668 58.9921C68.0178 58.9921 68.4128 58.8193 68.6721 58.5188L69.1166 59.0621C68.738 59.4942 68.1783 59.737 67.5774 59.737C66.3469 59.737 65.5732 58.7905 65.5732 57.42ZM67.4745 55.848C66.7832 55.848 66.5239 56.5435 66.4992 57.0702H68.4458C68.4293 56.527 68.1824 55.848 67.4745 55.848Z" fill="#EDEFF1"/>
<path d="M70.3525 59.6306V55.223H71.2744V55.8691C71.5336 55.4452 72.0028 55.1201 72.5008 55.1201V56.0255C72.4267 56.009 72.3403 56.0008 72.2621 56.0008C71.8835 56.0008 71.4596 56.2806 71.2744 56.6099V59.6306H70.3525Z" fill="#EDEFF1"/>
<path d="M75.6757 59.63V59.1814C75.4082 59.5436 74.9555 59.737 74.5028 59.737C73.7826 59.737 73.1406 59.2102 73.1406 58.2678C73.1406 57.3172 73.7826 56.8357 74.5028 56.8357C74.9555 56.8357 75.4164 57.0085 75.6757 57.3624V56.7246C75.6757 56.1978 75.3629 55.885 74.8073 55.885C74.4082 55.885 74.0419 56.0414 73.7003 56.3871L73.3382 55.7492C73.7867 55.3006 74.3958 55.1113 74.9678 55.1113C75.902 55.1113 76.5811 55.5393 76.5811 56.6176V59.63H75.6757ZM75.6757 58.6217V57.955C75.4987 57.6464 75.1654 57.4612 74.8362 57.4612C74.3547 57.4612 74.0625 57.811 74.0625 58.2802C74.0625 58.7575 74.3547 59.1032 74.8362 59.1032C75.1695 59.1074 75.4987 58.9263 75.6757 58.6217Z" fill="#EDEFF1"/>
<path d="M78.7832 53.5439H77.8613V59.6306H78.7832V53.5439Z" fill="#EDEFF1"/>
<path d="M85.4594 59.6308L85.1261 58.425H83.1054L82.7721 59.6308H81.665L83.5005 53.54H84.7269L86.5623 59.6308H85.4594ZM84.1219 54.6224L83.3194 57.5319H84.9244L84.1219 54.6224Z" fill="#EDEFF1"/>
<path d="M89.7178 59.6302V59.0458C89.4709 59.408 88.9853 59.7372 88.4174 59.7372C87.6272 59.7372 87.2568 59.3174 87.2568 58.552V55.2227H88.1787V58.2351C88.1787 58.7454 88.4174 58.9347 88.8166 58.9347C89.2034 58.9347 89.545 58.6425 89.7219 58.3339V55.2227H90.6438V59.6302H89.7178Z" fill="#EDEFF1"/>
<path d="M92.0803 58.6423V56.0126H91.5V55.2224H92.0803V54.0166H93.0021V55.2224H93.7429V56.0126H93.0021V58.4488C93.0021 58.7493 93.105 58.9303 93.3437 58.9303C93.4918 58.9303 93.6276 58.8686 93.6935 58.7863L93.9157 59.4736C93.7511 59.6341 93.4959 59.737 93.1132 59.737C92.4095 59.737 92.0803 59.3666 92.0803 58.6423Z" fill="#EDEFF1"/>
<path d="M97.1753 59.6304V56.6097C97.1753 56.0994 96.9284 55.9183 96.5292 55.9183C96.1423 55.9183 95.8008 56.2187 95.6279 56.5315V59.6345H94.7061V53.5479H95.6279V55.8195C95.8666 55.4656 96.3769 55.1199 96.9283 55.1199C97.7185 55.1199 98.0889 55.5315 98.0889 56.3051V59.6386H97.1753V59.6304Z" fill="#EDEFF1"/>
<path d="M99.1426 57.42C99.1426 56.1772 99.8052 55.1113 101.069 55.1113C102.332 55.1113 102.995 56.1813 102.995 57.42C102.995 58.6588 102.332 59.737 101.069 59.737C99.8052 59.737 99.1426 58.6588 99.1426 57.42ZM102.044 57.42C102.044 56.6258 101.739 55.9138 101.064 55.9138C100.394 55.9138 100.089 56.6258 100.089 57.42C100.089 58.2143 100.394 58.9345 101.064 58.9345C101.739 58.9345 102.044 58.2184 102.044 57.42Z" fill="#EDEFF1"/>
<path d="M104.044 59.6306V55.223H104.966V55.8691C105.225 55.4452 105.694 55.1201 106.192 55.1201V56.0255C106.118 56.009 106.036 56.0008 105.949 56.0008C105.575 56.0008 105.147 56.2806 104.966 56.6099V59.6306H104.044Z" fill="#EDEFF1"/>
<path d="M106.949 54.0996C106.949 53.7827 107.217 53.5234 107.529 53.5234C107.842 53.5234 108.102 53.7786 108.102 54.0996C108.102 54.4124 107.842 54.6675 107.529 54.6675C107.217 54.6675 106.949 54.4124 106.949 54.0996ZM107.069 55.2231H107.99V59.6307H107.069V55.2231Z" fill="#EDEFF1"/>
<path d="M109.426 58.6423V56.0126H108.846V55.2224H109.426V54.0166H110.348V55.2224H111.084V56.0126H110.348V58.4488C110.348 58.7493 110.451 58.9303 110.689 58.9303C110.838 58.9303 110.973 58.8686 111.039 58.7863L111.261 59.4736C111.097 59.6341 110.838 59.737 110.459 59.737C109.759 59.737 109.426 59.3666 109.426 58.6423Z" fill="#EDEFF1"/>
<path d="M112.035 60.5479C112.118 60.5932 112.245 60.6138 112.332 60.6138C112.579 60.6138 112.739 60.5233 112.838 60.2475L113.023 59.7208L111.529 55.2227H112.509L113.492 58.5355L114.488 55.2227H115.464L113.702 60.4615C113.451 61.2023 113.019 61.4163 112.394 61.4163C112.258 61.4163 112.015 61.3916 111.896 61.3546L112.035 60.5479Z" fill="#EDEFF1"/>
<path d="M118.121 57.42C118.121 56.1772 118.788 55.1113 120.047 55.1113C121.311 55.1113 121.973 56.1813 121.973 57.42C121.973 58.6588 121.311 59.737 120.047 59.737C118.788 59.737 118.121 58.6588 118.121 57.42ZM121.027 57.42C121.027 56.6258 120.722 55.9138 120.047 55.9138C119.376 55.9138 119.072 56.6258 119.072 57.42C119.072 58.2143 119.376 58.9345 120.047 58.9345C120.722 58.9345 121.027 58.2184 121.027 57.42Z" fill="#EDEFF1"/>
<path d="M123.209 59.6305V56.0131H122.629V55.2229H123.209V54.8114C123.209 53.9554 123.691 53.4492 124.464 53.4492C124.798 53.4492 125.127 53.5439 125.357 53.762L125.045 54.3999C124.921 54.2805 124.802 54.2188 124.629 54.2188C124.308 54.2188 124.131 54.4287 124.131 54.8155V55.2271H124.868V56.0172H124.131V59.6346H123.209V59.6305Z" fill="#EDEFF1"/>
<path d="M127.69 56.5894C127.69 54.7581 128.658 53.4453 130.197 53.4453C131.263 53.4453 131.818 54.112 132.139 54.7869L131.291 55.1614C131.081 54.6799 130.703 54.3425 130.197 54.3425C129.291 54.3425 128.728 55.289 128.728 56.5936C128.728 57.8899 129.287 58.8406 130.197 58.8406C130.728 58.8406 131.11 58.4578 131.3 57.9475L132.147 58.322C131.835 59.034 131.279 59.7418 130.197 59.7418C128.658 59.7377 127.69 58.4167 127.69 56.5894Z" fill="#EDEFF1"/>
<path d="M132.983 54.0996C132.983 53.7827 133.251 53.5234 133.564 53.5234C133.876 53.5234 134.136 53.7786 134.136 54.0996C134.136 54.4124 133.876 54.6675 133.564 54.6675C133.251 54.6675 132.983 54.4124 132.983 54.0996ZM133.103 55.2231H134.025V59.6307H133.103V55.2231Z" fill="#EDEFF1"/>
<path d="M136.239 59.6302L134.773 55.2227H135.749L136.736 58.5438L137.732 55.2227H138.708L137.234 59.6302H136.239Z" fill="#EDEFF1"/>
<path d="M139.324 54.0996C139.324 53.7827 139.592 53.5234 139.904 53.5234C140.217 53.5234 140.477 53.7786 140.477 54.0996C140.477 54.4124 140.217 54.6675 139.904 54.6675C139.592 54.6675 139.324 54.4124 139.324 54.0996ZM139.448 55.2231H140.365V59.6307H139.448V55.2231Z" fill="#EDEFF1"/>
<path d="M142.564 53.5439H141.643V59.6306H142.564V53.5439Z" fill="#EDEFF1"/>
<path d="M149.234 59.6308L148.901 58.425H146.884L146.555 59.6308H145.452L147.283 53.54H148.51L150.345 59.6308H149.234ZM147.897 54.6224L147.094 57.5319H148.699L147.897 54.6224Z" fill="#EDEFF1"/>
<path d="M151.902 59.6302L150.437 55.2227H151.412L152.4 58.5438L153.395 55.2227H154.375L152.898 59.6302H151.902Z" fill="#EDEFF1"/>
<path d="M154.988 54.0996C154.988 53.7827 155.256 53.5234 155.569 53.5234C155.877 53.5234 156.141 53.7786 156.141 54.0996C156.141 54.4124 155.881 54.6675 155.569 54.6675C155.26 54.6675 154.988 54.4124 154.988 54.0996ZM155.108 55.2231H156.029V59.6307H155.108V55.2231Z" fill="#EDEFF1"/>
<path d="M159.604 59.63V59.1814C159.337 59.5436 158.884 59.737 158.432 59.737C157.715 59.737 157.069 59.2102 157.069 58.2678C157.069 57.3172 157.715 56.8357 158.432 56.8357C158.884 56.8357 159.345 57.0085 159.604 57.3624V56.7246C159.604 56.1978 159.292 55.885 158.736 55.885C158.341 55.885 157.971 56.0414 157.629 56.3871L157.271 55.7492C157.724 55.3006 158.333 55.1113 158.905 55.1113C159.839 55.1113 160.518 55.5393 160.518 56.6176V59.63H159.604ZM159.604 58.6217V57.955C159.432 57.6464 159.098 57.4612 158.769 57.4612C158.287 57.4612 157.995 57.811 157.995 58.2802C157.995 58.7575 158.292 59.1032 158.769 59.1032C159.102 59.1074 159.432 58.9263 159.604 58.6217Z" fill="#EDEFF1"/>
<path d="M161.96 58.6423V56.0126H161.38V55.2224H161.96V54.0166H162.882V55.2224H163.623V56.0126H162.882V58.4488C162.882 58.7493 162.985 58.9303 163.224 58.9303C163.372 58.9303 163.508 58.8686 163.573 58.7863L163.796 59.4736C163.627 59.6341 163.372 59.737 162.993 59.737C162.289 59.737 161.96 59.3666 161.96 58.6423Z" fill="#EDEFF1"/>
<path d="M164.466 54.0996C164.466 53.7827 164.733 53.5234 165.046 53.5234C165.359 53.5234 165.618 53.7786 165.618 54.0996C165.618 54.4124 165.359 54.6675 165.046 54.6675C164.733 54.6675 164.466 54.4124 164.466 54.0996ZM164.585 55.2231H165.507V59.6307H164.585V55.2231Z" fill="#EDEFF1"/>
<path d="M166.56 57.42C166.56 56.1772 167.222 55.1113 168.49 55.1113C169.753 55.1113 170.416 56.1813 170.416 57.42C170.416 58.6588 169.749 59.737 168.49 59.737C167.222 59.737 166.56 58.6588 166.56 57.42ZM169.461 57.42C169.461 56.6258 169.156 55.9138 168.486 55.9138C167.811 55.9138 167.506 56.6258 167.506 57.42C167.506 58.2143 167.811 58.9345 168.486 58.9345C169.156 58.9345 169.461 58.2184 169.461 57.42Z" fill="#EDEFF1"/>
<path d="M116.352 42.7322C116.652 42.7322 116.895 42.4894 116.895 42.189C116.895 41.8885 116.652 41.6416 116.352 41.6416C116.052 41.6416 115.805 41.8844 115.805 42.189C115.805 42.4935 116.052 42.7322 116.352 42.7322Z" fill="#EDEFF1"/>
<path d="M118.11 42.7322C118.41 42.7322 118.653 42.4894 118.653 42.189C118.653 41.8885 118.41 41.6416 118.11 41.6416C117.809 41.6416 117.562 41.8844 117.562 42.189C117.562 42.4935 117.805 42.7322 118.11 42.7322Z" fill="#EDEFF1"/>
<path d="M147.696 42.7322C147.996 42.7322 148.239 42.4894 148.239 42.189C148.239 41.8885 147.996 41.6416 147.696 41.6416C147.395 41.6416 147.148 41.8844 147.148 42.189C147.148 42.4935 147.391 42.7322 147.696 42.7322Z" fill="#EDEFF1"/>
<path d="M149.448 42.7322C149.748 42.7322 149.991 42.4894 149.991 42.189C149.991 41.8885 149.748 41.6416 149.448 41.6416C149.147 41.6416 148.9 41.8844 148.9 42.189C148.9 42.4935 149.147 42.7322 149.448 42.7322Z" fill="#EDEFF1"/>
<path d="M160.214 44.0327L160.119 43.3331C159.737 43.399 158.852 43.6665 158.77 43.0615C158.724 42.7446 158.938 42.4524 159.251 42.3907C159.502 42.3413 159.749 42.4278 159.98 42.5142L160.206 41.8475C159.708 41.6952 159.161 41.6335 158.708 41.9504C158.231 42.2837 158.054 42.9792 158.358 43.4854C157.922 43.4978 157.576 43.5101 157.576 43.5101V44.0451C158.091 44.0657 158.609 44.0821 159.124 44.0904C159.21 44.0863 159.852 44.0698 160.214 44.0327Z" fill="#EDEFF1"/>
<path d="M94.4878 49.7002C94.1873 49.7002 93.9404 49.943 93.9404 50.2475C93.9404 50.5521 94.1832 50.7949 94.4878 50.7949C94.7882 50.7949 95.031 50.5521 95.031 50.2475C95.031 49.943 94.7882 49.7002 94.4878 49.7002Z" fill="#EDEFF1"/>
<path d="M96.2446 49.7002C95.9442 49.7002 95.6973 49.943 95.6973 50.2475C95.6973 50.5521 95.9401 50.7949 96.2446 50.7949C96.545 50.7949 96.7878 50.5521 96.7878 50.2475C96.7878 49.943 96.545 49.7002 96.2446 49.7002Z" fill="#EDEFF1"/>
<path d="M161.127 49.7002C160.827 49.7002 160.58 49.943 160.58 50.2475C160.58 50.5521 160.823 50.7949 161.127 50.7949C161.428 50.7949 161.671 50.5521 161.671 50.2475C161.671 49.943 161.428 49.7002 161.127 49.7002Z" fill="#EDEFF1"/>
<path d="M162.886 49.7002C162.586 49.7002 162.339 49.943 162.339 50.2475C162.339 50.5521 162.582 50.7949 162.886 50.7949C163.187 50.7949 163.429 50.5521 163.429 50.2475C163.429 49.943 163.187 49.7002 162.886 49.7002Z" fill="#EDEFF1"/>
<path d="M53.2231 51C52.9227 51 52.6758 51.2428 52.6758 51.5473C52.6758 51.8478 52.9186 52.0906 53.2231 52.0906C53.5236 52.0906 53.7664 51.8478 53.7664 51.5473C53.7705 51.2428 53.5236 51 53.2231 51Z" fill="#EDEFF1"/>
<path d="M54.9809 51C54.6805 51 54.4336 51.2428 54.4336 51.5473C54.4336 51.8478 54.6764 52.0906 54.9809 52.0906C55.2814 52.0906 55.5242 51.8478 55.5242 51.5473C55.5242 51.2428 55.2814 51 54.9809 51Z" fill="#EDEFF1"/>
<path d="M84.061 44.8806C84.3614 44.8806 84.6042 44.6378 84.6042 44.3374C84.6042 44.037 84.3614 43.79 84.061 43.79C83.7606 43.79 83.5137 44.0329 83.5137 44.3374C83.5137 44.6419 83.7606 44.8806 84.061 44.8806Z" fill="#EDEFF1"/>
<path d="M59.1782 43.823C59.4786 43.823 59.7214 43.5802 59.7214 43.2798C59.7214 42.9793 59.4786 42.7324 59.1782 42.7324C58.8778 42.7324 58.6309 42.9752 58.6309 43.2798C58.6309 43.5843 58.8778 43.823 59.1782 43.823Z" fill="#EDEFF1"/>
<path d="M143.054 41.877H142.111V48.5726H143.054V41.877Z" fill="#EDEFF1"/>
<path d="M88.9688 41.877H88.0264V48.5726H88.9688V41.877Z" fill="#EDEFF1"/>
<path d="M171.368 47.1983C171.368 47.5523 171.08 47.8403 170.726 47.8403H168.104C168.121 47.8197 168.137 47.8033 168.154 47.7827C168.36 47.5152 168.565 47.0502 168.376 46.3629C168.257 45.9431 167.899 44.6633 166.977 44.6427C166.969 44.6427 166.96 44.6427 166.952 44.6427C165.874 44.6427 165.211 46.4493 165.088 46.8115C165.014 47.0337 164.903 47.4041 164.829 47.8362C164.421 47.8486 162.499 47.8362 162.499 47.8362C162.586 47.6387 162.635 47.4247 162.635 47.1942V44.8978H161.693V47.1942C161.693 47.5481 161.405 47.8362 161.051 47.8362H160.475C160.121 47.8362 159.833 47.5481 159.833 47.1942V44.8978H158.89V47.1942C158.89 47.5481 158.602 47.8362 158.248 47.8362H150.235C149.882 47.8362 149.593 47.5481 149.593 47.1942V43.725H148.651V44.1735C148.379 44.2559 147.881 44.4163 147.367 44.655C146.26 45.1653 145.63 45.7662 145.49 46.4411C145.42 46.7827 145.507 47.1037 145.733 47.3465C145.873 47.4946 146.371 47.8897 147.705 47.8897C148.013 47.8897 148.371 47.865 148.775 47.8156C149.017 48.3794 149.577 48.7786 150.227 48.7786H158.24C158.672 48.7786 159.067 48.6058 159.351 48.3218C159.639 48.6058 160.03 48.7786 160.462 48.7786H161.038C161.458 48.7786 161.841 48.614 162.125 48.3465V48.7786C162.125 48.7786 164.38 48.7869 164.734 48.7827C164.746 49.6511 165.034 50.54 166.026 50.9433C166.294 51.0503 166.582 51.1038 166.866 51.1038C167.615 51.1038 168.339 50.7499 168.619 50.1696C168.742 49.9186 168.89 49.3877 168.421 48.7745H170.718C171.59 48.7745 172.298 48.0667 172.298 47.1942V41.873H171.356V47.1983H171.368ZM146.433 46.7045C146.421 46.6921 146.416 46.6839 146.425 46.6304C146.54 46.0584 147.684 45.4822 148.659 45.1612V46.8897C147.75 46.9926 146.667 46.9473 146.433 46.7045ZM165.977 47.1119C166.298 46.1571 166.783 45.581 166.948 45.581H166.952C166.956 45.581 167.203 45.6674 167.471 46.6181C167.565 46.9555 167.479 47.116 167.409 47.2066C167.154 47.5399 166.499 47.7004 165.787 47.7745C165.837 47.5687 165.899 47.3465 165.977 47.1119ZM167.783 49.7622C167.643 50.0544 166.964 50.3096 166.392 50.075C165.919 49.8816 165.676 49.4165 165.668 48.7375C166.183 48.6922 166.693 48.6058 167.137 48.4494L166.952 48.7745C167.578 49.1326 167.903 49.5194 167.783 49.7622Z" fill="#EDEFF1"/>
<path d="M77.8614 41.877H76.9189V48.5726H77.8614V41.877Z" fill="#EDEFF1"/>
<path d="M74.4507 47.1979C74.4507 47.5518 74.1626 47.8399 73.8087 47.8399H71.9526C71.9691 47.807 71.9856 47.7741 71.9979 47.7411C72.286 47.0086 72.1049 46.1526 71.858 45.6423C71.5246 44.9468 70.9444 44.527 70.3106 44.5229H70.3024C69.6604 44.5229 69.0719 44.9468 68.7221 45.6546C68.5533 45.9962 68.4381 46.3337 68.3393 46.63C68.0472 47.486 67.9278 47.8399 66.9895 47.8399H66.0841C65.8701 45.5641 63.7631 44.4406 63.6684 44.3912L63.2363 45.2267C63.2527 45.2349 64.9195 46.1238 65.1417 47.8399H62.1992V48.7823H66.9936C67.6727 48.7823 68.1254 48.6095 68.4422 48.342C68.8949 48.6465 69.6069 48.7823 70.216 48.7823C70.5616 48.7823 70.8744 48.7371 71.0925 48.6547C71.146 48.6342 71.1954 48.6095 71.2448 48.5848V48.7823H73.8087C74.6811 48.7823 75.389 48.0745 75.389 47.202V41.8809H74.4466V47.1979H74.4507ZM71.1296 47.3913C71.0555 47.5806 70.932 47.7041 70.7551 47.7741C70.36 47.9263 69.3641 47.8029 68.9896 47.5765C69.0842 47.3666 69.1624 47.1444 69.2324 46.9304C69.327 46.6506 69.4258 46.3584 69.5698 46.0703C69.7591 45.6917 70.0308 45.4653 70.3065 45.4653H70.3106C70.5822 45.4653 70.8374 45.6793 71.0143 46.0497C71.1872 46.3995 71.2942 46.9757 71.1296 47.3913Z" fill="#EDEFF1"/>
<path d="M126.287 44.5228H126.278C125.636 44.5228 125.048 44.9467 124.698 45.6545C124.529 45.9961 124.414 46.3335 124.315 46.6298C124.023 47.4858 123.904 47.8398 122.965 47.8398H119.13C118.776 47.8398 118.488 47.5517 118.488 47.1978V43.7285H117.546V44.1771C117.274 44.2594 116.776 44.4199 116.262 44.6586C115.155 45.1689 114.525 45.7697 114.385 46.4447C114.315 46.7862 114.401 47.1072 114.632 47.35C114.772 47.4982 115.27 47.8933 116.603 47.8933C116.912 47.8933 117.27 47.8686 117.673 47.8192C117.916 48.383 118.476 48.7822 119.13 48.7822H122.965C123.645 48.7822 124.097 48.6093 124.414 48.3418C125.122 48.8069 126.476 48.8851 127.064 48.6546C127.488 48.49 127.801 48.1772 127.974 47.741C128.262 47.0085 128.081 46.1525 127.834 45.6422C127.501 44.9467 126.924 44.5269 126.287 44.5228ZM115.319 46.7039C115.311 46.6916 115.303 46.6833 115.311 46.634C115.426 46.0619 116.57 45.4858 117.546 45.1648V46.8932C116.636 46.992 115.55 46.9467 115.319 46.7039ZM127.101 47.3953C127.027 47.5846 126.904 47.7081 126.727 47.778C126.332 47.9303 125.336 47.8068 124.961 47.5805C125.056 47.3706 125.134 47.1484 125.204 46.9344C125.299 46.6545 125.398 46.3624 125.542 46.0743C125.731 45.6957 126.003 45.4693 126.278 45.4693H126.282C126.554 45.4693 126.809 45.6833 126.986 46.0537C127.159 46.4035 127.266 46.9755 127.101 47.3953Z" fill="#EDEFF1"/>
<path d="M110.64 47.1981C110.64 47.552 110.351 47.8401 109.998 47.8401H109.421C109.067 47.8401 108.779 47.552 108.779 47.1981V41.877H107.837V47.1981C107.837 47.552 107.549 47.8401 107.195 47.8401H105.849C105.837 46.8936 105.652 45.7289 104.878 45.0869C103.981 44.3462 102.763 44.8153 101.898 45.3503C101.392 45.6631 100.923 46.0499 100.499 46.4656V41.877H99.5568V47.8401H95.6966C95.783 47.6426 95.8324 47.4286 95.8324 47.1981V44.9059H94.89V47.1981C94.89 47.552 94.6019 47.8401 94.248 47.8401H92.2603C91.9064 47.8401 91.6183 47.552 91.6183 47.1981V44.9059H90.6759V48.5644C90.6759 49.2846 90.0874 49.8731 89.3672 49.8731V50.8155C90.5812 50.8155 91.5689 49.8525 91.6142 48.6508C91.8117 48.7373 92.0298 48.7867 92.2562 48.7867H94.2439C94.5608 48.7867 94.8571 48.692 95.104 48.5315V48.7867H107.191C107.623 48.7867 108.018 48.6138 108.302 48.3298C108.59 48.6138 108.981 48.7867 109.413 48.7867H109.989C110.862 48.7867 111.57 48.0788 111.57 47.2064V41.8852H110.627V47.1981H110.64ZM100.499 47.4985C100.886 47.1199 101.318 46.7742 101.767 46.4697C102.269 46.1281 102.845 45.766 103.454 45.6713C103.709 45.6302 103.989 45.6384 104.207 45.7907C104.397 45.9265 104.52 46.1322 104.606 46.3462C104.796 46.8113 104.87 47.3422 104.89 47.8401H100.495V47.4985H100.499Z" fill="#EDEFF1"/>
<path d="M60.137 47.1979C60.137 47.5518 59.849 47.8399 59.4951 47.8399H59.0753C58.709 47.8399 58.4004 47.5477 58.4004 47.1979V45.9468C58.4004 45.56 58.2481 45.2225 57.9683 45.0003C57.6514 44.7451 57.1946 44.6628 56.7172 44.774C55.8406 44.9756 55.2068 45.7081 55.2068 46.523V48.6753C55.2068 48.9346 54.9723 49.0869 54.7747 49.1733C54.1533 49.4367 53.0833 49.342 52.4413 48.7247C51.8281 48.1321 51.7458 47.1897 52.2026 46.0003L51.3219 45.6629C50.5194 47.7535 51.2684 48.9058 51.787 49.4037C52.4084 50.0046 53.2479 50.2556 54.0052 50.2556C54.4249 50.2556 54.82 50.1774 55.141 50.0416C55.7789 49.77 56.1452 49.2762 56.1452 48.6794V46.5271C56.1452 46.1485 56.4744 45.7987 56.923 45.6958C57.1493 45.6423 57.3057 45.6835 57.3798 45.7411C57.4003 45.7575 57.458 45.8028 57.458 45.9509V47.202C57.458 48.058 58.1987 48.7823 59.0753 48.7823H59.4951C60.3675 48.7823 61.0754 48.0745 61.0754 47.202V44.9098H60.1329V47.1979H60.137Z" fill="#EDEFF1"/>
<path d="M85.6658 48.6749C85.6658 48.9342 85.4313 49.0865 85.2337 49.1688C84.6082 49.4322 83.5423 49.3375 82.9003 48.7202C82.2871 48.1276 82.2048 47.1852 82.6616 45.9958L81.7809 45.6584C80.9784 47.749 81.7274 48.9013 82.246 49.3992C82.8674 50.0001 83.7028 50.2511 84.4642 50.2511C84.8839 50.2511 85.279 50.1729 85.6 50.0371C86.2379 49.7655 86.6041 49.2717 86.6041 48.6749V44.9053H85.6617V48.6749H85.6658Z" fill="#EDEFF1"/>
<path d="M139.641 47.1979C139.641 47.5518 139.353 47.8399 139.003 47.8399H138.661C137.743 47.8522 136.962 47.7823 136.315 47.63C136.34 47.6094 136.361 47.593 136.385 47.5724C136.587 47.3996 137.587 46.4983 137.427 45.5888C137.373 45.2884 137.176 44.8851 136.534 44.6505L136.484 44.634L136.431 44.6258C135.587 44.5188 134.731 44.5106 133.887 44.6011L133.834 44.6052L133.784 44.6217C133.254 44.811 133.072 45.1526 133.015 45.4118C132.838 46.2143 133.682 47.1444 134.052 47.5066C134.11 47.5642 134.171 47.6177 134.233 47.6712C133.714 47.8029 133.151 47.8399 132.476 47.844H131.097C130.743 47.844 130.455 47.5559 130.455 47.202V41.8809H129.513V47.202C129.513 48.0745 130.221 48.7823 131.093 48.7823H132.472C133.566 48.7823 134.451 48.6836 135.291 48.2885C136.163 48.6383 137.291 48.8029 138.665 48.7823H139.003C139.875 48.7823 140.583 48.0745 140.583 47.202V41.8809H139.641V47.1979ZM135.78 46.8481C135.603 46.9963 135.431 47.1238 135.258 47.2308C135.048 47.1156 134.863 46.9798 134.71 46.8316C134.18 46.3131 133.896 45.7946 133.937 45.6135C133.945 45.5847 133.994 45.5518 134.052 45.5271C134.784 45.453 135.529 45.4571 136.262 45.5477C136.373 45.5929 136.488 45.6629 136.505 45.7493C136.546 45.9839 136.221 46.4777 135.78 46.8481Z" fill="#EDEFF1"/>
</svg>
