<svg width="305" height="74" viewBox="0 0 305 74" fill="none" xmlns="http://www.w3.org/2000/svg">
<path d="M46.6529 33.3613H48.2054V24.458H46.6529V33.3613ZM105.808 24.458H108.057V26.0105H107.36V33.3613H97.1578C96.5558 33.995 95.6686 34.4069 94.7181 34.4069C93.7993 34.4069 92.9121 33.995 92.3101 33.3613H55.9998C54.2888 33.3613 52.8947 31.9672 52.8947 30.2563C52.8947 28.5453 54.2888 27.1829 55.9998 27.1829H56.8869V26.6442H58.4395V31.8405H68.1032V27.1829H69.6557V31.8405H80.2383V30.0028C80.2383 29.5592 79.8898 29.2107 79.4462 29.2107H74.4084L73.8698 27.6898L75.6441 24.458H77.2917L75.5807 27.6898H79.6046C80.777 27.6898 81.7275 28.6403 81.7275 29.8127V31.8405H85.7197V24.458H87.2723V31.8405H91.4546C91.3913 31.6187 91.3913 31.3969 91.3913 31.1434C91.3913 29.274 92.8804 27.7849 94.6864 27.7849C96.5558 27.7849 98.045 29.2424 98.045 31.1434C98.045 31.3969 98.0133 31.6187 97.9816 31.8405H102.006V24.458H103.558V31.8405H105.808V24.458ZM56.8869 28.7354H55.9998C55.1443 28.7354 54.4472 29.4325 54.4472 30.2879C54.4472 31.1434 55.1443 31.8405 55.9998 31.8405H56.8869V28.7354ZM96.4924 31.1117C96.4924 30.0661 95.732 29.3057 94.6864 29.3057C93.6725 29.3057 92.9438 30.0978 92.9438 31.1117C92.9438 32.0939 93.7042 32.8861 94.6864 32.8861C95.7003 32.8861 96.4924 32.1256 96.4924 31.1117ZM112.398 30.2563C112.398 28.5453 113.792 27.1829 115.471 27.1829H116.359V26.6442H117.911V31.8405H126.846V27.1829H128.399V33.3613H115.503C113.76 33.3613 112.398 31.9672 112.398 30.2563ZM113.919 30.2563C113.919 31.1117 114.616 31.8088 115.471 31.8088H116.359V28.7037H115.471C114.616 28.7354 113.919 29.4325 113.919 30.2563ZM173.992 33.3613H175.545V24.458H173.992V33.3613ZM198.358 25.5036H196.837V25.2184C196.837 24.8699 196.995 24.6798 197.439 24.6798H198.009V24.1729H197.376C196.52 24.1729 195.981 24.5531 195.981 25.5353V26.3274H198.389V25.5036H198.358ZM180.266 30.2563C180.266 28.5453 181.66 27.1829 183.371 27.1829H184.258V26.6442H185.811V31.8405H196.488V27.1829H198.041V31.8405H203.237V27.1829H204.79V31.8405H209.732H209.764C209.637 31.5553 209.542 31.2068 209.542 30.8583C209.542 29.5592 210.588 28.5136 211.887 28.5136C213.186 28.5136 214.232 29.5592 214.232 30.8583C214.232 31.2068 214.137 31.5236 214.01 31.8405H214.073H215.055C215.15 31.5236 215.214 31.2068 215.214 30.8583C215.214 29.0206 213.725 27.5314 211.887 27.5314C211.222 27.5314 210.62 27.7215 210.081 28.07L209.226 26.7076C209.986 26.2007 210.905 25.9155 211.887 25.9155C214.612 25.9155 216.798 28.1334 216.798 30.8266C216.798 31.1751 216.766 31.4919 216.703 31.8088H221.234V24.4263H223.484V25.9789H222.786V33.3613H183.371C181.66 33.3613 180.266 31.9672 180.266 30.2563ZM210.936 30.8583C210.936 31.3969 211.38 31.8405 211.919 31.8405C212.457 31.8405 212.901 31.3969 212.901 30.8583C212.901 30.3196 212.457 29.876 211.919 29.876C211.38 29.876 210.936 30.3196 210.936 30.8583ZM181.819 30.2563C181.819 31.1117 182.516 31.8088 183.371 31.8088H184.258V28.7037H183.371C182.484 28.7354 181.819 29.4325 181.819 30.2563ZM224.656 24.458V33.3613H226.208V24.458H224.656ZM11.2614 34.8822C11.2614 35.3258 11.6416 35.706 12.0852 35.706C12.5288 35.706 12.909 35.3258 12.909 34.8822C12.909 34.4386 12.5288 34.0584 12.0852 34.0584C11.6099 34.0584 11.2614 34.4386 11.2614 34.8822ZM13.8912 34.0584C13.4476 34.0584 13.0674 34.4386 13.0674 34.8822C13.0674 35.3258 13.4476 35.706 13.8912 35.706C14.3348 35.706 14.715 35.3258 14.715 34.8822C14.715 34.4386 14.3348 34.0584 13.8912 34.0584ZM37.306 25.8838C37.7496 25.8838 38.1298 25.5036 38.1298 25.06C38.1298 24.6164 37.7496 24.2362 37.306 24.2362C36.8624 24.2362 36.4822 24.6164 36.4822 25.06C36.4822 25.5353 36.8307 25.8838 37.306 25.8838ZM67.8181 34.0584C67.3745 34.0584 66.9943 34.4386 66.9943 34.8822C66.9943 35.3258 67.3745 35.706 67.8181 35.706C68.2616 35.706 68.6419 35.3258 68.6419 34.8822C68.6419 34.4386 68.2616 34.0584 67.8181 34.0584ZM70.4479 34.8822C70.4479 34.4386 70.0676 34.0584 69.6241 34.0584C69.1805 34.0584 68.8003 34.4386 68.8003 34.8822C68.8003 35.3258 69.1805 35.706 69.6241 35.706C70.0676 35.706 70.4479 35.3258 70.4479 34.8822ZM183.086 25.8838C183.529 25.8838 183.91 25.5036 183.91 25.06C183.91 24.6164 183.529 24.2362 183.086 24.2362C182.642 24.2362 182.262 24.6164 182.262 25.06C182.294 25.5353 182.642 25.8838 183.086 25.8838ZM184.892 25.8838C185.335 25.8838 185.716 25.5036 185.716 25.06C185.716 24.6164 185.335 24.2362 184.892 24.2362C184.448 24.2362 184.068 24.6164 184.068 25.06C184.068 25.5353 184.448 25.8838 184.892 25.8838ZM125.705 34.0584C125.262 34.0584 124.882 34.4386 124.882 34.8822C124.882 35.3258 125.262 35.706 125.705 35.706C126.149 35.706 126.529 35.3258 126.529 34.8822C126.529 34.4386 126.181 34.0584 125.705 34.0584ZM128.335 34.8822C128.335 34.4386 127.955 34.0584 127.511 34.0584C127.068 34.0584 126.688 34.4386 126.688 34.8822C126.688 35.3258 127.068 35.706 127.511 35.706C127.955 35.706 128.335 35.3258 128.335 34.8822ZM203.015 34.0584C202.572 34.0584 202.192 34.4386 202.192 34.8822C202.192 35.3258 202.572 35.706 203.015 35.706C203.459 35.706 203.839 35.3258 203.839 34.8822C203.839 34.4386 203.459 34.0584 203.015 34.0584ZM203.998 34.8822C203.998 35.3258 204.378 35.706 204.821 35.706C205.265 35.706 205.645 35.3258 205.645 34.8822C205.645 34.4386 205.265 34.0584 204.821 34.0584C204.346 34.0584 203.998 34.4386 203.998 34.8822ZM115.218 25.8838C115.661 25.8838 116.042 25.5036 116.042 25.06C116.042 24.6164 115.661 24.2362 115.218 24.2362C114.774 24.2362 114.394 24.6164 114.394 25.06C114.394 25.5353 114.774 25.8838 115.218 25.8838ZM117.024 25.8838C117.467 25.8838 117.848 25.5036 117.848 25.06C117.848 24.6164 117.467 24.2362 117.024 24.2362C116.58 24.2362 116.2 24.6164 116.2 25.06C116.2 25.5353 116.549 25.8838 117.024 25.8838ZM135.084 29.3057C135.084 28.1334 134.133 27.1829 132.961 27.1829H131.535L131.155 28.7037H132.739C133.183 28.7037 133.531 29.0522 133.531 29.4958V31.8405H129.603V33.393H135.084V29.3057ZM55.7463 25.8838C56.1899 25.8838 56.5701 25.5036 56.5701 25.06C56.5701 24.6164 56.1899 24.2362 55.7463 24.2362C55.3027 24.2362 54.9225 24.6164 54.9225 25.06C54.9225 25.5353 55.3027 25.8838 55.7463 25.8838ZM57.5523 25.8838C57.9959 25.8838 58.3761 25.5036 58.3761 25.06C58.3761 24.6164 57.9959 24.2362 57.5523 24.2362C57.1087 24.2362 56.7285 24.6164 56.7285 25.06C56.7285 25.5353 57.077 25.8838 57.5523 25.8838ZM3.30863 25.8838C3.75221 25.8838 4.13242 25.5036 4.13242 25.06C4.13242 24.6164 3.75221 24.2362 3.30863 24.2362C2.86505 24.2362 2.48483 24.6164 2.48483 25.06C2.48483 25.5353 2.86505 25.8838 3.30863 25.8838ZM5.11464 25.8838C5.55822 25.8838 5.93843 25.5036 5.93843 25.06C5.93843 24.6164 5.55822 24.2362 5.11464 24.2362C4.67105 24.2362 4.29084 24.6164 4.29084 25.06C4.29084 25.5353 4.63937 25.8838 5.11464 25.8838ZM0.457031 30.2563C0.457031 28.5453 1.85114 27.1829 3.53042 27.1829H4.41758V26.6442H6.0018V31.8405H12.9724V27.1829H14.5249V33.3613H3.5621C1.85115 33.3613 0.457031 31.9672 0.457031 30.2563ZM2.00957 30.2563C2.00957 31.1117 2.70662 31.8088 3.5621 31.8088H4.44926V28.7037H3.5621C2.70662 28.7354 2.00957 29.4325 2.00957 30.2563ZM16.5844 35.7693C16.2992 35.7693 15.9824 35.7377 15.7923 35.6743V34.1534C16.0141 34.2168 16.2042 34.2168 16.3943 34.2168C16.9963 34.2168 17.2181 33.9 17.2181 33.1395V27.1512H18.7706V31.8088H28.5294V29.9711C28.5294 29.5275 28.1809 29.179 27.7373 29.179H22.6995L22.1608 27.6581L23.9352 24.4263H25.5828L23.8718 27.6581H27.8957C29.068 27.6581 30.0186 28.6087 30.0186 29.781V31.8088H34.3276C34.0425 31.3652 33.9158 30.8266 33.9158 30.2563C33.9158 28.5453 35.3099 27.1512 36.9891 27.1512H37.8763H38.2882H39.3972V31.8088H43.231V24.4263H45.4806V25.9789H44.7518V33.3613H18.7072C18.6756 35.0406 18.0419 35.7693 16.5844 35.7693ZM35.4683 30.2563C35.4683 31.1117 36.1653 31.8088 37.0208 31.8088H37.908V28.7037H37.0208C36.1653 28.7354 35.4683 29.4325 35.4683 30.2563ZM140.09 33.3613H139.235C137.524 33.3613 136.13 31.9672 136.13 30.2563C136.13 28.5453 137.524 27.1829 139.235 27.1829H140.122H140.534H141.643V31.8405H146.269L144.906 28.3552C145.952 27.4363 146.997 26.8027 148.296 26.8027C149.564 26.8027 150.673 27.4363 151.687 28.3869L150.356 31.8722H154.285C155.14 31.8722 155.837 31.1751 155.837 30.3196V26.3591H157.39V30.3196C157.39 31.1751 158.087 31.8722 158.942 31.8722C159.798 31.8722 160.495 31.1751 160.495 30.3196V27.6581H162.047V30.3196C162.047 31.1751 162.745 31.8722 163.6 31.8722C164.455 31.8722 165.153 31.1751 165.153 30.3196V26.3591H166.705V30.3196C166.705 31.1751 167.402 31.8722 168.258 31.8722H170.634V24.4897H172.884V26.0422H172.186V33.3613H168.258C167.339 33.3613 166.515 32.9494 165.945 32.3157C165.374 32.9494 164.551 33.3613 163.632 33.3613C162.713 33.3613 161.889 32.9494 161.319 32.3157C160.748 32.9494 159.925 33.3613 159.006 33.3613C158.087 33.3613 157.263 32.9494 156.693 32.3157C156.122 32.9494 155.299 33.3613 154.38 33.3613H141.706C141.611 34.8188 140.882 35.7693 138.918 35.7693C138.316 35.7693 137.999 35.706 137.302 35.5159V33.995C137.841 34.1534 138.316 34.2485 138.791 34.2485C139.552 34.2485 139.995 34.1218 140.09 33.3613ZM146.617 28.9889L147.631 31.8088H148.962L149.976 28.9572C149.374 28.5453 148.93 28.3869 148.296 28.3869C147.663 28.3869 147.187 28.577 146.617 28.9889ZM140.122 31.8405V28.7354H139.235C138.379 28.7354 137.682 29.4325 137.682 30.2879C137.682 31.1434 138.379 31.8405 139.235 31.8405H140.122Z" fill="#EDEFF1"/>
<path d="M13.3858 43.4811V46.9663C12.6254 47.2515 11.6748 47.4416 10.7877 47.4416C9.29852 47.4416 7.96777 46.903 7.96777 45.4455C7.96777 44.1148 9.10841 43.4177 10.756 43.4177C11.0728 43.4177 11.4847 43.4494 11.9283 43.5127V43.4177C11.9283 42.7523 11.358 42.5622 10.5342 42.5622C9.93221 42.5622 9.01336 42.8157 8.44304 43.1009L8.63315 41.58C9.10841 41.3265 9.93221 41.1364 10.756 41.1364C12.2452 41.1047 13.3858 41.7384 13.3858 43.4811ZM11.8966 44.7168C11.6115 44.6534 11.2313 44.59 10.8827 44.59C10.1223 44.59 9.48863 44.7801 9.48863 45.3504C9.48863 45.8891 10.0589 46.1109 10.7877 46.1109C11.1679 46.1109 11.5798 46.0475 11.8966 45.9525V44.7168ZM18.487 45.8257C18.0434 45.9524 17.6949 45.9841 17.378 45.9841C16.5542 45.9841 16.2057 45.6673 16.2057 44.5583V41.2948H14.7166V44.9385C14.7166 46.8079 15.8889 47.4099 17.4414 47.4099C18.487 47.4099 19.1524 47.2515 20.0078 46.9663V41.2948H18.5187L18.487 45.8257ZM25.4892 38.665H26.9784V47.0931C26.2497 47.2832 25.4259 47.4099 24.5704 47.4099C22.3525 47.4099 21.0851 46.0475 21.0851 44.2732C21.0851 42.4988 22.4159 41.1047 24.4753 41.1047C24.7288 41.1047 25.109 41.1364 25.5209 41.1998V38.665H25.4892ZM25.4892 42.689C25.1407 42.5939 24.8239 42.5622 24.5704 42.5622C23.3981 42.5622 22.6376 43.1325 22.6376 44.2732C22.6376 45.4138 23.3981 45.9525 24.5704 45.9525C24.8556 45.9525 25.1724 45.9208 25.4892 45.8257V42.689ZM28.5943 47.3149H30.0835V41.3265H28.5943V47.3149ZM46.6544 45.8257C46.2108 45.9524 45.8623 45.9841 45.5455 45.9841C44.7217 45.9841 44.3731 45.6673 44.3731 44.5583V41.2948H42.884V44.9385C42.884 46.8079 44.0563 47.4099 45.6088 47.4099C46.6544 47.4099 47.3198 47.2515 48.1753 46.9663V41.2948H46.6861L46.6544 45.8257ZM51.7239 44.8752V42.689H54.0052V41.2948H51.7239V39.1086H50.2348V41.2948H49.1258V42.689H50.2348V45.3821C50.2348 46.8079 50.9635 47.2832 52.6428 47.2832H54.0369V45.9208H52.7695C52.0091 45.9208 51.7239 45.6673 51.7239 44.8752ZM57.9658 41.1047C57.6489 41.1047 57.2053 41.1681 56.7617 41.2315V38.6967H55.2726V47.3149H56.7617V42.689C57.1736 42.6256 57.5855 42.5622 57.9024 42.5622C58.7895 42.5622 59.2331 42.8791 59.2331 43.988V47.3149H60.7223V43.5761C60.7223 41.58 59.4866 41.1047 57.9658 41.1047ZM68.1998 44.2732C68.1998 46.0475 66.8057 47.4416 64.968 47.4416C63.1303 47.4416 61.7362 46.0792 61.7362 44.2732C61.7362 42.4988 63.1303 41.1047 64.968 41.1047C66.774 41.1047 68.1998 42.4988 68.1998 44.2732ZM66.6473 44.2732C66.6473 43.3543 66.0136 42.5622 64.968 42.5622C63.9224 42.5622 63.2887 43.3543 63.2887 44.2732C63.2887 45.2237 63.9224 45.9841 64.968 45.9841C65.9819 45.9524 66.6473 45.2237 66.6473 44.2732ZM73.8396 47.3149H75.3288V41.3265H73.8396V47.3149ZM78.9091 44.8752V42.689H81.1904V41.2948H78.9091V39.1086H77.42V41.2948H76.311V42.689H77.42V45.3821C77.42 46.8079 78.1487 47.2832 79.828 47.2832H81.2221V45.9208H79.9547C79.1626 45.9208 78.9091 45.6673 78.9091 44.8752ZM86.0698 45.699C85.6262 45.8257 85.2777 45.8574 84.9609 45.8574C84.1371 45.8574 83.7885 45.5405 83.7885 44.4316V41.2948H82.2994V44.8435C82.2994 46.8079 83.3766 47.3149 84.8975 47.3149C85.2777 47.3149 85.6896 47.2832 86.1015 47.1881V47.3149C86.1015 48.0119 85.4678 48.3288 84.549 48.3288C83.9786 48.3288 83.0281 48.1387 82.4578 47.8852L82.7746 49.4377C83.2499 49.5962 84.042 49.6912 84.4856 49.6912C86.8619 49.6912 87.5907 48.9625 87.5907 46.8396V41.2948H86.1015L86.0698 45.699ZM92.7869 40.7245V41.2948H91.6779V42.689H92.7869V47.2832H94.2761V42.689H96.5573V41.2948H94.2761V41.0097C94.2761 40.376 94.4028 40.0592 95.1632 40.0592H96.5573V38.665H95.1315C93.4839 38.665 92.7869 39.2987 92.7869 40.7245ZM103.401 44.2732C103.401 46.0475 102.007 47.4416 100.169 47.4416C98.3317 47.4416 96.9376 46.0792 96.9376 44.2732C96.9376 42.4988 98.3317 41.1047 100.169 41.1047C102.007 41.1047 103.401 42.4988 103.401 44.2732ZM101.849 44.2732C101.849 43.3543 101.215 42.5622 100.169 42.5622C99.1238 42.5622 98.4901 43.3543 98.4901 44.2732C98.4901 45.2237 99.1238 45.9841 100.169 45.9841C101.215 45.9524 101.849 45.2237 101.849 44.2732ZM117.913 41.1047C117.279 41.1047 116.138 41.2315 115.219 41.4216V47.3149H116.709V42.689C117.121 42.6256 117.532 42.5622 117.849 42.5622C118.736 42.5622 119.18 42.8791 119.18 43.988V47.3149H120.669V43.5761C120.701 41.58 119.433 41.1047 117.913 41.1047ZM124.154 44.8752V42.689H126.436V41.2948H124.154V39.1086H122.665V41.2948H121.556V42.689H122.665V45.3821C122.665 46.8079 123.394 47.2832 125.073 47.2832H126.467V45.9208H125.2C124.408 45.9208 124.154 45.6673 124.154 44.8752ZM133.248 44.7484H128.527C128.717 45.5722 129.382 45.9525 130.333 45.9525H130.491C131.125 45.9525 131.917 45.699 132.234 45.4138L132.899 46.7446C132.266 47.0931 131.474 47.4099 130.301 47.4099C128.4 47.4099 127.006 46.0475 127.006 44.2415C127.006 42.4038 128.4 41.073 130.174 41.073C131.98 41.1047 133.311 42.4355 133.248 44.7484ZM131.695 43.5127C131.537 42.784 130.935 42.4038 130.143 42.4038C129.351 42.4038 128.749 42.8791 128.559 43.5127H131.695ZM134.293 47.3149H135.783V38.6967H134.293V47.3149ZM137.399 47.3149H138.888V38.6967H137.399V47.3149ZM146.238 44.7484H141.518C141.708 45.5722 142.373 45.9525 143.324 45.9525H143.482C144.116 45.9525 144.908 45.699 145.225 45.4138L145.89 46.7446C145.256 47.0931 144.464 47.4099 143.292 47.4099C141.391 47.4099 139.997 46.0475 139.997 44.2415C139.997 42.4038 141.391 41.073 143.165 41.073C145.003 41.1047 146.334 42.4355 146.238 44.7484ZM144.686 43.5127C144.528 42.784 143.926 42.4038 143.133 42.4038C142.341 42.4038 141.739 42.8791 141.549 43.5127H144.686ZM150.231 42.5622C150.769 42.5622 151.245 42.7206 151.625 42.9424L152.227 41.6117C151.625 41.2948 150.959 41.1047 150.167 41.1047C148.33 41.1047 146.967 42.4672 146.967 44.2732C146.967 46.0792 148.33 47.4416 150.167 47.4416C150.991 47.4416 151.625 47.2832 152.227 46.9663L151.625 45.6039C151.245 45.8574 150.769 45.9841 150.231 45.9841C149.185 45.9841 148.52 45.3188 148.52 44.2732C148.52 43.2593 149.185 42.5622 150.231 42.5622ZM155.237 44.8752V42.689H157.518V41.2948H155.237V39.1086H153.748V41.2948H152.639V42.689H153.748V45.3821C153.748 46.8079 154.476 47.2832 156.156 47.2832H157.55V45.9208H156.282C155.522 45.9208 155.237 45.6673 155.237 44.8752ZM162.398 45.8257C161.954 45.9524 161.605 45.9841 161.289 45.9841C160.465 45.9841 160.116 45.6673 160.116 44.5583V41.2948H158.627V44.9385C158.627 46.8079 159.799 47.4099 161.352 47.4099C162.398 47.4099 163.063 47.2515 163.918 46.9663V41.2948H162.429L162.398 45.8257ZM170.635 43.4811V46.9663C169.875 47.2515 168.925 47.4416 168.037 47.4416C166.548 47.4416 165.217 46.903 165.217 45.4455C165.217 44.1148 166.358 43.4177 168.006 43.4177C168.322 43.4177 168.734 43.4494 169.178 43.5127V43.4177C169.178 42.7523 168.608 42.5622 167.784 42.5622C167.182 42.5622 166.263 42.8157 165.693 43.1009L165.883 41.58C166.358 41.3265 167.182 41.1364 168.006 41.1364C169.495 41.1047 170.635 41.7384 170.635 43.4811ZM169.115 44.7168C168.829 44.6534 168.449 44.59 168.101 44.59C167.34 44.59 166.707 44.7801 166.707 45.3504C166.707 45.8891 167.277 46.1109 168.006 46.1109C168.386 46.1109 168.798 46.0475 169.115 45.9525V44.7168ZM172.125 47.3149H173.614V38.6967H172.125V47.3149ZM196.141 44.2732C196.141 46.0475 194.747 47.4416 192.91 47.4416C191.072 47.4416 189.678 46.0792 189.678 44.2732C189.678 42.4988 191.072 41.1047 192.91 41.1047C194.747 41.1047 196.141 42.4988 196.141 44.2732ZM194.589 44.2732C194.589 43.3543 193.955 42.5622 192.91 42.5622C191.864 42.5622 191.23 43.3543 191.23 44.2732C191.23 45.2237 191.864 45.9841 192.91 45.9841C193.955 45.9524 194.589 45.2237 194.589 44.2732ZM203.144 44.2732C203.144 46.0475 201.813 47.4416 199.753 47.4416C199.5 47.4416 199.151 47.4099 198.708 47.3466V49.6278H197.219V41.4216C197.947 41.1998 198.771 41.1047 199.627 41.1047C201.876 41.1047 203.144 42.4672 203.144 44.2732ZM201.591 44.2732C201.591 43.1325 200.831 42.5622 199.658 42.5622C199.373 42.5622 199.056 42.6256 198.74 42.689V45.8574C199.088 45.9524 199.405 45.9841 199.658 45.9841C200.862 45.9524 201.591 45.4138 201.591 44.2732ZM210.178 44.7484H205.457C205.647 45.5722 206.312 45.9525 207.263 45.9525H207.421C208.055 45.9525 208.847 45.699 209.164 45.4138L209.829 46.7446C209.195 47.0931 208.403 47.4099 207.231 47.4099C205.33 47.4099 203.936 46.0475 203.936 44.2415C203.936 42.4038 205.33 41.073 207.104 41.073C208.942 41.1047 210.241 42.4355 210.178 44.7484ZM208.625 43.5127C208.467 42.784 207.865 42.4038 207.073 42.4038C206.28 42.4038 205.678 42.8791 205.488 43.5127H208.625ZM217.75 44.8752V42.689H220.031V41.2948H217.75V39.1086H216.261V41.2948H215.12V42.689H216.229V45.3821C216.229 46.8079 216.958 47.2832 218.637 47.2832H220.031V45.9208H218.764C218.004 45.9208 217.75 45.6673 217.75 44.8752ZM224.721 45.699C224.277 45.8257 223.929 45.8574 223.612 45.8574C222.788 45.8574 222.439 45.5405 222.439 44.4316V41.2948H220.95V44.8435C220.95 46.8079 222.028 47.3149 223.548 47.3149C223.929 47.3149 224.341 47.2832 224.752 47.1881V47.3149C224.752 48.0119 224.119 48.3288 223.2 48.3288C222.63 48.3288 221.679 48.1387 221.109 47.8852L221.426 49.4377C221.901 49.5962 222.693 49.6912 223.136 49.6912C225.513 49.6912 226.242 48.9625 226.242 46.8396V41.2948H224.752L224.721 45.699ZM104.51 42.8791V47.3149H105.999V43.1009C105.999 42.8474 106.189 42.6573 106.443 42.6573C107.045 42.6573 107.964 42.6573 107.964 42.6573V41.2315H106.126C105.271 41.2315 104.51 41.9602 104.51 42.8791ZM69.3088 42.8791V47.3149H70.7979V43.1009C70.7979 42.8474 70.988 42.6573 71.2415 42.6573C71.8435 42.6573 72.7624 42.6573 72.7624 42.6573V41.2315H70.9564C70.0375 41.2315 69.3088 41.9602 69.3088 42.8791ZM185.654 42.8791V47.3149H187.143V43.1009C187.143 42.8474 187.333 42.6573 187.587 42.6573C188.189 42.6573 189.107 42.6573 189.107 42.6573V41.2315H187.27C186.383 41.2315 185.654 41.9602 185.654 42.8791ZM211.16 42.8791V47.3149H212.649V43.1009C212.649 42.8474 212.839 42.6573 213.093 42.6573C213.695 42.6573 214.613 42.6573 214.613 42.6573V41.2315H212.776C211.92 41.2315 211.16 41.9602 211.16 42.8791ZM29.3231 38.7601C28.8795 38.7601 28.4993 39.1403 28.4993 39.5839C28.4993 40.0275 28.8795 40.4077 29.3231 40.4077C29.7666 40.4077 30.1469 40.0275 30.1469 39.5839C30.1469 39.1403 29.7983 38.7601 29.3231 38.7601ZM74.6001 38.7601C74.1565 38.7601 73.7763 39.1403 73.7763 39.5839C73.7763 40.0275 74.1565 40.4077 74.6001 40.4077C75.0436 40.4077 75.4239 40.0275 75.4239 39.5839C75.3922 39.1403 75.0436 38.7601 74.6001 38.7601Z" fill="#EDEFF1"/>
<path d="M7.04739 44.8437C7.04739 46.4913 5.5899 47.4101 3.62547 47.4101C2.42146 47.4101 1.18577 47.0933 0.457031 46.6497L1.05904 45.2873C1.66104 45.6675 2.70662 45.9527 3.59379 45.9527C4.63937 45.9527 5.43148 45.6041 5.43148 44.812C5.43148 44.0833 4.79779 43.8298 3.78389 43.608L3.08684 43.4179C1.5343 43.0377 0.710507 42.1189 0.710507 40.8515C0.710507 39.4574 1.97788 38.5068 3.84726 38.5068C4.92453 38.5068 6.12854 38.8237 6.85728 39.2989L6.25528 40.6614C5.62159 40.2495 4.67106 39.996 3.81558 39.996C2.99178 39.996 2.29473 40.3128 2.29473 40.9148C2.29473 41.4852 2.70662 41.7703 3.65715 42.0238L4.3859 42.2139C5.84338 42.5624 7.04739 43.3229 7.04739 44.8437ZM39.0486 38.6653L42.2487 47.2834H40.6328L39.9041 45.2556H36.3238L35.595 47.2834H33.9791L37.1792 38.6653H39.0486ZM39.3972 43.8298L38.1298 40.2495L36.8624 43.8298H39.3972ZM184.892 41.3267C184.892 42.7525 183.878 44.0833 181.723 44.0833H180.013V47.3151H178.492V38.6969H181.723C183.91 38.6653 184.892 39.9643 184.892 41.3267ZM183.276 41.3584C183.276 40.503 182.674 40.1227 181.407 40.1227H180.044V42.6575H181.407C182.516 42.6575 183.276 42.3406 183.276 41.3584ZM112.145 47.3151H113.634V38.6969H112.145V47.3151Z" fill="#EDEFF1"/>
<path d="M291.731 26.0775C293.442 17.1108 295.121 8.04902 287.834 4.46869C275.445 -1.58304 243.888 -1.32956 240.339 15.083C239.674 18.2197 240.973 23.7645 243.127 28.929C243.919 23.416 248.767 15.0196 270.376 13.6255C284.19 12.7383 289.893 18.3148 291.731 26.0775Z" fill="#EDEFF1"/>
<path d="M304.627 16.8253C304.437 10.7102 298.385 7.03486 291.224 4.84863C292.017 5.54569 292.714 6.30611 293.316 7.22496C295.058 9.85477 295.122 15.1461 294.298 20.6275C288.658 59.2824 274.02 58.522 272.784 58.5537C288.753 64.0351 294.741 50.6326 295.502 49.1751C295.914 48.4147 305.071 31.1784 304.627 16.8253Z" fill="#EDEFF1"/>
<path d="M275.223 27.3762C275.889 27.2494 276.586 27.1861 277.315 27.1861C280.515 27.1861 283.398 28.4218 285.584 30.4179C283.588 26.2989 279.406 23.479 274.558 23.479C274.209 23.479 273.861 23.5107 273.544 23.5107C274.59 21.9898 276.11 20.8492 277.885 20.2472C275.16 19.867 272.403 20.8809 270.566 22.9721C270.566 22.8453 270.566 22.7186 270.566 22.5918C270.566 21.0076 270.09 19.5185 269.267 18.3145C268.443 19.5501 267.968 21.0076 267.968 22.5918C267.968 22.7186 267.968 22.8453 267.968 22.9721C266.13 20.8809 263.342 19.867 260.649 20.2472C262.423 20.8492 263.944 21.9898 264.989 23.5107C264.641 23.479 264.324 23.479 263.975 23.479C259.128 23.479 254.945 26.2989 252.949 30.4179C255.135 28.4218 258.05 27.1861 261.219 27.1861C261.916 27.1861 262.613 27.2494 263.31 27.3762C260.332 28.9921 258.177 31.812 257.322 35.0438C259.096 32.6358 261.694 30.8932 264.831 30.2595C265.179 30.1961 265.528 30.1327 265.876 30.101L269.298 33.5546L272.72 30.101C273.069 30.1327 273.417 30.1961 273.766 30.2595C276.903 30.8615 279.501 32.6358 281.275 35.0438C280.356 31.812 278.202 28.9921 275.223 27.3762Z" fill="#EDEFF1"/>
<path d="M269.236 42.268C270.091 42.268 270.82 41.571 270.82 40.6838C270.82 39.7967 270.123 39.0996 269.236 39.0996C268.38 39.0996 267.651 39.7967 267.651 40.6838C267.683 41.5393 268.38 42.268 269.236 42.268Z" fill="#EDEFF1"/>
<path d="M269.235 45.5943C269.932 45.5943 270.503 45.024 270.503 44.3269C270.503 43.6299 269.932 43.0596 269.235 43.0596C268.538 43.0596 267.968 43.6299 267.968 44.3269C267.968 45.024 268.538 45.5943 269.235 45.5943Z" fill="#EDEFF1"/>
<path d="M269.235 38.3711C270.312 38.3711 271.199 37.484 271.199 36.375C271.199 35.2661 270.312 34.3789 269.235 34.3789C268.158 34.3789 267.271 35.2661 267.271 36.375C267.271 37.484 268.158 38.3711 269.235 38.3711Z" fill="#EDEFF1"/>
<path d="M282.004 43.377C274.432 43.377 267.525 46.387 262.455 51.2981H265.148C265.845 51.2981 266.479 51.0446 267.018 50.5693C271.105 47.0207 276.238 44.581 282.004 43.8522C283.398 43.6938 284.761 43.5987 286.123 43.6621C284.793 43.472 283.398 43.377 282.004 43.377Z" fill="#EDEFF1"/>
<path d="M256.498 43.377C264.07 43.377 270.978 46.387 276.047 51.2981H273.354C272.657 51.2981 272.023 51.0446 271.485 50.5693C267.397 47.0207 262.264 44.581 256.498 43.8522C255.104 43.6938 253.741 43.5987 252.379 43.6621C253.71 43.472 255.072 43.377 256.498 43.377Z" fill="#EDEFF1"/>
<path d="M238.597 18.6318C236.284 20.9448 231.436 26.743 232.545 33.6819C234.003 42.712 255.105 73.1607 270.693 73.1607C278.298 73.1607 284.191 67.4258 290.211 58.4274C277.347 69.8972 244.902 52.6926 238.597 18.6318Z" fill="#EDEFF1"/>
</svg>
