<svg width="308" height="42" viewBox="0 0 308 42" fill="none" xmlns="http://www.w3.org/2000/svg">
<path d="M8.2861 6.25177L7.10197 5.04924L8.2861 3.84605L9.46956 5.04924L8.2861 6.25177ZM6.89224 3.78951L5.70812 2.58632L6.89224 1.38379L8.0757 2.58632L6.89224 3.78951ZM5.49838 6.25177L4.31492 5.04924L5.49838 3.84605L6.68184 5.04924L5.49838 6.25177ZM12.5242 6.69031C12.6892 6.99604 12.8385 7.34319 12.9726 7.7311C13.1061 8.11968 13.2238 8.51416 13.3257 8.91457C13.4276 9.31563 13.5071 9.71998 13.5643 10.127C13.6215 10.5346 13.6505 10.9094 13.6505 11.2539C13.6505 12.3098 13.1219 13.0896 12.066 13.5919C11.0094 14.0949 9.36699 14.3467 7.14011 14.3467C6.00727 14.3467 5.03091 14.279 4.20972 14.1455C3.38853 14.012 2.71132 13.8023 2.17679 13.5156C1.64226 13.229 1.24777 12.8667 0.993324 12.4275C0.738222 11.9889 0.611328 11.463 0.611328 10.8522C0.611328 10.3308 0.706663 9.7614 0.897332 9.14403C1.08866 8.52666 1.34902 7.93164 1.68039 7.35897L2.69225 7.85471C2.48843 8.30114 2.33261 8.72653 2.22413 9.13417C2.11564 9.54246 2.06239 9.91065 2.06239 10.2414C2.06239 10.6615 2.15443 11.0218 2.33919 11.3203C2.52328 11.6194 2.81915 11.8614 3.22679 12.0455C3.63377 12.2302 4.15843 12.3677 4.80145 12.4564C5.44447 12.5452 6.22424 12.5899 7.14011 12.5899C7.85282 12.5899 8.5241 12.5583 9.15397 12.4945C9.78449 12.4308 10.3315 12.3414 10.7964 12.227C11.2605 12.1126 11.6294 11.9824 11.9036 11.8358C12.1771 11.6898 12.3138 11.5333 12.3138 11.3676C12.3138 11.1263 12.2849 10.8462 12.2277 10.528C12.1711 10.2098 12.0876 9.87581 11.9798 9.52537C11.8713 9.17559 11.7477 8.82318 11.6077 8.46551C11.4676 8.11047 11.3145 7.77253 11.1494 7.45431L12.5242 6.69031Z" fill="#EDEFF1"/>
<path d="M15.9222 14.2127L15.8262 2.16701L17.3351 1.89941L17.2398 14.2127H15.9222Z" fill="#EDEFF1"/>
<path d="M26.3077 14.2128C25.4418 14.2128 24.7357 14.028 24.1886 13.6592C23.9079 14.5751 23.3352 15.412 22.47 16.1695C21.6047 16.9269 20.5041 17.5469 19.1675 18.0308L18.2891 16.5232C19.6895 15.988 20.8151 15.3706 21.6685 14.6711C22.5213 13.9708 23.017 13.2391 23.157 12.4751C22.9789 12.1444 22.7974 11.7374 22.6133 11.2541C22.4292 10.7702 22.2155 10.1653 21.9736 9.44014L23.4056 8.77148C23.5581 9.2429 23.7139 9.71365 23.873 10.1851C24.0322 10.6552 24.1564 10.9931 24.2458 11.1969C24.3471 11.4514 24.4556 11.6611 24.57 11.8261C24.6844 11.9918 24.8185 12.1253 24.971 12.2272C25.1236 12.3298 25.3083 12.3995 25.5246 12.4369C25.7409 12.4751 26.002 12.4941 26.3077 12.4941L26.6128 12.6855V14.0221L26.3077 14.2128Z" fill="#EDEFF1"/>
<path d="M26.002 14.0215V12.6848L26.3077 12.4941H27.8344L28.1401 12.6848V14.0215L27.8344 14.2121H26.3077L26.002 14.0215Z" fill="#EDEFF1"/>
<path d="M27.5283 14.0215V12.6848L27.834 12.4941H29.3614L29.6664 12.6848V14.0215L29.3614 14.2121H27.834L27.5283 14.0215Z" fill="#EDEFF1"/>
<path d="M29.0557 14.0215V12.6848L29.3607 12.4941H30.8881L31.1938 12.6848V14.0215L30.8881 14.2121H29.3607L29.0557 14.0215Z" fill="#EDEFF1"/>
<path d="M30.583 14.0215V12.6848L30.8887 12.4941H32.4161L32.7211 12.6848V14.0215L32.4161 14.2121H30.8887L30.583 14.0215Z" fill="#EDEFF1"/>
<path d="M32.1104 14.0215V12.6848L32.4154 12.4941H33.9427L34.2485 12.6848V14.0215L33.9427 14.2121H32.4154L32.1104 14.0215Z" fill="#EDEFF1"/>
<path d="M33.6377 14.0215V12.6848L33.9428 12.4941H35.4701L35.7758 12.6848V14.0215L35.4701 14.2121H33.9428L33.6377 14.0215Z" fill="#EDEFF1"/>
<path d="M35.1641 14.0215V12.6848L35.4698 12.4941H36.9971L37.3022 12.6848V14.0215L36.9971 14.2121H35.4698L35.1641 14.0215Z" fill="#EDEFF1"/>
<path d="M36.6914 14.0215V12.6848L36.9965 12.4941H38.5238L38.8295 12.6848V14.0215L38.5238 14.2121H36.9965L36.6914 14.0215Z" fill="#EDEFF1"/>
<path d="M38.2178 14.0215V12.6848L38.5235 12.4941H40.0508L40.3559 12.6848V14.0215L40.0508 14.2121H38.5235L38.2178 14.0215Z" fill="#EDEFF1"/>
<path d="M39.7441 14.0215V12.6848L40.0499 12.4941H41.5772L41.8829 12.6848V14.0215L41.5772 14.2121H40.0499L39.7441 14.0215Z" fill="#EDEFF1"/>
<path d="M41.2715 14.0215V12.6848L41.5766 12.4941H43.1045L43.4096 12.6848V14.0215L43.1045 14.2121H41.5766L41.2715 14.0215Z" fill="#EDEFF1"/>
<path d="M42.7988 14.0215V12.6848L43.1046 12.4941H44.6319L44.9376 12.6848V14.0215L44.6319 14.2121H43.1046L42.7988 14.0215Z" fill="#EDEFF1"/>
<path d="M44.3262 14.0215V12.6848L44.6319 12.4941H46.1586L46.4643 12.6848V14.0215L46.1586 14.2121H44.6319L44.3262 14.0215Z" fill="#EDEFF1"/>
<path d="M45.8525 14.0215V12.6848L46.1583 12.4941H47.6856L47.9913 12.6848V14.0215L47.6856 14.2121H46.1583L45.8525 14.0215Z" fill="#EDEFF1"/>
<path d="M47.3799 14.0215V12.6848L47.6856 12.4941H49.2129L49.5187 12.6848V14.0215L49.2129 14.2121H47.6856L47.3799 14.0215Z" fill="#EDEFF1"/>
<path d="M48.9072 14.0215V12.6848L49.2123 12.4941H50.7396L51.0454 12.6848V14.0215L50.7396 14.2121H49.2123L48.9072 14.0215Z" fill="#EDEFF1"/>
<path d="M50.4336 14.0215V12.6848L50.7393 12.4941H52.2666L52.5717 12.6848V14.0215L52.2666 14.2121H50.7393L50.4336 14.0215Z" fill="#EDEFF1"/>
<path d="M51.9609 14.0215V12.6848L52.266 12.4941H53.7933L54.0991 12.6848V14.0215L53.7933 14.2121H52.266L51.9609 14.0215Z" fill="#EDEFF1"/>
<path d="M53.4873 14.0215V12.6848L53.793 12.4941H55.3204L55.6254 12.6848V14.0215L55.3204 14.2121H53.793L53.4873 14.0215Z" fill="#EDEFF1"/>
<path d="M55.0146 14.0215V12.6848L55.3197 12.4941H56.847L57.1528 12.6848V14.0215L56.847 14.2121H55.3197L55.0146 14.0215Z" fill="#EDEFF1"/>
<path d="M56.542 14.0215V12.6848L56.8477 12.4941H58.375L58.6801 12.6848V14.0215L58.375 14.2121H56.8477L56.542 14.0215Z" fill="#EDEFF1"/>
<path d="M58.0693 14.0215V12.6848L58.3751 12.4941H59.9024L60.2075 12.6848V14.0215L59.9024 14.2121H58.3751L58.0693 14.0215Z" fill="#EDEFF1"/>
<path d="M59.5957 14.0215V12.6848L59.9014 12.4941H61.4288L61.7345 12.6848V14.0215L61.4288 14.2121H59.9014L59.5957 14.0215Z" fill="#EDEFF1"/>
<path d="M61.123 14.0215V12.6848L61.4288 12.4941H62.9561L63.2612 12.6848V14.0215L62.9561 14.2121H61.4288L61.123 14.0215Z" fill="#EDEFF1"/>
<path d="M62.6504 14.0215V12.6848L62.9561 12.4941H64.4834L64.7892 12.6848V14.0215L64.4834 14.2121H62.9561L62.6504 14.0215Z" fill="#EDEFF1"/>
<path d="M64.1768 14.0215V12.6848L64.4825 12.4941H66.0092L66.3149 12.6848V14.0215L66.0092 14.2121H64.4825L64.1768 14.0215Z" fill="#EDEFF1"/>
<path d="M65.7041 14.0215V12.6848L66.0098 12.4941H67.5372L67.8429 12.6848V14.0215L67.5372 14.2121H66.0098L65.7041 14.0215Z" fill="#EDEFF1"/>
<path d="M67.2314 14.0215V12.6848L67.5365 12.4941H69.0638L69.3696 12.6848V14.0215L69.0638 14.2121H67.5365L67.2314 14.0215Z" fill="#EDEFF1"/>
<path d="M74.1991 7.32076L73.015 6.11823L74.1991 4.91504L75.3826 6.11823L74.1991 7.32076ZM71.4121 7.32076L70.2279 6.11823L71.4121 4.91504L72.5955 6.11823L71.4121 7.32076ZM75.3635 14.2125C73.8743 14.2125 72.8815 13.7864 72.3851 12.933C72.1307 13.3413 71.7138 13.6556 71.1346 13.8778C70.556 14.1014 69.865 14.2125 69.0635 14.2125L68.7578 14.0218V12.6851L69.0635 12.4945C69.8907 12.4945 70.5047 12.3985 70.9058 12.2085C71.3069 12.0165 71.5574 11.6989 71.6599 11.2538C71.6849 11.1131 71.7171 10.9382 71.7553 10.7278C71.7934 10.5187 71.8315 10.3051 71.8697 10.0888C71.9078 9.87244 71.9394 9.65613 71.9657 9.43982C71.9906 9.22351 72.0163 9.03218 72.0419 8.86715L73.3398 9.02035C73.276 9.55422 73.2188 10.044 73.1682 10.4898C73.1169 10.9356 73.0913 11.2091 73.0913 11.3104C73.0913 12.1 73.8487 12.4945 75.3635 12.4945L75.6692 12.6851V14.0218L75.3635 14.2125Z" fill="#EDEFF1"/>
<path d="M75.0576 14.022V12.6854L75.3627 12.4947C75.6303 12.4947 75.8979 12.4789 76.1648 12.4474C76.4324 12.4152 76.6704 12.3612 76.8808 12.2843C77.0905 12.208 77.2621 12.1068 77.3963 11.9792C77.5297 11.8517 77.5968 11.6992 77.5968 11.5203L77.5389 2.16701L79.0479 1.89941L78.9709 11.3678C78.9709 11.903 78.8664 12.3514 78.656 12.7137C78.4463 13.0766 78.1721 13.3698 77.8355 13.592C77.4982 13.8156 77.1162 13.9734 76.6901 14.07C76.2634 14.1654 75.821 14.2127 75.3627 14.2127L75.0576 14.022Z" fill="#EDEFF1"/>
<path d="M81.5491 14.2127L81.4531 2.16701L82.9614 1.89941L82.8661 14.2127H81.5491Z" fill="#EDEFF1"/>
<path d="M93.2901 3.23448L92.1067 2.03261L93.2901 0.830078L94.4736 2.03261L93.2901 3.23448ZM91.6675 10.8521C92.2783 10.8521 92.8128 10.7633 93.2711 10.5851L93.2323 7.51139C92.7615 7.56202 92.3098 7.64815 91.8772 7.76978C91.4439 7.89076 91.0593 8.0433 90.722 8.22739C90.3847 8.41214 90.1178 8.62188 89.9206 8.85726C89.7233 9.09329 89.6247 9.35037 89.6247 9.63045C89.6247 9.85991 89.6786 10.0506 89.7871 10.2031C89.8949 10.3557 90.0448 10.4799 90.2355 10.5753C90.4262 10.6706 90.6458 10.7409 90.8936 10.7856C91.1422 10.8304 91.3999 10.8521 91.6675 10.8521ZM90.5024 3.23448L89.319 2.03261L90.5024 0.830078L91.6866 2.03261L90.5024 3.23448ZM96.4013 14.2124C94.5689 14.2124 93.5446 13.4938 93.3283 12.0552C92.7938 12.361 92.1632 12.5135 91.438 12.5135C91.0054 12.5135 90.6011 12.4563 90.2263 12.3412C89.8502 12.2268 89.5228 12.0618 89.2427 11.8455C88.9626 11.6285 88.7397 11.3583 88.5747 11.0335C88.409 10.7094 88.3262 10.3438 88.3262 9.93552C88.3262 8.95588 88.7562 8.12219 89.6155 7.43513C90.4742 6.7474 91.6734 6.24509 93.2139 5.92687V4.76181L94.7221 4.49553L94.6459 10.9671C94.6327 11.5148 94.7662 11.9053 95.0463 12.1414C95.3264 12.3767 95.7781 12.4944 96.4013 12.4944L96.7071 12.6851V14.0218L96.4013 14.2124Z" fill="#EDEFF1"/>
<path d="M96.0957 14.0215V12.6848L96.4014 12.4941H97.9288L98.2338 12.6848V14.0215L97.9288 14.2121H96.4014L96.0957 14.0215Z" fill="#EDEFF1"/>
<path d="M97.623 14.0215V12.6848L97.9288 12.4941H99.4561L99.7612 12.6848V14.0215L99.4561 14.2121H97.9288L97.623 14.0215Z" fill="#EDEFF1"/>
<path d="M99.1494 14.0215V12.6848L99.4545 12.4941H100.982L101.288 12.6848V14.0215L100.982 14.2121H99.4545L99.1494 14.0215Z" fill="#EDEFF1"/>
<path d="M100.677 14.0215V12.6848L100.982 12.4941H102.51L102.815 12.6848V14.0215L102.51 14.2121H100.982L100.677 14.0215Z" fill="#EDEFF1"/>
<path d="M102.204 14.0215V12.6848L102.509 12.4941H104.036L104.342 12.6848V14.0215L104.036 14.2121H102.509L102.204 14.0215Z" fill="#EDEFF1"/>
<path d="M103.731 14.0215V12.6848L104.037 12.4941H105.564L105.87 12.6848V14.0215L105.564 14.2121H104.037L103.731 14.0215Z" fill="#EDEFF1"/>
<path d="M105.258 14.0215V12.6848L105.563 12.4941H107.09L107.396 12.6848V14.0215L107.09 14.2121H105.563L105.258 14.0215Z" fill="#EDEFF1"/>
<path d="M106.785 14.0215V12.6848L107.09 12.4941H108.618L108.923 12.6848V14.0215L108.618 14.2121H107.09L106.785 14.0215Z" fill="#EDEFF1"/>
<path d="M108.312 14.0215V12.6848L108.617 12.4941H110.144L110.45 12.6848V14.0215L110.144 14.2121H108.617L108.312 14.0215Z" fill="#EDEFF1"/>
<path d="M109.839 14.0215V12.6848L110.145 12.4941H111.672L111.978 12.6848V14.0215L111.672 14.2121H110.145L109.839 14.0215Z" fill="#EDEFF1"/>
<path d="M111.366 14.0215V12.6848L111.672 12.4941H113.199L113.505 12.6848V14.0215L113.199 14.2121H111.672L111.366 14.0215Z" fill="#EDEFF1"/>
<path d="M112.893 14.0215V12.6848L113.198 12.4941H114.726L115.031 12.6848V14.0215L114.726 14.2121H113.198L112.893 14.0215Z" fill="#EDEFF1"/>
<path d="M114.42 14.0215V12.6848L114.726 12.4941H116.253L116.559 12.6848V14.0215L116.253 14.2121H114.726L114.42 14.0215Z" fill="#EDEFF1"/>
<path d="M115.946 14.0215V12.6848L116.252 12.4941H117.779L118.084 12.6848V14.0215L117.779 14.2121H116.252L115.946 14.0215Z" fill="#EDEFF1"/>
<path d="M117.474 14.0215V12.6848L117.779 12.4941H119.307L119.612 12.6848V14.0215L119.307 14.2121H117.779L117.474 14.0215Z" fill="#EDEFF1"/>
<path d="M119.001 14.0215V12.6848L119.307 12.4941H120.834L121.139 12.6848V14.0215L120.834 14.2121H119.307L119.001 14.0215Z" fill="#EDEFF1"/>
<path d="M120.528 14.0215V12.6848L120.834 12.4941H122.361L122.666 12.6848V14.0215L122.361 14.2121H120.834L120.528 14.0215Z" fill="#EDEFF1"/>
<path d="M122.056 14.0215V12.6848L122.361 12.4941H123.889L124.194 12.6848V14.0215L123.889 14.2121H122.361L122.056 14.0215Z" fill="#EDEFF1"/>
<path d="M123.582 14.0215V12.6848L123.888 12.4941H125.415L125.72 12.6848V14.0215L125.415 14.2121H123.888L123.582 14.0215Z" fill="#EDEFF1"/>
<path d="M125.109 14.0215V12.6848L125.415 12.4941H126.942L127.248 12.6848V14.0215L126.942 14.2121H125.415L125.109 14.0215Z" fill="#EDEFF1"/>
<path d="M126.636 14.0215V12.6848L126.941 12.4941H128.469L128.774 12.6848V14.0215L128.469 14.2121H126.941L126.636 14.0215Z" fill="#EDEFF1"/>
<path d="M128.163 14.0215V12.6848L128.469 12.4941H129.996L130.301 12.6848V14.0215L129.996 14.2121H128.469L128.163 14.0215Z" fill="#EDEFF1"/>
<path d="M129.69 14.0215V12.6848L129.996 12.4941H131.523L131.829 12.6848V14.0215L131.523 14.2121H129.996L129.69 14.0215Z" fill="#EDEFF1"/>
<path d="M131.218 14.0215V12.6848L131.523 12.4941H133.051L133.356 12.6848V14.0215L133.051 14.2121H131.523L131.218 14.0215Z" fill="#EDEFF1"/>
<path d="M132.744 14.0215V12.6848L133.049 12.4941H134.577L134.882 12.6848V14.0215L134.577 14.2121H133.049L132.744 14.0215Z" fill="#EDEFF1"/>
<path d="M134.271 14.0215V12.6848L134.577 12.4941H136.104L136.41 12.6848V14.0215L136.104 14.2121H134.577L134.271 14.0215Z" fill="#EDEFF1"/>
<path d="M135.799 14.0215V12.6848L136.105 12.4941H137.631L137.937 12.6848V14.0215L137.631 14.2121H136.105L135.799 14.0215Z" fill="#EDEFF1"/>
<path d="M137.325 14.0215V12.6848L137.63 12.4941H139.158L139.463 12.6848V14.0215L139.158 14.2121H137.63L137.325 14.0215Z" fill="#EDEFF1"/>
<path d="M138.853 14.0215V12.6848L139.158 12.4941H140.685L140.991 12.6848V14.0215L140.685 14.2121H139.158L138.853 14.0215Z" fill="#EDEFF1"/>
<path d="M140.38 14.0215V12.6848L140.685 12.4941H142.212L142.518 12.6848V14.0215L142.212 14.2121H140.685L140.38 14.0215Z" fill="#EDEFF1"/>
<path d="M141.906 14.0215V12.6848L142.211 12.4941H143.739L144.044 12.6848V14.0215L143.739 14.2121H142.211L141.906 14.0215Z" fill="#EDEFF1"/>
<path d="M143.434 14.0215V12.6848L143.739 12.4941H145.266L145.572 12.6848V14.0215L145.266 14.2121H143.739L143.434 14.0215Z" fill="#EDEFF1"/>
<path d="M144.961 14.0215V12.6848L145.266 12.4941H146.793L147.099 12.6848V14.0215L146.793 14.2121H145.266L144.961 14.0215Z" fill="#EDEFF1"/>
<path d="M146.488 14.0215V12.6848L146.793 12.4941H148.321L148.626 12.6848V14.0215L148.321 14.2121H146.793L146.488 14.0215Z" fill="#EDEFF1"/>
<path d="M148.014 14.0215V12.6848L148.319 12.4941H149.847L150.152 12.6848V14.0215L149.847 14.2121H148.319L148.014 14.0215Z" fill="#EDEFF1"/>
<path d="M149.541 14.0215V12.6848L149.847 12.4941H151.374L151.68 12.6848V14.0215L151.374 14.2121H149.847L149.541 14.0215Z" fill="#EDEFF1"/>
<path d="M151.068 14.0215V12.6848L151.374 12.4941H152.901L153.207 12.6848V14.0215L152.901 14.2121H151.374L151.068 14.0215Z" fill="#EDEFF1"/>
<path d="M152.596 14.0215V12.6848L152.901 12.4941H154.428L154.734 12.6848V14.0215L154.428 14.2121H152.901L152.596 14.0215Z" fill="#EDEFF1"/>
<path d="M154.123 14.0215V12.6848L154.428 12.4941H155.955L156.261 12.6848V14.0215L155.955 14.2121H154.428L154.123 14.0215Z" fill="#EDEFF1"/>
<path d="M161.262 6.93881C160.257 7.01442 159.277 7.20509 158.322 7.51082L158.055 6.82375C158.234 6.75998 158.399 6.70278 158.552 6.65149C158.704 6.60152 158.851 6.55024 158.991 6.49896C158.571 6.25766 158.36 5.90722 158.36 5.44962C158.36 5.04198 158.508 4.69483 158.8 4.40883C159.092 4.12282 159.442 3.97949 159.85 3.97949C160.282 3.97949 160.639 4.1386 160.919 4.45617L160.537 5.01042C160.346 4.89602 160.142 4.83816 159.926 4.83816C159.697 4.83816 159.509 4.89602 159.363 5.01042C159.216 5.12417 159.143 5.27144 159.143 5.44962C159.143 5.64029 159.242 5.7994 159.439 5.92695C159.637 6.05384 159.9 6.13603 160.231 6.17482C160.448 6.13603 160.651 6.10447 160.842 6.07948C161.034 6.05384 161.218 6.03478 161.397 6.02228L161.262 6.93881Z" fill="#EDEFF1"/>
<path d="M162.255 14.2125C160.766 14.2125 159.774 13.7865 159.277 12.933C159.022 13.3413 158.605 13.6556 158.027 13.8785C157.448 14.1014 156.757 14.2125 155.955 14.2125L155.649 14.0218V12.6852L155.955 12.4938C156.782 12.4938 157.396 12.3992 157.797 12.2085C158.198 12.0165 158.45 11.699 158.552 11.2538C158.577 11.1131 158.609 10.9383 158.647 10.7279C158.685 10.5188 158.723 10.3051 158.761 10.0888C158.8 9.87248 158.831 9.65616 158.857 9.43985C158.882 9.22354 158.908 9.03222 158.933 8.86719L160.231 9.02038C160.168 9.55425 160.11 10.0441 160.059 10.4898C160.009 10.9356 159.984 11.2091 159.984 11.3104C159.984 12.1 160.74 12.4938 162.255 12.4938L162.561 12.6852V14.0218L162.255 14.2125Z" fill="#EDEFF1"/>
<path d="M166.99 18.1456L165.806 16.9424L166.99 15.7398L168.173 16.9424L166.99 18.1456ZM164.203 18.1456L163.019 16.9424L164.203 15.7398L165.386 16.9424L164.203 18.1456ZM168.555 14.2125C167.066 14.2125 166.074 13.7865 165.578 12.933C165.322 13.3413 164.906 13.6556 164.327 13.8778C163.747 14.1014 163.057 14.2125 162.255 14.2125L161.95 14.0218V12.6852L162.255 12.4945C163.082 12.4945 163.696 12.3985 164.098 12.2085C164.498 12.0165 164.75 11.699 164.852 11.2538C164.877 11.1131 164.91 10.9383 164.947 10.7279C164.985 10.5188 165.023 10.3051 165.062 10.0888C165.1 9.87247 165.131 9.65616 165.157 9.43985C165.182 9.22354 165.208 9.03222 165.233 8.86719L166.532 9.02038C166.468 9.55425 166.411 10.0441 166.36 10.4898C166.309 10.9356 166.284 11.2091 166.284 11.3104C166.284 12.1 167.04 12.4945 168.555 12.4945L168.861 12.6852V14.0218L168.555 14.2125Z" fill="#EDEFF1"/>
<path d="M170.692 10.2605C170.692 10.63 170.825 10.964 171.093 11.2631C171.361 11.5623 171.729 11.8141 172.2 12.0166C173.231 11.6609 173.747 11.0751 173.747 10.2605C173.747 9.8285 173.6 9.46163 173.307 9.16313C173.015 8.86398 172.652 8.71473 172.219 8.71473C171.787 8.71473 171.424 8.86069 171.131 9.15327C170.839 9.44585 170.692 9.81535 170.692 10.2605ZM174.949 10.2605C174.949 11.152 174.637 11.8897 174.013 12.4749C174.154 12.488 174.294 12.4979 174.434 12.5038C174.574 12.511 174.72 12.5137 174.873 12.5137C175.509 12.5137 176.031 12.4249 176.439 12.2461C176.846 12.0685 177.05 11.8325 177.05 11.5399C177.05 10.9291 176.937 10.34 176.715 9.77393C176.492 9.20784 176.178 8.67594 175.77 8.17954C175.363 7.6838 174.87 7.24132 174.291 6.8534C173.712 6.46483 173.072 6.1499 172.372 5.90795L173.021 4.43848C173.836 4.7304 174.571 5.11305 175.226 5.58315C175.881 6.05456 176.442 6.58581 176.906 7.17754C177.371 7.76993 177.727 8.41229 177.975 9.10527C178.223 9.79957 178.348 10.5149 178.348 11.2539C178.348 12.1954 178.048 12.9239 177.45 13.4394C176.852 13.9548 176.012 14.2126 174.93 14.2126C174.497 14.2126 174.033 14.1521 173.537 14.0311C173.04 13.9108 172.569 13.7484 172.124 13.5439C171.551 13.7484 170.947 13.9108 170.31 14.0311C169.673 14.1521 169.088 14.2126 168.554 14.2126L168.248 14.0219V12.6853L168.554 12.4946C168.884 12.4946 169.203 12.488 169.508 12.4749C169.814 12.463 170.106 12.4433 170.387 12.4183C169.788 11.82 169.489 11.1014 169.489 10.2605C169.489 9.8285 169.559 9.42744 169.699 9.05793C169.84 8.68909 170.033 8.36495 170.281 8.08421C170.53 7.80478 170.819 7.58518 171.15 7.42541C171.481 7.26696 171.837 7.1874 172.219 7.1874C172.601 7.1874 172.957 7.26696 173.289 7.42541C173.619 7.58518 173.909 7.80478 174.157 8.08421C174.405 8.36495 174.599 8.69238 174.739 9.0678C174.879 9.44322 174.949 9.84034 174.949 10.2605Z" fill="#EDEFF1"/>
<path d="M1.22168 24.3877H3.05473V29.7139H10.0227V24.3877H11.8551V37.1211H10.0227V31.3557H3.05473V37.1211H1.22168V24.3877Z" fill="#EDEFF1"/>
<path d="M21.0388 31.9096C20.9875 31.2219 20.7456 30.6367 20.3136 30.1528C19.8803 29.6696 19.2695 29.4283 18.4805 29.4283C18.0729 29.4283 17.7073 29.498 17.3826 29.638C17.0584 29.7781 16.7816 29.9622 16.5522 30.1916C16.3234 30.4204 16.1452 30.6847 16.0176 30.9839C15.8907 31.283 15.8204 31.5914 15.8079 31.9096H21.0388ZM22.5852 35.8236C22.4833 35.938 22.3301 36.0846 22.1269 36.2621C21.9231 36.441 21.6595 36.6126 21.3347 36.7776C21.0105 36.9433 20.6285 37.0866 20.1893 37.2076C19.7501 37.3286 19.2505 37.3891 18.6903 37.3891C18.0032 37.3891 17.3733 37.274 16.8007 37.0452C16.228 36.8157 15.7375 36.4916 15.3306 36.0715C14.9229 35.6513 14.608 35.1484 14.3858 34.5639C14.1629 33.9774 14.0518 33.3291 14.0518 32.6157C14.0518 31.9668 14.1596 31.3593 14.3759 30.7926C14.5922 30.2271 14.8979 29.7366 15.2924 29.3224C15.6869 28.9095 16.1544 28.5821 16.6955 28.3395C17.2366 28.0982 17.8316 27.9766 18.4805 27.9766C19.2439 27.9766 19.8994 28.1238 20.4471 28.4164C20.9941 28.7083 21.4425 29.0963 21.7929 29.5808C22.1427 30.0647 22.4004 30.6183 22.5661 31.2416C22.7312 31.8649 22.814 32.5145 22.814 33.1891H15.8079C15.8204 33.5829 15.9065 33.9465 16.0656 34.2765C16.2247 34.6079 16.4378 34.8939 16.7047 35.1359C16.9723 35.3778 17.278 35.5685 17.6212 35.7085C17.9651 35.8492 18.328 35.9189 18.7093 35.9189C19.4602 35.9189 20.0776 35.792 20.5615 35.5369C21.0454 35.2825 21.3952 35.034 21.6115 34.792L22.5852 35.8236Z" fill="#EDEFF1"/>
<path d="M24.7232 37.1221V28.7984C24.7232 28.6833 24.7166 28.4992 24.7041 28.2448H26.3458L26.403 29.6768C26.5049 29.5236 26.6384 29.3553 26.8041 29.1705C26.9691 28.9858 27.1697 28.8175 27.4057 28.6649C27.6404 28.5124 27.9146 28.3816 28.2262 28.2737C28.5385 28.1652 28.8975 28.1113 29.3051 28.1113C29.4958 28.1113 29.6707 28.1245 29.8298 28.1495C29.9889 28.1751 30.1388 28.2132 30.2789 28.2639L29.8969 29.8675C29.6681 29.7787 29.3748 29.734 29.0185 29.734C28.649 29.734 28.3091 29.8043 27.9968 29.9444C27.6851 30.0838 27.4149 30.2784 27.1861 30.5263C26.9566 30.7741 26.7758 31.0641 26.6417 31.3948C26.5082 31.7262 26.4412 32.0759 26.4412 32.4448V37.1221H24.7232Z" fill="#EDEFF1"/>
<path d="M31.7482 28.2444H33.4662V37.1217H31.7482V28.2444ZM31.6338 24.7314H33.5622V26.6598H31.6338V24.7314Z" fill="#EDEFF1"/>
<path d="M36.6739 29.6769H35.0703V28.2449H36.6739V25.3428H38.3919V28.2449H40.9883V29.6769H38.3919V34.0485C38.3919 34.7612 38.5037 35.251 38.7259 35.5186C38.9488 35.7862 39.2637 35.9197 39.6714 35.9197C40.0021 35.9197 40.2756 35.8684 40.4919 35.7671C40.7082 35.6646 40.9245 35.512 41.1408 35.3089L41.9239 36.3582C41.5544 36.7146 41.1763 36.9729 40.7878 37.1321C40.3998 37.2905 39.9383 37.3701 39.4038 37.3701C38.4616 37.3701 37.7719 37.1163 37.3327 36.6067C36.8935 36.0978 36.6739 35.3023 36.6739 34.2201V29.6769Z" fill="#EDEFF1"/>
<path d="M48.7761 32.9215C48.7254 32.9083 48.6268 32.8925 48.4802 32.8735C48.3336 32.8551 48.1653 32.8393 47.9746 32.8261C47.7833 32.813 47.5801 32.8005 47.3638 32.788C47.1468 32.7755 46.9371 32.7689 46.7339 32.7689C46.2494 32.7689 45.8588 32.8261 45.5597 32.9405C45.2605 33.0549 45.0251 33.1983 44.8529 33.3705C44.6813 33.5415 44.5636 33.7321 44.4998 33.9425C44.436 34.1523 44.4045 34.3535 44.4045 34.5441C44.4045 35.028 44.5695 35.3936 44.9009 35.6421C45.2316 35.89 45.6898 36.0143 46.2757 36.0143C46.6057 36.0143 46.9213 35.9564 47.2205 35.842C47.519 35.7283 47.7833 35.5751 48.0127 35.3837C48.2415 35.1931 48.4263 34.9708 48.5663 34.7164C48.7064 34.4613 48.7761 34.2009 48.7761 33.9333V32.9215ZM48.7958 36.0524C48.4644 36.4982 48.0285 36.8289 47.4881 37.0452C46.9469 37.2608 46.3901 37.3693 45.8174 37.3693C45.4479 37.3693 45.0823 37.322 44.7194 37.2267C44.3565 37.1313 44.0258 36.9722 43.7266 36.7487C43.4275 36.5271 43.1855 36.2398 43.0014 35.89C42.8167 35.5402 42.7246 35.1109 42.7246 34.6013C42.7246 33.6473 43.0586 32.8833 43.7266 32.3107C44.3953 31.7373 45.3591 31.4513 46.6189 31.4513C46.8227 31.4513 47.039 31.4579 47.2685 31.4711C47.4973 31.4829 47.7136 31.4961 47.9174 31.5085C48.1206 31.5217 48.2987 31.5348 48.4519 31.5467C48.6045 31.5598 48.7123 31.5723 48.7761 31.5848V31.2607C48.7761 30.5986 48.5762 30.1252 48.1751 29.8379C47.7741 29.5519 47.2297 29.4086 46.5426 29.4086C45.868 29.4086 45.3335 29.5013 44.939 29.6854C44.5445 29.8701 44.2138 30.0575 43.9469 30.2488L43.1447 29.0844C43.2973 28.9569 43.4814 28.83 43.6983 28.7024C43.9146 28.5755 44.1691 28.4578 44.4617 28.3494C44.7543 28.2409 45.085 28.1521 45.4545 28.0818C45.8233 28.0114 46.2494 27.9766 46.7339 27.9766C47.8793 27.9766 48.7793 28.2534 49.4349 28.807C50.0904 29.3612 50.4184 30.1469 50.4184 31.1653V36.6731C50.4184 36.7934 50.4244 36.9433 50.4375 37.1215H48.8339L48.7958 36.0524Z" fill="#EDEFF1"/>
<path d="M59.1429 29.81C59.0285 29.7719 58.8346 29.718 58.561 29.6476C58.2869 29.5779 57.8766 29.5431 57.3296 29.5431C56.8457 29.5431 56.4065 29.6227 56.0126 29.7811C55.6175 29.9402 55.2769 30.1631 54.9909 30.4498C54.7043 30.7364 54.482 31.077 54.3229 31.4715C54.1632 31.866 54.0836 32.2986 54.0836 32.7694C54.0836 33.1763 54.1323 33.5583 54.2276 33.914C54.3229 34.2717 54.4755 34.5827 54.6858 34.8496C54.8956 35.1172 55.1592 35.3276 55.4781 35.4801C55.7957 35.6333 56.1842 35.7089 56.6425 35.7089C57.062 35.7089 57.4308 35.6452 57.7497 35.5183C58.0673 35.3914 58.3283 35.2218 58.5321 35.012C58.7359 34.8016 58.8885 34.5669 58.9904 34.3059C59.0923 34.0455 59.1429 33.7746 59.1429 33.4946V29.81ZM53.9508 38.9359C54.2434 39.139 54.6023 39.3139 55.0291 39.4605C55.4551 39.6071 55.9739 39.6801 56.5853 39.6801C57.4374 39.6801 58.0738 39.4441 58.494 38.974C58.9141 38.5026 59.1238 37.8852 59.1238 37.1219V36.0337C59.0351 36.11 58.9174 36.2152 58.7708 36.3487C58.6242 36.4821 58.4394 36.6097 58.2172 36.73C57.9943 36.8516 57.7306 36.9595 57.4249 37.0548C57.1198 37.1501 56.7694 37.1981 56.3749 37.1981C55.726 37.1981 55.15 37.087 54.6471 36.8641C54.1447 36.6413 53.7213 36.3362 53.3775 35.9476C53.0343 35.5597 52.7732 35.0949 52.5951 34.5538C52.4169 34.0133 52.3281 33.4249 52.3281 32.7884C52.3281 32.1007 52.4484 31.4675 52.6904 30.889C52.9317 30.3097 53.2723 29.8067 53.7115 29.38C54.1507 28.9547 54.676 28.6233 55.2868 28.3879C55.8976 28.1525 56.5787 28.0342 57.3296 28.0342C58.0548 28.0342 58.7294 28.098 59.3533 28.2255C59.9766 28.3531 60.4796 28.4924 60.8616 28.645V37.1219C60.8616 38.4072 60.4888 39.4033 59.7445 40.1095C59.0002 40.8163 57.9529 41.1693 56.6037 41.1693C55.7003 41.1693 54.9811 41.0707 54.4465 40.8735C53.912 40.6756 53.4794 40.45 53.1487 40.1956L53.9508 38.9359Z" fill="#EDEFF1"/>
<path d="M69.7576 31.9096C69.7069 31.2219 69.465 30.6367 69.0324 30.1528C68.5997 29.6696 67.9883 29.4283 67.1993 29.4283C66.7923 29.4283 66.4261 29.498 66.1013 29.638C65.7772 29.7781 65.5004 29.9622 65.2716 30.1916C65.0421 30.4204 64.8639 30.6847 64.737 30.9839C64.6095 31.283 64.5391 31.5914 64.5266 31.9096H69.7576ZM71.3039 35.8236C71.202 35.938 71.0495 36.0846 70.8463 36.2621C70.6419 36.441 70.3782 36.6126 70.0541 36.7776C69.7293 36.9433 69.3473 37.0866 68.9081 37.2076C68.4689 37.3286 67.9692 37.3891 67.4097 37.3891C66.7226 37.3891 66.0921 37.274 65.5194 37.0452C64.9468 36.8157 64.4569 36.4916 64.0493 36.0715C63.6423 35.6513 63.3267 35.1484 63.1045 34.5639C62.8816 33.9774 62.7705 33.3291 62.7705 32.6157C62.7705 31.9668 62.8783 31.3593 63.0953 30.7926C63.311 30.2271 63.6167 29.7366 64.0112 29.3224C64.4057 28.9095 64.8731 28.5821 65.4149 28.3395C65.9553 28.0982 66.5504 27.9766 67.1993 27.9766C67.9633 27.9766 68.6188 28.1238 69.1658 28.4164C69.7128 28.7083 70.1619 29.0963 70.5117 29.5808C70.8621 30.0647 71.1199 30.6183 71.2849 31.2416C71.4499 31.8649 71.5334 32.5145 71.5334 33.1891H64.5266C64.5391 33.5829 64.6253 33.9465 64.7844 34.2765C64.9435 34.6079 65.1572 34.8939 65.4241 35.1359C65.6917 35.3778 65.9968 35.5685 66.3406 35.7085C66.6845 35.8492 67.0468 35.9189 67.4288 35.9189C68.1796 35.9189 68.797 35.792 69.2802 35.5369C69.7641 35.2825 70.1139 35.034 70.3302 34.792L71.3039 35.8236Z" fill="#EDEFF1"/>
<path d="M87.9887 34.8871C87.8486 35.1165 87.6323 35.3775 87.3397 35.6701C87.0465 35.9627 86.6908 36.2395 86.2707 36.5005C85.8505 36.7615 85.3666 36.9811 84.8196 37.1587C84.2726 37.3375 83.6677 37.4263 83.0063 37.4263C82.0641 37.4263 81.2048 37.2606 80.429 36.9305C79.6525 36.5998 78.9838 36.1382 78.4243 35.5465C77.8641 34.9541 77.4282 34.2539 77.1166 33.4459C76.8043 32.6378 76.6484 31.7568 76.6484 30.8021C76.6484 29.8731 76.8043 29.0006 77.1166 28.1867C77.4282 27.3727 77.8641 26.6594 78.4243 26.0479C78.9838 25.4371 79.6558 24.9578 80.4382 24.6067C81.2212 24.2569 82.0897 24.082 83.0444 24.082C83.7183 24.082 84.3232 24.1655 84.8577 24.3299C85.3923 24.4956 85.8604 24.702 86.2615 24.9506C86.6619 25.1991 87.0057 25.4693 87.2917 25.7619C87.5784 26.0545 87.8105 26.3352 87.9887 26.6015L86.6908 27.7094C86.5383 27.493 86.3568 27.2675 86.1464 27.0315C85.9367 26.7961 85.6848 26.5831 85.3923 26.3924C85.0997 26.2011 84.7624 26.0426 84.3811 25.9144C83.9991 25.7875 83.5599 25.7244 83.0635 25.7244C82.3633 25.7244 81.7367 25.8572 81.1831 26.1248C80.6288 26.3924 80.1587 26.7547 79.7702 27.2123C79.3816 27.6706 79.0857 28.2057 78.8826 28.8165C78.6787 29.4273 78.5768 30.0769 78.5768 30.7633C78.5768 31.4511 78.682 32.0974 78.8918 32.7016C79.1022 33.3058 79.398 33.8312 79.78 34.2763C80.1614 34.7227 80.6255 35.0725 81.1732 35.3269C81.7202 35.5814 82.331 35.7083 83.0063 35.7083C83.5789 35.7083 84.072 35.6353 84.4856 35.4887C84.8992 35.3427 85.2489 35.1678 85.5356 34.964C85.8223 34.7602 86.057 34.5531 86.2417 34.3433C86.4258 34.1336 86.5823 33.9587 86.7099 33.818L87.9887 34.8871Z" fill="#EDEFF1"/>
<path d="M93.7354 35.8991C94.1937 35.8991 94.6073 35.8077 94.9761 35.6223C95.3456 35.4382 95.6573 35.1962 95.9117 34.8977C96.1661 34.5986 96.3608 34.2547 96.4942 33.8661C96.6277 33.4782 96.6948 33.0804 96.6948 32.6728C96.6948 32.279 96.6277 31.8871 96.4942 31.4985C96.3608 31.1106 96.1629 30.7635 95.9025 30.4584C95.6415 30.1527 95.3292 29.9081 94.9669 29.7233C94.604 29.5392 94.1937 29.4465 93.7354 29.4465C93.2772 29.4465 92.8636 29.5392 92.4948 29.7233C92.1253 29.9081 91.8136 30.15 91.5592 30.4485C91.3041 30.7477 91.1101 31.0922 90.9773 31.4801C90.8432 31.868 90.7761 32.2658 90.7761 32.6728C90.7761 33.0804 90.8432 33.4749 90.9773 33.8569C91.1101 34.2389 91.3074 34.5821 91.5684 34.8872C91.8294 35.1929 92.1417 35.4382 92.504 35.6223C92.8669 35.8077 93.2772 35.8991 93.7354 35.8991ZM93.7354 37.3889C93.0484 37.3889 92.4185 37.2646 91.8452 37.0168C91.2725 36.7682 90.7794 36.4277 90.3659 35.9944C89.9523 35.5624 89.6275 35.0621 89.3921 34.496C89.1568 33.9306 89.0391 33.3217 89.0391 32.6728C89.0391 32.0245 89.1568 31.4164 89.3921 30.8496C89.6275 30.2842 89.9523 29.7845 90.3659 29.3512C90.7794 28.9186 91.2725 28.578 91.8452 28.3301C92.4185 28.0823 93.0484 27.958 93.7354 27.958C94.41 27.958 95.034 28.0823 95.6066 28.3301C96.1793 28.578 96.6757 28.9186 97.0958 29.3512C97.5153 29.7845 97.8434 30.2842 98.0788 30.8496C98.3141 31.4164 98.4318 32.0245 98.4318 32.6728C98.4318 33.3217 98.3141 33.9306 98.0788 34.496C97.8434 35.0621 97.5153 35.5624 97.0958 35.9944C96.6757 36.4277 96.1793 36.7682 95.6066 37.0168C95.034 37.2646 94.41 37.3889 93.7354 37.3889Z" fill="#EDEFF1"/>
<path d="M100.379 37.1219V28.8074C100.379 28.6871 100.373 28.499 100.36 28.2446H102.002L102.059 29.5812C102.161 29.428 102.295 29.2597 102.46 29.075C102.625 28.8909 102.823 28.7219 103.052 28.5694C103.282 28.4168 103.552 28.2886 103.863 28.1874C104.176 28.0855 104.535 28.0342 104.942 28.0342C105.63 28.0342 106.199 28.1716 106.651 28.4451C107.103 28.7193 107.455 29.1164 107.71 29.6384C108.066 29.2183 108.503 28.8462 109.018 28.5214C109.534 28.1972 110.173 28.0342 110.937 28.0342C112.082 28.0342 112.929 28.3748 113.476 29.0559C114.023 29.7364 114.297 30.6503 114.297 31.795V37.1219H112.579V31.9291C112.579 31.102 112.416 30.4945 112.092 30.1059C111.767 29.718 111.293 29.5234 110.669 29.5234C110.313 29.5234 109.985 29.597 109.686 29.743C109.387 29.8896 109.126 30.0835 108.904 30.3255C108.681 30.5668 108.509 30.8502 108.388 31.175C108.267 31.4991 108.207 31.8403 108.207 32.196V37.1219H106.489V31.9291C106.489 31.102 106.326 30.4945 106.002 30.1059C105.677 29.718 105.21 29.5234 104.598 29.5234C104.128 29.5234 103.733 29.6259 103.415 29.8291C103.096 30.0329 102.838 30.2966 102.642 30.6214C102.444 30.9455 102.305 31.3183 102.222 31.7378C102.139 32.1586 102.097 32.5787 102.097 32.9975V37.1219H100.379Z" fill="#EDEFF1"/>
<path d="M116.607 37.1219V28.8074C116.607 28.6871 116.6 28.499 116.587 28.2446H118.229L118.287 29.5812C118.388 29.428 118.522 29.2597 118.688 29.075C118.852 28.8909 119.05 28.7219 119.279 28.5694C119.508 28.4168 119.778 28.2886 120.091 28.1874C120.402 28.0855 120.762 28.0342 121.169 28.0342C121.857 28.0342 122.426 28.1716 122.878 28.4451C123.329 28.7193 123.682 29.1164 123.938 29.6384C124.293 29.2183 124.729 28.8462 125.245 28.5214C125.76 28.1972 126.4 28.0342 127.164 28.0342C128.31 28.0342 129.155 28.3748 129.704 29.0559C130.25 29.7364 130.524 30.6503 130.524 31.795V37.1219H128.806V31.9291C128.806 31.102 128.644 30.4945 128.32 30.1059C127.994 29.718 127.519 29.5234 126.897 29.5234C126.54 29.5234 126.212 29.597 125.913 29.743C125.614 29.8896 125.353 30.0835 125.131 30.3255C124.908 30.5668 124.736 30.8502 124.615 31.175C124.494 31.4991 124.434 31.8403 124.434 32.196V37.1219H122.716V31.9291C122.716 31.102 122.553 30.4945 122.229 30.1059C121.904 29.718 121.436 29.5234 120.826 29.5234C120.354 29.5234 119.96 29.6259 119.642 29.8291C119.323 30.0329 119.066 30.2966 118.869 30.6214C118.67 30.9455 118.531 31.3183 118.448 31.7378C118.366 32.1586 118.325 32.5787 118.325 32.9975V37.1219H116.607Z" fill="#EDEFF1"/>
<path d="M132.91 28.2444H134.628V37.1217H132.91V28.2444ZM132.795 24.7314H134.723V26.6598H132.795V24.7314Z" fill="#EDEFF1"/>
<path d="M137.644 34.8872C137.962 35.2061 138.344 35.4605 138.79 35.6512C139.235 35.8419 139.75 35.9378 140.335 35.9378C140.909 35.9378 141.386 35.8451 141.767 35.661C142.15 35.4763 142.341 35.1863 142.341 34.7919C142.341 34.5887 142.299 34.4138 142.217 34.2672C142.133 34.1206 141.994 33.9904 141.796 33.8753C141.599 33.7609 141.338 33.6564 141.014 33.5611C140.689 33.4657 140.285 33.3605 139.802 33.2461C139.458 33.1692 139.117 33.0673 138.781 32.9411C138.443 32.8128 138.141 32.6445 137.873 32.4348C137.606 32.2244 137.389 31.97 137.224 31.6708C137.059 31.3716 136.976 31.0127 136.976 30.5925C136.976 30.1599 137.074 29.7805 137.272 29.4564C137.469 29.1316 137.733 28.8588 138.064 28.6352C138.395 28.413 138.767 28.244 139.181 28.1296C139.594 28.0152 140.024 27.958 140.47 27.958C141.22 27.958 141.866 28.056 142.407 28.2532C142.948 28.4511 143.422 28.7279 143.83 29.0843L142.894 30.2677C142.627 30.0258 142.293 29.822 141.892 29.6569C141.491 29.4913 141.023 29.4084 140.489 29.4084C139.941 29.4084 139.502 29.4978 139.171 29.676C138.84 29.8548 138.675 30.1468 138.675 30.5544C138.675 30.9357 138.894 31.2191 139.334 31.4032C139.773 31.588 140.349 31.7635 141.061 31.9292C141.481 32.0304 141.873 32.1481 142.235 32.2816C142.598 32.4151 142.916 32.5873 143.19 32.7971C143.464 33.0075 143.68 33.2645 143.839 33.5703C143.998 33.8753 144.078 34.2448 144.078 34.6775C144.078 35.1232 143.975 35.5151 143.773 35.8517C143.569 36.189 143.295 36.4724 142.952 36.7018C142.608 36.9306 142.213 37.1022 141.767 37.2166C141.322 37.331 140.858 37.3883 140.374 37.3883C138.694 37.3883 137.435 36.9366 136.594 36.0332L137.644 34.8872Z" fill="#EDEFF1"/>
<path d="M146.654 34.8872C146.973 35.2061 147.354 35.4605 147.8 35.6512C148.246 35.8419 148.761 35.9378 149.346 35.9378C149.919 35.9378 150.397 35.8451 150.778 35.661C151.16 35.4763 151.351 35.1863 151.351 34.7919C151.351 34.5887 151.309 34.4138 151.227 34.2672C151.144 34.1206 151.004 33.9904 150.807 33.8753C150.61 33.7609 150.348 33.6564 150.025 33.5611C149.7 33.4657 149.295 33.3605 148.812 33.2461C148.468 33.1692 148.128 33.0673 147.791 32.9411C147.453 32.8128 147.151 32.6445 146.884 32.4348C146.616 32.2244 146.399 31.97 146.235 31.6708C146.069 31.3716 145.986 31.0127 145.986 30.5925C145.986 30.1599 146.085 29.7805 146.282 29.4564C146.48 29.1316 146.743 28.8588 147.075 28.6352C147.405 28.413 147.778 28.244 148.192 28.1296C148.605 28.0152 149.035 27.958 149.48 27.958C150.231 27.958 150.876 28.056 151.418 28.2532C151.958 28.4511 152.432 28.7279 152.841 29.0843L151.904 30.2677C151.637 30.0258 151.303 29.822 150.902 29.6569C150.501 29.4913 150.034 29.4084 149.499 29.4084C148.952 29.4084 148.513 29.4978 148.182 29.676C147.851 29.8548 147.685 30.1468 147.685 30.5544C147.685 30.9357 147.905 31.2191 148.344 31.4032C148.783 31.588 149.359 31.7635 150.072 31.9292C150.492 32.0304 150.883 32.1481 151.246 32.2816C151.609 32.4151 151.927 32.5873 152.2 32.7971C152.474 33.0075 152.69 33.2645 152.85 33.5703C153.009 33.8753 153.089 34.2448 153.089 34.6775C153.089 35.1232 152.986 35.5151 152.783 35.8517C152.579 36.189 152.306 36.4724 151.962 36.7018C151.618 36.9306 151.223 37.1022 150.778 37.2166C150.332 37.331 149.868 37.3883 149.385 37.3883C147.704 37.3883 146.445 36.9366 145.604 36.0332L146.654 34.8872Z" fill="#EDEFF1"/>
<path d="M155.169 28.2444H156.887V37.1217H155.169V28.2444ZM155.054 24.7314H156.982V26.6598H155.054V24.7314Z" fill="#EDEFF1"/>
<path d="M163.607 35.8991C164.065 35.8991 164.479 35.8077 164.848 35.6223C165.217 35.4382 165.529 35.1962 165.784 34.8977C166.038 34.5986 166.232 34.2547 166.366 33.8661C166.5 33.4782 166.566 33.0804 166.566 32.6728C166.566 32.279 166.5 31.8871 166.366 31.4985C166.232 31.1106 166.035 30.7635 165.774 30.4584C165.513 30.1527 165.202 29.9081 164.838 29.7233C164.476 29.5392 164.065 29.4465 163.607 29.4465C163.149 29.4465 162.735 29.5392 162.366 29.7233C161.997 29.9081 161.685 30.15 161.431 30.4485C161.176 30.7477 160.982 31.0922 160.848 31.4801C160.715 31.868 160.648 32.2658 160.648 32.6728C160.648 33.0804 160.715 33.4749 160.848 33.8569C160.982 34.2389 161.179 34.5821 161.44 34.8872C161.701 35.1929 162.012 35.4382 162.375 35.6223C162.738 35.8077 163.149 35.8991 163.607 35.8991ZM163.607 37.3889C162.92 37.3889 162.29 37.2646 161.717 37.0168C161.145 36.7682 160.651 36.4277 160.237 35.9944C159.824 35.5624 159.5 35.0621 159.264 34.496C159.028 33.9306 158.911 33.3217 158.911 32.6728C158.911 32.0245 159.028 31.4164 159.264 30.8496C159.5 30.2842 159.824 29.7845 160.237 29.3512C160.651 28.9186 161.145 28.578 161.717 28.3301C162.29 28.0823 162.92 27.958 163.607 27.958C164.281 27.958 164.905 28.0823 165.478 28.3301C166.051 28.578 166.548 28.9186 166.967 29.3512C167.387 29.7845 167.715 30.2842 167.95 30.8496C168.186 31.4164 168.303 32.0245 168.303 32.6728C168.303 33.3217 168.186 33.9306 167.95 34.496C167.715 35.0621 167.387 35.5624 166.967 35.9944C166.548 36.4277 166.051 36.7682 165.478 37.0168C164.905 37.2646 164.281 37.3889 163.607 37.3889Z" fill="#EDEFF1"/>
<path d="M170.251 37.1219V28.8074C170.251 28.6871 170.245 28.499 170.231 28.2446H171.874L171.931 29.5812C172.045 29.428 172.185 29.2597 172.351 29.075C172.516 28.8909 172.72 28.7219 172.961 28.5694C173.203 28.4168 173.486 28.2886 173.811 28.1874C174.136 28.0855 174.502 28.0342 174.909 28.0342C176.067 28.0342 176.926 28.3721 177.486 29.046C178.046 29.7206 178.326 30.6371 178.326 31.795V37.1219H176.608V31.9291C176.608 31.102 176.43 30.4945 176.073 30.1059C175.717 29.718 175.214 29.5234 174.566 29.5234C174.069 29.5234 173.655 29.6259 173.324 29.8291C172.993 30.0329 172.729 30.2966 172.532 30.6214C172.335 30.9455 172.191 31.315 172.103 31.7286C172.013 32.1421 171.969 32.5655 171.969 32.9975V37.1219H170.251Z" fill="#EDEFF1"/>
<path d="M305.583 37.4293C305.489 37.5522 305.581 34.2438 305.583 34.1958C305.583 34.1938 305.581 34.1951 305.579 34.1951H302.329C302.327 34.1951 302.327 34.1958 302.327 34.1938C302.329 34.1524 302.465 31.0682 302.327 30.961L302.326 30.9603C302.226 30.9242 299.128 30.9761 299.071 30.961L299.07 30.9603C298.938 30.9189 299.061 34.1314 299.071 34.1938C299.071 34.1951 299.071 34.1951 299.072 34.1958C299.116 34.2392 295.861 34.1958 295.815 34.1951C295.814 34.1951 295.815 34.1938 295.815 34.1951C295.812 34.2412 295.649 37.4628 295.813 37.4293C295.815 37.4293 295.816 37.4299 295.816 37.4306C295.908 37.5818 292.761 37.4306 292.716 37.4293C292.715 37.4293 292.715 37.428 292.715 37.426V34.1978C292.715 34.1958 292.716 34.1951 292.715 34.1951C292.672 34.1978 289.678 34.3464 289.465 34.2004C289.465 34.1997 289.465 34.2017 289.465 34.2004C289.506 34.1294 289.219 30.9044 289.459 30.961C289.453 30.9544 289.437 30.961 289.437 30.961C289.031 31.0379 286.245 30.961 286.205 30.961C286.203 30.9603 286.204 30.9603 286.204 30.961C286.204 31.009 286.192 34.1623 286.181 34.1951C286.181 34.1958 286.18 34.1951 286.18 34.1951C285.939 34.2944 282.913 34.0768 282.952 34.1951C282.421 34.111 283.42 37.1328 282.972 37.4115C282.971 37.4115 282.969 37.4109 282.969 37.4096C282.942 37.3412 280.257 37.4628 279.827 37.4293H279.825C279.583 37.2938 279.539 34.0406 279.826 34.1951C279.785 34.1195 276.613 34.1938 276.57 34.1951C276.569 34.1951 276.57 34.1958 276.57 34.1938C276.566 34.1577 276.232 31.1438 276.567 30.961C276.569 30.961 276.569 30.9603 276.569 30.959C276.483 30.7795 273.051 30.9866 273.314 30.961C272.843 30.9768 272.842 34.0262 273.291 34.1951C273.652 34.1215 270.083 34.1938 270.036 34.1951C270.035 34.1951 270.036 34.1958 270.036 34.1978V37.426C270.036 37.428 270.037 37.4293 270.035 37.4293C269.989 37.4306 266.787 37.5654 266.936 37.4293C267.104 37.3708 266.938 34.2405 266.936 34.1951C266.936 34.1938 266.935 34.1951 266.933 34.1951H263.683C263.681 34.1951 263.68 34.1938 263.68 34.1925L263.658 30.963C263.658 30.961 263.656 30.961 263.655 30.961H260.426C260.426 30.961 260.425 30.9603 260.425 30.961C260.418 31.0004 259.905 34.0814 260.396 34.1938C260.399 34.1938 260.401 34.1971 260.399 34.1978C260.177 34.3595 257.187 34.1978 257.147 34.1951C257.145 34.1951 257.145 34.1938 257.145 34.1958C257.143 34.2418 256.944 37.4497 257.145 37.4293C257.491 37.4543 254.587 37.2715 254.09 37.4273C254.088 37.428 254.087 37.4273 254.087 37.4253C254.11 37.2781 254.047 34.2405 254.047 34.1951C254.047 34.1938 254.045 34.1951 254.044 34.1951H250.832C250.83 34.1951 250.828 34.1932 250.828 34.1925V30.963C250.828 30.961 250.83 30.961 250.828 30.9603C250.79 30.9597 247.761 30.8433 247.575 30.9597C247.574 30.9603 247.574 30.961 247.576 30.9623C247.924 31.1543 247.585 34.1274 247.536 34.1938L247.534 34.1951C247.315 34.2635 244.421 34.1958 244.288 34.1951C244.285 34.1951 244.288 34.1951 244.29 34.1971C244.403 34.2878 244.507 37.5529 244.284 37.4293C244.117 37.3274 241.61 37.3833 241.258 37.4207C241.255 37.4221 241.258 37.4194 241.261 37.4188C241.668 37.2143 241.201 34.2346 241.196 34.1951C241.195 34.1938 241.195 34.1951 241.193 34.1951H237.965C237.963 34.1951 237.962 34.1932 237.962 34.1925V30.963C237.962 30.961 237.961 30.961 237.96 30.961H234.683C234.683 30.961 234.585 34.1143 234.682 34.1938C234.683 34.1951 234.683 34.1951 234.681 34.1958C234.238 34.3109 231.454 34.1951 231.454 34.1951H231.428V37.426C231.428 37.428 231.428 37.4293 231.427 37.4293C231.385 37.4273 228.671 37.3004 228.329 37.4293H228.327C228.093 37.3517 228.569 34.3523 228.306 34.1958C228.306 34.1951 228.306 34.1951 228.305 34.1951C227.749 34.2622 225.122 34.0104 225.073 34.1951C224.56 34.3944 225.214 31.0096 225.051 30.961C225.05 30.961 225.05 30.9603 225.05 30.961C225.035 30.9768 222.323 30.8814 221.793 30.961C221.43 30.8742 221.487 33.9788 221.791 34.1925C221.793 34.1938 221.793 34.1951 221.791 34.1958C221.627 34.2622 219.123 34.1563 218.57 34.1938C218.568 34.1951 218.568 34.1958 218.57 34.1971C218.82 34.3069 218.401 37.3392 218.538 37.4293C218.984 37.5798 215.613 37.4365 215.439 37.4293H215.438C215.234 37.2952 215.971 34.203 215.416 34.1951C215.5 34.0202 212.692 34.3161 212.184 34.1951C211.774 34.3069 212.017 31.0563 212.184 30.961C212.527 30.8203 209.07 30.8012 208.93 30.957C208.929 30.959 208.931 30.9577 208.932 30.9597C209 31.0327 209.038 34.2083 208.904 34.1951C209.263 34.3727 205.853 34.2629 205.68 34.1978C205.677 34.1971 205.679 34.1978 205.681 34.1997C205.897 34.3911 205.905 37.357 205.65 37.4293H205.648C205.6 37.3865 202.739 37.57 202.554 37.4326C202.552 37.4319 202.555 37.4293 202.557 37.4293C203.102 37.4365 202.223 34.3582 202.513 34.2004C202.516 34.1997 202.519 34.1958 202.516 34.1958C201.875 34.2083 198.903 34.3681 199.294 34.1951C199.514 34.1202 199.44 31.0215 199.294 30.961C199.294 30.961 199.294 30.961 199.292 30.9603C199.148 30.9334 196.039 30.792 196.038 30.961C195.77 30.9137 195.927 33.9769 196.037 34.1932C196.037 34.1938 196.036 34.1951 196.035 34.1958C195.456 34.3674 193.263 34.1905 192.795 34.1951C192.794 34.1951 192.794 34.1958 192.795 34.1978C192.862 34.3365 192.787 37.3846 192.786 37.4293C192.786 37.4299 192.784 37.4293 192.783 37.4293H190.825C190.824 37.4293 190.822 37.428 190.822 37.4293C190.819 37.4733 190.585 40.8909 190.821 41.0862H190.824C192.422 41.217 193.206 40.9981 195.064 41.0625C196.657 40.9429 206.205 40.9343 207.954 41.0625C209.408 40.9547 211.913 41.2039 213.387 41.0625C214.662 41.1329 222.582 41.0329 223.56 41.0658C224.349 40.9678 238.266 40.906 239.166 41.0625C239.989 41.1888 245.542 41.1519 246.561 41.0625C247.54 40.9087 276.68 41.0783 277.775 41.0625C279.142 41.075 283.778 41.1092 285.231 41.0625C286.124 41.077 287.48 40.9987 287.948 41.0658C289.273 41.2466 297.863 40.8304 298.861 40.9909C300.853 41.2519 301.494 41.1815 303.554 41.0625C304.871 40.9179 306.572 40.8738 307.733 41.0862C308.124 41.0763 307.268 37.4694 307.725 37.4293C307.727 37.4293 307.73 37.4273 307.727 37.426C307.543 37.355 305.888 37.4023 305.583 37.4293Z" fill="#EDEFF1"/>
<path d="M205.842 17.7198C205.851 17.5456 205.806 14.5087 205.842 14.4856C205.803 14.3581 202.778 14.2904 202.742 14.4856C202.767 14.6822 202.738 17.4634 202.742 17.7198C202.767 17.5594 199.492 17.8335 199.486 17.7198C199.44 17.6429 199.456 21.09 199.486 20.9539C199.506 21.023 199.454 23.9428 199.486 24.1881C199.482 24.4103 202.73 23.9317 202.742 24.1881C202.703 24.2091 202.778 27.5912 202.742 27.4216C202.754 27.3953 205.873 27.4827 205.842 27.4216C205.851 27.6313 205.869 24.054 205.842 24.1881C205.821 24.2427 209.12 24.4294 209.097 24.1881C209.138 24.0342 209.125 20.7212 209.097 20.9539C209.099 20.9454 209.127 17.8809 209.097 17.7198C209.091 17.9558 205.817 17.7421 205.842 17.7198Z" fill="#EDEFF1"/>
<path d="M218.692 17.7202C218.681 17.7386 218.684 14.2717 218.692 14.486C218.692 14.2421 215.575 14.4308 215.592 14.486C215.605 14.4045 215.624 17.6018 215.592 17.7202C215.624 17.9615 212.29 17.5479 212.337 17.7202C212.318 17.778 212.324 20.8333 212.337 20.9543C212.324 21.1877 212.343 24.0583 212.337 24.1885C212.295 24.1214 215.557 24.3745 215.592 24.1885C215.607 24.2049 215.567 27.3654 215.592 27.4219C215.589 27.6751 218.698 27.443 218.692 27.4219C218.674 27.5271 218.689 24.3107 218.692 24.1885C218.739 24.2772 221.945 24.1437 221.948 24.1885C221.987 24.1792 221.914 20.8504 221.948 20.9543C221.959 20.7446 221.952 17.5808 221.948 17.7202C221.908 17.7636 218.697 17.5742 218.692 17.7202Z" fill="#EDEFF1"/>
<path d="M231.543 17.7202C231.552 17.8648 231.581 14.3743 231.543 14.486C231.522 14.5419 228.447 14.4716 228.443 14.486C228.479 14.7181 228.426 17.6774 228.443 17.7202C228.465 17.5288 225.217 17.9174 225.187 17.7202C225.139 17.8379 225.214 20.832 225.187 20.9543C225.166 20.7374 225.168 24.3482 225.187 24.1885C225.144 24.1372 228.459 24.2831 228.443 24.1885C228.426 24.0497 228.47 27.1682 228.443 27.422C228.464 27.4522 231.562 27.3562 231.543 27.422C231.524 27.3352 231.575 24.3528 231.543 24.1885C231.569 24.3035 234.784 24.3916 234.799 24.1885C234.838 24.3509 234.804 21.0825 234.799 20.9543C234.752 20.7558 234.812 17.8918 234.799 17.7202C234.806 17.7695 231.53 17.9477 231.543 17.7202Z" fill="#EDEFF1"/>
<path d="M244.395 17.7204C244.374 17.5909 244.382 14.264 244.395 14.4862C244.435 14.6716 241.309 14.5145 241.294 14.4862C241.282 14.3646 241.265 17.656 241.294 17.7204C241.254 17.8624 238.025 17.5968 238.039 17.7204C238.069 17.4771 238.069 21.1485 238.039 20.9545C238.024 20.9236 238.031 24.2235 238.039 24.1887C238.013 24.3254 241.302 23.9835 241.294 24.1887C241.326 24.24 241.333 27.3617 241.294 27.4222C241.25 27.2131 244.393 27.5188 244.395 27.4222C244.442 27.4945 244.418 24.1966 244.395 24.1887C244.366 24.3511 247.604 24.1834 247.65 24.1887C247.626 24.142 247.683 20.9039 247.65 20.9545C247.661 21.0841 247.636 17.9328 247.65 17.7204C247.686 17.5442 244.395 17.8913 244.395 17.7204Z" fill="#EDEFF1"/>
<path d="M257.245 17.7193C257.256 17.5799 257.23 14.3517 257.245 14.4851C257.212 14.3957 254.122 14.2333 254.145 14.4851C254.099 14.5154 254.124 17.5122 254.145 17.7193C254.126 17.7114 250.896 17.7785 250.889 17.7193C250.903 17.6759 250.908 20.9692 250.889 20.9534C250.862 21.1467 250.921 23.9969 250.889 24.1876C250.866 24.3309 254.18 24.1724 254.145 24.1876C254.183 23.9745 254.158 27.6413 254.145 27.4211C254.18 27.2935 257.242 27.327 257.245 27.4211C257.24 27.2455 257.281 24.2855 257.245 24.1876C257.29 24.4275 260.527 24.0396 260.501 24.1876C260.456 24.1797 260.466 20.8548 260.501 20.9534C260.472 20.9731 260.475 17.7015 260.501 17.7193C260.458 17.9251 257.259 17.7666 257.245 17.7193Z" fill="#EDEFF1"/>
<path d="M270.096 17.7196C270.084 17.5519 270.13 14.661 270.096 14.4854C270.106 14.2382 267.033 14.6656 266.996 14.4854C266.996 14.2961 266.961 17.4986 266.996 17.7196C267.013 17.5887 263.752 17.8254 263.74 17.7196C263.773 17.8885 263.777 21.007 263.74 20.9537C263.754 21.055 263.742 24.2135 263.74 24.1879C263.71 24.4121 267.016 24.2431 266.996 24.1879C266.952 24.3522 266.971 27.47 266.996 27.4213C266.99 27.2182 270.119 27.282 270.096 27.4213C270.109 27.3766 270.103 24.4239 270.096 24.1879C270.076 24.4403 273.318 24.4423 273.351 24.1879C273.362 24.2806 273.318 21.0208 273.351 20.9537C273.32 20.8636 273.32 17.6301 273.351 17.7196C273.33 17.6749 270.084 17.8885 270.096 17.7196Z" fill="#EDEFF1"/>
<path d="M282.946 17.7204C282.981 17.485 282.945 14.5638 282.946 14.4863C282.991 14.3896 279.873 14.3528 279.846 14.4863C279.863 14.6454 279.839 17.9479 279.846 17.7204C279.874 17.7125 276.563 17.704 276.591 17.7204C276.627 17.9012 276.633 20.777 276.591 20.9545C276.581 21.1347 276.55 23.998 276.591 24.1887C276.595 24.2492 279.869 24.2867 279.846 24.1887C279.882 24.3669 279.808 27.5931 279.846 27.4222C279.816 27.1677 282.946 27.438 282.946 27.4222C282.987 27.3157 282.92 24.3254 282.946 24.1887C282.963 24.1834 286.238 24.3425 286.202 24.1887C286.209 24.2288 286.238 21.1215 286.202 20.9545C286.22 20.8888 286.223 17.6704 286.202 17.7204C286.164 17.9564 282.954 17.7059 282.946 17.7204Z" fill="#EDEFF1"/>
<path d="M295.797 17.7204C295.761 17.8624 295.838 14.6618 295.797 14.4863C295.784 14.7394 292.651 14.3607 292.697 14.4863C292.66 14.4882 292.735 17.5942 292.697 17.7204C292.681 17.5731 289.394 17.8815 289.441 17.7204C289.421 17.6856 289.472 21.1222 289.441 20.9546C289.43 20.7922 289.454 24.1269 289.441 24.1887C289.459 24.4287 292.71 24.0592 292.697 24.1887C292.697 24.2321 292.741 27.4807 292.697 27.4222C292.69 27.4485 295.762 27.4695 295.797 27.4222C295.757 27.4879 295.832 24.2268 295.797 24.1887C295.753 24.4162 299.03 24.4017 299.053 24.1887C299.009 24.1262 299.062 21.1945 299.053 20.9546C299.025 20.9881 299.081 17.5002 299.053 17.7204C299.022 17.5659 295.774 17.6573 295.797 17.7204Z" fill="#EDEFF1"/>
<path d="M305.583 4.57007C305.49 4.44844 305.579 7.69047 305.583 7.80093C305.583 7.80488 305.579 7.80422 305.576 7.80422H302.333C302.329 7.80422 302.327 7.80356 302.327 7.80685C302.331 7.90416 302.464 10.9305 302.327 11.0377L302.326 11.039C302.224 11.0752 299.118 11.0226 299.071 11.0377C299.07 11.039 299.07 11.039 299.07 11.039C298.939 11.0745 299.06 7.88509 299.071 7.80488C299.071 7.80356 299.073 7.80422 299.072 7.80225C299.062 7.76083 295.864 7.80356 295.816 7.80422C295.814 7.80422 295.815 7.80488 295.815 7.80356C295.812 7.75557 295.649 4.55824 295.811 4.57007C295.813 4.57007 295.816 4.56876 295.818 4.56679C295.882 4.42017 292.82 4.56481 292.718 4.57007C292.715 4.57007 292.715 4.5727 292.715 4.57665V7.7983C292.715 7.80159 292.716 7.80422 292.712 7.80422C292.616 7.79896 289.683 7.65366 289.466 7.79896C289.503 7.89101 289.242 10.8431 289.434 11.0298C289.437 11.0338 289.434 11.0377 289.43 11.0377C289.102 11.0351 286.247 11.0364 286.205 11.0377C286.203 11.039 286.205 11.039 286.204 11.0377C286.204 10.9917 286.192 7.83644 286.181 7.80422C286.181 7.80356 286.181 7.80422 286.18 7.80422C285.94 7.70494 282.913 7.92257 282.951 7.80422C282.404 7.89101 283.483 4.67461 282.925 4.57007C283.376 4.6562 280.293 4.53457 279.827 4.57007C279.826 4.57007 279.826 4.57007 279.824 4.57139C279.597 4.70223 279.554 7.60632 279.781 7.79962C279.785 7.80356 279.783 7.80422 279.778 7.80422H276.575C276.572 7.80422 276.57 7.80356 276.569 7.80553C276.561 7.88903 276.236 10.8431 276.566 11.0364C276.567 11.0377 276.569 11.0397 276.567 11.0423C276.458 11.2179 273.052 11.0127 273.313 11.0377C272.85 11.0226 272.842 8.06853 273.27 7.81474C273.275 7.81211 273.277 7.80751 273.271 7.80882C273.001 7.83381 270.128 7.80488 270.037 7.80422C270.035 7.80422 270.036 7.80159 270.036 7.79896V4.57665C270.036 4.5727 270.036 4.57007 270.033 4.57007C269.929 4.56613 266.788 4.43463 266.936 4.57007C267.102 4.62793 266.942 7.69902 266.937 7.80159C266.936 7.80488 266.933 7.80422 266.931 7.80422H263.686C263.683 7.80422 263.68 7.80685 263.68 7.81014L263.658 11.0324C263.658 11.0364 263.655 11.0377 263.652 11.0377H260.429C260.426 11.0377 260.425 11.039 260.424 11.0364C260.409 10.9457 259.913 7.93506 260.391 7.80685C260.397 7.80488 260.401 7.80225 260.395 7.79896C260.149 7.64182 257.191 7.80159 257.147 7.80422C257.145 7.80422 257.145 7.80488 257.145 7.80356C257.143 7.75228 256.958 4.75943 257.127 4.57928C257.131 4.57468 257.132 4.57139 257.126 4.57139C256.884 4.58585 254.566 4.71998 254.092 4.5727C254.089 4.57139 254.087 4.57139 254.087 4.57468C254.109 4.7259 254.048 7.71217 254.047 7.80159C254.047 7.80488 254.044 7.80422 254.04 7.80422H250.835C250.832 7.80422 250.828 7.80685 250.828 7.81014V11.0324C250.828 11.0364 250.83 11.0377 250.826 11.039C250.738 11.0423 247.779 11.1541 247.577 11.0417C247.574 11.039 247.575 11.0377 247.579 11.0351C247.922 10.8319 247.586 7.88049 247.536 7.80488C247.534 7.80422 247.534 7.80422 247.534 7.80356C247.311 7.73518 244.436 7.79962 244.29 7.80422C244.284 7.80422 244.286 7.80422 244.288 7.79962C244.366 7.66878 244.507 4.44581 244.284 4.57007C244.12 4.67001 241.669 4.61807 241.271 4.57928C241.265 4.57928 241.265 4.58322 241.271 4.58651C241.658 4.83635 241.207 7.72401 241.196 7.80225C241.195 7.80553 241.193 7.80422 241.19 7.80422H237.968C237.965 7.80422 237.962 7.80685 237.962 7.81014V11.0324C237.962 11.0364 237.959 11.0377 237.957 11.0377H234.683C234.683 11.0377 234.585 7.92059 234.68 7.80751C234.683 7.80422 234.682 7.80356 234.679 7.80225C234.227 7.6885 231.454 7.80422 231.454 7.80422H231.428V4.57665C231.428 4.5727 231.428 4.57007 231.425 4.57007C231.328 4.57468 228.672 4.69697 228.33 4.57139C228.328 4.57007 228.327 4.57007 228.327 4.57139C228.095 4.6562 228.568 7.64051 228.308 7.80356C228.306 7.80422 228.305 7.80422 228.304 7.80422C227.747 7.73716 225.122 7.98831 225.073 7.80422C224.559 7.60435 225.216 10.9976 225.05 11.0377C225.042 11.039 222.325 11.1179 221.793 11.0377C221.43 11.1252 221.486 8.03499 221.788 7.80882C221.792 7.80553 221.793 7.80356 221.788 7.80225C221.606 7.73913 219.138 7.84235 218.576 7.80488C218.572 7.80488 218.572 7.80159 218.576 7.79896C218.814 7.64577 218.403 4.65883 218.538 4.57007C218.984 4.41885 215.618 4.56284 215.439 4.57007L215.437 4.57139C215.235 4.70749 215.971 7.79633 215.416 7.80422C215.5 7.97779 212.692 7.68324 212.184 7.80422C211.774 7.69179 212.017 10.943 212.184 11.0377C212.528 11.1797 209.025 11.1975 208.928 11.039C208.927 11.039 208.928 11.039 208.927 11.0377C208.928 11.0232 209.041 7.79107 208.904 7.80422C209.243 7.63656 205.983 7.73124 205.7 7.79041C205.692 7.79107 205.691 7.7891 205.695 7.78252C205.898 7.47153 205.9 4.63977 205.65 4.57007H205.648C205.601 4.61281 202.79 4.432 202.558 4.56284C202.555 4.56481 202.56 4.57007 202.565 4.57007C203.097 4.59177 202.226 7.61026 202.521 7.79567C202.525 7.79896 202.528 7.80422 202.523 7.80422C201.897 7.79107 198.901 7.62999 199.294 7.80422C199.514 7.87917 199.44 10.9752 199.294 11.0377L199.292 11.039C199.145 11.066 196.039 11.2073 196.038 11.0377C195.771 11.0857 195.927 8.04025 196.035 7.80882C196.037 7.80488 196.035 7.80356 196.032 7.80225C195.447 7.63196 193.251 7.86668 192.792 7.80488C192.791 7.80488 192.792 7.80553 192.793 7.80488C192.862 7.71283 192.787 4.66409 192.786 4.57205C192.786 4.56942 192.783 4.57007 192.78 4.57007H190.829C190.825 4.57007 190.822 4.57139 190.822 4.56876C190.816 4.46685 190.589 1.11501 190.821 0.914482C190.822 0.913167 190.824 0.91251 190.825 0.91251C192.422 0.782329 193.207 1.00127 195.064 0.936837C196.658 1.0565 206.204 1.06439 207.954 0.936837C209.409 1.04466 211.913 0.795478 213.387 0.936837C214.662 0.866486 222.582 0.966423 223.56 0.933549C224.351 1.03151 238.266 1.092 239.166 0.936837C239.989 0.8106 245.542 0.847419 246.561 0.936837C247.54 1.09069 276.68 0.921057 277.774 0.936837C279.142 0.923687 283.778 0.890156 285.231 0.936837C286.124 0.921057 287.48 1.00061 287.948 0.933549C289.273 0.752742 297.862 1.16893 298.861 1.00784C300.853 0.747482 301.494 0.817833 303.554 0.936837C304.871 1.08082 306.572 1.12553 307.733 0.913167C308.122 0.923029 307.279 4.4846 307.716 4.56876C307.721 4.57007 307.725 4.57402 307.721 4.57533C307.505 4.64305 305.885 4.59637 305.583 4.57007Z" fill="#EDEFF1"/>
</svg>
