<svg width="76" height="76" viewBox="0 0 76 76" fill="none" xmlns="http://www.w3.org/2000/svg">
<path opacity="0.929" fill-rule="evenodd" clip-rule="evenodd" d="M1.26158 6.45703C16.2539 6.43229 31.2461 6.45703 46.2381 6.53125C46.5102 6.60547 46.6835 6.77865 46.7577 7.05078C46.7825 10.5648 46.8567 14.0779 46.9803 17.5898C49.4083 18.5689 51.808 19.608 54.1795 20.707C57.1235 17.7631 60.0676 14.819 63.0116 11.875C62.6886 11.8508 62.4165 11.7271 62.1952 11.5039C62.0461 10.9855 62.1204 10.5154 62.4178 10.0938C63.6856 9.76413 64.9721 9.61569 66.2772 9.64844C66.6363 9.89865 66.7847 10.245 66.7225 10.6875C66.6182 11.7643 66.4451 12.8281 66.203 13.8789C65.7813 14.1763 65.3113 14.2506 64.7928 14.1016C64.5696 13.8803 64.4459 13.6082 64.4217 13.2852C61.2756 16.4809 58.0842 19.6227 54.8475 22.7109C54.4383 22.7976 54.0425 22.748 53.66 22.5625C51.2528 21.481 48.8284 20.4915 46.3866 19.5938C41.2407 24.7396 36.095 29.8854 30.9491 35.0313C29.8529 35.1718 29.4322 34.7017 29.6874 33.6211C30.7512 32.5572 31.8149 31.4935 32.8788 30.4297C22.1791 30.4288 11.4916 30.3298 0.816265 30.1328C0.643505 22.3998 0.618765 14.6563 0.742047 6.90235C0.91202 6.73366 1.0852 6.58522 1.26158 6.45703ZM2.44908 8.38672C16.6001 8.38672 30.7512 8.38672 44.9022 8.38672C44.927 11.7517 44.9022 15.1163 44.828 18.4805C44.5311 18.7773 44.2342 19.0742 43.9374 19.3711C43.8879 17.2435 43.8384 15.1158 43.7889 12.9883C43.4545 12.3879 42.935 12.1158 42.2303 12.1719C41.4105 11.6958 40.99 10.9784 40.9686 10.0195C40.845 9.89584 40.7212 9.77213 40.5975 9.64844C29.3657 9.54948 18.134 9.54948 6.9022 9.64844C6.72902 9.72266 6.60533 9.84635 6.53111 10.0195C6.39284 11.5924 5.52696 12.4088 3.93345 12.4688C3.84056 12.5801 3.76634 12.7038 3.7108 12.8398C3.61183 16.5508 3.61183 20.2617 3.7108 23.9727C3.96462 24.4768 4.38519 24.6994 4.97252 24.6406C5.42697 24.7981 5.79807 25.0702 6.0858 25.457C6.25316 26.0567 6.47582 26.6257 6.75377 27.1641C16.4395 27.3609 26.1375 27.4599 35.8475 27.4609C35.5506 27.7578 35.2538 28.0547 34.9569 28.3516C24.1211 28.4258 13.2851 28.4506 2.44908 28.4258C2.44908 21.7461 2.44908 15.0664 2.44908 8.38672ZM8.23814 11.5039C18.5798 11.4544 28.921 11.5039 39.2616 11.6523C39.7393 12.9224 40.6299 13.7141 41.9335 14.0273C41.9582 16.5018 41.9335 18.9758 41.8592 21.4492C40.5481 22.7604 39.2368 24.0717 37.9256 25.3828C28.0298 25.4818 18.134 25.4818 8.23814 25.3828C7.76808 24.1211 6.9022 23.2553 5.64048 22.7852C5.56627 19.8663 5.54154 16.947 5.56627 14.0273C6.93229 13.7006 7.82292 12.8595 8.23814 11.5039ZM22.6366 15.5117C22.8307 16.0341 22.8307 16.5782 22.6366 17.1445C21.6478 16.602 21.6478 16.0577 22.6366 15.5117ZM24.7147 19.8164C25.5096 19.939 25.7569 20.3597 25.4569 21.0781C25.2305 21.2279 24.9831 21.3021 24.7147 21.3008C24.7147 20.806 24.7147 20.3112 24.7147 19.8164Z" fill="url(#paint0_linear_993_1538)"/>
<path opacity="0.92" fill-rule="evenodd" clip-rule="evenodd" d="M23.2305 12.0977C24.3607 11.9414 24.8554 12.4362 24.7148 13.5821C25.9831 13.733 26.8985 14.3762 27.4609 15.5118C27.733 16.7241 27.2631 17.194 26.0508 16.9219C25.7839 16.3138 25.3634 15.8438 24.7891 15.5118C24.666 16.2589 24.6908 17.001 24.8633 17.7383C25.8663 18.0046 26.6827 18.549 27.3125 19.3712C27.9514 21.5802 27.135 22.9161 24.8633 23.379C24.739 24.6233 24.1206 25.0192 23.0078 24.5665C22.8165 24.1433 22.7423 23.698 22.7852 23.2305C21.2505 23.0318 20.2608 22.1906 19.8164 20.7071C20.1449 19.5877 20.7634 19.3899 21.6719 20.1133C21.755 20.7406 22.1013 21.1365 22.7109 21.3008C22.785 20.6099 22.8098 19.9173 22.7852 19.2227C20.2395 18.6337 19.4726 17.1493 20.4844 14.7696C21.1188 14.1183 21.8858 13.7225 22.7852 13.5821C22.6897 12.9983 22.8381 12.5035 23.2305 12.0977ZM22.6367 15.5118C21.648 16.0577 21.648 16.602 22.6367 17.1446C22.8309 16.5783 22.8309 16.0341 22.6367 15.5118ZM24.7148 19.8165C24.7148 20.3112 24.7148 20.8061 24.7148 21.3008C24.9832 21.3022 25.2307 21.228 25.457 21.0782C25.757 20.3597 25.5097 19.9391 24.7148 19.8165Z" fill="url(#paint1_linear_993_1538)"/>
<path opacity="0.899" fill-rule="evenodd" clip-rule="evenodd" d="M10.6134 17.4414C12.4942 17.4166 14.3744 17.4414 16.254 17.5156C16.8169 17.8204 16.9899 18.2903 16.7735 18.9258C16.6993 19.099 16.5757 19.2227 16.4024 19.2969C14.4233 19.3959 12.4441 19.3959 10.4649 19.2969C10.1214 19.1045 9.97291 18.8076 10.0196 18.4063C10.0099 17.948 10.2078 17.6264 10.6134 17.4414Z" fill="url(#paint2_linear_993_1538)"/>
<path opacity="0.898" fill-rule="evenodd" clip-rule="evenodd" d="M31.2461 17.4414C33.0775 17.4166 34.9082 17.4414 36.7382 17.5156C37.4114 17.7491 37.6341 18.2191 37.4062 18.9258C37.2826 19.0495 37.1588 19.1732 37.0351 19.2969C35.056 19.3959 33.0767 19.3959 31.0976 19.2969C30.288 18.6266 30.3375 18.008 31.2461 17.4414Z" fill="url(#paint3_linear_993_1538)"/>
<path opacity="0.921" fill-rule="evenodd" clip-rule="evenodd" d="M60.4884 18.4805C62.3692 18.4557 64.2495 18.4805 66.129 18.5547C66.265 18.6102 66.3888 18.6844 66.5001 18.7774C66.7196 23.617 66.7938 28.466 66.7227 33.3242C71.3145 34.032 74.1102 36.6543 75.1095 41.1914C75.6167 45.7686 73.8849 49.1827 69.9142 51.4336C67.3805 60.2511 61.7151 65.9659 52.9181 68.5781C42.9827 70.7254 34.6948 67.9794 28.0548 60.3399C24.4976 55.7554 22.8895 50.5847 23.2306 44.8281C34.2526 44.6558 45.2864 44.5322 56.3321 44.4571C56.1996 44.0735 56.1501 43.6776 56.1837 43.2696C54.7861 43.3315 53.4008 43.2572 52.0274 43.0469C51.9345 42.9356 51.8603 42.8118 51.8048 42.6758C51.7058 36.8867 51.7058 31.0977 51.8048 25.3086C51.9284 25.185 52.0522 25.0612 52.1759 24.9375C54.0561 24.8385 55.9362 24.8385 57.8165 24.9375C57.9525 24.993 58.0763 25.0673 58.1876 25.1602C58.3828 28.9572 58.4818 32.767 58.4845 36.5899C58.8803 35.9961 59.3751 35.5014 59.9688 35.1055C60.0183 29.7123 60.0678 24.319 60.1173 18.9258C60.2724 18.7962 60.396 18.6478 60.4884 18.4805ZM61.9727 20.4102C62.9128 20.4102 63.853 20.4102 64.7931 20.4102C64.7931 24.7149 64.7931 29.0196 64.7931 33.3242C63.8275 33.4086 62.8874 33.6064 61.9727 33.918C61.9727 29.4154 61.9727 24.9127 61.9727 20.4102ZM53.6602 26.793C54.6003 26.793 55.5405 26.793 56.4806 26.793C56.5246 31.645 56.4752 36.494 56.3321 41.3399C55.4415 41.3399 54.5509 41.3399 53.6602 41.3399C53.6602 36.4909 53.6602 31.642 53.6602 26.793ZM64.3477 35.2539C68.9365 34.9226 71.8807 36.9512 73.1798 41.3399C73.638 46.0741 71.5847 49.0677 67.0196 50.3203C62.3033 50.673 59.3594 48.5703 58.1876 44.0117C57.9118 39.4191 59.9651 36.4999 64.3477 35.2539ZM64.3477 39.7071C64.4962 39.7071 64.6446 39.7071 64.7931 39.7071C64.8177 40.3522 64.7929 40.9953 64.7188 41.6367C63.6198 41.1528 63.4962 40.5097 64.3477 39.7071ZM66.7227 44.1602C67.2697 44.2822 67.616 44.6039 67.7618 45.125C67.6491 45.678 67.3027 45.95 66.7227 45.9414C66.7227 45.3477 66.7227 44.7539 66.7227 44.1602ZM24.8634 46.6836C27.8079 46.4865 30.7767 46.4865 33.7696 46.6836C33.9103 50.6208 34.6031 54.4555 35.8477 58.1875C34.3116 59.007 32.8768 59.9719 31.5431 61.0821C27.5112 57.1247 25.2846 52.3253 24.8634 46.6836ZM35.6993 46.5352C39.0639 46.5352 42.4284 46.5352 45.7931 46.5352C45.7931 49.5534 45.7931 52.5717 45.7931 55.5899C42.9723 55.7638 40.2508 56.3328 37.629 57.2969C36.4497 53.8083 35.8065 50.221 35.6993 46.5352ZM47.7227 46.5352C50.792 46.4857 53.8597 46.5352 56.9259 46.6836C57.4101 47.3589 57.6575 48.101 57.6681 48.9102C57.4913 51.8228 56.8975 54.6431 55.8868 57.3711C53.274 56.285 50.5527 55.6912 47.7227 55.5899C47.7227 52.5717 47.7227 49.5534 47.7227 46.5352ZM59.4493 50.0977C61.8672 51.9762 64.5885 52.7183 67.6134 52.3242C66.4918 55.7094 64.661 58.6285 62.1212 61.0821C60.6726 60.0632 59.2376 59.0489 57.8165 58.0391C58.7126 55.4631 59.2569 52.816 59.4493 50.0977ZM44.9024 57.5196C45.1993 57.5196 45.4962 57.5196 45.7931 57.5196C45.8425 60.6878 45.7931 63.8544 45.6446 67.0196C43.0382 66.1699 41.0839 64.5371 39.7813 62.1211C39.233 61.2225 38.7629 60.2823 38.3712 59.3008C40.4708 58.3803 42.6478 57.7866 44.9024 57.5196ZM47.7227 57.5196C50.3465 57.6436 52.87 58.2126 55.2931 59.2266C54.2285 61.8738 52.5957 64.1004 50.3946 65.9063C49.6124 66.4064 48.7713 66.7775 47.8712 67.0196C47.7227 63.8544 47.6733 60.6878 47.7227 57.5196ZM36.4415 60.043C37.1788 61.5168 37.9952 62.9518 38.8907 64.3477C39.5125 65.1176 40.1805 65.835 40.8946 66.5C37.9743 65.7572 35.352 64.4213 33.0274 62.4922C34.0708 61.5269 35.2087 60.7105 36.4415 60.043ZM56.9259 60.1914C58.2913 60.7383 59.5283 61.5052 60.6368 62.4922C58.3108 64.422 55.6883 65.758 52.7696 66.5C54.5823 64.6812 55.9677 62.5783 56.9259 60.1914Z" fill="url(#paint4_linear_993_1538)"/>
<path opacity="0.922" fill-rule="evenodd" clip-rule="evenodd" d="M43.8633 23.5274C45.7936 23.5026 47.7233 23.5274 49.6524 23.6016C49.8307 23.7356 49.9545 23.9087 50.0235 24.1211C50.1225 30.2565 50.1225 36.392 50.0235 42.5274C49.8998 42.849 49.6772 43.0717 49.3555 43.1953C47.6237 43.2943 45.892 43.2943 44.1602 43.1953C43.8645 43.1101 43.6418 42.9369 43.4922 42.6758C43.3932 36.4414 43.3932 30.2071 43.4922 23.9727C43.6473 23.8431 43.771 23.6947 43.8633 23.5274ZM45.3477 25.4571C46.2877 25.4571 47.228 25.4571 48.168 25.4571C48.168 30.7514 48.168 36.0455 48.168 41.3399C47.228 41.3399 46.2877 41.3399 45.3477 41.3399C45.3477 36.0455 45.3477 30.7514 45.3477 25.4571Z" fill="url(#paint5_linear_993_1538)"/>
<path opacity="0.921" fill-rule="evenodd" clip-rule="evenodd" d="M35.5508 31.8399C37.4811 31.8151 39.4108 31.8399 41.3399 31.9141C41.4141 31.9883 41.4883 32.0625 41.5625 32.1367C41.8069 35.6367 41.8563 39.1497 41.711 42.6758C41.5873 42.7995 41.4635 42.9232 41.3399 43.0469C39.5235 43.2883 37.6926 43.3377 35.8477 43.1953C35.5826 43.0788 35.3599 42.9057 35.1797 42.6758C35.0807 39.2617 35.0807 35.8477 35.1797 32.4336C35.278 32.2133 35.4018 32.0155 35.5508 31.8399ZM37.0352 33.7696C37.9752 33.7696 38.9155 33.7696 39.8555 33.7696C39.8555 36.293 39.8555 38.8164 39.8555 41.3399C38.9155 41.3399 37.9752 41.3399 37.0352 41.3399C37.0352 38.8164 37.0352 36.293 37.0352 33.7696Z" fill="url(#paint6_linear_993_1538)"/>
<path opacity="0.922" fill-rule="evenodd" clip-rule="evenodd" d="M27.2382 35.9961C29.1685 35.9713 31.0982 35.9961 33.0273 36.0703C33.1509 36.194 33.2747 36.3178 33.3984 36.4414C33.4974 38.5196 33.4974 40.5977 33.3984 42.6758C33.3428 42.8118 33.2686 42.9356 33.1757 43.0469C31.306 43.2854 29.4257 43.335 27.5351 43.1953C27.3227 43.1263 27.1496 43.0025 27.0155 42.8242C26.7734 40.7601 26.724 38.6819 26.8671 36.5899C26.9654 36.3696 27.0892 36.1717 27.2382 35.9961ZM28.7226 37.9258C29.6626 37.9258 30.6028 37.9258 31.5429 37.9258C31.5429 39.0639 31.5429 40.2018 31.5429 41.3399C30.6028 41.3399 29.6626 41.3399 28.7226 41.3399C28.7226 40.2018 28.7226 39.0639 28.7226 37.9258Z" fill="url(#paint7_linear_993_1538)"/>
<path opacity="0.919" fill-rule="evenodd" clip-rule="evenodd" d="M65.2383 36.1446C66.347 35.9911 66.8665 36.4858 66.7969 37.6289C68.0595 37.8887 68.9995 38.5813 69.6172 39.7071C69.9142 40.9936 69.4441 41.4637 68.207 41.1172C67.9392 40.4783 67.4939 40.0082 66.8711 39.7071C66.6985 40.4941 66.6738 41.2858 66.7969 42.0821C67.6966 42.3393 68.4883 42.7846 69.1719 43.418C70.3131 45.8858 69.5461 47.4196 66.8711 48.0196C66.8512 49.2644 66.2575 49.7097 65.0898 49.3555C64.9871 49.2776 64.9129 49.1786 64.8672 49.0586C64.7934 48.6659 64.7686 48.27 64.793 47.8711C63.075 47.711 62.0359 46.7957 61.6758 45.125C61.7412 44.3987 62.1371 44.1019 62.8633 44.2344C63.3411 44.9114 63.9349 45.4804 64.6445 45.9414C64.7922 45.1559 64.8417 44.3643 64.793 43.5664C62.1996 43.0781 61.3336 41.5937 62.1953 39.1133C62.8239 38.3167 63.6404 37.8465 64.6445 37.7032C64.7594 37.3462 64.8336 36.9751 64.8672 36.5899C64.9708 36.4131 65.0944 36.2647 65.2383 36.1446ZM64.3477 39.7071C63.4961 40.5097 63.6197 41.1528 64.7188 41.6368C64.7928 40.9954 64.8176 40.3522 64.793 39.7071C64.6445 39.7071 64.4961 39.7071 64.3477 39.7071ZM66.7227 44.1602C66.7227 44.7539 66.7227 45.3477 66.7227 45.9414C67.3026 45.95 67.6491 45.678 67.7617 45.125C67.616 44.6039 67.2696 44.2822 66.7227 44.1602Z" fill="url(#paint8_linear_993_1538)"/>
<defs>
<linearGradient id="paint0_linear_993_1538" x1="33.7007" y1="6.44775" x2="33.7007" y2="35.0555" gradientUnits="userSpaceOnUse">
<stop stop-color="#DED3B3"/>
<stop offset="1" stop-color="#C9B888"/>
</linearGradient>
<linearGradient id="paint1_linear_993_1538" x1="23.6761" y1="12.0696" x2="23.6761" y2="24.7476" gradientUnits="userSpaceOnUse">
<stop stop-color="#DED3B3"/>
<stop offset="1" stop-color="#C9B888"/>
</linearGradient>
<linearGradient id="paint2_linear_993_1538" x1="13.4375" y1="17.4321" x2="13.4375" y2="19.3712" gradientUnits="userSpaceOnUse">
<stop stop-color="#DED3B3"/>
<stop offset="1" stop-color="#C9B888"/>
</linearGradient>
<linearGradient id="paint3_linear_993_1538" x1="34.009" y1="17.4321" x2="34.009" y2="19.3712" gradientUnits="userSpaceOnUse">
<stop stop-color="#DED3B3"/>
<stop offset="1" stop-color="#C9B888"/>
</linearGradient>
<linearGradient id="paint4_linear_993_1538" x1="49.1907" y1="18.4712" x2="49.1907" y2="69.2848" gradientUnits="userSpaceOnUse">
<stop stop-color="#DED3B3"/>
<stop offset="1" stop-color="#C9B888"/>
</linearGradient>
<linearGradient id="paint5_linear_993_1538" x1="46.7578" y1="23.5181" x2="46.7578" y2="43.2696" gradientUnits="userSpaceOnUse">
<stop stop-color="#DED3B3"/>
<stop offset="1" stop-color="#C9B888"/>
</linearGradient>
<linearGradient id="paint6_linear_993_1538" x1="38.4489" y1="31.8306" x2="38.4489" y2="43.2746" gradientUnits="userSpaceOnUse">
<stop stop-color="#DED3B3"/>
<stop offset="1" stop-color="#C9B888"/>
</linearGradient>
<linearGradient id="paint7_linear_993_1538" x1="30.13" y1="35.9868" x2="30.13" y2="43.2727" gradientUnits="userSpaceOnUse">
<stop stop-color="#DED3B3"/>
<stop offset="1" stop-color="#C9B888"/>
</linearGradient>
<linearGradient id="paint8_linear_993_1538" x1="65.6896" y1="36.1173" x2="65.6896" y2="49.4732" gradientUnits="userSpaceOnUse">
<stop stop-color="#DED3B3"/>
<stop offset="1" stop-color="#C9B888"/>
</linearGradient>
</defs>
</svg>
