<svg width="76" height="77" viewBox="0 0 76 77" fill="none" xmlns="http://www.w3.org/2000/svg">
<path opacity="0.929" fill-rule="evenodd" clip-rule="evenodd" d="M1.26158 7.4032C16.2539 7.37846 31.2461 7.4032 46.2381 7.47742C46.5102 7.55164 46.6835 7.72482 46.7577 7.99695C46.7825 11.511 46.8567 15.024 46.9803 18.536C49.4083 19.5151 51.808 20.5542 54.1795 21.6532C57.1235 18.7092 60.0676 15.7652 63.0116 12.8212C62.6886 12.797 62.4165 12.6733 62.1952 12.4501C62.0461 11.9316 62.1204 11.4616 62.4178 11.0399C63.6856 10.7103 64.9721 10.5619 66.2772 10.5946C66.6363 10.8448 66.7847 11.1912 66.7225 11.6337C66.6182 12.7104 66.4451 13.7742 66.203 14.8251C65.7813 15.1225 65.3113 15.1967 64.7928 15.0477C64.5696 14.8265 64.4459 14.5543 64.4217 14.2313C61.2756 17.427 58.0842 20.5689 54.8475 23.6571C54.4383 23.7438 54.0425 23.6942 53.66 23.5087C51.2528 22.4272 48.8284 21.4377 46.3866 20.5399C41.2407 25.6858 36.095 30.8315 30.9491 35.9774C29.8529 36.118 29.4322 35.6479 29.6874 34.5673C30.7512 33.5034 31.8149 32.4397 32.8788 31.3759C22.1791 31.375 11.4916 31.276 0.816265 31.079C0.643505 23.346 0.618765 15.6025 0.742047 7.84851C0.91202 7.67983 1.0852 7.53139 1.26158 7.4032ZM2.44908 9.33289C16.6001 9.33289 30.7512 9.33289 44.9022 9.33289C44.927 12.6978 44.9022 16.0625 44.828 19.4266C44.5311 19.7235 44.2342 20.0204 43.9374 20.3173C43.8879 18.1897 43.8384 16.062 43.7889 13.9345C43.4545 13.3341 42.935 13.0619 42.2303 13.118C41.4105 12.642 40.99 11.9245 40.9686 10.9657C40.845 10.842 40.7212 10.7183 40.5975 10.5946C29.3657 10.4956 18.134 10.4956 6.9022 10.5946C6.72902 10.6688 6.60533 10.7925 6.53111 10.9657C6.39284 12.5386 5.52696 13.355 3.93345 13.4149C3.84056 13.5263 3.76634 13.65 3.7108 13.786C3.61183 17.497 3.61183 21.2079 3.7108 24.9188C3.96462 25.4229 4.38519 25.6456 4.97252 25.5868C5.42697 25.7443 5.79807 26.0164 6.0858 26.4032C6.25316 27.0029 6.47582 27.5718 6.75377 28.1102C16.4395 28.3071 26.1375 28.4061 35.8475 28.4071C35.5506 28.704 35.2538 29.0009 34.9569 29.2977C24.1211 29.372 13.2851 29.3967 2.44908 29.372C2.44908 22.6923 2.44908 16.0126 2.44908 9.33289ZM8.23814 12.4501C18.5798 12.4006 28.921 12.4501 39.2616 12.5985C39.7393 13.8686 40.6299 14.6602 41.9335 14.9735C41.9582 17.448 41.9335 19.922 41.8592 22.3954C40.5481 23.7065 39.2368 25.0178 37.9256 26.329C28.0298 26.428 18.134 26.428 8.23814 26.329C7.76808 25.0673 6.9022 24.2014 5.64048 23.7313C5.56627 20.8125 5.54154 17.8931 5.56627 14.9735C6.93229 14.6468 7.82292 13.8057 8.23814 12.4501ZM22.6366 16.4579C22.8307 16.9802 22.8307 17.5244 22.6366 18.0907C21.6478 17.5482 21.6478 17.0038 22.6366 16.4579ZM24.7147 20.7626C25.5096 20.8852 25.7569 21.3059 25.4569 22.0243C25.2305 22.1741 24.9831 22.2483 24.7147 22.247C24.7147 21.7522 24.7147 21.2573 24.7147 20.7626Z" fill="url(#paint0_linear_993_1427)"/>
<path opacity="0.92" fill-rule="evenodd" clip-rule="evenodd" d="M23.2305 13.0439C24.3607 12.8876 24.8554 13.3824 24.7148 14.5283C25.9831 14.6792 26.8985 15.3224 27.4609 16.4579C27.733 17.6702 27.2631 18.1402 26.0508 17.8681C25.7839 17.26 25.3634 16.79 24.7891 16.4579C24.666 17.205 24.6908 17.9472 24.8633 18.6845C25.8663 18.9508 26.6827 19.4951 27.3125 20.3173C27.9514 22.5264 27.135 23.8623 24.8633 24.3251C24.739 25.5695 24.1206 25.9654 23.0078 25.5126C22.8165 25.0894 22.7423 24.6441 22.7852 24.1767C21.2505 23.9779 20.2608 23.1367 19.8164 21.6533C20.1449 20.5339 20.7634 20.336 21.6719 21.0595C21.755 21.6868 22.1013 22.0827 22.7109 22.247C22.785 21.556 22.8098 20.8634 22.7852 20.1689C20.2395 19.5799 19.4726 18.0955 20.4844 15.7158C21.1188 15.0645 21.8858 14.6687 22.7852 14.5283C22.6897 13.9444 22.8381 13.4496 23.2305 13.0439ZM22.6367 16.4579C21.648 17.0039 21.648 17.5482 22.6367 18.0908C22.8309 17.5245 22.8309 16.9803 22.6367 16.4579ZM24.7148 20.7626C24.7148 21.2574 24.7148 21.7523 24.7148 22.247C24.9832 22.2483 25.2307 22.1741 25.457 22.0243C25.757 21.3059 25.5097 20.8852 24.7148 20.7626Z" fill="url(#paint1_linear_993_1427)"/>
<path opacity="0.899" fill-rule="evenodd" clip-rule="evenodd" d="M10.6134 18.3876C12.4942 18.3628 14.3744 18.3876 16.254 18.4618C16.8169 18.7666 16.9899 19.2365 16.7735 19.872C16.6993 20.0452 16.5757 20.1688 16.4024 20.2431C14.4233 20.3421 12.4441 20.3421 10.4649 20.2431C10.1214 20.0507 9.97291 19.7538 10.0196 19.3524C10.0099 18.8942 10.2078 18.5725 10.6134 18.3876Z" fill="url(#paint2_linear_993_1427)"/>
<path opacity="0.898" fill-rule="evenodd" clip-rule="evenodd" d="M31.2461 18.3876C33.0775 18.3628 34.9082 18.3876 36.7382 18.4618C37.4114 18.6953 37.6341 19.1653 37.4062 19.872C37.2826 19.9956 37.1588 20.1194 37.0351 20.2431C35.056 20.3421 33.0767 20.3421 31.0976 20.2431C30.288 19.5727 30.3375 18.9542 31.2461 18.3876Z" fill="url(#paint3_linear_993_1427)"/>
<path opacity="0.921" fill-rule="evenodd" clip-rule="evenodd" d="M60.4884 19.4267C62.3692 19.4019 64.2495 19.4267 66.129 19.5009C66.265 19.5564 66.3888 19.6306 66.5001 19.7235C66.7196 24.5632 66.7938 29.4122 66.7227 34.2704C71.3145 34.9782 74.1102 37.6005 75.1095 42.1376C75.6167 46.7148 73.8849 50.1289 69.9142 52.3798C67.3805 61.1973 61.7151 66.9121 52.9181 69.5243C42.9827 71.6716 34.6948 68.9255 28.0548 61.286C24.4976 56.7015 22.8895 51.5309 23.2306 45.7743C34.2526 45.602 45.2864 45.4783 56.3321 45.4032C56.1996 45.0197 56.1501 44.6238 56.1837 44.2157C54.7861 44.2776 53.4008 44.2034 52.0274 43.9931C51.9345 43.8817 51.8603 43.7579 51.8048 43.622C51.7058 37.8329 51.7058 32.0438 51.8048 26.2548C51.9284 26.1311 52.0522 26.0073 52.1759 25.8837C54.0561 25.7847 55.9362 25.7847 57.8165 25.8837C57.9525 25.9392 58.0763 26.0134 58.1876 26.1063C58.3828 29.9034 58.4818 33.7132 58.4845 37.536C58.8803 36.9423 59.3751 36.4475 59.9688 36.0517C60.0183 30.6585 60.0678 25.2651 60.1173 19.872C60.2724 19.7424 60.396 19.5939 60.4884 19.4267ZM61.9727 21.3563C62.9128 21.3563 63.853 21.3563 64.7931 21.3563C64.7931 25.661 64.7931 29.9657 64.7931 34.2704C63.8275 34.3547 62.8874 34.5526 61.9727 34.8642C61.9727 30.3616 61.9727 25.8589 61.9727 21.3563ZM53.6602 27.7392C54.6003 27.7392 55.5405 27.7392 56.4806 27.7392C56.5246 32.5911 56.4752 37.4401 56.3321 42.286C55.4415 42.286 54.5509 42.286 53.6602 42.286C53.6602 37.437 53.6602 32.5882 53.6602 27.7392ZM64.3477 36.2001C68.9365 35.8688 71.8807 37.8973 73.1798 42.286C73.638 47.0203 71.5847 50.0138 67.0196 51.2665C62.3033 51.6192 59.3594 49.5164 58.1876 44.9579C57.9118 40.3652 59.9651 37.4461 64.3477 36.2001ZM64.3477 40.6532C64.4962 40.6532 64.6446 40.6532 64.7931 40.6532C64.8177 41.2983 64.7929 41.9415 64.7188 42.5829C63.6198 42.099 63.4962 41.4558 64.3477 40.6532ZM66.7227 45.1063C67.2697 45.2284 67.616 45.55 67.7618 46.0712C67.6491 46.6241 67.3027 46.8962 66.7227 46.8876C66.7227 46.2938 66.7227 45.7001 66.7227 45.1063ZM24.8634 47.6298C27.8079 47.4327 30.7767 47.4327 33.7696 47.6298C33.9103 51.5669 34.6031 55.4017 35.8477 59.1337C34.3116 59.9532 32.8768 60.9181 31.5431 62.0282C27.5112 58.0709 25.2846 53.2714 24.8634 47.6298ZM35.6993 47.4813C39.0639 47.4813 42.4284 47.4813 45.7931 47.4813C45.7931 50.4995 45.7931 53.5179 45.7931 56.536C42.9723 56.71 40.2508 57.279 37.629 58.2431C36.4497 54.7545 35.8065 51.1672 35.6993 47.4813ZM47.7227 47.4813C50.792 47.4319 53.8597 47.4813 56.9259 47.6298C57.4101 48.305 57.6575 49.0472 57.6681 49.8563C57.4913 52.769 56.8975 55.5893 55.8868 58.3173C53.274 57.2312 50.5527 56.6374 47.7227 56.536C47.7227 53.5179 47.7227 50.4995 47.7227 47.4813ZM59.4493 51.0438C61.8672 52.9223 64.5885 53.6645 67.6134 53.2704C66.4918 56.6555 64.661 59.5747 62.1212 62.0282C60.6726 61.0093 59.2376 59.9951 57.8165 58.9853C58.7126 56.4093 59.2569 53.7622 59.4493 51.0438ZM44.9024 58.4657C45.1993 58.4657 45.4962 58.4657 45.7931 58.4657C45.8425 61.634 45.7931 64.8006 45.6446 67.9657C43.0382 67.1161 41.0839 65.4833 39.7813 63.0673C39.233 62.1686 38.7629 61.2284 38.3712 60.247C40.4708 59.3265 42.6478 58.7328 44.9024 58.4657ZM47.7227 58.4657C50.3465 58.5898 52.87 59.1588 55.2931 60.1728C54.2285 62.82 52.5957 65.0465 50.3946 66.8524C49.6124 67.3525 48.7713 67.7236 47.8712 67.9657C47.7227 64.8006 47.6733 61.634 47.7227 58.4657ZM36.4415 60.9892C37.1788 62.463 37.9952 63.8979 38.8907 65.2938C39.5125 66.0638 40.1805 66.7812 40.8946 67.4462C37.9743 66.7034 35.352 65.3675 33.0274 63.4384C34.0708 62.4731 35.2087 61.6567 36.4415 60.9892ZM56.9259 61.1376C58.2913 61.6844 59.5283 62.4514 60.6368 63.4384C58.3108 65.3682 55.6883 66.7042 52.7696 67.4462C54.5823 65.6274 55.9677 63.5245 56.9259 61.1376Z" fill="url(#paint4_linear_993_1427)"/>
<path opacity="0.922" fill-rule="evenodd" clip-rule="evenodd" d="M43.8633 24.4735C45.7936 24.4487 47.7233 24.4735 49.6524 24.5478C49.8307 24.6818 49.9545 24.8549 50.0235 25.0673C50.1225 31.2026 50.1225 37.3382 50.0235 43.4735C49.8998 43.7952 49.6772 44.0179 49.3555 44.1415C47.6237 44.2405 45.892 44.2405 44.1602 44.1415C43.8645 44.0563 43.6418 43.8831 43.4922 43.622C43.3932 37.3876 43.3932 31.1532 43.4922 24.9188C43.6473 24.7893 43.771 24.6408 43.8633 24.4735ZM45.3477 26.4032C46.2877 26.4032 47.228 26.4032 48.168 26.4032C48.168 31.6975 48.168 36.9917 48.168 42.286C47.228 42.286 46.2877 42.286 45.3477 42.286C45.3477 36.9917 45.3477 31.6975 45.3477 26.4032Z" fill="url(#paint5_linear_993_1427)"/>
<path opacity="0.921" fill-rule="evenodd" clip-rule="evenodd" d="M35.5508 32.786C37.4811 32.7612 39.4108 32.786 41.3399 32.8603C41.4141 32.9345 41.4883 33.0087 41.5625 33.0829C41.8069 36.5829 41.8563 40.0958 41.711 43.622C41.5873 43.7456 41.4635 43.8694 41.3399 43.9931C39.5235 44.2344 37.6926 44.2839 35.8477 44.1415C35.5826 44.025 35.3599 43.8519 35.1797 43.622C35.0807 40.2079 35.0807 36.7938 35.1797 33.3798C35.278 33.1595 35.4018 32.9616 35.5508 32.786ZM37.0352 34.7157C37.9752 34.7157 38.9155 34.7157 39.8555 34.7157C39.8555 37.2392 39.8555 39.7626 39.8555 42.286C38.9155 42.286 37.9752 42.286 37.0352 42.286C37.0352 39.7626 37.0352 37.2392 37.0352 34.7157Z" fill="url(#paint6_linear_993_1427)"/>
<path opacity="0.922" fill-rule="evenodd" clip-rule="evenodd" d="M27.2382 36.9423C29.1685 36.9175 31.0982 36.9423 33.0273 37.0165C33.1509 37.1401 33.2747 37.2639 33.3984 37.3876C33.4974 39.4657 33.4974 41.5438 33.3984 43.622C33.3428 43.7579 33.2686 43.8817 33.1757 43.9931C31.306 44.2316 29.4257 44.2812 27.5351 44.1415C27.3227 44.0725 27.1496 43.9487 27.0155 43.7704C26.7734 41.7062 26.724 39.6281 26.8671 37.536C26.9654 37.3158 27.0892 37.1179 27.2382 36.9423ZM28.7226 38.872C29.6626 38.872 30.6028 38.872 31.5429 38.872C31.5429 40.01 31.5429 41.148 31.5429 42.286C30.6028 42.286 29.6626 42.286 28.7226 42.286C28.7226 41.148 28.7226 40.01 28.7226 38.872Z" fill="url(#paint7_linear_993_1427)"/>
<path opacity="0.919" fill-rule="evenodd" clip-rule="evenodd" d="M65.2383 37.0907C66.347 36.9372 66.8665 37.432 66.7969 38.5751C68.0595 38.8349 68.9995 39.5275 69.6172 40.6532C69.9142 41.9397 69.4441 42.4098 68.207 42.0634C67.9392 41.4245 67.4939 40.9544 66.8711 40.6532C66.6985 41.4402 66.6738 42.232 66.7969 43.0282C67.6966 43.2855 68.4883 43.7308 69.1719 44.3642C70.3131 46.8319 69.5461 48.3657 66.8711 48.9657C66.8512 50.2105 66.2575 50.6558 65.0898 50.3017C64.9871 50.2237 64.9129 50.1247 64.8672 50.0048C64.7934 49.612 64.7686 49.2161 64.793 48.8173C63.075 48.6571 62.0359 47.7419 61.6758 46.0712C61.7412 45.3449 62.1371 45.048 62.8633 45.1806C63.3411 45.8576 63.9349 46.4266 64.6445 46.8876C64.7922 46.1021 64.8417 45.3105 64.793 44.5126C62.1996 44.0242 61.3336 42.5399 62.1953 40.0595C62.8239 39.2628 63.6404 38.7927 64.6445 38.6493C64.7594 38.2923 64.8336 37.9212 64.8672 37.536C64.9708 37.3593 65.0944 37.2108 65.2383 37.0907ZM64.3477 40.6532C63.4961 41.4558 63.6197 42.099 64.7188 42.5829C64.7928 41.9415 64.8176 41.2983 64.793 40.6532C64.6445 40.6532 64.4961 40.6532 64.3477 40.6532ZM66.7227 45.1064C66.7227 45.7001 66.7227 46.2939 66.7227 46.8876C67.3026 46.8962 67.6491 46.6241 67.7617 46.0712C67.616 45.55 67.2696 45.2284 66.7227 45.1064Z" fill="url(#paint8_linear_993_1427)"/>
<defs>
<linearGradient id="paint0_linear_993_1427" x1="33.7007" y1="7.39392" x2="33.7007" y2="36.0017" gradientUnits="userSpaceOnUse">
<stop stop-color="#B7E1E3"/>
<stop offset="1" stop-color="#90CED1"/>
</linearGradient>
<linearGradient id="paint1_linear_993_1427" x1="23.6761" y1="13.0157" x2="23.6761" y2="25.6938" gradientUnits="userSpaceOnUse">
<stop stop-color="#B7E1E3"/>
<stop offset="1" stop-color="#90CED1"/>
</linearGradient>
<linearGradient id="paint2_linear_993_1427" x1="13.4375" y1="18.3783" x2="13.4375" y2="20.3173" gradientUnits="userSpaceOnUse">
<stop stop-color="#B7E1E3"/>
<stop offset="1" stop-color="#90CED1"/>
</linearGradient>
<linearGradient id="paint3_linear_993_1427" x1="34.009" y1="18.3783" x2="34.009" y2="20.3173" gradientUnits="userSpaceOnUse">
<stop stop-color="#B7E1E3"/>
<stop offset="1" stop-color="#90CED1"/>
</linearGradient>
<linearGradient id="paint4_linear_993_1427" x1="49.1907" y1="19.4174" x2="49.1907" y2="70.231" gradientUnits="userSpaceOnUse">
<stop stop-color="#B7E1E3"/>
<stop offset="1" stop-color="#90CED1"/>
</linearGradient>
<linearGradient id="paint5_linear_993_1427" x1="46.7578" y1="24.4642" x2="46.7578" y2="44.2158" gradientUnits="userSpaceOnUse">
<stop stop-color="#B7E1E3"/>
<stop offset="1" stop-color="#90CED1"/>
</linearGradient>
<linearGradient id="paint6_linear_993_1427" x1="38.4489" y1="32.7767" x2="38.4489" y2="44.2207" gradientUnits="userSpaceOnUse">
<stop stop-color="#B7E1E3"/>
<stop offset="1" stop-color="#90CED1"/>
</linearGradient>
<linearGradient id="paint7_linear_993_1427" x1="30.13" y1="36.933" x2="30.13" y2="44.2188" gradientUnits="userSpaceOnUse">
<stop stop-color="#B7E1E3"/>
<stop offset="1" stop-color="#90CED1"/>
</linearGradient>
<linearGradient id="paint8_linear_993_1427" x1="65.6896" y1="37.0635" x2="65.6896" y2="50.4193" gradientUnits="userSpaceOnUse">
<stop stop-color="#B7E1E3"/>
<stop offset="1" stop-color="#90CED1"/>
</linearGradient>
</defs>
</svg>
