<svg width="86" height="47" viewBox="0 0 86 47" fill="none" xmlns="http://www.w3.org/2000/svg">
<g clip-path="url(#clip0_993_1397)">
<path fill-rule="evenodd" clip-rule="evenodd" d="M2.26654 11.6445L3.87624 31.4036C4.0932 33.4441 4.57611 34.7558 5.164 35.4776C5.40803 35.7505 5.72408 35.9503 6.07652 36.0545C6.42895 36.1588 6.80375 36.1633 7.15863 36.0675H7.34759H15.2421C15.6742 36.1118 16.1106 36.0516 16.5141 35.8921C16.9175 35.7325 17.276 35.4784 17.5587 35.1514L17.5937 35.1098C18.1749 34.1499 18.4619 33.043 18.4195 31.9242V10.1107C18.3851 10.0149 18.3685 9.91383 18.3705 9.81223C18.3671 9.78457 18.3671 9.7566 18.3705 9.72895C18.3391 9.43788 18.2447 9.15698 18.0937 8.90544C17.9427 8.6539 17.7387 8.43765 17.4957 8.27147C16.6598 7.84161 15.7187 7.65399 14.7802 7.73013H4.89805C4.48981 7.70799 4.08129 7.76857 3.69745 7.90818C3.3136 8.04779 2.96246 8.2635 2.66546 8.54215C2.19655 9.09737 2.02858 10.0551 2.25954 11.5473V11.6445H2.26654ZM65.1568 10.8047C65.1558 10.4729 65.1768 10.1413 65.2198 9.81223L61.5875 7.39005C61.0626 7.04303 60.4887 6.64049 59.9078 6.23795C57.8082 4.79436 55.7086 3.30913 53.378 2.70532C52.0189 2.35799 50.624 2.16703 49.2208 2.13621C47.9339 2.10338 46.6485 2.24346 45.3995 2.55263C44.6714 2.73568 43.9669 3.00116 43.2999 3.34383C42.7127 3.65085 42.1691 4.03358 41.6832 4.48205L39.1917 7.37617C39.1165 7.51712 39.0115 7.64024 38.8837 7.73707L32.116 15.7254C32.2033 16.1946 32.4051 16.6354 32.7039 17.0094C33.0317 17.4073 33.4622 17.7095 33.9496 17.8838C34.5141 18.0845 35.1166 18.158 35.7133 18.099C36.8487 17.9895 37.9256 17.5474 38.8067 16.8289L40.6894 15.2673C41.1653 14.8787 41.5642 14.5178 41.9562 14.1638C42.7656 13.3838 43.6518 12.6863 44.6017 12.0817C46.7013 10.8325 48.8009 10.7908 50.9005 14.2471L61.5385 33.3122H65.1568V10.8047ZM66.0177 7.75789C66.1814 7.53056 66.3691 7.32117 66.5776 7.13326C67.6993 6.24631 69.1142 5.80585 70.5458 5.89788H79.7841C81.7228 5.89788 83.2835 6.23795 84.3893 7.07079C85.6 8.0008 86.1739 9.40969 85.929 11.4363L83.8853 32.403C83.8518 33.979 83.3124 35.5034 82.3456 36.7546C81.8504 37.3053 81.2307 37.7319 80.5374 37.9997C79.8441 38.2674 79.0967 38.3688 78.3564 38.2954H70.0489C68.9747 38.3789 67.9088 38.0538 67.0675 37.3862C66.4254 36.8556 65.9113 36.1893 65.5628 35.436H62.6863C63.0496 36.4476 63.0693 37.5493 62.7423 38.573C62.419 39.5335 61.8178 40.3783 61.0136 41.0021C60.2266 41.6186 59.2946 42.0269 58.3051 42.1889C57.3213 42.3532 56.3107 42.2426 55.3867 41.8697C54.4627 42.8913 53.2742 43.6426 51.9503 44.042C50.7427 44.3683 49.4623 44.3101 48.29 43.8754C47.2862 45.069 45.9219 45.9109 44.3987 46.2768C42.8195 46.5679 41.1876 46.3234 39.7656 45.5828C39.2769 45.9661 38.7377 46.2813 38.1629 46.5197C37.3761 46.8424 36.5293 46.9962 35.6783 46.9708C33.9953 47.0031 32.3607 46.4116 31.0942 45.3121C30.0459 44.2827 29.1758 43.0892 28.5187 41.7794L23.9275 33.8675H20.3722C20.2114 34.7742 19.8506 35.6345 19.3154 36.3868L19.2664 36.4562C18.7799 37.0515 18.1533 37.5191 17.4419 37.818C16.7304 38.117 15.9558 38.238 15.1861 38.1705H7.42458C6.71702 38.3257 5.98008 38.2855 5.29397 38.0542C4.60786 37.8229 3.99888 37.4094 3.5333 36.8587C2.62347 35.8108 1.99359 34.0826 1.72764 31.6049V31.5147L0.117938 11.8319C-0.204002 9.70812 0.117938 8.20207 1.01377 7.1749C1.49623 6.65883 2.08414 6.25074 2.73826 5.97787C3.39239 5.705 4.09768 5.57362 4.80706 5.5925H14.7662C16.1244 5.50414 17.4791 5.81045 18.6645 6.47392C19.4899 6.99489 20.0947 7.79711 20.3652 8.72954H27.0489C28.5777 7.6431 30.259 6.78493 32.039 6.18243C33.9024 5.6271 35.8643 5.47562 37.7919 5.73825L40.0805 3.03845L40.1645 2.94823C40.7929 2.35682 41.4992 1.85253 42.2641 1.44912C43.0816 1.03241 43.943 0.706555 44.8326 0.477468C46.2726 0.1277 47.7526 -0.0333004 49.2348 -0.00141577C50.8057 0.0336439 52.3674 0.247891 53.8889 0.637096C56.5554 1.33113 58.858 2.93435 61.0976 4.48899C61.6365 4.86376 62.1684 5.2316 62.7423 5.61332L65.9967 7.75789H66.0177ZM11.0359 26.8994C11.4047 26.898 11.7656 27.0053 12.0728 27.2076C12.38 27.4099 12.6197 27.6982 12.7615 28.0358C12.9033 28.3734 12.9407 28.7452 12.8691 29.1039C12.7975 29.4627 12.6201 29.7923 12.3593 30.0509C12.0985 30.3095 11.7661 30.4855 11.4044 30.5565C11.0426 30.6275 10.6677 30.5903 10.3272 30.4497C9.98679 30.3092 9.69611 30.0715 9.49208 29.7668C9.28805 29.4621 9.17987 29.1043 9.18125 28.7385C9.18309 28.2513 9.37909 27.7846 9.7265 27.4401C10.0739 27.0955 10.5446 26.9012 11.0359 26.8994ZM60.4397 35.3388C60.292 35.275 60.1603 35.1797 60.0539 35.0598C59.9474 34.9398 59.8689 34.7982 59.8238 34.6448L49.0318 15.3298C47.8351 13.3449 46.7573 13.2893 45.7075 13.907C44.878 14.4509 44.1024 15.0713 43.3909 15.7601C42.915 16.1904 42.4391 16.6207 42.0471 16.94L40.1365 18.5015C38.9192 19.4837 37.4364 20.0873 35.8743 20.2366C34.959 20.3177 34.037 20.1993 33.1728 19.8896C32.3219 19.5774 31.5704 19.0455 30.9962 18.3489C30.3433 17.5313 29.9553 16.5368 29.8834 15.4964C29.8723 15.3412 29.8947 15.1854 29.949 15.0394C30.0033 14.8934 30.0883 14.7605 30.1983 14.6496L36.0283 7.77177C34.8881 7.74441 33.7511 7.90147 32.6619 8.23677C31.004 8.8116 29.4405 9.62541 28.0217 10.652C27.824 10.8097 27.5754 10.8911 27.3219 10.881H20.5821V31.7021H24.5504C24.7499 31.7018 24.9456 31.7561 25.116 31.8589C25.2863 31.9618 25.4248 32.1092 25.5162 32.2851L30.4153 40.7176C30.9603 41.8195 31.668 42.8347 32.5149 43.7297C33.4084 44.4798 34.5502 44.8754 35.7203 44.8401C36.2715 44.8557 36.8199 44.7564 37.33 44.5486C37.6572 44.4155 37.9654 44.2405 38.2468 44.0281L35.0904 38.1705C34.9772 37.9233 34.963 37.6427 35.0508 37.3855C35.1386 37.1284 35.3218 36.914 35.5632 36.7859C35.8046 36.6579 36.0861 36.6257 36.3505 36.6959C36.615 36.7661 36.8426 36.9335 36.9871 37.1641L40.4444 43.5701C41.4268 44.193 42.6088 44.4287 43.7576 44.2309C44.9065 44.0331 45.9391 43.4161 46.6523 42.5012L41.6762 34.7419C41.5204 34.5045 41.4661 34.2153 41.5251 33.9381C41.5842 33.6609 41.7518 33.4183 41.9911 33.2636C42.2333 33.1141 42.5249 33.0645 42.8036 33.1254C43.0822 33.1864 43.3256 33.3531 43.4819 33.5898L48.7239 41.7586C49.5558 42.1241 50.4873 42.2023 51.3694 41.9807C52.2998 41.6897 53.1322 41.1521 53.777 40.4261L49.0388 31.5563C48.9024 31.3051 48.8722 31.0104 48.9549 30.737C49.0376 30.4637 49.2264 30.2341 49.4798 30.0989C49.7331 29.9636 50.0303 29.9336 50.3059 30.0156C50.5816 30.0976 50.8131 30.2848 50.9495 30.5361L55.8486 39.7112C56.4854 40.0684 57.2289 40.1913 57.9482 40.0582C58.5753 39.9589 59.1659 39.7008 59.6629 39.3087C60.1317 38.9553 60.4847 38.4724 60.6777 37.9206C60.8906 37.2313 60.8331 36.4876 60.5167 35.8385C60.4482 35.6836 60.4194 35.5144 60.4327 35.3458L60.4397 35.3388ZM74.6611 26.8994C75.029 26.9021 75.3878 27.0129 75.6922 27.2177C75.9967 27.4225 76.2331 27.7122 76.3716 28.0502C76.5102 28.3882 76.5447 28.7593 76.4707 29.1166C76.3967 29.474 76.2176 29.8017 75.956 30.0582C75.6944 30.3147 75.362 30.4886 75.0008 30.5579C74.6396 30.6273 74.2658 30.5889 73.9266 30.4477C73.5874 30.3065 73.2979 30.0688 73.0948 29.7646C72.8917 29.4604 72.784 29.1034 72.7854 28.7385C72.7873 28.2513 72.9833 27.7846 73.3307 27.4401C73.6781 27.0955 74.1488 26.9012 74.6401 26.8994H74.6611Z" fill="url(#paint0_linear_993_1397)"/>
</g>
<defs>
<linearGradient id="paint0_linear_993_1397" x1="42.9903" y1="-0.00537109" x2="42.9903" y2="46.9735" gradientUnits="userSpaceOnUse">
<stop stop-color="#B7E1E3"/>
<stop offset="1" stop-color="#90CED1"/>
</linearGradient>
<clipPath id="clip0_993_1397">
<rect width="86" height="47" fill="white"/>
</clipPath>
</defs>
</svg>
