<svg width="77" height="84" viewBox="0 0 77 84" fill="none" xmlns="http://www.w3.org/2000/svg">
<g clip-path="url(#clip0_993_1083)">
<path fill-rule="evenodd" clip-rule="evenodd" d="M47.7723 28L49.7208 29.9551C50.2318 30.4678 50.2318 31.3154 49.7208 31.8281L48.147 33.4072C48.5831 34.2207 48.9101 35.0957 49.1213 36.0117H51.1583C51.8873 36.0117 52.4801 36.6064 52.4801 37.3379V40.1064C52.4801 40.8379 51.8873 41.4326 51.1583 41.4326H48.9373C48.6648 42.335 48.2765 43.1826 47.7859 43.9687L49.2235 45.4111C49.7344 45.9238 49.7344 46.7715 49.2235 47.2842L47.275 49.2393C46.764 49.7519 45.9192 49.7519 45.4082 49.2393L43.8412 47.667C43.0305 48.1045 42.1584 48.4326 41.2387 48.6445V50.6885C41.2387 51.4199 40.646 52.0146 39.917 52.0146H37.1577C36.4287 52.0146 35.836 51.4199 35.836 50.6885V48.46C34.9367 48.1865 34.0919 47.7969 33.3084 47.3047L31.8845 48.7402C31.3735 49.2529 30.5287 49.2529 30.0178 48.7402L28.0692 46.7852C27.5583 46.2725 27.5583 45.4248 28.0692 44.9121L29.6362 43.3398C29.2002 42.5264 28.8732 41.6514 28.662 40.7354H26.6249C25.9027 40.7354 25.3032 40.1406 25.3032 39.4092V36.6406C25.3032 35.9092 25.8959 35.3145 26.6249 35.3145H28.8459C29.1184 34.4121 29.5068 33.5645 29.9973 32.7783L28.5598 31.3359C28.0488 30.8232 28.0488 29.9756 28.5598 29.4629L30.5083 27.5078C31.0193 26.9951 31.8641 26.9951 32.375 27.5078L33.9488 29.0869C34.7596 28.6494 35.6316 28.3213 36.5446 28.1094V26.0654C36.5446 25.334 37.1373 24.7393 37.8663 24.7393H40.6255C41.3545 24.7393 41.9472 25.334 41.9472 26.0654V28.2939C42.8465 28.5674 43.6914 28.957 44.4748 29.4492L45.9124 28.0068C46.4233 27.4805 47.2613 27.4805 47.7723 28ZM30.0654 69.7744C29.2888 69.7949 28.6075 69.2207 28.4985 68.4346C28.3826 67.6143 28.9345 66.8555 29.7384 66.6982C28.8527 61.6602 26.4341 58.8848 23.8793 55.9521C21.8899 53.6689 19.8256 51.2969 18.1973 47.8037C16.5962 44.3652 15.7174 40.8105 15.7446 37.1191C15.7787 33.4277 16.7121 29.627 18.7423 25.6963C18.7559 25.6689 18.7696 25.6484 18.7832 25.6211C21.4471 21.0957 25.1737 18.0742 29.3228 16.3789C32.8042 14.9502 36.5854 14.4648 40.2917 14.8066C43.9843 15.1484 47.602 16.3105 50.7632 18.1836C54.7828 20.5693 58.0871 24.1104 59.9062 28.5811C60.8872 31.001 61.5549 33.7012 61.6367 36.6611C61.7184 39.6074 61.2143 42.7861 59.8585 46.1494C58.0462 50.6543 55.6481 53.4502 53.4066 56.0684C51.3423 58.4814 49.421 60.7236 48.3514 64.1621C48.9578 64.3057 49.4347 64.8047 49.53 65.4609C49.6459 66.3086 49.0531 67.0947 48.2083 67.2109L47.6906 67.2861C47.5952 68.0312 47.5339 68.8311 47.5066 69.6855L47.6769 69.6582C48.5217 69.542 49.3052 70.1367 49.421 70.9844C49.5369 71.832 48.9441 72.6182 48.0993 72.7344L47.5679 72.8096C47.5747 72.9121 47.5815 73.0146 47.5884 73.1172C47.636 73.7187 47.6429 74.2998 47.6088 74.8535L47.6974 74.8398C48.549 74.7373 49.3189 75.3457 49.4279 76.1934C49.5301 77.0478 48.9237 77.8203 48.0789 77.9297L46.9343 78.0732C46.1168 80.1992 44.6588 81.8193 42.9351 82.8174C41.7497 83.5078 40.4348 83.9043 39.113 83.9863C37.7709 84.0684 36.4151 83.8154 35.1752 83.2139C33.7581 82.5166 32.4909 81.3613 31.5711 79.7002C31.1283 79.4746 30.8012 79.0371 30.7331 78.5039C30.7059 78.292 30.7263 78.0869 30.7808 77.8955C30.5151 77.1025 30.3175 76.2344 30.1881 75.2773L30.1404 75.2842C29.2956 75.4004 28.5121 74.8057 28.3963 73.958C28.2804 73.1103 28.8732 72.3242 29.718 72.208L30.0859 72.1533C30.1063 71.3193 30.0995 70.5264 30.0654 69.7744ZM1.4851 40.2363C0.687988 40.2568 0.0271313 39.6348 -0.000120518 38.835C-0.0273723 38.0352 0.599419 37.3721 1.39653 37.3447L7.3238 37.1396C8.12092 37.1123 8.78178 37.7412 8.80903 38.541C8.83628 39.3408 8.20949 40.0039 7.41237 40.0313L1.4851 40.2363ZM75.4125 34.3506C76.2028 34.2686 76.9113 34.8496 76.9931 35.6426C77.0748 36.4355 76.4957 37.1465 75.7054 37.2285L69.8054 37.8506C69.0151 37.9326 68.3066 37.3516 68.2248 36.5586C68.143 35.7656 68.7221 35.0547 69.5124 34.9727L75.4125 34.3506ZM64.6684 10.1035C65.1113 9.44043 66.0038 9.26269 66.6646 9.70703C67.3255 10.1514 67.5026 11.0469 67.0598 11.71L63.7623 16.6592C63.3195 17.3223 62.427 17.5 61.7661 17.0557C61.1053 16.6113 60.9281 15.7158 61.371 15.0527L64.6684 10.1035ZM39.2629 1.4082C39.2834 0.608398 39.9442 -0.0205085 40.7345 -6.69638e-07C41.5316 0.0205071 42.1584 0.683593 42.138 1.47656L41.9881 7.42383C41.9677 8.22363 41.3068 8.85254 40.5165 8.83203C39.7194 8.81152 39.0926 8.14844 39.113 7.35547L39.2629 1.4082ZM9.45626 10.6162C8.87035 10.0693 8.84309 9.15332 9.38132 8.57226C9.92635 7.98437 10.8393 7.95703 11.4184 8.49707L15.7582 12.5576C16.3442 13.1045 16.3714 14.0205 15.8332 14.6016C15.2881 15.1895 14.3752 15.2168 13.7961 14.6768L9.45626 10.6162ZM32.6203 66.2812L45.2175 64.4834C46.3007 59.9033 48.658 57.1484 51.2129 54.1748C53.3112 51.7275 55.5459 49.1162 57.181 45.0557C58.3801 42.082 58.8229 39.293 58.7548 36.7227C58.6867 34.1592 58.1007 31.7939 57.2287 29.6543C55.6617 25.8057 52.7935 22.7432 49.2916 20.665C46.4915 19.0039 43.2962 17.9717 40.0328 17.6777C36.783 17.377 33.4651 17.8076 30.4061 19.0586C26.8225 20.5283 23.6 23.1396 21.2835 27.0703C19.4849 30.5703 18.6537 33.9199 18.6265 37.1396C18.5992 40.3799 19.3827 43.5176 20.8066 46.5732C22.2578 49.6904 24.1927 51.9053 26.0458 54.0381C28.9345 57.3604 31.6665 60.498 32.6203 66.2812ZM44.7065 67.6963L32.9405 69.3711C32.9746 70.123 32.9882 70.9092 32.9746 71.7432L44.5907 70.0889C44.6043 69.248 44.6384 68.4482 44.7065 67.6963ZM33.0359 74.874C33.1176 75.5029 33.2403 76.0771 33.397 76.6103L44.6724 75.2158C44.7474 74.6279 44.761 74.0059 44.7065 73.3428V73.3291L44.6997 73.2129L33.0359 74.874ZM34.998 79.5498C35.434 80.0078 35.9178 80.3633 36.4287 80.6094C37.2122 80.9922 38.0775 81.1494 38.9291 81.1016C39.808 81.0469 40.68 80.7803 41.4771 80.3154C42.2266 79.8779 42.901 79.2695 43.4393 78.5039L34.998 79.5498ZM38.895 32.9287C41.8859 32.9287 44.3181 35.3623 44.3181 38.3701C44.3181 41.3779 41.8927 43.8115 38.895 43.8115C35.8973 43.8115 33.4719 41.3779 33.4719 38.3701C33.4719 35.3623 35.9041 32.9287 38.895 32.9287Z" fill="url(#paint0_linear_993_1083)"/>
</g>
<defs>
<linearGradient id="paint0_linear_993_1083" x1="38.4999" y1="-0.000488281" x2="38.4999" y2="84.0014" gradientUnits="userSpaceOnUse">
<stop stop-color="#B7E1E3"/>
<stop offset="1" stop-color="#90CED1"/>
</linearGradient>
<clipPath id="clip0_993_1083">
<rect width="77" height="84" fill="white"/>
</clipPath>
</defs>
</svg>
