<svg width="42" height="40" viewBox="0 0 42 40" fill="none" xmlns="http://www.w3.org/2000/svg">
<path fill-rule="evenodd" clip-rule="evenodd" d="M20.9157 0.108276C19.4479 0.108276 18.1244 0.550654 16.6893 1.28166C15.3004 1.99343 13.7017 3.03231 11.701 4.34043L4.164 9.2844C3.3445 9.82304 2.62508 10.2847 2.04604 10.8234C2.88093 10.8618 3.70235 11.1311 4.40258 11.6505L12.4322 17.4987C12.9804 17.9026 13.4151 18.2104 13.8152 18.4797C14.1519 18.7105 14.4328 18.9992 14.6444 19.3262C16.5662 18.2297 18.6188 17.4216 20.9157 17.4216C23.2126 17.4216 25.267 18.2297 27.1869 19.3262C27.3985 18.9992 27.6794 18.7105 28.0161 18.4797C28.4162 18.2104 28.8509 17.9026 29.3991 17.4987L37.4269 11.6505C38.1271 11.1311 38.9504 10.8618 39.7853 10.8234C39.2062 10.2847 38.4868 9.82304 37.6673 9.2844L30.1322 4.34043C28.1296 3.03231 26.531 1.99343 25.1441 1.28166C23.707 0.550654 22.3834 0.108276 20.9157 0.108276ZM1.23222 13.8436C0.753221 14.0745 0.439656 14.5553 0.414648 15.0747L0.364677 16.0942C0.237712 19.0182 0.203131 21.8654 0.266613 24.7702L0.272437 24.9818C0.303216 26.4246 0.331914 27.7327 0.399243 28.9254L12.2146 20.8843C11.7549 20.5765 11.2722 20.211 10.7335 19.8263L2.70394 13.9781C2.27495 13.6703 1.7093 13.6128 1.23222 13.8436ZM40.5991 13.8436C41.0781 14.0745 41.3916 14.5553 41.4185 15.0747L41.4666 16.0942C41.5955 19.0182 41.6282 21.8654 41.5647 24.7702L41.5609 24.9818C41.5282 26.4246 41.4994 27.7327 41.4321 28.9254L29.6167 20.8843C30.0764 20.5765 30.5591 20.211 31.0978 19.8263L39.1274 13.9781C39.5564 13.6703 40.122 13.6128 40.5991 13.8436ZM20.9157 20.3072C23.1375 20.3072 25.2074 21.3653 27.6659 23.0389L40.2354 31.5994C40.7548 31.9649 40.9858 32.5996 40.8069 33.2152C40.4087 34.5426 39.7738 35.6776 38.7716 36.6779C37.4115 38.0245 35.8032 38.6786 33.8237 39.0248C31.9327 39.3326 29.5743 39.3903 26.6387 39.4673H26.529C22.7758 39.5634 19.0555 39.5634 15.3023 39.4673H15.1908C12.2571 39.3903 9.89659 39.3326 8.00559 39.0248C6.02802 38.6786 4.41981 38.0245 3.05975 36.6779C2.05749 35.6776 1.42266 34.5426 1.02445 33.2152C0.845544 32.5996 1.07652 31.9649 1.59592 31.5994L14.1654 23.0389C16.6239 21.3653 18.6938 20.3072 20.9157 20.3072Z" fill="#06A69C"/>
</svg>
