<svg width="16" height="27" viewBox="0 0 16 27" fill="none" xmlns="http://www.w3.org/2000/svg">
<path d="M15.5976 0.65537C15.5976 0.461207 15.7345 0.792664 15.5976 0.65537C15.4608 0.518076 15.7912 0.65537 15.5976 0.65537H11.7666C9.92933 0.563552 8.02585 0.701948 6.65853 1.93653C5.29121 3.17112 4.20634 5.2185 4.1045 7.06118V10.9047H0.273453C0.0799183 10.9047 0.410302 10.7674 0.273453 10.9047C0.136603 11.042 0.273453 10.7105 0.273453 10.9047V14.7482C0.273453 14.9423 0.136603 15.892 0.273453 16.0293C0.0799183 16.0293 0.410302 16.1666 0.273453 16.0293H4.1045V26.2786C3.96765 26.1413 4.1045 26.4728 4.1045 26.2786C4.24135 26.4159 5.18798 26.2786 5.38151 26.2786H9.21256C9.07571 26.4159 9.40609 26.2786 9.21256 26.2786C9.34941 26.1413 10.4896 26.4728 10.4896 26.2786V16.0293H13.0436C13.2059 16.0317 14.1911 16.1274 14.3206 16.0293C14.4501 15.9312 14.2784 14.9054 14.3206 14.7482L15.5976 10.9047C15.6192 11.0146 15.6267 10.7965 15.5976 10.9047C15.5761 10.7947 15.6653 10.9938 15.5976 10.9047C15.53 10.8156 15.6976 10.9547 15.5976 10.9047C15.4977 10.8547 14.4323 10.9053 14.3206 10.9047H10.4896V7.06118C10.5259 6.69876 10.2197 6.02369 10.4896 5.78002C10.7594 5.53635 11.4035 5.77819 11.7666 5.78002H15.5976C15.7912 5.78002 15.4608 4.63615 15.5976 4.49886C15.5976 4.69302 15.7345 4.36156 15.5976 4.49886V0.65537Z" fill="white"/>
</svg>
