<svg width="35" height="42" viewBox="0 0 35 42" fill="none" xmlns="http://www.w3.org/2000/svg">
<path fill-rule="evenodd" clip-rule="evenodd" d="M3.7984 9.31414C6.12705 3.71458 11.7011 0.14624 17.5701 0.14624C23.4391 0.14624 29.0132 3.71458 31.3418 9.31414C33.5071 14.5207 32.3327 18.9677 29.9013 22.756C27.8937 25.8839 24.955 28.6688 22.341 31.1458L22.3389 31.1478C21.8771 31.5854 21.4242 32.0146 20.9896 32.4332C20.0714 33.3176 18.8451 33.8111 17.5701 33.8111C16.2951 33.8111 15.0689 33.3177 14.1507 32.4333L14.1475 32.4303C13.687 31.9841 13.2068 31.5273 12.7154 31.0599C10.1291 28.6 7.23021 25.8429 5.2434 22.7542C2.80905 18.9697 1.63049 14.5272 3.7984 9.31414ZM11.798 15.055C11.798 11.8677 14.3818 9.28385 17.5691 9.28385C20.7564 9.28385 23.3402 11.8677 23.3402 15.055C23.3402 18.2423 20.7564 20.8261 17.5691 20.8261C14.3818 20.8261 11.798 18.2423 11.798 15.055Z" fill="#06A69C"/>
<path d="M6.51268 32.0189C7.11641 31.1447 6.89712 29.9465 6.02289 29.3428C5.14866 28.7391 3.95054 28.9584 3.34681 29.8326C2.24627 31.4262 1.32765 32.8387 0.797845 34.0913C0.251472 35.3831 -0.0196152 36.8321 0.654792 38.279C0.774159 38.535 0.913471 38.7812 1.0712 39.0155C2.10764 40.5547 3.83026 41.0625 5.52644 41.2847C7.21817 41.5063 9.46345 41.5062 12.1973 41.5061H22.942C25.6758 41.5062 27.9211 41.5063 29.6128 41.2847C31.309 41.0625 33.0316 40.5547 34.0681 39.0154C34.2258 38.7812 34.3651 38.535 34.4845 38.2789C35.1589 36.8321 34.8878 35.3831 34.3414 34.0913C33.8116 32.8387 32.893 31.4262 31.7924 29.8326C31.1887 28.9584 29.9906 28.7391 29.1164 29.3428C28.2421 29.9465 28.0229 31.1447 28.6266 32.0189C29.747 33.6413 30.4429 34.7506 30.7979 35.5901C31.1294 36.3738 31.0251 36.5946 30.9988 36.6502L30.9973 36.6535L30.8767 36.8666C30.8079 36.9687 30.5497 37.2817 29.1131 37.4698C27.7017 37.6547 25.7116 37.6587 22.7978 37.6587H12.3414C9.42769 37.6587 7.43753 37.6547 6.02614 37.4698C4.5896 37.2817 4.33137 36.9687 4.26257 36.8666C4.21614 36.7976 4.17594 36.7264 4.14199 36.6535L4.14044 36.6502C4.11414 36.5946 4.00985 36.3738 4.34134 35.5901C4.69639 34.7506 5.39228 33.6413 6.51268 32.0189Z" fill="#06A69C"/>
</svg>
