<svg width="35" height="34" viewBox="0 0 35 34" fill="none" xmlns="http://www.w3.org/2000/svg">
<path d="M0.249206 0.962455C0.235014 0.983736 1.38451 2.55188 2.79654 4.43931C4.20857 6.32676 7.21003 10.3429 9.46644 13.3585L13.5677 18.8435L13.3052 19.1416C13.1562 19.3047 10.1405 22.5615 6.60691 26.3791C3.07326 30.2036 0.171154 33.3541 0.164058 33.3896C0.149867 33.4251 0.767188 33.4534 1.65415 33.4463L3.16552 33.4392L3.66221 32.8928C3.93895 32.5948 6.50756 29.8204 9.3742 26.7196C12.2408 23.6188 14.6676 20.9935 14.7668 20.88L14.9443 20.6742L16.3634 22.5758C17.144 23.6188 19.2938 26.4997 21.1387 28.9689L24.5021 33.4534H29.6465C33.9251 33.4534 34.7837 33.4392 34.7553 33.3612C34.734 33.3045 33.4285 31.5447 31.8532 29.4372C30.278 27.337 28.4757 24.9245 27.8513 24.0871C27.2198 23.2499 25.3678 20.7593 23.7216 18.5667C22.0754 16.3671 20.7272 14.5365 20.7272 14.5081C20.7272 14.4584 29.4265 5.01407 32.3853 1.8565L33.2298 0.955357H31.6758L30.129 0.962455L28.3196 2.92086C27.3262 3.99939 24.8924 6.63898 22.9056 8.77475L19.3081 12.6632L14.9443 6.83055L10.5734 0.990835L5.42902 0.955357C2.59787 0.934076 0.263397 0.94116 0.249206 0.962455ZM12.4395 7.2492C14.1212 9.50561 16.7182 12.9754 18.2083 14.9693C19.6984 16.956 23.005 21.3838 25.5594 24.7967C28.1138 28.2168 30.2282 31.048 30.2637 31.0976C30.3063 31.1615 29.8026 31.1829 27.9648 31.1829H25.6161L20.9614 24.9528C10.2186 10.5983 4.79752 3.34659 4.73364 3.24016C4.69108 3.17629 5.17358 3.15501 7.02555 3.15501H9.3742L12.4395 7.2492Z" fill="white"/>
</svg>
