<svg width="29" height="21" viewBox="0 0 29 21" fill="none" xmlns="http://www.w3.org/2000/svg">
<path d="M28.5043 7.80579C28.568 5.96303 28.165 4.13405 27.3328 2.48869C26.7681 1.81356 25.9845 1.35795 25.1184 1.20126C21.5361 0.876211 17.939 0.742986 14.3426 0.802151C10.7592 0.7403 7.17504 0.869226 3.60536 1.18838C2.89961 1.31676 2.2465 1.64779 1.7257 2.14108C0.567014 3.20965 0.43827 5.03781 0.309527 6.58273C0.122736 9.36045 0.122736 12.1476 0.309527 14.9253C0.346773 15.7948 0.476242 16.658 0.695757 17.5002C0.85099 18.1504 1.16506 18.752 1.60984 19.2511C2.13417 19.7705 2.80249 20.1204 3.52811 20.2553C6.30371 20.5979 9.10041 20.7399 11.8964 20.6801C16.4025 20.7445 20.3549 20.6801 25.0283 20.3197C25.7717 20.193 26.4588 19.8427 26.998 19.3155C27.3585 18.9549 27.6277 18.5135 27.7834 18.028C28.2438 16.6152 28.4699 15.1366 28.4528 13.6507C28.5043 12.9298 28.5043 8.57825 28.5043 7.80579ZM11.433 14.4232V6.45399L19.0546 10.4579C16.9174 11.6423 14.0979 12.9813 11.433 14.4232Z" fill="#F8FAF2"/>
</svg>
