<svg width="29" height="24" viewBox="0 0 29 24" fill="none" xmlns="http://www.w3.org/2000/svg">
<path fill-rule="evenodd" clip-rule="evenodd" d="M11.002 1.25C5.61718 1.25 1.25195 5.61522 1.25195 11C1.25195 16.3848 5.61718 20.75 11.002 20.75C13.4244 20.75 15.6404 19.8666 17.3456 18.4043L21.4716 22.5304L22.5323 21.4697L18.4062 17.3437C19.8685 15.6385 20.752 13.4224 20.752 11C20.752 5.61522 16.3867 1.25 11.002 1.25ZM2.75195 11C2.75195 6.44365 6.44561 2.75 11.002 2.75C15.5583 2.75 19.252 6.44365 19.252 11C19.252 15.5563 15.5583 19.25 11.002 19.25C6.44561 19.25 2.75195 15.5563 2.75195 11Z" fill="#D6DEE1"/>
</svg>
