<svg width="25" height="25" viewBox="0 0 25 25" fill="none" xmlns="http://www.w3.org/2000/svg">
<path d="M5.41005 16.0692C5.28275 16.0692 5.16066 16.1198 5.07064 16.2098C4.98063 16.2999 4.93005 16.4219 4.93005 16.5492V19.4931C4.93005 19.6204 4.98063 19.7425 5.07064 19.8325C5.16066 19.9225 5.28275 19.9731 5.41005 19.9731H18.8501C18.9774 19.9731 19.0994 19.9225 19.1895 19.8325C19.2795 19.7425 19.3301 19.6204 19.3301 19.4931V16.5492C19.3301 16.4219 19.2795 16.2999 19.1895 16.2098C19.0994 16.1198 18.9774 16.0692 18.8501 16.0692C18.7228 16.0692 18.6007 16.1198 18.5106 16.2098C18.4206 16.2999 18.3701 16.4219 18.3701 16.5492V19.0131H5.89005V16.5492C5.89005 16.4219 5.83948 16.2999 5.74946 16.2098C5.65945 16.1198 5.53736 16.0692 5.41005 16.0692Z" fill="#231F20"/>
<path d="M12.1299 4.6131C12.0026 4.6131 11.8805 4.66367 11.7905 4.75369C11.7005 4.8437 11.6499 4.96579 11.6499 5.0931V15.4179L8.6053 12.4769C8.55998 12.4332 8.50648 12.3987 8.44786 12.3756C8.38923 12.3525 8.32663 12.3412 8.26363 12.3423C8.20063 12.3434 8.13846 12.3569 8.08067 12.382C8.02288 12.4071 7.9706 12.4434 7.92682 12.4887C7.88305 12.534 7.84863 12.5875 7.82552 12.6461C7.80242 12.7048 7.79109 12.7674 7.79219 12.8304C7.79328 12.8934 7.80677 12.9555 7.83189 13.0133C7.85701 13.0711 7.89326 13.1234 7.93858 13.1672L11.7896 16.8877L11.7906 16.8886L11.7963 16.8939C11.8141 16.9112 11.8367 16.9184 11.8559 16.9323C11.8856 16.9539 11.9135 16.9779 11.948 16.9918C12.0642 17.0399 12.1947 17.0399 12.3109 16.9918C12.3431 16.9789 12.3685 16.9563 12.3963 16.9366C12.4184 16.9217 12.4434 16.9126 12.4631 16.8934L16.3203 13.1662C16.3657 13.1224 16.4019 13.07 16.427 13.0122C16.4521 12.9543 16.4656 12.8921 16.4666 12.8291C16.4676 12.766 16.4563 12.7034 16.4331 12.6447C16.4099 12.5861 16.3755 12.5326 16.3316 12.4873C16.2878 12.4419 16.2354 12.4057 16.1776 12.3806C16.1198 12.3555 16.0575 12.342 15.9945 12.341C15.9314 12.34 15.8688 12.3513 15.8101 12.3745C15.7515 12.3977 15.698 12.4321 15.6527 12.476L12.6099 15.4179V5.0931C12.6099 4.96579 12.5594 4.8437 12.4694 4.75369C12.3793 4.66367 12.2572 4.6131 12.1299 4.6131Z" fill="#231F20"/>
</svg>
