<svg width="36" height="37" viewBox="0 0 36 37" fill="none" xmlns="http://www.w3.org/2000/svg">
<path d="M14.625 21.5C14.625 20.8787 14.1213 20.375 13.5 20.375C12.8787 20.375 12.375 20.8787 12.375 21.5C12.375 23.7782 14.2218 25.625 16.5 25.625H19.5C21.7782 25.625 23.625 23.7782 23.625 21.5C23.625 20.8787 23.1213 20.375 22.5 20.375C21.8787 20.375 21.375 20.8787 21.375 21.5C21.375 22.5355 20.5355 23.375 19.5 23.375H16.5C15.4645 23.375 14.625 22.5355 14.625 21.5Z" fill="#DED3B3"/>
<path fill-rule="evenodd" clip-rule="evenodd" d="M14.922 2.375H21.078C22.4257 2.37496 23.5496 2.37492 24.4417 2.49487C25.3834 2.62148 26.2336 2.89998 26.9168 3.58319C27.6 4.26639 27.8785 5.11659 28.0051 6.05829C28.1047 6.79889 28.1216 7.69914 28.1244 8.75457C28.239 8.79928 28.3518 8.8496 28.4632 8.90635C29.3805 9.37373 30.1263 10.1195 30.5937 11.0368C30.8923 11.6229 31.0134 12.2505 31.0702 12.9454C31.123 13.5919 31.1249 14.382 31.125 15.3417L31.1417 15.3521C31.9526 15.8617 32.6383 16.5474 33.1479 17.3583C33.6817 18.2078 33.9104 19.1631 34.0192 20.2844C34.125 21.376 34.125 22.7369 34.125 24.4414V24.5586C34.125 26.2631 34.125 27.624 34.0192 28.7156C33.9104 29.8369 33.6817 30.7922 33.1479 31.6417C32.6383 32.4526 31.9526 33.1383 31.1417 33.6479C30.2922 34.1817 29.3369 34.4104 28.2156 34.5192C27.124 34.625 25.7631 34.625 24.0586 34.625H11.9414C10.2369 34.625 8.87604 34.625 7.78445 34.5192C6.66306 34.4104 5.70784 34.1817 4.8583 33.6479C4.04737 33.1383 3.36167 32.4526 2.85213 31.6417C2.31833 30.7922 2.0896 29.8369 1.98084 28.7156C1.87498 27.624 1.87499 26.2631 1.875 24.5586V24.4414C1.87499 22.7369 1.87498 21.376 1.98084 20.2844C2.0896 19.1631 2.31833 18.2078 2.85213 17.3583C3.36167 16.5474 4.04737 15.8617 4.8583 15.3521L4.875 15.3417C4.87506 14.382 4.877 13.5919 4.92983 12.9454C4.9866 12.2505 5.10771 11.6229 5.40634 11.0368C5.87373 10.1195 6.61951 9.37373 7.5368 8.90635C7.64816 8.8496 7.76103 8.79927 7.87557 8.75457C7.87841 7.69913 7.8953 6.79889 7.99487 6.05829C8.12148 5.11659 8.39998 4.26639 9.08319 3.58319C9.76639 2.89998 10.6166 2.62148 11.5583 2.49487C12.4504 2.37492 13.5743 2.37496 14.922 2.375ZM25.7752 6.35809C25.8454 6.87989 25.8662 7.52968 25.8724 8.39259C25.344 8.37499 24.7387 8.37499 24.0471 8.375H11.9529C11.2613 8.37499 10.656 8.37499 10.1276 8.39259C10.1338 7.52968 10.1547 6.87989 10.2248 6.35809C10.3179 5.6659 10.4787 5.36965 10.6742 5.17418C10.8697 4.97871 11.1659 4.81787 11.8581 4.72481C12.5826 4.62739 13.554 4.62501 15 4.62501H21C22.446 4.62501 23.4174 4.62739 24.1419 4.72481C24.8341 4.81787 25.1304 4.97871 25.3258 5.17418C25.5213 5.36965 25.6821 5.6659 25.7752 6.35809ZM28.8732 14.5626C28.8697 13.974 28.8591 13.5136 28.8276 13.1286C28.7822 12.5729 28.699 12.2743 28.5889 12.0583C28.3372 11.5644 27.9357 11.1628 27.4417 10.9111C27.2257 10.801 26.9271 10.7178 26.3714 10.6724C25.8025 10.6259 25.0687 10.625 24 10.625H12C10.9313 10.625 10.1975 10.6259 9.62862 10.6724C9.07287 10.7178 8.77433 10.801 8.55828 10.9111C8.06435 11.1628 7.66278 11.5644 7.41111 12.0583C7.30102 12.2743 7.21776 12.5729 7.17236 13.1286C7.14091 13.5136 7.13034 13.974 7.12679 14.5626C7.3396 14.5295 7.55866 14.5027 7.78445 14.4808C8.87604 14.375 10.2369 14.375 11.9414 14.375H24.0586C25.7631 14.375 27.124 14.375 28.2156 14.4808C28.4413 14.5027 28.6604 14.5295 28.8732 14.5626ZM6.05537 17.2573C6.4865 16.9864 7.04869 16.8128 8.00164 16.7203C8.9719 16.6262 10.2236 16.625 12 16.625H24C25.7764 16.625 27.0281 16.6262 27.9984 16.7203C28.9513 16.8128 29.5135 16.9864 29.9446 17.2573C30.4694 17.587 30.913 18.0307 31.2427 18.5554C31.5136 18.9865 31.6872 19.5487 31.7797 20.5016C31.8738 21.4719 31.875 22.7236 31.875 24.5C31.875 26.2764 31.8738 27.5281 31.7797 28.4984C31.6872 29.4513 31.5136 30.0135 31.2427 30.4446C30.913 30.9694 30.4694 31.413 29.9446 31.7427C29.5135 32.0136 28.9513 32.1873 27.9984 32.2797C27.0281 32.3738 25.7764 32.375 24 32.375H12C10.2236 32.375 8.9719 32.3738 8.00164 32.2797C7.04869 32.1873 6.4865 32.0136 6.05537 31.7427C5.53065 31.413 5.08696 30.9694 4.75726 30.4446C4.48637 30.0135 4.31275 29.4513 4.22033 28.4984C4.12624 27.5281 4.125 26.2764 4.125 24.5C4.125 22.7236 4.12624 21.4719 4.22033 20.5016C4.31275 19.5487 4.48637 18.9865 4.75726 18.5554C5.08696 18.0307 5.53065 17.587 6.05537 17.2573Z" fill="#DED3B3"/>
</svg>
