<svg width="36" height="37" viewBox="0 0 36 37" fill="none" xmlns="http://www.w3.org/2000/svg">
<path d="M5.625 30.875V5H3.375V32C3.375 32.6213 3.87868 33.125 4.5 33.125H31.5V30.875H5.625Z" fill="#DED3B3"/>
<path d="M7.875 17.375H10.1385V19.625H7.875V17.375Z" fill="#DED3B3"/>
<path d="M12.3723 17.375H14.6358V19.625H12.3723V17.375Z" fill="#DED3B3"/>
<path d="M18.9142 17.375H16.8696V19.625H19.1331V18.2917C19.5991 20.2035 20.1631 22.1888 21.1146 23.7681C21.6902 24.7234 22.4313 25.5748 23.4177 26.1838C24.4114 26.7973 25.59 27.125 26.9728 27.125C29.6768 27.125 31.3358 25.3932 32.4552 23.5944L30.5448 22.4056C29.5814 23.954 28.5159 24.875 26.9728 24.875C25.9608 24.875 25.2004 24.6402 24.5997 24.2693C23.9916 23.8939 23.4829 23.3391 23.0418 22.6069C22.5357 21.7668 22.1509 20.7536 21.8162 19.625H23.6304V17.375H21.3669V17.9505C21.2693 17.5562 21.1734 17.1529 21.0767 16.7423L21.0041 16.4332C20.509 14.3235 19.9719 12.0352 18.9942 10.2679C18.4687 9.31805 17.7865 8.45843 16.8612 7.83872C15.9243 7.21118 14.8053 6.875 13.4892 6.875C10.8012 6.875 9.13159 8.59561 8.03554 10.4208L9.96447 11.5792C10.8889 10.0398 11.9602 9.125 13.4892 9.125C14.4018 9.125 15.0764 9.35132 15.6091 9.70815C16.1536 10.0728 16.6173 10.6194 17.0254 11.3571C17.8484 12.8449 18.3226 14.8604 18.8511 17.1069L18.8866 17.2577C18.8958 17.2968 18.905 17.3358 18.9142 17.375Z" fill="#DED3B3"/>
<path d="M25.8642 17.375H28.1277V19.625H25.8642V17.375Z" fill="#DED3B3"/>
<path d="M30.3615 17.375H32.625V19.625H30.3615V17.375Z" fill="#DED3B3"/>
</svg>
