<svg width="36" height="37" viewBox="0 0 36 37" fill="none" xmlns="http://www.w3.org/2000/svg">
<mask id="path-1-inside-1_206_18970" fill="white">
<path d="M31.5122 12.5284C31.4955 12.5452 31.4741 12.5539 31.4494 12.5539C31.4315 12.5539 31.4116 12.5494 31.3851 12.5395C31.3705 12.5338 31.3532 12.5302 31.341 12.5302C31.3383 12.5302 31.3368 12.5302 31.3362 12.5305C31.293 12.547 31.0911 12.5659 30.9247 12.5794L30.5622 12.6085L30.3889 12.7167C30.1403 12.8726 29.279 13.4626 29.109 13.5939C28.9803 13.6935 28.8508 13.8671 28.7871 14.026C28.7674 14.0742 28.7105 14.1993 28.6599 14.3045C28.5691 14.4931 28.4768 14.8037 28.4768 14.9203C28.4768 14.9443 28.5113 15.0426 28.5652 15.1416L28.6858 15.3631L28.4705 15.4276C28.3809 15.4546 28.3359 15.4657 28.2883 15.4657C28.2132 15.4657 28.2034 15.5331 28.1909 15.5829C28.1784 15.633 28.1155 15.7208 28.0908 15.9343C28.0602 16.1972 28.047 16.241 27.9485 16.402C27.9107 16.4641 27.8675 16.5489 27.8544 16.5873C27.8249 16.6751 27.8029 16.6904 27.6927 16.7372C27.6245 16.7663 27.5658 16.8058 27.5185 16.8547C27.4506 16.9252 27.4166 16.9489 27.3487 16.9489C27.2859 16.9489 27.2028 17.0406 27.1653 17.216C27.1462 17.3062 27.1155 17.3449 26.9815 17.4858C26.8219 17.654 26.7945 17.6993 26.7778 17.7778C26.7564 17.878 26.7043 17.9008 26.5962 17.9136C26.5134 17.9235 26.4911 17.9364 26.461 18.0411C26.4416 18.1073 26.3898 18.1958 26.2975 18.3199L26.1772 18.4815L26.1915 18.6737C26.2123 18.9564 26.2087 19.0119 26.1135 19.1525C26.0164 19.2958 26.0152 19.3435 26.106 19.5167C26.1697 19.6385 26.187 19.6921 26.1772 19.7377C26.1528 19.8519 26.0941 20.033 26.0488 20.1335L25.9672 20.3146L25.8838 20.1904C25.8612 20.1565 25.804 20.0483 25.7537 19.9443C25.6173 19.6622 25.5542 19.6589 25.5536 19.6589C25.522 19.6589 25.4714 19.7017 25.4535 19.7566C25.4288 19.8319 25.4446 20.2075 25.489 20.4072C25.6054 20.9334 25.609 20.955 25.6117 21.1777C25.6146 21.4445 25.5896 21.5483 25.483 21.706C25.4458 21.7618 25.4169 21.8187 25.4136 21.8337C25.4059 21.8697 25.4279 21.941 25.5131 22.0343L25.6155 22.1461L25.5176 22.2274C25.4535 22.2807 25.4196 22.3434 25.3725 22.4963C25.3332 22.6243 25.3291 22.7265 25.3556 22.9166C25.3666 22.9949 25.3737 23.182 25.3713 23.3334C25.369 23.4932 25.374 23.6431 25.3803 23.683C25.4026 23.8263 25.3663 23.9159 25.262 23.9732C25.2174 23.9981 25.1953 24.022 25.1364 24.1333C25.0545 24.288 25.0405 24.3021 24.7615 24.5107C24.5595 24.6612 24.5542 24.6918 24.5655 24.7851C24.5715 24.833 24.5801 24.8843 24.5846 24.8999C24.6039 24.9718 24.5482 25.0003 24.4991 25.0252C24.4023 25.075 24.2945 25.1694 24.2037 25.2849C24.1003 25.4162 24.0789 25.4614 24.0604 25.588L24.0336 25.7688C24.0271 25.8128 24.0268 25.8164 24.0932 25.9016C24.1962 26.0338 24.2218 26.0941 24.2367 26.2407C24.2475 26.3462 24.2481 26.3759 24.193 26.4274C24.1727 26.4463 24.1605 26.4757 24.1545 26.5201C24.1525 26.5351 24.1414 26.6091 24.1197 26.6406C24.1146 26.6529 24.1021 26.7045 24.0929 26.78C24.0718 26.95 24.0491 27.0535 23.9172 27.0535C23.9035 27.0535 23.8922 27.0544 23.8835 27.0556C23.8797 27.0912 23.874 27.1683 23.8693 27.2705C23.8639 27.3877 23.8517 27.5341 23.841 27.5766C23.813 27.6885 23.6388 27.8462 23.4934 27.9229C23.3416 28.0033 23.3011 28.0392 23.204 28.1804C23.1173 28.3067 23.0762 28.3438 22.8046 28.542C22.5875 28.7003 22.4613 28.8086 22.4187 28.8736C22.3621 28.9597 22.3401 28.9597 22.3255 28.9597H22.3225C22.3106 28.9591 22.2635 28.945 22.1828 28.9186C21.9538 28.8433 21.8981 28.8026 21.8091 28.6461C21.7969 28.6245 21.776 28.596 21.7594 28.5702C21.7254 28.5168 21.6855 28.4836 21.6602 28.4836C21.645 28.4836 21.6349 28.4959 21.6349 28.5234C21.6349 28.5942 21.6045 28.5882 21.5723 28.5999C21.5405 28.6116 21.5098 28.626 21.472 28.626C21.4502 28.626 21.3874 28.6359 21.332 28.6506C21.2748 28.6655 21.1831 28.6805 21.1274 28.6841C21.0774 28.6874 21.0181 28.7012 20.9982 28.7117C20.9639 28.7297 20.9056 28.7429 20.863 28.7429C20.832 28.7429 20.7656 28.7546 20.7209 28.7678C20.5789 28.8098 20.2433 28.9798 20.1915 29.0295C20.1667 29.0535 20.1134 29.0943 20.0729 29.0943C20.0411 29.0976 19.8716 29.2331 19.6355 29.4238C19.5479 29.4945 19.3692 29.6321 19.3207 29.6462C19.2841 29.6567 19.2069 29.663 19.1539 29.663H19.0938L19.0878 29.7509C19.0825 29.8315 19.0845 29.8732 19.0956 29.8906C19.1125 29.9179 19.1256 29.964 19.1259 29.9979C19.1262 30.0945 19.2927 30.3397 19.3838 30.3781C19.4365 30.4003 19.4663 30.4252 19.4729 30.4521C19.477 30.4578 19.4878 30.4689 19.5024 30.4797L19.5661 30.5271V31.0787L19.3418 31.0694V31.0883C19.3418 31.1639 19.3186 31.1966 19.2117 31.3153C19.07 31.4724 18.9753 31.6142 18.9547 31.673C18.9464 31.6976 18.9514 31.7302 18.9967 31.8649C19.078 32.1065 19.1024 32.2912 19.078 32.4822C19.0676 32.5664 19.061 32.6519 19.0616 32.6785C19.0634 32.7364 19.0518 32.865 19.0178 32.9004C19.0143 32.904 19.0104 32.907 19.0065 32.9094C18.9747 33.0044 18.6989 33.0923 18.5959 33.0926C18.5825 33.0932 18.5149 33.1127 18.4345 33.1484C18.374 33.175 18.2906 33.2068 18.2364 33.2068C18.232 33.2068 18.2281 33.2068 18.2242 33.2068C18.1495 33.1993 18.1316 33.1663 18.1054 33.0872C18.0976 33.0632 18.0896 33.0386 18.0851 33.0335C18.081 33.032 18.0586 33.0305 18.039 33.029C18.0283 33.0284 18.0187 33.0281 18.0104 33.0281C17.9824 33.0281 17.9744 33.0305 17.9443 33.0587C17.9199 33.0821 17.882 33.1286 17.8621 33.16C17.8132 33.2368 17.79 33.2434 17.6929 33.2434C17.6554 33.2434 17.5833 33.2395 17.5533 33.2251L17.4755 33.1873C17.4371 33.1687 17.3951 33.1214 17.366 33.0644C17.3389 33.0116 17.3237 33.0092 17.3234 33.0092C17.3228 33.0092 17.31 33.0095 17.2805 33.0449C17.2415 33.0914 17.2382 33.1843 17.2599 33.2062C17.2781 33.2245 17.2978 33.259 17.2978 33.2905C17.2978 33.2962 17.3025 33.3153 17.3097 33.3291C17.3177 33.3441 17.3326 33.3723 17.3162 33.4002C17.2998 33.4275 17.2683 33.4275 17.2546 33.4275C17.2293 33.4275 17.1977 33.4179 17.1789 33.3966H17.1754C17.1468 33.3966 17.0926 33.414 17.0554 33.4428C17.0315 33.4611 16.9541 33.5498 16.8817 33.6478C16.8186 33.733 16.7448 33.8316 16.7302 33.8499C16.6965 33.8919 16.6468 33.8961 16.5324 33.8961C16.4121 33.8961 16.3472 33.8838 16.1661 33.8283C16.0396 33.7894 15.9249 33.7576 15.8972 33.7528C15.8901 33.7513 15.8814 33.7507 15.8713 33.7507C15.7915 33.7507 15.6575 33.7894 15.5961 33.8304C15.5577 33.8559 15.4931 33.8838 15.4484 33.8943C15.3814 33.9099 15.1977 33.912 15.0944 33.912C14.9053 33.912 14.6435 33.9039 14.4851 33.8856C14.3826 33.8739 14.3228 33.867 14.2888 33.867C14.2617 33.867 14.2576 33.87 14.2406 33.8826C14.2266 33.8928 14.1885 33.9447 14.1611 34.0019C14.1408 34.0439 14.1039 34.1158 14.0789 34.1347C14.0735 34.1398 14.0586 34.1608 14.0455 34.1863C14 34.276 13.7528 34.538 13.6569 34.5986C13.5777 34.6486 13.061 34.9164 13.008 34.9164C12.9997 34.9176 12.9469 34.9313 12.8779 34.9556C12.7519 35 12.7465 35 12.7382 35C12.7045 35 12.6899 34.9691 12.6745 34.9283C12.6447 34.8495 12.6533 34.7898 12.6995 34.5884C12.7302 34.4543 12.7382 34.3878 12.7307 34.3245C12.7179 34.2112 12.6923 34.1359 12.6739 34.1144C12.6539 34.0907 12.6328 34.0346 12.6232 34.0025C12.5985 33.9189 12.6063 33.8973 12.6742 33.7555C12.7495 33.5969 12.9032 33.3495 12.9845 33.2563C13.0181 33.2173 13.0211 33.214 13.0211 33.101C13.0211 33.0314 13.0169 32.9984 13.0122 32.9676C13.0074 32.9367 12.9559 32.9148 12.8847 32.9433C12.8442 32.9571 12.7599 32.9661 12.7016 32.9667C12.5565 32.9679 12.4583 32.9913 12.2441 33.0755C12.2364 33.0785 12.05 33.1517 12.005 33.1517C11.9687 33.1517 11.8877 33.1229 11.8499 33.1076C11.7263 33.0578 11.5032 32.9924 11.3424 32.9592C11.2974 32.9496 11.2656 32.9454 11.2394 32.9454C11.1807 32.9454 11.1411 32.9667 11.0625 33.0395C11.0238 33.0752 10.9708 33.1181 10.9374 33.1181C10.9041 33.1181 10.8466 33.0764 10.8242 33.0584C10.7796 33.0227 10.745 33.0056 10.6706 33.0056C10.6375 33.0056 10.5958 33.0086 10.5363 33.0161C10.2468 33.0515 9.94426 33.1663 9.74652 33.3159C9.66016 33.3816 9.61192 33.4107 9.55563 33.4107C9.51513 33.4107 9.47761 33.3951 9.42669 33.3681C9.28464 33.2938 9.20334 33.1795 9.20334 33.0554C9.20334 32.9247 9.2486 32.9097 9.4383 32.847C9.54878 32.8105 9.56218 32.7907 9.57618 32.7145C9.59494 32.6135 9.63931 32.5586 9.74056 32.5127C9.91775 32.4324 10.2638 32.2945 10.4523 32.2291C10.7394 32.1296 10.8046 32.0636 10.8409 31.837C10.8508 31.777 10.8713 31.6763 10.8886 31.6439C10.9067 31.6097 11.0494 31.4562 11.122 31.3801C11.449 31.0374 11.48 30.9729 11.48 30.8227C11.48 30.7244 11.4499 30.6362 11.385 30.5457C11.2989 30.4249 11.229 30.3895 10.737 30.316C10.5935 30.2947 10.4312 30.2695 10.4085 30.2648C10.3677 30.2558 10.1548 30.0792 10.0655 30.0036C9.90703 29.8702 9.695 29.7053 9.59286 29.6363C9.41239 29.5143 9.12948 29.3737 8.98744 29.3356C8.87666 29.3059 8.71376 29.1869 8.59047 29.0457C8.48178 28.921 8.36474 28.8598 8.08958 28.784L8.06367 28.7768C7.75694 28.6922 7.75188 28.6892 7.51602 28.4509L7.49607 28.4305C7.21435 28.1457 7.17594 28.0926 7.2075 27.9082C7.24145 27.7079 7.28999 27.6267 7.67951 27.117C7.93859 26.7785 8.03151 26.6319 8.04818 26.536C8.06814 26.4217 8.08094 26.1558 8.07677 26.0011C8.07588 25.9705 8.07945 25.9244 8.06933 25.8944C8.0592 25.8644 8.00739 25.8551 7.94663 25.8671C7.8975 25.874 7.52495 26.0731 7.23401 26.2643C7.1003 26.3522 7.07468 26.3522 7.06635 26.3522C7.02942 26.3522 7.00113 26.3147 6.98267 26.2404C6.94068 26.0722 6.81381 25.8236 6.68159 25.6485C6.64139 25.5958 6.58779 25.5079 6.56188 25.4524C6.51363 25.3496 6.3695 25.1406 6.27629 25.0384C6.23817 24.9967 6.1804 24.9077 6.14437 24.8357C6.10982 24.7662 6.06694 24.6954 6.05026 24.6753C6.01512 24.6331 6.01066 24.6253 5.95348 24.6253C5.93263 24.6253 5.90881 24.6181 5.86622 24.5986C5.7608 24.5512 5.71911 24.4835 5.7066 24.3401C5.69678 24.2229 5.67831 24.1845 5.60416 24.1255C5.47968 24.0262 5.06426 23.8598 4.82423 23.8131C4.70988 23.7909 4.7066 23.7891 4.70035 23.7858C4.65687 23.7624 4.67176 23.7342 4.734 23.6152C4.82244 23.4467 4.89183 22.9922 4.85937 22.8849C4.83763 22.8138 4.74651 22.6933 4.53388 22.4546C4.4365 22.3455 4.3287 22.213 4.29356 22.159C4.25931 22.1071 4.20571 22.028 4.17414 21.983C4.00052 21.7363 3.84656 21.1336 3.80755 20.5499C3.77152 20.009 3.81202 19.831 4.0044 19.6846C4.11547 19.6004 4.15657 19.5569 4.15627 19.5239C4.15627 19.4763 4.15597 19.4742 3.98415 19.4643C3.82989 19.4556 3.78254 19.4484 3.706 19.4031C3.60684 19.3447 3.55859 19.2664 3.55859 19.1642C3.55859 19.0116 3.63364 18.9297 3.93233 18.686C4.22179 18.4497 4.39421 18.2743 4.47551 18.1331C4.55651 17.9925 4.58421 17.9679 4.89957 17.7577C5.0178 17.6792 5.19499 17.5488 5.29475 17.4675C5.79058 17.064 5.87397 16.9989 6.03746 16.8874C6.13335 16.822 6.2891 16.7111 6.38499 16.6403C6.48207 16.5687 6.62501 16.4703 6.70363 16.4212C6.78195 16.3723 6.84389 16.327 6.85402 16.3162C6.86384 16.3034 6.88022 16.2821 6.8156 16.1915C6.71554 16.0509 6.70065 16.0116 6.68278 15.8425C6.681 15.8228 6.67891 15.8048 6.67713 15.7883C6.6542 15.5814 6.66283 15.564 6.8299 15.4795C6.843 15.4729 6.85729 15.4657 6.87308 15.4576C7.00033 15.392 7.17177 15.2304 7.38737 14.9728L7.38946 14.9704C7.61638 14.6991 7.73639 14.4547 7.77868 14.1783C7.79595 14.0646 7.77868 13.9786 7.75277 13.9525C7.74622 13.9483 7.7084 13.9363 7.66164 13.9324C7.5997 13.927 7.53984 13.9159 7.52227 13.8689C7.50351 13.8194 7.54818 13.7726 7.56694 13.7528C7.64765 13.668 7.77004 13.6257 8.07052 13.5792C8.38529 13.5304 8.46301 13.51 8.66611 13.423C8.69321 13.4117 8.8299 13.3538 8.86474 13.3538C8.90435 13.3538 8.97225 13.4129 9.00917 13.4482C9.11728 13.5511 9.23282 13.6104 9.32573 13.6104C9.42043 13.6095 9.49786 13.5697 9.63485 13.4527C9.80251 13.3094 9.93145 13.2369 10.0181 13.2369C10.0687 13.2369 10.1075 13.2608 10.1274 13.3049C10.1485 13.3514 10.1444 13.4033 10.1277 13.4947C10.103 13.632 10.1027 14.0233 10.1271 14.1927C10.1471 14.3309 10.1959 14.4469 10.2319 14.4796C10.2522 14.4985 10.371 14.5069 10.4219 14.5108C10.4973 14.5162 10.5452 14.5204 10.5765 14.5243C10.7075 14.5372 10.7313 14.4859 10.7489 14.4466C10.7778 14.3827 10.7977 14.3204 10.8204 14.2307L10.8463 14.1303L11.0649 14.1186C11.192 14.112 11.2608 14.1033 11.2835 14.0742C11.3108 14.0389 11.2936 13.9327 11.2683 13.7978C11.2236 13.5601 11.2293 13.4194 11.2927 13.1703C11.3579 12.9149 11.3966 12.8138 11.4848 12.7551C11.5139 12.7356 11.558 12.6915 11.5792 12.6606C11.6034 12.625 11.6143 12.5256 11.6119 12.3623L11.6083 12.118L11.5494 12.04C11.4449 11.9027 11.3764 11.6742 11.4407 11.5531C11.4597 11.5171 11.4851 11.4991 11.516 11.4991C11.5533 11.4991 11.5857 11.5255 11.6232 11.5654C11.7033 11.638 11.8085 11.5114 11.871 11.4347C11.9401 11.3495 11.9717 11.3235 12.0131 11.2833C12.1295 11.1697 12.2084 11.1289 12.3251 11.1064C12.3874 11.0947 12.4315 11.077 12.4443 11.0692C12.4595 11.0398 12.4541 10.9841 12.444 10.9694C12.4136 10.9562 12.3838 10.925 12.3838 10.8887C12.3838 10.8719 12.3838 10.8441 12.681 10.5388L12.9508 10.2621L12.9365 10.1401C12.9204 9.99918 12.916 9.96141 13.0163 9.92543C13.1134 9.89035 13.2072 9.83488 13.2736 9.77312C13.332 9.71856 13.3421 9.60942 13.3001 9.4877C13.2772 9.42114 13.2778 9.36837 13.3028 9.27843C13.3246 9.20018 13.3246 9.1633 13.3025 9.07126C13.2757 8.95883 13.2775 8.91236 13.312 8.79483C13.332 8.72737 13.3543 8.54299 13.3609 8.39218C13.3814 7.92388 13.4291 7.65224 13.6107 7.65105C13.634 7.65075 13.6599 7.64355 13.6664 7.63965C13.6852 7.62766 13.7233 7.53742 13.7233 7.45107C13.7233 7.38271 13.8165 7.11258 13.8996 7.0856C13.9303 7.05382 14.0053 6.85924 14.0262 6.68775C14.0431 6.54983 14.0667 6.47038 14.0967 6.45179C14.1039 6.4473 14.1226 6.4356 14.1965 6.4356C14.2176 6.4356 14.24 6.4365 14.2611 6.4386C14.2787 6.4401 14.2939 6.441 14.3073 6.441C14.3817 6.441 14.4115 6.42811 14.4309 6.29169C14.4726 5.99548 14.4571 5.80989 14.3689 5.55595L14.2811 5.30321L14.2644 4.75215C14.248 4.21549 14.2492 4.1951 14.3061 4.02391C14.3808 3.79995 14.4157 3.75527 14.7718 3.42608L15.0747 3.14665L15.2793 3.10228C15.4282 3.0702 15.4833 3.04592 15.5747 2.97336C15.7582 2.82735 15.9476 2.75 16.1221 2.75C16.1956 2.75 16.265 2.76379 16.3287 2.79107C16.374 2.81056 16.4321 2.82495 16.4541 2.82495C16.4976 2.82495 16.5863 2.86813 16.6632 2.9179C16.7156 2.95177 16.7656 2.99225 16.7856 3.01683C16.8055 3.04142 16.8183 3.05731 16.8323 3.08279L17.0125 3.42758C17.2373 3.85781 17.3091 3.92257 17.779 4.12045C17.8409 4.14653 17.9309 4.202 17.9842 4.24667C18.0512 4.30333 18.0848 4.31532 18.2078 4.32732C18.3722 4.34321 18.4952 4.37409 18.695 4.44874C18.74 4.46553 18.79 4.47363 18.8487 4.47363C18.9333 4.47363 19.0333 4.45654 19.1542 4.42116C19.2126 4.40407 19.2626 4.39567 19.307 4.39567C19.3922 4.39567 19.4636 4.42506 19.539 4.49072C19.6364 4.57616 19.6742 4.59295 19.8085 4.61124C19.9732 4.63343 20.1402 4.74136 20.4255 5.00879C20.5938 5.16649 20.6596 5.25164 20.7966 5.48759C20.9946 5.82908 21.215 6.05934 21.5831 6.30848C22.0697 6.63768 22.1316 6.69134 22.1316 6.98876V7.14076L22.3019 7.31975C22.4035 7.42619 22.5482 7.59198 22.6251 7.68882C22.7707 7.87291 22.9142 7.95925 23.1054 7.97784C23.134 7.98054 23.153 7.98204 23.1667 7.98204C23.1727 7.98204 23.1763 7.98174 23.1787 7.98144C23.1813 7.97484 23.1846 7.96105 23.1858 7.95626C23.1992 7.8903 23.1126 7.30206 23.0801 7.2415C23.0539 7.19233 23.0417 7.11618 23.0667 7.07421C23.0786 7.05442 23.0977 7.04302 23.1191 7.04302C23.1277 7.04302 23.1361 7.04482 23.1441 7.04812C23.3091 7.11768 24.0536 7.22531 24.3696 7.22531C24.5777 7.22531 24.7719 7.26938 24.9809 7.36382C25.0989 7.41719 25.1465 7.43278 25.193 7.43278C25.2061 7.43278 25.2204 7.43128 25.2376 7.42858C25.3553 7.4097 25.8401 7.18454 26.0006 7.07421C26.0741 7.02354 26.1528 6.97197 26.179 6.95698C26.201 6.94439 26.2382 6.9171 26.2603 6.89702C26.2999 6.86104 26.4118 6.83256 26.4774 6.82236C26.5887 6.80497 26.6248 6.78519 26.6471 6.7585C26.673 6.72792 26.7683 6.61489 26.8585 6.50696C26.9708 6.37294 27.3002 6.04255 27.3791 6.04255C27.4625 6.04255 27.7552 6.51895 27.7823 6.57711C27.863 6.75011 27.8585 6.86344 27.7653 7.00975C27.6578 7.17824 27.6269 7.29307 27.6138 7.5683C27.5989 7.8843 27.6206 7.92268 27.7624 8.01832C27.8544 8.08038 27.9151 8.15113 27.9949 8.28875C28.1063 8.48063 28.2659 8.65782 28.3743 8.70969C28.4047 8.72408 28.4306 8.73067 28.4559 8.73067C28.5113 8.73067 28.5768 8.69829 28.6825 8.61824L28.83 8.50671L29.478 8.49712C30.1024 8.48812 30.1048 8.48692 30.2353 8.42906C30.3568 8.37479 30.4241 8.3622 30.5956 8.3616H30.5986C30.8398 8.3616 31.3094 8.44075 31.436 8.50281C31.5051 8.53639 31.5441 8.58017 31.5554 8.63653C31.573 8.72168 31.5223 8.82751 31.3919 8.97922C31.3061 9.07876 31.2659 9.14501 31.2573 9.20018C31.2472 9.26314 31.187 9.38397 31.1346 9.46432C31.0748 9.55606 31.0304 9.6475 31.0247 9.67239C31.0217 9.68678 31.0042 9.75993 30.9681 9.78212C30.9652 9.78422 30.9643 9.78542 30.9643 9.78542C30.964 9.79321 30.9842 9.83518 31.0834 9.90294C31.2826 10.0397 31.3478 10.099 31.296 10.2279C31.2457 10.3545 31.2424 10.3689 31.2707 10.573C31.3079 10.8444 31.4011 11.2074 31.4869 11.4173C31.5608 11.5978 31.5628 11.6149 31.5649 12.0277C31.5667 12.3728 31.5599 12.4804 31.5122 12.5287V12.5284Z"/>
</mask>
<path d="M31.5122 12.5284C31.4955 12.5452 31.4741 12.5539 31.4494 12.5539C31.4315 12.5539 31.4116 12.5494 31.3851 12.5395C31.3705 12.5338 31.3532 12.5302 31.341 12.5302C31.3383 12.5302 31.3368 12.5302 31.3362 12.5305C31.293 12.547 31.0911 12.5659 30.9247 12.5794L30.5622 12.6085L30.3889 12.7167C30.1403 12.8726 29.279 13.4626 29.109 13.5939C28.9803 13.6935 28.8508 13.8671 28.7871 14.026C28.7674 14.0742 28.7105 14.1993 28.6599 14.3045C28.5691 14.4931 28.4768 14.8037 28.4768 14.9203C28.4768 14.9443 28.5113 15.0426 28.5652 15.1416L28.6858 15.3631L28.4705 15.4276C28.3809 15.4546 28.3359 15.4657 28.2883 15.4657C28.2132 15.4657 28.2034 15.5331 28.1909 15.5829C28.1784 15.633 28.1155 15.7208 28.0908 15.9343C28.0602 16.1972 28.047 16.241 27.9485 16.402C27.9107 16.4641 27.8675 16.5489 27.8544 16.5873C27.8249 16.6751 27.8029 16.6904 27.6927 16.7372C27.6245 16.7663 27.5658 16.8058 27.5185 16.8547C27.4506 16.9252 27.4166 16.9489 27.3487 16.9489C27.2859 16.9489 27.2028 17.0406 27.1653 17.216C27.1462 17.3062 27.1155 17.3449 26.9815 17.4858C26.8219 17.654 26.7945 17.6993 26.7778 17.7778C26.7564 17.878 26.7043 17.9008 26.5962 17.9136C26.5134 17.9235 26.4911 17.9364 26.461 18.0411C26.4416 18.1073 26.3898 18.1958 26.2975 18.3199L26.1772 18.4815L26.1915 18.6737C26.2123 18.9564 26.2087 19.0119 26.1135 19.1525C26.0164 19.2958 26.0152 19.3435 26.106 19.5167C26.1697 19.6385 26.187 19.6921 26.1772 19.7377C26.1528 19.8519 26.0941 20.033 26.0488 20.1335L25.9672 20.3146L25.8838 20.1904C25.8612 20.1565 25.804 20.0483 25.7537 19.9443C25.6173 19.6622 25.5542 19.6589 25.5536 19.6589C25.522 19.6589 25.4714 19.7017 25.4535 19.7566C25.4288 19.8319 25.4446 20.2075 25.489 20.4072C25.6054 20.9334 25.609 20.955 25.6117 21.1777C25.6146 21.4445 25.5896 21.5483 25.483 21.706C25.4458 21.7618 25.4169 21.8187 25.4136 21.8337C25.4059 21.8697 25.4279 21.941 25.5131 22.0343L25.6155 22.1461L25.5176 22.2274C25.4535 22.2807 25.4196 22.3434 25.3725 22.4963C25.3332 22.6243 25.3291 22.7265 25.3556 22.9166C25.3666 22.9949 25.3737 23.182 25.3713 23.3334C25.369 23.4932 25.374 23.6431 25.3803 23.683C25.4026 23.8263 25.3663 23.9159 25.262 23.9732C25.2174 23.9981 25.1953 24.022 25.1364 24.1333C25.0545 24.288 25.0405 24.3021 24.7615 24.5107C24.5595 24.6612 24.5542 24.6918 24.5655 24.7851C24.5715 24.833 24.5801 24.8843 24.5846 24.8999C24.6039 24.9718 24.5482 25.0003 24.4991 25.0252C24.4023 25.075 24.2945 25.1694 24.2037 25.2849C24.1003 25.4162 24.0789 25.4614 24.0604 25.588L24.0336 25.7688C24.0271 25.8128 24.0268 25.8164 24.0932 25.9016C24.1962 26.0338 24.2218 26.0941 24.2367 26.2407C24.2475 26.3462 24.2481 26.3759 24.193 26.4274C24.1727 26.4463 24.1605 26.4757 24.1545 26.5201C24.1525 26.5351 24.1414 26.6091 24.1197 26.6406C24.1146 26.6529 24.1021 26.7045 24.0929 26.78C24.0718 26.95 24.0491 27.0535 23.9172 27.0535C23.9035 27.0535 23.8922 27.0544 23.8835 27.0556C23.8797 27.0912 23.874 27.1683 23.8693 27.2705C23.8639 27.3877 23.8517 27.5341 23.841 27.5766C23.813 27.6885 23.6388 27.8462 23.4934 27.9229C23.3416 28.0033 23.3011 28.0392 23.204 28.1804C23.1173 28.3067 23.0762 28.3438 22.8046 28.542C22.5875 28.7003 22.4613 28.8086 22.4187 28.8736C22.3621 28.9597 22.3401 28.9597 22.3255 28.9597H22.3225C22.3106 28.9591 22.2635 28.945 22.1828 28.9186C21.9538 28.8433 21.8981 28.8026 21.8091 28.6461C21.7969 28.6245 21.776 28.596 21.7594 28.5702C21.7254 28.5168 21.6855 28.4836 21.6602 28.4836C21.645 28.4836 21.6349 28.4959 21.6349 28.5234C21.6349 28.5942 21.6045 28.5882 21.5723 28.5999C21.5405 28.6116 21.5098 28.626 21.472 28.626C21.4502 28.626 21.3874 28.6359 21.332 28.6506C21.2748 28.6655 21.1831 28.6805 21.1274 28.6841C21.0774 28.6874 21.0181 28.7012 20.9982 28.7117C20.9639 28.7297 20.9056 28.7429 20.863 28.7429C20.832 28.7429 20.7656 28.7546 20.7209 28.7678C20.5789 28.8098 20.2433 28.9798 20.1915 29.0295C20.1667 29.0535 20.1134 29.0943 20.0729 29.0943C20.0411 29.0976 19.8716 29.2331 19.6355 29.4238C19.5479 29.4945 19.3692 29.6321 19.3207 29.6462C19.2841 29.6567 19.2069 29.663 19.1539 29.663H19.0938L19.0878 29.7509C19.0825 29.8315 19.0845 29.8732 19.0956 29.8906C19.1125 29.9179 19.1256 29.964 19.1259 29.9979C19.1262 30.0945 19.2927 30.3397 19.3838 30.3781C19.4365 30.4003 19.4663 30.4252 19.4729 30.4521C19.477 30.4578 19.4878 30.4689 19.5024 30.4797L19.5661 30.5271V31.0787L19.3418 31.0694V31.0883C19.3418 31.1639 19.3186 31.1966 19.2117 31.3153C19.07 31.4724 18.9753 31.6142 18.9547 31.673C18.9464 31.6976 18.9514 31.7302 18.9967 31.8649C19.078 32.1065 19.1024 32.2912 19.078 32.4822C19.0676 32.5664 19.061 32.6519 19.0616 32.6785C19.0634 32.7364 19.0518 32.865 19.0178 32.9004C19.0143 32.904 19.0104 32.907 19.0065 32.9094C18.9747 33.0044 18.6989 33.0923 18.5959 33.0926C18.5825 33.0932 18.5149 33.1127 18.4345 33.1484C18.374 33.175 18.2906 33.2068 18.2364 33.2068C18.232 33.2068 18.2281 33.2068 18.2242 33.2068C18.1495 33.1993 18.1316 33.1663 18.1054 33.0872C18.0976 33.0632 18.0896 33.0386 18.0851 33.0335C18.081 33.032 18.0586 33.0305 18.039 33.029C18.0283 33.0284 18.0187 33.0281 18.0104 33.0281C17.9824 33.0281 17.9744 33.0305 17.9443 33.0587C17.9199 33.0821 17.882 33.1286 17.8621 33.16C17.8132 33.2368 17.79 33.2434 17.6929 33.2434C17.6554 33.2434 17.5833 33.2395 17.5533 33.2251L17.4755 33.1873C17.4371 33.1687 17.3951 33.1214 17.366 33.0644C17.3389 33.0116 17.3237 33.0092 17.3234 33.0092C17.3228 33.0092 17.31 33.0095 17.2805 33.0449C17.2415 33.0914 17.2382 33.1843 17.2599 33.2062C17.2781 33.2245 17.2978 33.259 17.2978 33.2905C17.2978 33.2962 17.3025 33.3153 17.3097 33.3291C17.3177 33.3441 17.3326 33.3723 17.3162 33.4002C17.2998 33.4275 17.2683 33.4275 17.2546 33.4275C17.2293 33.4275 17.1977 33.4179 17.1789 33.3966H17.1754C17.1468 33.3966 17.0926 33.414 17.0554 33.4428C17.0315 33.4611 16.9541 33.5498 16.8817 33.6478C16.8186 33.733 16.7448 33.8316 16.7302 33.8499C16.6965 33.8919 16.6468 33.8961 16.5324 33.8961C16.4121 33.8961 16.3472 33.8838 16.1661 33.8283C16.0396 33.7894 15.9249 33.7576 15.8972 33.7528C15.8901 33.7513 15.8814 33.7507 15.8713 33.7507C15.7915 33.7507 15.6575 33.7894 15.5961 33.8304C15.5577 33.8559 15.4931 33.8838 15.4484 33.8943C15.3814 33.9099 15.1977 33.912 15.0944 33.912C14.9053 33.912 14.6435 33.9039 14.4851 33.8856C14.3826 33.8739 14.3228 33.867 14.2888 33.867C14.2617 33.867 14.2576 33.87 14.2406 33.8826C14.2266 33.8928 14.1885 33.9447 14.1611 34.0019C14.1408 34.0439 14.1039 34.1158 14.0789 34.1347C14.0735 34.1398 14.0586 34.1608 14.0455 34.1863C14 34.276 13.7528 34.538 13.6569 34.5986C13.5777 34.6486 13.061 34.9164 13.008 34.9164C12.9997 34.9176 12.9469 34.9313 12.8779 34.9556C12.7519 35 12.7465 35 12.7382 35C12.7045 35 12.6899 34.9691 12.6745 34.9283C12.6447 34.8495 12.6533 34.7898 12.6995 34.5884C12.7302 34.4543 12.7382 34.3878 12.7307 34.3245C12.7179 34.2112 12.6923 34.1359 12.6739 34.1144C12.6539 34.0907 12.6328 34.0346 12.6232 34.0025C12.5985 33.9189 12.6063 33.8973 12.6742 33.7555C12.7495 33.5969 12.9032 33.3495 12.9845 33.2563C13.0181 33.2173 13.0211 33.214 13.0211 33.101C13.0211 33.0314 13.0169 32.9984 13.0122 32.9676C13.0074 32.9367 12.9559 32.9148 12.8847 32.9433C12.8442 32.9571 12.7599 32.9661 12.7016 32.9667C12.5565 32.9679 12.4583 32.9913 12.2441 33.0755C12.2364 33.0785 12.05 33.1517 12.005 33.1517C11.9687 33.1517 11.8877 33.1229 11.8499 33.1076C11.7263 33.0578 11.5032 32.9924 11.3424 32.9592C11.2974 32.9496 11.2656 32.9454 11.2394 32.9454C11.1807 32.9454 11.1411 32.9667 11.0625 33.0395C11.0238 33.0752 10.9708 33.1181 10.9374 33.1181C10.9041 33.1181 10.8466 33.0764 10.8242 33.0584C10.7796 33.0227 10.745 33.0056 10.6706 33.0056C10.6375 33.0056 10.5958 33.0086 10.5363 33.0161C10.2468 33.0515 9.94426 33.1663 9.74652 33.3159C9.66016 33.3816 9.61192 33.4107 9.55563 33.4107C9.51513 33.4107 9.47761 33.3951 9.42669 33.3681C9.28464 33.2938 9.20334 33.1795 9.20334 33.0554C9.20334 32.9247 9.2486 32.9097 9.4383 32.847C9.54878 32.8105 9.56218 32.7907 9.57618 32.7145C9.59494 32.6135 9.63931 32.5586 9.74056 32.5127C9.91775 32.4324 10.2638 32.2945 10.4523 32.2291C10.7394 32.1296 10.8046 32.0636 10.8409 31.837C10.8508 31.777 10.8713 31.6763 10.8886 31.6439C10.9067 31.6097 11.0494 31.4562 11.122 31.3801C11.449 31.0374 11.48 30.9729 11.48 30.8227C11.48 30.7244 11.4499 30.6362 11.385 30.5457C11.2989 30.4249 11.229 30.3895 10.737 30.316C10.5935 30.2947 10.4312 30.2695 10.4085 30.2648C10.3677 30.2558 10.1548 30.0792 10.0655 30.0036C9.90703 29.8702 9.695 29.7053 9.59286 29.6363C9.41239 29.5143 9.12948 29.3737 8.98744 29.3356C8.87666 29.3059 8.71376 29.1869 8.59047 29.0457C8.48178 28.921 8.36474 28.8598 8.08958 28.784L8.06367 28.7768C7.75694 28.6922 7.75188 28.6892 7.51602 28.4509L7.49607 28.4305C7.21435 28.1457 7.17594 28.0926 7.2075 27.9082C7.24145 27.7079 7.28999 27.6267 7.67951 27.117C7.93859 26.7785 8.03151 26.6319 8.04818 26.536C8.06814 26.4217 8.08094 26.1558 8.07677 26.0011C8.07588 25.9705 8.07945 25.9244 8.06933 25.8944C8.0592 25.8644 8.00739 25.8551 7.94663 25.8671C7.8975 25.874 7.52495 26.0731 7.23401 26.2643C7.1003 26.3522 7.07468 26.3522 7.06635 26.3522C7.02942 26.3522 7.00113 26.3147 6.98267 26.2404C6.94068 26.0722 6.81381 25.8236 6.68159 25.6485C6.64139 25.5958 6.58779 25.5079 6.56188 25.4524C6.51363 25.3496 6.3695 25.1406 6.27629 25.0384C6.23817 24.9967 6.1804 24.9077 6.14437 24.8357C6.10982 24.7662 6.06694 24.6954 6.05026 24.6753C6.01512 24.6331 6.01066 24.6253 5.95348 24.6253C5.93263 24.6253 5.90881 24.6181 5.86622 24.5986C5.7608 24.5512 5.71911 24.4835 5.7066 24.3401C5.69678 24.2229 5.67831 24.1845 5.60416 24.1255C5.47968 24.0262 5.06426 23.8598 4.82423 23.8131C4.70988 23.7909 4.7066 23.7891 4.70035 23.7858C4.65687 23.7624 4.67176 23.7342 4.734 23.6152C4.82244 23.4467 4.89183 22.9922 4.85937 22.8849C4.83763 22.8138 4.74651 22.6933 4.53388 22.4546C4.4365 22.3455 4.3287 22.213 4.29356 22.159C4.25931 22.1071 4.20571 22.028 4.17414 21.983C4.00052 21.7363 3.84656 21.1336 3.80755 20.5499C3.77152 20.009 3.81202 19.831 4.0044 19.6846C4.11547 19.6004 4.15657 19.5569 4.15627 19.5239C4.15627 19.4763 4.15597 19.4742 3.98415 19.4643C3.82989 19.4556 3.78254 19.4484 3.706 19.4031C3.60684 19.3447 3.55859 19.2664 3.55859 19.1642C3.55859 19.0116 3.63364 18.9297 3.93233 18.686C4.22179 18.4497 4.39421 18.2743 4.47551 18.1331C4.55651 17.9925 4.58421 17.9679 4.89957 17.7577C5.0178 17.6792 5.19499 17.5488 5.29475 17.4675C5.79058 17.064 5.87397 16.9989 6.03746 16.8874C6.13335 16.822 6.2891 16.7111 6.38499 16.6403C6.48207 16.5687 6.62501 16.4703 6.70363 16.4212C6.78195 16.3723 6.84389 16.327 6.85402 16.3162C6.86384 16.3034 6.88022 16.2821 6.8156 16.1915C6.71554 16.0509 6.70065 16.0116 6.68278 15.8425C6.681 15.8228 6.67891 15.8048 6.67713 15.7883C6.6542 15.5814 6.66283 15.564 6.8299 15.4795C6.843 15.4729 6.85729 15.4657 6.87308 15.4576C7.00033 15.392 7.17177 15.2304 7.38737 14.9728L7.38946 14.9704C7.61638 14.6991 7.73639 14.4547 7.77868 14.1783C7.79595 14.0646 7.77868 13.9786 7.75277 13.9525C7.74622 13.9483 7.7084 13.9363 7.66164 13.9324C7.5997 13.927 7.53984 13.9159 7.52227 13.8689C7.50351 13.8194 7.54818 13.7726 7.56694 13.7528C7.64765 13.668 7.77004 13.6257 8.07052 13.5792C8.38529 13.5304 8.46301 13.51 8.66611 13.423C8.69321 13.4117 8.8299 13.3538 8.86474 13.3538C8.90435 13.3538 8.97225 13.4129 9.00917 13.4482C9.11728 13.5511 9.23282 13.6104 9.32573 13.6104C9.42043 13.6095 9.49786 13.5697 9.63485 13.4527C9.80251 13.3094 9.93145 13.2369 10.0181 13.2369C10.0687 13.2369 10.1075 13.2608 10.1274 13.3049C10.1485 13.3514 10.1444 13.4033 10.1277 13.4947C10.103 13.632 10.1027 14.0233 10.1271 14.1927C10.1471 14.3309 10.1959 14.4469 10.2319 14.4796C10.2522 14.4985 10.371 14.5069 10.4219 14.5108C10.4973 14.5162 10.5452 14.5204 10.5765 14.5243C10.7075 14.5372 10.7313 14.4859 10.7489 14.4466C10.7778 14.3827 10.7977 14.3204 10.8204 14.2307L10.8463 14.1303L11.0649 14.1186C11.192 14.112 11.2608 14.1033 11.2835 14.0742C11.3108 14.0389 11.2936 13.9327 11.2683 13.7978C11.2236 13.5601 11.2293 13.4194 11.2927 13.1703C11.3579 12.9149 11.3966 12.8138 11.4848 12.7551C11.5139 12.7356 11.558 12.6915 11.5792 12.6606C11.6034 12.625 11.6143 12.5256 11.6119 12.3623L11.6083 12.118L11.5494 12.04C11.4449 11.9027 11.3764 11.6742 11.4407 11.5531C11.4597 11.5171 11.4851 11.4991 11.516 11.4991C11.5533 11.4991 11.5857 11.5255 11.6232 11.5654C11.7033 11.638 11.8085 11.5114 11.871 11.4347C11.9401 11.3495 11.9717 11.3235 12.0131 11.2833C12.1295 11.1697 12.2084 11.1289 12.3251 11.1064C12.3874 11.0947 12.4315 11.077 12.4443 11.0692C12.4595 11.0398 12.4541 10.9841 12.444 10.9694C12.4136 10.9562 12.3838 10.925 12.3838 10.8887C12.3838 10.8719 12.3838 10.8441 12.681 10.5388L12.9508 10.2621L12.9365 10.1401C12.9204 9.99918 12.916 9.96141 13.0163 9.92543C13.1134 9.89035 13.2072 9.83488 13.2736 9.77312C13.332 9.71856 13.3421 9.60942 13.3001 9.4877C13.2772 9.42114 13.2778 9.36837 13.3028 9.27843C13.3246 9.20018 13.3246 9.1633 13.3025 9.07126C13.2757 8.95883 13.2775 8.91236 13.312 8.79483C13.332 8.72737 13.3543 8.54299 13.3609 8.39218C13.3814 7.92388 13.4291 7.65224 13.6107 7.65105C13.634 7.65075 13.6599 7.64355 13.6664 7.63965C13.6852 7.62766 13.7233 7.53742 13.7233 7.45107C13.7233 7.38271 13.8165 7.11258 13.8996 7.0856C13.9303 7.05382 14.0053 6.85924 14.0262 6.68775C14.0431 6.54983 14.0667 6.47038 14.0967 6.45179C14.1039 6.4473 14.1226 6.4356 14.1965 6.4356C14.2176 6.4356 14.24 6.4365 14.2611 6.4386C14.2787 6.4401 14.2939 6.441 14.3073 6.441C14.3817 6.441 14.4115 6.42811 14.4309 6.29169C14.4726 5.99548 14.4571 5.80989 14.3689 5.55595L14.2811 5.30321L14.2644 4.75215C14.248 4.21549 14.2492 4.1951 14.3061 4.02391C14.3808 3.79995 14.4157 3.75527 14.7718 3.42608L15.0747 3.14665L15.2793 3.10228C15.4282 3.0702 15.4833 3.04592 15.5747 2.97336C15.7582 2.82735 15.9476 2.75 16.1221 2.75C16.1956 2.75 16.265 2.76379 16.3287 2.79107C16.374 2.81056 16.4321 2.82495 16.4541 2.82495C16.4976 2.82495 16.5863 2.86813 16.6632 2.9179C16.7156 2.95177 16.7656 2.99225 16.7856 3.01683C16.8055 3.04142 16.8183 3.05731 16.8323 3.08279L17.0125 3.42758C17.2373 3.85781 17.3091 3.92257 17.779 4.12045C17.8409 4.14653 17.9309 4.202 17.9842 4.24667C18.0512 4.30333 18.0848 4.31532 18.2078 4.32732C18.3722 4.34321 18.4952 4.37409 18.695 4.44874C18.74 4.46553 18.79 4.47363 18.8487 4.47363C18.9333 4.47363 19.0333 4.45654 19.1542 4.42116C19.2126 4.40407 19.2626 4.39567 19.307 4.39567C19.3922 4.39567 19.4636 4.42506 19.539 4.49072C19.6364 4.57616 19.6742 4.59295 19.8085 4.61124C19.9732 4.63343 20.1402 4.74136 20.4255 5.00879C20.5938 5.16649 20.6596 5.25164 20.7966 5.48759C20.9946 5.82908 21.215 6.05934 21.5831 6.30848C22.0697 6.63768 22.1316 6.69134 22.1316 6.98876V7.14076L22.3019 7.31975C22.4035 7.42619 22.5482 7.59198 22.6251 7.68882C22.7707 7.87291 22.9142 7.95925 23.1054 7.97784C23.134 7.98054 23.153 7.98204 23.1667 7.98204C23.1727 7.98204 23.1763 7.98174 23.1787 7.98144C23.1813 7.97484 23.1846 7.96105 23.1858 7.95626C23.1992 7.8903 23.1126 7.30206 23.0801 7.2415C23.0539 7.19233 23.0417 7.11618 23.0667 7.07421C23.0786 7.05442 23.0977 7.04302 23.1191 7.04302C23.1277 7.04302 23.1361 7.04482 23.1441 7.04812C23.3091 7.11768 24.0536 7.22531 24.3696 7.22531C24.5777 7.22531 24.7719 7.26938 24.9809 7.36382C25.0989 7.41719 25.1465 7.43278 25.193 7.43278C25.2061 7.43278 25.2204 7.43128 25.2376 7.42858C25.3553 7.4097 25.8401 7.18454 26.0006 7.07421C26.0741 7.02354 26.1528 6.97197 26.179 6.95698C26.201 6.94439 26.2382 6.9171 26.2603 6.89702C26.2999 6.86104 26.4118 6.83256 26.4774 6.82236C26.5887 6.80497 26.6248 6.78519 26.6471 6.7585C26.673 6.72792 26.7683 6.61489 26.8585 6.50696C26.9708 6.37294 27.3002 6.04255 27.3791 6.04255C27.4625 6.04255 27.7552 6.51895 27.7823 6.57711C27.863 6.75011 27.8585 6.86344 27.7653 7.00975C27.6578 7.17824 27.6269 7.29307 27.6138 7.5683C27.5989 7.8843 27.6206 7.92268 27.7624 8.01832C27.8544 8.08038 27.9151 8.15113 27.9949 8.28875C28.1063 8.48063 28.2659 8.65782 28.3743 8.70969C28.4047 8.72408 28.4306 8.73067 28.4559 8.73067C28.5113 8.73067 28.5768 8.69829 28.6825 8.61824L28.83 8.50671L29.478 8.49712C30.1024 8.48812 30.1048 8.48692 30.2353 8.42906C30.3568 8.37479 30.4241 8.3622 30.5956 8.3616H30.5986C30.8398 8.3616 31.3094 8.44075 31.436 8.50281C31.5051 8.53639 31.5441 8.58017 31.5554 8.63653C31.573 8.72168 31.5223 8.82751 31.3919 8.97922C31.3061 9.07876 31.2659 9.14501 31.2573 9.20018C31.2472 9.26314 31.187 9.38397 31.1346 9.46432C31.0748 9.55606 31.0304 9.6475 31.0247 9.67239C31.0217 9.68678 31.0042 9.75993 30.9681 9.78212C30.9652 9.78422 30.9643 9.78542 30.9643 9.78542C30.964 9.79321 30.9842 9.83518 31.0834 9.90294C31.2826 10.0397 31.3478 10.099 31.296 10.2279C31.2457 10.3545 31.2424 10.3689 31.2707 10.573C31.3079 10.8444 31.4011 11.2074 31.4869 11.4173C31.5608 11.5978 31.5628 11.6149 31.5649 12.0277C31.5667 12.3728 31.5599 12.4804 31.5122 12.5287V12.5284Z" stroke="#DED3B3" stroke-width="3.01754" stroke-miterlimit="10" mask="url(#path-1-inside-1_206_18970)"/>
</svg>
