<svg width="36" height="36" viewBox="0 0 36 36" fill="none" xmlns="http://www.w3.org/2000/svg">
<path d="M23.625 13.2188V16.7812H21.375V13.2188H23.625Z" fill="#DED3B3"/>
<path d="M23.625 18.4688V22.0312H21.375V18.4688H23.625Z" fill="#DED3B3"/>
<path d="M23.625 23.7188V27.2812H21.375V23.7188H23.625Z" fill="#DED3B3"/>
<path d="M13.125 12.2812V8.71875H10.875V12.2812H13.125Z" fill="#DED3B3"/>
<path d="M13.125 17.5312V13.9688H10.875V17.5312H13.125Z" fill="#DED3B3"/>
<path d="M13.125 22.7812V19.2188H10.875V22.7812H13.125Z" fill="#DED3B3"/>
<path fill-rule="evenodd" clip-rule="evenodd" d="M11.5044 3.50036C11.8026 3.34749 12.1534 3.3355 12.4613 3.46764L22.7312 7.875H33C33.6213 7.875 34.125 8.37868 34.125 9V31.4997C34.125 32.121 33.6213 32.6247 33 32.6247H22.5C22.3474 32.6247 22.1964 32.5937 22.0562 32.5335L11.9669 28.2025L3.35513 31.0675C3.01211 31.1816 2.63514 31.1239 2.34193 30.9125C2.04873 30.701 1.875 30.3615 1.875 30V9.12445C1.875 8.70241 2.11121 8.31588 2.48677 8.12334L11.5044 3.50036ZM10.875 6.35146L4.125 9.81193V28.4401L10.875 26.1945V24.4688H13.125V26.25H13.1225L21.375 29.7925V28.9688H23.625V30.3747H31.875V10.125H23.625V11.5312H21.375V9.75H21.395L13.125 6.20092V7.03125H10.875V6.35146Z" fill="#DED3B3"/>
</svg>
