<svg width="36" height="36" viewBox="0 0 36 36" fill="none" xmlns="http://www.w3.org/2000/svg">
<path fill-rule="evenodd" clip-rule="evenodd" d="M28.9893 6.90451C25.6936 3.63939 21.337 2.33388 17.1572 2.67868L16.1247 2.76386V19.8749H33.2506L33.3291 18.8346C33.6501 14.5813 32.28 10.1646 28.9893 6.90451ZM18.3747 17.6249V4.87514C21.631 4.85425 24.8889 6.00948 27.4058 8.50291C29.9174 10.9912 31.1246 14.299 31.1247 17.6249H18.3747Z" fill="#DED3B3"/>
<path d="M8.5936 27.4973C2.29067 21.2529 4.2581 9.90053 12.5352 6.28099L11.6337 4.21948C1.87607 8.48645 -0.402837 21.7517 7.01006 29.0957C14.5796 36.5948 27.7297 33.7924 31.7862 24.1794L29.7132 23.3046C26.2651 31.4759 15.012 33.856 8.5936 27.4973Z" fill="#DED3B3"/>
</svg>
