<svg width="36" height="36" viewBox="0 0 36 36" fill="none" xmlns="http://www.w3.org/2000/svg">
<path d="M16.5 19.5C16.5 18.6716 17.1716 18 18 18H18.0135C18.8419 18 19.5135 18.6716 19.5135 19.5C19.5135 20.3284 18.8419 21 18.0135 21H18C17.1716 21 16.5 20.3284 16.5 19.5Z" fill="#DED3B3"/>
<path fill-rule="evenodd" clip-rule="evenodd" d="M24 8.59813H19.125V9.93737C19.1455 9.94724 19.1658 9.95724 19.1859 9.96736C19.4921 10.1211 19.8312 10.3392 20.19 10.5699L23.3949 12.6302C24.033 13.0404 24.5765 13.3898 25.0015 13.7235C25.4544 14.0792 25.8388 14.466 26.1206 14.9821C26.4024 15.4983 26.5199 16.0308 26.5741 16.6041C26.625 17.142 26.625 17.7881 26.625 18.5467V18.6202C27.3034 18.7883 27.9339 18.9473 28.4925 19.1132C29.28 19.3471 30.0204 19.621 30.6461 20.0193C31.2971 20.4337 31.8201 20.9801 32.1633 21.7275C32.4959 22.4518 32.6253 23.2907 32.6253 24.2437V31.875H33C33.6213 31.875 34.125 32.3787 34.125 33C34.125 33.6213 33.6213 34.125 33 34.125H31.525L31.5003 34.1253L31.4756 34.125H4.52471L4.5 34.1253L4.47529 34.125H3C2.37868 34.125 1.875 33.6213 1.875 33C1.875 32.3787 2.37868 31.875 3 31.875H3.375V24.2437C3.375 23.2907 3.50437 22.4518 3.83698 21.7275C4.18016 20.9801 4.70321 20.4337 5.35417 20.0193C5.97988 19.621 6.72027 19.3471 7.50773 19.1132C8.06632 18.9473 8.6967 18.7884 9.375 18.6203V18.5467C9.37498 17.7881 9.37496 17.142 9.42586 16.6041C9.48011 16.0308 9.59765 15.4983 9.87944 14.9821C10.1612 14.466 10.5456 14.0792 10.9985 13.7235C11.4235 13.3898 11.967 13.0404 12.6051 12.6302L15.81 10.57C16.1688 10.3392 16.5079 10.1212 16.8141 9.96736C16.8342 9.95723 16.8545 9.94722 16.875 9.93734L16.875 4.40368C16.8749 4.09387 16.8748 3.76005 16.9124 3.47847C16.9564 3.14948 17.0693 2.72889 17.4219 2.37428C18.0221 1.7705 18.8579 1.85226 19.2733 1.9251C19.7838 2.0146 20.3327 2.21652 20.8285 2.43292C21.8338 2.87175 22.8679 3.48154 23.4203 3.82166C24.8561 4.70577 25.125 6.36769 25.125 7.47313C25.125 8.09445 24.6213 8.59813 24 8.59813ZM19.9284 4.49503C19.6176 4.35936 19.3462 4.25953 19.1255 4.19754C19.125 4.27383 19.125 4.3587 19.125 4.45534V6.34813H22.702C22.592 6.06069 22.434 5.8567 22.2406 5.73757C21.7125 5.41244 20.786 4.86937 19.9284 4.49503ZM17.8241 11.9779C17.6377 12.0716 17.4 12.2226 16.9861 12.4887L13.8638 14.4959C13.1723 14.9404 12.7195 15.2329 12.3881 15.4931C12.0754 15.7387 11.9394 15.9045 11.8543 16.0603C11.7692 16.2161 11.7033 16.4202 11.6659 16.816C11.6262 17.2355 11.625 17.7746 11.625 18.5966V19.4768C11.6254 19.4931 11.6254 19.5093 11.625 19.5254V31.875H16.875V27C16.875 26.3787 17.3787 25.875 18 25.875C18.6213 25.875 19.125 26.3787 19.125 27V31.875H24.375V18.5966C24.375 17.7746 24.3738 17.2355 24.3341 16.816C24.2967 16.4202 24.2308 16.2161 24.1457 16.0603C24.0606 15.9045 23.9246 15.7387 23.6119 15.4931C23.2805 15.2329 22.8277 14.9404 22.1362 14.4959L19.0139 12.4887C18.6 12.2226 18.3623 12.0716 18.1759 11.9779C18.0921 11.9358 18.0445 11.919 18.0205 11.9122C18.0094 11.909 18.0037 11.9081 18.0021 11.9079L18 11.9077L17.9979 11.9079C17.9963 11.9081 17.9906 11.909 17.9795 11.9122C17.9555 11.919 17.9079 11.9358 17.8241 11.9779ZM26.625 31.875H30.3753V24.2437C30.3753 23.478 30.2685 22.993 30.1185 22.6663C29.9791 22.3627 29.773 22.1307 29.4379 21.9174C29.0775 21.688 28.5748 21.4848 27.8519 21.2701C27.4795 21.1595 27.074 21.0527 26.625 20.9393V31.875ZM5.625 31.875H9.375L9.375 20.9394C8.92607 21.0528 8.5207 21.1595 8.1484 21.2701C7.42543 21.4848 6.92277 21.688 6.56239 21.9174C6.22726 22.1307 6.02116 22.3627 5.88173 22.6663C5.73172 22.993 5.625 23.478 5.625 24.2437V31.875Z" fill="#DED3B3"/>
</svg>
