<svg width="36" height="36" viewBox="0 0 36 36" fill="none" xmlns="http://www.w3.org/2000/svg">
<path fill-rule="evenodd" clip-rule="evenodd" d="M12.4423 9.42946C13.3113 6.20761 16.7464 4.32284 20.0855 5.0206C23.0383 5.63764 25.1476 8.11779 25.1269 10.9427C29.0135 11.4339 32.0845 14.5369 32.5608 18.4395C32.7674 18.4855 32.9698 18.5587 33.1608 18.6674C33.5621 18.8958 33.8381 19.2394 33.9875 19.6337C34.257 20.3447 34.0796 21.1049 33.889 21.6279C33.6802 22.201 33.3534 22.7656 33.0074 23.2256C32.6855 23.6537 32.2436 24.1302 31.7494 24.3775L28.208 26.1497C28.0213 26.2431 27.9184 26.295 27.8423 26.338C27.8085 26.3572 27.7903 26.3689 27.7809 26.3754L27.773 26.3811C27.3615 26.7446 27.0954 27.2229 26.7182 27.9024C26.6577 28.0114 26.5943 28.1255 26.527 28.2453C26.0848 29.0318 25.4761 30.0262 24.3364 30.6366C23.8273 30.9093 23.3039 31.0231 22.7409 31.0756C22.2128 31.1249 21.5792 31.1249 20.8357 31.1249H15.1644C14.4209 31.1249 13.7873 31.1249 13.2592 31.0756C12.6962 31.0231 12.1728 30.9093 11.6637 30.6366C10.524 30.0262 9.91532 29.0318 9.47309 28.2453C9.40577 28.1256 9.3424 28.0114 9.28192 27.9025C8.90479 27.223 8.63972 26.7455 8.22825 26.3819L8.21923 26.3754C8.2098 26.3689 8.19155 26.3572 8.1578 26.338C8.08175 26.295 7.9788 26.2431 7.79206 26.1497L4.25071 24.3775C3.7565 24.1302 3.31459 23.6537 2.99269 23.2256C2.64675 22.7656 2.31991 22.201 2.11108 21.6279C1.9205 21.1049 1.74306 20.3447 2.01259 19.6337C2.16205 19.2394 2.43805 18.8958 2.83926 18.6674C3.0273 18.5604 3.22642 18.4878 3.42968 18.4417C3.92265 13.6948 7.69534 9.92222 12.4423 9.42946ZM14.8172 9.45977C15.5722 7.82608 17.5458 6.78849 19.6253 7.22303C21.6372 7.64345 22.8889 9.25776 22.8729 10.9549C21.8907 11.09 20.9607 11.3924 20.113 11.8326C18.6522 10.5715 16.8272 9.72089 14.8172 9.45977ZM13.5 11.6249C9.53277 11.6249 6.25068 14.5585 5.7048 18.3749H9.3758C9.3753 18.3611 9.37505 18.3472 9.37505 18.3332C9.37505 15.9854 11.1133 13.8749 13.5 13.8749C15.8868 13.8749 17.625 15.9854 17.625 18.3332V18.3749H21.2953C20.7494 14.5585 17.4673 11.6249 13.5 11.6249ZM15.375 18.3749H11.6243C11.6248 18.3611 11.625 18.3472 11.625 18.3332C11.625 16.9992 12.5731 16.1249 13.5 16.1249C14.427 16.1249 15.375 16.9992 15.375 18.3332V18.3749ZM15.375 20.6249V20.9999C15.375 21.6212 15.8787 22.1249 16.5 22.1249C17.1214 22.1249 17.625 21.6212 17.625 20.9999V20.6249H31.8461C31.8314 20.6872 31.809 20.7643 31.775 20.8575C31.6546 21.188 31.4454 21.5591 31.2092 21.8733C31.093 22.0277 30.9813 22.1537 30.8857 22.2454C30.8019 22.3257 30.7525 22.3588 30.7424 22.3654L27.2011 24.1375L27.1321 24.172C26.8482 24.3134 26.5428 24.4655 26.2821 24.6958C25.554 25.339 25.0825 26.2007 24.7233 26.8571C24.6684 26.9574 24.6159 27.0533 24.5658 27.1425C24.1425 27.8953 23.7988 28.3722 23.2741 28.6532C23.1205 28.7355 22.9199 28.7992 22.5319 28.8354C22.1206 28.8738 21.5925 28.8749 20.7866 28.8749H15.2135C14.4076 28.8749 13.8795 28.8738 13.4682 28.8354C13.0802 28.7992 12.8796 28.7355 12.726 28.6532C12.2013 28.3722 11.8576 27.8953 11.4343 27.1425C11.3841 27.0533 11.3318 26.9577 11.2769 26.8573C10.9177 26.2009 10.4461 25.339 9.71799 24.6958C9.45731 24.4655 9.15194 24.3134 8.86798 24.172L8.79895 24.1375L5.25784 22.3655C5.24784 22.3589 5.19819 22.3257 5.11442 22.2454C5.01879 22.1537 4.90708 22.0277 4.79093 21.8733C4.55467 21.5591 4.34553 21.188 4.2251 20.8575C4.19111 20.7643 4.16874 20.6872 4.15399 20.6249H15.375ZM21.7098 13.5727C22.7078 14.9527 23.3664 16.5942 23.5633 18.3749H30.2769C29.7489 15.3864 27.1548 13.1249 24.0451 13.1249C23.2192 13.1249 22.4317 13.2838 21.7098 13.5727Z" fill="#DED3B3"/>
</svg>
