<svg width="36" height="36" viewBox="0 0 36 36" fill="none" xmlns="http://www.w3.org/2000/svg">
<path fill-rule="evenodd" clip-rule="evenodd" d="M17.988 9.375C15.2942 9.375 13.1077 11.5561 13.1077 14.25C13.1077 16.9439 15.2942 19.125 17.988 19.125C20.6818 19.125 22.8683 16.9439 22.8683 14.25C22.8683 11.5561 20.6818 9.375 17.988 9.375ZM15.3577 14.25C15.3577 12.8018 16.5338 11.625 17.988 11.625C19.4422 11.625 20.6183 12.8018 20.6183 14.25C20.6183 15.6982 19.4422 16.875 17.988 16.875C16.5338 16.875 15.3577 15.6982 15.3577 14.25Z" fill="#DED3B3"/>
<path d="M12.0644 26.2769C15.14 23.0556 20.8542 22.9322 23.9234 26.2624L25.5779 24.7376C21.5769 20.3963 14.3565 20.6179 10.437 24.7231L12.0644 26.2769Z" fill="#DED3B3"/>
<path fill-rule="evenodd" clip-rule="evenodd" d="M4.5 3.375C3.87868 3.375 3.375 3.87868 3.375 4.5V31.5C3.375 32.1213 3.87868 32.625 4.5 32.625H31.5C32.1213 32.625 32.625 32.1213 32.625 31.5V4.5C32.625 3.87868 32.1213 3.375 31.5 3.375H4.5ZM5.625 30.375V5.625H30.375V30.375H5.625Z" fill="#DED3B3"/>
</svg>
